<svg width="262" height="143" viewBox="0 0 262 143" fill="none" xmlns="http://www.w3.org/2000/svg">
<path d="M261.6 139.7C261.6 139.7 264.9 140.8 240.8 141.6C216.7 142.4 89.5001 142.8 76.5001 141.6C63.4001 140.4 37.9001 141.1 71.8001 138.2C105.7 135.3 140.3 134.8 174.4 135.3C210.8 135.8 257.1 138.5 261.6 139.7Z" fill="#1B1C1E"/>
<path d="M56.1001 33.2001C56.1001 33.2001 45.9001 30.1001 38.1001 18.9001C28.2001 4.60008 6.60005 8.90009 1.60005 13.1001C-6.59995 20.0001 20.6 51.9001 42.4 63.9001C42.5 63.8001 55.6001 45.5001 56.1001 33.2001Z" fill="#7DA050"/>
<path d="M21.5 21.9002C22.9912 21.9002 24.2 20.6914 24.2 19.2002C24.2 17.7091 22.9912 16.5002 21.5 16.5002C20.0089 16.5002 18.8 17.7091 18.8 19.2002C18.8 20.6914 20.0089 21.9002 21.5 21.9002Z" fill="#1B1C1E"/>
<path d="M6.6001 30.7002C6.6001 30.7002 18.6001 32.6002 30.8001 30.0002" stroke="#1B1C1E" stroke-miterlimit="10"/>
<mask id="mask0_70_3944" style="mask-type:luminance" maskUnits="userSpaceOnUse" x="0" y="9" width="57" height="55">
<path d="M56.1001 33.2001C56.1001 33.2001 45.9001 30.1001 38.1001 18.9001C28.2001 4.60008 6.60005 8.90009 1.60005 13.1001C-6.59995 20.0001 20.6 51.9001 42.4 63.9001C42.5 63.8001 55.6001 45.5001 56.1001 33.2001Z" fill="white"/>
</mask>
<g mask="url(#mask0_70_3944)">
<g opacity="0.78">
<path d="M34.6001 59.5C34.7001 59.5 34.7001 59.4 34.8001 59.3C34.7001 59.3 34.6001 59.4 34.6001 59.5Z" fill="#181716"/>
<path d="M27.4001 55.4001L27.2001 55.6002C27.4001 55.5002 27.4001 55.5001 27.4001 55.4001Z" fill="#181716"/>
<path d="M36 58.2C36.1 58.2 36.2 58.1 36.3 58L36 58.2Z" fill="#181716"/>
<path d="M41.9 62.8C41.9 62.8 42 62.8 42 62.9V62.8H41.9Z" fill="#181716"/>
<path d="M46.4 60.8L46.5 60.5C46.4 60.6 46.4 60.7 46.4 60.8Z" fill="#181716"/>
<path d="M40.9 63.3001C41 63.3001 41 63.2001 41.1 63.1001C41 63.2001 40.9 63.2001 40.9 63.3001Z" fill="#181716"/>
<path d="M24.7 53.8C24.6 53.8 24.5 53.8 24.4 53.8C24.6 54 24.6 54 24.7 53.8Z" fill="#181716"/>
<path d="M39.4001 61.7002C39.6001 60.9002 39.7001 61.8002 40.0001 61.0002C39.8001 61.1002 39.6001 61.2002 39.7001 60.8002C40.0001 60.4002 40.0001 61.0002 40.3001 60.4002L40.0001 60.6002C40.0001 60.2002 40.4001 59.8002 40.2001 59.8002C39.7001 60.6002 39.7001 59.2002 39.5001 59.3002L39.6001 59.2002L39.5001 58.7002C39.5001 58.7002 39.5001 58.8002 39.4001 58.9002C39.5001 58.4002 39.4001 58.0002 39.1001 58.0002C38.8001 58.4002 38.2001 57.8002 38.0001 58.2002C38.2001 58.1002 38.2001 58.2002 38.3001 58.3002L38.0001 58.9002C37.8001 58.8002 38.2001 58.4002 37.8001 58.6002C37.5001 59.4002 38.1001 58.7002 38.3001 58.9002C38.2001 59.1002 38.0001 59.2002 37.9001 59.2002C38.2001 59.4002 38.4001 59.8002 39.0001 59.1002C39.0001 59.3002 38.8001 59.6002 38.7001 59.7002C39.1001 59.3002 38.7001 60.2002 39.1001 59.9002C38.7001 60.6002 38.4001 60.1002 38.1001 60.4002C38.0001 59.7002 37.4001 60.1002 37.0001 60.0002C37.2001 59.5002 37.7001 59.1002 37.7001 58.7002C37.5001 58.2002 37.2001 58.8002 36.9001 59.1002C36.7001 58.8002 37.3001 58.2002 36.9001 58.0002L37.3001 57.7002C37.4001 56.8002 37.0001 57.9002 36.9001 57.7002C36.9001 57.9002 36.8001 58.1002 37.0001 58.2002C36.9001 58.5002 36.7001 58.5002 36.6001 58.5002C36.4001 58.8002 36.2001 59.2002 36.0001 58.9002C36.4001 58.5002 36.0001 58.5002 36.0001 58.2002L36.1001 58.1002C35.9001 58.2002 35.7001 58.0002 35.6001 58.1002L35.7001 58.0002C35.5001 58.1002 35.2001 58.7002 35.1001 58.4002C35.2001 58.2002 35.7001 57.7002 35.5001 57.7002C35.7001 57.4002 35.9001 57.5002 36.1001 57.7002C36.0001 57.5002 36.1001 56.9002 36.4001 57.0002C36.5001 56.5002 36.1001 57.1002 36.1001 56.8002C36.1001 56.9002 36.0001 57.1002 35.9001 57.2002C36.2001 56.6002 35.5001 56.9002 35.3001 57.3002L35.7001 57.1002C35.5001 57.6002 35.1001 57.7002 35.1001 58.0002C35.3001 57.2002 34.3001 58.1002 34.5001 57.4002L34.4001 57.8002C34.0001 57.4002 33.2001 58.0002 32.7001 58.0002C33.0001 57.9002 33.4001 57.1002 33.5001 57.5002C33.1001 57.1002 33.7001 56.7002 33.8001 56.2002C33.6001 55.7002 33.3001 56.8002 33.0001 57.0002H33.3001C32.5001 57.8002 32.5001 56.4002 31.8001 56.7002C31.9001 56.4002 32.0001 56.6002 32.1001 56.6002C32.1001 56.0002 31.8001 56.6002 31.6001 56.7002C31.4001 56.5002 31.3001 56.2002 31.7001 55.7002C31.5001 55.4002 31.6001 56.1002 31.3001 56.2002V56.0002L30.7001 56.5002C30.6001 56.2002 30.5001 55.8002 30.7001 55.2002C30.2001 55.1002 29.9001 56.4002 29.4001 56.4002C29.4001 56.0002 29.7001 56.0002 29.8001 55.8002L29.5001 55.7002C29.9001 55.1002 30.0001 55.6002 30.4001 54.8002C29.7001 55.4002 29.9001 54.8002 29.3001 55.1002V55.2002C28.9001 55.6002 28.7001 55.1002 28.4001 55.1002C28.7001 54.8002 28.9001 54.9002 29.1001 54.9002C29.0001 54.5002 28.3001 54.5002 27.7001 55.0002C27.6001 54.8002 27.5001 54.4002 27.8001 54.2002C27.4001 53.8002 27.1001 55.0002 26.8001 54.6002L27.1001 54.1002C27.1001 53.1002 25.9001 54.2002 25.9001 53.3002L25.5001 53.9002C25.6001 53.6002 25.5001 53.4002 25.6001 53.1002L25.9001 53.0002C26.0001 52.4002 25.4001 53.3002 25.4001 52.9002C25.3001 53.1002 25.2001 53.6002 25.1001 53.8002C26.2001 54.0002 26.6001 55.4002 27.8001 55.3002C27.8001 55.2002 27.8001 55.1002 27.9001 55.0002C27.9001 55.2002 28.2001 55.1002 28.0001 55.4002H27.9001C28.2001 55.4002 28.0001 56.2002 28.2001 56.3002C28.5001 55.9002 28.6001 56.7002 28.9001 56.0002L28.8001 56.5002C29.0001 56.3002 29.1001 55.9002 29.3001 55.8002C29.4001 55.9002 29.3001 56.2002 29.1001 56.3002C29.6001 56.9002 30.4001 57.2002 31.1001 57.3002L30.8001 57.5002C30.9001 57.7002 31.7001 57.2002 31.1001 58.0002C31.6001 57.8002 31.9001 58.7002 32.3001 57.8002C32.1001 58.8002 32.9001 58.6002 33.4001 58.6002C33.7001 57.8002 33.9001 58.6002 34.2001 58.2002C34.0001 58.8002 33.5001 58.6002 33.3001 59.0002C34.2001 58.3002 34.3001 60.3002 35.2001 58.8002C35.2001 58.9002 35.2001 58.9002 35.2001 59.0002C35.3001 59.0002 35.3001 59.4002 35.3001 59.5002C35.5001 59.3002 35.3001 59.0002 35.6001 59.0002C35.7001 59.1002 35.5001 59.5002 35.4001 59.8002C35.9001 59.6002 36.5001 59.7002 36.8001 59.1002C36.8001 59.3002 36.8001 59.7002 36.6001 59.8002C37.3001 59.5002 37.1001 60.1002 37.7001 60.0002C37.5001 59.9002 37.3001 60.6002 37.2001 60.2002C37.0001 61.2002 38.1001 60.4002 38.3001 61.0002L38.7001 60.5002C39.0001 60.5002 38.8001 61.1002 38.5001 61.2002C38.8001 61.7002 39.2001 61.5002 39.5001 61.6002C39.5001 61.7002 39.4001 61.8002 39.4001 61.7002L39.9001 61.9002C40.0001 61.8002 40.3001 61.6002 40.4001 61.2002C39.8001 61.9002 39.6001 62.1002 39.4001 61.7002Z" fill="#181716"/>
<path d="M36.7001 57.3C36.7001 57.5 36.7001 57.5001 36.7001 57.6001C36.8001 57.5001 36.8001 57.4 36.7001 57.3Z" fill="#181716"/>
<path d="M44.9 62.3C45.2 61.4 44.6 62.3 44.4 62C44.6 61.9 44.8 61.4001 44.9 61.1001C44.2 62.1001 44.7 60.8 44.1 60.8C44.2 60.4 44.5 60.5001 44.6 60.1001C44.2 60.3001 43.8 60.3 43.5 60.9C43.1 60.7 42.9 60.4 42.6 60.4C43 60.3 42.9 59.8 43.3 59.3C42.7 59.9 41.7 60.5 40.9 61.3C41.1 60.6 41.1 60.5 41.4 59.9C41.1 59.2 41 60.5001 40.6 60.1001L40.8 60.3C40.5 60.4 40.2 61.1 40 61.5L40.6 61.6001C40.4 62.1001 40.1 61.9 39.9 61.9C39.5 62.4 40 62.4 39.8 62.9C40 62.6 40.2 62.8 40.4 62.7L40.3 63C40.5 63.4 40.9 62.8 41.1 62.9C41.1 63 41.1 63.0001 41.1 63.1001C41.3 62.8001 41.5 62.5 41.7 62.5H41.6C42 62 42.7 61.8 42.6 61L43.1 61.4C42.8 62 42.3 63 41.9 63L41.8 63.3C41.9 63.8 42.7 63.1 42.8 62.4C43.7 60.9 43.7 62.7 44.4 62.2C44.3 62.7 44 62.7 43.7 63C43.6 63 43.5 63.0001 43.6 62.6001C43 62.6001 43.2 64.0001 42.6 63.6001C42.4 63.3001 43.2 63 42.8 62.8L42 63.9C42.3 64 42.6 63.9 42.9 63.8C44.4 63.5 45.1 64.5 45.1 64.5C47 65 48.9 65.5 50.8 66C51.4 66 51.6 66.1 52.2 65C52.2 64.7 51.8 64.7 52 64.3C51.8 64.7 51.5 64.9 51.2 64.8C51.3 64.3 51.5 64.7 51.5 64.5C51.6 64.3 51.7 64.1 51.8 64.2C51.7 63.4 51 63.4001 50.5 64.1001C50.4 63.6001 50.9 63.5 51.2 63.2C50.4 62.5 49.7 62.4 48.7 62C48.4 62.8 48.4 62.5 48.1 63V62.7C48.1 62.9 47.8 63.3001 47.9 63.6001C47.6 62.8001 46.9 64.4001 46.4 64.6001L46.6 64.2C46.3 64.2 46.2 64.1 45.8 64.3C45.6 63.4 46.3 64.3 46.5 63.3L46.3 63.4C46.5 63 46.9 62.4 47.1 62.2C46.4 62.7 46.5 61.7 45.8 62C46 61.6 46.6 61.4 46.8 61.4C46.6 61.3 46.2 61.5001 46.3 61.1001L46.1 61.7C45.8 61.7 46.3 61.2 46.4 60.8C45.7 60.2 45.7 62.2 44.9 62.3Z" fill="#181716"/>
<path d="M37.6001 59C37.7001 59.1 37.8001 59.1 37.8001 59.1C37.8001 59.1 37.7001 59 37.6001 59Z" fill="#181716"/>
<path d="M39.5 58.6002C39.5 58.5002 39.6 58.5001 39.6 58.4001C39.6 58.4001 39.5 58.5002 39.5 58.6002Z" fill="#181716"/>
<path d="M40.0001 57.9001C39.9001 58.2001 39.8001 58.1001 39.6001 58.4001C39.8001 58.3001 40.0001 58.4001 40.0001 57.9001Z" fill="#181716"/>
<path d="M18.9 45.6001C18.7 45.7001 18.5 45.7001 18.4 45.8001L18.8 45.9001L18.9 45.6001Z" fill="#181716"/>
<path d="M18.9 46.5V46.9L19.6 46.4C19.4 46.2 19.1 46.7 18.9 46.5Z" fill="#181716"/>
<path d="M19.2 47.4001L19 47.5002C19.1 47.4002 19.1 47.4001 19.2 47.4001Z" fill="#181716"/>
<path d="M19.4001 47.1002L19.9001 46.7002L19.3001 46.8002V47.0002C19.2001 47.2002 19.2001 47.3002 19.1001 47.4002L19.5001 47.2002C19.5001 47.2002 19.4001 47.2002 19.4001 47.1002Z" fill="#181716"/>
<path d="M19.6001 47.3002C19.6001 47.2002 19.7001 47.2002 19.7001 47.2002C19.7001 47.2002 19.7001 47.3002 19.6001 47.3002Z" fill="#181716"/>
<path d="M19.4001 48.6001C19.5001 48.4001 19.8001 48.2001 20.0001 48.1001C19.9001 47.7001 19.4001 48.4 19.3001 48C19.9001 47.9 19.4001 47.6 19.6001 47.3C19.3001 47.8 19.1001 48.1 19.2001 48.5L19.5001 48.2C19.7001 48.3 19.5001 48.4001 19.4001 48.6001Z" fill="#181716"/>
<path d="M21.2001 48.9001L20.7001 49.2001C20.8001 49.0001 20.5001 48.7001 20.9001 48.3001C20.7001 48.3001 20.6001 48.5001 20.4001 48.5001C20.5001 48.2001 20.6001 48.0001 20.2001 48.2001C20.4001 48.8001 20.2001 48.8001 20.4001 49.3001C20.3001 49.4001 20.3001 49.3001 20.2001 49.3001L20.3001 49.7001C20.9001 49.2001 21.2001 49.4001 21.2001 48.9001Z" fill="#181716"/>
<path d="M21.3 49.5001C21.1 49.4001 20.6 49.7001 20.5 50.1001H21.2C21.1 50.0001 20.9 49.9001 21.3 49.5001Z" fill="#181716"/>
<path d="M21.6 49.8C21.5 50.1 21.3 50.7 21.7 50.4C21.5 50.2 22.1 49.6 21.6 49.8Z" fill="#181716"/>
<path d="M22.8001 51.3001L22.6001 50.7001C22.9001 50.1001 22.9001 50.6001 23.2001 50.5001C22.9001 50.1001 22.9001 50.4001 22.4001 50.6001C22.3001 50.5001 21.9001 50.7001 21.7001 50.8001C22.6001 50.6001 21.6001 52.1001 22.8001 51.3001Z" fill="#181716"/>
<path d="M22.4001 50.1001L22.2001 50.3001H22.5001L22.4001 50.1001Z" fill="#181716"/>
<path d="M23.3 52.6002C23.1 53.5002 24.1 52.5002 24.1 53.0002C24 53.0002 24 53.1002 23.9 53.1002L24.2 53.2001L24.1 53.4001C24.4 53.0001 24.7 52.9001 25.1 52.7001C25.1 52.1001 24.6 53.2002 24.7 52.5002C24.9 52.3002 25.1 52.1001 25.3 51.9001C25 52.0001 24.8 52.3002 24.6 52.5002C24.4 52.4002 24.6 52.2002 24.7 52.1002C24.4 52.2002 23.9 52.9002 23.8 52.5002C23.9 52.0002 24.3 52.0001 23.9 51.9001C23.6 52.7001 23.7 51.6001 23.3 51.9001C23.2 51.6001 23.3 51.1001 23.5 50.9001C23.1 51.4001 22.6 51.7002 22.4 51.8002L23.1 51.6002L22.8 52.3002C23.1 52.2002 23.2 52.4002 23.3 52.6002Z" fill="#181716"/>
<path d="M25.3 51.9C25.4 51.9 25.4 51.9 25.5 51.8C25.5 51.8 25.4 51.9 25.3 51.9Z" fill="#181716"/>
<path d="M23.5 50.7H23.7L23.8 50.5L23.5 50.7Z" fill="#181716"/>
<path d="M25.8 51.6001C25.8 51.6001 25.6 51.7001 25.7 51.8001L26 51.6001H25.8Z" fill="#181716"/>
<path d="M25.8001 52.2002L25.7001 52.6002L26.0001 52.4002L25.8001 52.2002Z" fill="#181716"/>
<path d="M31 55.5C30.9 55.2 30.7 55.6 30.5 56C30.7 56.2 30.7 55.6 31 55.5Z" fill="#181716"/>
<path d="M34.8001 56.6002C34.7001 56.2002 34.3001 56.6002 34.2001 56.5002C34.2001 56.8002 34.5001 56.8002 34.8001 56.6002Z" fill="#181716"/>
<path d="M37 55.8C36.9 55.9 36.8 56.0001 36.9 56.1001L36.3 56.8C36.4 57.2 36.8 56.1 37 55.8Z" fill="#181716"/>
<path d="M38.7 56.4001L38.3 56.6002L38.4 56.7001C38.2 57.0001 38.1 57.1001 37.8 57.4001C38.2 57.2001 38.5 57.0001 38.7 56.4001Z" fill="#181716"/>
<path d="M37.6001 57.4H37.7001C37.7001 57.2 37.7001 57.1 37.6001 57.4Z" fill="#181716"/>
<path d="M37.8001 57.4002C37.8001 57.3002 37.7001 57.4002 37.7001 57.4002C37.7001 57.4002 37.7001 57.5002 37.8001 57.4002Z" fill="#181716"/>
<path d="M38.7001 56.9001L39.2001 57.0001L39.1001 56.8001C38.9001 57.2001 39.1001 56.3001 38.7001 56.9001Z" fill="#181716"/>
<path d="M41.1 58.4L40.9 58.9C41.2 59.1 42 58.2001 41.8 59.1001C41.8 58.7001 42.3 58.6 42 58.3C41.7 58.7 41.3 58.6 41.1 58.4Z" fill="#181716"/>
<path d="M41.9 59.6002C41.8 59.7002 41.8 59.9002 41.8 60.0002C41.9 60.1002 42.1001 59.9002 42.1001 59.7002C41.8001 60.3002 42.2 59.2002 41.9 59.6002Z" fill="#181716"/>
<path d="M43.4001 60.1001C43.3001 60.1001 43.2001 60.1001 43.2001 60.3001C43.5001 60.4001 43.6001 59.8001 43.9001 59.5001C43.8001 59.0001 43.3001 59.7001 43.4001 60.1001Z" fill="#181716"/>
<path d="M45.5001 61.0002V60.9001L45.2001 61.5002L45.5001 61.0002Z" fill="#181716"/>
<path d="M47.3 61.3002L47.7 60.9001H47.3V61.3002Z" fill="#181716"/>
<path d="M47.6001 61.5001L47.9001 61.6001V61.4C47.8001 61.2 47.7001 61.5001 47.6001 61.5001Z" fill="#181716"/>
<path d="M48.5001 61.7001V61.6001L48.2001 61.8001L48.5001 61.7001Z" fill="#181716"/>
</g>
</g>
<path d="M207.6 114.1C205.1 119.1 205.3 138.8 205.3 138.8H239.6L215.3 109C215.3 109 209 111.3 207.6 114.1Z" fill="#7DA050"/>
<mask id="mask1_70_3944" style="mask-type:luminance" maskUnits="userSpaceOnUse" x="205" y="109" width="35" height="30">
<path d="M207.6 114.1C205.1 119.1 205.3 138.8 205.3 138.8H239.6L215.3 109C215.3 109 209 111.3 207.6 114.1Z" fill="white"/>
</mask>
<g mask="url(#mask1_70_3944)">
<g opacity="0.78">
<path d="M221.6 126.5C221.5 126.5 221.3 126.6 221.2 126.6C221.2 126.6 221.4 126.6 221.6 126.5Z" fill="#181716"/>
<path d="M227.4 135.4L227.8 135.1C227.6 135.2 227.5 135.3 227.4 135.4Z" fill="#181716"/>
<path d="M218.3 127.6C218.1 127.6 217.9 127.6 217.6 127.7L218.3 127.6Z" fill="#181716"/>
<path d="M217.2 129.7C217.1 129.8 217.1 129.8 217 129.9C217.1 129.8 217.2 129.8 217.2 129.7Z" fill="#181716"/>
<path d="M217.3 117.7C217.4 117.7 217.4 117.7 217.5 117.6C217.5 117.7 217.4 117.7 217.3 117.7Z" fill="#181716"/>
<path d="M216.2 117.6C216.2 117.5 216.2 117.5 216.1 117.5L216 117.6C215.9 117.6 216.1 117.6 216.2 117.6Z" fill="#181716"/>
<path d="M208.1 117.2L207.7 117.4C207.9 117.3 208 117.2 208.1 117.2Z" fill="#181716"/>
<path d="M218 117.5C217.9 117.5 217.7 117.6 217.6 117.6C217.7 117.7 217.8 117.7 218 117.5Z" fill="#181716"/>
<path d="M221.8 126.3C221.7 126.3 221.7 126.4 221.6 126.4C221.7 126.4 221.8 126.4 221.8 126.3Z" fill="#181716"/>
<path d="M230.1 138.3C230.2 138.3 230.3 138.4 230.4 138.4C230.4 138.1 230.2 138.1 230.1 138.3Z" fill="#181716"/>
<path d="M217.9 120.6C216.7 121.5 217.6 120.3 216.4 121.1C216.8 121.1 217.1 121.1 216.5 121.6C215.7 121.9 216.3 121.2 215.2 121.8H215.8C215.4 122.3 214.4 122.6 214.6 122.7C216.2 122 214.5 123.8 214.9 123.9H214.7L214.3 124.7C214.3 124.7 214.2 124.7 214.2 124.8C214.3 124.7 214.4 124.7 214.5 124.6C213.9 125.2 213.6 125.8 213.9 126C214.8 125.6 214.8 126.8 215.6 126.4C215.3 126.4 215.2 126.3 215.3 126L216.3 125.4C216.5 125.7 215.4 126 216.2 125.9C217.5 124.9 215.9 125.5 215.9 125.2C216.3 125.1 216.6 125 216.8 125C216.6 124.6 216.8 123.9 215.3 124.5C215.5 124.2 216.1 123.9 216.3 123.9C215.3 124.1 216.9 123.2 216 123.4C217.3 122.7 217 123.6 217.9 123.3C217.2 124.3 218.4 124.2 218.9 124.5C218 125.1 217 125.4 216.6 125.9C216.3 126.7 217.4 126 218 125.8C217.9 126.3 216.5 126.9 216.8 127.4L216 127.5C214.9 128.7 216.7 127.4 216.6 127.8C216.9 127.5 217.2 127.3 217 127.1C217.5 126.7 217.8 126.8 217.9 126.8V126.7C218.6 126.4 219.3 125.9 219.2 126.4C218.3 126.8 218.8 127 218.5 127.3H218.3C218.7 127.3 218.7 127.6 219 127.7L218.8 127.8C219.2 127.7 220.2 127.1 220.1 127.5C219.7 127.7 218.5 128.2 218.8 128.3C218.2 128.7 218 128.4 218 128C218 128.4 217.1 129.2 216.9 128.9C216.2 129.5 217.4 128.9 217.2 129.3C217.4 129.1 217.7 129 217.9 128.8C216.9 129.5 218.2 129.4 218.9 128.9L218.2 129C219 128.4 219.7 128.4 220.1 128C219 129 221.2 128.3 220.3 129.2L220.9 128.6C220.9 129.4 222.7 128.9 223.4 129.2C222.9 129.3 221.5 130.3 221.7 129.6C221.8 130.3 220.5 130.7 220 131.4C219.8 132.2 221.4 130.7 221.9 130.5L221.5 130.4C223.3 129.6 222 131.7 223.3 131.5C222.9 131.8 223 131.6 222.8 131.6C222.2 132.5 223.1 131.7 223.6 131.6C223.7 132 223.6 132.5 222.5 133.1C222.5 133.6 223.1 132.6 223.5 132.5L223.3 132.7L224.6 132.2C224.5 132.7 224.2 133.4 223.4 134.2C224 134.6 225.7 132.7 226.4 132.8C226.1 133.4 225.7 133.3 225.3 133.6L225.7 133.9C224.6 134.6 224.8 133.9 223.6 134.9C225.1 134.2 224.3 135 225.4 134.8L225.5 134.7C226.5 134.2 226.2 135.1 226.6 135.2C226 135.5 225.8 135.3 225.4 135.3C225.2 135.9 226.2 136.2 227.4 135.5C227.4 135.8 227.2 136.5 226.6 136.6C226.9 137.3 228.3 135.5 228.4 136.2L227.6 136.9C226.9 138.4 229.5 136.9 228.9 138.3L229.9 137.4C229.6 137.9 229.6 138.2 229.3 138.6L228.8 138.7C228.2 139.6 229.8 138.2 229.4 139C229.7 138.7 230.1 137.9 230.4 137.6C229 137.2 229.5 135 227.6 134.8C227.5 134.9 227.4 135.1 227.2 135.2C227.3 134.9 226.9 134.9 227.5 134.5H227.6C227.1 134.4 228.2 133.2 228 133C227.2 133.5 227.8 132.2 226.8 133.3L227.4 132.5C226.9 132.8 226.4 133.3 226.1 133.4C226 133.1 226.5 132.8 226.9 132.7C226.8 131.6 226 130.9 225 130.5L225.7 130.3C225.8 129.9 224.2 130.4 225.8 129.5C225 129.6 225.5 128.2 223.9 129.3C225.2 128 223.9 127.9 223.3 127.6C222.1 128.6 222.6 127.4 221.9 127.7C222.8 126.9 223.2 127.4 223.9 126.9C222 127.5 224 124.6 221.2 126.3C221.3 126.2 221.4 126.1 221.5 126C221.4 125.9 221.8 125.4 221.8 125.3C221.3 125.6 221.3 125.9 220.9 125.8C220.9 125.5 221.7 125.1 221.9 124.8C221.1 124.8 220.4 124.4 219.3 125.1C219.5 124.8 220 124.3 220.3 124.2C219.1 124.2 220.1 123.5 219.1 123.3C219.3 123.5 220.3 122.6 220.1 123.3C221.4 122 219.2 122.6 219.6 121.5L218.5 121.9C218.1 121.7 219 121.1 219.5 121.1C219.8 120.2 219 120.3 218.7 119.9C218.8 119.8 219 119.7 219 119.8L218.7 119.2C218.4 119.3 217.8 119.4 217.2 119.9C217.6 120.2 218 120.1 217.9 120.6Z" fill="#181716"/>
<path d="M217 120.5L216.9 120.6C217 120.5 217 120.5 217 120.5Z" fill="#181716"/>
<path d="M216.4 128.4C216.6 128.2 216.7 128.1 216.7 128C216.5 128.1 216.4 128.3 216.4 128.4Z" fill="#181716"/>
<path d="M211.9 116.2C210.4 117.2 212.4 116.4 212.1 116.9C211.7 116.8 210.9 117.4 210.5 117.7C212.6 116.8 210.3 118.3 211.1 118.6C210.5 119 210.2 118.8 209.5 119.2C210.2 119.2 210.7 119.5 211.8 118.9C212.1 119.4 212 120 212.4 120.2C211.7 120.1 211.3 120.8 210.2 121.1C211.7 120.7 213.7 120.6 215.6 120.1C214.5 120.9 214.4 121 213.3 121.7C212.9 122.8 214.5 121.2 214.5 122V121.6C215 121.6 216.1 120.9 217 120.5L216.4 119.9C217.2 119.4 217.4 119.9 217.6 119.9C218.7 119.5 218.1 119.1 218.9 118.7C218.2 119 218.2 118.6 217.9 118.6L218.3 118.3C218.5 117.7 217.4 118.2 217.2 117.9C217.3 117.8 217.4 117.7 217.5 117.7C217 117.9 216.3 118.2 216 118.1L216.1 118.2C214.9 118.6 213.9 118.4 213 119.6L212.9 118.7C214.1 118.1 215.9 117.1 216.3 117.4L216.8 117.1C217.3 116.4 215.4 116.8 214.5 117.6C211.6 119 213.7 116.6 212.3 116.8C213 116.3 213.5 116.4 214.1 116.2C214.3 116.3 214.4 116.4 213.7 116.8C214.5 117.2 216 115.2 216.2 116.1C216 116.7 214.7 116.4 215 117L217.3 116.1C217 115.8 216.5 115.7 216.1 115.6C213.8 115 214.3 113.2 214.3 113.2C212.7 111.2 211.2 109.1 209.7 107.1C209 106.6 209 106.3 206.7 107.2C206.4 107.6 206.8 107.9 206 108.2C206.8 107.8 207.4 107.9 207.5 108.3C206.8 108.8 206.9 108.2 206.8 108.4V108.5C206.4 108.7 206.1 108.8 206 108.7C205.1 109.8 205.8 110.4 207.4 109.9C206.8 110.7 206.1 110.4 205.4 110.5C205.5 112 206.1 112.7 206.7 114C208 113.2 207.6 113.6 208.6 113.2L208.2 113.6C208.4 113.4 209.4 113 209.6 112.6C209 113.9 211.9 112.3 212.7 112.4L212 112.8C212.3 113.1 212.4 113.2 213 113.3C212.1 114.7 212.5 112.9 210.9 114.1H211.3C210.6 114.4 209.4 115 208.8 115.1C210.3 115 208.9 116.2 210.1 116.3C209.3 116.7 208.3 116.5 208.2 116.4C208.3 116.7 209 116.7 208.4 117.2L209.4 116.7C209.8 117 208.5 117.2 207.9 117.7C208.4 118.4 210.8 115.8 211.9 116.2Z" fill="#181716"/>
<path d="M217.1 125.4C217.1 125.2 217 125.2 216.9 125.2C216.9 125.3 216.9 125.4 217.1 125.4Z" fill="#181716"/>
<path d="M214.1 124.9C214 125 213.8 125 213.7 125.1C213.9 125.1 214 125 214.1 124.9Z" fill="#181716"/>
<path d="M212.7 125.6C213.1 125.3 213.2 125.4 213.8 125.1C213.4 125.2 213.2 124.9 212.7 125.6Z" fill="#181716"/>
<path d="M222.4 134C222.2 134.5 222.9 133.9 223.5 133.5C223.4 133 222.9 134 222.4 134Z" fill="#181716"/>
<path d="M218.3 130.5C218 131.1 218.9 130.8 219 131C219.3 130.5 218.8 130.4 218.3 130.5Z" fill="#181716"/>
<path d="M214.3 130.5C214.6 130.4 214.8 130.4 214.8 130.2L216.4 129.4C216.6 128.8 214.9 130.1 214.3 130.5Z" fill="#181716"/>
<path d="M212.7 128.6H213.5L213.4 128.4C214 128.1 214.3 128 214.9 127.8C214.4 127.7 213.7 127.8 212.7 128.6Z" fill="#181716"/>
<path d="M215.3 127.9C215.3 127.9 215.2 127.9 215.1 127.8C215 127.9 214.8 128.1 215.3 127.9Z" fill="#181716"/>
<path d="M215 127.7C214.9 127.7 214.9 127.7 214.8 127.8C214.9 127.8 215 127.8 215.1 127.9C215.3 127.7 215.3 127.6 215 127.7Z" fill="#181716"/>
<path d="M213.2 127.8L212.6 127.3L212.5 127.7C213.4 127.2 212.2 128.4 213.2 127.8Z" fill="#181716"/>
<path d="M211.8 124.2L212.6 123.6C212.5 123.1 210.4 123.8 211.6 122.7C211.2 123.2 210.4 123 210.5 123.6C211.4 123.3 211.9 123.8 211.8 124.2Z" fill="#181716"/>
<path d="M212.2 122C212.5 121.9 212.6 121.7 212.8 121.5C212.8 121.3 212.3 121.4 212 121.7C213.2 121 211.4 122.3 212.2 122Z" fill="#181716"/>
<path d="M211 120.3C211.1 120.4 211.3 120.5 211.4 120.2C211.1 119.9 210.2 120.6 209.5 120.8C209.2 121.4 210.7 120.8 211 120.3Z" fill="#181716"/>
<path d="M215.8 113.6C215.1 114.1 215.3 114.3 215.6 114.2C215.4 114.2 215.6 113.9 215.8 113.6Z" fill="#181716"/>
<path d="M209.5 117.4L209.4 117.6L210.6 117L209.5 117.4Z" fill="#181716"/>
<path d="M207.7 115.8L206.8 116L207.1 116.3L207.7 115.8Z" fill="#181716"/>
<path d="M207.6 115.3L207.3 115L207.1 115.3C207 115.6 207.5 115.2 207.6 115.3Z" fill="#181716"/>
<path d="M206.8 114.4C206.9 114.4 206.8 114.5 206.7 114.6H207.4L206.8 114.4Z" fill="#181716"/>
</g>
</g>
<path d="M69 85.8002C69 85.8002 76.3 122.8 81.9 138.8H108.9L106.6 103.2C106.7 103.2 82.5 82.4002 69 85.8002Z" fill="#7DA050"/>
<mask id="mask2_70_3944" style="mask-type:luminance" maskUnits="userSpaceOnUse" x="69" y="85" width="40" height="54">
<path d="M69 85.8002C69 85.8002 76.3 122.8 81.9 138.8H108.9L106.6 103.2C106.7 103.2 82.5 82.4002 69 85.8002Z" fill="white"/>
</mask>
<g mask="url(#mask2_70_3944)">
<g opacity="0.78">
<path d="M88 98.2002C87.9 98.3002 87.8 98.4002 87.7 98.5002C87.7 98.5002 87.8 98.4002 88 98.2002Z" fill="#181716"/>
<path d="M96.7 104.3L97 103.9C96.7 104 96.7 104.1 96.7 104.3Z" fill="#181716"/>
<path d="M85.3 100.5C85.2 100.5 85 100.6 84.7 100.9L85.3 100.5Z" fill="#181716"/>
<path d="M85.1 102.9C85.1 103 85 103.1 85 103.2C85.1 103 85.1 102.9 85.1 102.9Z" fill="#181716"/>
<path d="M80.7 91.7003C80.8 91.7003 80.8 91.6003 80.8 91.6003L80.7 91.7003Z" fill="#181716"/>
<path d="M79.5999 92.0004C79.5999 91.9004 79.4999 91.9004 79.4999 91.9004L79.3999 92.0004C79.2999 92.1004 79.4999 92.0004 79.5999 92.0004Z" fill="#181716"/>
<path d="M71.9 94.7002L71.6 95.1002C71.8 94.9002 71.9 94.8002 71.9 94.7002Z" fill="#181716"/>
<path d="M81.2 91.3003C81.1 91.4003 81 91.5003 80.8 91.6003C81 91.5003 81.1 91.5003 81.2 91.3003Z" fill="#181716"/>
<path d="M88.1 98.0002C88 98.1002 88 98.1002 88 98.2002C88 98.1002 88.1 98.1002 88.1 98.0002Z" fill="#181716"/>
<path d="M100.2 105.9C100.3 105.9 100.4 105.9 100.5 105.9C100.4 105.6 100.3 105.7 100.2 105.9Z" fill="#181716"/>
<path d="M82.3 94.2004C81.5 95.5004 81.9 94.0004 81.1 95.3004C81.5 95.1004 81.7 95.0004 81.3 95.7004C80.7 96.3004 81 95.4004 80.2 96.4004L80.7 96.2004C80.5 96.8004 79.7 97.5004 79.9 97.5004C81.1 96.2004 80.2 98.6004 80.6 98.5004L80.4 98.6004L80.3 99.5004V99.6004C80.4 99.5004 80.4 99.4004 80.5 99.3004C80.2 100.1 80.1 100.8 80.5 100.8C81.2 100.1 81.7 101.2 82.3 100.6C82 100.7 81.9 100.7 81.9 100.3L82.6 99.3004C82.9 99.5004 82 100.2 82.7 99.8004C83.5 98.4004 82.3 99.5004 82.2 99.3004C82.5 99.0004 82.8 98.8004 83 98.8004C82.6 98.5004 82.6 97.8004 81.4 98.9004C81.5 98.5004 81.9 98.0004 82.1 97.9004C81.3 98.5004 82.4 97.0004 81.7 97.5004C82.6 96.3004 82.7 97.3004 83.5 96.7004C83.2 97.9004 84.3 97.3004 84.8 97.4004C84.2 98.3004 83.4 98.9004 83.2 99.6004C83.2 100.5 83.9 99.4004 84.5 99.0004C84.6 99.5004 83.5 100.6 84 100.9L83.3 101.3C82.7 102.8 83.9 100.9 83.9 101.3C84.1 100.9 84.3 100.6 84 100.5C84.3 100 84.6 99.9004 84.7 99.9004V99.8004C85.2 99.2004 85.7 98.6004 85.8 99.1004C85.1 99.8004 85.7 99.8004 85.5 100.2L85.3 100.3C85.7 100.2 85.8 100.4 86.1 100.4L86 100.6C86.4 100.4 87 99.5004 87.1 99.8004C86.8 100.2 85.9 101.1 86.2 101.1C85.8 101.7 85.5 101.5 85.4 101.2C85.5 101.6 85 102.6 84.7 102.5C84.3 103.3 85.2 102.4 85.1 102.8C85.2 102.6 85.4 102.3 85.6 102.1C85 103.1 86.1 102.5 86.6 101.8L86 102.2C86.5 101.4 87.2 101.1 87.3 100.5C86.6 101.9 88.4 100.3 87.9 101.5L88.2 100.8C88.5 101.6 89.9 100.4 90.7 100.4C90.3 100.7 89.4 102.1 89.3 101.4C89.7 102 88.6 102.9 88.4 103.7C88.5 104.5 89.4 102.5 89.8 102.2L89.3 102.3C90.7 100.9 90.2 103.3 91.4 102.7C91.2 103.2 91.1 102.9 91 103C90.8 104 91.4 103 91.7 102.7C91.9 103 92 103.6 91.3 104.5C91.5 104.9 91.6 103.8 92 103.6L91.9 103.9L92.9 102.9C93 103.4 93 104.2 92.6 105.2C93.4 105.4 94.1 102.9 94.8 102.8C94.8 103.5 94.3 103.6 94.1 104L94.6 104.1C93.8 105.2 93.8 104.4 93.1 105.8C94.2 104.6 93.8 105.7 94.7 105V104.9C95.4 104.1 95.5 105 95.9 104.9C95.5 105.4 95.2 105.3 94.8 105.4C94.9 106 95.9 106 96.8 104.9C96.9 105.2 97 105.9 96.5 106.3C97 106.8 97.6 104.6 98 105.3L97.5 106.2C97.4 107.9 99.2 105.5 99.2 107L99.8 105.8C99.7 106.3 99.8 106.7 99.7 107.2L99.2 107.5C99 108.6 99.9 106.7 99.9 107.5C100.1 107.1 100.2 106.2 100.3 105.8C98.8 105.9 98.4 103.7 96.7 104.3C96.7 104.5 96.6 104.6 96.5 104.9C96.5 104.6 96.1 104.7 96.5 104.1L96.6 104C96.2 104.1 96.6 102.6 96.4 102.5C95.9 103.2 95.9 101.8 95.4 103.2L95.6 102.3C95.3 102.8 95 103.4 94.7 103.6C94.5 103.4 94.8 102.9 95.2 102.6C94.7 101.7 93.7 101.3 92.6 101.2L93.2 100.7C93.2 100.3 91.9 101.4 92.9 99.9004C92.1 100.3 92.1 98.8004 91.1 100.4C91.8 98.7004 90.6 99.2004 89.9 99.0004C89.2 100.4 89.2 99.1004 88.7 99.7004C89.3 98.6004 89.8 98.9004 90.3 98.2004C88.7 99.5004 89.5 96.1004 87.6 98.6004C87.6 98.5004 87.7 98.3004 87.8 98.3004C87.7 98.2004 87.8 97.7004 87.8 97.5004C87.4 97.9004 87.5 98.3004 87.2 98.3004C87.1 98.1004 87.7 97.4004 87.8 97.0004C87 97.4004 86.3 97.2004 85.5 98.2004C85.6 97.8004 85.8 97.1004 86.1 97.0004C84.9 97.4004 85.6 96.5004 84.6 96.6004C84.8 96.7004 85.5 95.5004 85.5 96.2004C86.2 94.5004 84.4 95.8004 84.4 94.7004L83.6 95.5004C83.2 95.5004 83.8 94.5004 84.2 94.3004C84.1 93.4004 83.4 93.8004 83 93.5004C83.1 93.4004 83.2 93.2004 83.2 93.3004L82.7 92.9004C82.5 93.1004 82 93.4004 81.6 94.1004C81.9 93.9004 82.2 93.6004 82.3 94.2004Z" fill="#181716"/>
<path d="M81.4 94.4004L81.3 94.5004C81.4 94.4004 81.4 94.4004 81.4 94.4004Z" fill="#181716"/>
<path d="M83.8 102C83.9 101.7 83.9 101.6 83.9 101.5C83.9 101.6 83.8 101.8 83.8 102Z" fill="#181716"/>
<path d="M75 92.4003C74 93.9003 75.5 92.4003 75.5 93.0003C75.1 93.1003 74.6 93.9003 74.3 94.4003C75.9 92.8003 74.4 95.0003 75.2 95.0003C74.8 95.6003 74.5 95.5003 73.9 96.2003C74.5 95.9003 75.2 96.0003 76 95.0003C76.5 95.3003 76.6 96.0003 77 96.0003C76.3 96.2003 76.2 97.0003 75.3 97.7003C76.5 96.8003 78.4 95.9003 79.9 94.7003C79.2 95.9003 79.1 96.0003 78.3 97.0003C78.4 98.2003 79.2 96.1003 79.5 96.8003L79.4 96.4003C79.9 96.2003 80.7 95.2003 81.3 94.5003L80.5 94.2003C81.1 93.4003 81.4 93.8003 81.6 93.7003C82.4 92.9003 81.7 92.8003 82.3 92.1003C81.8 92.7003 81.7 92.3003 81.3 92.4003L81.6 92.0003C81.6 91.3003 80.7 92.3003 80.4 92.1003C80.5 92.0003 80.5 91.9003 80.6 91.8003C80.2 92.2003 79.7 92.7003 79.4 92.8003H79.6C78.7 93.6003 77.6 93.9003 77.2 95.2003L76.8 94.4003C77.7 93.4003 79 91.8003 79.4 91.9003L79.8 91.5003C80 90.7003 78.4 91.8003 77.9 92.9003C75.7 95.3003 76.8 92.3003 75.5 93.0003C76 92.3003 76.5 92.2003 76.9 91.8003C77.1 91.8003 77.2 91.9003 76.8 92.5003C77.7 92.5003 78.3 90.1003 78.8 90.9003C78.9 91.5003 77.6 91.8003 78 92.2003L79.8 90.5003C79.4 90.3003 78.9 90.5003 78.5 90.5003C76.2 90.8003 76 89.0003 76 89.0003C73.8 87.7003 71.6 86.4003 69.4 85.1003C68.6 84.9003 68.4 84.6003 66.7 86.3003C66.5 86.8003 67.1 86.9003 66.4 87.5003C67 86.8003 67.6 86.6003 67.8 87.0003C67.3 87.7003 67.2 87.1003 67.2 87.3003V87.4003C66.9 87.7003 66.6 87.9003 66.5 87.9003C66.1 89.2003 66.9 89.6003 68.2 88.4003C68 89.4003 67.2 89.3003 66.6 89.8003C67.3 91.2003 68.1 91.6003 69.1 92.5003C70.1 91.3003 69.8 91.8003 70.6 91.1003L70.4 91.6003C70.5 91.3003 71.3 90.6003 71.3 90.2003C71.2 91.6003 73.3 89.1003 74.1 88.9003L73.6 89.5003C74 89.6003 74.2 89.7003 74.7 89.6003C74.4 91.2003 74.1 89.4003 73 91.1003L73.4 91.0003C72.9 91.5003 71.9 92.6003 71.4 92.9003C72.7 92.3003 71.9 93.9003 73.1 93.5003C72.5 94.2003 71.5 94.3003 71.3 94.3003C71.5 94.5003 72.2 94.3003 71.7 94.9003L72.4 94.0003C72.8 94.1003 71.7 94.8003 71.4 95.5003C72.6 95.8003 73.9 92.4003 75 92.4003Z" fill="#181716"/>
<path d="M83.4 99.0002C83.3 98.8002 83.2 98.8002 83.1 98.9002C83.1 98.9002 83.2 99.0002 83.4 99.0002Z" fill="#181716"/>
<path d="M80.4 99.6003C80.3 99.7003 80.2 99.8003 80.1 99.9003C80.3 99.8003 80.4 99.7003 80.4 99.6003Z" fill="#181716"/>
<path d="M79.4 100.7C79.6 100.2 79.8 100.3 80.2 99.8003C79.9 100.1 79.6 99.9003 79.4 100.7Z" fill="#181716"/>
<path d="M108.6 110.4C108.7 110.8 108.5 111.4 108.4 111.9C108.9 112.3 108.8 110.7 109.2 111.2C108.7 112.1 109.4 111.9 109.8 112.4C109.5 111.4 109.3 110.7 108.9 110.4V111.1C108.6 111.2 108.7 110.7 108.6 110.4Z" fill="#181716"/>
<path d="M106.2 111.9L106.7 110.9C106.7 111.4 107.2 111.5 107.1 112.5C107.3 112.4 107.4 111.9 107.6 111.6C107.7 112.1 107.8 112.6 108 111.8C107.2 111 107.5 110.8 106.9 110.4C106.9 110.2 107 110.2 107.1 110.3C107 110.1 106.9 109.9 106.8 109.7C106.5 111.1 105.9 111 106.2 111.9Z" fill="#181716"/>
<path d="M105.7 111C106.1 111 106.4 110.1 106.4 109.4C106.1 109.6 105.8 109.8 105.5 110.1C105.7 110.1 106 110 105.7 111Z" fill="#181716"/>
<path d="M105.2 110.9C105.2 110.3 105.3 109.1 104.8 110.1C105.2 110.1 104.6 111.5 105.2 110.9Z" fill="#181716"/>
<path d="M103.1 109.3L103.5 110.2C103.2 111.5 103.1 110.5 102.7 111C103.2 111.4 103.1 111 103.8 110.3C103.9 110.4 104.4 109.8 104.7 109.5C103.5 110.3 104.4 107.1 103.1 109.3Z" fill="#181716"/>
<path d="M104 111L104.2 110.5L103.8 110.8L104 111Z" fill="#181716"/>
<path d="M102.1 107.3C102.3 105.7 101.1 107.9 100.9 107.1C101 107 101 106.9 101.2 106.8H100.8L100.9 106.5C100.5 107.4 100 107.6 99.6001 108.2C99.6001 109.3 100.3 107.2 100.1 108.3C99.9001 108.7 99.5 109.3 99.3 109.6C99.7 109.2 100 108.7 100.3 108.3C100.6 108.3 100.3 108.8 100.2 109.1C100.7 108.7 101.2 107.4 101.5 107.8C101.5 108.7 100.9 109 101.4 108.8C101.7 107.3 101.8 109.2 102.3 108.4C102.5 108.8 102.4 109.8 102.2 110.3C102.6 109.2 103.2 108.3 103.6 108.1C103.3 108.4 103 108.6 102.7 108.9L103 107.5C102.5 107.9 102.3 107.7 102.1 107.3Z" fill="#181716"/>
<path d="M99.3 109.5C99.2 109.6 99.2 109.6 99.1 109.7C99.1 109.7 99.2 109.7 99.3 109.5Z" fill="#181716"/>
<path d="M102.2 110.6L101.9 110.9V111.3L102.2 110.6Z" fill="#181716"/>
<path d="M98.6 110.3C98.7 110.4 98.9 110 98.8 109.9L98.4 110.4L98.6 110.3Z" fill="#181716"/>
<path d="M98.7 109.3L98.8 108.5L98.4 109.1L98.7 109.3Z" fill="#181716"/>
<path d="M91.5 104.8C91.5 105.4 91.9 104.5 92.3 103.9C92.1 103.6 91.9 104.7 91.5 104.8Z" fill="#181716"/>
<path d="M86.4 103.2C86.3 103.9 87.1 103.2 87.3 103.4C87.3 102.8 86.9 102.9 86.4 103.2Z" fill="#181716"/>
<path d="M82.8 104.7C83 104.5 83.2001 104.4 83.1001 104.2L84.3 102.9C84.2 102.2 83.1 104.1 82.8 104.7Z" fill="#181716"/>
<path d="M80.5 103.5L81.2 103.2L81 103C81.5 102.5 81.7 102.3 82.1 101.9C81.7 102.1 81.1 102.4 80.5 103.5Z" fill="#181716"/>
<path d="M82.6 101.9C82.5 101.9 82.5 101.9 82.4 101.9C82.4 102 82.3 102.3 82.6 101.9Z" fill="#181716"/>
<path d="M82.3 101.8C82.2 101.9 82.2 101.9 82.1 101.9C82.2 101.9 82.3 101.8 82.4 101.8C82.5 101.7 82.5 101.6 82.3 101.8Z" fill="#181716"/>
<path d="M80.7 102.6L80 102.4V102.8C80.6 102 79.9 103.5 80.7 102.6Z" fill="#181716"/>
<path d="M78 99.8004L78.5 98.9004C78.3 98.5004 76.5 100 77.2 98.4004C77 99.0004 76.2 99.1004 76.5 99.7004C77.3 99.1004 77.9 99.4004 78 99.8004Z" fill="#181716"/>
<path d="M77.5 97.6003C77.7 97.4003 77.7999 97.2003 77.8999 96.9003C77.7999 96.7003 77.4 97.0003 77.2 97.4003C78.1 96.3003 76.9 98.2003 77.5 97.6003Z" fill="#181716"/>
<path d="M75.8 96.5002C75.9 96.6002 76.1 96.6003 76.1 96.3003C75.7 96.1003 75.2 97.1003 74.6 97.6003C74.5 98.2003 75.6 97.1002 75.8 96.5002Z" fill="#181716"/>
<path d="M77.7 88.5002C77.2 89.2002 77.5 89.3003 77.8 89.1003C77.6 89.2003 77.6 88.9002 77.7 88.5002Z" fill="#181716"/>
<path d="M73.3 94.4003V94.6003L74.2 93.6003L73.3 94.4003Z" fill="#181716"/>
<path d="M71 93.6003L70.2 94.1003L70.7 94.3003L71 93.6003Z" fill="#181716"/>
<path d="M70.7 93.1004L70.3 92.9004L70.2 93.3004C70.3 93.6004 70.6 93.1004 70.7 93.1004Z" fill="#181716"/>
<path d="M69.7 92.6003C69.8 92.6003 69.7 92.7003 69.7 92.8003L70.3 92.6003H69.7Z" fill="#181716"/>
</g>
</g>
<path d="M248.2 102.3C248.2 102.3 214.6 124.5 150.8 117.8C87 111.2 42.4 63.7002 42.4 63.7002C42.4 63.7002 177.3 107.8 203.4 104.1C229.5 100.4 248.2 102.3 248.2 102.3Z" fill="#EFEECE"/>
<mask id="mask3_70_3944" style="mask-type:luminance" maskUnits="userSpaceOnUse" x="42" y="63" width="207" height="57">
<path d="M248.2 102.3C248.2 102.3 214.6 124.5 150.8 117.8C87 111.2 42.4 63.7002 42.4 63.7002C42.4 63.7002 177.3 107.8 203.4 104.1C229.5 100.4 248.2 102.3 248.2 102.3Z" fill="white"/>
</mask>
<g mask="url(#mask3_70_3944)">
<g opacity="0.78">
<path d="M112.2 98.8003L111.7 98.9003C111.9 99.0003 112 98.9003 112.2 98.8003Z" fill="#181716"/>
<path d="M117.4 109.6C117.5 109.7 117.7 109.7 118.1 109.8L117.4 109.6Z" fill="#181716"/>
<path d="M113.7 119C113.8 119 114 119 114.2 119C114 119 113.9 118.9 113.7 119Z" fill="#181716"/>
<path d="M113.6 109.4C113.7 109.4 113.8 109.4 113.8 109.4C113.8 109.3 113.7 109.3 113.6 109.4Z" fill="#181716"/>
<path d="M110.8 95.2002C110.7 95.1002 110.6 95.0002 110.5 95.0002C110.5 95.2002 110.6 95.2002 110.8 95.2002Z" fill="#181716"/>
<path d="M115 116.2C116.5 115.8 115.1 116.6 116.6 116.3C116.2 116.2 116 116.1 116.7 115.8C117.6 115.8 116.7 116.2 118 116.1L117.5 115.9C118.1 115.6 119.1 115.7 119 115.5C117.2 115.6 119.5 114.5 119.2 114.3L119.4 114.4L120.1 113.8H120.2C120.1 113.8 120 113.8 119.9 113.8C120.7 113.5 121.3 113 121 112.7C120 112.7 120.5 111.6 119.6 111.6C119.9 111.7 119.9 111.8 119.7 112.1L118.5 112.3C118.5 112 119.6 112.1 118.8 111.9C117.2 112.3 118.9 112.4 118.8 112.6C118.4 112.6 118.1 112.5 117.9 112.4C117.9 112.9 117.5 113.4 119.1 113.5C118.8 113.7 118.1 113.8 117.9 113.7C118.9 113.9 117 114.1 117.9 114.3C116.4 114.5 117 113.7 116.1 113.6C117.2 112.9 116 112.6 115.7 112.2C116.8 112 117.8 112.1 118.4 111.8C119 111.2 117.7 111.4 117 111.3C117.3 110.9 118.8 110.9 118.8 110.3L119.6 110.5C121.1 109.9 118.9 110.3 119.2 110C118.8 110.2 118.4 110.2 118.5 110.5C117.9 110.6 117.7 110.5 117.6 110.4V110.5C116.8 110.5 116 110.7 116.3 110.2C117.2 110.2 116.9 109.8 117.3 109.6H117.5C117.1 109.4 117.2 109.1 117 109H117.2C116.8 108.9 115.7 109.1 115.8 108.7C116.3 108.6 117.6 108.7 117.3 108.4C118 108.3 118.1 108.6 117.9 108.9C118.1 108.6 119.2 108.2 119.3 108.5C120.1 108.2 118.9 108.3 119.2 108C118.9 108.1 118.6 108.1 118.4 108.2C119.6 107.9 118.4 107.5 117.5 107.7L118.2 107.9C117.3 108.1 116.6 107.9 116.1 108.1C117.5 107.6 115.2 107.4 116.4 107L115.7 107.3C116 106.5 114.2 106.4 113.7 105.8C114.2 105.9 115.8 105.6 115.4 106.1C115.6 105.4 117 105.5 117.7 105.2C118.2 104.6 116.1 105.3 115.6 105.3L116 105.6C114 105.6 116.1 104.2 114.8 103.8C115.3 103.6 115.1 103.9 115.3 103.9C116.2 103.4 115 103.7 114.6 103.6C114.7 103.2 115 102.8 116.2 102.6C116.4 102.2 115.5 102.8 115.1 102.7L115.3 102.6H113.9C114.2 102.2 114.7 101.7 115.8 101.2C115.4 100.6 113.1 101.7 112.5 101.3C113 100.8 113.4 101.1 113.9 101L113.7 100.6C115 100.4 114.5 100.9 116 100.5C114.4 100.5 115.4 100.1 114.3 99.9001L114.2 100C113.1 100.1 113.7 99.4002 113.4 99.1002C114.1 99.0002 114.2 99.3002 114.5 99.5002C114.9 99.0002 114.2 98.3002 112.7 98.5002C112.8 98.3002 113.3 97.7002 113.9 97.8002C113.9 97.1002 111.9 98.1001 112.1 97.4001L113.1 97.1002C114.3 96.0002 111.4 96.3002 112.5 95.3002L111.3 95.7001C111.8 95.4001 111.9 95.0002 112.4 94.8002L112.9 94.9001C113.8 94.3001 111.8 95.0001 112.4 94.4001C112 94.5001 111.3 95.1002 110.9 95.3002C112.1 96.3002 110.7 98.1001 112.3 98.9001C112.4 98.8001 112.6 98.7001 112.8 98.7001C112.5 98.9001 112.9 99.1002 112.3 99.3002H112.2C112.6 99.5002 111.2 100.3 111.2 100.5C112.1 100.4 111 101.3 112.4 100.7L111.6 101.2C112.2 101.1 112.8 100.9 113.2 100.9C113.1 101.2 112.6 101.3 112.2 101.3C111.9 102.3 112.3 103.3 113 104.1L112.3 104C112 104.3 113.7 104.5 111.9 104.7C112.7 105 111.7 106 113.5 105.6C111.8 106.3 113 106.9 113.4 107.4C114.9 106.9 114 107.8 114.7 107.8C113.5 108.2 113.3 107.6 112.5 107.7C114.5 107.9 111.5 109.8 114.7 109.4C114.6 109.5 114.5 109.5 114.3 109.5C114.3 109.6 113.8 109.9 113.7 110.1C114.3 110.1 114.5 109.7 114.7 110C114.6 110.3 113.7 110.3 113.4 110.5C114.2 110.8 114.6 111.5 115.9 111.3C115.6 111.5 114.9 111.8 114.6 111.7C115.7 112.2 114.6 112.4 115.3 113C115.2 112.8 113.9 113.1 114.4 112.7C112.7 113.3 114.9 113.7 114.1 114.5H115.3C115.6 114.8 114.5 115 114 114.9C113.4 115.6 114.2 115.8 114.2 116.3C114.1 116.4 113.8 116.4 113.9 116.3L114 117C114.3 117 114.9 117.2 115.6 117C115 116.7 114.6 116.6 115 116.2Z" fill="#181716"/>
<path d="M119.5 109.7C119.2 109.8 119.1 109.9 119.1 110C119.2 109.8 119.4 109.8 119.5 109.7Z" fill="#181716"/>
<path d="M118.7 122.6C120.4 122.3 118.4 122.2 118.8 121.9C119.1 122.1 120.1 121.9 120.6 121.8C118.3 121.8 121 121.3 120.4 120.7C121.1 120.6 121.3 120.9 122.1 120.8C121.5 120.5 121.1 120 119.8 120.2C119.7 119.6 120.1 119.1 119.8 118.8C120.4 119.2 121.1 118.7 122.2 118.8C120.7 118.6 118.8 117.9 116.9 117.6C118.3 117.3 118.4 117.2 119.7 117.1C120.5 116.2 118.4 117.1 118.7 116.4L118.5 116.8C118 116.6 116.7 116.8 115.8 116.8L116.1 117.6C115.2 117.8 115.2 117.2 114.9 117.1C113.7 117.1 114.2 117.7 113.3 117.7C114.1 117.7 113.9 118 114.2 118.2L113.7 118.3C113.2 118.8 114.5 118.7 114.6 119.1C114.5 119.2 114.4 119.2 114.3 119.2C114.9 119.2 115.6 119.2 115.8 119.4L115.7 119.3C117 119.4 117.8 120 119.1 119.3L118.8 120.2C117.5 120.3 115.4 120.5 115.2 120H114.6C113.9 120.5 115.8 120.8 116.9 120.4C120.2 120.2 117.2 121.6 118.6 122C117.7 122.2 117.3 121.9 116.7 121.8C116.6 121.6 116.5 121.5 117.3 121.4C116.7 120.7 114.6 122 114.7 121.1C115.1 120.6 116.2 121.4 116.2 120.8L113.7 120.7C113.8 121.1 114.3 121.4 114.6 121.6C116.5 123.1 115.3 124.5 115.3 124.5C115.9 127 116.5 129.5 117.1 131.9C117.5 132.7 117.5 132.9 119.9 133C120.4 132.8 120.1 132.3 121 132.4C120.1 132.4 119.6 132.2 119.6 131.7C120.5 131.6 120.1 132 120.3 131.9L120.4 131.8C120.9 131.8 121.2 131.8 121.2 132C122.5 131.4 122.1 130.5 120.4 130.4C121.3 129.9 121.8 130.5 122.5 130.6C123 129.2 122.8 128.3 122.7 126.9C121.2 127.1 121.7 126.9 120.6 126.8L121.2 126.6C120.9 126.7 119.8 126.6 119.6 127C120.7 126.1 117.4 126.4 116.7 125.9L117.5 125.8C117.3 125.4 117.3 125.3 116.8 124.9C118.2 124 117.1 125.5 119.1 125L118.7 124.8C119.5 124.8 120.8 124.8 121.4 124.9C120 124.4 121.8 123.9 120.7 123.3C121.6 123.3 122.4 123.8 122.5 124C122.6 123.7 121.8 123.4 122.7 123.2L121.6 123.3C121.4 122.9 122.6 123.2 123.3 123C122.8 122 119.5 123.4 118.7 122.6Z" fill="#181716"/>
<path d="M117.6 112.1C117.5 112.2 117.6 112.3 117.7 112.4C117.8 112.3 117.7 112.2 117.6 112.1Z" fill="#181716"/>
<path d="M120.1 113.8C120.3 113.8 120.4 113.8 120.5 113.8C120.4 113.7 120.3 113.7 120.1 113.8Z" fill="#181716"/>
<path d="M121.7 113.7C121.2 113.8 121.2 113.7 120.5 113.7C120.9 113.8 121 114.1 121.7 113.7Z" fill="#181716"/>
<path d="M106.2 81.0002C106 81.3002 105.5 81.5002 105.6 81.8002C105.8 81.7002 106.1 81.6003 106.3 81.6003C106.3 81.4003 106.2 81.2002 106.2 81.0002Z" fill="#181716"/>
<path d="M107.1 82.5001C107.2 82.7001 107.3 82.9001 107.4 83.1001C107.7 82.7001 108.1 82.3001 108.5 82.0001C107.9 81.7001 107.6 82.8001 107.1 82.5001Z" fill="#181716"/>
<path d="M107.9 84.0002L107.6 84.2002C107.8 84.2002 107.9 84.1002 107.9 84.0002Z" fill="#181716"/>
<path d="M108.3 83.5002C108.6 83.2002 108.8 83.0002 109.1 82.7002C108.7 82.8002 108.4 82.9002 108 83.0002L108.1 83.3002C107.9 83.6002 107.9 83.8002 107.8 84.0002C108 83.8002 108.2 83.7002 108.5 83.5002C108.5 83.5002 108.3 83.6002 108.3 83.5002Z" fill="#181716"/>
<path d="M108.8 83.8002C108.9 83.7002 108.9 83.6002 109 83.5002C108.9 83.6002 108.8 83.7002 108.8 83.8002Z" fill="#181716"/>
<path d="M108.2 86.1003C108.4 85.7003 109 85.5003 109.4 85.2003C109.4 84.6003 108.2 85.7003 108.3 85.1003C109.3 84.9003 108.6 84.5003 108.8 83.8003C108.3 84.7003 108 85.4003 108 85.9003L108.5 85.4003C108.7 85.5003 108.3 85.7003 108.2 86.1003Z" fill="#181716"/>
<path d="M110.9 86.7002L109.9 87.0002C110.3 86.7002 110 86.2002 110.8 85.6002C110.6 85.5002 110.2 85.8002 109.9 85.9002C110.2 85.4002 110.4 85.1002 109.8 85.4002C109.8 86.5002 109.4 86.5002 109.6 87.2002C109.4 87.3002 109.4 87.2002 109.4 87.1002C109.3 87.3002 109.3 87.5002 109.2 87.8002C110.1 87.1002 110.5 87.5002 110.9 86.7002Z" fill="#181716"/>
<path d="M110.6 87.7003C110.4 87.4003 109.4 87.8003 109 88.3003C109.4 88.3003 109.7 88.4003 110.1 88.4003C110 88.3003 109.7 88.1003 110.6 87.7003Z" fill="#181716"/>
<path d="M110.9 88.1003C110.5 88.5003 109.6 89.3003 110.6 89.0003C110.3 88.7003 111.8 88.1003 110.9 88.1003Z" fill="#181716"/>
<path d="M111.2 90.8003L111.5 89.9003C112.7 89.2003 112 90.0003 112.7 89.9003C112.7 89.2003 112.4 89.6003 111.4 89.6003C111.4 89.4003 110.7 89.5003 110.2 89.5003C111.7 89.8003 108.7 91.3003 111.2 90.8003Z" fill="#181716"/>
<path d="M111.8 88.9001L111.3 89.1002L111.8 89.2001V88.9001Z" fill="#181716"/>
<path d="M110.5 92.8003C109.2 93.8003 111.6 93.1003 111.2 93.8003C111.1 93.8003 111 93.9003 110.8 93.9003L111.1 94.2003L110.8 94.4003C111.7 94.0003 112.2 94.2003 113 94.1003C113.8 93.4003 111.8 94.3003 112.7 93.6003C113.1 93.5003 113.8 93.3003 114.1 93.3003C113.6 93.2003 113 93.4003 112.5 93.5003C112.3 93.3003 112.8 93.2003 113.2 93.0003C112.6 92.9003 111.2 93.5003 111.4 93.0003C112.1 92.4003 112.7 92.6003 112.2 92.3003C110.9 93.1003 112.2 91.8003 111.3 92.0003C111.4 91.6003 112.2 90.9003 112.7 90.8003C111.6 91.3003 110.6 91.5003 110.1 91.4003C110.5 91.4003 110.9 91.5003 111.3 91.5003L110.1 92.3003C110.8 92.3003 110.8 92.6003 110.8 92.9003L110.5 92.8003Z" fill="#181716"/>
<path d="M112.8 90.5002H113.2L113.5 90.2002L112.8 90.5002Z" fill="#181716"/>
<path d="M115.1 93.2001C115.1 93.1001 114.7 93.2001 114.7 93.3001L115.4 93.2001H115.1Z" fill="#181716"/>
<path d="M114.4 93.9001L113.7 94.4001L114.3 94.3002L114.4 93.9001Z" fill="#181716"/>
<path d="M116.1 102.1C116.5 101.7 115.6 102 114.9 102.1C114.8 102.6 115.7 102 116.1 102.1Z" fill="#181716"/>
<path d="M118.5 107C119 106.6 118.1 106.5 118 106.2C117.6 106.6 118 106.8 118.5 107Z" fill="#181716"/>
<path d="M122.2 108.5C121.9 108.5 121.7 108.4 121.6 108.6L119.9 108.7C119.4 109.2 121.4 108.7 122.2 108.5Z" fill="#181716"/>
<path d="M122.9 111L122.2 110.7V110.9C121.5 110.9 121.2 110.9 120.6 110.9C121 111.1 121.7 111.3 122.9 111Z" fill="#181716"/>
<path d="M120.2 110.6L120.3 110.7C120.5 110.6 120.8 110.6 120.2 110.6Z" fill="#181716"/>
<path d="M120.4 110.9C120.5 110.9 120.5 110.9 120.6 110.9C120.5 110.8 120.4 110.8 120.3 110.7C120.2 110.8 120.1 110.8 120.4 110.9Z" fill="#181716"/>
<path d="M122.1 111.4L122.4 112.1L122.7 111.8C121.7 111.9 123.3 111.3 122.1 111.4Z" fill="#181716"/>
<path d="M121.9 115.3L120.9 115.5C120.8 116 123 116.2 121.5 116.7C122.1 116.4 122.7 116.9 122.9 116.3C122 116.3 121.7 115.7 121.9 115.3Z" fill="#181716"/>
<path d="M120.7 117.2C120.4 117.2 120.2 117.3 119.9 117.4C119.8 117.6 120.3 117.7 120.7 117.5C119.4 117.7 121.6 117.3 120.7 117.2Z" fill="#181716"/>
<path d="M121.1 119.3C121.1 119.2 120.9 119 120.7 119.2C120.8 119.6 122 119.3 122.7 119.4C123.3 119 121.6 118.9 121.1 119.3Z" fill="#181716"/>
</g>
</g>
<path d="M116.5 138.8C116.5 138.8 88.0001 138.8 85.6001 138.8C84.2001 138.8 80.9 118.3 78.4 101.3C76.6 89.3001 75.3 79.1001 75.3 79.1001C75.3 79.1001 84.5001 82.1001 93.1001 86.2001C100.2 89.6001 113 97.0001 113 97.0001L116.5 138.8Z" fill="#7DA050"/>
<path d="M85.6001 138.8C84.2001 138.8 80.9 118.3 78.4 101.3C76.6 89.3001 75.3 79.1001 75.3 79.1001" stroke="#1B1C1E" stroke-miterlimit="10"/>
<path d="M83 131.2C83 131.2 88.2 123.3 93.5 138.7C93.5 138.7 90.2 129.3 96.9 129.2C101.7 129.1 105.1 138.8 105.1 138.8" stroke="#1B1C1E" stroke-miterlimit="10"/>
<path d="M248.2 102.3C248.2 102.3 255.3 133.3 255 138.7H226.4C226.4 138.7 223.6 131.7 219.3 123.9C216.4 118.6 212.8 112.9 209 108.7C209.1 108.7 234 102.2 248.2 102.3Z" fill="#7DA050"/>
<path d="M226.5 138.7C226.5 138.7 223.7 131.7 219.4 123.9C216.5 118.6 212.9 112.9 209.1 108.7" stroke="#1B1C1E" stroke-miterlimit="10"/>
<path d="M236.5 105.1C236.5 105.1 244.5 115.7 253.3 126.4" stroke="#1B1C1E" stroke-miterlimit="10"/>
<path d="M224.5 134.2C224.5 134.2 223.8 129.1 227.9 130C231.6 130.8 234.2 138.8 234.2 138.8C234.2 138.8 229.7 128.5 236.6 129.2C240.8 129.7 243.2 138.8 243.2 138.8" stroke="#1B1C1E" stroke-miterlimit="10"/>
<path d="M248.2 102.3C248.2 102.3 140.7 134.6 42.5 63.8001C42.5 63.8001 42.9 61.4001 44.1 57.6001C45 58.2001 100 94.6001 160.9 100.6C220.9 106.5 245.7 95.9001 246.3 95.7001C247 97.9001 247.7 100.1 248.2 102.3Z" fill="#93543B"/>
<path d="M246.3 95.6002C245.7 95.9002 220.9 106.4 160.9 100.5C100 94.5002 45.0001 58.1002 44.1001 57.5002C49.2001 41.1002 68.3001 -1.89983 129.5 0.600173C194.4 3.40017 233 53.4002 246.3 95.6002Z" fill="#A1683D"/>
<path d="M116.5 0.900146C116.5 0.900146 121.4 16.7002 123.2 19.0002C124.1 20.1002 149.9 38.1002 149.9 38.1002C149.9 38.1002 184.7 40.9001 186 41.2001C188.5 41.8001 205.4 31.7001 205.4 31.7001" stroke="#1B1C1E" stroke-miterlimit="10"/>
<path d="M123.2 18.9001C123.2 18.9001 108.1 25.2002 93.6 41.1002L67.3 35.5002L62.4 25.5002" stroke="#1B1C1E" stroke-miterlimit="10"/>
<path d="M149.9 38.0002C149.9 38.0002 143.7 54.2002 140.4 66.2002" stroke="#1B1C1E" stroke-miterlimit="10"/>
<path d="M93.6001 41.1001L110.5 63.8001L140.4 66.2001L169.8 83.4001L196.5 71.8001C194.4 58.7001 185.9 41.1001 185.9 41.1001" stroke="#1B1C1E" stroke-miterlimit="10"/>
<path d="M196.5 71.8002L229.2 75.9002L234.1 67.7002" stroke="#1B1C1E" stroke-miterlimit="10"/>
<path d="M110.4 63.8003C110.4 63.8003 102.2 77.3003 99.9 85.5003" stroke="#1B1C1E" stroke-miterlimit="10"/>
<path d="M169.8 83.3003C169.8 83.3003 169.8 93.5003 169.8 101.3" stroke="#1B1C1E" stroke-miterlimit="10"/>
<path d="M229.2 75.9001C229.2 75.9001 235.9 92.0001 237.7 98.2001" stroke="#1B1C1E" stroke-miterlimit="10"/>
<path d="M67.2001 35.5002C67.2001 35.5002 58.6001 48.0002 53.1001 63.0002" stroke="#1B1C1E" stroke-miterlimit="10"/>
<path d="M44.1001 57.5002C45.0001 58.1002 100 94.5002 160.9 100.5C220.9 106.4 245.7 95.8003 246.3 95.6003" stroke="#1B1C1E" stroke-miterlimit="10"/>
<path d="M29.3 26.8003C29.3 26.8003 29.3 30.9003 33.4 31.4003" stroke="#1B1C1E" stroke-miterlimit="10"/>
</svg>
