<svg width="138" height="233" viewBox="0 0 138 233" fill="none" xmlns="http://www.w3.org/2000/svg">
<path d="M1.90002 226.4C1.90002 226.4 -3.89997 227.2 12.1 229.1C52.4 233.9 112.5 231.7 121.3 230.8C130.1 229.9 140.7 227.1 124.2 226C111.7 225.1 93.4 225.2 80.7 224.9C57.9 224.2 8.90002 224.4 1.90002 226.4Z" fill="#1B1C1E"/>
<path d="M84 56.8C84 56.8 70.6 10.3 50.1 1.69998C29.6 -6.90002 37.6 35 50.8 50.9C63.9 66.8 86.1 70 84 56.8Z" fill="white"/>
<mask id="mask0_70_2670" style="mask-type:luminance" maskUnits="userSpaceOnUse" x="39" y="0" width="46" height="65">
<path d="M84 56.7999C84 56.7999 70.6 10.2999 50.1 1.69993C29.6 -6.90007 42.5 32.2999 55.8 48.1999C68.9 64.0999 86.1 69.9999 84 56.7999Z" fill="white"/>
</mask>
<g mask="url(#mask0_70_2670)">
<g opacity="0.5">
<path d="M70.7 44.3C70.8 44.3 70.8999 44.2 70.8999 44.2C70.8999 44.1 70.8 44.1 70.7 44.3Z" fill="#080809"/>
<path d="M64.8999 39.3999L64.7 39.5999C64.9 39.5999 64.8999 39.4999 64.8999 39.3999Z" fill="#080809"/>
<path d="M72.6 43.0999C72.7 43.0999 72.8 42.9999 73 42.8999L72.6 43.0999Z" fill="#080809"/>
<path d="M72.8999 41.5999C72.8999 41.4999 72.9999 41.4999 72.9999 41.3999C72.8999 41.4999 72.8999 41.4999 72.8999 41.5999Z" fill="#080809"/>
<path d="M75.1 49.4999C75.1 49.4999 75 49.4999 75 49.5999C75.1 49.4999 75.1 49.4999 75.1 49.4999Z" fill="#080809"/>
<path d="M75.8999 49.4999H75.9999C76.0999 49.3999 75.8999 49.4999 75.8999 49.4999Z" fill="#080809"/>
<path d="M76 48.9999L76.1 49.0999C76.1 49.0999 76.1 48.9999 76 48.9999Z" fill="#080809"/>
<path d="M81.2 49.0999L81.4999 48.8999C81.3999 48.9999 81.3 48.9999 81.2 49.0999Z" fill="#080809"/>
<path d="M74.7999 49.7C74.8999 49.7 74.9999 49.6 75.0999 49.6C74.8999 49.6 74.8999 49.5 74.7999 49.7Z" fill="#080809"/>
<path d="M70.6 44.3999L70.7 44.2999C70.7 44.2999 70.6 44.2999 70.6 44.3999Z" fill="#080809"/>
<path d="M72.9999 43.4999C72.8999 43.3999 72.8999 43.3999 72.9999 43.4999V43.4999Z" fill="#080809"/>
<path d="M62.3999 37.9999C62.2999 37.9999 62.2 37.9999 62.2 37.9999C62.3 38.1999 62.3999 38.1999 62.3999 37.9999Z" fill="#080809"/>
<path d="M74.3 47.6C74.9 46.8 74.5 47.8 75.2 47.1C75 47.1 74.8 47.2 75.1 46.8C75.6 46.5 75.3 47 75.9 46.5L75.5 46.6C75.7 46.2 76.3 45.9 76.1 45.8C75.2 46.5 75.9 45.1 75.7 45H75.8L75.9 44.4L75.8 44.5C76.1 44 76.2 43.6 75.9 43.5C75.4 43.9 75.1 43.1 74.7 43.4C74.9 43.4 75 43.4 75 43.6L74.5 44.1C74.3 43.9 75 43.6 74.5 43.7C73.9 44.5 74.7 43.9 74.8 44.1C74.6 44.2 74.4 44.3 74.2 44.3C74.4 44.6 74.4 45 75.3 44.5C75.2 44.7 74.9 45 74.8 45C75.4 44.7 74.5 45.6 75.1 45.3C74.4 45.9 74.4 45.3 73.9 45.6C74.2 44.8 73.4 45.1 73 45C73.4 44.5 74 44.2 74.2 43.8C74.2 43.2 73.7 43.9 73.3 44C73.3 43.7 74 43.1 73.8 42.8L74.3 42.6C74.8 41.7 73.9 42.8 73.9 42.5C73.8 42.7 73.6 42.9 73.8 43C73.6 43.3 73.4 43.3 73.3 43.3V43.4C72.9 43.7 72.6 44.1 72.5 43.7C73 43.4 72.6 43.2 72.8 43L72.9 42.9C72.6 42.9 72.5 42.7 72.4 42.8L72.5 42.7C72.2 42.8 71.7 43.3 71.7 43.1C71.9 42.9 72.6 42.4 72.3 42.4C72.6 42.1 72.8 42.2 72.9 42.5C72.9 42.2 73.2 41.6 73.4 41.8C73.7 41.3 73.1 41.8 73.1 41.5C73 41.6 72.9 41.8 72.8 41.9C73.3 41.3 72.5 41.5 72.1 41.9L72.5 41.7C72.1 42.2 71.7 42.3 71.5 42.6C72 41.8 70.7 42.6 71.1 41.9L70.9 42.3C70.7 41.8 69.7 42.4 69.2 42.3C69.5 42.2 70.2 41.3 70.2 41.8C70 41.4 70.7 40.9 70.9 40.4C70.8 39.9 70.2 41.1 69.9 41.2H70.2C69.2 42 69.6 40.4 68.8 40.7C69 40.4 69 40.6 69.1 40.6C69.3 40 68.8 40.6 68.6 40.7C68.5 40.5 68.4 40.1 68.9 39.6C68.8 39.3 68.7 40 68.4 40.1L68.5 39.9L67.8 40.4C67.8 40.1 67.8 39.6 68.1 38.9C67.6 38.7 67 40.2 66.5 40.2C66.5 39.8 66.9 39.7 67 39.5L66.7 39.4C67.3 38.8 67.3 39.3 67.8 38.4C67 39.1 67.3 38.4 66.7 38.8V38.9C66.2 39.4 66.1 38.8 65.9 38.8C66.2 38.5 66.4 38.6 66.6 38.5C66.6 38.1 65.8 38 65.2 38.7C65.2 38.5 65.1 38.1 65.4 37.8C65 37.4 64.6 38.8 64.3 38.3L64.6 37.7C64.7 36.6 63.4 38 63.4 37L63 37.7C63.1 37.4 63 37.1 63.1 36.8L63.4 36.7C63.5 36 62.9 37.2 62.9 36.6C62.8 36.8 62.7 37.4 62.6 37.6C63.7 37.6 63.9 39.1 65.1 38.9C65.1 38.8 65.1 38.7 65.2 38.6C65.2 38.8 65.5 38.7 65.2 39.1H65.1C65.4 39.1 65.1 40 65.2 40.1C65.6 39.7 65.5 40.6 65.9 39.7L65.7 40.3C65.9 40 66.2 39.6 66.3 39.5C66.4 39.7 66.2 40 66 40.1C66.3 40.8 67 41.1 67.7 41.2L67.3 41.5C67.3 41.8 68.2 41.2 67.5 42C68 41.8 68 42.8 68.7 41.9C68.2 42.9 69 42.8 69.5 42.9C70.1 42.1 70 42.9 70.4 42.6C70 43.2 69.6 43 69.3 43.4C70.4 42.7 69.7 44.9 71.2 43.4C71.2 43.5 71.1 43.6 71.1 43.6C71.2 43.7 71 44 71 44.1C71.3 43.9 71.2 43.6 71.5 43.7C71.6 43.9 71.2 44.2 71 44.5C71.5 44.4 72.1 44.6 72.6 44C72.5 44.2 72.3 44.6 72.1 44.7C72.9 44.6 72.4 45.1 73.1 45.2C72.9 45.1 72.5 45.8 72.5 45.3C71.9 46.3 73.2 45.7 73.1 46.4L73.7 46C74 46.1 73.5 46.6 73.2 46.7C73.2 47.3 73.7 47.1 73.9 47.4C73.9 47.5 73.7 47.6 73.7 47.5L74 47.8C74.2 47.7 74.5 47.6 74.8 47.2C74.5 47.9 74.3 48 74.3 47.6Z" fill="#080809"/>
<path d="M73.7 42.2999C73.6 42.4999 73.6 42.5999 73.6 42.5999C73.7 42.4999 73.7 42.3999 73.7 42.2999Z" fill="#080809"/>
<path d="M79 50C79.8 49.2 78.7 49.9 78.7 49.5C79 49.5 79.4 49.1 79.6 48.8C78.4 49.6 79.6 48.4 79.1 48.2C79.4 47.9 79.6 48 80 47.7C79.6 47.8 79.1 47.6 78.5 48.1C78.2 47.8 78.2 47.4 77.9 47.3C78.4 47.3 78.5 46.8 79.2 46.5C78.3 46.9 77 47.2 75.9 47.7C76.5 47 76.5 47 77.1 46.4C77.1 45.6 76.4 46.9 76.3 46.3L76.4 46.6C76 46.6 75.5 47.2 75 47.6L75.5 47.9C75.1 48.3 74.9 48 74.7 48C74.1 48.4 74.6 48.6 74.1 48.9C74.5 48.6 74.5 48.9 74.8 48.8L74.6 49C74.5 49.4 75.2 49 75.4 49.1C75.3 49.2 75.3 49.2 75.3 49.3C75.6 49.1 76 48.9 76.2 48.9L76.1 48.8C76.8 48.4 77.5 48.4 77.9 47.6L78.1 48.2C77.4 48.7 76.4 49.5 76.1 49.4L75.8 49.6C75.6 50.1 76.8 49.7 77.2 49C78.9 47.8 77.9 49.6 78.8 49.3C78.4 49.7 78.1 49.7 77.7 49.9C77.6 49.8 77.5 49.8 77.8 49.5C77.2 49.3 76.6 50.8 76.3 50.2C76.3 49.8 77.2 49.9 77 49.5L75.7 50.3C75.9 50.5 76.3 50.5 76.5 50.5C78.1 50.7 78 51.9 78 51.9C79.3 53.1 80.6 54.4 81.8 55.7C82.3 56 82.4 56.2 83.7 55.5C83.9 55.2 83.6 55 84.1 54.8C83.6 55.1 83.2 55.1 83.1 54.8C83.5 54.4 83.5 54.9 83.5 54.7V54.6C83.7 54.5 83.9 54.4 84 54.5C84.5 53.7 83.9 53.3 83 53.8C83.3 53.2 83.8 53.4 84.2 53.3C83.9 52.3 83.5 51.8 82.9 51C82.1 51.6 82.4 51.3 81.8 51.6L82 51.3C81.9 51.4 81.3 51.8 81.2 52.1C81.4 51.2 79.8 52.4 79.2 52.4L79.6 52.1C79.3 51.9 79.3 51.9 78.9 51.8C79.3 50.8 79.3 52 80.2 51.1H79.9C80.3 50.8 81 50.4 81.4 50.3C80.5 50.5 81.2 49.5 80.3 49.6C80.8 49.3 81.4 49.4 81.6 49.4C81.5 49.2 81 49.2 81.4 48.9L80.8 49.3C80.5 49.1 81.3 48.9 81.6 48.5C80.9 48.2 79.7 50.2 79 50Z" fill="#080809"/>
<path d="M73.8999 44.3999C73.8999 44.4999 73.9999 44.4999 74.0999 44.4999C73.9999 44.3999 73.9999 44.3999 73.8999 44.3999Z" fill="#080809"/>
<path d="M75.8999 44.4C75.9999 44.3 75.9999 44.3 76.0999 44.2C75.9999 44.3 75.8999 44.3 75.8999 44.4Z" fill="#080809"/>
<path d="M76.7 43.7999C76.5 44.0999 76.4 43.9999 76.1 44.1999C76.3 44.0999 76.5 44.2999 76.7 43.7999Z" fill="#080809"/>
<path d="M55 31.2999C54.9 31.4999 54.7 31.5999 54.7 31.7999L55.1 31.5999L55 31.2999Z" fill="#080809"/>
<path d="M55.3999 32.2L55.5999 32.5L56.0999 31.6C55.6999 31.6 55.6999 32.3 55.3999 32.2Z" fill="#080809"/>
<path d="M55.9999 32.9999L55.8999 33.1999C55.9999 33.0999 55.9999 32.9999 55.9999 32.9999Z" fill="#080809"/>
<path d="M56.0999 32.5999L56.3999 31.9999L55.8999 32.3999L55.9999 32.5999C55.8999 32.7999 55.9999 32.9999 55.9999 33.0999L56.2999 32.6999C56.1999 32.5999 56.0999 32.6999 56.0999 32.5999Z" fill="#080809"/>
<path d="M56.8 34.1C56.8 33.8 57.1 33.5 57.2 33.2C57 32.9 56.7 33.8 56.5 33.5C57 33.1 56.5 33.1 56.5 32.6C56.4 33.2 56.4 33.7 56.6 34L56.8 33.6C56.9 33.6 56.7 33.9 56.8 34.1Z" fill="#080809"/>
<path d="M58.5 33.6L58.1 34.1C58.2 33.8 57.8 33.6 58.1 33C57.9 33 57.8 33.3 57.7 33.4C57.7 33 57.7 32.8 57.5 33.2C57.9 33.8 57.7 33.9 58 34.3C57.9 34.4 57.9 34.4 57.8 34.3L58 34.8C58.2 34.1 58.6 34.2 58.5 33.6Z" fill="#080809"/>
<path d="M58.8 34.1999C58.6 34.0999 58.2 34.6999 58.2 35.0999L58.8999 34.7999C58.6999 34.7999 58.5 34.7999 58.8 34.1999Z" fill="#080809"/>
<path d="M59.0999 34.4C59.0999 34.8 58.8999 35.5 59.2999 34.9C59.0999 34.9 59.5999 34 59.0999 34.4Z" fill="#080809"/>
<path d="M60.4999 35.5999L60.1999 34.9999C60.4999 34.1999 60.4999 34.7999 60.7999 34.4999C60.4999 34.1999 60.4999 34.4999 59.9999 34.8999C59.8999 34.7999 59.5999 35.0999 59.2999 35.2999C60.2999 34.8999 59.4999 36.8999 60.4999 35.5999Z" fill="#080809"/>
<path d="M59.9999 34.3999L59.7999 34.6999L60.0999 34.5999L59.9999 34.3999Z" fill="#080809"/>
<path d="M61.1 37C60.9 38 61.7999 36.7 61.8999 37.3C61.7999 37.3 61.8 37.4 61.7 37.5H62L61.8999 37.7C62.1999 37.2 62.4999 37.1 62.8999 36.7C62.8999 36 62.4 37.3 62.5 36.6C62.7 36.4 62.9 36 63.1 35.9C62.8 36.1 62.5999 36.4 62.3999 36.7C62.1999 36.7 62.4 36.4 62.5 36.2C62.2 36.4 61.7 37.2 61.6 36.9C61.7 36.3 62.1 36.2 61.7 36.2C61.4 37.2 61.5 35.9 61.1 36.4C61 36.1 61 35.5 61.2 35.2C60.9 35.9 60.4 36.4 60.2 36.5C60.4 36.4 60.5999 36.2 60.8999 36.1L60.7 37C60.9 36.6 61 36.7 61.1 37Z" fill="#080809"/>
<path d="M63.1 35.8C63.2 35.8 63.2 35.7 63.3 35.7C63.3 35.7 63.2 35.7 63.1 35.8Z" fill="#080809"/>
<path d="M61.2 34.7999L61.3999 34.6999V34.3999L61.2 34.7999Z" fill="#080809"/>
<path d="M63.5999 35.3C63.5999 35.2 63.3999 35.5 63.3999 35.5L63.6999 35.2L63.5999 35.3Z" fill="#080809"/>
<path d="M63.6 35.9999L63.5 36.4999L63.8 36.1999L63.6 35.9999Z" fill="#080809"/>
<path d="M68.4999 39.5C68.4999 39.1 68.1999 39.6 67.8999 40C68.0999 40.3 68.1999 39.6 68.4999 39.5Z" fill="#080809"/>
<path d="M71.9999 41.1999C72.0999 40.7999 71.4999 41.0999 71.3999 40.9999C71.2999 41.2999 71.6999 41.2999 71.9999 41.1999Z" fill="#080809"/>
<path d="M74.4999 40.7C74.2999 40.8 74.1999 40.8 74.2999 41L73.3999 41.7C73.3999 42.1 74.2999 41 74.4999 40.7Z" fill="#080809"/>
<path d="M76.0999 41.7999L75.5999 41.8999L75.6999 41.9999C75.3999 42.2999 75.1999 42.3999 74.8999 42.5999C75.1999 42.5999 75.5999 42.3999 76.0999 41.7999Z" fill="#080809"/>
<path d="M74.5 42.6H74.6C74.7 42.5 74.8 42.3 74.5 42.6Z" fill="#080809"/>
<path d="M74.7 42.7C74.7 42.7 74.8 42.7 74.8 42.6C74.7 42.6 74.6 42.6 74.6 42.6C74.6 42.7 74.6 42.8 74.7 42.7Z" fill="#080809"/>
<path d="M75.8999 42.3L76.3999 42.6V42.3C75.8999 42.8 76.3999 41.9 75.8999 42.3Z" fill="#080809"/>
<path d="M77.5 44.6L77.1 45.1C77.2 45.4 78.5 44.7 77.9 45.6C78.1 45.2 78.6 45.3 78.5 44.9C78 45.2 77.6 44.9 77.5 44.6Z" fill="#080809"/>
<path d="M77.6999 46.1999C77.4999 46.2999 77.4999 46.3999 77.3999 46.5999C77.3999 46.6999 77.6999 46.5999 77.8999 46.3999C77.1999 46.8999 78.1999 45.8999 77.6999 46.1999Z" fill="#080809"/>
<path d="M78.8 47.1999C78.7 47.0999 78.6 47.0999 78.6 47.2999C78.8 47.4999 79.3 46.8999 79.7 46.6999C79.8 46.2999 79 46.7999 78.8 47.1999Z" fill="#080809"/>
<path d="M76.7999 52.0999C77.1999 51.6999 76.9999 51.5999 76.7999 51.6999C76.8999 51.5999 76.8999 51.8999 76.7999 52.0999Z" fill="#080809"/>
<path d="M80.3 48.9999V48.8999L79.6 49.3999L80.3 48.9999Z" fill="#080809"/>
<path d="M81.7999 50L82.2999 49.8L81.9999 49.6L81.7999 50Z" fill="#080809"/>
<path d="M81.8999 50.2999L82.0999 50.4999L82.1999 50.2999C82.1999 50.0999 81.8999 50.3999 81.8999 50.2999Z" fill="#080809"/>
<path d="M82.5 50.8999C82.4 50.8999 82.5 50.7999 82.5 50.7999H82.1L82.5 50.8999Z" fill="#080809"/>
<path d="M82.4999 56.6C81.9999 56.9 82.3999 56.9 82.3999 57C82.4999 56.9 82.9999 56.4 82.4999 56.6Z" fill="#080809"/>
</g>
</g>
<path d="M17.5 227.1C26.0604 227.1 33 220.16 33 211.6C33 203.04 26.0604 196.1 17.5 196.1C8.93959 196.1 2 203.04 2 211.6C2 220.16 8.93959 227.1 17.5 227.1Z" fill="white"/>
<mask id="mask1_70_2670" style="mask-type:luminance" maskUnits="userSpaceOnUse" x="2" y="196" width="31" height="32">
<path d="M17.5 227.1C26.0604 227.1 33 220.16 33 211.6C33 203.04 26.0604 196.1 17.5 196.1C8.93959 196.1 2 203.04 2 211.6C2 220.16 8.93959 227.1 17.5 227.1Z" fill="white"/>
</mask>
<g mask="url(#mask1_70_2670)">
<g opacity="0.5">
<path d="M23.4 216.1C23.3 216.1 23.2 216.1 23.1 216.1C23.1 216.2 23.2 216.2 23.4 216.1Z" fill="#080809"/>
<path d="M26.3999 223.3L26.6999 223.2C26.5999 223.2 26.4999 223.2 26.3999 223.3Z" fill="#080809"/>
<path d="M21 216.2C20.9 216.2 20.8 216.1 20.5 216.1L21 216.2Z" fill="#080809"/>
<path d="M19.8999 217.4C19.7999 217.4 19.7999 217.5 19.7999 217.5C19.7999 217.5 19.8999 217.5 19.8999 217.4Z" fill="#080809"/>
<path d="M21.9 208.6V208.5H21.8C21.7 208.5 21.8 208.6 21.9 208.6Z" fill="#080809"/>
<path d="M21.4999 208.9L21.3999 208.8C21.3999 208.8 21.3999 208.9 21.4999 208.9Z" fill="#080809"/>
<path d="M22.9 209.1C22.8 209.1 22.7 209.1 22.6 209.1C22.7 209.1 22.8 209.2 22.9 209.1Z" fill="#080809"/>
<path d="M20.7999 215.6C20.8999 215.7 20.8999 215.7 20.7999 215.6V215.6Z" fill="#080809"/>
<path d="M28.2999 225.5C28.3999 225.5 28.3999 225.6 28.4999 225.6C28.5999 225.4 28.4999 225.4 28.2999 225.5Z" fill="#080809"/>
<path d="M22.1 211.2C21.1 211.5 22 210.9 21 211.1C21.2 211.2 21.3999 211.3 20.8999 211.5C20.2999 211.5 20.9 211.2 20 211.3L20.3999 211.5C19.9999 211.7 19.2999 211.7 19.3999 211.8C20.5999 211.8 19.1 212.6 19.3 212.7L19.2 212.6L18.7 213.1C18.7 213.1 18.7 213.1 18.6 213.1C18.7 213.1 18.7 213.1 18.8 213.1C18.3 213.4 17.9 213.7 18.1 214C18.8 213.9 18.6 214.8 19.1 214.8C18.9 214.7 18.9 214.6 19 214.4L19.8 214.2C19.9 214.5 19.1 214.4 19.6 214.5C20.6 214.2 19.5 214.1 19.6 213.9C19.9 213.9 20.1 213.9 20.2 214C20.1 213.6 20.4 213.2 19.3 213.2C19.5 213 20 213 20.1 213C19.4 212.9 20.7 212.7 20 212.6C21 212.4 20.6 213 21.3 213.1C20.6 213.6 21.5 213.9 21.7 214.2C21 214.4 20.2999 214.3 19.8999 214.6C19.4999 215.1 20.3999 214.9 20.8999 214.9C20.6999 215.2 19.7 215.3 19.8 215.7L19.3 215.6C18.4 216.2 19.8 215.7 19.6 216C19.8 215.9 20.1 215.8 20 215.6C20.4 215.5 20.6 215.6 20.6 215.6V215.5C21.1 215.4 21.7 215.3 21.5 215.6C20.9 215.6 21.0999 215.9 20.8999 216.1H20.8C21.1 216.2 21 216.4 21.2 216.5H21.1C21.4 216.6 22.1 216.3 22.1 216.6C21.8 216.7 20.9 216.7 21.1 216.9C20.7 217 20.5 216.8 20.6 216.5C20.5 216.8 19.8 217.1 19.7 216.9C19.2 217.2 20 217.1 19.8 217.3C20 217.2 20.2 217.2 20.3 217.1C19.5 217.4 20.3999 217.6 20.8999 217.4L20.3999 217.3C20.9999 217.1 21.5 217.2 21.8 217C20.9 217.5 22.5 217.4 21.8 217.9L22.2 217.6C22.1 218.2 23.4 218.1 23.8 218.5C23.4 218.5 22.4 218.9 22.6 218.5C22.6 219 21.6 219.1 21.2 219.5C21 220 22.2 219.3 22.6 219.2L22.3 219C23.6 218.8 22.4999 220 23.3999 220.2C23.0999 220.4 23.2 220.2 23 220.2C22.5 220.7 23.2 220.3 23.5 220.4C23.5 220.7 23.4 221.1 22.6 221.3C22.6 221.6 23 221 23.3 221L23.2 221.1L24.1 220.9C24 221.2 23.7 221.7 23.1 222.2C23.5 222.6 24.8 221.4 25.2 221.6C25 222 24.6999 221.9 24.3999 222L24.7 222.3C23.9 222.7 24.1 222.2 23.2 222.8C24.3 222.5 23.7 223 24.5 222.9L24.6 222.8C25.3 222.6 25.0999 223.2 25.3999 223.3C24.9999 223.5 24.8 223.3 24.6 223.2C24.5 223.6 25.1 224 26 223.6C26 223.8 25.8999 224.3 25.3999 224.4C25.5999 224.9 26.5999 223.7 26.7 224.3L26.1 224.7C25.6 225.7 27.4 224.9 27 225.8L27.7 225.2C27.5 225.5 27.5 225.8 27.3 226H26.8999C26.4999 226.6 27.5999 225.7 27.3999 226.2C27.5999 226 27.9 225.5 28.1 225.3C27.6 225.1 27.4 224.6 27.2 224.2C27 223.7 26.8 223.3 26.1 223.2C26 223.3 26 223.4 25.8 223.5C25.9 223.3 25.6 223.3 26 223H26.1C25.8 222.9 26.4999 222.1 26.3999 222C25.8999 222.2 26.3 221.4 25.5 222.1L25.8999 221.6C25.5999 221.8 25.1999 222 24.8999 222.1C24.8999 221.9 25.2 221.7 25.5 221.7C25.5 220.9 24.9999 220.3 24.3999 219.9L24.8999 219.8C24.9999 219.6 23.9 219.7 25 219.2C24.4 219.1 24.9 218.3 23.8 218.8C24.8 218.1 24 217.9 23.6 217.5C22.6 218 23.2 217.3 22.7 217.3C23.4 216.9 23.7 217.3 24.2 217.1C22.8 217.1 24.6 215.6 22.5 216.1C22.6 216 22.6 216 22.7 216C22.7 215.9 23 215.7 23 215.6C22.6 215.7 22.5 215.9 22.3 215.8C22.3 215.6 22.9 215.5 23.2 215.3C22.6 215.1 22.2999 214.7 21.3999 214.9C21.5999 214.7 22 214.5 22.2 214.5C21.4 214.2 22.2 214 21.6 213.6C21.7 213.8 22.5 213.4 22.2 213.8C23.3 213.3 21.8 213.1 22.3 212.5H21.5C21.3 212.3 22 212.1 22.3 212.2C22.7 211.7 22.1 211.5 22.1 211.2C22.2 211.2 22.3 211.1 22.3 211.2L22.2 210.7C22 210.7 21.6 210.6 21.1 210.7C22.1 210.8 22.4 210.8 22.1 211.2Z" fill="#080809"/>
<path d="M19.5 216.3C19.7 216.2 19.7 216.1 19.8 216.1C19.7 216.1 19.6 216.2 19.5 216.3Z" fill="#080809"/>
<path d="M19.6 206.2C18.4 206.4 19.8 206.5 19.5 206.8C19.3 206.6 18.6 206.7 18.3 206.8C19.9 206.9 17.9999 207.2 18.3999 207.6C17.8999 207.7 17.8 207.4 17.2 207.5C17.6 207.7 17.9 208.2 18.7 208.1C18.8 208.6 18.5 208.9 18.7 209.2C18.3 208.9 17.8 209.3 17.1 209.1C18.1 209.3 19.4 209.9 20.7 210.2C19.8 210.4 19.7 210.5 18.8 210.6C18.3 211.3 19.7 210.6 19.5 211.2L19.6 210.9C19.9 211.1 20.7999 210.9 21.3999 210.9L21.2 210.3C21.8 210.2 21.8 210.6 22 210.6C22.8 210.6 22.5 210.2 23.1 210.1C22.6 210.1 22.7 209.9 22.5 209.8L22.8 209.7C23.1 209.4 22.2 209.4 22.2 209.1C22.3 209.1 22.3999 209 22.3999 209C21.9999 209 21.4999 209 21.3999 208.8L21.5 208.9C20.7 208.8 20.1 208.3 19.2 208.8L19.3999 208.1C20.2999 208.1 21.7 208 21.8 208.3H22.2C22.7 208 21.4 207.7 20.7 207.9C18.5 207.9 20.5 207 19.6 206.6C20.2 206.5 20.3999 206.7 20.8999 206.8C20.9999 206.9 21 207 20.5 207.1C20.9 207.6 22.4 206.8 22.2 207.4C21.9 207.7 21.2 207.1 21.2 207.6L22.8999 207.7C22.7999 207.4 22.5 207.2 22.3 207C21.7 206.4 21.6 205.9 21.7 205.5C21.8 205.1 22 204.9 22 204.9C21.7 203 21.4999 201.2 21.3999 199.3C21.1999 198.7 21.3 198.5 19.7 198.1C19.4 198.2 19.4999 198.6 18.8999 198.4C19.4999 198.5 19.8 198.8 19.7 199.1C19.1 199.1 19.4 198.8 19.3 198.9V199C19 198.9 18.8 198.9 18.8 198.8C17.9 199.1 18 199.8 19.2 200.1C18.6 200.4 18.3 199.9 17.8 199.7C17.3 200.8 17.4 201.5 17.3 202.6C18.3 202.6 18 202.7 18.7 202.8L18.3 202.9C18.5 202.9 19.1999 203 19.3999 202.8C18.5999 203.4 20.8 203.5 21.3 203.8H20.7C20.8 204.1 20.8 204.2 21.1 204.5C20.1 205.1 20.9 204 19.6 204.3L19.8 204.4C19.3 204.3 18.4 204.3 18 204.1C18.9 204.6 17.6999 204.9 18.3999 205.4C17.7999 205.4 17.3 204.9 17.2 204.7C17.2 204.9 17.6 205.2 17.1 205.3H17.8999C17.9999 205.6 17.2 205.3 16.7 205.5C16.8 206.5 19.1 205.6 19.6 206.2Z" fill="#080809"/>
<path d="M17.7 213.1C18 213 18.1 213.1 18.5 213.1C18.2 213.1 18.1 212.8 17.7 213.1Z" fill="#080809"/>
<path d="M29.2999 227C29.7999 226 28.3999 227.1 28.4999 226.5C28.5999 226.5 28.5999 226.4 28.7999 226.4L28.4999 226.3L28.6999 226.1C28.2999 226.6 27.8999 226.5 27.3999 226.8C27.0999 227.5 28.0999 226.3 27.6999 227.1C27.3999 227.3 27.0999 227.5 26.8999 227.7C27.2999 227.6 27.5999 227.4 27.8999 227.2C28.0999 227.3 27.7999 227.5 27.5999 227.7C27.9999 227.6 28.6999 226.9 28.7999 227.3C28.5999 227.9 28.0999 227.9 28.4999 228C29.0999 227.1 28.6999 228.4 29.1999 228C29.2999 228.3 28.9999 228.9 28.6999 229.2C29.1999 228.6 29.7999 228.2 30.0999 228.1C29.7999 228.2 29.5999 228.3 29.2999 228.3L29.7999 227.5C29.3999 227.5 29.2999 227.3 29.2999 227Z" fill="#080809"/>
<path d="M26.4999 227.2L26.6999 226.8L26.3999 227L26.4999 227.2Z" fill="#080809"/>
<path d="M22.9999 221.6C22.7999 221.9 23.3999 221.6 23.7999 221.4C23.7999 221.1 23.2999 221.7 22.9999 221.6Z" fill="#080809"/>
<path d="M20.5 218.3C20.2 218.7 20.9 218.6 20.9 218.9C21.2 218.5 20.9 218.3 20.5 218.3Z" fill="#080809"/>
<path d="M17.7999 217.3C17.9999 217.3 18.0999 217.3 18.1999 217.2L19.3999 217C19.5999 216.6 18.2999 217.1 17.7999 217.3Z" fill="#080809"/>
<path d="M17.1 215.3L17.6 215.5V215.3C18.1 215.3 18.3 215.3 18.7 215.3C18.3 215.2 17.9 215.1 17.1 215.3Z" fill="#080809"/>
<path d="M18.8999 215.6L18.8 215.5C18.7 215.5 18.5999 215.6 18.8999 215.6Z" fill="#080809"/>
<path d="M18.8 215.3C18.7 215.3 18.7 215.3 18.7 215.3C18.8 215.3 18.7999 215.4 18.8999 215.4C18.8999 215.4 19 215.4 18.8 215.3Z" fill="#080809"/>
<path d="M17.5 214.9L17.2 214.4L17 214.7C17.8 214.5 16.8 215.1 17.5 214.9Z" fill="#080809"/>
<path d="M17.3999 211.8L18.0999 211.6C18.1999 211.2 16.5999 211 17.6999 210.6C17.2999 210.8 16.8999 210.4 16.7999 210.9C17.3999 211 17.5999 211.6 17.3999 211.8Z" fill="#080809"/>
<path d="M18.2 210.3C18.4 210.3 18.5 210.2 18.7 210.1C18.8 210 18.4 209.9 18.1 210C19.1 210 17.6 210.3 18.2 210.3Z" fill="#080809"/>
<path d="M17.9 208.7C17.9 208.8 18 208.9 18.2 208.8C18.1 208.5 17.3 208.7 16.9 208.6C16.4 208.9 17.5 209 17.9 208.7Z" fill="#080809"/>
<path d="M22.7 205.9C22.1 206 22.2 206.2 22.4 206.2C22.3 206.1 22.5 206 22.7 205.9Z" fill="#080809"/>
<path d="M17.8 206.2L17.7 206.3H18.6L17.8 206.2Z" fill="#080809"/>
<path d="M17.2 204.4L16.6 204.2L16.7 204.5L17.2 204.4Z" fill="#080809"/>
<path d="M17.2999 204L17.1999 203.7L16.9999 203.8C16.8999 204 17.2999 203.9 17.2999 204Z" fill="#080809"/>
<path d="M17.2 203.1C17.3 203.1 17.2 203.2 17.1 203.2L17.5 203.5L17.2 203.1Z" fill="#080809"/>
<path d="M21.1 198.4C21.7 198.5 21.3 198.2 21.5 198.2C21.3 198.2 20.5 198.3 21.1 198.4Z" fill="#080809"/>
</g>
</g>
<path d="M85 57.2C85 57.2 80.1 51.6 72.6 44.7C64.8 37.5 54.1 28.9 42.9 23.7C36.9 20.9 30.7 19.1 24.8 19C-2.39996 18.8 18.7 54.4 73.2 66.1C73.3 66.3 87.3 69.6 85 57.2Z" fill="white"/>
<path d="M85 57.2C85 57.2 80.1 51.6 72.6 44.7C64.8 37.5 54.1 28.9 42.9 23.7" stroke="#06002C" stroke-width="1.3038" stroke-miterlimit="10"/>
<path d="M70.8001 65.6999C41.3001 58.7999 22.0001 44.8999 15.5001 34.0999C11.9001 24.4999 24.9001 19.0999 44.6001 29.0999C64.3001 39.0999 73.1001 58.7999 73.1001 58.7999C74.8001 61.7999 73.8001 64.2999 70.8001 65.6999Z" fill="#F7A9B4"/>
<path d="M126.4 172.5C126.4 172.5 118.2 149.8 115.6 144.6C113 139.4 109.4 156.1 109.8 159.5C110.2 162.9 126.4 172.5 126.4 172.5Z" fill="white"/>
<path d="M101.9 229.3C101.9 229.3 122.6 229.3 125.1 229.3C127.6 229.3 127.5 217.6 103.5 217.1C79.6 216.7 94.5 229.3 101.9 229.3Z" fill="white"/>
<path d="M77.2 55.1999C70.1 60.3999 20.8 164 18.5 196.1C18.1 201.5 18.6 206.6 20.3 211.3C22 215.9 24.8 220.1 29.1 223.8C30.2 224.7 31.4 225.6 32.7 226.5C35.5 228.4 38.8 229.4 42.2 229.4H103.5C106.4 229.4 108.1 226.6 106.9 223.6C105.5 220.3 100.5 216.9 89.2999 217.2C89.2999 217.2 100.5 227 109.8 204.2C123.5 170.7 115.6 107.5 112.3 102.4C112.3 102.4 121.4 102.2 130.3 90.4999C142.2 74.9999 137.8 55.7999 122.2 52.8999C104.3 49.3999 83.4 50.6999 77.2 55.1999Z" fill="white"/>
<path d="M18.5 196.1C18.1 201.5 18.6 206.6 20.3 211.3C22 215.9 24.8 220.1 29.1 223.8" stroke="#06002C" stroke-width="1.3038" stroke-miterlimit="10"/>
<path d="M89.2001 217.1C89.2001 217.1 80.4001 217.5 75.2001 220.9" stroke="#06002C" stroke-width="1.3038" stroke-miterlimit="10"/>
<path d="M81.1 218.5C81.1 218.5 94.7 201.2 90.5 179.9C86.3 158.5 54.2 160.8 42.5 167.3" stroke="#06002C" stroke-width="1.3038" stroke-miterlimit="10"/>
<path d="M104.1 137.3C104.1 137.3 108.5 149 117.5 159.9C124.9 168.9 127.2 173.2 127.7 176.6C127.9 177.8 127.3 179.1 126.3 179.8C123.6 181.8 118 183.5 115.9 181.8C113.1 179.5 101 170.1 92.2 163.6C83.4 157.1 78 146.8 78 146.8" fill="white"/>
<path d="M115.9 181.9C113.1 179.6 101 170.2 92.2 163.7C83.4 157.2 78 146.9 78 146.9" stroke="#06002C" stroke-width="1.3038" stroke-miterlimit="10"/>
<path d="M104.1 137.3C104.1 137.3 108.5 149 117.5 159.9C124.9 168.9 127.2 173.2 127.7 176.6" stroke="#06002C" stroke-width="1.3038" stroke-miterlimit="10"/>
<path d="M105.1 67.8C106.646 67.8 107.9 66.5464 107.9 65C107.9 63.4536 106.646 62.2 105.1 62.2C103.554 62.2 102.3 63.4536 102.3 65C102.3 66.5464 103.554 67.8 105.1 67.8Z" fill="#06002C"/>
<path d="M101.9 229.3C101.9 229.3 103.5 225.1 100.5 223.5" stroke="#06002C" stroke-width="1.3038" stroke-miterlimit="10"/>
<path d="M96.3 229.3C96.3 229.3 96.6 225.9 94.5 225.2" stroke="#06002C" stroke-width="1.3038" stroke-miterlimit="10"/>
<path d="M116.8 229.3C116.8 229.3 117.1 225.9 115 225.2" stroke="#06002C" stroke-width="1.3038" stroke-miterlimit="10"/>
<path d="M127 179.3C127 179.3 124.7 178.4 122.1 174.3" stroke="#06002C" stroke-width="1.3038" stroke-miterlimit="10"/>
<path d="M123.4 181.5C123.4 181.5 120.5 180.4 118.5 178.8" stroke="#06002C" stroke-width="1.3038" stroke-miterlimit="10"/>
<path d="M121.3 229.3C121.3 229.3 122.9 225.1 119.9 223.5" stroke="#06002C" stroke-width="1.3038" stroke-miterlimit="10"/>
<path d="M103.5 229.3C106.4 229.3 108.1 226.5 106.9 223.5C105.5 220.2 100.5 216.8 89.3 217.1" stroke="#06002C" stroke-width="1.3038" stroke-miterlimit="10"/>
<mask id="mask2_70_2670" style="mask-type:luminance" maskUnits="userSpaceOnUse" x="87" y="95" width="29" height="22">
<path d="M115.3 116.9C87 118.3 87.7 95.6 87.7 95.6C98.6 104.2 112.2 102.3 112.2 102.3C113.1 103.6 114.3 109.1 115.3 116.9Z" fill="white"/>
</mask>
<g mask="url(#mask2_70_2670)">
<g opacity="0.5">
<path d="M106.7 104.3L106.6 104.8C106.7 104.6 106.7 104.4 106.7 104.3Z" fill="#080809"/>
<path d="M102.4 103.6C102.3 103.6 102.2 103.6 102.1 103.7C102.3 103.9 102.4 103.8 102.4 103.6Z" fill="#080809"/>
<path d="M125.4 105.3C125.2 103.8 125.8 105.2 125.7 103.8C125.5 104.1 125.4 104.4 125.2 103.6C125.3 102.8 125.6 103.6 125.6 102.4L125.3 102.9C125.1 102.3 125.3 101.3 125.1 101.4C124.9 103.1 124.2 100.8 123.9 101.1L124 100.9L123.5 100.1V100C123.5 100.1 123.5 100.2 123.5 100.3C123.3 99.4 122.9 98.8 122.6 99C122.5 100 121.5 99.3 121.3 100.2C121.4 99.9 121.6 99.9 121.8 100.2V101.4C121.4 101.4 121.7 100.3 121.4 101C121.5 102.7 121.9 101 122.1 101.2C122 101.6 121.9 101.9 121.8 102.1C122.3 102.1 122.8 102.7 123.1 101C123.3 101.3 123.2 102 123.1 102.2C123.4 101.2 123.4 103.1 123.7 102.2C123.7 103.7 123 103 122.7 103.9C122.2 102.7 121.6 103.9 121.1 104.2C121 103 121.3 102.1 121.1 101.4C120.6 100.6 120.6 102 120.4 102.7C120 102.3 120.3 100.8 119.7 100.7L120 99.9C119.6 98.3 119.7 100.6 119.5 100.2C119.6 100.6 119.6 101 119.9 101C120 101.6 119.7 101.9 119.6 101.9H119.7C119.6 102.7 119.6 103.6 119.2 103.2C119.4 102.2 118.9 102.5 118.8 102L118.9 101.8C118.6 102.1 118.4 102 118.2 102.2V102C118 102.4 118 103.6 117.7 103.4C117.7 102.9 118 101.6 117.7 101.8C117.7 101.1 118.1 101 118.4 101.3C118.1 101 117.9 99.8 118.3 99.8C118.2 98.9 118 100.2 117.8 99.8C117.8 100.1 117.8 100.4 117.8 100.7C117.8 99.4 117.1 100.6 117.1 101.5L117.4 100.8C117.4 101.8 117 102.5 117.2 103.1C117 101.5 116.3 103.9 116.1 102.5L116.2 103.3C115.5 102.8 114.9 104.7 114.2 105C114.5 104.5 114.5 102.7 114.9 103.4C114.2 103 114.7 101.7 114.5 100.8C114 100.2 114.2 102.4 114.1 103L114.5 102.7C114 104.7 113.1 102.3 112.4 103.5C112.4 103 112.6 103.2 112.7 103C112.4 102 112.4 103.2 112.2 103.6C111.9 103.4 111.5 103 111.7 101.7C111.3 101.4 111.7 102.5 111.5 102.8L111.4 102.5L111 103.9C110.7 103.5 110.3 102.8 110.2 101.6C109.4 101.8 109.8 104.4 109.2 104.8C108.9 104.1 109.3 103.9 109.4 103.4L108.9 103.5C109.1 102.2 109.5 102.9 109.5 101.3C109 102.9 108.9 101.7 108.3 102.7V102.8C108 103.8 107.5 103 107.1 103.2C107.3 102.6 107.6 102.5 107.9 102.3C107.6 101.8 106.7 102.2 106.2 103.5C106 103.3 105.6 102.7 106 102.2C105.3 101.9 105.5 104 104.9 103.5L105 102.5C104.7 101.8 104.4 102.1 104 102.3C103.6 102.6 103.3 102.8 103 102.2L102.8 103.3C102.7 102.8 102.5 102.5 102.5 102.1L102.9 101.8C102.7 100.9 102.5 102.6 102.2 101.9C102.2 102.2 102.3 103 102.3 103.4C103 103.2 103.7 103.6 104.4 103.9C105.1 104.2 105.8 104.5 106.5 103.9C106.5 103.7 106.4 103.6 106.5 103.3C106.6 103.6 106.9 103.3 106.8 104L106.7 104.1C107.1 103.9 107.3 105.4 107.6 105.5C107.8 104.7 108.4 106 108.3 104.4L108.5 105.4C108.6 104.9 108.6 104.1 108.8 103.8C109 103.9 109 104.5 108.8 104.9C109.8 105.6 110.9 105.5 112 105.1L111.7 105.8C111.9 106.2 112.6 104.5 112.4 106.4C112.9 105.7 113.7 107 113.8 105C114.1 106.9 115 105.9 115.7 105.6C115.6 103.9 116.3 105.1 116.4 104.3C116.5 105.6 115.8 105.7 115.8 106.5C116.5 104.4 117.8 108 118 104.5C118.1 104.6 118.1 104.8 118.1 104.9C118.2 104.9 118.4 105.5 118.6 105.6C118.7 105 118.4 104.7 118.7 104.5C119 104.6 118.8 105.6 119 106C119.5 105.2 120.2 104.9 120.3 103.5C120.5 103.9 120.6 104.6 120.5 104.9C121.2 103.8 121.3 105 122 104.3C121.7 104.4 121.9 105.7 121.5 105.2C121.9 107 122.7 104.8 123.4 105.7L123.6 104.5C124 104.3 124.1 105.4 123.8 105.8C124.5 106.4 124.8 105.7 125.3 105.6C125.3 105.7 125.3 106 125.2 105.9L125.9 105.8C126 105.5 126.2 104.9 126.1 104.2C125.9 105.3 125.8 105.7 125.4 105.3Z" fill="#080809"/>
<path d="M90 97.8999C89.9 97.8999 89.6001 97.7999 89.7001 97.7999C89.8001 97.7999 90.0001 97.8999 90.1001 97.8999H90Z" fill="#080809"/>
<path d="M90.8 98.2C90.9 98.3 91.0001 98.2999 91.2001 98.3999C91.3001 98.3999 91.4001 98.3 91.6001 98.3C91.1001 98.1 91.2 98.3 90.8 98.2Z" fill="#080809"/>
<path d="M91.8 98.6H91.7001C91.8001 98.7 91.8 98.6 91.8 98.6Z" fill="#080809"/>
<path d="M91.9001 98.4999L92.2001 98.2999C92.0001 98.2999 91.8001 98.2999 91.6001 98.2999L91.8001 98.3999C91.8001 98.4999 91.9001 98.4999 91.9001 98.5999L92.2001 98.4999C92.0001 98.4999 91.9001 98.4999 91.9001 98.4999Z" fill="#080809"/>
<path d="M93.0001 99.5C93.0001 99.3 93.2 99.2 93.3 99.1C93 98.9 92.7001 99.3 92.5001 99.1C93.1001 99.1 92.4 98.9 92.3 98.7C92.3 98.9 92.4 99.1999 92.8 99.3999L92.9001 99.2C93.1001 99.3 92.9001 99.3 93.0001 99.5Z" fill="#080809"/>
<path d="M95.3001 99.4L94.8001 99.8C94.8001 99.6 94.3001 99.5 94.5001 99C94.3001 99 94.2001 99.2 94.0001 99.3C93.9001 99.1 93.9001 98.9 93.6001 99.1C94.2001 99.6 94.0001 99.6 94.6001 99.9C94.6001 100 94.5001 100 94.4001 99.9L94.7001 100.3C95.0001 99.8 95.6001 99.9 95.3001 99.4Z" fill="#080809"/>
<path d="M95.8001 99.8999C95.5001 99.8999 95.1001 100.2 95.2001 100.6C95.5001 100.6 95.8001 100.5 96.0001 100.4C95.8001 100.4 95.5001 100.4 95.8001 99.8999Z" fill="#080809"/>
<path d="M96.3 100.1C96.4 100.4 96.4 101.1 96.8 100.6C96.4 100.5 96.8 99.7 96.3 100.1Z" fill="#080809"/>
<path d="M98.6 101.2L98 100.6C98.1 99.7 98.4 100.4 98.7 100C98.2 99.7 98.3 100.1 97.7 100.5C97.5 100.4 97.2 100.8 97 100.9C98 100.5 97.6 102.6 98.6 101.2Z" fill="#080809"/>
<path d="M97.5001 100.1L97.3 100.4L97.7001 100.2L97.5001 100.1Z" fill="#080809"/>
<path d="M100 102.6C100.2 103.9 100.9 102.1 101.3 102.7C101.2 102.8 101.3 102.9 101.1 103H101.5V103.3C101.6 102.5 102 102.3 102.3 101.7C102 100.8 102 102.7 101.7 101.7C101.8 101.4 102 100.8 102.1 100.5C101.8 100.9 101.7 101.3 101.5 101.7C101.2 101.7 101.4 101.3 101.4 101C101 101.4 100.9 102.5 100.5 102.1C100.3 101.4 100.8 101.1 100.3 101.3C100.3 102.5 99.8001 101 99.5001 101.7C99.2001 101.4 99.1001 100.7 99.2001 100.3C99.1001 101.1 98.6 101.7 98.3 101.9C98.6 101.7 98.8001 101.6 99.1001 101.4V102.4C99.6001 102.2 99.8001 102.4 100 102.6Z" fill="#080809"/>
<path d="M102.2 100.5C102.3 100.4 102.3 100.4 102.4 100.3C102.3 100.3 102.3 100.4 102.2 100.5Z" fill="#080809"/>
<path d="M99.2001 100.2L99.4001 100V99.7L99.2001 100.2Z" fill="#080809"/>
<path d="M102.6 99.7C102.5 99.7 102.4 100 102.5 100.1L102.7 99.6L102.6 99.7Z" fill="#080809"/>
<path d="M102.9 100.5L103 101.2L103.2 100.6L102.9 100.5Z" fill="#080809"/>
<path d="M111.2 101.7C110.9 101.2 110.9 102.2 110.9 102.9C111.3 103.1 110.9 102 111.2 101.7Z" fill="#080809"/>
</g>
</g>
<path d="M133.6 61.1999C132.9 60.1999 131.5 59.6999 130.3 59.9999C128.4 60.3999 125.5 61.2999 125.1 62.4999C124.8 63.3999 127 64.7999 129.5 65.9999C132.5 67.4999 135.6 64.0999 133.7 61.2999C133.6 61.1999 133.6 61.1999 133.6 61.1999Z" fill="#F7A9B4"/>
<path d="M120.5 82.2999C120.5 82.2999 115.9 83.5999 115.3 78.8999" stroke="#06002C" stroke-width="1.3038" stroke-miterlimit="10" stroke-linecap="round" stroke-linejoin="round"/>
</svg>
