<svg width="155" height="167" viewBox="0 0 155 167" fill="none" xmlns="http://www.w3.org/2000/svg">
<path d="M3.19995 162.2C3.19995 162.2 -3.40005 164.8 14.6999 165.6C32.8999 166.4 128.9 166.8 138.7 165.6C148.6 164.4 167.8 165.1 142.3 162.2C116.8 159.3 90.5999 161 64.8999 159.3C39.1999 157.5 6.99995 159.1 3.19995 162.2Z" fill="#1B1C1E"/>
<path d="M123.9 116C123.9 116 131.1 115.6 130.9 109.4C130.6 103.2 126.2 103.6 125.6 101.1C124.9 98.2 133.6 97 138.3 104.1C143.1 111.4 140.1 125.8 130.1 129.4C120.2 132.9 123.9 116 123.9 116Z" fill="#967258"/>
<mask id="mask0_70_2443" style="mask-type:luminance" maskUnits="userSpaceOnUse" x="123" y="98" width="18" height="32">
<path d="M123.9 116C123.9 116 131.1 115.6 130.9 109.4C130.6 103.2 126.2 103.6 125.6 101.1C124.9 98.2 133.6 97 138.3 104.1C143.1 111.4 140.1 125.8 130.1 129.4C120.2 132.9 123.9 116 123.9 116Z" fill="white"/>
</mask>
<g mask="url(#mask0_70_2443)">
<g opacity="0.53">
<path d="M130.5 118L130.3 118.1C130.4 118.1 130.4 118.1 130.5 118Z" fill="#080809"/>
<path d="M134.1 119.9C134.1 119.9 134.2 119.9 134.2 119.8C134.1 119.8 134.1 119.9 134.1 119.9Z" fill="#080809"/>
<path d="M136 124.3L136.3 124.2C136.2 124.2 136.1 124.3 136 124.3Z" fill="#080809"/>
<path d="M129.8 117H129.7C129.7 117.1 129.7 117.1 129.8 117Z" fill="#080809"/>
<path d="M132.1 123C132.8 122.7 132.2 123.1 132.9 122.8C132.7 122.8 132.6 122.8 133 122.6C133.4 122.5 133 122.7 133.6 122.5H133.3C133.6 122.3 134.1 122.2 134 122.2C133.1 122.4 134.2 121.8 134.1 121.8H134.2L134.5 121.5C134.5 121.5 134.4 121.5 134.3 121.6C134.7 121.4 135 121.2 134.8 121.1C134.3 121.2 134.5 120.8 134.1 120.9C134.2 120.9 134.3 120.9 134.2 121L133.6 121.2C133.6 121.1 134.1 121 133.7 121C132.9 121.3 133.8 121.1 133.7 121.2C133.5 121.2 133.3 121.3 133.2 121.3C133.2 121.4 133 121.7 133.8 121.5C133.6 121.6 133.3 121.7 133.2 121.7C133.7 121.6 132.8 121.9 133.2 121.9C132.5 122.1 132.7 121.8 132.3 121.9C132.8 121.6 132.2 121.6 132.1 121.5C132.6 121.3 133.1 121.2 133.4 121C133.7 120.7 133.1 121 132.7 121C132.8 120.8 133.6 120.6 133.5 120.5H133.9C134.6 120.1 133.6 120.5 133.7 120.4C133.5 120.5 133.3 120.6 133.4 120.7C133.1 120.8 133 120.8 132.9 120.8C132.5 120.9 132.1 121.1 132.3 120.9C132.8 120.8 132.6 120.7 132.8 120.6H132.9C132.7 120.6 132.8 120.5 132.7 120.5H132.8C132.6 120.5 132 120.7 132.1 120.6C132.3 120.5 133 120.3 132.8 120.3C133.1 120.2 133.2 120.3 133.1 120.4C133.2 120.3 133.7 120 133.8 120.1C134.2 119.9 133.6 120.1 133.8 119.9C133.7 120 133.5 120 133.4 120.1C134 119.9 133.4 119.9 133 120.1H133.4C132.9 120.3 132.6 120.3 132.4 120.5C133.1 120.1 131.9 120.4 132.5 120.1L132.1 120.3C132.2 120 131.3 120.2 131.1 120.1C131.4 120.1 132.1 119.7 131.9 119.9C132 119.6 132.6 119.5 133 119.3C133.2 119 132.2 119.6 132 119.6H132.2C131.2 119.9 132.2 119.1 131.6 119.2C131.8 119.1 131.8 119.2 131.9 119.2C132.3 118.9 131.8 119.2 131.6 119.2C131.6 119.1 131.8 118.9 132.4 118.6C132.5 118.4 132.1 118.8 131.9 118.8L132 118.7L131.3 118.9C131.4 118.7 131.7 118.5 132.2 118.2C132 118.1 130.9 118.8 130.6 118.8C130.8 118.6 131 118.6 131.2 118.5L131.1 118.4C131.7 118.1 131.5 118.4 132.2 118C131.4 118.3 131.9 118 131.4 118.1H131.3C130.8 118.3 131 118 130.9 118C131.2 117.9 131.3 117.9 131.4 117.9C131.6 117.7 131.2 117.6 130.6 117.9C130.7 117.8 130.9 117.5 131.2 117.5C131.2 117.3 130.3 118 130.4 117.7L130.9 117.4C131.5 116.8 130.1 117.4 130.6 116.9L130 117.3C130.2 117.1 130.3 117 130.5 116.8H130.7C131.1 116.4 130.2 117 130.5 116.7C130.3 116.8 130 117.1 129.8 117.3C130.3 117.4 129.7 118.2 130.5 118.2C130.6 118.1 130.6 118.1 130.7 118C130.6 118.1 130.8 118.1 130.5 118.3C130.7 118.3 130 118.8 130.1 118.8C130.5 118.6 130 119.1 130.7 118.7L130.3 119C130.6 118.9 130.9 118.7 131 118.7C131 118.8 130.7 118.9 130.5 119C130.4 119.4 130.6 119.6 130.9 119.8L130.5 119.9C130.4 120 131.2 119.8 130.3 120.2C130.7 120.2 130.2 120.6 131.1 120.2C130.3 120.7 130.9 120.7 131.1 120.8C131.8 120.4 131.4 120.8 131.7 120.7C131.1 121 131 120.8 130.6 121C131.6 120.8 130.2 121.8 131.7 121.2C131.7 121.2 131.6 121.3 131.5 121.3C131.5 121.3 131.3 121.5 131.2 121.6C131.5 121.5 131.6 121.4 131.7 121.4C131.7 121.5 131.2 121.6 131.1 121.7C131.5 121.7 131.7 121.8 132.3 121.6C132.1 121.7 131.8 121.9 131.7 121.9C132.3 121.9 131.7 122.1 132.1 122.2C132.1 122.1 131.4 122.4 131.7 122.2C130.9 122.6 132 122.5 131.6 122.8L132.2 122.7C132.3 122.8 131.8 123 131.6 123C131.3 123.3 131.7 123.3 131.7 123.4C131.6 123.4 131.5 123.5 131.5 123.4V123.6C131.6 123.6 132 123.5 132.3 123.4C132.1 123.1 131.9 123.2 132.1 123Z" fill="#080809"/>
<path d="M134.2 120.3C134.1 120.4 134 120.4 134 120.4C134.1 120.4 134.2 120.4 134.2 120.3Z" fill="#080809"/>
<path d="M134.1 124.5C135 124.2 133.9 124.4 134.1 124.3C134.3 124.3 134.8 124.2 135 124.1C133.8 124.4 135.2 123.9 134.9 123.8C135.3 123.7 135.4 123.7 135.8 123.6C135.5 123.6 135.3 123.5 134.6 123.7C134.5 123.5 134.7 123.3 134.6 123.3C134.9 123.3 135.2 123.1 135.8 123C135 123.1 134.1 123.1 133.1 123.3C133.8 123 133.8 123 134.5 122.8C134.9 122.4 133.8 123 134 122.7L133.9 122.8C133.7 122.8 133 123 132.6 123.1L132.8 123.3C132.3 123.5 132.4 123.3 132.2 123.3C131.6 123.4 131.8 123.6 131.4 123.7C131.8 123.6 131.7 123.7 131.9 123.7L131.7 123.8C131.5 124 132.1 123.8 132.1 123.9C132 123.9 132 124 131.9 124C132.2 123.9 132.6 123.8 132.7 123.9C133.3 123.8 133.8 123.8 134.4 123.5L134.3 123.8C133.6 124 132.6 124.3 132.5 124.2L132.2 124.3C131.9 124.5 132.8 124.4 133.3 124.1C134.9 123.7 133.5 124.4 134.2 124.4C133.8 124.6 133.6 124.5 133.3 124.6C133.2 124.6 133.2 124.5 133.6 124.4C133.3 124.3 132.2 124.9 132.3 124.6C132.5 124.4 133 124.5 133 124.3L131.8 124.6C131.9 124.7 132.1 124.7 132.3 124.8C133.3 125 132.7 125.6 132.7 125.6C133.1 126.3 133.4 127 133.8 127.7C134 127.9 134 128 135.2 127.7C135.4 127.6 135.3 127.5 135.7 127.4C135.2 127.5 135 127.5 135 127.3C135.4 127.2 135.2 127.4 135.3 127.3C135.5 127.2 135.7 127.2 135.7 127.3C136.3 127 136.1 126.7 135.2 126.9C135.6 126.7 135.9 126.8 136.3 126.7C136.5 126.2 136.4 125.9 136.3 125.5C135.5 125.7 135.8 125.6 135.3 125.7L135.6 125.6C135.5 125.7 134.9 125.8 134.8 125.9C135.3 125.5 133.7 125.9 133.3 125.9L133.7 125.8C133.6 125.7 133.6 125.7 133.3 125.6C134 125.2 133.5 125.7 134.4 125.4H134.2C134.6 125.3 135.3 125.1 135.6 125.1C134.9 125.1 135.8 124.7 135.2 124.7C135.7 124.6 136.1 124.7 136.1 124.7C136.1 124.6 135.8 124.6 136.2 124.4L135.6 124.6C135.5 124.5 136.1 124.5 136.5 124.3C136.1 123.9 134.5 124.7 134.1 124.5Z" fill="#080809"/>
<path d="M134.6 121.6C134.7 121.6 134.7 121.6 134.8 121.5C134.8 121.5 134.7 121.5 134.6 121.6Z" fill="#080809"/>
<path d="M135.4 121.3C135.2 121.4 135.1 121.4 134.8 121.5C135 121.5 135 121.6 135.4 121.3Z" fill="#080809"/>
<path d="M129.6 112.1C129.5 112.2 129.3 112.3 129.2 112.4H129.4L129.6 112.1Z" fill="#080809"/>
<path d="M129.4 112.7L129.3 112.9L129.9 112.4C129.8 112.4 129.5 112.8 129.4 112.7Z" fill="#080809"/>
<path d="M129.3 113.3L129.1 113.4C129.2 113.3 129.2 113.3 129.3 113.3Z" fill="#080809"/>
<path d="M129.5 113L130 112.7L129.6 112.9L129.5 113C129.3 113.1 129.3 113.2 129.2 113.2L129.5 113C129.6 113.1 129.5 113.1 129.5 113Z" fill="#080809"/>
<path d="M129.6 113.1L129.7 113C129.7 113.1 129.7 113.1 129.6 113.1Z" fill="#080809"/>
<path d="M129 114.1C129.1 113.9 129.4 113.8 129.6 113.6C129.7 113.4 129 113.9 129.2 113.7C129.7 113.5 129.4 113.4 129.6 113.2C129.3 113.5 129 113.8 129 114.1L129.2 113.8C129.3 113.8 129.1 113.9 129 114.1Z" fill="#080809"/>
<path d="M130.1 114L129.6 114.3C129.8 114.1 129.7 114 130.1 113.7C130 113.7 129.8 113.9 129.7 113.9C129.9 113.7 130 113.5 129.7 113.7C129.6 114.1 129.4 114.2 129.4 114.4C129.3 114.5 129.3 114.4 129.3 114.4L129.2 114.7C129.7 114.3 129.9 114.4 130.1 114Z" fill="#080809"/>
<path d="M129.9 114.4C129.8 114.3 129.4 114.6 129.1 114.9L129.6 114.8C129.6 114.7 129.5 114.7 129.9 114.4Z" fill="#080809"/>
<path d="M130 114.5C129.8 114.7 129.4 115.1 129.8 114.9C129.7 114.9 130.4 114.4 130 114.5Z" fill="#080809"/>
<path d="M130.1 115.5L130.3 115.1C130.8 114.6 130.5 115 130.8 114.9C130.8 114.7 130.7 114.9 130.2 115C130.2 114.9 129.9 115.1 129.7 115.2C130.3 115 128.9 116.1 130.1 115.5Z" fill="#080809"/>
<path d="M130.4 114.7L130.1 114.8H130.4V114.7Z" fill="#080809"/>
<path d="M129.7 116.3C129.1 116.9 130.2 116.2 130 116.5C130 116.5 129.9 116.6 129.8 116.6H129.9L129.7 116.7C130.1 116.4 130.3 116.4 130.7 116.2C131.1 115.8 130.1 116.5 130.6 116.1C130.8 116 131.1 115.8 131.3 115.7C131 115.8 130.8 115.9 130.5 116.1C130.4 116.1 130.7 115.9 130.8 115.8C130.5 115.9 129.9 116.3 130 116.1C130.3 115.8 130.6 115.7 130.4 115.7C129.8 116.2 130.4 115.5 130 115.8C130.1 115.6 130.4 115.3 130.7 115.1C130.2 115.5 129.7 115.7 129.5 115.7L130 115.5L129.4 116C129.8 116.1 129.8 116.1 129.7 116.3Z" fill="#080809"/>
<path d="M130.8 115.1L130.9 115L131.1 114.9L130.8 115.1Z" fill="#080809"/>
<path d="M131.5 116L131.2 116.3L131.5 116.1V116Z" fill="#080809"/>
<path d="M132.4 118.4C132.6 118.2 132.1 118.4 131.8 118.6C131.8 118.8 132.2 118.4 132.4 118.4Z" fill="#080809"/>
<path d="M133.7 119.6C134 119.4 133.5 119.5 133.5 119.4C133.2 119.6 133.4 119.7 133.7 119.6Z" fill="#080809"/>
<path d="M135.5 119.6C135.3 119.6 135.3 119.6 135.2 119.7L134.3 120C134.2 120.2 135.2 119.8 135.5 119.6Z" fill="#080809"/>
<path d="M135.9 120.3H135.5V120.4C135.2 120.5 135 120.5 134.7 120.6C135 120.6 135.4 120.6 135.9 120.3Z" fill="#080809"/>
<path d="M134.6 120.5C134.6 120.6 134.6 120.6 134.6 120.5C134.8 120.5 134.9 120.5 134.6 120.5Z" fill="#080809"/>
<path d="M135.6 120.6L135.8 120.8L135.9 120.7C135.4 120.8 136.1 120.4 135.6 120.6Z" fill="#080809"/>
<path d="M135.5 121.8L135 122C134.9 122.2 136.1 121.9 135.3 122.3C135.6 122.1 135.9 122.2 136 122C135.6 122.2 135.5 122 135.5 121.8Z" fill="#080809"/>
<path d="M135 122.6C134.8 122.6 134.8 122.7 134.6 122.8C134.6 122.9 134.8 122.8 135 122.7C134.3 122.9 135.4 122.5 135 122.6Z" fill="#080809"/>
<path d="M135.2 123.2C135.2 123.2 135.1 123.1 135 123.2C135.1 123.3 135.6 123.1 136 123C136.3 122.8 135.5 123 135.2 123.2Z" fill="#080809"/>
<path d="M131.8 125.3C132.2 125.1 132.1 125.1 132 125.1C132.1 125.1 132 125.2 131.8 125.3Z" fill="#080809"/>
<path d="M135.4 124.2L135.5 124.1L134.8 124.3L135.4 124.2Z" fill="#080809"/>
<path d="M136 124.7H136.5L136.3 124.6L136 124.7Z" fill="#080809"/>
<path d="M135.9 124.9L136 125L136.2 124.9C136.3 124.8 136 124.9 135.9 124.9Z" fill="#080809"/>
<path d="M133.9 127.9C133.4 128 133.8 128 133.7 128.1C133.8 128 134.3 127.8 133.9 127.9Z" fill="#080809"/>
</g>
</g>
<path d="M20.1999 82.7C20.1999 82.7 12.4999 126.5 11.5999 145.3C11.5999 145.3 3.19992 154 6.29992 163.2H49.2999C49.2999 163.2 51.0999 151.9 51.5999 146.5C51.5999 146.5 73.9999 149.2 98.2999 146.2C98.2999 146.2 104.1 160.3 108 163.2H149C149 163.2 144.6 156.3 134.3 126.9C133.6 124.8 132.8 122.6 132 120.5C131.1 118.2 130.3 116 129.3 113.7C124.5 102.1 118.8 90.6 112.1 80.8C85.5999 42.1 22.3999 64 20.1999 82.7Z" fill="#967258"/>
<mask id="mask1_70_2443" style="mask-type:luminance" maskUnits="userSpaceOnUse" x="38" y="145" width="14" height="19">
<path d="M51.7 146.4C51.1 151.9 49.4 163.1 49.4 163.1H38C38 163.1 40.3 158.4 42.2 149.3C42.5 148 42.8 146.6 43.1 145.1C44.4 146 51.7 146.4 51.7 146.4Z" fill="white"/>
</mask>
<g mask="url(#mask1_70_2443)">
<g opacity="0.73">
<path d="M44.1001 146.2C44.1001 146.3 44.1001 146.4 44.1001 146.5C44.2001 146.5 44.2001 146.4 44.1001 146.2Z" fill="#080809"/>
<path d="M49.8 146.2L49.9 145.8C49.8 146 49.8 146.1 49.8 146.2Z" fill="#080809"/>
<path d="M44.8 148.6C44.8 148.7 44.8 148.8 44.9 149L44.8 148.6Z" fill="#080809"/>
<path d="M45.8 149.8C45.8 149.9 45.9 149.9 45.9 150C45.9 149.9 45.9 149.8 45.8 149.8Z" fill="#080809"/>
<path d="M39.3001 148.9L39.2001 148.8C39.3001 148.8 39.3001 148.9 39.3001 148.9Z" fill="#080809"/>
<path d="M39.6 149.6C39.5 149.6 39.5 149.6 39.6 149.6V149.7C39.7 149.8 39.6 149.6 39.6 149.6Z" fill="#080809"/>
<path d="M40 149.7C40.1 149.8 40.1 149.8 40 149.7V149.7Z" fill="#080809"/>
<path d="M42.6001 153.9L42.9001 154.1C42.8001 154 42.7001 153.9 42.6001 153.9Z" fill="#080809"/>
<path d="M39 148.5C39 148.6 39.1 148.7 39.2 148.8C39.2 148.7 39.2 148.6 39 148.5Z" fill="#080809"/>
<path d="M51.6001 146.3L51.7001 146.2C51.6001 146 51.6001 146.1 51.6001 146.3Z" fill="#080809"/>
<path d="M40.9 148.3C41.7 149 40.8 148.5 41.6 149.2C41.5 149 41.4 148.8 41.9 149.2C42.3 149.7 41.7 149.3 42.4 150L42.2 149.7C42.6 150 43 150.6 43 150.5C42.2 149.5 43.6 150.6 43.5 150.4L43.6 150.5L44.1 150.8C44.1 150.8 44.1 150.8 44.1 150.9C44.1 150.8 44 150.8 44 150.7C44.5 151.1 44.8 151.4 44.8 151.2C44.4 150.6 45 150.8 44.6 150.2C44.7 150.4 44.6 150.4 44.5 150.3L44 149.6C44.1 149.5 44.5 150.2 44.3 149.7C43.6 148.8 44.1 149.8 44 149.8C43.9 149.6 43.8 149.3 43.7 149.2C43.5 149.3 43.1 149.1 43.7 150.1C43.5 149.9 43.2 149.6 43.1 149.4C43.4 150 42.6 149 42.9 149.5C42.2 148.6 42.8 148.9 42.5 148.3C43.2 148.8 42.9 148 43 147.7C43.5 148.4 43.7 149 44.1 149.3C44.6 149.6 44 148.8 43.9 148.4C44.2 148.6 44.7 149.5 44.9 149.4L45.1 149.9C45.8 150.8 44.9 149.5 45.2 149.6C45 149.4 44.9 149.1 44.8 149.2C44.6 148.9 44.5 148.7 44.6 148.6C44.3 148.1 44.1 147.6 44.3 147.7C44.6 148.3 44.7 148.1 44.8 148.3V148.4C44.8 148.1 44.9 148.2 44.9 148L45 148.2C44.9 147.9 44.6 147.1 44.8 147.3C44.9 147.6 45.2 148.5 45.2 148.3C45.4 148.8 45.3 148.9 45.1 148.7C45.3 148.8 45.7 149.6 45.6 149.6C45.9 150.2 45.6 149.3 45.7 149.6C45.6 149.4 45.5 149.2 45.4 149C45.8 149.8 45.6 149 45.4 148.4C45.4 148.6 45.4 148.7 45.5 148.9C45.2 148.3 45.2 147.8 45 147.4C45.4 148.4 45.2 146.8 45.6 147.6L45.4 147.1C45.8 147.3 45.8 146.1 46.1 145.7C46 146.1 46.2 147.2 45.9 146.9C46.2 147.1 46.2 148.1 46.4 148.6C46.6 149 46.3 147.5 46.3 147.1L46.2 147.3C46.2 145.9 46.8 147.5 47.1 146.6C47.1 147 47 146.8 47 146.9C47.2 147.6 47.1 146.7 47.2 146.5C47.4 146.6 47.5 146.9 47.5 147.8C47.7 148 47.5 147.3 47.5 147V147.2L47.7 146.2C47.8 146.5 48 147 48.1 147.8C48.4 147.6 48.3 145.8 48.5 145.5C48.6 146 48.5 146.2 48.4 146.5L48.6 146.4C48.5 147.4 48.3 146.9 48.3 148C48.5 146.9 48.5 147.7 48.8 146.9V146.8C48.9 146 49.2 146.6 49.3 146.4C49.2 146.9 49.1 146.9 49 147.1C49.1 147.5 49.5 147.1 49.7 146.1C49.8 146.3 49.9 146.7 49.8 147.1C50.1 147.3 50 145.7 50.3 146L50.2 146.8C50.4 147.9 50.9 145.9 51 146.9L51.1 146C51.1 146.4 51.2 146.6 51.2 147L51 147.3C51 148.1 51.2 146.6 51.3 147.1C51.3 146.8 51.3 146.2 51.3 145.9C50.7 146.4 50.2 145 49.5 145.9C49.5 146 49.5 146.1 49.5 146.3C49.5 146.1 49.3 146.3 49.4 145.8V145.7C49.2 145.9 49.2 144.7 49.1 144.7C49 145.3 48.8 144.4 48.8 145.5L48.7 144.8C48.6 145.2 48.6 145.7 48.6 145.9C48.5 145.8 48.5 145.4 48.6 145.1C48.2 144.7 47.6 144.8 47.1 145.1L47.2 144.6C47.1 144.4 46.8 145.5 46.8 144.2C46.6 144.7 46 143.9 46.2 145.3C45.9 144 45.5 144.8 45.1 145.1C45.4 146.2 44.9 145.5 44.9 146C44.6 145.2 45 145 44.8 144.4C44.8 145.1 44.4 145 44.1 144.9C43.8 144.9 43.5 145 43.9 146C43.8 145.9 43.8 145.9 43.8 145.8C43.7 145.8 43.4 145.5 43.3 145.5C43.4 145.9 43.7 146 43.6 146.2C43.4 146.2 43.2 145.6 43 145.4C43 146 42.8 146.4 43.3 147.2C43.1 147 42.8 146.6 42.7 146.4C42.8 147.2 42.3 146.5 42.3 147.1C42.4 147 41.8 146.3 42.2 146.5C41.3 145.5 41.9 147.1 41.2 146.7L41.6 147.4C41.6 147.6 41 147 40.9 146.7C40.3 146.5 40.5 147.1 40.3 147.2C40.2 147.1 40.1 147 40.2 147L39.9 147.2C40 147.4 40.2 147.8 40.7 148.1C40.7 148.5 40.6 148.2 40.9 148.3Z" fill="#080809"/>
<path d="M41 148.8C41.1 148.9 41.1 148.9 41 148.8V148.8Z" fill="#080809"/>
<path d="M45.4001 150C45.3001 149.8 45.2001 149.8 45.2001 149.7C45.3001 149.8 45.3001 149.9 45.4001 150Z" fill="#080809"/>
<path d="M40.5 152.2C41.6 152.8 40.4 151.9 40.8 152C40.9 152.2 41.6 152.6 41.9 152.7C40.6 151.7 42.3 152.7 42.1 152.3C42.6 152.6 42.6 152.7 43.1 153.1C42.8 152.8 42.7 152.5 42 151.9C42.1 151.7 42.5 151.7 42.5 151.5C42.7 151.9 43.2 152.1 43.8 152.6C43 151.9 42.2 150.7 41.4 149.7C42.2 150.3 42.3 150.4 43 151C43.7 151.2 42.4 150.3 42.8 150.3H42.6C42.5 150 41.8 149.3 41.3 148.8L41.1 149.2C40.6 148.7 40.8 148.6 40.8 148.4C40.3 147.7 40.2 148.2 39.7 147.7C40.1 148.1 39.8 148.1 39.9 148.4L39.6 148.2C39.2 148.1 39.8 148.8 39.7 148.9C39.6 148.8 39.5 148.8 39.5 148.8C39.8 149.1 40.2 149.5 40.2 149.7V149.6C40.8 150.3 41.1 150.9 42 151.3L41.6 151.4C40.8 150.8 39.6 149.9 39.7 149.6L39.4 149.3C38.8 149.1 39.7 150.2 40.5 150.5C42.4 152 40.3 151 40.9 151.8C40.3 151.5 40.2 151.2 39.9 150.9C39.9 150.8 39.9 150.7 40.4 151C40.3 150.5 38.6 150 39.1 149.7C39.5 149.7 39.8 150.5 40.1 150.3C39.6 149.9 39.2 149.5 38.8 149.1C38.7 149.3 38.8 149.6 38.9 149.9C39.1 150.6 39 151 38.8 151.2C38.6 151.4 38.3 151.4 38.3 151.4C37.9 152.7 37.6 154 37.5 155.3C37.7 155.8 37.5 155.9 39.3 156.4C39.7 156.4 39.6 156.1 40.1 156.3C39.5 156.1 39.1 155.9 39.2 155.8C39.8 155.9 39.5 156 39.6 156H39.7C40 156.1 40.2 156.2 40.2 156.2C41.2 156.2 41.1 155.9 39.9 155.4C40.6 155.4 40.8 155.8 41.3 156C41.9 155.6 41.9 155.3 42.1 154.8C41 154.4 41.4 154.5 40.8 154.1L41.2 154.2C41 154.1 40.3 153.8 40 153.8C40.9 153.8 38.8 152.8 38.4 152.4L38.9 152.7C38.9 152.5 38.9 152.4 38.7 152.1C39.8 152.3 38.7 152.5 40.1 153L39.9 152.8C40.4 153.1 41.2 153.5 41.6 153.8C40.9 153.2 42.1 153.6 41.6 153C42.2 153.3 42.5 153.8 42.5 153.9C42.6 153.8 42.2 153.5 42.8 153.8L42.1 153.4C42.1 153.2 42.8 153.8 43.3 154C43.1 153.7 40.7 152.8 40.5 152.2Z" fill="#080809"/>
<path d="M43.8001 149C43.7001 149 43.7001 149 43.7001 149.1C43.8001 149.1 43.8001 149.1 43.8001 149Z" fill="#080809"/>
<path d="M44.9 151.6C44.6 151.3 44.7 151.3 44.4 150.9C44.5 151.2 44.4 151.3 44.9 151.6Z" fill="#080809"/>
<path d="M52.5 146.8C52.4 145.6 52.1 147.4 52 146.9C52 146.8 52 146.7 52.1 146.6L51.9 146.7V146.4C51.8 147.1 51.6 147.4 51.5 147.9C51.6 148.7 51.7 147 51.7 147.9C51.6 148.2 51.6 148.7 51.5 149C51.6 148.7 51.7 148.2 51.8 147.8C51.9 147.7 51.8 148.1 51.8 148.4C52 148 52.1 147 52.2 147.2C52.3 147.8 52 148.2 52.3 147.9C52.3 146.8 52.5 148.1 52.6 147.4C52.7 147.6 52.8 148.3 52.7 148.7C52.8 147.8 53 147.1 53.1 146.9L52.8 147.6V146.6C52.7 147.1 52.6 147 52.5 146.8Z" fill="#080809"/>
<path d="M51.6 149C51.6 149.1 51.6 149.1 51.5 149.2C51.5 149.2 51.5 149.1 51.6 149Z" fill="#080809"/>
<path d="M51.4 149.7C51.4 149.7 51.5 149.4 51.4 149.4L51.3 149.9L51.4 149.7Z" fill="#080809"/>
<path d="M51.3001 149L51.2001 148.4V148.9L51.3001 149Z" fill="#080809"/>
<path d="M47.8 148.2C47.9 148.6 47.9 147.9 47.9 147.4C47.8 147.2 48 148 47.8 148.2Z" fill="#080809"/>
<path d="M46.1 149.4C46.3 149.8 46.2 149.1 46.3 149.1C46.1 148.8 46 149 46.1 149.4Z" fill="#080809"/>
<path d="M46.6001 151.7C46.5001 151.5 46.5001 151.4 46.4001 151.3L45.9001 150.2C45.6001 149.9 46.3001 151.2 46.6001 151.7Z" fill="#080809"/>
<path d="M46.2 152.2L46 151.7C46 151.7 46 151.7 45.9 151.7C45.6 151.3 45.5 151.1 45.3 150.7C45.4 151 45.6 151.5 46.2 152.2Z" fill="#080809"/>
<path d="M45.3 150.5C45.4 150.7 45.5 150.8 45.3 150.5V150.5Z" fill="#080809"/>
<path d="M45.3001 150.6C45.2001 150.4 45.2001 150.5 45.3001 150.6V150.6Z" fill="#080809"/>
<path d="M45.7001 151.7L45.6001 151.9L45.8001 152C45.4001 151.5 46.2001 152.4 45.7001 151.7Z" fill="#080809"/>
<path d="M44.5 152L43.9 151.5C43.7 151.5 44.8 152.7 43.8 152C44.2 152.3 44.4001 152.6 44.6001 152.7C44.2001 152.1 44.3 151.9 44.5 152Z" fill="#080809"/>
<path d="M43.3 151.7C43.1 151.5 43 151.5 42.8 151.4C42.7 151.3 42.9 151.6 43.3 151.7C43.7 152.1 42.5 151.1 43.3 151.7Z" fill="#080809"/>
<path d="M42.9 152.3C42.9 152.3 42.9 152.2 42.7 152.1C42.6 152.2 43.4 152.7 43.7 153C44.1 153.2 43.2 152.5 42.9 152.3Z" fill="#080809"/>
<path d="M42.1 153.2H42.2L41.4 152.7L42.1 153.2Z" fill="#080809"/>
<path d="M42.2001 154.2L42.7001 154.6V154.4L42.2001 154.2Z" fill="#080809"/>
<path d="M41.9 154.3V154.5L42.2 154.6C42.4 154.5 41.9 154.4 41.9 154.3Z" fill="#080809"/>
<path d="M41.9 154.8C41.9 154.8 42.0001 154.8 42.1001 154.8L41.8 154.5L41.9 154.8Z" fill="#080809"/>
</g>
</g>
<path d="M39.1 107.9C39.1 107.9 49.7 117.3 68.3 116.9C87 116.5 97.5 106.5 97.5 106.5" stroke="#1B1C1E" stroke-width="1.2604" stroke-miterlimit="10" stroke-linecap="round" stroke-linejoin="round"/>
<path d="M37.8999 163.2C37.8999 163.2 40.1999 158.5 42.0999 149.4C43.9999 140.4 47.4999 126.7 47.4999 126.7C47.4999 126.7 68.2999 132.9 91.7999 127.2" stroke="#1B1C1E" stroke-width="1.2604" stroke-miterlimit="10" stroke-linecap="round" stroke-linejoin="round"/>
<path d="M98.3999 146.2C98.3999 146.2 93.8999 134.4 91.8999 127.3" stroke="#1B1C1E" stroke-width="1.2604" stroke-miterlimit="10" stroke-linecap="round" stroke-linejoin="round"/>
<path d="M51.7 146.4C51.7 146.4 44.4 145.9 43.1 145.2" stroke="#1B1C1E" stroke-width="1.1311" stroke-miterlimit="10" stroke-linecap="round" stroke-linejoin="round"/>
<path d="M14.8 163.2C14.8 163.2 13 155.8 18.5 153.1" stroke="#1B1C1E" stroke-width="1.2604" stroke-miterlimit="10" stroke-linecap="round" stroke-linejoin="round"/>
<path d="M25.9 162.8C25.9 162.8 24.9 156.3 29 154" stroke="#1B1C1E" stroke-width="1.2604" stroke-miterlimit="10" stroke-linecap="round" stroke-linejoin="round"/>
<path d="M142.2 163.2C142.2 163.2 142.2 151.2 133.5 146.7C133.5 146.7 126.4 130.1 121.5 117" stroke="#1B1C1E" stroke-width="1.2604" stroke-miterlimit="10" stroke-linecap="round" stroke-linejoin="round"/>
<path d="M132.2 163.2C132.2 163.2 132 156.6 127.4 153.5" stroke="#1B1C1E" stroke-width="1.2604" stroke-miterlimit="10" stroke-linecap="round" stroke-linejoin="round"/>
<path d="M119.5 163.2C119.5 163.2 119 157.6 116 153.5" stroke="#1B1C1E" stroke-width="1.2604" stroke-miterlimit="10" stroke-linecap="round" stroke-linejoin="round"/>
<path d="M24.8 7.49995C24.8 7.49995 18.7999 6.29995 13.8999 14.9999C8.99994 23.6999 0.0999537 40.2 0.799954 44.2999C1.49995 48.2999 5.59995 61.4999 17.1999 69.9999C28.7999 78.4999 27.6 9.79995 24.8 7.49995Z" fill="#3D291C"/>
<path d="M98.2999 5.2C98.2999 5.2 105.5 2.3 112.8 13.7C121.4 27.1 125.8 34.9 127.1 40C128.6 45.7 120.8 59.8 112.7 68.4C104.6 77 98.2999 5.2 98.2999 5.2Z" fill="#3D291C"/>
<path d="M24.7999 7.49999C24.7999 7.49999 18.4999 12.4 19.0999 29.4C19.4999 41.8 18.1999 50.7 17.3999 58.2C16.8999 62.2 15.8999 73.3 20.7999 83.7C23.0999 88.5 26.5999 93.2 31.9999 96.8C36.7999 100.1 43.1999 102.6 51.3999 103.8C63.8999 105.6 73.9999 105.5 82.2999 103.9C91.0999 102.3 97.5999 99.1 102.5 95C107.3 90.9 110.4 85.9 112.2 80.7C113.7 76.4 114.3 72 114.3 67.8C114.3 56.5 112.2 48.7 110.5 42.1C106 24.5 107.2 13.4 98.3999 5.19999C98.2999 5.19999 73.7999 -6.00001 24.7999 7.49999Z" fill="#967258"/>
<path d="M60.7999 78.3999C54.7999 82.1999 56.1999 82.7 50.3999 87.6C49.6999 88.2 49.0999 88.6 48.3999 89C43.1999 91.7 37.9999 88.6999 34.2999 84.8999C30.1999 80.6999 27.9999 70.9 36.9999 62.1C45.9999 53.3 60.7999 55.1 60.7999 55.1C59.2999 56 58.5999 57.6 59.3999 60.3C60.7999 65.3 65.5999 66.3999 65.5999 66.3999C65.1999 69.8999 66.0999 73.1 66.0999 73.1C66.0999 73.1 66.5999 74.7999 60.7999 78.3999Z" fill="#3D291C" stroke="#967258" stroke-width="1.2604" stroke-miterlimit="10" stroke-linecap="round" stroke-linejoin="round"/>
<path d="M98.6999 86.3C94.0999 91.1 88.9999 90.2 85.4999 87.7C84.3999 86.9 83.3999 85.9 82.6999 84.9C79.5999 80.6 76.9999 79 72.6999 77.5C67.8999 75.9 66.0999 73.1 66.0999 73.1C66.0999 73.1 65.1999 69.8 65.5999 66.4C65.5999 66.4 71.1999 65.4 72.1999 60.2C72.6999 57.5 71.9999 56 70.6999 55.1C78.6999 54 88.8999 55.4 95.9999 62C103.3 68.9 104.8 80.1 98.6999 86.3Z" fill="#3D291C" stroke="#967258" stroke-width="1.2604" stroke-miterlimit="10" stroke-linecap="round" stroke-linejoin="round"/>
<path d="M52.3999 85.9C52.3999 85.9 52.3999 77.9 53.2999 76.8C54.1999 75.8 56.7999 81.3 56.7999 81.3" fill="#D6D4C8"/>
<path d="M77.2 79.6001C77.2 79.6001 79.2999 75.5001 80.2999 75.3001C81.2999 75.1001 81.6 78.7 81.7 83.7" fill="#D6D4C8"/>
<path d="M59.9999 1.59998C59.9999 1.59998 62.3999 1.79998 62.7999 4.89998C63.1999 7.99998 63.5999 17 63.4999 17.7C63.3999 18.5 61.0999 20.5 55.8999 20.4C49.9999 20.3 46.2999 23.3 46.2999 23.3" stroke="#1B1C1E" stroke-width="1.2604" stroke-miterlimit="10" stroke-linecap="round" stroke-linejoin="round"/>
<path d="M63.3999 17.7C63.3999 17.7 65.0999 19.7 70.3999 19.3C75.6999 18.9 79.3999 19.5 82.3999 22" stroke="#1B1C1E" stroke-width="1.2604" stroke-miterlimit="10" stroke-linecap="round" stroke-linejoin="round"/>
<path d="M46.9 30.5C46.9 30.5 39 26.1 33 33.5" stroke="#1B1C1E" stroke-width="1.2604" stroke-miterlimit="10" stroke-linecap="round" stroke-linejoin="round"/>
<path d="M83.2999 30.7C83.2999 30.7 91.6999 25.7 96.2999 33.5" stroke="#1B1C1E" stroke-width="1.2604" stroke-miterlimit="10" stroke-linecap="round" stroke-linejoin="round"/>
<path d="M76.0999 95.6C67.4999 98 58.5999 96.9 53.1999 94.2C47.8999 91.5 48.2999 89.3 48.3999 89C49.0999 88.7 49.6999 88.2 50.3999 87.6C56.1999 82.7 54.7999 82.0999 60.7999 78.3999C66.5999 74.7999 66.0999 73.2 66.0999 73.2C66.0999 73.2 67.8999 76 72.6999 77.6C76.8999 79 79.4999 80.7 82.6999 85C83.3999 86 84.3999 87 85.4999 87.8C86.1999 88.3 84.2999 93.3 76.0999 95.6Z" fill="#3D291C" stroke="#967258" stroke-width="1.2604" stroke-miterlimit="10" stroke-linecap="round" stroke-linejoin="round"/>
<path d="M72.2 60.3C71.2 65.5 65.6 66.5 65.6 66.5C65.6 66.5 60.8 65.3999 59.4 60.3999C58.6 57.5999 59.3 56 60.8 55.2C62 54.5 63.8 54.2 65.6 54.2C67.6 54.2 69.4 54.4 70.7 55.3C72 56.1 72.7 57.6 72.2 60.3Z" fill="#1B1C1E" stroke="#967258" stroke-width="1.2604" stroke-miterlimit="10" stroke-linecap="round" stroke-linejoin="round"/>
<path d="M63 65.2999C63 65.2999 63 61.0999 61.6 60.8999L63 65.2999Z" fill="#1B1C1E"/>
<path d="M63 65.2999C63 65.2999 63 61.0999 61.6 60.8999" stroke="#967258" stroke-width="1.2604" stroke-miterlimit="10" stroke-linecap="round" stroke-linejoin="round"/>
<path d="M68 65.5999C68 65.5999 68 60.4999 69.6 60.8999L68 65.5999Z" fill="#1B1C1E"/>
<path d="M68 65.5999C68 65.5999 68 60.4999 69.6 60.8999" stroke="#967258" stroke-width="1.2604" stroke-miterlimit="10" stroke-linecap="round" stroke-linejoin="round"/>
<path d="M20.7 83.8C23 88.6 26.4999 93.3 31.8999 96.9C36.6999 100.2 43.1 102.7 51.3 103.9" stroke="#1B1C1E" stroke-width="1.2604" stroke-miterlimit="10" stroke-linecap="round" stroke-linejoin="round"/>
<mask id="mask2_70_2443" style="mask-type:luminance" maskUnits="userSpaceOnUse" x="85" y="80" width="37" height="24">
<path d="M121.6 96.6C112.1 103 85.6 103.2 85.6 103.2C89 101.7 100 97 102.4 95C107.2 90.9 110.3 85.9 112.1 80.7C115.6 85.7 118.7 91 121.6 96.6Z" fill="white"/>
</mask>
<g mask="url(#mask2_70_2443)">
<g opacity="0.52">
<path d="M102 95.4C102 95.5 102 95.6 102.1 95.6C102.1 95.6 102 95.5 102 95.4Z" fill="#080809"/>
<path d="M107.1 91.2L106.9 91C107 91.1 107 91.1 107.1 91.2Z" fill="#080809"/>
<path d="M103.7 97.8L103.8 97.9C103.8 97.8 103.8 97.8 103.7 97.8Z" fill="#080809"/>
<path d="M96.4999 98.7C96.3999 98.7 96.3999 98.8 96.4999 98.7V98.7Z" fill="#080809"/>
<path d="M94.7 102.9L94.7999 103.2C94.6999 103 94.7 103 94.7 102.9Z" fill="#080809"/>
<path d="M96.2999 97.5C96.2999 97.6 96.2999 97.7 96.2999 97.7C96.3999 97.7 96.3999 97.6 96.2999 97.5Z" fill="#080809"/>
<path d="M101.9 95.3C101.9 95.3 101.9 95.4 102 95.4L101.9 95.3Z" fill="#080809"/>
<path d="M108.4 89C108.4 88.9 108.4 88.9 108.4 88.8C108.2 88.9 108.3 89 108.4 89Z" fill="#080809"/>
<path d="M98.2 97.6C98.6 98.3 97.9999 97.7 98.3999 98.4C98.3999 98.2 98.5 98 98.7 98.4C98.8 98.8 98.4 98.5 98.7 99.1L98.7999 98.8C99.0999 99 99.2 99.6 99.2 99.5C98.9 98.6 99.8999 99.5 99.9999 99.3V99.4L100.5 99.6C100.5 99.6 100.5 99.5 100.4 99.4C100.7 99.7 101.1 99.9 101.2 99.7C101 99.2 101.8 99.1 101.6 98.7C101.6 98.9 101.5 98.9 101.3 98.9L101 98.4C101.2 98.3 101.3 98.9 101.3 98.5C100.8 97.8 101 98.7 100.8 98.7C100.7 98.5 100.7 98.3 100.8 98.2C100.5 98.3 100.1 98.2 100.4 99.1C100.2 99 100.1 98.7 100.1 98.5C100.1 99 99.6999 98.2 99.7999 98.6C99.4999 97.9 99.9999 98 99.8999 97.5C100.5 97.9 100.5 97.2 100.7 96.9C101 97.4 101.1 97.9 101.4 98.2C101.9 98.4 101.5 97.8 101.5 97.4C101.8 97.5 102.1 98.2 102.4 98V98.4C103 99 102.4 98 102.6 98.1C102.4 98 102.3 97.8 102.2 97.9C102 97.7 102.1 97.5 102.1 97.4C101.9 97 101.7 96.6 102 96.7C102.2 97.2 102.4 96.9 102.5 97.1V97.2C102.5 97 102.7 96.9 102.8 96.8L102.9 96.9C102.9 96.7 102.6 96.1 102.8 96.1C102.9 96.3 103.1 97 103.2 96.8C103.4 97.1 103.2 97.3 103 97.3C103.2 97.3 103.7 97.7 103.5 97.9C103.8 98.2 103.6 97.6 103.8 97.7C103.7 97.6 103.6 97.4 103.5 97.3C103.9 97.8 103.9 97.1 103.6 96.7V97.1C103.3 96.7 103.3 96.3 103.1 96.1C103.7 96.7 103.3 95.4 103.8 95.9L103.5 95.6C104 95.5 103.7 94.6 103.9 94.1C103.9 94.4 104.5 95.1 104.1 95C104.5 94.9 104.8 95.6 105.1 95.8C105.6 95.8 104.7 95.1 104.6 94.8L104.5 95.1C104.1 94.2 105.3 94.7 105.2 93.9C105.4 94.1 105.2 94.1 105.3 94.2C105.8 94.4 105.4 94 105.3 93.8C105.5 93.7 105.9 93.7 106.2 94.3C106.5 94.2 105.9 94 105.9 93.8L106 93.9L105.7 93.2C106 93.2 106.4 93.3 106.9 93.6C107.1 93.2 105.9 92.5 106 92.1C106.4 92.2 106.3 92.5 106.5 92.6L106.7 92.3C107.2 92.8 106.7 92.8 107.4 93.3C106.9 92.5 107.5 92.9 107.3 92.3H107.2C106.9 91.8 107.4 91.8 107.4 91.6C107.6 91.9 107.5 92.1 107.5 92.3C107.9 92.3 108 91.7 107.5 91.1C107.7 91.1 108.1 91 108.2 91.3C108.6 91 107.4 90.6 107.8 90.4L108.3 90.7C109.2 90.7 108.1 89.6 108.9 89.6L108.3 89.3C108.6 89.4 108.8 89.3 109 89.4L109.1 89.7C109.7 89.8 108.7 89.3 109.2 89.3C109 89.2 108.5 89.2 108.3 89.1C108.3 90 107 90.2 107.1 91.3C107.2 91.3 107.3 91.3 107.4 91.4C107.2 91.4 107.3 91.6 107 91.4V91.3C107 91.6 106.2 91.2 106.1 91.3C106.4 91.7 105.7 91.5 106.3 91.9L105.8 91.7C106 91.9 106.3 92.2 106.4 92.3C106.2 92.4 106 92.2 105.9 91.9C105.3 92.1 104.9 92.7 104.7 93.2L104.6 92.8C104.4 92.8 104.7 93.6 104.1 92.9C104.2 93.4 103.4 93.2 104 94C103.2 93.4 103.2 94.1 103 94.5C103.6 95.1 102.9 94.9 103.1 95.3C102.7 94.8 102.9 94.6 102.7 94.2C103 95.3 101.4 94.3 102.2 95.8C102.1 95.8 102.1 95.7 102.1 95.7C102 95.7 101.8 95.6 101.7 95.6C101.8 95.9 102.1 95.9 102 96.1C101.8 96.1 101.6 95.7 101.5 95.6C101.5 96.1 101.2 96.5 101.5 97.1C101.3 97 101 96.7 101 96.6C100.9 97.3 100.6 96.7 100.3 97.3C100.4 97.2 99.9999 96.6 100.3 96.8C99.5999 96.1 99.8 97.3 99.2 97.1L99.3999 97.7C99.2999 97.9 98.9999 97.4 98.9999 97.1C98.4999 96.9 98.5 97.4 98.2 97.5C98.1 97.4 98.1 97.3 98.2 97.3L97.7999 97.5C97.7999 97.7 97.7999 98 97.9999 98.3C97.8999 97.8 97.9 97.5 98.2 97.6Z" fill="#080809"/>
<path d="M102.8 98.3C102.7 98.2 102.6 98.2 102.6 98.2C102.7 98.2 102.8 98.3 102.8 98.3Z" fill="#080809"/>
<path d="M94.6999 100.8C95.0999 101.7 94.8999 100.6 95.1999 100.7C95.0999 100.9 95.2999 101.4 95.4999 101.6C95.2999 100.4 95.8999 101.7 96.1999 101.3C96.3999 101.7 96.1999 101.8 96.2999 102.2C96.3999 101.8 96.6999 101.5 96.4999 100.9C96.8999 100.7 97.1999 100.8 97.3999 100.6C97.1999 101 97.5999 101.2 97.6999 101.9C97.6999 101.1 97.8999 99.9 97.7999 98.9C98.1999 99.5 98.1999 99.6 98.4999 100.2C99.1999 100.4 98.2999 99.5 98.7999 99.5H98.5999C98.6999 99.2 98.3999 98.6 98.1999 98.1C98.0999 98.2 97.8999 98.3 97.7999 98.4C97.5999 97.9 97.8999 97.9 97.8999 97.7C97.7999 97.1 97.4999 97.4 97.2999 97C97.3999 97.4 97.1999 97.4 97.0999 97.6L96.9999 97.4C96.6999 97.2 96.7999 97.9 96.6999 98C96.5999 97.9 96.5999 97.9 96.5999 97.8C96.6999 98.1 96.7999 98.5 96.6999 98.6L96.7999 98.5C96.8999 99.2 96.6999 99.7 97.1999 100.3H96.5999C96.3999 99.6 95.9999 98.6 96.2999 98.4L96.1999 98.1C95.7999 97.8 95.8999 98.9 96.1999 99.4C96.6999 101.1 95.4999 99.8 95.3999 100.6C95.1999 100.2 95.2999 99.9 95.2999 99.6C95.3999 99.5 95.4999 99.5 95.5999 99.8C95.9999 99.4 94.8999 98.5 95.4999 98.4C95.7999 98.5 95.4999 99.2 95.8999 99.1L95.5999 97.8C95.3999 97.9 95.2999 98.2 95.1999 98.4C94.8999 99 94.3999 99.2 94.0999 99.3C93.7999 99.4 93.4999 99.3 93.4999 99.3C91.9999 100 90.4999 100.6 88.9999 101.1C88.5999 101.4 88.3999 101.4 88.3999 102.7C88.5999 102.9 88.8999 102.7 88.7999 103.2C88.7999 102.7 88.8999 102.4 89.1999 102.4C89.2999 102.8 88.9999 102.7 89.0999 102.8H89.1999C89.1999 103 89.1999 103.2 89.0999 103.2C89.5999 103.8 90.0999 103.5 90.0999 102.6C90.4999 103 90.0999 103.3 90.0999 103.7C91.0999 103.8 91.6999 103.6 92.5999 103.3C92.3999 102.5 92.4999 102.8 92.4999 102.2L92.6999 102.5C92.5999 102.4 92.5999 101.8 92.2999 101.7C92.9999 102.2 92.4999 100.5 92.6999 100L92.7999 100.4C92.9999 100.2 93.0999 100.2 93.2999 99.9C93.9999 100.5 92.9999 100.2 93.3999 101.1L93.4999 100.9C93.5999 101.3 93.6999 102 93.6999 102.3C93.8999 101.5 94.3999 102.3 94.6999 101.7C94.7999 102.2 94.4999 102.7 94.3999 102.8C94.5999 102.8 94.6999 102.4 94.8999 102.8L94.6999 102.2C94.9999 102 94.8999 102.7 95.0999 103.1C95.4999 102.8 94.2999 101.3 94.6999 100.8Z" fill="#080809"/>
<path d="M101.1 98C101 98 101 98.1 100.9 98.1C101 98.1 101 98.1 101.1 98Z" fill="#080809"/>
<path d="M100.4 99.7C100.4 99.8 100.5 99.7999 100.5 99.8999C100.5 99.8999 100.5 99.8 100.4 99.7Z" fill="#080809"/>
<path d="M100.7 100.5C100.5 100.3 100.6 100.2 100.5 99.9C100.5 100.1 100.3 100.2 100.7 100.5Z" fill="#080809"/>
<path d="M113.7 81.8C113.5 81.7 113.4 81.5 113.2 81.5L113.4 81.8H113.7Z" fill="#080809"/>
<path d="M113 82.2L112.7 82.3999L113.5 82.7C113.5 82.4 112.9 82.5 113 82.2Z" fill="#080809"/>
<path d="M112.4 82.8L112.2 82.7C112.3 82.8 112.3 82.8 112.4 82.8Z" fill="#080809"/>
<path d="M112.7 82.8999L113.3 83.1L112.9 82.7L112.7 82.8999C112.6 82.7999 112.5 82.8 112.4 82.8L112.8 83C112.7 83 112.6 82.8999 112.7 82.8999Z" fill="#080809"/>
<path d="M111.5 83.6C111.7 83.6 112 83.7999 112.2 83.8999C112.5 83.6999 111.6 83.5 112 83.3C112.4 83.7 112.4 83.3 112.7 83.2C112.1 83.2 111.8 83.1999 111.5 83.3999L111.9 83.5C111.9 83.7 111.7 83.5 111.5 83.6Z" fill="#080809"/>
<path d="M112 85.2L111.5 84.9C111.8 84.9 111.9 84.6 112.4 84.8C112.4 84.7 112.1 84.6 112 84.5C112.3 84.5 112.5 84.5 112.2 84.3C111.7 84.7 111.6 84.5 111.3 84.9C111.2 84.9 111.2 84.8 111.3 84.8L110.9 85C111.6 85 111.5 85.3 112 85.2Z" fill="#080809"/>
<path d="M111.5 85.5C111.5 85.3 111.1 85 110.7 85L111 85.6C111 85.4 111 85.2 111.5 85.5Z" fill="#080809"/>
<path d="M111.4 85.8C111.1 85.8 110.5 85.8001 111 86.1001C110.9 85.8001 111.7 86.1 111.4 85.8Z" fill="#080809"/>
<path d="M110.4 87.2L110.9 86.8999C111.6 87.0999 111 87.1999 111.3 87.3999C111.6 87.0999 111.3 87.1 111 86.7C111.1 86.6 110.8 86.3 110.6 86.2C111 86.9 109.3 86.3 110.4 87.2Z" fill="#080809"/>
<path d="M111.4 86.6L111.1 86.4L111.3 86.7L111.4 86.6Z" fill="#080809"/>
<path d="M109.3 87.8C108.4 87.7 109.6 88.4 109.1 88.6C109.1 88.6 109 88.5 108.9 88.4V88.7L108.7 88.6C109.2 88.8 109.2 89.1 109.6 89.4C110.2 89.4 109.1 89 109.7 89.1C109.9 89.3 110.2 89.4 110.3 89.6C110.1 89.3 109.9 89.2 109.6 89C109.6 88.8 109.9 89 110 89.1C109.8 88.8 109.1 88.5 109.4 88.3C109.9 88.3 110 88.7 110 88.3C109.2 88.1 110.2 88.1 109.8 87.7C110 87.5 110.6 87.6 110.8 87.7C110.2 87.5 109.8 87.1 109.7 86.9L110.1 87.5L109.4 87.4C109.6 87.6 109.5 87.7 109.3 87.8Z" fill="#080809"/>
<path d="M110.3 89.5L110.4 89.6C110.4 89.7 110.4 89.6 110.3 89.5Z" fill="#080809"/>
<path d="M111.1 87.7L111.2 87.8L111.4 87.8999L111.1 87.7Z" fill="#080809"/>
<path d="M110.7 90C110.7 90 110.5 89.7999 110.5 89.8999L110.8 90.1L110.7 90Z" fill="#080809"/>
<path d="M110.1 90L109.7 89.9L110 90.1L110.1 90Z" fill="#080809"/>
<path d="M106.5 94.2C106.8 94.3 106.4 93.9 106.2 93.6C105.9 93.8 106.5 94 106.5 94.2Z" fill="#080809"/>
<path d="M104.3 97C104.7 97.1 104.5 96.6 104.7 96.5C104.3 96.5 104.2 96.7 104.3 97Z" fill="#080809"/>
<path d="M104 99.3C104 99.1 104 99 103.8 99L103.4 98.1C103.1 98.1 103.8 99 104 99.3Z" fill="#080809"/>
<path d="M102.6 100.4L102.7 100L102.6 100.1C102.5 99.8001 102.4 99.6 102.4 99.3C102.2 99.5 102.2 99.9 102.6 100.4Z" fill="#080809"/>
<path d="M102.4 99C102.4 99.1 102.5 99.2 102.4 99V99Z" fill="#080809"/>
<path d="M102.3 99.1C102.2 99 102.3 99 102.3 99.1V99.1Z" fill="#080809"/>
<path d="M102.2 100.2L101.8 100.5L102.1 100.6C101.8 100.1 102.4 100.7 102.2 100.2Z" fill="#080809"/>
<path d="M99.7 101L99.3999 100.5C99.0999 100.5 99.3 101.8 98.7 101.1C99 101.3 98.6999 101.8 99.0999 101.7C99.0999 101.3 99.5 101 99.7 101Z" fill="#080809"/>
<path d="M98.2999 100.8C98.2999 100.6 98.1999 100.6 98.0999 100.4C97.9999 100.4 97.9999 100.7 98.0999 100.8C97.8999 100.2 98.3999 101.3 98.2999 100.8Z" fill="#080809"/>
<path d="M97.1 101.4C97.2 101.4 97.3 101.3 97.1 101.2C96.9 101.3 97.2 101.9 97.2 102.3C97.5 102.5 97.4 101.7 97.1 101.4Z" fill="#080809"/>
<path d="M93.7 98.5C93.9 98.9 94.0999 98.8 93.9999 98.6C93.9999 98.7 93.8 98.6 93.7 98.5Z" fill="#080809"/>
<path d="M95.1 102.1L95.2 102.2L95 101.5L95.1 102.1Z" fill="#080809"/>
<path d="M93.7 103.1V103.6L93.8999 103.4L93.7 103.1Z" fill="#080809"/>
<path d="M93.3999 103L93.2 103.1L93.2999 103.2C93.4999 103.4 93.2999 103.1 93.3999 103Z" fill="#080809"/>
<path d="M92.7 103.4C92.7 103.3 92.7999 103.4 92.7999 103.5L92.8999 103.1L92.7 103.4Z" fill="#080809"/>
<path d="M87.9999 101.6C87.8999 101.1 87.8 101.5 87.7 101.4C87.7 101.5 87.8999 102.1 87.9999 101.6Z" fill="#080809"/>
</g>
</g>
<path d="M82.2999 104C91.0999 102.4 97.5999 99.2001 102.5 95.1001C107.3 91.0001 110.4 86 112.2 80.8" stroke="#1B1C1E" stroke-width="1.2604" stroke-miterlimit="10" stroke-linecap="round" stroke-linejoin="round"/>
<path d="M134.4 126.8C133.7 124.7 132.9 122.5 132.1 120.4C131.2 118.1 130.4 115.9 129.4 113.6" stroke="#1B1C1E" stroke-width="1.1311" stroke-miterlimit="10" stroke-linecap="round" stroke-linejoin="round"/>
<path d="M62.7 4.40005C62.7 4.40005 62.6 1.90005 64.4 1.30005" stroke="#1B1C1E" stroke-width="1.2604" stroke-miterlimit="10" stroke-linecap="round" stroke-linejoin="round"/>
<path d="M45.4999 55.3C50.0287 55.3 53.6999 51.6288 53.6999 47.1C53.6999 42.5713 50.0287 38.9 45.4999 38.9C40.9712 38.9 37.2999 42.5713 37.2999 47.1C37.2999 51.6288 40.9712 55.3 45.4999 55.3Z" fill="#D6D4C8"/>
<path d="M45.5 53.4C48.9793 53.4 51.8 50.5794 51.8 47.1001C51.8 43.6207 48.9793 40.8 45.5 40.8C42.0206 40.8 39.2 43.6207 39.2 47.1001C39.2 50.5794 42.0206 53.4 45.5 53.4Z" fill="#1B1C1E"/>
<path d="M43.4999 46.9C44.6044 46.9 45.4999 46.0046 45.4999 44.9C45.4999 43.7955 44.6044 42.9 43.4999 42.9C42.3953 42.9 41.4999 43.7955 41.4999 44.9C41.4999 46.0046 42.3953 46.9 43.4999 46.9Z" fill="#D6D4C8"/>
<path d="M83.3 54.1C87.8287 54.1 91.5 50.4287 91.5 45.8999C91.5 41.3712 87.8287 37.7 83.3 37.7C78.7712 37.7 75.1 41.3712 75.1 45.8999C75.1 50.4287 78.7712 54.1 83.3 54.1Z" fill="#D6D4C8"/>
<path d="M83.3 52.2C86.7794 52.2 89.6 49.3794 89.6 45.9C89.6 42.4206 86.7794 39.6 83.3 39.6C79.8206 39.6 77 42.4206 77 45.9C77 49.3794 79.8206 52.2 83.3 52.2Z" fill="#1B1C1E"/>
<path d="M81.2999 45.7999C82.4045 45.7999 83.2999 44.9045 83.2999 43.7999C83.2999 42.6954 82.4045 41.7999 81.2999 41.7999C80.1954 41.7999 79.2999 42.6954 79.2999 43.7999C79.2999 44.9045 80.1954 45.7999 81.2999 45.7999Z" fill="#D6D4C8"/>
</svg>
