<svg width="255" height="180" viewBox="0 0 255 180" fill="none" xmlns="http://www.w3.org/2000/svg">
<path d="M0.800047 174.2C-1.59995 172.9 239.2 170.6 253.2 174.2C263.3 176.8 226.7 179.4 183.6 179.3C137.8 179.3 84.6 176.5 69.7 178C40.6 180.8 8.90005 178.6 0.800047 174.2Z" fill="#1B1C1E"/>
<path d="M37.9999 106.2C37.9999 106.2 36.4999 119.5 36.7999 128.5C37.0999 137.4 38.2999 141.7 37.9999 143.1C37.6999 144.6 36.2999 150.7 37.3999 151.6C37.3999 151.6 37.7999 155.7 36.7999 159.9C35.7999 164.1 33.2999 172.2 35.5999 176.3H47.4999C47.4999 176.3 53.4999 162.7 50.2999 146.1C47.0999 129.5 40.5999 103.4 37.9999 106.2Z" fill="#FFF0DD"/>
<path d="M150.3 121.5C150.3 121.5 149.9 133.1 153.8 136.5C155.2 137.7 156.9 137.3 156.9 137.3C156.9 137.3 157.2 143.9 159.5 145.8C160.4 146.5 161.1 146.8 161.1 146.8C161.1 146.8 161.1 155.1 163.2 155.9C165.3 156.7 158.6 168.3 160.6 176.4H188.8C188.8 176.4 196.1 161.2 194 149.8C191.9 138.5 184.6 113.6 180 110.3C175.5 107 153.6 112.8 150.3 121.5Z" fill="#FFF0DD"/>
<mask id="mask0_70_2228" style="mask-type:luminance" maskUnits="userSpaceOnUse" x="150" y="109" width="45" height="68">
<path d="M150.3 121.5C150.3 121.5 149.9 133.1 153.8 136.5C155.2 137.7 156.9 137.3 156.9 137.3C156.9 137.3 157.2 143.9 159.5 145.8C160.4 146.5 161.1 146.8 161.1 146.8C161.1 146.8 161.1 155.1 163.2 155.9C165.3 156.7 158.6 168.3 160.6 176.4H188.8C188.8 176.4 196.1 161.2 194 149.8C191.9 138.5 184.6 113.6 180 110.3C175.5 107 153.6 112.8 150.3 121.5Z" fill="white"/>
</mask>
<g mask="url(#mask0_70_2228)">
<g opacity="0.7">
<path d="M164.1 120.9C164.1 121.1 164 121.3 164 121.5C164 121.4 164 121.3 164.1 120.9Z" fill="#2C2C2D"/>
<path d="M157.4 120.7V120C157.5 120.3 157.5 120.5 157.4 120.7Z" fill="#2C2C2D"/>
<path d="M163.2 125.6C163.2 125.8 163.2 126 163.1 126.5L163.2 125.6Z" fill="#2C2C2D"/>
<path d="M161.8 128.3C161.8 128.4 161.7 128.5 161.7 128.6C161.7 128.5 161.7 128.4 161.8 128.3Z" fill="#2C2C2D"/>
<path d="M170.4 121.2C170.4 121.1 170.5 121 170.5 120.9C170.4 121 170.4 121.1 170.4 121.2Z" fill="#2C2C2D"/>
<path d="M170.3 122.5C170.4 122.4 170.4 122.5 170.3 122.5V122.7C170.3 122.8 170.3 122.6 170.3 122.5Z" fill="#2C2C2D"/>
<path d="M168.6 132L168.3 132.7C168.4 132.4 168.5 132.2 168.6 132Z" fill="#2C2C2D"/>
<path d="M170.6 120.3C170.6 120.5 170.5 120.7 170.4 120.9C170.5 120.7 170.5 120.6 170.6 120.3Z" fill="#2C2C2D"/>
<path d="M164.2 120.6C164.2 120.7 164.1 120.8 164.1 120.9C164.2 120.8 164.2 120.7 164.2 120.6Z" fill="#2C2C2D"/>
<path d="M154.8 120.4C154.7 120.3 154.7 120.3 154.6 120.1C154.8 119.9 154.8 120.1 154.8 120.4Z" fill="#2C2C2D"/>
<path d="M168.2 122C167.3 124 168.4 122.2 167.6 124.1C167.7 123.6 167.7 123.3 167.2 124.3C166.8 125.4 167.5 124.3 166.8 126L166.9 125.3C166.5 126.1 166.1 127.5 166 127.3C166.8 125 165.2 128 165.2 127.6V127.8L164.6 128.8V128.9C164.6 128.8 164.7 128.6 164.8 128.5C164.3 129.6 163.8 130.4 163.8 130C164.2 128.7 163.4 129.4 163.7 128.2C163.7 128.6 163.7 128.6 163.9 128.3L164.5 126.7C164.3 126.7 164 128.2 164.1 127.2C164.9 125.1 164.3 127.3 164.5 127.1C164.6 126.6 164.7 126.1 164.7 125.9C165 125.9 165.5 125.3 164.9 127.5C165.1 127.1 165.4 126.2 165.5 125.9C165.2 127.2 166.1 124.7 165.8 125.9C166.5 123.9 165.8 124.7 166.1 123.5C165.3 125 165.5 123.4 165.4 123C164.9 124.5 164.6 125.8 164.2 126.6C163.6 127.5 164.2 125.7 164.4 124.8C164 125.3 163.5 127.3 163.2 127.3L163 128.3C162.1 130.3 163.1 127.4 162.9 127.8C163.1 127.3 163.3 126.7 163.4 126.8C163.7 126 163.7 125.7 163.6 125.6L163.7 125.5C164 124.5 164.3 123.4 164 123.8C163.7 125.1 163.5 124.7 163.3 125.3V125.6C163.3 125.1 163.1 125.3 163.1 125L163 125.3C163.1 124.8 163.5 123.2 163.2 123.5C163 124.1 162.7 125.9 162.6 125.6C162.3 126.5 162.5 126.7 162.7 126.4C162.4 126.7 161.9 128.2 162 128.4C161.6 129.6 162 127.8 161.7 128.4C161.8 128 161.9 127.6 162 127.3C161.5 128.9 161.6 127.3 162 126.2V127C162.4 125.7 162.4 124.8 162.7 124.1C162 126.1 162.5 122.9 161.9 124.6L162.3 123.6C161.8 124.1 162.1 121.7 161.8 121.1C161.8 121.8 161.2 124 161.6 123.3C161.1 123.6 160.9 125.5 160.5 126.6C160 127.4 160.9 124.5 161 123.7L161.1 124.2C161.5 121.5 160.2 124.6 160.3 122.9C160.1 123.6 160.3 123.3 160.3 123.6C159.8 124.9 160.2 123.3 160.2 122.7C160 122.9 159.6 123.4 159.4 125.1C159.1 125.5 159.6 124.1 159.7 123.6L159.6 124L159.8 122.1C159.5 122.6 159.1 123.5 158.7 125C158.4 124.6 159.3 121.2 159.1 120.5C158.8 121.3 158.9 121.8 158.8 122.4L158.6 122.2C158.4 124.1 158.7 123.2 158.3 125.4C158.5 123.2 158.1 124.7 158.1 123.2V123C158.2 121.5 157.7 122.5 157.6 122.2C157.5 123.1 157.7 123.2 157.8 123.6C157.5 124.3 157.1 123.5 157.2 121.5C157 121.8 156.7 122.6 156.8 123.4C156.4 123.7 156.9 120.6 156.5 121.1L156.4 122.6C156.1 123.7 156 123.2 155.8 122.6C155.6 122.1 155.4 121.6 155.2 122.5V120.7C155.1 121.5 154.9 121.8 154.9 122.5L155.1 123.1C154.9 124.6 154.9 121.6 154.7 122.7C154.7 122.1 154.9 120.9 154.9 120.3C155.3 120.8 155.8 120.4 156.2 120.2C156.6 119.9 157.1 119.8 157.4 120.8C157.3 121 157.3 121.3 157.3 121.6C157.4 121.2 157.5 121.7 157.6 120.7V120.6C157.8 121 158.3 118.9 158.4 118.9C158.3 120.1 159 118.5 158.5 120.5L158.9 119.2C158.8 120 158.6 121 158.6 121.4C158.8 121.3 158.9 120.4 158.9 119.9C159.6 119.2 160.3 119.6 160.7 120.3L160.8 119.3C161.1 118.8 160.9 121.1 161.4 118.6C161.5 119.6 162.4 118.1 161.7 120.7C162.5 118.3 162.7 119.8 162.9 120.3C162.2 122.5 163 121 162.8 122C163.3 120.3 163 120.2 163.3 119.1C162.9 121.8 165 117.5 163.8 121.9C163.9 121.7 164 121.6 164 121.4C164.1 121.4 164.4 120.7 164.5 120.5C164.3 121.3 164 121.6 164.1 121.9C164.3 121.8 164.6 120.6 164.8 120C164.8 121.1 165 121.6 164.5 123.3C164.7 122.9 165.1 121.9 165.2 121.6C165.2 123.1 165.7 121.5 165.8 122.5C165.7 122.4 166.4 120.7 165.9 121.3C166.9 118.9 166.4 122 167.2 120.8L166.8 122.4C166.9 122.7 167.5 121.3 167.5 120.7C168.2 119.9 168 120.9 168.3 121C168.4 120.8 168.5 120.5 168.4 120.6L168.8 120.7C168.7 121.1 168.5 121.9 168.1 122.9C168.5 122.1 168.7 121.5 168.2 122Z" fill="#2C2C2D"/>
<path d="M168.2 122.9L168.1 123.1C168.2 123.1 168.2 123 168.2 122.9Z" fill="#2C2C2D"/>
<path d="M162.6 128.4C162.8 128 162.8 127.8 162.9 127.8C162.8 128 162.7 128.3 162.6 128.4Z" fill="#2C2C2D"/>
<path d="M170.4 127.1C169.3 129.3 170.4 126.6 169.9 127.2C169.9 127.6 169.2 128.9 168.9 129.5C170.1 126.5 168.4 130 168.4 129.2C168 130.1 168 130.4 167.5 131.4C167.7 130.6 167.6 130.1 168.3 128.4C168 128.2 167.5 128.7 167.5 128.4C167.4 129.2 166.8 130.1 166.3 131.5C167 129.5 167.5 127 168.1 124.5C167.3 126.3 167.2 126.5 166.5 128.2C165.6 129.3 167.1 126.5 166.5 126.9L166.8 126.6C166.9 126 167.6 124.3 168 123L168.3 123.4C168.8 122.1 168.5 122.2 168.5 121.9C169 120.3 169.2 120.9 169.6 119.7C169.3 120.7 169.6 120.5 169.5 120.9L169.8 120.2C170.3 119.6 169.7 121.3 169.9 121.4C170 121.2 170.1 121.1 170.1 121C169.8 121.8 169.5 122.7 169.5 123L169.4 122.9C168.9 124.6 168.8 125.7 167.8 127.3L168.4 127C169.1 125.3 170.3 122.6 170.1 122.3L170.4 121.6C171 120.7 170.3 123.2 169.5 124.6C167.8 128.8 170.1 125 169.6 126.9C170.2 125.8 170.2 125.3 170.5 124.4C170.5 124.2 170.4 124.2 170 125.1C169.9 124.3 171.8 121.6 171.1 121.7C170.6 122.2 170.5 123.6 170.1 123.6L171.3 120.3C171.5 120.5 171.5 121.1 171.5 121.5C171.5 122.8 171.9 123 172.2 123C172.6 123 173 122.6 173 122.6C174.2 123.7 175.4 124.7 176.5 125.9C176.7 126.6 176.9 126.5 175.2 129.5C174.7 130 174.7 129.6 174.1 130.7C174.8 129.6 175 128.9 174.7 128.9C174 129.9 174.6 129.5 174.4 129.7H174.3C174 130.2 173.8 130.6 173.8 130.7C172.6 132.2 172.4 131.6 173.5 129.5C172.7 130.5 172.6 131.2 172.2 132.1C171.1 132.6 170.8 132.2 170.2 131.9C171.3 130 170.8 130.7 171.5 129.3L171.1 130C171.3 129.7 172 128.3 172.3 128C171.1 129.3 173.2 125.2 173.4 124.2L172.9 125.2C172.8 124.9 172.7 124.8 172.8 124.2C171.4 125.9 173 124.7 171.6 127.1L171.7 126.6C171.3 127.6 170.4 129.3 170.2 130.1C170.7 128.3 169.4 130.5 169.7 129.1C169.2 130.3 169 131.3 169 131.5C168.8 131.5 169 130.6 168.5 131.7L169.2 130.3C169.1 130 168.6 131.6 168 132.5C167.8 132.4 170.4 128.2 170.4 127.1Z" fill="#2C2C2D"/>
<path d="M164.6 125.7C164.7 125.6 164.7 125.7 164.7 125.8C164.7 125.9 164.6 125.8 164.6 125.7Z" fill="#2C2C2D"/>
<path d="M163.9 131C164.2 130.3 164.1 130.3 164.4 129.4C164.3 130 164.5 130 163.9 131Z" fill="#2C2C2D"/>
<path d="M151.7 129.5C151.5 129.3 151.4 129.2 151.2 129C150.9 128.7 150.6 128.5 150.3 128.2L150.2 128.1H150.1L151.2 129.1V129L151.1 128.9C151 128.8 150.9 128.8 150.9 128.7V128.8L150.2 128.1L150.3 128.2L150.5 128.4L151 128.9C151.1 129 151.1 129 151.2 129.1L151.7 129.5Z" fill="#2C2C2D"/>
<path d="M150.7 128.2C150.6 128 150.5 127.8 150.4 127.6C150.9 128.1 151.4 128.7 151.8 129.2C151.7 129.3 150.8 128.1 150.7 128.2Z" fill="#2C2C2D"/>
<path d="M150.3 127L150 126.6C150.1 126.7 150.2 126.8 150.3 127Z" fill="#2C2C2D"/>
<path d="M150.8 127.7L151.8 128.9C151.5 128.6 151.3 128.3 151 128.1L150.9 127.8C150.6 127.4 150.5 127.2 150.3 126.9L151 127.8C150.9 127.7 150.7 127.5 150.8 127.7Z" fill="#2C2C2D"/>
<path d="M151 127.6C151.1 127.7 151.2 127.9 151.3 128C151.1 127.9 151.1 127.8 151 127.6Z" fill="#2C2C2D"/>
<path d="M149.7 125C150 125.5 150.5 126.2 150.9 126.7C151.1 127.3 149.8 125.3 150.1 126.1C151 127 150.5 126.9 151 127.7C150.2 126.5 149.7 125.6 149.6 125.1L150.1 125.9C150.3 125.8 149.9 125.4 149.7 125Z" fill="#2C2C2D"/>
<path d="M151.8 126.6C151.6 126.2 151.3 125.8 151 125.4C151.3 126 151.1 126.2 151.8 127.5C151.6 127.3 151.3 126.8 151.1 126.5C151.4 127.2 151.7 127.7 151.1 126.8C150.9 125.7 150.6 125.5 150.7 124.9C150.5 124.6 150.5 124.7 150.5 124.8C150.4 124.5 150.4 124.3 150.4 124C151.2 125.5 151.5 125.5 151.8 126.6Z" fill="#2C2C2D"/>
<path d="M151.6 125.4C151.4 125.4 150.7 124.2 150.4 123.2C150.7 123.5 151 123.8 151.2 124.1C151.2 124.2 151 124.1 151.6 125.4Z" fill="#2C2C2D"/>
<path d="M151.8 125.3C151.6 124.6 151.1 123 151.8 124.3C151.5 124.2 152.3 126.3 151.8 125.3Z" fill="#2C2C2D"/>
<path d="M152.6 123.6C152.5 123.9 152.5 124.3 152.5 124.6C152.9 126.5 152.8 125.1 153.1 126C153 126.4 152.9 125.8 152.4 124.7C152.4 124.8 151.9 123.9 151.7 123.4C152.2 124.1 152.1 123.3 152 122.7C152 122.3 152 121.9 152.6 123.6Z" fill="#2C2C2D"/>
<path d="M152.5 125.7L152.2 124.9L152.5 125.5V125.7Z" fill="#2C2C2D"/>
<path d="M153.2 121.4C153.2 120.2 153.4 120.5 153.6 121C153.8 121.5 154 122.1 154.1 121.6C154.1 121.5 154.1 121.3 154 121L154.3 121.2V120.7C154.3 122.1 154.6 122.6 154.7 123.7C154.5 125.2 154.5 122 154.4 123.6C154.5 124.2 154.5 125.2 154.6 125.7C154.5 125 154.4 124.2 154.3 123.4C154.1 123.3 154.2 124 154.3 124.6C154.1 123.8 153.9 121.8 153.7 122.3C153.7 123.5 154 124.2 153.7 123.7C153.6 121.5 153.5 124.1 153.2 122.7C153 123.1 153.2 124.5 153.4 125.3C153.1 123.6 152.6 122.3 152.3 121.8C152.5 122.2 152.8 122.7 153 123.1L152.8 121.1C153.2 122 153.3 121.8 153.5 121.5L153.2 121.4Z" fill="#2C2C2D"/>
<path d="M154.6 125.6C154.6 125.7 154.6 125.8 154.7 126C154.6 126 154.6 125.9 154.6 125.6Z" fill="#2C2C2D"/>
<path d="M153.3 125.8L153.4 126.2L153.5 126.7L153.3 125.8Z" fill="#2C2C2D"/>
<path d="M154.7 127C154.7 127.1 154.6 126.4 154.7 126.3L154.8 127.2L154.7 127Z" fill="#2C2C2D"/>
<path d="M154.9 125.8L155 124.6V125.5L154.9 125.8Z" fill="#2C2C2D"/>
<path d="M159.2 125.2C158.9 125.8 159.2 124.5 159.4 123.6C159.6 123.3 159.1 124.7 159.2 125.2Z" fill="#2C2C2D"/>
<path d="M161.4 127.5C161 128.3 161.2 127 161.1 127C161.4 126.4 161.4 126.8 161.4 127.5Z" fill="#2C2C2D"/>
<path d="M161 132.2C161.1 131.8 161.1 131.5 161.3 131.4L161.9 129.1C162.3 128.4 161.4 131.2 161 132.2Z" fill="#2C2C2D"/>
<path d="M162 132.9L162.1 132H162.2C162.5 131.1 162.6 130.6 162.8 129.9C162.8 130.3 162.6 131.3 162 132.9Z" fill="#2C2C2D"/>
<path d="M162.8 129.3C162.8 129.3 162.8 129.4 162.8 129.5C162.7 129.7 162.6 130.1 162.8 129.3Z" fill="#2C2C2D"/>
<path d="M162.9 129.5C162.9 129.3 163 129.1 162.9 129.5V129.5Z" fill="#2C2C2D"/>
<path d="M162.6 131.8L162.8 132.2L162.5 132.6C163 131.2 162.1 133.3 162.6 131.8Z" fill="#2C2C2D"/>
<path d="M164.7 131.3L165.3 130C165.6 129.8 164.7 132.8 165.7 130.7C165.3 131.5 165.2 132.3 164.8 132.6C165.2 131.3 165 131 164.7 131.3Z" fill="#2C2C2D"/>
<path d="M166.3 129.6C166.4 129.2 166.6 128.9 166.8 128.6C166.9 128.5 166.8 129.1 166.5 129.7C167.2 127.8 165.9 130.7 166.3 129.6Z" fill="#2C2C2D"/>
<path d="M167.2 130.1C167.2 130 167.1 129.9 167.4 129.6C167.6 129.8 166.8 131.2 166.5 132.2C166 132.9 166.8 130.8 167.2 130.1Z" fill="#2C2C2D"/>
<path d="M173.4 121.2C172.8 122.3 172.7 122.1 172.9 121.7C172.8 121.9 173.1 121.6 173.4 121.2Z" fill="#2C2C2D"/>
<path d="M168.8 130.5L168.7 130.8L169.4 129L168.8 130.5Z" fill="#2C2C2D"/>
<path d="M169.4 132L169 133.1L168.9 132.8L169.4 132Z" fill="#2C2C2D"/>
<path d="M169.8 131.8L169.9 132L169.6 132.4C169.4 132.7 169.8 131.9 169.8 131.8Z" fill="#2C2C2D"/>
<path d="M170.2 132.3C170.2 132.2 170.1 132.4 170 132.5L170.2 131.7V132.3Z" fill="#2C2C2D"/>
<path d="M177.2 127.3C177.9 126.2 177.6 127 177.8 126.8C177.6 127.1 176.6 128.4 177.2 127.3Z" fill="#2C2C2D"/>
</g>
</g>
<path d="M26.4999 55.6C26.4999 55.6 22.7999 70.4 23.8999 72.1C24.9999 73.8 25.7999 71.6 25.7999 73.7C25.7999 75.8 25.8999 80.3 27.4999 79.6C29.0999 78.9 28.6999 77.6 29.0999 78.9C29.4999 80.1 30.7999 84.9 32.8999 83.8C34.9999 82.8 35.7999 80.2 36.0999 80.7C36.3999 81.2 38.5999 85.3 39.9999 83.4C41.4999 81.4 44.3999 61.9 42.9999 55.6C41.5999 49.3 38.7999 43.8 35.4999 47.1C32.1999 50.4 26.4999 55.6 26.4999 55.6Z" fill="#FFF0DD"/>
<path d="M24.4998 28.5999C24.4998 28.5999 16.8999 35.8 1.59985 37.6C1.59985 37.6 0.0998535 44.2999 5.09985 51.1999C10.3999 58.5999 22.6998 61 40.6998 57C40.6998 57 41.0999 63.8 40.5999 75.1C40.4999 78.3 40.2998 81.8 39.9998 85.6C38.9998 97.8 37.2998 107 38.4998 114.5C38.9998 117.8 39.9998 120.7 41.8998 123.4C41.8998 123.4 40.9998 144 43.6998 142.5C43.6998 142.5 44.8998 156.5 45.4998 157.6C46.0998 158.8 47.0998 160.8 46.1998 165.6C45.2998 170.5 44.8998 174.5 46.1998 176.2H70.8998C72.0998 176.2 73.0998 173.7 72.6998 169.8C72.4998 168.2 75.4998 165 75.9998 159.7C75.9998 159.7 79.8998 155 80.4998 147.9C81.0998 140.9 79.6998 138.4 79.6998 138.4C79.6998 138.4 82.1998 137.1 81.4998 132.5C81.4998 132.5 84.8998 135 87.2999 135.4C89.6999 135.8 88.4998 133.8 88.4998 133.8C88.4998 133.8 92.8998 135.5 96.8998 135.8C100.8 136.1 100.4 134.9 100.4 134.9C100.4 134.9 112.2 135.2 118.7 132.7C125.2 130.2 137.8 128.6 146.6 122.8C146.6 122.8 149.3 123.9 151.7 122.3C154.1 120.7 153.4 119.8 153.4 119.8C153.4 119.8 158.1 120.2 160.9 118.3C160.9 118.3 164.3 128.2 167.5 130.9C170.7 133.6 171.4 131.7 171.4 131.7C171.4 131.7 172.7 136.8 173.7 137.5C174.7 138.1 175.3 137.2 175.3 137.2C175.3 137.2 179.1 147.3 182.1 148.8C185.1 150.4 185.9 149.7 185.9 149.7C185.9 149.7 186.9 154 189.2 156.1C189.2 156.1 189 157.2 189.7 157.8C190.4 158.4 183.7 169.5 187.9 176.1H215.8C215.8 176.1 217.1 173.8 217.3 170.2C217.4 166.7 219.5 163.6 220.2 160.8C220.2 160.8 223.2 160.9 223 153.5C223 153.5 224.6 152.4 224.5 146.9C224.4 141.4 223 138.6 221 136.7C221 136.7 224 134.6 218.8 128.4C218.8 128.4 220.5 128.6 220.1 126.4C219.7 124.2 212.9 111.2 213.1 106.6C213.3 102.1 216.1 89.7 211.1 76.3C206.1 63 190.5 56.5 166.6 60.5C142.7 64.5999 102.2 73.2 89.0999 66C75.9999 58.7999 77.0999 30.5999 66.2999 24.1999C55.3998 17.8999 53.0999 14.6 42.5999 18C31.4999 21.8 24.4998 28.5999 24.4998 28.5999Z" fill="#FFF0DD"/>
<path d="M38.3 114.5C38.8 117.8 39.8 120.7 41.7 123.4C41.7 123.4 40.8 144 43.5 142.5C43.5 142.5 44.7 156.5 45.3 157.6C45.9 158.8 46.9 160.8 46 165.6C45.1 170.5 44.7 174.5 46 176.2" stroke="#1B1C1E" stroke-width="1.2604" stroke-miterlimit="10" stroke-linecap="round" stroke-linejoin="round"/>
<path d="M40.7 57C40.7 57 41.1 63.8 40.6 75.1C40.5 78.3 40.3 81.8 40 85.6" stroke="#1B1C1E" stroke-width="1.2604" stroke-miterlimit="10" stroke-linecap="round" stroke-linejoin="round"/>
<mask id="mask1_70_2228" style="mask-type:luminance" maskUnits="userSpaceOnUse" x="40" y="51" width="13" height="20">
<path d="M40.7 70.7C40.9 62 40.7 57 40.7 57C40.7 57 47.1999 55.3 50.3999 52.3C53.4999 49.4 55.5 65.9 40.7 70.7Z" fill="white"/>
</mask>
<g mask="url(#mask1_70_2228)">
<g opacity="0.87">
<path d="M45.8 54.7C45.8 54.8 45.9 54.8999 45.9 54.8999C45.9 54.8999 45.9 54.8 45.8 54.7Z" fill="#080809"/>
<path d="M49 52.6L48.8 52.4C48.9 52.4 48.9 52.5 49 52.6Z" fill="#080809"/>
<path d="M46.8 56.7C46.8 56.8 46.9 56.9 46.9 57.1L46.8 56.7Z" fill="#080809"/>
<path d="M48 57.6L48.1 57.7C48 57.7 48 57.6 48 57.6Z" fill="#080809"/>
<path d="M42.5999 55.5V55.4C42.4999 55.4 42.4999 55.5 42.5999 55.5Z" fill="#080809"/>
<path d="M42.5 56.1C42.5 56.2 42.6 56.3 42.5 56.1V56.1Z" fill="#080809"/>
<path d="M42.2 60.9L42.3 61.2C42.3 61 42.2 60.9 42.2 60.9Z" fill="#080809"/>
<path d="M42.3999 55.1C42.3999 55.2 42.3999 55.3 42.4999 55.4C42.4999 55.3 42.4999 55.2 42.3999 55.1Z" fill="#080809"/>
<path d="M43.7 55.8C44.2 56.7 43.6 55.9 44 56.8C44 56.6 43.9 56.4 44.2 56.9C44.4 57.4 43.9999 56.9 44.3999 57.7V57.4C44.6999 57.7 44.8999 58.4 44.8999 58.3C44.4999 57.2 45.3999 58.6 45.3999 58.3V58.4L45.8 58.8C45.8 58.8 45.8 58.8 45.8 58.9C45.8 58.8 45.7 58.8 45.7 58.7C46 59.2 46.3999 59.4 46.3999 59.3C46.0999 58.7 46.7 58.9 46.5 58.4C46.5 58.6 46.5 58.6 46.3 58.5L45.8999 57.8C45.9999 57.7 46.3 58.4 46.2 57.9C45.6 57 45.9999 58 45.8999 57.9C45.7999 57.7 45.7 57.5 45.7 57.3C45.5 57.4 45.2 57.1 45.6 58.1C45.4 57.9 45.2 57.5 45.2 57.4C45.4 58 44.8 56.9 45 57.5C44.6 56.6 45 56.9 44.8 56.4C45.3 57 45.2 56.2 45.2 56C45.6 56.6 45.8 57.2 46.1 57.5C46.5 57.8 46.0999 57.1 45.8999 56.7C46.1999 56.8 46.6 57.7 46.8 57.6L47 58.1C47.7 58.9 46.9 57.7 47.1 57.8C46.9 57.6 46.8 57.4 46.7 57.5C46.5 57.2 46.5 57 46.5 57C46.3 56.6 46 56.1 46.2 56.2C46.5 56.8 46.5 56.5 46.7 56.7V56.8C46.7 56.6 46.8 56.6 46.8 56.5L46.8999 56.6C46.7999 56.4 46.4 55.7 46.6 55.8C46.8 56.1 47.2 56.8 47.2 56.6C47.5 57 47.4 57.1 47.2 57C47.4 57.1 47.9 57.6 47.8 57.8C48.2 58.3 47.8 57.5 48 57.7C47.9 57.6 47.8 57.4 47.7 57.2C48.2 57.8 48 57.1 47.6 56.7L47.8 57.1C47.4 56.6 47.3 56.2 47 55.9C47.7 56.7 47 55.3 47.5 55.9L47.1 55.5C47.5 55.6 46.9 54.5 47 54.2C47.1 54.5 47.8 55.3 47.5 55.2C47.8 55.2 48.3 56 48.7 56.3C49.1 56.5 48.0999 55.5 47.8999 55.2V55.4C47.1999 54.3 48.5 55.3 48.1 54.5C48.3 54.7 48.2 54.7 48.2 54.8C48.7 55.2 48.2 54.6 48.1 54.4C48.3 54.4 48.6 54.5 49.1 55.1C49.3 55.1 48.8 54.8 48.6 54.5L48.7 54.6L48.2 53.9C48.5 54 48.8999 54.2 49.3999 54.7C49.4999 54.4 48.2 53.4 48.1 53C48.5 53.2 48.5 53.4 48.7 53.7L48.8 53.5C49.4 54.2 49 54 49.7 54.7C49 53.9 49.6 54.3 49.3 53.7L49.2 53.6C48.7 53.1 49.2 53.2 49.2 53.1C49.5 53.4 49.4 53.5 49.5 53.7C49.8 53.8 49.8 53.4 49.2 52.7C49.4 52.7 49.7 52.9 50 53.2C50.3 53.1 49.0999 52.3 49.3999 52.3L49.8999 52.8C50.7999 53.2 49.4999 51.8 50.3999 52.2L49.7 51.7C50 51.9 50.2 51.9 50.5 52.1L50.7 52.4C51.3 52.8 50.2 51.9 50.7 52.1C50.5 51.9 50 51.7 49.7 51.5C49.8 52.2 48.4999 51.8 48.8999 52.7C48.9999 52.8 49.1 52.8 49.2 52.9C49 52.8 49.1 53 48.8 52.7V52.6C48.9 52.8 48 52.2 48 52.3C48.4 52.7 47.5999 52.3 48.3999 53L47.8999 52.6C48.0999 52.9 48.5 53.2 48.6 53.4C48.5 53.4 48.2 53.1 48.1 52.9C47.6 52.9 47.3999 53.2 47.3999 53.7L47.1 53.3C46.9 53.2 47.4 54.1 46.7 53.2C46.9 53.7 46.2 53.2 47 54.2C46.1 53.4 46.4 54 46.3 54.3C47 55.1 46.3 54.7 46.6 55.1C46.1 54.5 46.1999 54.3 45.8999 53.9C46.4999 55.1 44.9 53.5 46 55.3C45.9 55.2 45.9 55.2 45.8 55.1C45.8 55.1 45.4999 54.9 45.3999 54.8C45.5999 55.1 45.8 55.2 45.8 55.4C45.7 55.4 45.4 54.9 45.2 54.7C45.3 55.2 45.2 55.5 45.7 56.2C45.5 56 45.2 55.7 45.2 55.5C45.3 56.2 44.8999 55.5 44.8999 56C44.9999 55.9 44.5 55.2 44.8 55.4C44.1 54.4 44.6 55.8 44.1 55.3L44.3999 56C44.3999 56.2 43.9999 55.5 43.8999 55.3C43.4999 55 43.6 55.5 43.5 55.5C43.4 55.4 43.3999 55.3 43.3999 55.3L43.2 55.4C43.3 55.6 43.4 56 43.6 56.4C43.5 55.8 43.4 55.6 43.7 55.8Z" fill="#080809"/>
<path d="M47.3999 57.8999C47.2999 57.7999 47.2 57.7 47.2 57.7C47.3 57.8 47.2999 57.8999 47.3999 57.8999Z" fill="#080809"/>
<path d="M42 58.3999C42.4 59.4999 42.1 58.1999 42.3 58.3999C42.3 58.5999 42.5 59.2 42.6 59.6C42.3 58.1 42.9 59.7999 43 59.3999C43.2 59.8999 43.1 60 43.2 60.5C43.2 60.1 43.4 59.8 43.1 59C43.3 58.9 43.6 59.0999 43.7 58.8999C43.7 59.2999 44 59.6999 44.1 60.3999C43.9 59.3999 43.9 58.2 43.6 57C44 57.8 44.0999 57.9 44.3999 58.7C44.8999 59.1 44.1 57.9 44.5 58L44.3 57.8999C44.3 57.5999 43.9 56.8 43.7 56.2L43.5 56.3999C43.2 55.7999 43.3999 55.8 43.3999 55.7C43.0999 55 43 55.3 42.8 54.7C43 55.2 42.7999 55.1 42.8999 55.3L42.8 55C42.6 54.7 42.8 55.5 42.7 55.6C42.7 55.5 42.6 55.3999 42.6 55.3999C42.7 55.7999 42.9 56.1999 42.8 56.3999V56.3C43 57.1 42.8999 57.6999 43.3999 58.3999L43 58.3C42.7 57.5 42.2999 56.2 42.3999 56L42.3 55.6C42 55.2 42.2 56.4 42.6 57C43.2 59.1 42.2 57.2 42.3 58.2C42.1 57.6 42.2 57.4 42.1 57C42.1 56.9 42.2 56.9 42.3 57.3C42.4 56.9 41.6 55.6 42 55.7C42.2 55.9 42.1999 56.6 42.3999 56.6L42 55C41.9 55.1 41.8999 55.4 41.8999 55.6C41.6999 56.8 41 56 41 56C40.3 56.4 39.4 56.6999 38.7 56.8999C38.4 57.0999 38.4 57.1 38.2 58.7C38.3 59 38.3999 58.8999 38.3999 59.3999C38.3999 58.7999 38.5 58.5 38.7 58.5C38.7 59.1 38.6 58.7999 38.6 58.8999C38.6 59.1999 38.6 59.3999 38.5 59.3999C38.7 60.2999 39.1 60.0999 39.2 58.8999C39.4 59.4999 39.2 59.8 39.1 60.3C39.7 60.7 40.1 60.6 40.7 60.5C40.5 59.5 40.7 59.8 40.6 59.1L40.7 59.5C40.6 59.3 40.5999 58.5999 40.3999 58.3999C40.7999 59.0999 40.5 57 40.6 56.5L40.7 57C40.8 56.9 40.8999 56.9 40.8999 56.5C41.3999 57.4 40.7 56.7 41.1 58V57.8C41.2 58.3 41.3 59.2 41.3 59.6C41.4 58.7 41.7999 59.8 41.8999 59.1C41.9999 59.7 41.9 60.2 41.8 60.3C41.9 60.3 42 59.8999 42.1 60.3999L41.8999 59.7C42.0999 59.6 42.1 60.4 42.2 60.8C42.8 61 41.8 58.8999 42 58.3999Z" fill="#080809"/>
<path d="M45.9 57.1C45.8 57.1 45.8 57.1 45.8 57.2C45.9 57.2 45.9 57.2 45.9 57.1Z" fill="#080809"/>
<path d="M45.8999 58.8C45.8999 58.9 45.9999 59 45.9999 59C45.9999 58.9 45.8999 58.9 45.8999 58.8Z" fill="#080809"/>
<path d="M46.3 59.7C46.1 59.4 46.2 59.4 46 59C46.1 59.2 45.9 59.3 46.3 59.7Z" fill="#080809"/>
<path d="M50.7 50.9C49.7 50.4 51 51.5 50.6 51.4C50.6 51.3 50.4999 51.3 50.3999 51.2V51.4L50.2 51.3C50.7 51.7 50.8 51.9 51.2 52.3C51.8 52.6 50.6 51.8 51.3 52.1C51.5 52.3 51.9 52.6 52 52.7C51.8 52.4 51.5 52.2 51.2 51.9C51.2 51.8 51.5 52 51.7 52.2C51.5 51.9 50.7 51.3 51 51.3C51.5 51.5 51.7 51.9 51.6 51.6C50.7 51.1 51.8 51.5 51.3 51.1C51.5 51.1 52.0999 51.4 52.3999 51.6C51.6999 51.2 51.2 50.7 51.1 50.5L51.5 51.1L50.7 50.6C51.1 50.8 50.9 50.9 50.7 50.9Z" fill="#080809"/>
<path d="M52 52.6L52.1 52.7C52.1 52.8 52.1 52.7 52 52.6Z" fill="#080809"/>
<path d="M52.5 53.1L52.3 52.9L52.6001 53.2L52.5 53.1Z" fill="#080809"/>
<path d="M51.8999 52.9L51.3999 52.6L51.6999 52.9H51.8999Z" fill="#080809"/>
<path d="M49.3001 55C49.6001 55.2 49.1001 54.7 48.8001 54.4C48.6001 54.4 49.2001 54.8 49.3001 55Z" fill="#080809"/>
<path d="M48.1999 57.1001C48.5999 57.4001 48.2999 56.8 48.3999 56.7C48.0999 56.5 48.0999 56.7001 48.1999 57.1001Z" fill="#080809"/>
<path d="M48.6999 59.4C48.5999 59.2 48.5999 59.1 48.4999 59.1L47.8999 58.1C47.5999 57.8 48.3999 59 48.6999 59.4Z" fill="#080809"/>
<path d="M47.8 60.1L47.7 59.6H47.6C47.4 59.2 47.3 59 47.2 58.6C47.2 59 47.4 59.5 47.8 60.1Z" fill="#080809"/>
<path d="M47.2 58.5C47.3 58.7 47.4 58.8 47.2 58.5V58.5Z" fill="#080809"/>
<path d="M47.2 58.6C47.1 58.4 47.2 58.5 47.2 58.6V58.6Z" fill="#080809"/>
<path d="M47.3999 59.7L47.2 60L47.3999 60.1C47.0999 59.5 47.6999 60.4 47.3999 59.7Z" fill="#080809"/>
<path d="M45.5999 60L45.2999 59.4C45.0999 59.3 45.4999 60.8 44.8999 59.8C45.1999 60.1 45.0999 60.6 45.3999 60.6C45.1999 60.1 45.3999 59.9 45.5999 60Z" fill="#080809"/>
<path d="M44.4999 59.4C44.3999 59.2 44.2999 59.1 44.1999 58.9C44.0999 58.9 44.1999 59.2 44.2999 59.4C44.0999 58.6 44.6999 60 44.4999 59.4Z" fill="#080809"/>
<path d="M43.7999 59.8C43.7999 59.8 43.8999 59.7 43.7999 59.5C43.6999 59.6 43.9999 60.3 44.0999 60.8C44.2999 61.1 43.9999 60.1 43.7999 59.8Z" fill="#080809"/>
<path d="M41.1001 55.4C41.3001 56 41.4001 55.9 41.3001 55.7C41.3001 55.8 41.2001 55.6 41.1001 55.4Z" fill="#080809"/>
<path d="M42.4 60.1001L42.5 60.2L42.3 59.3L42.4 60.1001Z" fill="#080809"/>
<path d="M41.6001 60.8V61.4L41.7001 61.3L41.6001 60.8Z" fill="#080809"/>
<path d="M41.3999 60.7L41.2 60.8L41.3 61C41.4 61.1 41.2999 60.7 41.3999 60.7Z" fill="#080809"/>
<path d="M40.8999 60.9C40.8999 60.8 40.8999 60.9 40.9999 61L41.0999 60.6L40.8999 60.9Z" fill="#080809"/>
</g>
</g>
<path d="M81.3 132.6C81.3 132.6 83.3001 133.8 82.1001 128.5C82.1001 128.5 85.7 128.2 84.4 118.1C84.4 118.1 89.9 115.6 88.5 106.6C87.7 101.6 86.9 102.5 86.9 102.5" stroke="#1B1C1E" stroke-width="1.2604" stroke-miterlimit="10" stroke-linecap="round" stroke-linejoin="round"/>
<path d="M52.9999 176.3C52.9999 176.3 52.0999 170.8 55.1999 165.2" stroke="#1B1C1E" stroke-width="1.2604" stroke-miterlimit="10" stroke-linecap="round" stroke-linejoin="round"/>
<path d="M61.1 176.3C61.1 176.3 60.9 170.7 63.5 165.9" stroke="#1B1C1E" stroke-width="1.2604" stroke-miterlimit="10" stroke-linecap="round" stroke-linejoin="round"/>
<path d="M41.7 176.3C41.7 176.3 39.8 171 42.3 165.2" stroke="#1B1C1E" stroke-width="1.2604" stroke-miterlimit="10" stroke-linecap="round" stroke-linejoin="round"/>
<path d="M160.5 118.4C160.5 118.4 156.2 115.7 156.3 106.2C156.4 96.7 155.8 96.3 155.3 96" stroke="#1B1C1E" stroke-width="1.2604" stroke-miterlimit="10" stroke-linecap="round" stroke-linejoin="round"/>
<path d="M168.5 176.3C168.5 176.3 167.2 168.3 171.1 164.1" stroke="#1B1C1E" stroke-width="1.2604" stroke-miterlimit="10" stroke-linecap="round" stroke-linejoin="round"/>
<path d="M175.1 176.3C175.1 176.3 176.1 169 179.2 165.1" stroke="#1B1C1E" stroke-width="1.2604" stroke-miterlimit="10" stroke-linecap="round" stroke-linejoin="round"/>
<path d="M193.3 176.2C193.3 176.2 192.5 170.2 195.4 165.2" stroke="#1B1C1E" stroke-width="1.2604" stroke-miterlimit="10" stroke-linecap="round" stroke-linejoin="round"/>
<path d="M200.1 176.2C200.1 176.2 201.6 169.1 204.2 166" stroke="#1B1C1E" stroke-width="1.2604" stroke-miterlimit="10" stroke-linecap="round" stroke-linejoin="round"/>
<path d="M181.6 62.3999C181.6 62.3999 186.7 57.9999 186.4 56.7999C186.4 56.7999 192.9 60.0999 192.9 61.1999C192.9 62.2999 188.6 69.6999 188.6 69.6999C188.6 69.6999 182.1 67.5999 181.6 62.3999Z" fill="#FFF0DD"/>
<path d="M174.7 44.8C174.7 44.8 170.4 49.2 172.9 52.5C175.3 55.8 181.1 55.6 181.6 57.6C182.1 59.6 181.4 63.1 185.3 64.3C189.2 65.5 191.2 62.2 192.1 63.3C193.1 64.4 193.9 66.7 197 66.7C200.1 66.7 201.4 64 201.4 64C201.4 64 203 65.8 206 65.2C209 64.6 209.3 60.4 209.3 60.4C209.3 60.4 212.7 61 215.5 59.3C218.3 57.6 217.7 53.2 215.5 52.2C215.5 52.2 219.9 47.4 213.8 45.6C213.8 45.6 216.2 39.6 212.7 35.6C209.2 31.6 204.8 34 204.8 34C204.8 34 207 29.6 202.7 27.9C198.4 26.2 193.9 31.7 193.9 31.7C193.9 31.7 193.3 25.8 188.3 26.9C183.3 28 183.3 33.9 183.3 33.9C183.3 33.9 177.9 30.1 175.7 37.9C175.7 38.1 171 40 174.7 44.8Z" fill="#FFF0DD"/>
<path d="M181.6 57.6C182.1 59.7 181.4 63.1 185.3 64.3C189.2 65.5 191.2 62.2 192.1 63.3C193.1 64.4 193.9 66.7 197 66.7C200.1 66.7 201.4 64 201.4 64" stroke="#1B1C1E" stroke-width="1.2604" stroke-miterlimit="10" stroke-linecap="round" stroke-linejoin="round"/>
<path d="M22.9 19.7C22.9 19.7 19.1 21 19 16.4C18.9 11.8 26.4 9.09998 26.4 9.09998C26.4 9.09998 27.9 4.69998 33.5 1.79998C39.1 -1.10002 41.9 0.89998 41.5 3.79998C41.5 3.79998 46.6 -0.500021 50.2 0.399979C53.7 1.29998 51.8 4.59998 51.8 4.59998C51.8 4.59998 54.5 1.29997 57.4 2.19997C60.3 3.09997 58.7 8.09998 58.7 8.09998C58.7 8.09998 62.8 4.69998 66.5 6.29998C70.2 7.89998 67.6 11.8 67.6 11.8C67.6 11.8 72.7 8.89998 73.2 10.6C73.8 12.4 71.9 13.2 71.9 13.2C71.9 13.2 81.4 18 79.9 24.2C79.9 24.2 82.6 31.2 81.4 31.6C80.2 32.1 82.3 36.2 84.6 42C86.9 47.8 87.9 58.2 86.7 57.6C85.8 57.2 87.2 61.6 87.5 65.9C87.6 67.4 87.6 69 87.2 70.2C85.9 74.8 84.2 80.3 81.9 78C81.9 78 79.2 83.7 75.8 84C72.4 84.2 72.3 81.9 72.3 81.9C72.3 81.9 67.7 82.1 67.5 80.6C67.4 79 64.5 81.7 63 79.7C61.5 77.7 58.7 81.5 58.4 74.3C58.4 74.3 54.4 83 53.8 66.4C53.8 66.4 50.5 66.4 52.1 58C53.7 49.6 55.6 33.5 55.6 33.5C55.6 33.5 50 36.2 49.5 28.5C49.5 28.5 45.8 34.1 42.3 32.2C38.8 30.2 37.8 27.1 37.8 27.1C37.8 27.1 35.4 31.1 32.8 30C30.2 28.9 29.7 25.7 28.9 27.2C28.2 28.6 26.3 29.2 24.8 28.2C23.4 27 22.3 24.5 22.9 19.7Z" fill="#FFF0DD"/>
<path d="M55.7 33.3999C55.7 33.3999 58.2 32.6999 58.3 28.7999" stroke="#1B1C1E" stroke-width="1.2604" stroke-miterlimit="10" stroke-linecap="round" stroke-linejoin="round"/>
<path d="M40 83.9C40 83.9 40.1 86.7 43 86.8C45.9 86.9 47.9 83.9 47.9 83.9C47.9 83.9 48.8 86.1 51.3 86.1C53.8 86.1 54.5 81.8 55.5 83.2C56.5 84.5 59 86 60.7 80.6" stroke="#1B1C1E" stroke-width="1.2604" stroke-miterlimit="10" stroke-linecap="round" stroke-linejoin="round"/>
<path d="M0.799953 38.7C0.799953 37.8 1.49994 36.9999 2.39994 36.8999C4.19994 36.4999 7.29994 36 8.89994 36.2C11.3999 36.5 10.6 45.1 5.29995 46.5C0.999953 47.7 0.599953 41.8 0.799953 38.7Z" fill="#1B1C1E"/>
<path d="M29.5999 58.8C29.5999 58.8 37.0999 57.1 39.2999 48.5" stroke="#1B1C1E" stroke-width="1.2604" stroke-miterlimit="10" stroke-linecap="round" stroke-linejoin="round"/>
<path d="M37.0999 48.4999C37.0999 48.4999 39.4999 47.8999 42.0999 49.1999" stroke="#1B1C1E" stroke-width="1.2604" stroke-miterlimit="10" stroke-linecap="round" stroke-linejoin="round"/>
<path d="M87.5999 65.8C87.6999 67.3 87.6999 68.9 87.2999 70.1C85.9999 74.7 84.2999 80.2 81.9999 77.9C81.9999 77.9 79.2999 83.6 75.8999 83.9C72.4999 84.1 72.3999 81.8 72.3999 81.8C72.3999 81.8 67.7999 82 67.5999 80.5C67.4999 78.9 64.5999 81.6 63.0999 79.6C61.5999 77.6 58.7999 81.4 58.4999 74.2C58.4999 74.2 54.4999 82.9 53.8999 66.3C53.8999 66.3 50.5999 66.3 52.1999 57.9C53.7999 49.5 55.6999 33.4 55.6999 33.4C55.6999 33.4 50.0999 36.1 49.5999 28.4C49.5999 28.4 45.8999 34 42.3999 32.1C38.8999 30.1 37.8999 27 37.8999 27C37.8999 27 35.4999 31 32.8999 29.9C30.2999 28.8 29.7999 25.6 28.9999 27.1C28.2999 28.5 26.3999 29.1 24.8999 28.1" stroke="#1B1C1E" stroke-width="1.2604" stroke-miterlimit="10" stroke-linecap="round" stroke-linejoin="round"/>
<path d="M151.3 122.4C153.7 120.8 153 119.9 153 119.9C153 119.9 157.7 120.3 160.5 118.4C160.5 118.4 163.9 128.3 167.1 131C170.3 133.7 171 131.8 171 131.8C171 131.8 172.3 136.9 173.3 137.6C174.3 138.2 174.9 137.3 174.9 137.3C174.9 137.3 178.7 147.4 181.7 148.9C184.7 150.5 185.5 149.8 185.5 149.8C185.5 149.8 186.5 154.1 188.8 156.2C188.8 156.2 188.6 157.3 189.3 157.9C190 158.5 183.3 169.6 187.5 176.2" stroke="#1B1C1E" stroke-width="1.2604" stroke-miterlimit="10" stroke-linecap="round" stroke-linejoin="round"/>
<mask id="mask2_70_2228" style="mask-type:luminance" maskUnits="userSpaceOnUse" x="81" y="111" width="65" height="25">
<path d="M145.3 123.4C136.6 128.8 124.6 130.3 118.3 132.8C111.8 135.3 100 135 100 135C100 135 100.5 136.2 96.5 135.9C92.6 135.6 88.1 133.9 88.1 133.9C88.1 133.9 89.1999 135.9 86.8999 135.5C84.6999 135.1 81.6 132.9 81.2 132.6C81.5 132.7 83 133.4 82 128.4C82 128.4 85.6 128.1 84.3 118C84.3 118 87.8 116.4 88.5 111.3C91.9 112.9 104.6 118.3 116 117.1C127.3 116 143 117.6 145.3 123.4Z" fill="white"/>
</mask>
<g mask="url(#mask2_70_2228)">
<g opacity="0.7">
<path d="M82.1998 131.6C82.0998 131.7 81.9998 131.7 81.9998 131.7L82.1998 131.6Z" fill="#2C2C2D"/>
<path d="M81.9998 131.7L81.2998 132C81.4998 131.8 81.7998 131.7 81.9998 131.7Z" fill="#2C2C2D"/>
<path d="M84.7998 124.8C84.9998 124.7 85.2998 124.7 85.7998 124.6L84.7998 124.8Z" fill="#2C2C2D"/>
<path d="M89.3999 118.2H90.1999C89.7999 118.3 89.5999 118.2 89.3999 118.2Z" fill="#2C2C2D"/>
<path d="M83.0997 134.3C83.0997 134.4 83.0997 134.5 82.9997 134.6C82.6997 134.6 82.7997 134.5 83.0997 134.3Z" fill="#2C2C2D"/>
<path d="M79.0999 121.7C81.4999 121.8 79.1999 121.5 81.4999 121.6C80.9999 121.7 80.5999 121.8 81.8999 121.8C83.1999 121.8 81.7999 121.6 83.7999 121.6L82.9999 121.7C83.9999 121.8 85.5999 121.7 85.3999 121.8C82.5999 121.8 86.4999 122.3 85.9999 122.4H86.2999L87.5999 122.6C87.6999 122.6 87.6999 122.6 87.6999 122.6C87.4999 122.6 87.3999 122.6 87.1999 122.6C88.5999 122.7 89.4999 122.9 89.1999 123C87.5999 123 88.6999 123.5 87.2999 123.6C87.6999 123.5 87.6999 123.5 87.2999 123.4H85.3999C85.3999 123.6 87.0999 123.4 85.9999 123.6C83.3999 123.6 85.9999 123.4 85.6999 123.3C85.0999 123.3 84.5999 123.4 84.2999 123.5C84.1999 123.3 83.2999 123 85.8999 122.9C85.2999 122.8 84.2999 122.8 83.9999 122.9C85.4999 122.8 82.4999 122.7 83.8999 122.6C81.4999 122.6 82.6999 122.9 81.2999 123.1C83.1999 123.3 81.3999 123.6 80.9999 123.9C82.7999 123.9 84.1999 123.7 85.2999 123.8C86.4999 124 84.3999 124 83.3999 124.2C83.9999 124.4 86.2999 124.2 86.3999 124.5L87.4999 124.3C89.9999 124.4 86.4999 124.4 86.9999 124.6C86.3999 124.6 85.6999 124.6 85.7999 124.5C84.8999 124.5 84.4999 124.6 84.3999 124.7H84.2999C83.0999 124.8 81.7999 124.8 82.3999 125C83.8999 124.9 83.4999 125.1 84.1999 125.1L84.4999 125C83.9999 125.1 84.1999 125.3 83.9999 125.3H84.3999C83.7999 125.4 81.9999 125.5 82.3999 125.6C83.0999 125.6 85.0999 125.3 84.7999 125.5C85.8999 125.4 85.9999 125.3 85.5999 125.2C85.9999 125.3 87.7999 125.3 87.8999 125.2C89.2999 125.2 87.2999 125.4 87.9999 125.4C87.5999 125.4 87.0999 125.4 86.6999 125.5C88.5999 125.4 86.8999 125.8 85.5999 125.9L86.5999 125.7C85.0999 125.8 84.0999 126 83.1999 126C85.5999 126 81.9999 126.5 84.0999 126.5H82.8999C83.6999 126.8 80.8999 127.3 80.3999 127.8C81.0999 127.6 83.6999 127.3 82.7999 127.2C83.2999 127.5 85.3999 127.1 86.6999 127C87.6999 127.1 84.2999 127.4 83.4999 127.5L83.9999 127.3C80.9999 127.8 84.6999 127.9 82.8999 128.5C83.6999 128.4 83.2999 128.4 83.5999 128.3C85.1999 128.2 83.2999 128.5 82.6999 128.7C82.9999 128.8 83.6999 128.9 85.4999 128.5C85.9999 128.6 84.3999 128.7 83.7999 128.9H84.1999L82.0999 129.5C82.6999 129.6 83.7999 129.6 85.5999 129.2C85.2999 129.6 81.3999 130.2 80.7999 130.7C81.7999 130.6 82.1999 130.3 82.8999 130.1L82.7999 130.4C84.7999 129.8 83.7999 129.9 86.1999 129.3C83.7999 130.1 85.5999 129.7 84.0999 130.4H83.8999C82.2999 131 83.4999 131 83.2999 131.2C84.1999 130.8 84.2999 130.6 84.5999 130.4C85.3999 130.3 84.7999 130.9 82.7999 131.9C83.1999 131.9 84.0999 131.8 84.8999 131.3C85.3999 131.5 82.0999 132.7 82.7999 132.8L84.2999 132.1C85.4999 131.7 84.9999 132.1 84.5999 132.5C84.1999 132.9 83.7999 133.4 84.7999 133L83.0999 134.1C83.8999 133.7 84.2999 133.7 84.9999 133.2L85.4999 132.7C86.9999 131.9 84.1999 133.7 85.2999 133.2C84.7999 133.6 83.4999 134.2 82.9999 134.5C83.1999 133.8 82.5999 133.7 82.0999 133.4C81.5999 133.1 81.1999 132.7 81.9999 131.9C82.1999 131.8 82.4999 131.8 82.8999 131.6C82.3999 131.7 82.8999 131.3 81.7999 131.7L81.6999 131.8C82.0999 131.4 79.5999 132 79.5999 131.8C80.8999 131.3 78.8999 131.5 81.1999 130.9L79.6999 131.1C80.4999 130.8 81.6999 130.6 82.0999 130.4C81.8999 130.3 80.9999 130.5 80.3999 130.8C79.2999 130.4 79.4999 129.6 80.0999 128.9L78.9999 129.2C78.3999 129.1 80.8999 128.4 78.0999 128.9C79.1999 128.5 77.1999 128.2 80.0999 127.8C77.1999 127.9 78.7999 127.2 79.1999 126.8C81.6999 126.7 79.8999 126.4 80.9999 126.3C78.9999 126.4 78.9999 126.7 77.6999 126.8C79.1999 126.5 78.5999 126.3 78.2999 126C77.9999 125.8 77.8999 125.6 80.3999 125.4C80.1999 125.4 79.9999 125.4 79.7999 125.4C79.7999 125.3 78.8999 125.3 78.6999 125.2C79.5999 125.1 79.9999 125.3 80.2999 125.1C80.0999 125 78.6999 125.1 78.0999 125C79.1999 124.7 79.6999 124.3 81.6999 124.3C81.1999 124.2 79.9999 124.2 79.5999 124.3C81.1999 123.9 79.2999 123.9 80.2999 123.5C80.1999 123.6 78.1999 123.6 78.9999 123.8C76.0999 123.6 79.4999 123.2 77.9999 122.9L79.7999 122.8C80.0999 122.6 78.3999 122.6 77.6999 122.7C76.5999 122.3 77.6999 122.2 77.6999 121.9C77.4999 121.9 77.0999 121.9 77.1999 121.9V121.5C77.6999 121.5 78.5999 121.4 79.6999 121.5C79.0999 121.5 78.3999 121.5 79.0999 121.7Z" fill="#2C2C2D"/>
<path d="M88 124.6C87.5 124.6 87.3 124.6 87.2 124.5C87.5 124.5 87.8 124.5 88 124.6Z" fill="#2C2C2D"/>
<path d="M83.5998 118.4C86.3998 118.6 83.0998 118.6 83.8998 118.8C84.2998 118.7 85.8998 118.8 86.7998 118.9C83.1998 118.9 87.4998 119.1 86.6998 119.4C87.8998 119.5 88.0998 119.3 89.3998 119.4C88.4998 119.5 87.9998 119.8 85.9998 119.7C85.9998 120 86.6998 120.2 86.2998 120.4C87.0998 120.2 88.2998 120.5 89.9998 120.4C87.6998 120.5 84.7998 120.8 81.9998 121C84.1998 121.1 84.3998 121.2 86.3998 121.2C87.8998 121.6 84.3998 121.2 84.9998 121.6L84.5998 121.4C83.8998 121.5 81.7998 121.5 80.3998 121.5L80.6998 121.1C79.1998 121 79.3998 121.3 78.9998 121.4C77.1998 121.5 77.6998 121.1 76.2998 121.1C77.4998 121.1 77.0998 120.9 77.5998 120.8L76.7998 120.7C75.9998 120.5 77.9998 120.4 77.9998 120.3C77.7998 120.3 77.5998 120.3 77.4998 120.3C78.3998 120.3 79.4998 120.3 79.8998 120.2L79.7998 120.3C81.6998 120.2 82.9998 120 85.0998 120.3L84.4998 119.9C82.3998 119.8 79.0998 119.7 78.8998 120H77.9998C76.7998 119.8 79.6998 119.6 81.4998 119.8C86.5998 119.9 81.6998 119.2 83.8998 119C82.4998 118.9 81.8998 119 80.9998 119C80.7998 119.1 80.7998 119.1 81.9998 119.2C81.1998 119.5 77.5998 118.9 78.0998 119.3C78.7998 119.6 80.2998 119.2 80.4998 119.5H76.5998C76.6998 119.3 77.3998 119.2 77.7998 119C80.3998 118.3 78.2998 117.5 78.2998 117.5L79.7998 113.8C80.3998 113.4 80.1998 113.3 83.9998 113.4C84.7998 113.5 84.3998 113.7 85.6998 113.7C84.2998 113.7 83.4998 113.8 83.5998 114C84.9998 114.1 84.2998 113.9 84.5998 113.9H84.6998C85.3998 113.9 85.8998 113.9 85.8998 113.9C87.9998 114.3 87.4998 114.7 84.8998 114.7C86.2998 115 87.0998 114.7 88.1998 114.7C89.1998 115.4 88.9998 115.9 89.0998 116.5C86.5998 116.4 87.4998 116.5 85.8998 116.4L86.7998 116.5C86.3998 116.4 84.6998 116.4 84.1998 116.3C86.0998 116.8 80.8998 116.5 79.7998 116.7L81.0998 116.8C80.8998 117 80.7998 117.1 80.0998 117.2C82.4998 117.7 80.4998 116.9 83.5998 117.2L83.0998 117.3C84.2998 117.3 86.3998 117.4 87.2998 117.3C85.1998 117.5 88.0998 117.8 86.4998 118.1C87.8998 118.1 88.9998 117.9 89.1998 117.8C89.2998 117.9 88.2998 118.1 89.5998 118.2L87.7998 118.1C87.5998 118.3 89.4998 118.2 90.5998 118.3C90.0998 118.8 84.5998 118.1 83.5998 118.4Z" fill="#2C2C2D"/>
<path d="M84.3998 123.6C84.1998 123.5 84.2998 123.5 84.4998 123.4C84.4998 123.5 84.4998 123.6 84.3998 123.6Z" fill="#2C2C2D"/>
<path d="M90.2998 122.7C89.4998 122.7 89.4998 122.7 88.4998 122.7C88.9998 122.7 88.9998 122.5 90.2998 122.7Z" fill="#2C2C2D"/>
<path d="M92.2998 131.6C92.1998 131.9 91.9998 132.7 91.8998 133.4V133.5L92.2998 131.6L92.1998 131.7C92.1998 131.8 92.0998 131.8 92.0998 131.9C92.0998 132 92.0998 132.1 91.9998 132.2L92.0998 132.1L91.7998 133.5V133.4L91.8998 133.2L92.0998 132.2L92.1998 131.8V131.7L92.2998 131.6Z" fill="#2C2C2D"/>
<path d="M91.7998 132.6C91.6998 132.8 91.5998 133 91.4998 133.2C91.6998 132.4 91.9998 131.7 92.2998 130.9C92.2998 131 91.6998 132.5 91.7998 132.6Z" fill="#2C2C2D"/>
<path d="M90.9998 133.8L90.7998 134.4C90.8998 134.1 90.9998 133.9 90.9998 133.8Z" fill="#2C2C2D"/>
<path d="M91.3999 132.8L91.9999 131.2C91.8999 131.6 91.6999 132 91.5999 132.4L91.3999 132.7C91.1999 133.3 90.9999 133.5 90.8999 133.7L91.2999 132.5C91.3999 132.7 91.2999 133 91.3999 132.8Z" fill="#2C2C2D"/>
<path d="M91.2998 132.7C91.3998 132.5 91.3998 132.4 91.4998 132.2C91.4998 132.4 91.3998 132.5 91.2998 132.7Z" fill="#2C2C2D"/>
<path d="M89.5999 135.5C89.8999 134.9 90.2999 134 90.5999 133.4C90.9999 132.8 89.8998 135.2 90.3998 134.5C90.7998 133.1 90.8998 133.6 91.3998 132.7C90.6998 134.2 90.1999 135.2 89.7999 135.5L90.2999 134.5C90.0999 134.4 89.8999 135.1 89.5999 135.5Z" fill="#2C2C2D"/>
<path d="M90.0998 132.7C89.7998 133.2 89.5998 133.7 89.2998 134.1C89.6998 133.4 89.8998 133.5 90.7998 132.1C90.6998 132.3 90.3998 133 90.1998 133.4C90.6998 132.7 90.9998 132.1 90.4998 133.2C89.6998 134.1 89.5998 134.4 88.9998 134.7C88.7998 135 88.8998 135 88.9998 134.9C88.7998 135.1 88.5998 135.3 88.2998 135.6C89.3998 133.9 89.2998 133.7 90.0998 132.7Z" fill="#2C2C2D"/>
<path d="M89.1998 133.6C89.1998 133.8 88.4998 135.1 87.7998 135.9C87.8998 135.5 88.0998 135 88.1998 134.6C88.3998 134.7 88.3998 135 89.1998 133.6Z" fill="#2C2C2D"/>
<path d="M89.0998 133.5C88.5998 134.2 87.2998 135.6 88.2998 134.2C88.1998 134.5 89.5998 132.4 89.0998 133.5Z" fill="#2C2C2D"/>
<path d="M87.1999 134C87.4999 133.8 87.8999 133.6 88.1999 133.4C89.6999 131.8 88.5999 132.8 89.1999 132C89.5999 131.8 89.0999 132.3 88.3999 133.4C88.4999 133.3 87.8999 134.3 87.5999 134.8C87.9999 134 87.2999 134.6 86.8999 135C86.2999 135.4 85.8999 135.5 87.1999 134Z" fill="#2C2C2D"/>
<path d="M89.0998 132.7L88.4998 133.4L88.8997 132.8L89.0998 132.7Z" fill="#2C2C2D"/>
<path d="M84.8 134.9C83.7 135.6 83.9 135.3 84.3 134.8C84.6 134.3 85.1 133.8 84.6 134C84.5 134.1 84.3 134.2 84.1 134.5L84.2 134.1L83.7 134.4C84.9 133.5 85.3 133 86.2 132.2C87.6 131.4 84.7 133.4 86.2 132.5C86.7 132.1 87.6 131.4 88 131.1C87.4 131.6 86.7 132.2 86 132.7C85.9 132.9 86.6 132.3 87.1 132C86.5 132.6 84.7 134 85.3 133.9C86.4 133.2 86.9 132.5 86.6 133C84.7 134.5 87.1 132.9 86 134C86.5 133.8 87.6 132.9 88.2 132.2C86.8 133.5 85.8 134.8 85.6 135.3C85.9 134.8 86.2 134.4 86.5 133.9L84.8 135.4C85.4 134.5 85.2 134.5 84.8 134.6V134.9Z" fill="#2C2C2D"/>
<path d="M88.0999 131.3C88.1999 131.2 88.2998 131.1 88.3998 131C88.4998 131 88.2999 131.1 88.0999 131.3Z" fill="#2C2C2D"/>
<path d="M88.7998 132.1L89.0998 131.7L89.5998 131.3L88.7998 132.1Z" fill="#2C2C2D"/>
<path d="M89.3998 130.3C89.4998 130.3 88.8998 130.7 88.7998 130.7L89.5998 130.1L89.3998 130.3Z" fill="#2C2C2D"/>
<path d="M88.0998 131L86.9998 131.6L87.7998 131H88.0998Z" fill="#2C2C2D"/>
<path d="M85.7998 128.3C86.5998 128.3 85.0998 128.5 83.9998 128.8C83.6998 128.6 85.2998 128.5 85.7998 128.3Z" fill="#2C2C2D"/>
<path d="M87.4999 125.8C88.4999 125.9 86.9999 126.1 87.0999 126.2C86.2999 126.2 86.6999 126 87.4999 125.8Z" fill="#2C2C2D"/>
<path d="M92.5998 124.7C92.0998 124.7 91.8998 124.8 91.6998 124.7L88.9998 124.9C87.9998 124.8 91.3998 124.7 92.5998 124.7Z" fill="#2C2C2D"/>
<path d="M92.9999 123.7L91.9999 123.9L91.8999 123.8C90.7999 123.8 90.2999 123.9 89.3999 123.9C89.8999 123.8 90.9999 123.7 92.9999 123.7Z" fill="#2C2C2D"/>
<path d="M88.8999 124.1C88.8999 124.1 88.9999 124.1 89.0999 124C89.3999 124 89.7999 124.1 88.8999 124.1Z" fill="#2C2C2D"/>
<path d="M91.5999 123.6L91.8998 123.3L92.3998 123.4C90.7998 123.4 93.3999 123.5 91.5999 123.6Z" fill="#2C2C2D"/>
<path d="M90.1998 121.9L88.5998 121.8C88.1998 121.6 91.7998 121.5 89.1998 121.2C90.1998 121.3 90.9998 121.1 91.4998 121.4C89.9998 121.5 89.7998 121.8 90.1998 121.9Z" fill="#2C2C2D"/>
<path d="M87.7998 121.1C87.2998 121.1 86.9998 121 86.4998 121C86.2998 120.9 87.0998 120.9 87.6998 120.9C85.6998 120.9 89.1998 121.1 87.7998 121.1Z" fill="#2C2C2D"/>
<path d="M87.9999 120.1C87.9999 120.2 87.7999 120.2 87.3999 120.1C87.4999 119.9 89.3999 120.1 90.4999 120C91.3999 120.3 88.8999 120.3 87.9999 120.1Z" fill="#2C2C2D"/>
<path d="M87.6999 118.6L87.9999 118.7L85.8999 118.6H87.6999Z" fill="#2C2C2D"/>
<path d="M88.8999 117.5H90.2999L90.0999 117.7L88.8999 117.5Z" fill="#2C2C2D"/>
<path d="M88.5999 117.3L88.6998 117.1L89.1998 117.2C89.6998 117.3 88.5999 117.2 88.5999 117.3Z" fill="#2C2C2D"/>
<path d="M88.8998 116.7C88.7998 116.7 88.9998 116.7 89.1998 116.8L88.2998 116.9L88.8998 116.7Z" fill="#2C2C2D"/>
<path d="M80.2999 113.1C78.8999 113.1 79.7999 112.9 79.4999 112.9C79.7999 112.9 81.6999 113.1 80.2999 113.1Z" fill="#2C2C2D"/>
</g>
</g>
</svg>
