<svg width="219" height="193" viewBox="0 0 219 193" fill="none" xmlns="http://www.w3.org/2000/svg">
<path d="M185.8 189.6C185.8 189.6 188.7 190.7 167.4 191.5C146.1 192.3 33.5999 192.7 21.9999 191.5C10.3999 190.3 -12.1001 191 17.7999 188.1C47.6999 185.2 78.3999 184.7 108.6 185.2C140.8 185.7 181.7 188.5 185.8 189.6Z" fill="#1B1C1E"/>
<path d="M75.7999 183.1C74.7999 183.1 73.7999 183.1 72.6999 183.1H72.8999L88.8999 166.9C82.7999 168.6 79.6999 166.8 79.6999 166.8L64.3999 183.5C55.6999 184.1 48.0999 185.1 44.9999 185.1C39.1999 185.1 37.8999 188.4 37.8999 188.4H83.8999C83.8999 188.4 83.2999 183.1 75.7999 183.1Z" fill="#FF8080"/>
<mask id="mask0_70_2085" style="mask-type:luminance" maskUnits="userSpaceOnUse" x="37" y="166" width="52" height="23">
<path d="M75.7999 183.1C74.7999 183.1 73.7999 183.1 72.6999 183.1H72.8999L88.8999 166.9C82.7999 168.6 79.6999 166.8 79.6999 166.8L64.3999 183.5C55.6999 184.1 48.0999 185.1 44.9999 185.1C39.1999 185.1 37.8999 188.4 37.8999 188.4H83.8999C83.8999 188.4 83.2999 183.1 75.7999 183.1Z" fill="white"/>
</mask>
<g mask="url(#mask0_70_2085)">
<g opacity="0.78">
<path d="M80.8001 174.9C80.8001 174.8 80.7001 174.8 80.7001 174.7C80.6001 174.7 80.7001 174.8 80.8001 174.9Z" fill="#191212"/>
<path d="M77 178.8L77.2 179C77.1 178.9 77 178.8 77 178.8Z" fill="#191212"/>
<path d="M79.8 173.4C79.8 173.3 79.7 173.2 79.7 173.1L79.8 173.4Z" fill="#191212"/>
<path d="M78.6 173.2C78.6 173.2 78.5 173.2 78.5 173.1C78.5 173.1 78.6 173.1 78.6 173.2Z" fill="#191212"/>
<path d="M84 171C84 170.9 84.1 170.9 84 171V171Z" fill="#191212"/>
<path d="M83.5001 167.1L83.3 166.9C83.4 167 83.4001 167 83.5001 167.1Z" fill="#191212"/>
<path d="M84.6 171.9C84.6 171.8 84.5 171.8 84.5 171.7C84.6 171.8 84.5 171.8 84.6 171.9Z" fill="#191212"/>
<path d="M75.7 180.4C75.7 180.5 75.7 180.5 75.7 180.6C75.8 180.6 75.8 180.5 75.7 180.4Z" fill="#191212"/>
<path d="M83.1 172.3C82.5 171.8 83.2 172.1 82.6 171.7C82.7 171.9 82.7 172 82.4 171.8C82.1 171.5 82.6 171.7 82.1 171.2L82.2 171.5C81.9 171.4 81.6 170.9 81.6 171C82.2 171.7 81.1 171.1 81.1 171.3V171.2L80.6 171.1L80.7 171.2C80.3 171 80 170.9 79.9 171.1C80.2 171.5 79.6 171.6 79.9 172C79.9 171.9 79.9 171.8 80.1 171.8L80.5 172.2C80.4 172.3 80.1 171.8 80.2 172.2C80.8 172.7 80.4 172 80.5 172C80.6 172.2 80.7 172.3 80.7 172.4C80.9 172.2 81.2 172.2 80.7 171.6C80.9 171.7 81.1 171.9 81.1 172C80.9 171.6 81.5 172.2 81.3 171.8C81.8 172.3 81.4 172.3 81.6 172.7C81 172.5 81.2 173.1 81.2 173.3C80.8 172.9 80.5 172.5 80.2 172.4C79.8 172.3 80.3 172.8 80.4 173.1C80.1 173.1 79.7 172.5 79.5 172.7L79.3 172.3C78.6 171.9 79.4 172.6 79.2 172.6C79.4 172.7 79.5 172.8 79.6 172.7C79.8 172.9 79.9 173 79.8 173.1C80.1 173.4 80.4 173.7 80.1 173.7C79.8 173.3 79.7 173.6 79.5 173.5V173.4C79.5 173.6 79.4 173.7 79.4 173.8L79.3 173.7C79.4 173.9 79.8 174.3 79.6 174.3C79.4 174.1 79.1 173.6 79 173.8C78.7 173.6 78.8 173.4 79 173.4C78.8 173.4 78.3 173.1 78.4 173C78 172.7 78.4 173.2 78.2 173.2C78.3 173.3 78.4 173.4 78.5 173.5C78 173.1 78.2 173.7 78.6 174L78.5 173.7C78.9 174 79 174.4 79.2 174.5C78.6 174.1 79.2 175.1 78.7 174.7L79 174.9C78.6 175 79.1 175.8 79 176.2C78.9 176 78.3 175.4 78.6 175.4C78.3 175.6 77.9 174.9 77.5 174.8C77.1 174.8 78 175.4 78.2 175.6V175.4C78.8 176.2 77.6 175.8 77.9 176.4C77.7 176.3 77.8 176.3 77.8 176.2C77.3 176 77.8 176.4 77.9 176.6C77.7 176.7 77.4 176.7 77 176.2C76.8 176.2 77.3 176.4 77.4 176.6L77.3 176.5L77.7 177.1C77.4 177.1 77.1 177 76.6 176.7C76.5 177.1 77.6 177.7 77.6 178C77.3 177.9 77.3 177.7 77.1 177.5L77 177.7C76.5 177.2 76.9 177.3 76.3 176.8C76.8 177.5 76.3 177.2 76.5 177.7H76.6C76.9 178.1 76.5 178.1 76.5 178.3C76.3 178 76.4 177.9 76.3 177.7C76 177.7 75.9 178.2 76.4 178.7C76.3 178.7 75.9 178.7 75.8 178.4C75.5 178.6 76.5 179.1 76.1 179.2L75.7 178.9C74.9 178.7 75.8 179.8 75.1 179.7L75.6 180.1C75.3 180 75.2 180 74.9 179.9L74.8 179.6C74.3 179.4 75.1 180 74.7 179.9C74.9 180 75.3 180.2 75.5 180.3C75.6 179.5 76.8 179.6 76.7 178.6C76.6 178.6 76.5 178.5 76.4 178.4C76.6 178.4 76.5 178.2 76.8 178.5C76.8 178.3 77.5 178.6 77.6 178.6C77.3 178.3 78 178.4 77.3 178L77.7 178.2C77.5 178 77.2 177.8 77.1 177.6C77.2 177.5 77.5 177.7 77.5 177.9C78 177.7 78.3 177.2 78.4 176.7L78.6 177C78.8 177 78.4 176.3 79 176.9C78.9 176.5 79.6 176.6 78.9 176C79.7 176.5 79.6 175.8 79.7 175.5C79 175 79.7 175.2 79.5 174.8C80 175.2 79.8 175.4 80.1 175.7C79.6 174.8 81.2 175.4 80.1 174.3C80.2 174.3 80.2 174.4 80.3 174.4C80.3 174.4 80.6 174.5 80.7 174.5C80.5 174.3 80.3 174.3 80.3 174.1C80.4 174 80.7 174.4 80.9 174.5C80.8 174.1 80.9 173.7 80.4 173.3C80.6 173.4 80.9 173.5 80.9 173.7C80.8 173.1 81.2 173.5 81.2 173C81.1 173.1 81.7 173.5 81.3 173.5C82.1 174 81.6 173 82.1 173L81.7 172.5C81.7 172.3 82.2 172.7 82.2 172.9C82.7 172.9 82.5 172.5 82.7 172.4C82.8 172.4 82.8 172.5 82.8 172.5L83 172.3C82.9 172.2 82.8 171.9 82.5 171.7C83.3 172.1 83.4 172.3 83.1 172.3Z" fill="#191212"/>
<path d="M79.1001 172.6C79.2001 172.7 79.3001 172.7 79.3001 172.7C79.3001 172.6 79.2001 172.6 79.1001 172.6Z" fill="#191212"/>
<path d="M84.4 168.8C83.7 168.2 84.4001 169.1 84.1001 169C84.1001 168.8 83.7001 168.5 83.5001 168.3C84.2001 169.2 83.2001 168.3 83.1001 168.7C82.8001 168.5 82.9001 168.3 82.6001 168C82.7001 168.3 82.6001 168.6 83.1001 169.1C82.9001 169.3 82.6001 169.3 82.5001 169.6C82.5001 169.3 82.0001 169.1 81.7001 168.7C82.1001 169.4 82.4 170.3 82.9 171.2C82.3 170.8 82.3 170.7 81.8 170.3C81.2 170.3 82.2 170.8 81.8 170.9H82.0001C82.1001 171.2 82.5 171.6 82.9 172L83.1001 171.6C83.5001 171.9 83.2 172.1 83.3 172.2C83.7 172.7 83.8001 172.3 84.1001 172.6C83.9001 172.3 84.1001 172.3 84.0001 172.1L84.2001 172.3C84.5001 172.3 84.1001 171.8 84.2001 171.7C84.3001 171.7 84.3 171.8 84.3 171.8C84.1 171.6 83.9 171.3 83.9 171.1V171.2C83.5 170.7 83.5 170.1 82.8 169.9L83.2001 169.7C83.7001 170.2 84.4 170.9 84.3 171.2L84.5001 171.4C84.9001 171.5 84.4 170.7 83.9 170.4C82.8 169.2 84.3001 169.9 84.0001 169.2C84.3001 169.5 84.4001 169.7 84.5001 170C84.5001 170.1 84.4001 170.2 84.2001 169.9C84.1001 170.4 85.3 170.8 84.9 171C84.6 171 84.5 170.3 84.3 170.5L85.1001 171.5C85.2001 171.3 85.2001 171.1 85.2001 170.9C85.2001 169.7 86.1001 169.7 86.1001 169.7C86.9001 168.7 87.6 167.6 88.4 166.6C88.6 166.2 88.7 166.1 87.9 165.2C87.7 165.1 87.6 165.3 87.3 165C87.6 165.4 87.7001 165.6 87.5001 165.8C87.2001 165.5 87.5 165.5 87.4 165.5H87.3C87.2 165.3 87.1001 165.2 87.1001 165.1C86.5001 164.8 86.2001 165.2 86.7001 165.9C86.2001 165.7 86.3001 165.3 86.1001 165C85.4001 165.3 85.1001 165.6 84.6001 166.1C85.2001 166.6 84.9001 166.5 85.2001 166.9L84.9 166.7C85 166.8 85.4001 167.2 85.6001 167.2C84.9001 167.1 86.0001 168.3 86.1001 168.7L85.8 168.4C85.7 168.6 85.7001 168.7 85.7001 169C84.9001 168.7 85.8001 168.7 85.0001 168.1L85.1001 168.3C84.9001 168 84.4 167.5 84.3 167.2C84.5 167.9 83.8 167.4 83.9 168C83.6 167.7 83.6001 167.2 83.6001 167.1C83.5001 167.2 83.6 167.6 83.3 167.3L83.7001 167.7C83.6001 167.9 83.3001 167.3 83.0001 167.1C82.9001 167.4 84.5 168.2 84.4 168.8Z" fill="#191212"/>
<path d="M80.7 172.5C80.8 172.5 80.7999 172.4 80.7999 172.4C80.6999 172.4 80.7 172.5 80.7 172.5Z" fill="#191212"/>
<path d="M80.4999 171.1C80.3999 171 80.3999 171 80.3999 171C80.3999 170.9 80.4999 171 80.4999 171.1Z" fill="#191212"/>
<path d="M80 170.5C80.2 170.6 80.2 170.7 80.4 170.9C80.3 170.7 80.4 170.6 80 170.5Z" fill="#191212"/>
<path d="M69.5 183.9C69.6 184 69.7 184.2 69.8 184.3V184L69.5 183.9Z" fill="#191212"/>
<path d="M70.2001 184H70.5001L70.0001 183.4C69.9001 183.6 70.3001 183.8 70.2001 184Z" fill="#191212"/>
<path d="M70.7 183.6L70.3 183.2L70.5 183.7L70.7 183.6C70.8 183.8 70.9 183.8 71 183.8L70.7 183.5V183.6Z" fill="#191212"/>
<path d="M70.8 183.4L70.7 183.3C70.7 183.4 70.7 183.4 70.8 183.4Z" fill="#191212"/>
<path d="M71.8999 183.6C71.6999 183.5 71.5 183.2 71.3 183.1C71 183.1 71.7 183.6 71.3 183.6C71.1 183.1 71 183.5 70.7 183.4C71.2 183.7 71.5 183.8 71.7 183.7L71.3999 183.5C71.5999 183.4 71.6999 183.6 71.8999 183.6Z" fill="#191212"/>
<path d="M71.8001 182.3L72.1001 182.7C71.9001 182.6 71.7001 182.8 71.3001 182.4C71.3001 182.5 71.5001 182.7 71.6001 182.8C71.3001 182.7 71.1001 182.6 71.4001 182.9C71.9001 182.8 72.0001 183 72.3001 182.8C72.4001 182.9 72.3001 182.9 72.3001 182.9H72.7001C72.2001 182.6 72.3001 182.3 71.8001 182.3Z" fill="#191212"/>
<path d="M72.3999 182.3C72.2999 182.5 72.6999 182.8 72.9999 183L72.8999 182.5C72.7999 182.5 72.6999 182.6 72.3999 182.3Z" fill="#191212"/>
<path d="M72.5 182.1C72.8 182.2 73.3 182.5 72.9 182.1C72.9 182.2 72.3 181.7 72.5 182.1Z" fill="#191212"/>
<path d="M73.7001 181.4L73.2001 181.5C72.6001 181.1 73.1001 181.2 72.9001 181C72.6001 181.1 72.8001 181.2 73.1001 181.6C73.0001 181.6 73.2001 182 73.3001 182.2C73.1001 181.4 74.5001 182.4 73.7001 181.4Z" fill="#191212"/>
<path d="M72.7 181.5L72.8999 181.7L72.8 181.4L72.7 181.5Z" fill="#191212"/>
<path d="M74.7999 181.2C75.5999 181.5 74.6999 180.6 75.0999 180.6C75.0999 180.6 75.1999 180.7 75.1999 180.8L75.2999 180.6L75.4999 180.7C75.0999 180.4 75.0999 180.1 74.7999 179.8C74.2999 179.6 75.1999 180.3 74.6999 180C74.5999 179.8 74.2999 179.6 74.1999 179.5C74.2999 179.7 74.4999 179.9 74.6999 180.2C74.6999 180.3 74.4999 180.1 74.2999 180C74.3999 180.3 74.9999 180.7 74.6999 180.8C74.2999 180.7 74.1999 180.3 74.1999 180.6C74.8999 181 73.9999 180.7 74.2999 181.1C74.0999 181.2 73.5999 181 73.3999 180.8C73.8999 181.2 74.1999 181.6 74.1999 181.8L73.9999 181.2L74.5999 181.6C74.3999 181.3 74.5999 181.2 74.7999 181.2Z" fill="#191212"/>
<path d="M74.1 179.5C74.1 179.5 74.1 179.4 74 179.4C74 179.4 74 179.5 74.1 179.5Z" fill="#191212"/>
<path d="M73.1999 180.7L73.0999 180.6L72.8999 180.5L73.1999 180.7Z" fill="#191212"/>
<path d="M73.8 179.1C73.8 179.1 73.9 179.3 74 179.3L73.8 179.1Z" fill="#191212"/>
<path d="M74.2 179.2L74.6 179.4L74.3999 179.2H74.2Z" fill="#191212"/>
<path d="M77.2 176.2C76.9 176.1 77.3 176.4 77.6 176.7C77.7 176.6 77.2 176.4 77.2 176.2Z" fill="#191212"/>
<path d="M78.3999 173.8C78.0999 173.7 78.3 174.1 78.2 174.2C78.5 174.3 78.4999 174 78.3999 173.8Z" fill="#191212"/>
<path d="M77.8 171.9C77.9 172 77.9 172.1 78 172.1L78.6001 172.8C79.0001 172.8 78.1 172.1 77.8 171.9Z" fill="#191212"/>
<path d="M78.6001 170.8L78.7001 171.2L78.8001 171.1C79.0001 171.4 79.1001 171.5 79.3001 171.7C79.2001 171.5 79.1001 171.2 78.6001 170.8Z" fill="#191212"/>
<path d="M79.3 172C79.1 171.8 79.2 171.9 79.3 172V172Z" fill="#191212"/>
<path d="M79.3 171.8C79.4 172 79.4 172 79.3 171.8V171.8Z" fill="#191212"/>
<path d="M79.0001 171L79.2001 170.7H79.0001C79.3001 171 78.6001 170.6 79.0001 171Z" fill="#191212"/>
<path d="M80.6001 169.8L81.0001 170.1C81.2001 170 80.6001 169 81.3001 169.5C81.0001 169.4 81.0001 169 80.7001 169.1C81.0001 169.5 80.8001 169.8 80.6001 169.8Z" fill="#191212"/>
<path d="M81.7 169.7C81.8 169.8 81.9 169.9 82 169.9C82.1 169.9 82 169.7 81.8 169.5C82.3 170.1 81.4 169.4 81.7 169.7Z" fill="#191212"/>
<path d="M82.4001 168.9C82.4001 169 82.3001 169.1 82.5001 169.1C82.6001 168.9 82.1001 168.6 81.9001 168.3C81.6001 168.2 82.1001 168.8 82.4001 168.9Z" fill="#191212"/>
<path d="M86.2999 170.3C85.9999 170 85.8999 170.2 85.9999 170.3C85.8999 170.2 86.0999 170.2 86.2999 170.3Z" fill="#191212"/>
<path d="M83.4999 167.8H83.3999L83.8999 168.3L83.4999 167.8Z" fill="#191212"/>
</g>
</g>
<path d="M161.9 156.1C161.9 156.1 181.1 167.2 199.3 169.8C210.5 171.4 219 169.8 219 169.8L199.3 156.4C199.3 156.4 180.7 152.8 161.9 156.1Z" fill="#6C5353"/>
<mask id="mask1_70_2085" style="mask-type:luminance" maskUnits="userSpaceOnUse" x="161" y="154" width="58" height="17">
<path d="M161.9 156.1C161.9 156.1 181.1 167.2 199.3 169.8C210.5 171.4 219 169.8 219 169.8L199.3 156.4C199.3 156.4 180.7 152.8 161.9 156.1Z" fill="white"/>
</mask>
<g mask="url(#mask1_70_2085)">
<g opacity="0.78">
<path d="M179.2 155.6C179.2 155.7 179.1 155.8 179.1 155.9C179.1 155.9 179.2 155.8 179.2 155.6Z" fill="#191212"/>
<path d="M187.4 155.9V155.5C187.3 155.7 187.3 155.8 187.4 155.9Z" fill="#191212"/>
<path d="M178.5 158.2C178.4 158.3 178.4 158.4 178.3 158.7L178.5 158.2Z" fill="#191212"/>
<path d="M179.4 159.8C179.4 159.9 179.4 159.9 179.5 160C179.4 159.9 179.4 159.8 179.4 159.8Z" fill="#191212"/>
<path d="M171.2 155.5H171.1V155.6L171.2 155.5Z" fill="#191212"/>
<path d="M190.4 155.6C190.5 155.6 190.5 155.5 190.6 155.4C190.5 155.4 190.4 155.5 190.4 155.6Z" fill="#191212"/>
<path d="M173.9 155.6C174 156.8 173.6 155.7 173.7 156.8C173.8 156.6 174 156.4 174 157C173.9 157.6 173.7 156.9 173.6 157.9L173.8 157.5C174 158 173.8 158.7 173.9 158.7C174.1 157.4 174.6 159.2 174.8 159L174.7 159.1L175 159.7C175 159.7 175 159.7 175 159.8C175 159.7 175 159.7 175 159.6C175.2 160.3 175.4 160.7 175.7 160.5C175.8 159.8 176.6 160.2 176.7 159.6C176.6 159.8 176.5 159.8 176.3 159.6V158.7C176.6 158.7 176.3 159.5 176.6 159C176.5 157.8 176.2 159 176.1 158.9C176.2 158.6 176.2 158.4 176.4 158.2C176 158.2 175.7 157.8 175.5 159C175.4 158.7 175.4 158.2 175.5 158.1C175.3 158.8 175.3 157.4 175.1 158.1C175.1 157 175.6 157.5 175.8 156.8C176.2 157.7 176.6 156.8 176.9 156.6C176.9 157.4 176.7 158.2 176.9 158.6C177.3 159.1 177.3 158.1 177.4 157.6C177.7 157.9 177.5 159 177.9 159L177.7 159.6C178 160.8 177.9 159.1 178.1 159.4C178 159.1 178 158.8 177.8 158.8C177.8 158.4 177.9 158.2 178 158.1H177.9C178 157.5 178 156.9 178.2 157.2C178.1 157.9 178.4 157.7 178.5 158L178.4 158.1C178.6 157.9 178.8 158 178.9 157.8V158C179 157.7 179.1 156.8 179.3 157C179.3 157.4 179.1 158.3 179.3 158.2C179.3 158.7 179 158.8 178.8 158.6C179 158.8 179.2 159.6 178.9 159.7C179 160.4 179.1 159.4 179.3 159.7C179.3 159.5 179.3 159.3 179.3 159.1C179.3 160 179.8 159.2 179.8 158.5L179.6 159C179.6 158.3 179.9 157.8 179.7 157.4C179.9 158.5 180.4 156.8 180.5 157.8L180.4 157.2C180.9 157.5 181.3 156.2 181.8 155.9C181.6 156.3 181.7 157.5 181.3 157.1C181.8 157.3 181.5 158.3 181.7 158.9C182.1 159.3 181.8 157.7 182 157.3L181.7 157.5C182 156 182.7 157.8 183.2 156.8C183.3 157.2 183.1 157 183 157.2C183.3 157.9 183.2 157 183.4 156.7C183.7 156.8 184 157.1 183.9 158C184.2 158.2 183.8 157.4 184 157.2L184.1 157.4L184.3 156.4C184.6 156.7 184.9 157.2 185 158C185.5 157.8 185.1 155.9 185.5 155.6C185.8 156.1 185.5 156.3 185.5 156.7L185.9 156.6C185.8 157.6 185.5 157.1 185.6 158.3C185.8 157.1 186 157.9 186.3 157.1V157C186.4 156.2 186.9 156.7 187.1 156.6C187 157.1 186.8 157.2 186.6 157.4C186.9 157.8 187.5 157.4 187.7 156.3C187.9 156.5 188.2 156.9 188 157.3C188.5 157.4 188.1 155.8 188.6 156.1V156.9C189.2 158 189.5 155.8 190.1 156.8V155.8C190.2 156.2 190.5 156.4 190.5 156.8L190.3 157.1C190.6 157.9 190.5 156.3 190.8 156.9C190.8 156.6 190.5 156 190.5 155.6C189.5 156.2 188.4 154.9 187.5 156C187.5 156.1 187.6 156.2 187.6 156.4C187.5 156.2 187.3 156.4 187.3 155.9V155.8C187 156 186.7 154.9 186.6 154.9C186.5 155.6 186 154.7 186.2 155.8L186 155.1C186 155.5 186 156.1 185.9 156.3C185.7 156.2 185.7 155.8 185.8 155.5C185.1 155.1 184.3 155.3 183.5 155.7L183.7 155.2C183.5 154.9 183.1 156.2 183.2 154.8C182.9 155.4 182.2 154.5 182.3 155.9C182 154.5 181.4 155.3 180.9 155.6C181 156.8 180.5 156 180.4 156.5C180.3 155.6 180.8 155.5 180.8 154.9C180.4 156.4 179.4 153.9 179.2 156.3C179.1 156.2 179.1 156.1 179.1 156C179 156 178.9 155.6 178.8 155.5C178.8 155.9 179 156.1 178.7 156.3C178.5 156.2 178.6 155.5 178.5 155.2C178.2 155.8 177.6 156 177.6 157C177.5 156.7 177.4 156.2 177.5 156C177 156.8 177 155.9 176.4 156.4C176.6 156.4 176.5 155.4 176.8 155.8C176.5 154.4 175.9 156.1 175.5 155.4L175.3 156.3C175 156.5 175 155.6 175.2 155.3C174.7 154.8 174.5 155.3 174.1 155.3C174.1 155.2 174.1 155 174.1 155.1H173.6C173.6 155.3 173.4 155.8 173.4 156.3C173.5 155.6 173.6 155.3 173.9 155.6Z" fill="#191212"/>
<path d="M178.2 159.8C178.1 159.6 178.1 159.5 178.1 159.4C178.1 159.5 178.2 159.7 178.2 159.8Z" fill="#191212"/>
<path d="M168.6 157.8C168.7 159.1 168.9 157.6 169.1 157.9C168.9 158.1 169 158.9 169 159.3C169.2 157.6 169.3 159.6 169.8 159.3C169.8 159.9 169.6 160 169.6 160.6C169.9 160.2 170.3 159.9 170.3 159C170.8 159 171.1 159.3 171.4 159.2C171.1 159.6 171.4 160.2 171.1 161C171.4 159.9 172.1 158.5 172.6 157.1C172.7 158.2 172.7 158.3 172.7 159.2C173.3 159.9 172.8 158.2 173.4 158.5L173.2 158.3C173.4 158 173.4 157 173.5 156.3L172.9 156.5C172.9 155.8 173.3 155.9 173.4 155.7C173.6 154.8 173.1 155.1 173.1 154.4C173 155 172.8 154.8 172.6 155V154.6C172.3 154.2 172.2 155.2 171.9 155.2C171.9 155.1 171.9 155 171.9 154.9C171.8 155.3 171.7 155.9 171.6 156H171.7C171.5 156.9 171 157.5 171.3 158.5L170.7 158.2C170.8 157.2 170.8 155.6 171.2 155.5V155.1C170.9 154.5 170.5 155.9 170.6 156.8C170.4 159.3 169.6 156.9 169.2 157.9C169.2 157.2 169.4 157 169.5 156.5C169.6 156.4 169.7 156.4 169.8 157C170.4 156.6 169.6 154.9 170.3 155.1C170.6 155.4 169.9 156.2 170.4 156.3L170.7 154.4C170.4 154.5 170.1 154.8 169.9 155C168.6 156.2 167.6 155.2 167.6 155.2L161.8 155.8C161.2 156.1 161 156 160.7 157.8C160.8 158.2 161.2 158 161.1 158.6C161.2 157.9 161.4 157.5 161.7 157.6C161.7 158.3 161.4 157.9 161.5 158.1H161.6C161.6 158.4 161.5 158.7 161.4 158.7C161.8 159.7 162.4 159.5 162.7 158.2C163 158.9 162.5 159.2 162.3 159.8C163.3 160.3 164 160.2 165.1 160.3C165.1 159.1 165.2 159.6 165.3 158.7L165.4 159.1C165.4 158.9 165.5 158.1 165.3 157.8C165.9 158.7 166 156.2 166.4 155.7V156.3C166.7 156.2 166.8 156.2 167.1 155.8C167.6 156.9 166.6 156 166.8 157.5L167 157.3C166.9 157.9 166.8 158.9 166.7 159.3C167.2 158.3 167.5 159.7 168 158.9C167.9 159.6 167.4 160.1 167.3 160.2C167.5 160.3 167.8 159.8 167.9 160.4V159.5C168.2 159.4 167.9 160.3 168 160.8C168.7 160.9 167.9 158.3 168.6 157.8Z" fill="#191212"/>
<path d="M176.6 158.1C176.5 158 176.4 158.1 176.3 158.2C176.5 158.2 176.6 158.1 176.6 158.1Z" fill="#191212"/>
<path d="M175 160.9C175 160.5 175.1 160.5 175.1 160C175 160.3 174.7 160.3 175 160.9Z" fill="#191212"/>
<path d="M200.7 159C200.7 158.7 200.9 158.5 200.8 158.3L200.5 158.6L200.7 159Z" fill="#191212"/>
<path d="M200 158.1L199.7 157.8L199.6 159C199.9 158.9 199.6 158.2 200 158.1Z" fill="#191212"/>
<path d="M199.1 158V158.9L199.4 158.2L199.2 158.1C199.2 157.8 199.1 157.7 199 157.6L198.9 158.2C199 158.1 199 157.9 199.1 158Z" fill="#191212"/>
<path d="M197.8 156.6C197.9 156.9 197.8 157.4 197.8 157.7C198.1 158 198 156.7 198.3 157.1C198 157.8 198.5 157.6 198.7 158C198.5 157.2 198.3 156.7 198 156.5V157C197.9 157.2 198 156.9 197.8 156.6Z" fill="#191212"/>
<path d="M196.4 158.1L196.6 157.3C196.7 157.7 197.1 157.6 197.1 158.4C197.2 158.3 197.2 157.9 197.3 157.7C197.4 158.1 197.6 158.4 197.6 157.8C197 157.3 197.1 157.1 196.6 156.9C196.6 156.7 196.7 156.7 196.7 156.8L196.3 156.4C196.4 157.4 196 157.5 196.4 158.1Z" fill="#191212"/>
<path d="M195.8 157.5C196.1 157.4 196.1 156.7 195.9 156.2L195.4 156.9C195.7 156.9 195.9 156.8 195.8 157.5Z" fill="#191212"/>
<path d="M195.5 157.6C195.4 157.2 195.1 156.3 195 157.2C195.3 157 195.2 158.2 195.5 157.6Z" fill="#191212"/>
<path d="M193.5 157L194.1 157.5C194.3 158.5 193.9 157.8 193.8 158.3C194.3 158.5 194.1 158.1 194.4 157.5C194.5 157.6 194.7 157 194.8 156.7C194.1 157.6 193.9 155.1 193.5 157Z" fill="#191212"/>
<path d="M194.6 158L194.7 157.5L194.5 157.9L194.6 158Z" fill="#191212"/>
<path d="M192.2 156C191.8 154.8 191.7 156.7 191.3 156.2C191.3 156.1 191.3 156 191.4 155.9L191.1 156V155.7C191.2 156.4 190.9 156.7 190.8 157.3C191.2 158.1 190.9 156.4 191.2 157.2C191.2 157.5 191.2 158 191.1 158.3C191.3 157.9 191.3 157.5 191.3 157.1C191.5 157 191.5 157.4 191.5 157.7C191.7 157.3 191.6 156.2 192 156.4C192.3 157 192 157.4 192.3 157.1C192 155.9 192.7 157.3 192.8 156.5C193.1 156.7 193.3 157.4 193.3 157.8C193.2 156.9 193.4 156.1 193.6 155.8L193.2 156.6L193 155.5C192.7 156.2 192.5 156.1 192.2 156Z" fill="#191212"/>
<path d="M191.1 158.4C191.1 158.5 191.1 158.5 191 158.6C191 158.6 191.1 158.5 191.1 158.4Z" fill="#191212"/>
<path d="M193.3 158.2L193.2 158.4L193.4 158.7L193.3 158.2Z" fill="#191212"/>
<path d="M190.9 159.2C191 159.2 191 158.9 190.9 158.8L190.8 159.3L190.9 159.2Z" fill="#191212"/>
<path d="M190.6 158.5L190.4 157.9L190.3 158.4L190.6 158.5Z" fill="#191212"/>
<path d="M184.3 158.3C184.5 158.7 184.5 157.9 184.5 157.4C184.1 157.3 184.5 158 184.3 158.3Z" fill="#191212"/>
<path d="M180.3 159.4C180.5 159.9 180.7 159.1 180.9 159.2C180.8 158.8 180.5 159 180.3 159.4Z" fill="#191212"/>
<path d="M178.7 161.9C178.7 161.7 178.8 161.5 178.7 161.4L178.9 160.1C178.6 159.8 178.7 161.4 178.7 161.9Z" fill="#191212"/>
<path d="M176.8 162.2L177.1 161.7H176.9C177 161.2 177 160.9 177.1 160.5C177 160.7 176.7 161.2 176.8 162.2Z" fill="#191212"/>
<path d="M177.4 160.2C177.4 160.2 177.3 160.2 177.3 160.3C177.4 160.4 177.4 160.6 177.4 160.2Z" fill="#191212"/>
<path d="M177.2 160.3C177.2 160.4 177.2 160.4 177.2 160.4C177.3 160.3 177.3 160.3 177.4 160.2C177.3 160.2 177.3 160.1 177.2 160.3Z" fill="#191212"/>
<path d="M176.6 161.5L176.1 161.7L176.3 161.9C176.3 161.2 176.5 162.4 176.6 161.5Z" fill="#191212"/>
<path d="M173.7 160.9L173.6 160.1C173.3 159.9 172.9 161.6 172.6 160.4C172.8 160.9 172.3 161.3 172.7 161.5C173 160.8 173.5 160.7 173.7 160.9Z" fill="#191212"/>
<path d="M172.4 159.8C172.5 159.6 172.4 159.4 172.3 159.2C172.2 159.1 172.1 159.5 172.1 159.8C172.3 158.8 172.3 160.4 172.4 159.8Z" fill="#191212"/>
<path d="M170.9 159.9C171 159.9 171.1 159.8 171 159.6C170.7 159.7 170.8 160.5 170.7 161.1C170.9 161.5 171.1 160.3 170.9 159.9Z" fill="#191212"/>
<path d="M168.4 154.2C168.4 154.9 168.7 154.8 168.7 154.5C168.7 154.6 168.5 154.4 168.4 154.2Z" fill="#191212"/>
<path d="M168.5 159.8V159.9L168.6 158.9L168.5 159.8Z" fill="#191212"/>
<path d="M166.7 160.3L166.4 161L166.8 160.9L166.7 160.3Z" fill="#191212"/>
<path d="M166.3 160.2H166L166.1 160.5C166.3 160.7 166.2 160.2 166.3 160.2Z" fill="#191212"/>
<path d="M165.4 160.3C165.4 160.2 165.5 160.3 165.5 160.5L165.8 160.1L165.4 160.3Z" fill="#191212"/>
</g>
</g>
<path d="M99.3999 156.3L88.8999 166.9C82.7999 168.6 79.6999 166.8 79.6999 166.8L62.3999 154.7C62.3999 154.7 87.5999 149.2 99.3999 156.3Z" fill="#B3B3B3"/>
<path d="M62.6998 60.6C62.6998 60.6 31.5999 84.7 8.59985 82.5C10.3999 53.2 13.9998 18.4 13.9998 18.4C17.1998 -6.10003 52.0999 -4.40003 56.0999 16C59.1999 31.6 62.6998 60.6 62.6998 60.6Z" fill="#6C5353"/>
<path d="M76.9 156.2C16.8 154.2 10.5 135.2 8.10001 118.4C7.20001 112.1 7.60001 98.1 8.60001 82.4C31.6 84.7 62.7 60.5 62.7 60.5C67 63.2 71.3 65.9 75.5 68.6C74.8 68.7 46.2 73.7 40.8 106.2C35.4 139 61.1 153.5 76.9 156.2Z" fill="#B3B3B3"/>
<path d="M14.3999 16.2C14.3999 16.2 4.89995 17.7 0.199951 29.1C0.199951 29.1 12.7 30.1 15.1 30.4C15.1 30.4 16.0999 22.2 14.3999 16.2Z" fill="#FF9F2C"/>
<path d="M0.199951 29.1C0.199951 29.1 10.2 26.6 15.5 27.6" stroke="#343434" stroke-miterlimit="10"/>
<path d="M28.3 23.8999C30.951 23.8999 33.1 21.7509 33.1 19.0999C33.1 16.449 30.951 14.2999 28.3 14.2999C25.649 14.2999 23.5 16.449 23.5 19.0999C23.5 21.7509 25.649 23.8999 28.3 23.8999Z" fill="#21262A"/>
<path d="M96.7001 166.9L80.7001 183.1L70.8 185.1L87.5 166.8C87.5 166.8 90.6001 168.6 96.7001 166.9Z" fill="#FF8080"/>
<path d="M107.2 156.3L96.7 166.9C90.6 168.6 87.5 166.8 87.5 166.8L72 156C72 156 95.4 149.2 107.2 156.3Z" fill="#B3B3B3"/>
<path d="M45.7 188.4H91.7C91.7 188.4 91.1 183.1 83.6 183.1C70.8 183.1 57.3 185.1 52.8 185.1C47 185.1 45.7 188.4 45.7 188.4Z" fill="#FF8080"/>
<path d="M199.3 156.4C199.3 156.4 164.3 155.7 91 156.4C86 156.4 81.3 156.4 76.8 156.2C61 153.5 35.4 139 40.8 106.2C46.2 73.8 74.8 68.8 75.5 68.6C141.2 110.7 199.3 156.4 199.3 156.4Z" fill="#6C5353"/>
<path d="M142.1 113.8C139 121.2 129.7 138.9 107.2 156.2C102 156.2 96.6 156.3 91 156.3C125.4 133.5 133.5 107.7 133.5 107.7C136.5 109.9 139.3 111.9 142.1 113.8Z" fill="#563D3D"/>
<path d="M161.8 128.1C158.1 135.3 151.6 145.4 140.8 156.1C136.4 156.1 131.7 156.1 126.7 156.1C142 142.7 149.9 129.7 153.6 122.1C156.4 124.2 159.2 126.2 161.8 128.1Z" fill="#563D3D"/>
<path d="M40.3999 109.9C40.3999 109.9 40.1 149.1 89.6 143.4C104.5 141.7 88.7 131.8 88.7 131.8C88.7 131.8 102.1 139.6 109.2 135C115.1 131.2 101.9 122.6 101.9 122.6C101.9 122.6 112.4 126.3 118 123.9C123.9 121.4 112.7 113.1 112.7 113.1" stroke="#1B1C1E" stroke-miterlimit="10"/>
</svg>
