<svg width="239" height="181" viewBox="0 0 239 181" fill="none" xmlns="http://www.w3.org/2000/svg">
<path d="M21.3001 176.2C21.3001 176.2 12.8001 178.8 36.0001 179.6C59.2001 180.4 181.6 180.8 194.2 179.6C206.8 178.4 231.3 179.1 198.8 176.2C166.3 173.3 132.8 175 100 173.3C67.1001 171.5 26.2001 173.2 21.3001 176.2Z" fill="#1B1C1E"/>
<path d="M86.9001 136.9C86.9001 136.9 80.7001 139.7 77.7001 138.1C74.7001 136.5 70.0001 137.3 67.4001 138.6C64.8001 139.9 58.1001 134 56.7001 134.9C55.3001 135.7 56.7001 139.4 56.7001 139.4C56.7001 139.4 56.3001 140 51.9001 136.4C47.5001 132.8 42.8001 132.6 43.5001 135.5C43.5001 135.5 42.7001 135.6 39.2001 131.5C35.7001 127.3 32.4001 129.2 33.1001 130.9C33.1001 130.9 26.2001 124.9 23.1001 125C20.0001 125.1 18.9001 126.8 18.9001 126.8C18.9001 126.8 14.0001 124 11.2001 125C8.40009 126 10.7001 128.3 9.10009 128.4C7.50009 128.5 2.70009 128.8 4.10009 131.5C5.50009 134.2 6.9001 134.2 3.9001 135.5C0.900096 136.8 -0.999904 139.7 1.9001 141C4.8001 142.3 4.10009 143.6 3.20009 146.3C2.30009 149 2.90009 150.2 6.20009 151.1C9.50009 151.9 9.5001 152.8 8.3001 153.8C7.1001 154.8 7.30009 156.7 10.1001 157.6C12.9001 158.5 9.30009 162 13.6001 164.5C17.9001 167 22.4001 166.5 21.4001 167.8C20.4001 169.1 21.4001 171.5 24.5001 171.4C27.6001 171.3 29.5001 171.3 30.1001 173.1C30.6001 174.9 34.8001 175.9 37.1001 175.2C39.3001 174.5 38.6001 176.4 42.5001 176.8C46.4001 177.2 48.9001 175 50.6001 176.8C52.3001 178.6 57.7001 176.5 59.8001 177.4C61.9001 178.3 63.6001 180 67.9001 178.7C72.3001 177.4 72.9001 179.9 77.2001 179.7C81.5001 179.5 84.0001 177.4 86.8001 178.3C89.7001 179.2 90.6001 177.9 93.0001 176.6C95.5001 175.3 101.5 176.8 105.2 173.3C109 169.7 102.8 136.4 86.9001 136.9Z" fill="#F6EBEF"/>
<path d="M39.4 175.8C38.7 175.3 38.4001 174.8 37.1001 175.2C34.9001 175.9 30.7001 174.9 30.1001 173.1C29.6001 171.3 27.6 171.3 24.5 171.4C21.4 171.5 20.4 169.1 21.4 167.8C22.4 166.5 17.9 167 13.6 164.5C11.7 163.4 11.3 162 11.3 160.8C11.3 160.8 12.5001 159.7 16.6001 156.2C20.6001 152.7 24.3001 154.8 29.6001 155.1C34.9001 155.4 38 154 42.9 158.4C47.9 162.8 51.8 173.5 39.4 175.8Z" fill="#D4DADD"/>
<mask id="mask0_70_1869" style="mask-type:luminance" maskUnits="userSpaceOnUse" x="0" y="124" width="107" height="56">
<path d="M86.9001 136.9C86.9001 136.9 80.7001 139.7 77.7001 138.1C74.7001 136.5 70.0001 137.3 67.4001 138.6C64.8001 139.9 58.1001 134 56.7001 134.9C55.3001 135.7 56.7001 139.4 56.7001 139.4C56.7001 139.4 56.3001 140 51.9001 136.4C47.5001 132.8 42.8001 132.6 43.5001 135.5C43.5001 135.5 42.7001 135.6 39.2001 131.5C35.7001 127.3 32.4001 129.2 33.1001 130.9C33.1001 130.9 26.2001 124.9 23.1001 125C20.0001 125.1 18.9001 126.8 18.9001 126.8C18.9001 126.8 14.0001 124 11.2001 125C8.40009 126 10.7001 128.3 9.10009 128.4C7.50009 128.5 2.70009 128.8 4.10009 131.5C5.50009 134.2 6.9001 134.2 3.9001 135.5C0.900096 136.8 -0.999904 139.7 1.9001 141C4.8001 142.3 4.10009 143.6 3.20009 146.3C2.30009 149 2.90009 150.2 6.20009 151.1C9.50009 151.9 9.5001 152.8 8.3001 153.8C7.1001 154.8 7.30009 156.7 10.1001 157.6C12.9001 158.5 9.30009 162 13.6001 164.5C17.9001 167 22.4001 166.5 21.4001 167.8C20.4001 169.1 21.4001 171.5 24.5001 171.4C27.6001 171.3 29.5001 171.3 30.1001 173.1C30.6001 174.9 34.8001 175.9 37.1001 175.2C39.3001 174.5 38.6001 176.4 42.5001 176.8C46.4001 177.2 48.9001 175 50.6001 176.8C52.3001 178.6 57.7001 176.5 59.8001 177.4C61.9001 178.3 63.6001 180 67.9001 178.7C72.3001 177.4 72.9001 179.9 77.2001 179.7C81.5001 179.5 84.0001 177.4 86.8001 178.3C89.7001 179.2 90.6001 177.9 93.0001 176.6C95.5001 175.3 101.5 176.8 105.2 173.3C109 169.7 102.8 136.4 86.9001 136.9Z" fill="white"/>
</mask>
<g mask="url(#mask0_70_1869)">
<g opacity="0.61">
<path d="M95.3 163.2C95.2 163.2 95.1 163.2 95 163.3C95 163.3 95.1 163.3 95.3 163.2Z" fill="#353737"/>
<path d="M100.9 171.2L101.2 171C101.1 171 101 171.1 100.9 171.2Z" fill="#353737"/>
<path d="M91.5002 165.6C91.4002 165.6 91.4001 165.7 91.4001 165.8C91.4001 165.7 91.5002 165.6 91.5002 165.6Z" fill="#353737"/>
<path d="M92.2 154.5C92.2 154.4 92.2 154.4 92.2 154.4H92.1C92 154.4 92.1 154.5 92.2 154.5Z" fill="#353737"/>
<path d="M91.7001 154.9L91.6001 154.8C91.7001 154.8 91.7001 154.9 91.7001 154.9Z" fill="#353737"/>
<path d="M93.6002 155C93.5002 155 93.4002 155 93.2002 155C93.3002 155 93.4002 155.1 93.6002 155Z" fill="#353737"/>
<path d="M95.5 163.1C95.4 163.1 95.4 163.2 95.3 163.2C95.4 163.2 95.4 163.2 95.5 163.1Z" fill="#353737"/>
<path d="M103.8 173.6C103.9 173.6 104 173.7 104.1 173.7C104 173.4 103.9 173.4 103.8 173.6Z" fill="#353737"/>
<path d="M92.8001 157.5C91.6001 158 92.6001 157.2 91.5001 157.6C91.8001 157.7 92.1001 157.8 91.5001 158C90.8001 158.1 91.4001 157.6 90.4001 157.9L90.9001 158C90.5001 158.3 89.6001 158.4 89.7001 158.5C91.1001 158.3 89.5001 159.5 89.8001 159.7H89.6001L89.1001 160.4C89.1001 160.4 89.1001 160.4 89.0001 160.4C89.1001 160.4 89.2001 160.4 89.2001 160.3C88.6001 160.7 88.3001 161.2 88.6001 161.5C89.4001 161.3 89.3001 162.5 90.0001 162.3C89.8001 162.2 89.7001 162.1 89.8001 161.9L90.7001 161.5C90.8001 161.8 89.9001 161.9 90.6001 161.9C91.8001 161.3 90.4001 161.5 90.5001 161.2C90.8001 161.2 91.1001 161.2 91.3001 161.2C91.2001 160.8 91.4001 160.2 90.1001 160.4C90.3001 160.2 90.8001 160 91.0001 160.1C90.2001 160.1 91.6001 159.6 90.8001 159.6C92.0001 159.2 91.7001 160 92.4001 160C91.7001 160.8 92.7001 160.9 93.1001 161.2C92.3001 161.6 91.5001 161.7 91.1001 162.1C90.8001 162.8 91.8001 162.3 92.3001 162.3C92.2001 162.7 91.0001 163 91.2001 163.5H90.5001C89.5001 164.4 91.1001 163.5 91.0001 163.9C91.3001 163.7 91.5001 163.5 91.4001 163.3C91.8001 163.1 92.1001 163.1 92.2001 163.2V163.1C92.8001 162.9 93.4001 162.6 93.3001 163.1C92.5001 163.3 92.9001 163.6 92.7001 163.8H92.5001C92.8001 163.9 92.9001 164.2 93.1001 164.2L92.9001 164.3C93.3001 164.3 94.1001 163.9 94.1001 164.2C93.8001 164.4 92.7001 164.6 93.0001 164.8C92.5001 165.1 92.3001 164.8 92.3001 164.5C92.3001 164.8 91.5001 165.4 91.3001 165.2C90.7001 165.7 91.7001 165.3 91.5001 165.6C91.7001 165.5 91.9001 165.4 92.1001 165.3C91.3001 165.8 92.4001 165.9 92.9001 165.6H92.3001C93.0001 165.2 93.6001 165.2 93.9001 164.9C92.9001 165.7 94.9001 165.3 94.1001 166L94.6001 165.6C94.7001 166.4 96.1001 166 96.7001 166.3C96.3001 166.4 95.2001 167.1 95.3001 166.6C95.5001 167.2 94.3001 167.5 93.9001 168.1C93.8001 168.8 95.1001 167.6 95.5001 167.4L95.1001 167.3C96.6001 166.7 95.6001 168.5 96.8001 168.4C96.5001 168.7 96.5001 168.4 96.4001 168.5C96.0001 169.2 96.7001 168.6 97.1001 168.6C97.2001 168.9 97.2001 169.4 96.3001 169.9C96.3001 170.3 96.7001 169.5 97.1001 169.4L97.0001 169.6L98.1001 169.1C98.1001 169.5 97.9001 170.2 97.3001 170.9C97.9001 171.3 99.1001 169.6 99.7001 169.7C99.5001 170.3 99.1001 170.2 98.8001 170.4C98.9001 170.5 99.1001 170.6 99.2001 170.6C98.3001 171.3 98.4001 170.6 97.5001 171.5C98.7001 170.9 98.1001 171.6 99.1001 171.4L99.2001 171.3C100 170.8 99.9001 171.6 100.2 171.7C99.7001 172 99.5001 171.8 99.2001 171.8C99.1001 172.3 100 172.6 101 172C101 172.3 101 172.9 100.5 173C100.9 173.6 101.8 172 102 172.6L101.4 173.2C101.1 174.5 103 173.2 102.8 174.4L103.5 173.6C103.3 174 103.4 174.3 103.2 174.7L102.7 174.8C102.4 175.7 103.5 174.3 103.3 175C103.5 174.7 103.7 174 104 173.7C102.6 173.4 102.7 171.5 101.1 171.4C101 171.5 101 171.7 100.8 171.8C100.9 171.5 100.5 171.6 100.9 171.2H101C100.6 171.2 101.3 170 101.1 169.9C100.5 170.3 100.8 169.2 100.1 170.2L100.5 169.5C100.1 169.8 99.7001 170.2 99.5001 170.3C99.4001 170.1 99.8001 169.7 100.1 169.6C99.9001 168.7 99.1001 168 98.3001 167.6L98.9001 167.4C99.0001 167.1 97.6001 167.5 98.9001 166.7C98.2001 166.8 98.5001 165.6 97.3001 166.5C98.3001 165.4 97.2001 165.3 96.7001 165C95.7001 165.8 96.1001 164.8 95.5001 165C96.3001 164.4 96.6001 164.8 97.2001 164.4C96.4001 164.6 96.4001 164.1 96.3001 163.7C96.2001 163.3 96.1001 163 94.9001 163.6C94.9001 163.5 95.0001 163.4 95.1001 163.4C95.0001 163.3 95.4001 162.9 95.4001 162.8C95.0001 163 94.9001 163.3 94.6001 163.1C94.6001 162.9 95.3001 162.6 95.5001 162.4C94.8001 162.4 94.3001 161.9 93.3001 162.3C93.5001 162.1 94.0001 161.7 94.2001 161.7C93.2001 161.5 94.0001 161.1 93.3001 160.7C93.4001 160.9 94.3001 160.3 94.1001 160.8C95.3001 159.9 93.5001 160 93.9001 159.2L92.9001 159.4C92.6001 159.2 93.5001 158.8 93.8001 158.9C94.2001 158.2 93.5001 158.1 93.4001 157.8C93.5001 157.7 93.7001 157.7 93.7001 157.8L93.5001 157.2C93.3001 157.2 92.7001 157.2 92.2001 157.4C92.7001 157.1 93.1001 157.1 92.8001 157.5Z" fill="#353737"/>
<path d="M90.8 164.2C91 164 91.0001 163.9 91.1001 163.9C90.9001 164 90.8 164.1 90.8 164.2Z" fill="#353737"/>
<path d="M89.3001 151.8C87.9001 152.1 89.6001 152.2 89.2001 152.5C88.9001 152.3 88.1001 152.4 87.7001 152.5C89.6001 152.6 87.4001 153 87.9001 153.6C87.3001 153.7 87.2001 153.4 86.5001 153.5C87.0001 153.8 87.3001 154.3 88.4001 154.2C88.5001 154.8 88.3001 155.3 88.5001 155.6C88.0001 155.3 87.5001 155.8 86.5001 155.6C87.1001 155.7 87.9001 155.9 88.6001 156.1C89.4001 156.3 90.2001 156.5 91.0001 156.6C89.9001 157 89.8001 157.1 88.8001 157.3C88.3001 158.2 89.9001 157.2 89.7001 157.9L89.8001 157.5C90.2001 157.7 91.2001 157.4 92.0001 157.2L91.6001 156.6C92.4001 156.4 92.4001 156.8 92.6001 156.9C93.6001 156.8 93.1001 156.3 93.9001 156.2C93.3001 156.3 93.4001 156 93.1001 155.9L93.5001 155.8C93.8001 155.4 92.8001 155.5 92.7001 155.2C92.8001 155.1 92.9001 155.1 93.0001 155.1C92.5001 155.1 91.9001 155.2 91.7001 155L91.8001 155.1C90.8001 155.1 90.0001 154.6 89.0001 155.2L89.1001 154.4C90.2001 154.3 91.9001 154.1 92.1001 154.4L92.6001 154.3C93.1001 153.9 91.6001 153.6 90.7001 154C88.0001 154.2 90.4001 152.9 89.2001 152.5C89.9001 152.4 90.2001 152.6 90.7001 152.7C90.8001 152.8 90.8001 153 90.2001 153.1C90.7001 153.7 92.4001 152.6 92.3001 153.4C92.0001 153.8 91.1001 153.2 91.1001 153.7H93.1001C93.0001 153.4 92.6001 153.2 92.3001 152.9C91.5001 152.3 91.4001 151.6 91.4001 151.2C91.5001 150.7 91.7001 150.4 91.7001 150.4C91.3001 148.2 91.1001 145.9 91.2001 143.6C91.0001 142.8 91.1001 142.6 89.2001 142C88.8001 142.1 88.9001 142.6 88.2001 142.3C88.9001 142.5 89.3001 142.8 89.2001 143.2C88.5001 143.2 88.9001 142.8 88.7001 142.9L89.0001 143C88.6001 142.9 88.4001 142.8 88.4001 142.7C87.3001 143 87.4001 143.9 88.7001 144.4C87.9001 144.7 87.6001 144 87.1001 143.8C86.7001 144.4 86.6001 145 86.5001 145.6C86.4001 146.2 86.4001 146.7 86.4001 147.4C87.7001 147.4 87.2001 147.5 88.1001 147.7L87.6001 147.8C87.8001 147.7 88.7001 147.9 89.0001 147.7C88.0001 148.5 90.7001 148.6 91.2001 149H90.5001C90.6001 149.4 90.7001 149.5 91.0001 149.8C89.8001 150.5 90.8001 149.3 89.2001 149.5L89.5001 149.7C88.9001 149.6 87.8001 149.6 87.3001 149.4C88.4001 150 87.0001 150.4 87.8001 151.1C87.1001 151.1 86.4001 150.5 86.3001 150.3C86.2001 150.6 86.8001 151 86.1001 151.1H87.0001C87.1001 151.5 86.1001 151.1 85.6001 151.3C85.9001 152.2 88.6001 151 89.3001 151.8Z" fill="#353737"/>
<path d="M91.5 161.6C91.5 161.5 91.4 161.4 91.3 161.3C91.4 161.4 91.4 161.5 91.5 161.6Z" fill="#353737"/>
<path d="M89.1001 160.4C89.0001 160.4 88.9 160.5 88.8 160.5C88.9 160.5 89.0001 160.5 89.1001 160.4Z" fill="#353737"/>
<path d="M87.9001 160.7C88.3001 160.5 88.3002 160.6 88.8002 160.5C88.5002 160.5 88.3001 160.1 87.9001 160.7Z" fill="#353737"/>
<path d="M105.8 177.2L106 178C105.5 179 105.5 178.1 105.1 178.4C105.4 178.9 105.5 178.5 106.2 178.1C106.3 178.2 106.8 177.9 107.1 177.7C106 178.1 107.5 175.8 105.8 177.2Z" fill="#353737"/>
<path d="M106.3 178.8L106.6 178.5L106.1 178.6L106.3 178.8Z" fill="#353737"/>
<path d="M105.3 175.3C105.8 174 104.3 175.5 104.3 174.8C104.4 174.8 104.4 174.7 104.6 174.6L104.2 174.5L104.4 174.3C103.9 174.9 103.4 175 102.9 175.3C102.7 176.2 103.6 174.6 103.4 175.6C103.1 175.8 102.7 176.2 102.5 176.4C102.9 176.2 103.3 175.9 103.6 175.6C103.9 175.7 103.5 176 103.4 176.2C103.9 176 104.6 175.1 104.8 175.5C104.6 176.2 104 176.3 104.6 176.3C105.1 175.1 104.9 176.7 105.5 176.2C105.6 176.6 105.4 177.4 105.1 177.7C105.6 176.9 106.4 176.4 106.7 176.3L105.8 176.7L106.3 175.6C105.5 175.8 105.4 175.6 105.3 175.3Z" fill="#353737"/>
<path d="M102.4 176.3C102.3 176.3 102.3 176.4 102.2 176.4C102.2 176.4 102.3 176.4 102.4 176.3Z" fill="#353737"/>
<path d="M104.8 178L104.5 178.1L104.4 178.5L104.8 178Z" fill="#353737"/>
<path d="M101.7 176.8C101.7 176.9 102 176.6 102 176.5L101.6 176.8H101.7Z" fill="#353737"/>
<path d="M101.9 176L102.1 175.3L101.7 175.7L101.9 176Z" fill="#353737"/>
<path d="M96.4001 170C96.3001 170.5 96.8001 169.9 97.3001 169.6C97.2001 169.1 96.8001 170 96.4001 170Z" fill="#353737"/>
<path d="M92.5001 166.5C92.2001 167 93.0001 166.8 93.2001 167.1C93.4001 166.6 93.0001 166.5 92.5001 166.5Z" fill="#353737"/>
<path d="M89 165.9C89.3 165.8 89.4 165.9 89.4 165.7L90.8 165.3C91 164.6 89.5 165.6 89 165.9Z" fill="#353737"/>
<path d="M87.6001 163.6L88.3001 163.8L88.2001 163.6C88.7001 163.5 89.0001 163.4 89.5001 163.3C89.1001 163.1 88.5001 163.1 87.6001 163.6Z" fill="#353737"/>
<path d="M89.9 163.5L89.8 163.4C89.6 163.5 89.5 163.6 89.9 163.5Z" fill="#353737"/>
<path d="M89.7 163.2C89.6 163.2 89.6 163.2 89.5 163.2C89.6 163.2 89.7 163.3 89.8 163.3C89.9 163.3 89.9 163.2 89.7 163.2Z" fill="#353737"/>
<path d="M88.1001 163L87.7001 162.4L87.6001 162.8C88.3001 162.4 87.2001 163.3 88.1001 163Z" fill="#353737"/>
<path d="M87.3002 159.1L88.1002 158.8C88.1002 158.3 86.2002 158.3 87.5002 157.6C87.1002 157.9 86.5001 157.5 86.4001 158.1C87.1001 158.1 87.4002 158.7 87.3002 159.1Z" fill="#353737"/>
<path d="M88 157.1C88.3 157.1 88.4 157 88.6 156.8C88.7 156.6 88.2 156.6 87.9 156.7C89 156.6 87.3 157.1 88 157.1Z" fill="#353737"/>
<path d="M87.4002 155C87.4002 155.1 87.6002 155.3 87.7002 155.1C87.6002 154.7 86.7002 155 86.1002 154.9C85.7002 155.4 87.0002 155.4 87.4002 155Z" fill="#353737"/>
<path d="M93.1001 151.2C92.4001 151.3 92.5001 151.6 92.8001 151.6C92.6001 151.6 92.8001 151.4 93.1001 151.2Z" fill="#353737"/>
<path d="M87.1 151.9L87 152H88.1L87.1 151.9Z" fill="#353737"/>
<path d="M86.3001 149.5L85.6001 149.3L85.7001 149.7L86.3001 149.5Z" fill="#353737"/>
<path d="M86.5001 149.1L86.4001 148.7L86.1001 148.8C85.9001 149 86.5001 148.9 86.5001 149.1Z" fill="#353737"/>
<path d="M86.3001 147.9C86.4001 148 86.3001 148 86.1001 148L86.6001 148.4L86.3001 147.9Z" fill="#353737"/>
<path d="M91.3002 142.3C92.0002 142.5 91.6002 142.1 91.8002 142C91.6002 142 90.7002 142 91.3002 142.3Z" fill="#353737"/>
</g>
</g>
<path d="M188.6 172.3C188.6 172.3 191.6 171.3 194.1 165.3C196.6 159.3 197.9 158.3 199 153.7C200.1 149.1 201.9 144.7 202.6 138.3C203.3 131.9 206.5 123.2 206.9 120.3C207.3 117.4 177.4 103.5 169.9 115.9C162.5 128.3 182 165 188.6 172.3Z" fill="#F6EBEF"/>
<path d="M202.3 140.9C201.5 145.9 200.1 149.7 199 153.7C198.1 157.3 197.1 158.6 195.6 161.8C195.6 161.8 190.9 158.3 192.3 153.5C193.7 148.8 192.4 151.7 193.9 146C195.4 140.6 202 140.9 202.3 140.9Z" fill="#B3B9BC"/>
<mask id="mask1_70_1869" style="mask-type:luminance" maskUnits="userSpaceOnUse" x="168" y="110" width="39" height="63">
<path d="M188.6 172.3C188.6 172.3 191.6 171.3 194.1 165.3C196.6 159.3 197.9 158.3 199 153.7C200.1 149.1 201.9 144.7 202.6 138.3C203.3 131.9 206.5 123.2 206.9 120.3C207.3 117.4 177.4 103.5 169.9 115.9C162.5 128.3 182 165 188.6 172.3Z" fill="white"/>
</mask>
<g mask="url(#mask1_70_1869)">
<g opacity="0.61">
<path d="M187.4 138.1C187.4 138.2 187.4 138.3 187.5 138.4C187.5 138.4 187.5 138.3 187.4 138.1Z" fill="#353737"/>
<path d="M195.2 133.1L195 132.8C195 132.9 195.1 133 195.2 133.1Z" fill="#353737"/>
<path d="M179.7 141C179.7 140.9 179.7 140.9 179.7 140.9C179.6 140.9 179.6 141 179.7 141Z" fill="#353737"/>
<path d="M179.3 141.9C179.2 141.9 179.2 141.9 179.2 142V142.1C179.3 142.1 179.3 141.9 179.3 141.9Z" fill="#353737"/>
<path d="M179.8 142.2L179.7 142.3C179.7 142.3 179.7 142.3 179.8 142.2Z" fill="#353737"/>
<path d="M177.4 148L177.5 148.4C177.5 148.2 177.5 148.1 177.4 148Z" fill="#353737"/>
<path d="M179.6 140.5C179.6 140.6 179.6 140.7 179.6 140.9C179.6 140.8 179.7 140.7 179.6 140.5Z" fill="#353737"/>
<path d="M187.3 137.9C187.3 138 187.4 138 187.4 138.1C187.4 138 187.4 137.9 187.3 137.9Z" fill="#353737"/>
<path d="M187.4 141C187.5 140.9 187.5 140.9 187.4 141V141Z" fill="#353737"/>
<path d="M197.6 130.6C197.6 130.5 197.7 130.4 197.7 130.3C197.5 130.4 197.5 130.5 197.6 130.6Z" fill="#353737"/>
<path d="M182.1 140.8C182.7 141.8 181.8 141 182.3 142C182.4 141.7 182.4 141.5 182.7 142C182.8 142.6 182.3 142.1 182.7 143L182.8 142.6C183.2 143 183.3 143.7 183.4 143.6C183 142.3 184.3 143.7 184.5 143.4V143.6L185.1 144C185.1 144 185.1 144 185.1 144.1C185.1 144 185 144 185 143.9C185.4 144.4 185.9 144.7 186.1 144.4C185.9 143.7 186.9 143.7 186.7 143.1C186.7 143.3 186.6 143.4 186.3 143.3L185.9 142.5C186.2 142.4 186.3 143.2 186.3 142.6C185.7 141.6 185.9 142.8 185.7 142.8C185.6 142.5 185.6 142.3 185.7 142.1C185.3 142.3 184.8 142.1 185.1 143.3C184.9 143.1 184.7 142.6 184.7 142.5C184.8 143.3 184.2 142 184.2 142.7C183.8 141.7 184.5 141.9 184.4 141.2C185.2 141.8 185.2 140.8 185.5 140.5C185.9 141.2 186 142 186.4 142.3C187 142.6 186.6 141.7 186.5 141.2C186.9 141.3 187.2 142.4 187.7 142.2V142.8C188.5 143.7 187.7 142.3 188 142.4C187.8 142.2 187.6 141.9 187.4 142.1C187.2 141.7 187.2 141.5 187.3 141.4H187.2C187 140.9 186.7 140.3 187.1 140.4C187.3 141.1 187.6 140.7 187.8 141V141.2C187.9 140.9 188.1 140.8 188.2 140.7L188.3 140.9C188.3 140.6 187.9 139.8 188.2 139.8C188.4 140.1 188.6 141.1 188.8 140.8C189 141.3 188.8 141.5 188.5 141.4C188.8 141.4 189.4 142.1 189.1 142.3C189.5 142.8 189.2 141.9 189.5 142.1C189.4 141.9 189.3 141.7 189.2 141.6C189.7 142.4 189.8 141.3 189.4 140.8V141.4C189 140.8 189.1 140.2 188.7 139.9C189.4 140.8 189 139 189.7 139.7L189.3 139.3C190 139.2 189.7 137.9 190 137.3C190 137.7 190.7 138.7 190.2 138.6C190.8 138.5 191 139.5 191.5 139.9C192.1 140 191 138.8 190.9 138.4L190.8 138.8C190.3 137.4 191.9 138.4 191.9 137.3C192.2 137.6 191.9 137.6 191.9 137.7C192.6 138.1 192 137.4 192 137.1C192.3 137 192.8 137.1 193.2 137.9C193.6 137.9 192.8 137.5 192.8 137.2L193 137.3L192.6 136.3C193 136.4 193.6 136.5 194.2 137.1C194.6 136.6 193.1 135.4 193.2 134.8C193.7 135 193.6 135.4 193.8 135.6L194.1 135.3C194.6 136.2 194.1 136 194.8 136.9C194.3 135.8 194.9 136.3 194.8 135.4L194.7 135.3C194.3 134.6 195.1 134.7 195.2 134.4C195.4 134.8 195.2 135.1 195.2 135.3C195.7 135.4 196 134.6 195.5 133.6C195.7 133.6 196.3 133.7 196.4 134.2C197 133.9 195.6 132.9 196.2 132.8L196.7 133.4C197.9 133.8 196.8 131.9 197.9 132.2L197.2 131.5C197.6 131.7 197.9 131.7 198.2 131.9V132.3C198.9 132.7 197.8 131.6 198.5 131.8C198.3 131.6 197.7 131.3 197.4 131.1C197.2 131.7 196.6 132 196.1 132.3C195.6 132.6 195.1 132.9 195 133.6C195.1 133.7 195.2 133.7 195.3 133.9C195 133.8 195 134.2 194.7 133.7V133.6C194.6 134 193.6 133.3 193.5 133.4C193.8 134 192.8 133.6 193.7 134.4L193.1 134C193.3 134.4 193.7 134.8 193.7 135C193.5 135.1 193.2 134.7 193.1 134.4C192.2 134.6 191.6 135.2 191.1 136L190.9 135.4C190.6 135.3 190.9 136.6 190.2 135.4C190.2 136.1 189.1 135.7 189.9 136.9C188.9 135.9 188.8 137 188.4 137.4C189.2 138.3 188.2 137.9 188.4 138.5C187.8 137.8 188.3 137.4 187.9 136.9C188.2 138.4 186.1 136.9 187.1 139C187 139 186.9 138.9 186.9 138.8C186.8 138.9 186.5 138.6 186.3 138.5C186.5 138.9 186.8 138.9 186.6 139.2C186.4 139.2 186.1 138.6 185.9 138.4C185.9 139.1 185.4 139.6 185.8 140.4C185.6 140.2 185.2 139.8 185.2 139.6C185 140.6 184.6 139.8 184.3 140.5C184.5 140.4 183.9 139.6 184.4 139.8C183.5 138.7 183.7 140.5 182.9 140.1L183.1 141C182.9 141.3 182.5 140.5 182.5 140.2C181.8 140 181.8 140.6 181.4 140.7C181.3 140.6 181.3 140.5 181.4 140.5L180.9 140.7C180.9 140.9 180.9 141.4 181.2 141.9C181.7 141 181.7 140.6 182.1 140.8Z" fill="#353737"/>
<path d="M188.4 142.2C188.2 142 188.1 142 188.1 142C188.2 142.1 188.3 142.2 188.4 142.2Z" fill="#353737"/>
<path d="M177.3 145.1C177.9 146.3 177.6 144.8 177.9 145C177.7 145.3 178.1 146 178.3 146.3C177.9 144.6 178.8 146.5 179.2 145.9C179.4 146.4 179.2 146.6 179.4 147.2C179.5 146.7 179.9 146.3 179.6 145.4C180.1 145.2 180.6 145.3 180.8 145.1C180.6 145.6 181.1 146 181.2 146.9C181.1 145.7 181.4 144.1 181.4 142.7C181.9 143.6 182 143.7 182.3 144.6C183.2 145 182.1 143.6 182.7 143.7H182.4C182.5 143.3 182.1 142.4 181.9 141.7L181.3 142.1C181 141.4 181.4 141.4 181.5 141.1C181.3 140.2 180.9 140.7 180.7 140.1C180.9 140.7 180.5 140.6 180.5 140.9L180.3 140.6C179.8 140.4 180.1 141.3 179.8 141.4C179.7 141.3 179.7 141.2 179.7 141.2C179.8 141.6 179.9 142.2 179.8 142.4L179.9 142.3C180 143.2 179.7 144 180.5 144.8H179.7C179.4 143.8 178.9 142.4 179.2 142.1L179.1 141.7C178.6 141.3 178.6 142.8 179.1 143.5C179.8 145.9 178.1 144 178 145.1C177.7 144.5 177.9 144.1 177.8 143.7C177.9 143.6 178 143.5 178.2 144C178.7 143.4 177.3 142.1 178.1 142C178.6 142.2 178.1 143.2 178.6 143L178.2 141.2C177.9 141.4 177.8 141.8 177.6 142.1C176.7 143.8 175.2 143.2 175.2 143.2C174.2 143.7 173.1 144.2 171.9 145C171.3 145.4 170.6 145.9 169.9 146.7C169.7 147 169.5 147.2 169.4 147.5C169.2 147.8 169.1 148.1 169 148.5C168.8 149.2 168.8 150 168.9 150.5C169 150.7 169 150.8 169.1 151C169.2 151.1 169.2 151.2 169.3 151.3C169.4 151.5 169.6 151.6 169.7 151.7C170 151.9 170.5 151.8 171.4 151.5C171.6 151.2 171.3 150.9 171.9 150.7C171.3 150.9 170.8 150.8 170.7 150.3C171.3 150.1 171.1 150.6 171.2 150.5V150.4C171.5 150.3 171.8 150.3 171.8 150.4C172.2 150 172.4 149.9 172.3 149.8C172.3 149.7 172.2 149.7 172 149.6C171.8 149.5 171.6 149.3 171.4 149.1C171.8 149.1 172 149.3 172.2 149.4C172.4 149.6 172.6 149.7 172.9 149.7C173.2 149.7 173.2 149.8 173.5 149.6C173.6 149.5 173.8 149.4 173.9 149.3C174.1 149.2 174.3 149.1 174.5 149C174 147.9 174.3 148.3 174.1 147.5L174.4 147.8C174.3 147.6 174.1 146.8 173.7 146.7C174.7 147.2 173.8 144.9 174.1 144.3L174.3 144.9C174.6 144.6 174.7 144.6 174.9 144.2C175.9 145 174.4 144.6 175.2 145.9L175.3 145.6C175.4 146.2 175.7 147.2 175.7 147.6C175.9 146.5 176.6 147.6 177 146.7C177.2 147.4 176.8 148.1 176.7 148.2C176.9 148.2 177.1 147.6 177.4 148.2L177.1 147.4C177.4 147.2 177.3 148.1 177.7 148.6C178.5 148 176.8 145.8 177.3 145.1Z" fill="#353737"/>
<path d="M186 141.6C185.9 141.6 185.8 141.7 185.8 141.8C185.9 141.8 186 141.7 186 141.6Z" fill="#353737"/>
<path d="M185.1 143.9C185.1 144 185.2 144.1 185.2 144.2C185.2 144.1 185.2 144 185.1 143.9Z" fill="#353737"/>
<path d="M185.5 145.1C185.3 144.8 185.4 144.7 185.2 144.3C185.2 144.5 185 144.6 185.5 145.1Z" fill="#353737"/>
<path d="M207.1 124.6L206.6 124.7L207.4 125.6C207.6 125.2 206.9 124.9 207.1 124.6Z" fill="#353737"/>
<path d="M206 125L205.8 124.8C205.9 124.9 205.9 125 206 125Z" fill="#353737"/>
<path d="M206.4 125.3L207 125.9L206.8 125.2H206.6C206.4 125 206.2 125.1 206.1 125L206.5 125.5C206.3 125.4 206.3 125.3 206.4 125.3Z" fill="#353737"/>
<path d="M206.2 125.6C206.3 125.6 206.3 125.7 206.4 125.7C206.3 125.7 206.2 125.7 206.2 125.6Z" fill="#353737"/>
<path d="M204.4 125.4C204.7 125.5 204.9 125.9 205.2 126.2C205.7 126.1 204.7 125.4 205.2 125.3C205.4 126.1 205.7 125.5 206.2 125.6C205.5 125.2 205 125 204.6 125.2L205 125.5C204.9 125.7 204.7 125.4 204.4 125.4Z" fill="#353737"/>
<path d="M204.2 127.6L203.8 126.9C204.1 127.1 204.4 126.8 205 127.3C205 127.1 204.8 126.9 204.7 126.6C205.1 126.8 205.4 126.9 205 126.4C204.1 126.6 204.1 126.3 203.6 126.6C203.5 126.5 203.5 126.4 203.6 126.4H203C203.8 127.1 203.6 127.5 204.2 127.6Z" fill="#353737"/>
<path d="M203.4 127.7C203.6 127.4 203.1 126.8 202.6 126.6L202.7 127.5C202.8 127.4 202.9 127.1 203.4 127.7Z" fill="#353737"/>
<path d="M203.1 128C202.7 127.8 201.9 127.4 202.4 128.1C202.6 127.8 203.4 128.7 203.1 128Z" fill="#353737"/>
<path d="M201.2 129.2L202 129.1C202.8 129.7 202.1 129.5 202.3 130C202.8 129.8 202.4 129.7 202.2 128.9C202.3 128.8 202.1 128.3 202 128C202 129.1 200.1 127.5 201.2 129.2Z" fill="#353737"/>
<path d="M202.7 129L202.4 128.7L202.5 129.1L202.7 129Z" fill="#353737"/>
<path d="M199.4 129.5C198.3 128.9 199.4 130.5 198.8 130.4C198.8 130.3 198.7 130.3 198.6 130.1L198.5 130.4L198.3 130.2C198.8 130.7 198.8 131.1 199.1 131.6C199.9 131.9 198.6 130.8 199.4 131.2C199.6 131.5 199.9 131.9 200 132.1C199.9 131.7 199.6 131.4 199.4 131C199.5 130.8 199.8 131.1 200 131.3C199.9 130.8 199.1 130.1 199.5 130C200.1 130.3 200.1 130.8 200.2 130.3C199.2 129.7 200.6 130.1 200.2 129.5C200.6 129.4 201.3 129.7 201.5 130.1C200.8 129.5 200.4 128.8 200.4 128.4L200.6 129.3L199.7 128.7C199.9 129.3 199.7 129.4 199.4 129.5Z" fill="#353737"/>
<path d="M200 132.2C200 132.3 200 132.3 200.1 132.4C200.1 132.4 200.1 132.3 200 132.2Z" fill="#353737"/>
<path d="M201.8 130.3L201.9 130.5L202.2 130.6L201.8 130.3Z" fill="#353737"/>
<path d="M200.3 132.9C200.4 132.9 200.1 132.6 200.1 132.6L200.4 133L200.3 132.9Z" fill="#353737"/>
<path d="M199.6 132.7L199.1 132.4L199.3 132.8L199.6 132.7Z" fill="#353737"/>
<path d="M193.7 137.2C194.1 137.3 193.6 136.8 193.4 136.4C193 136.4 193.7 136.8 193.7 137.2Z" fill="#353737"/>
<path d="M190.4 140.6C190.9 140.8 190.7 140.1 190.9 140C190.6 139.8 190.4 140.2 190.4 140.6Z" fill="#353737"/>
<path d="M190 143.8C189.9 143.6 190 143.4 189.8 143.4L189.4 142.2C188.8 142 189.7 143.3 190 143.8Z" fill="#353737"/>
<path d="M188.1 145.1L188.2 144.5L188 144.6C187.8 144.1 187.8 143.9 187.7 143.4C187.5 143.8 187.6 144.4 188.1 145.1Z" fill="#353737"/>
<path d="M187.8 143L187.7 143.1C187.9 143.3 188 143.4 187.8 143Z" fill="#353737"/>
<path d="M187.6 143.3C187.6 143.4 187.6 143.4 187.6 143.5C187.6 143.4 187.7 143.3 187.7 143.3C187.7 143.1 187.6 143 187.6 143.3Z" fill="#353737"/>
<path d="M187.5 144.7L187 145.1L187.3 145.2C187 144.5 187.8 145.5 187.5 144.7Z" fill="#353737"/>
<path d="M184.1 145.7L183.7 145C183.3 145 183.5 146.8 182.8 145.7C183.2 146.1 182.9 146.6 183.4 146.6C183.3 146 183.8 145.6 184.1 145.7Z" fill="#353737"/>
<path d="M182.3 145.3C182.3 145.1 182.1 145 182 144.8C181.8 144.8 181.8 145.2 182 145.4C181.7 144.4 182.4 145.9 182.3 145.3Z" fill="#353737"/>
<path d="M180.6 146.1C180.7 146 180.8 145.9 180.6 145.8C180.3 146 180.7 146.8 180.8 147.3C181.2 147.6 181 146.4 180.6 146.1Z" fill="#353737"/>
<path d="M175.9 141.8C176.2 142.4 176.4 142.2 176.4 142C176.4 142.2 176.1 142 175.9 141.8Z" fill="#353737"/>
<path d="M177.9 147L178.1 147.1L177.8 146.1L177.9 147Z" fill="#353737"/>
<path d="M176.2 148.3V149L176.5 148.7L176.2 148.3Z" fill="#353737"/>
<path d="M175.8 148.3L175.5 148.5L175.7 148.7C175.9 148.7 175.7 148.3 175.8 148.3Z" fill="#353737"/>
<path d="M175 148.8C175 148.7 175.1 148.8 175.1 148.9C175.1 148.7 175.2 148.6 175.2 148.4C175.1 148.5 175 148.6 175 148.8Z" fill="#353737"/>
<path d="M170.1 152.2C169.5 152.4 170 152.6 170 152.8C170.1 152.7 170.7 152 170.1 152.2Z" fill="#353737"/>
</g>
</g>
<path d="M157.6 27.4001C157.6 27.4001 152.1 27.4001 147.2 24.7001C142.3 22.0001 133.3 22.2001 131.2 23.6001C129.2 25.0001 131.2 26.4001 131.2 26.4001C131.2 26.4001 120.7 25.6001 118 28.1001C115.3 30.6001 116.9 31.9001 116.9 31.9001C116.9 31.9001 105.8 33.6001 105.3 36.2001C104.8 38.8001 108.2 37.4001 102.8 40.4001C97.4002 43.4001 87.3002 51.4001 89.1002 53.4001C90.9002 55.4001 90.3002 56.8001 85.3002 60.9001C80.4002 65.0001 81.9002 67.5001 83.5002 67.8001C83.5002 67.8001 77.8002 71.8001 77.7002 76.2001C77.6002 80.6001 79.5002 79.8001 77.7002 83.0001C75.9002 86.2001 71.6002 92.2001 73.0002 95.8001C74.4002 99.3001 77.7002 98.6001 75.5002 102.1C73.3002 105.6 71.6002 110.5 74.0002 113C76.4002 115.6 77.5002 116.1 76.6002 118.7C75.6002 121.3 75.2001 124.9 77.9001 127.7C80.6001 130.5 78.3002 136.8 81.8002 139.5C85.2002 142.2 85.1001 141.5 85.4001 145.6C85.7001 149.7 88.9002 148.9 90.6002 153.4C92.3002 157.9 94.1001 166.4 96.4001 166.2C98.6001 166 102.9 175.6 105.3 177.6C107.7 179.5 187.6 177.6 188.7 177.6C189.8 177.6 190.6 171.7 188.7 167.8C186.8 163.9 186.6 159.8 184 156.4C181.4 153 182.7 145.1 181.6 142.6C181 141.1 181.1 140.4 181.1 140.4C181.1 140.4 185.3 140 188.2 137.3C191.1 134.6 197.9 132.2 200.9 129.2C203.9 126.2 208 126.1 209.3 123C210.7 119.9 210.9 117.8 213.1 117.9C215.3 118 217.5 118 219.2 111.6C220.9 105.2 221.9 109.1 222.7 102.9C223.5 96.7001 227.1 96.9001 226.7 91.4001C226.3 85.9001 224.5 82.3001 225.5 82.5001C226.5 82.7001 227.9 79.8001 225.5 74.1001C223.1 68.5001 222.6 68.6001 222.1 64.6001C221.6 60.6001 217.2 32.6001 197.3 32.5001C177.6 31.9001 157.6 27.4001 157.6 27.4001Z" fill="#F6EBEF"/>
<mask id="mask2_70_1869" style="mask-type:luminance" maskUnits="userSpaceOnUse" x="180" y="41" width="48" height="69">
<path d="M226.9 90.9001C226.5 85.4001 224.7 81.8001 225.7 82.0001C226.7 82.2001 228.1 79.3001 225.7 73.6001C223.3 68.0001 222.8 68.1001 222.3 64.1001C222 61.6001 220.2 49.8001 214 41.2001C205.5 41.2001 197.3 43.2001 190.1 47.9001C175.1 57.9001 178.1 80.9001 191.1 94.9001C199.5 102.8 209.4 107 219.8 109.2C221.2 105.4 222.1 107.8 222.8 102.3C223.7 96.2001 227.3 96.4001 226.9 90.9001Z" fill="white"/>
</mask>
<g mask="url(#mask2_70_1869)">
<g opacity="0.61">
<path d="M218.9 75.5001C218.9 75.4001 218.9 75.3001 218.9 75.2001C218.8 75.2001 218.8 75.3001 218.9 75.5001Z" fill="#353737"/>
<path d="M209.6 77.3C209.5 77.4 209.5 77.4 209.6 77.3V77.3Z" fill="#353737"/>
<path d="M218.7 72.9C218.7 72.8 218.8 72.6 218.8 72.4L218.7 72.9Z" fill="#353737"/>
<path d="M217.3 71.9C217.3 71.8 217.2 71.8 217.2 71.8C217.3 71.8 217.3 71.9 217.3 71.9Z" fill="#353737"/>
<path d="M226.8 71.3001L226.9 71.2001C226.9 71.2001 226.8 71.2001 226.8 71.3001Z" fill="#353737"/>
<path d="M227.2 72.9001C227.2 72.8001 227.2 72.7001 227.1 72.6001C227.1 72.7001 227 72.8001 227.2 72.9001Z" fill="#353737"/>
<path d="M206.1 78C206 78 205.9 78.1 205.8 78.2C206 78.2 206.1 78.2 206.1 78Z" fill="#353737"/>
<path d="M224.5 73C223.9 72.1 224.8 72.8 224.2 71.9C224.2 72.2 224.1 72.4 223.8 71.9C223.6 71.3 224.1 71.8 223.8 71L223.7 71.4C223.3 71.1 223.2 70.3 223.1 70.5C223.5 71.7 222.2 70.4 222.1 70.7V70.6L221.5 70.3C221.5 70.3 221.5 70.3 221.5 70.2C221.5 70.3 221.6 70.3 221.6 70.4C221.2 69.9 220.8 69.7 220.6 69.9C220.8 70.6 219.9 70.5 220 71.1C220 70.9 220.1 70.8 220.4 70.9L220.7 71.7C220.4 71.8 220.3 71 220.3 71.6C220.8 72.6 220.7 71.4 220.9 71.5C221 71.8 221 72 220.9 72.2C221.3 72.1 221.8 72.2 221.5 71.1C221.7 71.3 221.9 71.7 221.9 71.9C221.8 71.2 222.4 72.4 222.3 71.7C222.7 72.7 222 72.5 222.1 73.2C221.4 72.6 221.3 73.5 221 73.9C220.7 73.2 220.6 72.5 220.3 72.1C219.7 71.8 220.1 72.6 220.1 73.2C219.7 73.1 219.5 72 219.1 72.1V71.5C218.4 70.6 219.1 72 218.8 71.9C219 72.1 219.1 72.4 219.3 72.3C219.5 72.7 219.4 72.9 219.3 73H219.4C219.5 73.5 219.7 74.1 219.3 74C219.2 73.3 218.9 73.6 218.7 73.4V73.2C218.6 73.5 218.3 73.5 218.3 73.7L218.2 73.5C218.2 73.8 218.4 74.6 218.1 74.5C218 74.2 217.9 73.2 217.7 73.5C217.6 73 217.8 72.9 218.1 72.9C217.8 72.8 217.4 72.1 217.6 72C217.3 71.4 217.5 72.4 217.2 72.1C217.3 72.3 217.3 72.5 217.4 72.7C217.1 71.9 216.9 72.8 217.1 73.4L217.2 72.9C217.5 73.5 217.3 74.1 217.5 74.4C217 73.4 217 75.1 216.5 74.3L216.8 74.8C216.1 74.7 216.1 76 215.6 76.5C215.7 76.1 215.3 75 215.8 75.2C215.2 75.2 215.3 74.1 214.9 73.6C214.4 73.3 215 74.7 215 75.1L215.2 74.8C215.2 76.2 214.1 74.9 213.7 75.8C213.6 75.5 213.8 75.6 213.8 75.4C213.3 74.8 213.6 75.6 213.5 75.9C213.2 75.9 212.8 75.6 212.7 74.8C212.4 74.7 212.9 75.3 212.8 75.6L212.7 75.4L212.6 76.4C212.3 76.2 211.8 75.8 211.5 75.1C210.9 75.4 211.7 77.1 211.4 77.5C211 77.1 211.3 76.9 211.3 76.5C211.2 76.6 211 76.6 210.9 76.7C210.8 75.7 211.3 76.1 211 75.1C210.9 76.3 210.6 75.5 210.4 76.3V76.4C210.4 77.2 209.8 76.7 209.6 76.9C209.6 76.4 209.9 76.3 210 76.1C209.6 75.8 209 76.3 208.9 77.3C208.7 77.2 208.3 76.8 208.5 76.4C207.9 76.3 208.5 77.9 207.9 77.6L207.8 76.8C207.1 75.8 206.8 77.9 206.2 77L206.3 77.9C206.1 77.5 205.9 77.4 205.8 77L206 76.7C205.7 76 205.8 77.5 205.5 77C205.5 77.3 205.8 77.9 205.8 78.2C206.9 77.5 208.2 78.8 209.3 77.6C209.2 77.5 209.2 77.4 209.2 77.2C209.4 77.4 209.6 77.1 209.6 77.6V77.7C209.9 77.4 210.4 78.5 210.5 78.5C210.5 77.9 211.2 78.6 210.8 77.6L211.1 78.2C211.1 77.8 210.9 77.3 211 77.1C211.2 77.1 211.3 77.6 211.2 77.9C212.1 78.1 213 77.7 213.7 77.2L213.6 77.7C213.9 77.9 214.1 76.7 214.3 77.9C214.6 77.3 215.5 77.9 215.1 76.6C215.7 77.8 216.2 76.8 216.7 76.4C216.2 75.4 217 75.9 217 75.4C217.4 76.2 216.9 76.4 217 77C217.1 75.5 218.9 77.4 218.3 75.2C218.4 75.3 218.4 75.3 218.4 75.4C218.5 75.4 218.8 75.7 218.9 75.7C218.8 75.3 218.5 75.2 218.7 75C218.9 75 219.1 75.6 219.3 75.9C219.5 75.3 220 74.8 219.7 73.9C219.9 74.1 220.2 74.5 220.2 74.7C220.5 73.8 220.8 74.6 221.2 73.9C221 74 221.5 74.8 221 74.6C221.4 75.1 221.6 75 221.8 74.7C222 74.4 222.2 74.1 222.6 74.3L222.4 73.5C222.6 73.2 223 73.9 222.9 74.3C223.6 74.5 223.6 73.9 224 73.7C224.1 73.8 224.1 73.9 224.1 73.9L224.7 73.6C224.7 73.4 224.6 72.9 224.3 72.5C225 72.8 225 73.1 224.5 73Z" fill="#353737"/>
<path d="M218.5 71.4C218.6 71.6 218.7 71.6 218.8 71.7C218.7 71.6 218.6 71.5 218.5 71.4Z" fill="#353737"/>
<path d="M228.6 68.1001C227.8 67.1001 228.4 68.5001 228 68.3001C228.1 68.0001 227.6 67.5001 227.4 67.2001C228.1 68.7001 226.9 67.1001 226.7 67.7001C226.4 67.3001 226.6 67.1001 226.2 66.6001C226.2 67.1001 226 67.5001 226.4 68.3001C226 68.6001 225.5 68.5001 225.3 68.8001C225.4 68.3001 224.9 68.0001 224.7 67.2001C225 68.3001 225 69.8001 225.2 71.2001C224.6 70.4001 224.6 70.3001 224.1 69.5001C223.2 69.2001 224.4 70.4001 223.8 70.4001H224.1C224 70.8001 224.5 71.6001 224.7 72.2001L225.3 71.7001C225.6 72.3001 225.2 72.4001 225.2 72.6001C225.4 73.4001 225.8 72.9001 226.1 73.5001C225.9 73.0001 226.3 73.0001 226.3 72.7001L226.5 73.0001C227 73.1001 226.7 72.2001 226.9 72.1001C227 72.2001 227 72.2001 227.1 72.3001C227 71.9001 226.8 71.4001 226.9 71.2001L226.8 71.3001C226.5 70.4001 226.8 69.6001 225.9 69.0001L226.6 68.9001C227.1 69.7001 227.8 71.0001 227.5 71.4001L227.7 71.8001C228.3 72.1001 228 70.7001 227.4 70.1001C226.4 68.0001 228.3 69.4001 228.1 68.4001C228.5 68.9001 228.4 69.3001 228.6 69.7001C228.5 69.8001 228.4 69.9001 228.1 69.5001C227.7 70.2001 229.4 71.1001 228.6 71.3001C228.1 71.2001 228.4 70.2001 227.9 70.4001L228.5 72.1001C228.8 71.9001 228.9 71.4001 229 71.1001C229.3 70.2001 229.8 69.8001 230.3 69.6001C230.7 69.4001 231.1 69.4001 231.1 69.4001L233.6 67.0001L235.9 64.4001C236.2 63.7001 236.5 63.6001 235.4 62.2001C235 62.1001 234.9 62.5001 234.5 61.9001C234.9 62.4001 235 62.8001 234.7 63.0001C234.2 62.6001 234.7 62.6001 234.5 62.5001H234.4C234.2 62.2001 234.1 62.0001 234.2 62.0001C233.2 61.6001 232.9 62.2001 233.5 63.3001C232.8 63.1001 233 62.4001 232.7 62.0001C231.6 62.4001 231.1 63.0001 230.2 63.7001C230.9 64.6001 230.6 64.3001 230.9 65.0001L230.6 64.7001C230.8 64.8001 231.1 65.5001 231.5 65.5001C230.4 65.2001 231.8 67.1001 231.8 67.8001L231.5 67.3001C231.3 67.6001 231.2 67.7001 231.1 68.2001C229.9 67.7001 231.4 67.7001 230.4 66.7001V67.0001C230.1 66.5001 229.6 65.7001 229.5 65.3001C229.6 66.4001 228.6 65.5001 228.6 66.5001C228.3 65.9001 228.4 65.2001 228.5 65.1001C228.3 65.2001 228.3 65.8001 227.9 65.3001L228.4 66.0001C228.2 66.3001 228 65.4001 227.6 65.0001C226.8 65.7001 228.9 67.2001 228.6 68.1001Z" fill="#353737"/>
<path d="M220.7 72.3001C220.8 72.3001 220.9 72.3001 220.9 72.1001C220.8 72.1001 220.8 72.2001 220.7 72.3001Z" fill="#353737"/>
<path d="M221.6 70.1001C221.6 70.0001 221.5 69.9 221.5 69.8C221.5 69.9 221.5 70.0001 221.6 70.1001Z" fill="#353737"/>
<path d="M221.2 69.1001C221.4 69.4001 221.3 69.5001 221.5 69.9001C221.4 69.6001 221.7 69.4001 221.2 69.1001Z" fill="#353737"/>
<path d="M195.2 73.6001C195 73.8001 194.6 74.0001 194.7 74.2001C194.9 74.1001 195.1 74.0001 195.4 74.0001C195.3 73.9001 195.2 73.8001 195.2 73.6001Z" fill="#353737"/>
<path d="M195.9 74.6L196.2 75L196.6 73.9C196.2 73.9 196.2 74.7 195.9 74.6Z" fill="#353737"/>
<path d="M196.7 75.3L196.6 75.6001C196.7 75.5001 196.7 75.4 196.7 75.3Z" fill="#353737"/>
<path d="M196.8 74.9001L197 74.1001L196.5 74.6001L196.6 74.8001C196.6 75.1001 196.7 75.2001 196.7 75.3001L196.9 74.8001C196.9 74.9001 196.8 75.0001 196.8 74.9001Z" fill="#353737"/>
<path d="M197.8 76.4C197.7 76.1 198 75.7 198 75.4C197.7 75.1 197.6 76.2 197.3 75.8C197.8 75.2 197.2 75.3 197.1 74.8C197.1 75.5 197.2 76.1 197.5 76.3L197.6 75.8C197.8 75.9 197.7 76.2 197.8 76.4Z" fill="#353737"/>
<path d="M199.6 75.4L199.3 76.1C199.3 75.7 198.9 75.7 198.9 75C198.7 75.1 198.7 75.4 198.6 75.6C198.5 75.2 198.5 74.9 198.3 75.4C198.9 76 198.7 76.1 199.2 76.4C199.2 76.6 199.1 76.5 199 76.5L199.3 76.9C199.5 76 199.9 75.9 199.6 75.4Z" fill="#353737"/>
<path d="M200.1 75.9C199.8 75.9 199.6 76.6 199.7 77.1L200.3 76.5C200.2 76.6 200 76.7 200.1 75.9Z" fill="#353737"/>
<path d="M200.5 76.0001C200.6 76.4001 200.8 77.2001 201 76.5001C200.7 76.6001 200.9 75.4001 200.5 76.0001Z" fill="#353737"/>
<path d="M202.6 76.7001L202 76.2001C201.9 75.2001 202.3 75.9001 202.4 75.5001C201.9 75.3001 202.1 75.6001 201.7 76.2001C201.6 76.1001 201.4 76.6001 201.2 76.9001C202 76.1001 202 78.5001 202.6 76.7001Z" fill="#353737"/>
<path d="M201.5 75.7001L201.4 76.1001L201.7 75.8001L201.5 75.7001Z" fill="#353737"/>
<path d="M204 77.7C204.4 78.8 204.6 77 205.1 77.5C205.1 77.6 205.1 77.7 205 77.8L205.3 77.7V78C205.2 77.3 205.5 77 205.6 76.5C205.2 75.8 205.5 77.4 205.1 76.6C205.1 76.3 205.2 75.8 205.2 75.5C205 75.9 205 76.3 205 76.7C204.8 76.8 204.8 76.4 204.8 76.1C204.6 76.5 204.7 77.5 204.3 77.3C204 76.7 204.4 76.3 204 76.6C204.3 77.7 203.6 76.4 203.5 77.2C203.2 77 203 76.3 203 75.9C203 76.8 202.8 77.5 202.6 77.7L203.1 77L203.3 78C203.5 77.5 203.7 77.5 204 77.7Z" fill="#353737"/>
<path d="M205.3 75.4001C205.3 75.3001 205.4 75.3001 205.4 75.2001C205.4 75.2001 205.3 75.3001 205.3 75.4001Z" fill="#353737"/>
<path d="M202.9 75.5001L203 75.3001L202.9 75.1001V75.5001Z" fill="#353737"/>
<path d="M205.5 74.7C205.4 74.7 205.4 75 205.5 75L205.6 74.5L205.5 74.7Z" fill="#353737"/>
<path d="M205.9 75.3L206.1 75.8V75.4L205.9 75.3Z" fill="#353737"/>
<path d="M212.7 74.6001C212.4 74.3001 212.6 75 212.7 75.5C213 75.6 212.5 74.9001 212.7 74.6001Z" fill="#353737"/>
<path d="M216.5 72.5C216.1 72.2 216.1 72.9 215.9 72.9C216.2 73.2 216.4 72.9 216.5 72.5Z" fill="#353737"/>
<path d="M217.3 69.7001C217.3 69.9001 217.3 70.1001 217.5 70.1001L217.8 71.3001C218.2 71.6001 217.5 70.2001 217.3 69.7001Z" fill="#353737"/>
<path d="M219 68.8L218.9 69.3H219.1C219.2 69.8 219.3 70 219.3 70.4C219.4 70.1 219.4 69.6 219 68.8Z" fill="#353737"/>
<path d="M219.1 70.8L219.2 70.7C219.1 70.5 219 70.4 219.1 70.8Z" fill="#353737"/>
<path d="M219.3 70.6C219.3 70.5 219.3 70.5 219.3 70.5C219.3 70.6 219.2 70.7 219.2 70.7C219.3 70.7 219.3 70.8 219.3 70.6Z" fill="#353737"/>
<path d="M219.5 69.3C219.7 69.2 219.8 69.1 219.9 68.9L219.6 68.8C219.9 69.5 219.2 68.5 219.5 69.3Z" fill="#353737"/>
<path d="M222.3 68.5001L222.7 69.1001C223.1 69.1001 222.7 67.5001 223.5 68.4001C223.1 68.1001 223.3 67.5001 222.9 67.6001C223.1 68.2001 222.6 68.5001 222.3 68.5001Z" fill="#353737"/>
<path d="M224 68.8001C224.1 69.0001 224.2 69.1001 224.4 69.2001C224.6 69.2001 224.5 68.8001 224.3 68.6001C224.7 69.5001 223.8 68.2001 224 68.8001Z" fill="#353737"/>
<path d="M225.4 67.8001C225.3 67.9001 225.2 68.0001 225.5 68.1001C225.7 67.9001 225.2 67.2001 225.1 66.7001C224.6 66.5001 225 67.5001 225.4 67.8001Z" fill="#353737"/>
</g>
</g>
<path d="M156.4 48.1001C146.6 56.8001 144 59.7001 130.8 56.4001C117.6 53.2001 116.7 57.4001 106.4 53.3001C96.1001 49.3001 98.5001 43.2001 98.5001 43.2001C100.1 42.1001 101.7 41.1001 102.9 40.3001C108.3 37.3001 104.9 38.7001 105.4 36.1001C105.8 33.5001 117 31.8001 117 31.8001C117 31.8001 115.4 30.5001 118.1 28.0001C120.8 25.5001 131.3 26.3001 131.3 26.3001C131.3 26.3001 129.3 24.9001 131.3 23.5001C133.3 22.1001 142.3 21.9001 147.3 24.6001C152.2 27.3001 157.7 27.3001 157.7 27.3001C157.7 27.3001 159 27.6001 161.3 28.0001C164.8 34.9001 162.2 42.9001 156.4 48.1001Z" fill="#D4DADD"/>
<path d="M159.7 177.9C159.7 177.9 161.9 176.7 161.3 172.7C160.7 168.7 155.5 165.9 148.1 163.9C140.7 161.8 132.7 163.4 130.7 165.7" stroke="#1B1C1E" stroke-miterlimit="10"/>
<path d="M155.5 177.9C155.5 177.9 157.1 173.9 154.4 171.7" stroke="#1B1C1E" stroke-miterlimit="10"/>
<path d="M148.6 177.9C148.6 177.9 149.6 174.4 147 172.8" stroke="#1B1C1E" stroke-miterlimit="10"/>
<path d="M183.7 177.4C183.7 177.4 184.8 172.4 181.3 169.7" stroke="#1B1C1E" stroke-miterlimit="10"/>
<path d="M176.1 177.6C176.1 177.6 176 174.7 172.9 172.8" stroke="#1B1C1E" stroke-miterlimit="10"/>
<path d="M181.3 140C181.3 140 181.2 137.8 181.3 136.2C181.4 134.6 181.4 133.6 180.3 130.7C179.2 127.8 179.2 125.6 179.2 125.6" stroke="#1B1C1E" stroke-miterlimit="10"/>
<path d="M140.8 100.4C139.5 101.5 138.8 102.6 138 106.6C137.2 110.6 137.9 112.9 142.4 114.6C146.9 116.3 150.7 110.8 149.9 107.5C149.1 104.2 145.8 96.1001 140.8 100.4Z" fill="#D4DADD"/>
<path d="M103.9 78.8C101.7 80.1 98.6001 82.7 98.6001 87.8C98.6001 92.9 97.3001 98.4 102.3 102.6C107.3 106.8 114.5 108.9 120.6 107.1C126.7 105.3 127.5 100.7 131.2 96.8C134.9 92.9 135.7 86 131.2 80.7C126.7 75.4 121.9 74.8 116.4 75.1C110.9 75.4 106.7 77.1 103.9 78.8Z" fill="#B3B9BC"/>
<path d="M176.9 9.70004C176.9 9.70004 167.1 1.70005 158.4 2.30005C149.7 2.90005 159.4 19.3 159.4 19.3C159.4 19.3 152.4 23.1 152.2 26C152 28.9 155.7 27.4 156.2 28.6C156.6 29.8001 152.4 32.5 151.2 35.7C149.9 38.9 153 39.8 153 40.4C153 41 148.8 47 150.2 51.2C151.6 55.4 154.9 52 155.3 53.4C155.7 54.8 155 60.2 157.3 61.6C159.7 63 161.1 60.5 161.5 61.6C161.9 62.7 163.4 67.7 165.7 68.7C167.9 69.7 168.7 67.2 168.8 67.7C168.9 68.2 170.8 72.1 172.8 72.5C174.8 72.9 176.3 71.1001 176.9 71.6001C177.5 72.1001 187 76 194.5 76.7C202 77.4 210.5 71 212.8 71.2C215.2 71.4 215.5 72.9 217.9 72.9C220.4 72.9 221.8 68.4 223.1 68.8C224.4 69.2001 226.7 69 228.6 65.2C230.4 61.3 230.4 59.3 231.8 60C233.2 60.6 234.6 58.6 235 55.6C235.4 52.6 235 50.5 235 50.5C235 50.5 237.2 51 238.1 49C239 47 237.1 40.1 237.1 40.1C237.1 40.1 239.4 39.6 238.3 35.4C237.2 31.2 235.2 26.9 235.2 26.9C235.2 26.9 237.3 26.3 236.4 23C235.5 19.7 229.8 15.4 229.8 15.4C229.8 15.4 234.7 7.00004 231.6 2.10004C228.5 -2.69996 216.1 4.70004 212 8.00004C212 8.00004 211.1 5.10005 209.2 5.30005C207.3 5.50005 206.3 7.10005 206.1 6.30005C205.9 5.40005 204.9 3.80005 203.1 3.80005C201.5 3.80005 200.3 5.30005 200.3 5.30005C200.3 5.30005 199.2 2.10004 197.1 1.90004C193.9 1.60004 192.3 5.00004 192.3 5.00004C192.3 5.00004 189.1 2.30004 186.7 3.20004C184.3 4.10004 183.9 6.60004 183.9 6.60004C183.9 6.60004 182.3 3.40004 180 4.00004C177.9 4.80004 177.4 7.80004 176.9 9.70004Z" fill="#F6EBEF"/>
<path d="M194.7 41.9001C194.7 41.9001 190.9 39.8001 190.9 37.6001C190.9 35.4001 192.6 35.5001 195.1 35.5001C197.6 35.5001 199 36.0001 198.5 38.4001C198.1 40.0001 194.7 41.9001 194.7 41.9001Z" fill="#1B1C1E" stroke="#1B1C1E" stroke-miterlimit="10"/>
<path d="M198.4 52C194 53.6 191.7 52 191.7 52C194.5 48.6 194.7 43.7 194.7 42.3C194.8 43.7 195.2 48.2 198.4 52Z" fill="#B3B9BC" stroke="#1B1C1E" stroke-miterlimit="10"/>
<path d="M198.4 52C198.9 52.6 199.5 53.3 200.2 53.8C205.9 58.6 212 57.4 214.3 54.3" stroke="#1B1C1E" stroke-miterlimit="10"/>
<path d="M194.7 41.9C194.7 41.9 194.7 42 194.7 42.3" stroke="#1B1C1E" stroke-miterlimit="10"/>
<path d="M176.1 53.4001C177.9 56.9001 185.7 57.3001 190.4 53.4001C190.9 53.0001 191.3 52.6001 191.7 52.1001" stroke="#1B1C1E" stroke-miterlimit="10"/>
<path d="M172.2 33.8C172.2 33.8 173.7 27.9 179.5 27.9C185.7 27.9 187 32.3 187 32.3C187 32.3 185.8 37.5 180.5 38.1C175.1 38.7 172.2 33.8 172.2 33.8Z" fill="#CCE2CF" stroke="#1B1C1E" stroke-miterlimit="10"/>
<path d="M180.016 37.0003C181.616 36.9241 182.821 34.9393 182.708 32.5671C182.595 30.1949 181.207 28.3336 179.607 28.4097C178.007 28.4859 176.802 30.4707 176.914 32.8429C177.027 35.2151 178.416 37.0764 180.016 37.0003Z" fill="#1B1C1E"/>
<path d="M216.7 32.6001C216.7 32.6001 215.2 26.7001 209.4 26.7001C203.2 26.7001 201.9 31.1001 201.9 31.1001C201.9 31.1001 203.1 36.3001 208.4 36.9001C213.7 37.5001 216.7 32.6001 216.7 32.6001Z" fill="#CCE2CF" stroke="#1B1C1E" stroke-miterlimit="10"/>
<path d="M211.92 31.5328C212.033 29.1605 210.828 27.1758 209.228 27.0996C207.628 27.0234 206.24 28.8847 206.127 31.257C206.014 33.6292 207.219 35.614 208.819 35.6901C210.419 35.7663 211.807 33.905 211.92 31.5328Z" fill="#1B1C1E"/>
<path d="M207.6 19.3001C201.5 23.6001 191.4 24.4001 184 20.4001C176.6 16.4001 176.9 9.60007 176.9 9.60007C177.4 7.70007 177.9 4.70007 180.2 4.10007C182.4 3.50007 184.1 6.70007 184.1 6.70007C184.1 6.70007 184.5 4.10007 186.9 3.30007C189.3 2.40007 192.5 5.10007 192.5 5.10007C192.5 5.10007 194.1 1.70007 197.3 2.00007C199.4 2.20007 200.5 5.40007 200.5 5.40007C200.5 5.40007 201.7 3.90007 203.3 3.90007C205.1 3.90007 206.1 5.50007 206.3 6.40007C206.5 7.30007 207.5 5.60007 209.4 5.40007C211.3 5.20007 212.2 8.10007 212.2 8.10007C212.2 8.10007 213.7 15.0001 207.6 19.3001Z" fill="#D4DADD"/>
<path d="M147 160.1C147 158.5 145.5 157.4 144.7 154.2C143.9 151 139.2 148.4 138.8 146C138.3 143.6 141 141.2 138.8 140.5C138 140.3 137.2 140.1 136.5 139.6C136.5 139.6 139.9 136.1 146.1 138.3C152.3 140.4 155.8 147.9 156.3 151.4C156.8 154.9 155.3 162 147 160.1Z" fill="#B3B9BC"/>
<path d="M149.9 164.3C149.9 164.3 147 161.7 147 160.1C147 158.5 145.6 157.4 144.8 154.2C144 151 139.3 148.4 138.9 146C138.4 143.6 141.1 141.2 138.9 140.5C136.7 139.8 134.4 139.4 135 134.2" stroke="#1B1C1E" stroke-miterlimit="10"/>
<path d="M229.9 15.5C226.1 12.9 222 12.1 220.5 11.9C219 11.7 217.8 11.6 221.8 6.6C225.8 1.6 231.1 1.5 231.1 1.5C231.3 1.7 231.5 1.9 231.7 2.2C234.8 7.1 229.9 15.5 229.9 15.5Z" fill="#D4DADD"/>
<path d="M170.5 14.5001C170.7 16.3001 166.2 14.0001 163.8 16.5001C161.4 19.0001 159.4 19.3001 159.4 19.3001C159.4 19.3001 154.6 11.1001 154.8 6.1001C154.8 6.1001 155 3.8001 160 6.1001C165 8.4001 170.3 12.6001 170.5 14.5001Z" fill="#D4DADD"/>
<path d="M188.8 177.3C189.9 177.3 190.7 171.4 188.8 167.5C186.9 163.6 186.7 159.5 184.1 156.1C181.5 152.7 182.8 144.8 181.7 142.3C181.1 140.8 181.2 140.1 181.2 140.1" stroke="#1B1C1E" stroke-miterlimit="10"/>
</svg>
