<svg width="135" height="180" viewBox="0 0 135 180" fill="none" xmlns="http://www.w3.org/2000/svg">
<path d="M25.4 176C25.4 176 20.5 178.1 33.9 178.7C47.4 179.3 118.5 179.6 125.8 178.7C133.1 177.8 141.3 176.7 127.5 175.5C117.1 174.6 101.8 174.7 91.2 174.4C72.1 173.9 31.2 174.1 25.4 176Z" fill="#1B1C1E"/>
<path d="M121.1 120C119.2 94.7 119.3 62.7 119.8 38.3C119.8 38.2 119.8 37.9999 119.8 37.8999C120.3 16.5999 121.1 1.19995 121.1 1.19995C120.8 1.59995 111.8 15.5 100.6 26.9C97.4999 30.1 94.0999 33 90.7999 35.5C90.5999 35.6 90.3999 35.7999 90.1999 35.8999C88.2999 37.1999 86.3999 38.6 84.4999 40C82.0999 41.8 79.6999 43.6 77.3999 45.3C75.1999 46.9 73.0999 48.5 71.1999 50C65.6999 54.2 61.7999 57.3 61.7999 57.3C61.7999 57.3 58.7999 54.4999 50.5999 47.8999C46.5999 44.6999 41.4999 40.6 34.8999 35.5C34.5999 35.2 34.1999 34.9 33.8999 34.7C29.8999 31.6 26.3999 28.4 23.1999 25.3C10.3999 12.7 4.39992 1.59995 4.09992 1.19995C2.69992 14.4 1.59991 26.5999 0.99991 37.8999C0.89991 38.7999 0.899904 39.6 0.899904 40.5V40.6C-1.5001 92.2 6.4999 125.6 37.1999 152.7C45.1999 159.7 53.9999 164.9 62.9999 168.6C68.4999 170.9 74.0999 172.7 79.4999 174.1C105.9 180.8 129.1 177.7 129.1 177.7C129.1 177.7 123.6 152 121.1 120Z" fill="white"/>
<mask id="mask0_70_1720" style="mask-type:luminance" maskUnits="userSpaceOnUse" x="0" y="1" width="130" height="178">
<path d="M121.1 120C119.2 94.7 119.3 62.7 119.8 38.3C119.8 38.2 119.8 37.9999 119.8 37.8999C120.3 16.5999 121.1 1.19995 121.1 1.19995C120.8 1.59995 111.8 15.5 100.6 26.9C97.4999 30.1 94.0999 33 90.7999 35.5C90.5999 35.6 90.3999 35.7999 90.1999 35.8999C88.2999 37.1999 86.3999 38.6 84.4999 40C82.0999 41.8 79.6999 43.6 77.3999 45.3C75.1999 46.9 73.0999 48.5 71.1999 50C65.6999 54.2 61.7999 57.3 61.7999 57.3C61.7999 57.3 58.7999 54.4999 50.5999 47.8999C46.5999 44.6999 41.4999 40.6 34.8999 35.5C34.5999 35.2 34.1999 34.9 33.8999 34.7C29.8999 31.6 26.3999 28.4 23.1999 25.3C10.3999 12.7 4.39992 1.59995 4.09992 1.19995C2.69992 14.4 1.59991 26.5999 0.99991 37.8999C0.89991 38.7999 0.899904 39.6 0.899904 40.5V40.6C-1.5001 92.2 6.4999 125.6 37.1999 152.7C45.1999 159.7 53.9999 164.9 62.9999 168.6C68.4999 170.9 74.0999 172.7 79.4999 174.1C105.9 180.8 129.1 177.7 129.1 177.7C129.1 177.7 123.6 152 121.1 120Z" fill="white"/>
</mask>
<g mask="url(#mask0_70_1720)">
<g opacity="0.78">
<path d="M111.4 170.8C111.3 170.9 111.2 171 111.1 171.1C111.1 171.2 111.2 171.1 111.4 170.8Z" fill="#181716"/>
<path d="M120.9 175.6L121.2 175.1C121 175.3 120.9 175.4 120.9 175.6Z" fill="#181716"/>
<path d="M109.1 173.5C109 173.6 108.8 173.7 108.6 173.9L109.1 173.5Z" fill="#181716"/>
<path d="M109.3 175.9C109.3 176 109.3 176.1 109.3 176.2C109.2 176.1 109.3 176 109.3 175.9Z" fill="#181716"/>
<path d="M103.2 165.6C103.2 165.5 103.3 165.5 103.3 165.4C103.3 165.4 103.3 165.5 103.2 165.6Z" fill="#181716"/>
<path d="M102.2 166C102.2 165.9 102.1 165.9 102.1 165.9L102 166C102 166.1 102.1 166 102.2 166Z" fill="#181716"/>
<path d="M94.9999 169.8L94.7 170.2C94.9 170 94.9999 169.9 94.9999 169.8Z" fill="#181716"/>
<path d="M103.7 165C103.6 165.1 103.5 165.2 103.4 165.3C103.5 165.3 103.6 165.3 103.7 165Z" fill="#181716"/>
<path d="M111.5 170.6C111.5 170.7 111.4 170.7 111.4 170.8C111.4 170.8 111.5 170.7 111.5 170.6Z" fill="#181716"/>
<path d="M124.7 176.6C124.8 176.6 124.9 176.6 125 176.5C124.8 176.3 124.8 176.4 124.7 176.6Z" fill="#181716"/>
<path d="M105.2 167.7C104.6 169.1 104.8 167.6 104.2 168.9C104.5 168.7 104.8 168.5 104.5 169.3C104 170 104.2 169 103.5 170.2L104 169.9C103.9 170.6 103.2 171.3 103.4 171.3C104.4 169.8 103.9 172.3 104.3 172.2L104.1 172.3V173.2V173.3C104.1 173.2 104.2 173.1 104.3 173C104.1 173.9 104.1 174.6 104.5 174.5C105 173.7 105.7 174.7 106.2 174C106 174.2 105.8 174.1 105.8 173.8L106.3 172.7C106.6 172.9 105.9 173.7 106.5 173.2C107.1 171.7 106.1 173 105.9 172.7C106.1 172.4 106.4 172.2 106.6 172.1C106.2 171.8 106 171.1 105 172.5C105 172.1 105.4 171.5 105.5 171.4C104.8 172.1 105.7 170.5 105 171.1C105.7 169.8 106 170.7 106.6 170C106.5 171.3 107.5 170.5 108 170.5C107.6 171.5 106.8 172.2 106.8 172.9C106.9 173.8 107.5 172.6 108 172.1C108.2 172.6 107.3 173.8 107.8 174.1L107.2 174.6C106.8 176.2 107.7 174.2 107.8 174.6C107.9 174.2 108.1 173.8 107.8 173.8C108 173.3 108.3 173.1 108.4 173.1V173C108.8 172.4 109.2 171.6 109.3 172.1C108.7 172.9 109.3 172.9 109.2 173.3L109 173.4C109.4 173.2 109.5 173.5 109.8 173.4L109.7 173.6C110 173.3 110.6 172.3 110.7 172.7C110.5 173.1 109.7 174.1 110 174.1C109.7 174.7 109.3 174.6 109.2 174.3C109.4 174.6 109 175.7 108.7 175.7C108.4 176.5 109.2 175.5 109.2 175.9C109.3 175.6 109.5 175.4 109.5 175.1C109 176.2 110.1 175.5 110.4 174.7L109.8 175.2C110.2 174.3 110.8 173.9 110.9 173.4C110.5 174.8 112 173.1 111.7 174.3L111.9 173.5C112.4 174.2 113.5 172.8 114.3 172.7C113.9 173.1 113.3 174.6 113.1 173.9C113.6 174.4 112.7 175.5 112.5 176.3C112.7 177.1 113.3 175 113.7 174.6L113.3 174.7C114.4 173.1 114.4 175.6 115.5 174.7C115.4 175.2 115.3 174.9 115.1 175.1C115 176.1 115.5 175 115.8 174.7C116 175 116.3 175.5 115.6 176.6C115.8 177 115.8 175.9 116.1 175.6V175.9L116.9 174.8C117 175.3 117.2 176 116.9 177.1C117.7 177.1 118.1 174.6 118.7 174.4C118.8 175.1 118.3 175.2 118.1 175.7H118.6C118 176.9 117.9 176.2 117.4 177.6C118.3 176.3 118.1 177.4 118.9 176.6V176.5C119.5 175.6 119.7 176.4 120.1 176.4C119.8 177 119.4 176.9 119.1 177.1C119.3 177.7 120.3 177.5 121 176.3C121.1 176.6 121.3 177.2 120.9 177.7C121.5 178.1 121.8 175.9 122.2 176.5L121.9 177.5C122.1 179.1 123.5 176.6 123.7 178.1L124.1 176.9C124.1 177.5 124.3 177.8 124.2 178.3L123.8 178.6C123.8 179.7 124.4 177.7 124.5 178.5C124.6 178.1 124.6 177.2 124.7 176.8C123.2 177.2 122.6 175 120.9 175.9C120.9 176.1 120.9 176.3 120.8 176.5C120.8 176.2 120.4 176.4 120.7 175.8L120.8 175.7C120.4 175.9 120.6 174.3 120.4 174.2C120 175 119.9 173.6 119.5 175.1L119.6 174.1C119.3 174.6 119.1 175.3 118.9 175.5C118.7 175.3 118.9 174.7 119.2 174.4C118.5 173.5 117.5 173.3 116.5 173.4L117 172.8C116.9 172.4 115.8 173.7 116.6 172.1C115.9 172.6 115.6 171.2 114.9 172.9C115.3 171.1 114.2 171.7 113.5 171.7C113 173.2 112.8 171.9 112.4 172.5C112.8 171.3 113.4 171.5 113.7 170.8C112.3 172.3 112.6 168.8 111.1 171.6C111.1 171.5 111.1 171.3 111.2 171.2C111.1 171.1 111.2 170.6 111.1 170.4C110.8 170.9 111 171.2 110.6 171.3C110.4 171.1 110.9 170.3 111 169.9C110.3 170.4 109.5 170.4 108.9 171.5C108.9 171.1 109.1 170.4 109.3 170.3C108.2 170.9 108.7 169.8 107.8 170.1C108.1 170.2 108.5 168.9 108.6 169.6C109.1 167.8 107.4 169.4 107.3 168.3L106.6 169.2C106.2 169.2 106.6 168.2 107 168C106.8 167.1 106.2 167.6 105.7 167.4C105.7 167.3 105.9 167.1 105.9 167.2L105.3 166.9C105.1 167.1 104.6 167.5 104.4 168.2C104.7 167.5 105 167.2 105.2 167.7Z" fill="#181716"/>
<path d="M104.4 168L104.3 168.1C104.3 168.1 104.4 168.1 104.4 168Z" fill="#181716"/>
<path d="M107.9 175.2C108 174.9 108 174.8 107.9 174.7C107.9 174.9 107.8 175.1 107.9 175.2Z" fill="#181716"/>
<path d="M97.6999 167.1C96.9999 168.7 98.1999 167 98.1999 167.6C97.7999 167.7 97.3999 168.7 97.1999 169.1C98.4999 167.2 97.3999 169.7 98.1999 169.6C97.8999 170.3 97.4999 170.2 97.0999 170.9C97.6999 170.6 98.2999 170.5 98.9999 169.4C99.5999 169.7 99.6999 170.3 100.2 170.2C99.5999 170.5 99.5999 171.3 98.7999 172.1C99.8999 171 101.5 169.8 102.9 168.5C102.4 169.8 102.3 169.9 101.7 171C102 172.2 102.5 169.9 102.9 170.6L102.7 170.2C103.2 170 103.8 168.8 104.3 168L103.5 167.8C103.9 166.9 104.3 167.3 104.6 167.1C105.3 166.2 104.6 166.2 105 165.4C104.6 166 104.4 165.7 104.1 165.9L104.3 165.4C104.2 164.8 103.4 165.8 103.2 165.7C103.2 165.6 103.3 165.5 103.3 165.4C102.9 165.9 102.5 166.4 102.2 166.5H102.4C101.6 167.5 100.6 167.8 100.4 169.2L99.7999 168.5C100.5 167.3 101.6 165.6 102 165.7L102.3 165.2C102.3 164.4 100.9 165.7 100.6 166.8C98.7999 169.5 99.3999 166.3 98.2999 167.3C98.6999 166.5 99.0999 166.3 99.4999 165.9C99.6999 165.9 99.7999 165.9 99.4999 166.6C100.4 166.5 100.6 164 101.2 164.7C101.4 165.3 100.1 165.7 100.6 166.1L102.1 164.1C101.7 164 101.2 164.2 100.8 164.3C98.4999 165 98.0999 163.2 98.0999 163.2C95.6999 162.3 93.3999 161.3 90.9999 160.3C90.0999 160.2 89.8999 160 88.4999 161.9C88.3999 162.4 88.8999 162.5 88.3999 163.1C88.8999 162.4 89.3999 162.1 89.7999 162.4C89.3999 163.2 89.2999 162.6 89.1999 162.8V162.9C88.8999 163.3 88.6999 163.5 88.5999 163.5C88.3999 164.9 89.2999 165.1 90.3999 163.8C90.2999 164.8 89.4999 164.9 88.9999 165.4C89.8999 166.7 90.6999 167 91.8999 167.7C92.6999 166.3 92.4999 166.9 93.1999 166L92.9999 166.6C93.0999 166.3 93.7999 165.5 93.6999 165.1C93.7999 166.5 95.4999 163.7 96.2999 163.4L95.8999 164.1C96.3999 164.2 96.4999 164.2 96.9999 164C96.8999 165.7 96.2999 163.9 95.5999 165.8L95.8999 165.6C95.3999 166.2 94.6999 167.4 94.1999 167.7C95.3999 166.9 94.7999 168.6 95.9999 168.1C95.4999 168.9 94.5999 169.2 94.3999 169.2C94.5999 169.4 95.2999 169 94.8999 169.8L95.4999 168.8C95.9999 168.9 94.9999 169.7 94.7999 170.4C95.8999 170.7 96.6999 167.2 97.6999 167.1Z" fill="#181716"/>
<path d="M107 172.3C106.9 172.2 106.8 172.2 106.7 172.2C106.7 172.3 106.8 172.3 107 172.3Z" fill="#181716"/>
<path d="M104.2 173.3C104.1 173.4 104.1 173.6 104 173.7C104 173.6 104.1 173.5 104.2 173.3Z" fill="#181716"/>
<path d="M103.3 174.7C103.5 174.2 103.6 174.3 103.9 173.7C103.7 174 103.4 173.8 103.3 174.7Z" fill="#181716"/>
<path d="M128 179.5L128.6 180.3C128.5 181.7 128.2 180.7 127.9 181.2C128.4 181.6 128.3 181.1 128.9 180.3C129.1 180.4 129.4 179.7 129.6 179.4C128.5 180.5 129 177.1 128 179.5Z" fill="#181716"/>
<path d="M126.8 177.8C126.8 176.1 125.9 178.5 125.6 177.7C125.7 177.6 125.7 177.5 125.8 177.3L125.4 177.4L125.5 177C125.3 177.9 124.8 178.2 124.5 178.9C124.6 180 125 177.8 125.1 179C124.9 179.4 124.7 180 124.5 180.4C124.9 180 125.1 179.4 125.3 178.9C125.6 178.9 125.4 179.4 125.3 179.7C125.7 179.2 126 177.8 126.4 178.3C126.5 179.2 125.9 179.6 126.5 179.3C126.6 177.7 126.9 179.6 127.3 178.7C127.6 179.1 127.6 180 127.5 180.6C127.7 179.4 128.2 178.5 128.5 178.2C128.3 178.5 128 178.8 127.7 179.1L127.8 177.7C127.2 178.2 127 178.1 126.8 177.8Z" fill="#181716"/>
<path d="M115.9 176.9C116 177.5 116.3 176.5 116.6 175.9C116.3 175.5 116.3 176.6 115.9 176.9Z" fill="#181716"/>
<path d="M110.6 176C110.6 176.7 111.3 175.9 111.5 176.1C111.5 175.5 111 175.7 110.6 176Z" fill="#181716"/>
<path d="M107.2 178.1C107.4 177.9 107.6 177.7 107.5 177.6L108.5 176.2C108.3 175.4 107.5 177.4 107.2 178.1Z" fill="#181716"/>
<path d="M104.8 177.2L105.5 176.8L105.3 176.7C105.7 176.1 105.9 175.9 106.3 175.4C105.8 175.6 105.2 176.1 104.8 177.2Z" fill="#181716"/>
<path d="M106.7 175.3C106.6 175.3 106.6 175.3 106.5 175.3C106.5 175.5 106.4 175.7 106.7 175.3Z" fill="#181716"/>
<path d="M106.3 175.2C106.2 175.3 106.2 175.3 106.2 175.4C106.3 175.4 106.4 175.3 106.5 175.3C106.5 175.1 106.5 175 106.3 175.2Z" fill="#181716"/>
<path d="M104.8 176.3L104.1 176.2L104.2 176.6C104.7 175.7 104.3 177.3 104.8 176.3Z" fill="#181716"/>
<path d="M101.8 173.9L102.2 172.9C101.9 172.5 100.4 174.3 100.9 172.6C100.8 173.3 99.9999 173.5 100.4 174C101 173.3 101.6 173.5 101.8 173.9Z" fill="#181716"/>
<path d="M101 171.8C101.2 171.6 101.2 171.3 101.3 171C101.2 170.8 100.8 171.2 100.7 171.6C101.4 170.5 100.5 172.5 101 171.8Z" fill="#181716"/>
<path d="M99.0999 171C99.1999 171 99.3998 171 99.3998 170.7C98.9998 170.6 98.5999 171.7 98.0999 172.2C98.0999 172.9 98.9999 171.6 99.0999 171Z" fill="#181716"/>
<path d="M99.7999 162.8C99.3999 163.6 99.7999 163.6 99.9999 163.4C99.7999 163.5 99.6999 163.2 99.7999 162.8Z" fill="#181716"/>
<path d="M96.3999 169.3V169.5L97.0999 168.4L96.3999 169.3Z" fill="#181716"/>
<path d="M93.8999 168.8L93.2 169.5H93.7L93.8999 168.8Z" fill="#181716"/>
<path d="M93.5999 168.4L93.2 168.3V168.7C93.2 169 93.4999 168.4 93.5999 168.4Z" fill="#181716"/>
<path d="M92.4999 168C92.5999 168 92.4999 168.1 92.4999 168.2L93.0999 167.9L92.4999 168Z" fill="#181716"/>
<path d="M89.6999 160.1C90.1999 159.4 89.5999 159.7 89.6999 159.5C89.4999 159.7 89.0999 160.8 89.6999 160.1Z" fill="#181716"/>
</g>
</g>
<path d="M121.1 1.19995C121.1 1.19995 120.3 16.5999 119.8 37.8999C119.8 37.9999 119.8 38.2 119.8 38.3C119.4 59.4 111.3 74.2 96.2999 78.2C95.3999 78.4 94.4999 78.6 93.5999 78.8C92.9999 78.9 92.2999 79 91.6999 79.1C90.7999 79.2 89.7999 79.3 88.7999 79.3C81.1999 79.5 75.3999 76.3 71.2999 72.3C64.7999 66 62.0999 57.7 61.9999 57.3C61.9999 57.3 65.8999 54.2 71.3999 50C73.2999 48.5 75.3999 46.9 77.5999 45.3C79.8999 43.6 82.2999 41.8 84.6999 40C86.5999 38.6 88.4999 37.1999 90.3999 35.8999C90.5999 35.7999 90.7999 35.6 90.9999 35.5C94.2999 33.1 97.6999 30.1 100.8 26.9C111.8 15.6 120.8 1.69995 121.1 1.19995Z" fill="#706153"/>
<path d="M61.8999 57.3999C61.7999 57.7999 58.7999 66.0999 51.5999 72.3999C47.0999 76.2999 40.7999 79.3999 32.4999 79.3999C30.5999 79.3999 28.6999 79.1999 26.9999 78.8999C26.9999 78.8999 26.9999 78.8999 26.8999 78.8999C9.49993 75.8999 0.399925 59.4999 0.899925 40.6999V40.5999C0.899925 39.6999 0.999931 38.8999 0.999931 37.9999C1.59993 26.6999 2.69994 14.4999 4.09994 1.29993C4.29994 1.69993 10.3999 12.8999 23.1999 25.3999C26.2999 28.4999 29.8999 31.6999 33.8999 34.7999C34.1999 35.0999 34.5999 35.3999 34.8999 35.5999C41.4999 40.6999 46.6999 44.7999 50.5999 47.9999C58.8999 54.5999 61.8999 57.3999 61.8999 57.3999Z" fill="#706153"/>
<path d="M4.19988 1.19995C4.09988 1.19995 4.09988 1.19995 4.19988 1.19995Z" stroke="#1B1C1E" stroke-width="0.8477" stroke-miterlimit="10"/>
<path d="M66.5999 169.4C66.5999 169.4 49.7999 169.2 49.7999 174.9H82.1999C82.1999 174.9 77.5999 167.9 66.5999 169.4Z" fill="#FCBD30"/>
<path d="M56.6999 169.4C56.6999 169.4 39.8999 169.2 39.8999 174.9H72.2999C72.1999 174.9 67.5999 167.9 56.6999 169.4Z" fill="#FCBD30"/>
<path d="M111.9 61.5C108.3 73 100.3 77 96.3998 78.3C95.4998 78.5 94.5999 78.7 93.6999 78.9C93.0999 79 92.3998 79.1 91.7998 79.2C90.8998 79.3 89.8998 79.4 88.8998 79.4C81.2998 79.6 75.4998 76.4 71.3998 72.4C64.8998 66.1 62.1999 57.8 62.0999 57.4C62.0999 57.4 65.9998 54.3 71.4998 50.1C73.3998 48.6 75.4999 47 77.6999 45.4C79.9999 43.7 82.3998 41.9 84.7998 40.1C86.6998 38.7 88.5998 37.3 90.4998 36C90.6998 35.9 90.8999 35.7 91.0999 35.6C94.3999 33.2 97.7998 30.2 100.9 27C109.3 32.7 116.3 47.4 111.9 61.5Z" fill="#E8D9CD"/>
<path d="M61.8999 57.3999C61.7999 57.7999 58.7999 66.0999 51.5999 72.3999C47.0999 76.2999 40.7999 79.3999 32.4999 79.3999C30.5999 79.3999 28.7999 79.1999 27.0999 78.8999C27.0999 78.8999 27.0999 78.8999 26.9999 78.8999C26.9999 78.8999 26.9999 78.8999 26.8999 78.8999C26.7999 78.8999 26.6999 78.8999 26.4999 78.7999C26.4999 78.7999 26.4999 78.7999 26.3999 78.7999C23.7999 78.1999 13.3999 75.1999 9.19993 61.5999C4.29993 45.9999 13.3999 29.5999 23.1999 25.3999C26.2999 28.4999 29.8999 31.6999 33.8999 34.7999C34.1999 35.0999 34.5999 35.3999 34.8999 35.5999C41.4999 40.6999 46.6999 44.7999 50.5999 47.9999C58.8999 54.5999 61.8999 57.3999 61.8999 57.3999Z" fill="#E8D9CD"/>
<path d="M100.6 49.3C100.6 57.4 93.9999 64 85.8999 64C78.0999 64 71.5999 57.8 71.2999 50.1C73.1999 48.6 75.2999 47 77.4999 45.4C79.7999 43.7 82.1999 41.9 84.5999 40.1C86.4999 38.7 88.3999 37.3 90.2999 36C90.4999 35.9 90.6999 35.7 90.8999 35.6C96.4999 37.5 100.6 42.9 100.6 49.3Z" fill="white"/>
<path d="M95.3 49.2999C95.3 54.4999 91.1 58.6999 85.9 58.6999C80.7 58.6999 76.5 54.4999 76.5 49.2999C76.5 47.8999 76.8 46.4999 77.4 45.2999C79.7 43.5999 82.1 41.7999 84.5 39.9999C85 39.8999 85.4 39.8999 85.9 39.8999C91.1 39.8999 95.3 44.0999 95.3 49.2999Z" fill="#534E4A"/>
<path d="M61.8999 57.3999C61.8999 57.3999 53.6999 67.9999 51.4999 72.3999C51.4999 72.3999 57.2999 76.7999 61.6999 78.2999C61.6999 78.2999 68.1999 75.9999 71.1999 72.3999C71.2999 72.3999 65.5999 61.5999 61.8999 57.3999Z" fill="#FCBD30"/>
<mask id="mask1_70_1720" style="mask-type:luminance" maskUnits="userSpaceOnUse" x="51" y="72" width="21" height="7">
<path d="M71.1999 72.3999C68.0999 75.9999 61.6999 78.2999 61.6999 78.2999C57.2999 76.8999 51.4999 72.3999 51.4999 72.3999C51.4999 72.3999 57.7999 70.9999 61.6999 77.1999C61.6999 77.1999 64.7999 72.1999 71.1999 72.3999Z" fill="white"/>
</mask>
<g mask="url(#mask1_70_1720)">
<g opacity="0.78">
<path d="M55.6998 73.7999L55.5999 73.8999C55.6999 73.8999 55.6998 73.7999 55.6998 73.7999Z" fill="#181716"/>
<path d="M59.2998 72.9999L59.1998 73.0999C59.1998 73.0999 59.2998 73.0999 59.2998 72.9999Z" fill="#181716"/>
<path d="M67.7999 72.6998L67.8999 72.5999C67.7999 72.5999 67.7999 72.5998 67.7999 72.6998Z" fill="#181716"/>
<path d="M60.0998 74.1999C59.7998 74.6999 59.8998 74.0999 59.5998 74.4999C59.6998 74.4999 59.8998 74.3999 59.6998 74.6999C59.4998 74.8999 59.4998 74.5999 59.2998 74.8999H59.4998C59.3998 75.0999 59.0998 75.2999 59.1998 75.3999C59.6998 74.9999 59.3998 75.7999 59.4998 75.8999H59.3998V76.2999C59.3998 76.2999 59.3998 76.1999 59.4998 76.1999C59.3998 76.4999 59.2998 76.7999 59.4998 76.7999C59.5998 76.6999 59.7998 76.7999 59.8998 76.7999C59.9998 76.8999 60.1998 77.0999 60.2998 76.9999C60.1998 76.9999 60.0998 76.8999 60.0998 76.7999L60.3998 76.4999C60.4998 76.5999 60.1998 76.7999 60.4998 76.7999C60.7998 76.2999 60.2998 76.5999 60.2998 76.4999C60.3998 76.3999 60.4998 76.3999 60.5998 76.3999C60.3998 76.1999 60.3998 75.8999 59.8998 76.2999C59.8998 76.1999 60.0998 75.9999 60.1998 75.9999C59.8998 76.0999 60.2998 75.6999 59.9998 75.7999C60.3998 75.3999 60.3998 75.7999 60.7998 75.6999C60.6998 75.8999 60.7998 75.9999 60.9998 76.0999C61.0998 76.0999 61.1998 76.0999 61.2998 76.0999C61.0998 76.4999 60.7998 76.6999 60.7998 76.8999C60.8998 77.2999 61.0998 76.8999 61.2998 76.6999C61.3998 76.9999 60.9998 77.3999 61.2998 77.6999C61.1998 77.7999 61.0998 77.7999 61.0998 77.7999C61.0998 78.5999 61.2998 77.6999 61.3998 77.8999C61.3998 77.6999 61.3998 77.4999 61.2998 77.3999C61.3998 77.1999 61.4998 77.0999 61.4998 77.1999C61.5998 76.8999 61.6998 76.5999 61.7998 76.8999C61.6998 77.1999 61.7998 77.2999 61.7998 77.4999V77.5999C61.8998 77.5999 61.8998 77.5999 61.8998 77.5999L61.9998 77.4999V77.5999C62.0998 77.3999 62.0998 76.7999 62.1998 76.8999C62.1998 77.0999 62.0998 77.6999 62.1998 77.5999C62.1998 77.8999 61.9998 78.0999 61.8998 77.9999C61.9998 77.9999 62.0998 78.4999 61.8998 78.5999C61.8998 78.9999 62.0998 78.2999 62.1998 78.3999C62.1998 78.2999 62.1998 78.0999 62.1998 77.9999C62.1998 78.4999 62.5998 77.7999 62.4998 77.4999L62.3998 77.8999C62.3998 77.4999 62.4998 77.0999 62.3998 76.8999C62.4998 77.1999 62.5998 76.9999 62.5998 76.8999C62.6998 76.7999 62.6998 76.5999 62.7998 76.7999L62.5998 76.4999C62.8998 76.4999 62.7998 75.7999 62.9998 75.4999C62.9998 75.6999 63.2998 76.1999 62.9998 76.1999C63.2998 76.0999 63.3998 76.6999 63.6998 76.8999C63.9998 76.9999 63.4998 76.2999 63.4998 76.0999L63.3998 76.2999C63.1998 75.5999 63.9998 76.0999 64.0998 75.4999C64.1998 75.5999 64.0998 75.5999 64.0998 75.6999C64.3998 75.8999 64.1998 75.5999 64.1998 75.3999C64.3998 75.3999 64.5998 75.3999 64.7998 75.7999C64.9998 75.7999 64.5998 75.5999 64.5998 75.3999L64.6998 75.4999L64.5998 74.9999C64.7998 74.9999 65.0998 75.1999 65.3998 75.4999C65.6998 75.1999 64.9998 74.5999 65.0998 74.2999C65.2998 74.3999 65.1998 74.5999 65.2998 74.6999L65.4998 74.4999C65.6998 74.9999 65.3998 74.7999 65.6998 75.2999C65.5998 74.6999 65.7998 74.9999 65.8998 74.5999C65.7998 74.1999 66.1998 74.2999 66.2998 74.1999C66.3998 74.3999 66.1998 74.4999 66.1998 74.6999C66.3998 74.7999 66.6998 74.3999 66.5998 73.8999C66.6998 73.8999 66.9998 73.9999 66.9998 74.1999C67.2998 74.0999 66.7998 73.5999 67.0998 73.4999L67.2998 73.7999C67.7998 74.0999 67.6998 73.0999 68.0998 73.3999L67.8998 72.9999C67.9998 73.0999 68.1998 73.0999 68.2998 73.1999L68.1998 73.3999C68.4998 73.5999 68.1998 73.0999 68.3998 73.1999C68.2998 73.0999 68.0998 72.8999 67.9998 72.7999C67.4998 73.2999 66.5998 72.9999 66.2998 73.6999C66.2998 73.6999 66.3998 73.7999 66.3998 73.8999C66.2998 73.7999 66.1998 73.9999 66.0998 73.7999C65.9998 73.9999 65.5998 73.5999 65.4998 73.5999C65.5998 73.8999 65.0998 73.6999 65.4998 74.0999L65.1998 73.8999C65.2998 74.0999 65.3998 74.2999 65.3998 74.3999C65.2998 74.3999 65.1998 74.1999 65.1998 74.0999C64.6998 74.0999 64.1998 74.4999 63.8998 74.7999V74.4999C63.6998 74.3999 63.7998 75.0999 63.4998 74.4999C63.3998 74.7999 62.8998 74.6999 63.1998 75.2999C62.9998 75.0999 62.7998 75.0999 62.6998 75.1999C62.5998 75.2999 62.5998 75.2999 62.4998 75.3999C62.4998 75.4999 62.4998 75.4999 62.4998 75.5999C62.7998 76.0999 62.4998 75.7999 62.4998 76.0999C62.2998 75.6999 62.3998 75.5999 62.2998 75.2999C62.3998 75.6999 62.2998 75.5999 62.1998 75.5999C62.0998 75.5999 62.0998 75.5999 62.0998 76.2999C62.0998 76.2999 62.0998 76.1999 62.0998 76.0999C62.0998 76.0999 61.9998 75.8999 61.9998 75.7999C61.9998 76.0999 61.9998 76.1999 61.9998 76.2999C61.9998 76.1999 61.9998 75.7999 61.9998 75.5999C61.8998 75.8999 61.7998 75.8999 61.5998 76.2999C61.5998 76.0999 61.6998 75.7999 61.6998 75.7999C61.3998 75.9999 61.5998 75.5999 61.3998 75.6999C61.4998 75.6999 61.6998 75.2999 61.6998 75.4999C61.7998 75.1999 61.8998 75.1999 61.6998 75.1999C61.4998 75.0999 61.2998 75.0999 61.2998 74.8999L60.8998 75.0999C60.6998 74.9999 60.9998 74.6999 61.0998 74.6999C60.9998 74.2999 60.6998 74.3999 60.4998 74.2999L60.5998 74.1999L60.2998 73.9999C60.1998 74.0999 59.9998 74.0999 59.8998 74.3999C59.8998 73.9999 60.0998 73.8999 60.0998 74.1999Z" fill="#181716"/>
<path d="M61.2999 77.8998C61.2999 77.6998 61.2999 77.6999 61.2999 77.5999C61.1999 77.6999 61.1999 77.7998 61.2999 77.8998Z" fill="#181716"/>
<path d="M56.5999 73.1999C56.3999 73.5999 56.7998 73.1999 56.8998 73.3999C56.6998 73.3999 56.6999 73.6999 56.5999 73.7999C56.9999 73.2999 56.6998 73.9999 56.9998 73.9999C56.8998 74.1999 56.7999 74.0999 56.5999 74.2999C56.7999 74.1999 57.0999 74.2999 57.2999 73.9999C57.4999 74.0999 57.6999 74.3999 57.7999 74.3999C57.4999 74.3999 57.5999 74.6999 57.2999 74.8999C57.6999 74.5999 58.3998 74.3999 58.9998 74.0999C58.7998 74.4999 58.7998 74.4999 58.4998 74.8999C58.5998 75.3999 58.7998 74.5999 58.9998 74.8999L58.8998 74.6999C59.0998 74.6999 59.3999 74.2999 59.5999 74.0999C59.4999 73.9999 59.2998 73.9999 59.1998 73.8999C59.3998 73.5999 59.5998 73.7999 59.6998 73.7999C59.9998 73.5999 59.6998 73.4999 59.8998 73.1999C59.6998 73.3999 59.5998 73.1999 59.3998 73.2999L59.4998 73.1999C59.3998 72.9999 59.0998 73.2999 58.8998 73.1999V73.0999C58.6998 73.1999 58.5998 73.3999 58.3998 73.3999H58.4998C58.1998 73.6999 57.6998 73.6999 57.6998 74.1999L57.3998 73.8999C57.5998 73.5999 57.9999 73.0999 58.2999 73.0999L58.3998 72.9999C58.2998 72.6999 57.7998 73.0999 57.6998 73.3999C57.0998 74.0999 57.0998 73.0999 56.6998 73.3999C56.7998 73.1999 56.9999 73.1999 57.0999 72.9999C57.1999 72.9999 57.2998 72.9999 57.1998 73.1999C57.5998 73.1999 57.4998 72.4999 57.8998 72.6999C57.9998 72.8999 57.4998 72.8999 57.6998 73.0999L58.2999 72.5999C58.0999 72.4999 57.8998 72.5999 57.6998 72.5999C57.1998 72.6999 56.7999 72.4999 56.5999 72.3999C56.3999 72.2999 56.1998 72.1999 56.1998 72.1999C54.8998 71.8999 53.5999 71.7999 52.2999 71.7999C51.8999 71.7999 51.6999 71.8999 51.5999 71.8999C51.6999 71.8999 51.8999 71.8999 51.7999 71.9999C51.7999 71.9999 51.9998 71.9999 52.1998 71.9999C52.1998 72.0999 51.9999 71.9999 52.0999 71.9999H51.9998C52.1998 72.0999 52.5999 72.2999 52.7999 72.0999C52.9999 72.1999 52.5998 72.1999 52.4998 72.1999C53.0998 72.4999 53.4999 72.5999 54.0999 72.8999C54.1999 72.5999 54.1998 72.7999 54.3998 72.5999V72.6999C54.3998 72.5999 54.4998 72.4999 54.3998 72.3999C54.6998 72.6999 54.9999 72.1999 55.2999 72.0999L55.1998 72.2999C55.3998 72.2999 55.4998 72.2999 55.6998 72.2999C55.8998 72.6999 55.3999 72.2999 55.2999 72.6999H55.3998C55.2998 72.7999 55.0998 73.0999 54.9998 73.1999C55.3998 73.0999 55.3999 73.4999 55.7999 73.3999C55.6999 73.5999 55.2998 73.5999 55.1998 73.5999C55.2998 73.6999 55.4998 73.5999 55.4998 73.7999L55.5999 73.5999C55.7999 73.6999 55.4998 73.7999 55.4998 73.9999C56.1998 74.1999 56.1999 73.1999 56.5999 73.1999Z" fill="#181716"/>
<path d="M60.7998 76.1998C60.7998 76.0998 60.6998 76.0999 60.6998 76.0999C60.6998 76.1999 60.6998 76.1998 60.7998 76.1998Z" fill="#181716"/>
<path d="M59.4999 76.0999L59.3999 76.1998C59.4999 76.1998 59.4999 76.1999 59.4999 76.0999Z" fill="#181716"/>
<path d="M59.0999 76.5C59.1999 76.3 59.1998 76.4 59.3998 76.2C59.2998 76.3 59.1999 76.2 59.0999 76.5Z" fill="#181716"/>
<path d="M70.9999 72.1C70.8999 72 70.7 71.9 70.7 72.1C70.8 72 70.8999 72.3 70.9999 72.1Z" fill="#181716"/>
<path d="M69.7998 72.3999H70.1998C70.3998 72.6999 70.0998 72.5999 70.0998 72.6999C70.3998 72.5999 70.1998 72.5999 70.3998 72.2999C70.4998 72.2999 70.4998 72.0999 70.5998 71.9999C70.1998 72.3999 69.8998 71.6999 69.7998 72.3999Z" fill="#181716"/>
<path d="M70.4999 72.3999V72.2L70.3999 72.3999H70.4999Z" fill="#181716"/>
<path d="M68.8998 72.2999C68.4998 71.9999 68.6998 72.6999 68.3998 72.5999V72.4998L68.1998 72.5999L68.0999 72.4998C68.1999 72.6998 68.0999 72.8998 68.0999 73.1998C68.3999 73.3998 67.9999 72.7999 68.2999 73.0999C68.2999 73.1999 68.3998 73.3998 68.3998 73.4998C68.3998 73.2998 68.3998 73.1998 68.3998 72.9998C68.4998 72.8998 68.4999 73.0998 68.5999 73.1998C68.5999 72.9998 68.4998 72.5999 68.6998 72.5999C68.8998 72.6999 68.7998 72.9999 68.9998 72.7999C68.6998 72.4999 69.1999 72.7998 69.1999 72.4998C69.3999 72.4998 69.5999 72.6999 69.5999 72.7999C69.4999 72.4999 69.4999 72.1999 69.5999 72.0999L69.3998 72.3998L69.1999 72.0999C69.1999 72.2999 69.0998 72.2999 68.8998 72.2999Z" fill="#181716"/>
<path d="M69.7998 72.7999V72.8999L69.8998 72.9999L69.7998 72.7999Z" fill="#181716"/>
<path d="M68.5999 73.8C68.5999 73.8 68.5999 73.7 68.4999 73.7L68.5999 73.8Z" fill="#181716"/>
<path d="M68.2999 73.6999L68.0999 73.4999L68.1998 73.6999H68.2999Z" fill="#181716"/>
<path d="M64.7999 75.4998C64.9999 75.5998 64.7999 75.2999 64.6999 75.0999C64.4999 75.0999 64.7999 75.2998 64.7999 75.4998Z" fill="#181716"/>
<path d="M62.6998 77.3999C62.8998 77.4999 62.9998 77.0999 63.0998 76.9999C62.8998 76.8999 62.7998 77.0999 62.6998 77.3999Z" fill="#181716"/>
<path d="M59.6998 77.8999C59.7998 77.8999 59.9998 77.9999 60.0998 77.9999L59.9998 77.8999C60.1998 77.6999 60.2998 77.6999 60.4998 77.5999C60.1998 77.4999 59.8998 77.4999 59.6998 77.8999Z" fill="#181716"/>
<path d="M60.6999 77.5999C60.5999 77.5999 60.5999 77.5999 60.6999 77.5999C60.5999 77.5999 60.4999 77.6999 60.6999 77.5999Z" fill="#181716"/>
<path d="M60.4999 77.4999C60.5999 77.4999 60.5999 77.3999 60.4999 77.4999Z" fill="#181716"/>
<path d="M59.5998 77.3999C59.3998 77.1999 59.3998 77.2 59.1998 77.2V77.3999C59.2998 77.2999 59.2998 77.2999 59.2998 77.3999C59.3998 77.4999 59.4998 77.5999 59.5998 77.3999Z" fill="#181716"/>
<path d="M58.5999 75.9999L58.7999 75.6999C58.6999 75.4999 58.0999 75.9999 58.2999 75.3999C58.2999 75.5999 57.9999 75.5999 58.0999 75.7999C58.2999 75.6999 58.4999 75.7999 58.5999 75.9999Z" fill="#181716"/>
<path d="M58.2998 75.1C58.3998 75 58.3998 74.9999 58.3998 74.8999C58.3998 74.7999 58.1998 74.8999 58.1998 74.9999C58.3998 74.6999 58.0998 75.3 58.2998 75.1Z" fill="#181716"/>
<path d="M57.4998 74.5998C57.5998 74.5998 57.5999 74.5998 57.5999 74.4998C57.3999 74.3998 57.2999 74.6998 57.0999 74.8998C57.0999 75.1998 57.4998 74.7998 57.4998 74.5998Z" fill="#181716"/>
<path d="M57.0999 72.0999C56.9999 72.2999 57.1999 72.2999 57.2999 72.2999C57.1999 72.2999 57.0999 72.1999 57.0999 72.0999Z" fill="#181716"/>
<path d="M56.1998 73.7999H56.2998L56.4998 73.4999L56.1998 73.7999Z" fill="#181716"/>
<path d="M55.1999 73.3999L54.9999 73.4999L55.1999 73.5999V73.3999Z" fill="#181716"/>
<path d="M54.9999 73.3L54.7999 73.2V73.3C54.9999 73.4 54.9999 73.2 54.9999 73.3Z" fill="#181716"/>
</g>
</g>
<path d="M129.1 177.8C79.8999 172.3 56.5999 133.1 62.5999 106.3C67.3999 85.0999 85.6999 80.1999 91.6999 79.0999C92.2999 78.9999 92.8999 78.9999 93.3999 78.8999C93.4999 78.8999 93.5999 78.8999 93.5999 78.8999C94.4999 78.6999 95.3998 78.4999 96.2998 78.2999C111.3 74.2999 119.4 59.4999 119.8 38.3999C119.3 62.7999 119.2 94.6999 121.1 120.1C123.6 152 129.1 177.8 129.1 177.8Z" fill="#89745E"/>
<path d="M62.4999 123.1C62.4999 123.1 67.4999 145.8 88.0999 155.6C104.4 163.4 95.3999 146.1 95.3999 146.1C95.3999 146.1 100.4 154.8 108.1 158C115.5 161 115.9 153.5 115.9 153.5C115.9 153.5 120.5 160.3 125.8 159.4" stroke="#1B1C1E" stroke-miterlimit="10" stroke-linecap="round" stroke-linejoin="round"/>
<path d="M36.0999 64C44.2185 64 50.7999 57.4186 50.7999 49.3C50.7999 41.1814 44.2185 34.6 36.0999 34.6C27.9813 34.6 21.3999 41.1814 21.3999 49.3C21.3999 57.4186 27.9813 64 36.0999 64Z" fill="white"/>
<path d="M36.1 58.6999C41.2914 58.6999 45.5 54.4914 45.5 49.2999C45.5 44.1084 41.2914 39.8999 36.1 39.8999C30.9085 39.8999 26.7 44.1084 26.7 49.2999C26.7 54.4914 30.9085 58.6999 36.1 58.6999Z" fill="#1B1C1E" stroke="#1B1C1E" stroke-miterlimit="10"/>
<path d="M85.8999 64C94.0185 64 100.6 57.4186 100.6 49.3C100.6 41.1814 94.0185 34.6 85.8999 34.6C77.7813 34.6 71.2 41.1814 71.2 49.3C71.2 57.4186 77.7813 64 85.8999 64Z" fill="white"/>
<path d="M85.9 58.6999C91.0915 58.6999 95.3 54.4914 95.3 49.2999C95.3 44.1084 91.0915 39.8999 85.9 39.8999C80.7085 39.8999 76.5 44.1084 76.5 49.2999C76.5 54.4914 80.7085 58.6999 85.9 58.6999Z" fill="#1B1C1E" stroke="#1B1C1E" stroke-miterlimit="10"/>
<path d="M121.1 1.19995C120.1 4.49995 106.9 24.4999 85.8998 39.8999C81.7998 42.8999 61.8998 57.3 61.8998 57.3C45.1998 47.3 12.7999 20.4 4.09985 1.19995C4.29985 1.69995 33.1999 20.1 34.5999 20.4C36.0999 20.8 90.3998 20.4 90.3998 20.4L121.1 1.19995Z" fill="#89745E"/>
<path d="M90.3999 20.5C90.3999 20.5 96.6999 20.8 99.0999 22.9" stroke="#1B1C1E" stroke-miterlimit="10"/>
<path d="M34.7 20.5C34.7 20.5 28.8 20.3 25.2 22.5" stroke="#1B1C1E" stroke-miterlimit="10"/>
<path d="M82.8999 133.6C82.8999 133.6 87.8999 145.2 95.4999 146.1C103.1 146.9 100.7 135.6 100.7 135.6C100.7 135.6 109.8 153.1 116 153.5C122.2 153.8 119 138.8 119 138.8" stroke="#1B1C1E" stroke-miterlimit="10"/>
</svg>
