<svg width="181" height="219" viewBox="0 0 181 219" fill="none" xmlns="http://www.w3.org/2000/svg">
<path d="M2.2 214.5C2.2 214.5 -5.6 217.1 15.7 217.9C37 218.7 149.5 219.1 161.1 217.9C172.7 216.7 195.2 217.4 165.3 214.5C135.4 211.6 104.6 213.3 74.5 211.6C44.4 209.8 6.7 211.4 2.2 214.5Z" fill="#1B1C1E"/>
<path d="M70.4 11.8C70.4 11.8 60.6001 1.59996 51.6001 0.799963C42.0001 -0.100037 39.9001 11.1 48.5001 29.7C48.5001 29.7 65.6 23.3 70.4 11.8Z" fill="#F6EBEF"/>
<path d="M65.7001 18.6C58.9001 25.8 48.5001 29.7 48.5001 29.7C43.0001 17.9 41.8001 9.10002 44.1001 4.50002C44.3001 4.30002 48.2001 1.20002 55.3001 7.40002C59.8001 11.2 63.5001 15.7 65.7001 18.6Z" fill="#EAD6DE"/>
<path d="M111.8 13.7999C111.8 13.7999 127.7 1.29991 135.1 5.29991C142.5 9.29991 133.5 30.1999 130.9 34.0999C128.4 37.8999 108.8 20.3999 111.8 13.7999Z" fill="#F6EBEF"/>
<path d="M131 34.1C129.5 36.3 122.3 31.4 117.1 25.6C119.2 21.9 124 14 128.6 10.8C133.9 7.2 137.1 9.1 137.9 9.7C139.1 17.2 133 31 131 34.1Z" fill="#EAD6DE"/>
<path d="M165.7 212.2C165.6 213.6 164.4 214.7 163 214.7C143.4 214.7 20 214.6 18.2 214.6C16.3 214.6 12.5 203.6 23.9 199.6C23.9 199.6 20.1 179.4 28.6 143.5C37.4001 106.7 51.2 85.4999 51.2 85.4999C51.2 85.4999 37.5 77.0999 36.5 61.0999C35.5 44.9999 47.4 25.3999 60 16.7999C72.5 8.09994 84 7.99994 99.4 9.49994C114.8 10.9999 124.7 18.9999 133.3 30.6999C142.3 42.9999 146.3 60.2999 141.9 72.2999C138.3 82.0999 131.4 86.5999 131.4 86.5999C131.4 86.5999 133.3 89.9999 136.1 96.0999C140.5 105.4 147.1 120.9 152.9 139.5C153.3 140.8 153.7 142.1 154 143.4C154.9 146.6 155.6 149.8 156.3 152.9C157.8 160.2 158.6 167.2 159 173.5C160 189 158.4 199.9 158.4 199.9C158.4 199.9 166.6 201.9 165.7 212.2Z" fill="#F6EBEF"/>
<path d="M88.3 65.5C88.3 65.5 84.2001 64.1 82.3001 61.7C80.3001 59.3 81.7 56.5 88.3 56.5C95.3 56.5 95.6001 59.6 93.7001 62C91.8001 64.3 88.3 65.5 88.3 65.5Z" fill="#1B1C1E" stroke="#1B1C1E" stroke-width="1.0185" stroke-miterlimit="10"/>
<path d="M88.3 65.4999V70.8999C87.2 71.1999 86.2 71.5999 85.2 72.0999C79.3 75.2999 73.6 67.6999 78.3 62.8999C79.2 61.8999 80.4 61.0999 81.9 60.2999" stroke="#1B1C1E" stroke-width="1.0185" stroke-miterlimit="10"/>
<path d="M88.3 65.4999V70.8999C89.6 71.1999 90.7 71.6999 91.8 72.2999C96.9 75.1999 102.5 69.0999 99.2001 64.2999C98.0001 62.5999 96.3 61.1999 93.8 60.2999" stroke="#1B1C1E" stroke-width="1.0185" stroke-miterlimit="10"/>
<path d="M83.2001 73.3999C83.2001 73.3999 85.5001 74.5999 88.0001 74.5999C90.3001 74.5999 93.8001 73.5999 93.8001 73.5999" stroke="#1B1C1E" stroke-width="1.0185" stroke-miterlimit="10"/>
<path d="M66.8 47.3999C64 47.3999 60.4 48.0999 58.4 50.9999C55.6 55.2999 59 60.6999 65.8 60.7999C72.6 60.8999 76.4 57.3999 75.2 52.8999C74 48.3999 68.5 47.3999 66.8 47.3999Z" fill="#FBAF5E" stroke="#1B1C1E" stroke-miterlimit="10"/>
<path d="M66.8 59.6C69.2853 59.6 71.3 57.048 71.3 53.8999C71.3 50.7519 69.2853 48.2 66.8 48.2C64.3148 48.2 62.3 50.7519 62.3 53.8999C62.3 57.048 64.3148 59.6 66.8 59.6Z" fill="#1B1C1E"/>
<path d="M110.4 47.3999C113.2 47.3999 116.8 48.0999 118.8 50.9999C121.6 55.2999 118.2 60.6999 111.4 60.7999C104.6 60.8999 100.8 57.3999 102 52.8999C103.2 48.3999 108.7 47.3999 110.4 47.3999Z" fill="#FBAF5E" stroke="#1B1C1E" stroke-miterlimit="10"/>
<path d="M110.4 59.6C112.83 59.6 114.8 57.048 114.8 53.8999C114.8 50.7519 112.83 48.2 110.4 48.2C107.97 48.2 106 50.7519 106 53.8999C106 57.048 107.97 59.6 110.4 59.6Z" fill="#1B1C1E"/>
<path d="M38.6001 166.2C38.6001 166.2 46.0001 213.3 49.0001 214.7" stroke="#1B1C1E" stroke-miterlimit="10"/>
<path d="M79.8 214.6C79.8 214.6 80.3 207.8 75.5 205C70.7 202.3 70.7 200.2 70.2 189.2C69.7 178.3 70.2 128.1 70.2 128.1" stroke="#1B1C1E" stroke-miterlimit="10"/>
<path d="M122.3 214.6C122.3 214.6 126.2 211.9 133.2 163.7" stroke="#1B1C1E" stroke-miterlimit="10"/>
<path d="M72.6 214.7C72.6 214.7 72.9 210.6 70.5 208.5" stroke="#1B1C1E" stroke-miterlimit="10"/>
<path d="M62.2 214.6C62.2 214.6 61.7 212.3 60 211.6" stroke="#1B1C1E" stroke-miterlimit="10"/>
<path d="M102.1 214.6C102.1 214.6 101.5 210.8 103.7 208.5" stroke="#1B1C1E" stroke-miterlimit="10"/>
<path d="M110.9 214.6C110.9 214.6 111.2 211 112.5 209.9" stroke="#1B1C1E" stroke-miterlimit="10"/>
<path d="M158.3 199.9C158.3 199.9 147.5 197.3 140.6 203" stroke="#1B1C1E" stroke-miterlimit="10"/>
<path d="M157.2 207.3C157.2 207.3 158.3 212.8 156.9 214.7" stroke="#1B1C1E" stroke-miterlimit="10"/>
<path d="M148.5 214.6C148.5 214.6 147.4 211.7 148.3 208.7" stroke="#1B1C1E" stroke-miterlimit="10"/>
<path d="M23.8 199.6C23.8 199.6 28.7 197.8 33.2 199.6" stroke="#1B1C1E" stroke-miterlimit="10"/>
<path d="M22.8 214.6C22.8 214.6 21.8 210 23.8 208.1" stroke="#1B1C1E" stroke-miterlimit="10"/>
<path d="M30.5 214.6C30.5 214.6 31.6 212.2 32.2 210.1" stroke="#1B1C1E" stroke-miterlimit="10"/>
<path d="M154 143.4C142.4 145 130 136.3 127.8 120.7C125.9 107.3 132.7 99.2 136 96.1C140.4 105.4 147 120.9 152.8 139.5C153.2 140.8 153.6 142.1 154 143.4Z" fill="#513F3B"/>
<path d="M158.9 173.5C155.1 172.3 151.8 169.1 151.5 163.7C151.2 158.2 153.7 154.8 156.3 152.9C157.7 160.2 158.5 167.2 158.9 173.5Z" fill="#FBAF5E"/>
<path d="M103.8 128.2C103.8 128.2 103.3 198.2 99.6001 202.2C96.0001 206.3 92.5001 209.3 94.0001 214.5" stroke="#1B1C1E" stroke-miterlimit="10"/>
<path d="M68.1001 34.6C60.1001 41.2 48.3001 39.4 42.2001 37.8C46.7001 29.1 53.2001 21.3 59.9001 16.7C66.5001 12.1 72.8001 9.89998 79.5001 9.09998C79.5001 9.09998 80.8001 24.1 68.1001 34.6Z" fill="#FBAF5E"/>
<mask id="mask0_70_1562" style="mask-type:luminance" maskUnits="userSpaceOnUse" x="108" y="86" width="29" height="12">
<path d="M136.4 96.9C117.4 99.9 108.2 94.7 108.2 94.7C123.5 92.1 131.3 86.6 131.3 86.6C131.3 86.6 133.2 90 136 96.1C136.1 96.3 136.2 96.6 136.4 96.9Z" fill="white"/>
</mask>
<g mask="url(#mask0_70_1562)">
<g opacity="0.88">
<path d="M125 92.9C125 92.8 125 92.7 125 92.6C124.9 92.7 124.9 92.7 125 92.9Z" fill="#443730"/>
<path d="M123.8 89.8C123.8 89.7 123.7 89.7 123.7 89.7C123.7 89.8 123.8 89.8 123.8 89.8Z" fill="#443730"/>
<path d="M131.1 90.6999L131.2 90.5999C131.1 90.4999 131.1 90.5999 131.1 90.6999Z" fill="#443730"/>
<path d="M130.7 90.4C130.8 90.3 130.8 90.3 130.7 90.4V90.4Z" fill="#443730"/>
<path d="M131 91.6999C131 91.5999 131 91.4999 131 91.3999C130.9 91.4999 130.9 91.5999 131 91.6999Z" fill="#443730"/>
<path d="M116.1 94.8999C116 94.8999 116 94.9999 115.9 94.9999C116.1 95.0999 116.1 95.0999 116.1 94.8999Z" fill="#443730"/>
<path d="M129.1 91.3999C128.7 90.5999 129.3 91.2999 128.9 90.4999C128.9 90.6999 128.8 90.8999 128.6 90.4999C128.5 89.9999 128.9 90.3999 128.6 89.6999V89.9999C128.3 89.6999 128.2 89.0999 128.2 89.1999C128.5 90.1999 127.6 88.9999 127.5 89.2999V89.1999L127.1 88.8999C127.1 88.8999 127.1 88.8999 127.1 88.7999C127.1 88.8999 127.1 88.8999 127.2 88.9999C126.9 88.5999 126.6 88.2999 126.4 88.4999C126.6 89.0999 125.9 88.8999 126 89.3999C126 89.1999 126.1 89.1999 126.3 89.2999L126.6 89.9999C126.4 90.0999 126.3 89.3999 126.3 89.8999C126.7 90.7999 126.6 89.7999 126.7 89.7999C126.7 89.9999 126.7 90.1999 126.7 90.3999C127 90.2999 127.4 90.4999 127.2 89.5999C127.4 89.7999 127.5 90.0999 127.5 90.2999C127.5 89.6999 127.9 90.6999 127.8 90.1999C128.1 91.0999 127.6 90.7999 127.6 91.2999C127.1 90.6999 127 91.4999 126.8 91.6999C126.5 91.0999 126.5 90.4999 126.3 90.1999C125.9 89.8999 126.2 90.5999 126.1 91.0999C125.8 90.9999 125.7 90.0999 125.4 90.1999V89.6999C124.9 88.8999 125.4 90.0999 125.2 89.9999C125.3 90.1999 125.4 90.3999 125.6 90.2999C125.7 90.5999 125.7 90.7999 125.6 90.7999C125.7 91.1999 125.9 91.6999 125.6 91.5999C125.5 90.9999 125.3 91.2999 125.2 90.9999V90.8999C125.1 91.0999 124.9 91.0999 124.9 91.1999V91.0999C124.9 91.2999 125.1 91.9999 124.9 91.8999C124.8 91.5999 124.8 90.8999 124.6 90.9999C124.5 90.5999 124.7 90.4999 124.9 90.5999C124.7 90.4999 124.4 89.8999 124.6 89.7999C124.4 89.2999 124.5 90.0999 124.3 89.8999C124.4 89.9999 124.4 90.1999 124.5 90.3999C124.3 89.6999 124.1 90.4999 124.3 90.8999L124.4 90.4999C124.6 90.9999 124.5 91.4999 124.7 91.6999C124.3 90.8999 124.3 92.2999 124 91.5999L124.2 91.9999C123.7 91.8999 123.7 92.9999 123.4 93.2999C123.5 92.9999 123.2 92.0999 123.5 92.2999C123.1 92.1999 123.1 91.3999 122.8 90.9999C122.4 90.6999 122.9 91.8999 122.9 92.1999L123 91.9999C123.1 93.1999 122.2 91.9999 122 92.7999C121.9 92.4999 122 92.5999 122.1 92.4999C121.7 91.9999 122 92.6999 121.9 92.8999C121.7 92.8999 121.4 92.6999 121.3 91.9999C121 91.8999 121.4 92.3999 121.4 92.6999L121.3 92.5999V93.3999C121.1 93.1999 120.7 92.8999 120.5 92.2999C120.1 92.4999 120.8 93.8999 120.6 94.1999C120.3 93.8999 120.5 93.6999 120.4 93.3999L120.1 93.4999C120 92.6999 120.3 92.9999 120 92.0999C120 93.0999 119.8 92.3999 119.6 93.0999V93.1999C119.6 93.8999 119.2 93.4999 119 93.6999C119 93.2999 119.2 93.1999 119.3 92.9999C119 92.6999 118.6 93.1999 118.6 93.9999C118.5 93.8999 118.1 93.5999 118.2 93.2999C117.8 93.2999 118.3 94.4999 117.9 94.2999L117.8 93.6999C117.2 92.8999 117.2 94.6999 116.7 93.8999L116.8 94.6999C116.7 94.3999 116.5 94.2999 116.4 93.9999L116.5 93.6999C116.2 93.0999 116.4 94.2999 116.2 93.8999C116.2 94.0999 116.5 94.5999 116.6 94.8999C117.3 94.2999 118.4 95.1999 119 94.1999C118.9 94.0999 118.9 93.9999 118.9 93.8999C119 94.0999 119.1 93.7999 119.2 94.1999V94.2999C119.4 94.0999 119.8 94.8999 119.9 94.8999C119.8 94.3999 120.4 94.9999 120.1 94.1999L120.4 94.6999C120.4 94.3999 120.2 93.9999 120.3 93.7999C120.5 93.7999 120.6 94.1999 120.5 94.3999C121.1 94.5999 121.8 94.2999 122.3 93.8999V94.2999C122.5 94.4999 122.6 93.3999 122.8 94.4999C122.9 93.9999 123.6 94.5999 123.3 93.4999C123.8 94.4999 124.1 93.6999 124.4 93.4999C124 92.5999 124.6 93.0999 124.6 92.6999C124.9 93.3999 124.5 93.4999 124.7 93.9999C124.7 92.7999 126.1 94.3999 125.6 92.5999C125.7 92.6999 125.7 92.6999 125.7 92.7999C125.8 92.7999 126 92.9999 126.1 93.0999C126 92.7999 125.8 92.6999 125.9 92.4999C126.1 92.4999 126.2 92.9999 126.3 93.1999C126.4 92.6999 126.8 92.3999 126.5 91.5999C126.7 91.7999 126.9 92.0999 126.9 92.2999C127.1 91.5999 127.3 92.1999 127.6 91.6999C127.5 91.7999 127.8 92.4999 127.5 92.2999C128.1 93.1999 128.1 91.8999 128.6 92.1999L128.5 91.4999C128.7 91.2999 128.9 91.8999 128.9 92.1999C129.4 92.3999 129.4 91.9999 129.7 91.7999C129.8 91.8999 129.8 91.9999 129.7 91.9999L130.1 91.7999C130.1 91.5999 130.1 91.1999 129.9 90.8999C129.4 91.2999 129.4 91.5999 129.1 91.3999Z" fill="#443730"/>
<path d="M124.7 89.6C124.8 89.7 124.9 89.8 124.9 89.8C124.8 89.7 124.7 89.6 124.7 89.6Z" fill="#443730"/>
<path d="M132.2 88.0999C131.7 87.1999 132.1 88.3999 131.8 88.1999C131.9 87.9999 131.6 87.4999 131.4 87.1999C131.8 88.4999 131.1 87.0999 130.8 87.4999C130.6 87.0999 130.7 86.9999 130.5 86.4999C130.5 86.8999 130.3 87.1999 130.6 87.8999C130.3 88.0999 129.9 87.8999 129.8 88.0999C129.9 87.6999 129.5 87.3999 129.4 86.6999C129.6 87.5999 129.5 88.7999 129.6 89.9999C129.2 89.2999 129.2 89.1999 128.9 88.4999C128.3 88.1999 129.1 89.2999 128.6 89.1999L128.8 89.2999C128.7 89.5999 129 90.2999 129.2 90.8999L129.6 90.5999C129.8 91.0999 129.5 91.1999 129.5 91.2999C129.6 91.9999 129.9 91.5999 130.1 92.0999C130 91.6999 130.2 91.6999 130.3 91.4999L130.4 91.7999C130.8 91.9999 130.5 91.1999 130.7 91.1999C130.8 91.2999 130.8 91.2999 130.8 91.3999C130.7 91.0999 130.6 90.5999 130.7 90.4999L130.6 90.5999C130.4 89.8999 130.6 89.2999 130 88.6999H130.5C130.8 89.3999 131.3 90.5999 131 90.7999L131.1 91.0999C131.5 91.3999 131.4 90.2999 130.9 89.6999C130.2 87.8999 131.6 89.2999 131.5 88.3999C131.8 88.8999 131.7 89.0999 131.8 89.4999C131.7 89.5999 131.7 89.6999 131.5 89.2999C131.2 89.7999 132.3 90.6999 131.8 90.7999C131.4 90.6999 131.7 89.8999 131.3 89.9999L131.7 91.3999C131.9 91.2999 132 90.8999 132.1 90.6999C132.6 89.2999 133.7 89.6999 133.7 89.6999C135 88.7999 136.3 87.7999 137.6 86.7999C137.9 86.2999 138.1 86.2999 137.4 84.9999C137.1 84.7999 137 85.0999 136.8 84.5999C137.1 85.0999 137.1 85.3999 136.8 85.4999C136.5 85.0999 136.8 85.1999 136.7 85.0999H136.6C136.5 84.8999 136.4 84.6999 136.5 84.5999C135.8 84.0999 135.5 84.4999 135.9 85.4999C135.4 85.1999 135.6 84.6999 135.4 84.2999C134.5 84.3999 134.1 84.6999 133.4 85.0999C133.9 85.8999 133.6 85.5999 133.9 86.2999L133.7 85.9999C133.8 86.0999 134 86.6999 134.3 86.7999C133.5 86.3999 134.4 88.0999 134.3 88.6999L134.1 88.2999C133.9 88.4999 133.8 88.5999 133.8 88.8999C133 88.2999 134.1 88.5999 133.4 87.5999V87.7999C133.2 87.3999 132.9 86.5999 132.9 86.2999C132.9 87.1999 132.3 86.2999 132.2 86.9999C132 86.4999 132.1 85.9999 132.2 85.7999C132 85.7999 132 86.2999 131.8 85.8999L132.1 86.4999C131.9 86.6999 131.8 85.8999 131.6 85.5999C131 85.8999 132.5 87.4999 132.2 88.0999Z" fill="#443730"/>
<path d="M126.3 90.3999C126.4 90.3999 126.4 90.3999 126.5 90.2999C126.4 90.2999 126.3 90.2999 126.3 90.3999Z" fill="#443730"/>
<path d="M126.9 88.8C126.9 88.7 126.8 88.6 126.8 88.6C126.9 88.6 126.9 88.7 126.9 88.8Z" fill="#443730"/>
<path d="M126.7 87.8999C126.8 88.1999 126.8 88.1999 126.9 88.5999C126.8 88.2999 127 88.1999 126.7 87.8999Z" fill="#443730"/>
<path d="M108.5 93.3L108.7 93.5L108.8 92.6C108.6 92.7 108.7 93.3 108.5 93.3Z" fill="#443730"/>
<path d="M109.2 93.3999V92.7L108.9 93.2L109.2 93.3999C109.1 93.5999 109.2 93.7 109.2 93.8V93.3999Z" fill="#443730"/>
<path d="M110.1 94.4999C110 94.2999 110.1 93.8999 110.1 93.5999C109.8 93.3999 109.9 94.2999 109.7 94.0999C110 93.5999 109.5 93.6999 109.4 93.3999C109.5 93.9999 109.7 94.3999 109.9 94.5999V94.1999C110 94.0999 110 94.2999 110.1 94.4999Z" fill="#443730"/>
<path d="M111.2 93.4L111.1 94C111 93.7 110.7 93.7 110.7 93.1C110.6 93.2 110.6 93.5 110.6 93.7C110.5 93.4 110.4 93.1 110.3 93.6C110.8 94 110.7 94.1 111.1 94.3C111.1 94.4 111.1 94.4 111 94.4L111.3 94.7C111.2 93.9 111.5 93.8 111.2 93.4Z" fill="#443730"/>
<path d="M111.7 93.7999C111.5 93.8999 111.5 94.4999 111.6 94.7999L112 94.1999C111.8 94.2999 111.7 94.3999 111.7 93.7999Z" fill="#443730"/>
<path d="M111.9 93.8C112 94.1 112.3 94.8 112.3 94.1C112.1 94.2 112.1 93.3 111.9 93.8Z" fill="#443730"/>
<path d="M113.5 94.1L113 93.8C112.8 93 113.1 93.5 113.2 93.1C112.8 93 113 93.2 112.8 93.8C112.7 93.8 112.6 94.2 112.5 94.4C113 93.7 113.3 95.7 113.5 94.1Z" fill="#443730"/>
<path d="M112.6 93.3999V93.7999L112.7 93.4999L112.6 93.3999Z" fill="#443730"/>
<path d="M114.6 94.8999C115 95.7999 115 94.2999 115.3 94.5999C115.3 94.6999 115.3 94.6999 115.3 94.8999L115.5 94.7999L115.6 94.9999C115.5 94.3999 115.7 94.1999 115.7 93.6999C115.3 93.0999 115.7 94.3999 115.4 93.7999C115.4 93.4999 115.4 93.0999 115.4 92.8999C115.3 93.1999 115.4 93.5999 115.4 93.8999C115.3 93.9999 115.2 93.6999 115.2 93.3999C115.1 93.7999 115.3 94.5999 115 94.4999C114.7 93.9999 115 93.6999 114.7 93.9999C115 94.8999 114.4 93.8999 114.4 94.4999C114.2 94.3999 113.9 93.7999 113.9 93.4999C114 94.1999 113.9 94.7999 113.8 95.0999L114.1 94.4999L114.4 95.2999C114.2 94.6999 114.4 94.6999 114.6 94.8999Z" fill="#443730"/>
<path d="M113.6 93.2V93L113.5 92.7L113.6 93.2Z" fill="#443730"/>
<path d="M115.3 92.2C115.2 92.2 115.3 92.5 115.3 92.5V92.1V92.2Z" fill="#443730"/>
<path d="M115.6 92.7L115.9 93.2V92.8L115.6 92.7Z" fill="#443730"/>
<path d="M120.5 91.9999C120.3 91.7999 120.4 92.2999 120.5 92.6999C120.8 92.6999 120.4 92.1999 120.5 91.9999Z" fill="#443730"/>
<path d="M123.2 90.3999C122.9 90.0999 122.9 90.6999 122.8 90.6999C123 90.8999 123.2 90.6999 123.2 90.3999Z" fill="#443730"/>
<path d="M123.7 88.1C123.7 88.3 123.7 88.4 123.8 88.4L124 89.4C124.4 89.7 123.9 88.5 123.7 88.1Z" fill="#443730"/>
<path d="M125 87.3999L124.9 87.7999H125C125.1 88.1999 125.1 88.3999 125.2 88.6999C125.3 88.4999 125.3 88.0999 125 87.3999Z" fill="#443730"/>
<path d="M125.1 89.1C125.1 89 125.2 89 125.1 89.1C125 88.7 125.1 88.9 125.1 89.1Z" fill="#443730"/>
<path d="M125.3 88.8999V88.7999C125.2 88.8999 125.2 88.8999 125.3 88.8999C125.3 89.0999 125.2 89.0999 125.3 88.8999Z" fill="#443730"/>
<path d="M125.4 87.7999L125.7 87.4999L125.5 87.3999C125.7 88.0999 125.2 87.1999 125.4 87.7999Z" fill="#443730"/>
<path d="M127.5 87.5L127.8 88C128.1 88 127.8 86.7 128.4 87.5C128.1 87.2 128.3 86.8 127.9 86.7C128.1 87.4 127.8 87.6 127.5 87.5Z" fill="#443730"/>
<path d="M128.8 87.8999C128.8 88.0999 128.9 88.2 129.1 88.3C129.2 88.3 129.2 88 129 87.8C129.2 88.6 128.7 87.3999 128.8 87.8999Z" fill="#443730"/>
<path d="M129.9 87.3999C129.8 87.3999 129.8 87.4999 129.9 87.5999C130.1 87.4999 129.7 86.8999 129.6 86.3999C129.3 86.1999 129.6 87.0999 129.9 87.3999Z" fill="#443730"/>
<path d="M133.6 90.5C133.3 90 133.2 90.2 133.2 90.4C133.2 90.3 133.4 90.4 133.6 90.5Z" fill="#443730"/>
<path d="M131.6 86.7L131.4 86.6L131.8 87.3L131.6 86.7Z" fill="#443730"/>
</g>
</g>
<mask id="mask1_70_1562" style="mask-type:luminance" maskUnits="userSpaceOnUse" x="44" y="85" width="26" height="14">
<path d="M69.7001 93.4999C69.7001 93.4999 53.3001 98.8999 44.1001 98.4999C48.1001 89.9999 51.1001 85.3999 51.1001 85.3999C51.1001 85.3999 56.9001 90.7999 69.7001 93.4999Z" fill="white"/>
</mask>
<g mask="url(#mask1_70_1562)">
<g opacity="0.88">
<path d="M58 88.8999C58 88.9999 57.9 88.9999 57.8 89.0999C57.8 89.0999 57.9 89.0999 58 88.8999Z" fill="#443730"/>
<path d="M63.8 91.3L63.9 91C63.8 91.1 63.8 91.2 63.8 91.3Z" fill="#443730"/>
<path d="M56.7 90.6C56.6 90.6 56.5 90.7 56.4 90.9L56.7 90.6Z" fill="#443730"/>
<path d="M52.5001 86.3C52.4001 86.2 52.5001 86.2 52.5001 86.3H52.4001C52.3001 86.3 52.4001 86.3 52.5001 86.3Z" fill="#443730"/>
<path d="M48.2 88.5L48 88.8C48.1 88.7 48.2 88.6 48.2 88.5Z" fill="#443730"/>
<path d="M53.3001 85.7C53.2001 85.7 53.2001 85.7999 53.1001 85.8999C53.2001 85.7999 53.3001 85.8 53.3001 85.7Z" fill="#443730"/>
<path d="M58 88.7999C58 88.8999 58 88.8999 57.9 88.8999C58 88.8999 58 88.7999 58 88.7999Z" fill="#443730"/>
<path d="M66.1001 91.8C66.2001 91.8 66.2001 91.8 66.3001 91.7C66.2001 91.6 66.2001 91.6 66.1001 91.8Z" fill="#443730"/>
<path d="M54.2 87.3C53.9 88.2 54 87.2 53.6 88.1C53.8 88 53.9 87.9 53.8 88.3C53.5 88.7 53.6 88.2 53.2 88.8L53.5 88.6C53.5 89 53.1 89.5 53.2 89.5C53.8 88.6 53.5 90.1 53.7 90L53.6 90.1V90.7C53.6 90.7 53.6 90.7 53.6 90.8C53.6 90.7 53.7 90.7 53.7 90.6C53.6 91.1 53.6 91.5 53.9 91.5C54.2 91 54.6 91.6 54.9 91.2C54.8 91.3 54.7 91.3 54.6 91.1L54.9 90.5C55.1 90.6 54.7 91.1 55 90.8C55.3 89.9 54.7 90.7 54.6 90.5C54.7 90.3 54.9 90.2 55 90.1C54.7 90 54.6 89.6 54.1 90.4C54.1 90.2 54.3 89.8 54.4 89.8C54 90.2 54.5 89.2 54.1 89.6C54.5 88.8 54.7 89.3 55 88.9C55 89.7 55.5 89.2 55.9 89.1C55.7 89.7 55.3 90.2 55.2 90.6C55.3 91.1 55.6 90.4 55.9 90.1C56 90.4 55.5 91.1 55.8 91.3L55.5 91.6C55.3 92.5 55.8 91.3 55.9 91.6C55.9 91.4 56 91.1 55.9 91.1C56 90.8 56.2 90.7 56.2 90.7C56.4 90.3 56.6 89.9 56.7 90.1C56.4 90.6 56.7 90.5 56.7 90.8L56.6 90.9C56.8 90.8 56.9 90.9 57.1 90.8L57 90.9C57.2 90.7 57.5 90.1 57.6 90.3C57.5 90.6 57 91.2 57.3 91.1C57.1 91.5 56.9 91.4 56.8 91.2C56.9 91.4 56.8 92.1 56.5 92C56.4 92.5 56.8 91.9 56.8 92.1C56.8 91.9 56.9 91.8 57 91.6C56.8 92.3 57.4 91.8 57.5 91.3L57.2 91.6C57.4 91.1 57.7 90.8 57.8 90.5C57.6 91.4 58.4 90.3 58.3 91L58.4 90.5C58.7 90.9 59.3 90 59.8 89.9C59.6 90.1 59.3 91.1 59.1 90.7C59.4 91 58.9 91.7 58.9 92.2C59.1 92.6 59.3 91.4 59.5 91.1L59.2 91.2C59.8 90.2 59.9 91.7 60.5 91.1C60.4 91.4 60.4 91.2 60.3 91.3C60.3 91.9 60.5 91.2 60.7 91.1C60.9 91.2 61 91.6 60.7 92.2C60.9 92.4 60.8 91.8 61 91.6V91.8L61.4 91.1C61.5 91.4 61.6 91.8 61.5 92.5C62 92.5 62.1 91 62.5 90.8C62.6 91.2 62.3 91.3 62.2 91.6H62.5C62.2 92.3 62.1 91.9 61.8 92.8C62.3 91.9 62.2 92.6 62.6 92.1V92C62.9 91.4 63.1 91.9 63.3 91.9C63.1 92.3 62.9 92.2 62.8 92.4C62.9 92.8 63.5 92.6 63.9 91.8C64 92 64.1 92.3 63.9 92.6C64.3 92.8 64.3 91.5 64.6 91.8L64.4 92.4C64.6 93.4 65.3 91.8 65.5 92.6L65.7 91.9C65.7 92.2 65.8 92.4 65.8 92.7L65.6 92.9C65.6 93.6 65.9 92.3 66 92.8C66 92.6 66 92 66 91.8C65.1 92.1 64.6 90.9 63.7 91.4C63.7 91.5 63.7 91.6 63.7 91.7C63.7 91.5 63.5 91.7 63.6 91.3C63.4 91.4 63.4 90.5 63.3 90.4C63.1 90.9 62.9 90.1 62.8 91V90.4C62.7 90.7 62.6 91.1 62.5 91.3C62.4 91.2 62.5 90.9 62.6 90.7C62.2 90.2 61.5 90.1 60.9 90.2L61.2 89.8C61.1 89.6 60.5 90.4 60.9 89.4C60.5 89.7 60.3 88.9 59.9 90C60.1 88.9 59.4 89.4 59 89.4C58.8 90.3 58.6 89.5 58.4 89.9C58.6 89.2 58.9 89.3 59.1 88.8C58.4 89.8 58.4 87.7 57.6 89.4C57.6 89.3 57.6 89.2 57.6 89.2C57.5 89.2 57.6 88.8 57.5 88.7C57.3 89 57.4 89.2 57.2 89.2C57.1 89.1 57.4 88.6 57.4 88.4C57 88.7 56.5 88.7 56.2 89.4C56.2 89.2 56.3 88.7 56.4 88.6C55.8 89 56.1 88.3 55.5 88.5C55.7 88.5 55.9 87.8 56 88.2C56.2 87.1 55.3 88.1 55.2 87.5L54.8 88.1C54.6 88.1 54.8 87.5 55 87.3C54.8 86.8 54.5 87.1 54.3 87C54.3 86.9 54.4 86.8 54.4 86.8L54.1 86.6C54 86.7 53.7 87 53.6 87.4C54 87.1 54.1 86.9 54.2 87.3Z" fill="#443730"/>
<path d="M53.8001 87.3999C53.7001 87.4999 53.8001 87.4999 53.8001 87.3999V87.3999Z" fill="#443730"/>
<path d="M49.8 86.8999C49.4 87.8999 50.1001 86.8999 50.1001 87.1999C49.9001 87.2999 49.6 87.7999 49.5 88.0999C50.3 86.9999 49.6001 88.4999 50.1001 88.3999C49.9001 88.7999 49.7 88.7999 49.5 89.1999C49.8 88.9999 50.2001 88.9999 50.6001 88.2999C50.9001 88.3999 51 88.7999 51.3 88.7999C50.9 88.9999 50.9 89.4999 50.5 89.9999C51.1 89.2999 52.1 88.5999 52.9 87.7999C52.6 88.5999 52.6 88.6999 52.2 89.2999C52.4 89.9999 52.6 88.6999 52.9 88.9999L52.8 88.7999C53.1 88.6999 53.4 87.8999 53.7 87.4999L53.2 87.3999C53.4 86.8999 53.7 87.0999 53.8 86.9999C54.2 86.3999 53.8 86.4999 54 85.9999C53.8 86.3999 53.6 86.1999 53.5 86.2999L53.6001 85.9999C53.5001 85.5999 53.1 86.2999 52.9 86.1999C52.9 86.0999 52.9 86.0999 53 85.9999C52.8 86.2999 52.5 86.5999 52.4 86.6999H52.5C52 87.2999 51.4 87.4999 51.3 88.3999L51 87.9999C51.4 87.2999 52 86.1999 52.3 86.2999L52.5 85.9999C52.5 85.4999 51.7 86.2999 51.5 86.9999C50.4 88.5999 50.8001 86.6999 50.1001 87.2999C50.3001 86.7999 50.6 86.6999 50.8 86.3999C50.9 86.3999 51 86.3999 50.8 86.7999C51.3 86.6999 51.5 85.2999 51.8 85.6999C51.9 85.9999 51.1 86.2999 51.4 86.4999L52.3 85.2999C52.1 85.1999 51.8001 85.3999 51.6001 85.3999C50.3001 85.7999 50 84.6999 50 84.6999C48.6 84.0999 47.3 83.4999 46 82.7999C45.5 82.6999 45.4 82.5999 44.4 83.5999C44.3 83.8999 44.6 83.9999 44.3 84.2999C44.7 83.8999 45.0001 83.7999 45.1001 83.8999C44.8001 84.2999 44.8 83.9999 44.8 84.0999V84.1999C44.6 84.3999 44.5 84.4999 44.4 84.4999C44.2 85.2999 44.7 85.4999 45.5 84.7999C45.4 85.3999 44.9001 85.3999 44.6001 85.6999C45.1001 86.4999 45.6 86.6999 46.3 87.1999C46.8 86.3999 46.7001 86.6999 47.1001 86.2999L47 86.5999C47.1 86.3999 47.5 85.8999 47.4 85.6999C47.4 86.5999 48.5 84.8999 49 84.6999L48.7 85.0999C49 85.1999 49 85.1999 49.4 85.0999C49.3 86.0999 49 84.9999 48.5 86.0999L48.7 85.9999C48.4 86.3999 48 86.9999 47.7 87.1999C48.4 86.6999 48.1 87.7999 48.8 87.4999C48.5 87.8999 47.9 88.0999 47.8 88.0999C47.9 88.1999 48.3001 87.9999 48.1001 88.4999L48.4 87.8999C48.7 87.9999 48.1 88.3999 47.9 88.7999C48.7 89.0999 49.2 86.9999 49.8 86.8999Z" fill="#443730"/>
<path d="M55.4001 89.9C55.4001 89.8 55.3001 89.8 55.2001 89.9C55.2001 89.9 55.3001 89.9 55.4001 89.9Z" fill="#443730"/>
<path d="M53.7001 90.6C53.7001 90.7 53.6001 90.8 53.6001 90.8C53.7001 90.8 53.7001 90.7 53.7001 90.6Z" fill="#443730"/>
<path d="M53.3 91.3999C53.4 91.0999 53.5 91.0999 53.7 90.7999C53.5 90.9999 53.3 90.8999 53.3 91.3999Z" fill="#443730"/>
<path d="M69.6001 94.1999C69.6001 93.8999 69.5 93.1999 69.3 93.7999C69.5 93.6999 69.3001 94.5999 69.6001 94.1999Z" fill="#443730"/>
<path d="M68.2001 93.4L68.5001 93.9C68.4001 94.7 68.3001 94.1 68.1001 94.5C68.4001 94.7 68.4001 94.4 68.7001 94C68.8001 94.1 69.0001 93.7 69.1001 93.5C68.5001 94 68.8001 92 68.2001 93.4Z" fill="#443730"/>
<path d="M68.9001 94.4L69.0001 94L68.7001 94.3L68.9001 94.4Z" fill="#443730"/>
<path d="M67.4 92.4C67.3 91.4 66.9 92.8 66.7 92.4C66.7 92.4 66.7 92.3 66.8 92.2L66.6 92.3V92.1C66.5 92.7 66.2 92.8 66 93.3C66.1 94 66.3 92.6 66.3 93.3C66.2 93.5 66.1 93.9 66 94.1C66.2 93.8 66.3 93.5 66.4 93.2C66.6 93.2 66.5 93.5 66.4 93.7C66.6 93.4 66.8 92.6 67 92.8C67.1 93.3 66.8 93.6 67.1 93.4C67.1 92.5 67.4 93.6 67.6 93C67.8 93.2 67.8 93.8 67.7 94.1C67.8 93.4 68.1 92.8 68.3 92.6L67.8 93.1V92.3C67.7 92.7 67.6 92.6 67.4 92.4Z" fill="#443730"/>
<path d="M66.1 94L66 94.1C66 94.1 66 94.1 66.1 94Z" fill="#443730"/>
<path d="M67.8001 94.2999L67.7001 94.4999V94.6999L67.8001 94.2999Z" fill="#443730"/>
<path d="M65.8001 94.5C65.8001 94.5 65.9001 94.3 65.9001 94.2L65.7001 94.6L65.8001 94.5Z" fill="#443730"/>
<path d="M65.6 94V93.5L65.5 93.8L65.6 94Z" fill="#443730"/>
<path d="M60.9 92.2999C61 92.5999 61.1 92.0999 61.3 91.6999C61.1 91.4999 61.1 92.0999 60.9 92.2999Z" fill="#443730"/>
<path d="M57.7001 91.9999C57.7001 92.3999 58.1001 91.8999 58.2001 91.9999C58.2001 91.6999 57.9001 91.7999 57.7001 91.9999Z" fill="#443730"/>
<path d="M55.7001 93.4C55.8001 93.2 55.9001 93.2 55.8001 93.1L56.3001 92.2C56.3001 91.7 55.9001 93 55.7001 93.4Z" fill="#443730"/>
<path d="M54.2001 92.8999L54.6001 92.6L54.5001 92.5C54.7001 92.1 54.8001 92 55.0001 91.7C54.8001 91.9 54.5001 92.1999 54.2001 92.8999Z" fill="#443730"/>
<path d="M55.3001 91.7H55.2C55.2 91.8 55.1001 92 55.3001 91.7Z" fill="#443730"/>
<path d="M55.1001 91.7C55.1001 91.8 55.2001 91.7 55.1001 91.7C55.2001 91.6 55.2001 91.6 55.1001 91.7Z" fill="#443730"/>
<path d="M54.2 92.3999L53.8 92.2999L53.9 92.4999C54.1 91.9999 53.9 92.9999 54.2 92.3999Z" fill="#443730"/>
<path d="M52.3 90.9999L52.5 90.3999C52.3 90.1999 51.4 91.1999 51.7 90.2999C51.7 90.6999 51.2 90.7999 51.4 91.0999C51.8 90.6999 52.2 90.7999 52.3 90.9999Z" fill="#443730"/>
<path d="M51.8001 89.7C51.9001 89.6 51.9001 89.4 52.0001 89.2C51.9001 89.1 51.7001 89.3 51.7001 89.6C52.0001 88.9 51.5001 90.2 51.8001 89.7Z" fill="#443730"/>
<path d="M50.6 89.1999C50.7 89.1999 50.8 89.1999 50.8 88.9999C50.6 88.8999 50.3 89.5999 50 89.8999C50 90.3999 50.6 89.5999 50.6 89.1999Z" fill="#443730"/>
<path d="M49 88.2V88.3999L49.4 87.7L49 88.2Z" fill="#443730"/>
<path d="M47.5001 87.8999L47.1001 88.2999H47.4001L47.5001 87.8999Z" fill="#443730"/>
<path d="M47.3001 87.7L47.1001 87.6V87.8C47.1001 88 47.3001 87.6 47.3001 87.7Z" fill="#443730"/>
<path d="M46.7001 87.3999C46.8001 87.3999 46.7001 87.4999 46.7001 87.4999L47.1001 87.2999L46.7001 87.3999Z" fill="#443730"/>
</g>
</g>
</svg>
