<svg width="280" height="227" viewBox="0 0 280 227" fill="none" xmlns="http://www.w3.org/2000/svg">
<path d="M279.1 221.8C281.5 220.5 40.7001 218.2 26.7001 221.8C16.6001 224.4 53.2001 227 96.3001 226.9C142.1 226.9 195.3 224.1 210.2 225.6C239.3 228.4 271 226.2 279.1 221.8Z" fill="#1B1C1E"/>
<path d="M114.4 130C114.4 130 112.4 203.3 112.4 205.8C112.4 208.3 107.7 223.3 107.7 223.3H96.6001C96.6001 223.3 103.4 173.1 100.5 163.2C97.6001 153.2 96.0001 127.4 100.3 126.8C104.6 126.3 111.5 120.6 114.4 130Z" fill="#FFF0DD"/>
<mask id="mask0_70_1243" style="mask-type:luminance" maskUnits="userSpaceOnUse" x="96" y="124" width="19" height="100">
<path d="M114.4 130C114.4 130 112.4 203.3 112.4 205.8C112.4 208.3 107.7 223.3 107.7 223.3H96.6001C96.6001 223.3 103.4 173.1 100.5 163.2C97.6001 153.2 96.0001 127.4 100.3 126.8C104.6 126.3 111.5 120.6 114.4 130Z" fill="white"/>
</mask>
<g mask="url(#mask0_70_1243)">
<g opacity="0.88">
<path d="M104.4 142C104.5 142.1 104.6 142.2 104.7 142.3C104.7 142.3 104.7 142.2 104.4 142Z" fill="#322015"/>
<path d="M106.9 144.4C107 144.5 107.1 144.7 107.3 144.9L106.9 144.4Z" fill="#322015"/>
<path d="M109.2 144.5C109.3 144.5 109.4 144.6 109.4 144.6C109.3 144.5 109.2 144.5 109.2 144.5Z" fill="#322015"/>
<path d="M100.5 152.3C100.4 152.3 100.4 152.3 100.3 152.2C100.3 152.2 100.4 152.3 100.5 152.3Z" fill="#322015"/>
<path d="M101.2 153.1C101.2 153.2 101.2 153.2 101.2 153.3H101.3C101.5 153.3 101.3 153.2 101.2 153.1Z" fill="#322015"/>
<path d="M101.9 152.8V153C102 152.9 101.9 152.9 101.9 152.8Z" fill="#322015"/>
<path d="M99.8999 152C99.9999 152.1 100.2 152.1 100.3 152.2C100.2 152.1 100.1 152 99.8999 152Z" fill="#322015"/>
<path d="M104.3 141.9C104.4 142 104.4 142 104.5 142C104.4 141.9 104.3 141.9 104.3 141.9Z" fill="#322015"/>
<path d="M106.6 145C106.5 144.9 106.6 144.9 106.6 145V145Z" fill="#322015"/>
<path d="M101.9 149.4C103.4 149.5 101.9 149.8 103.3 150C103 149.8 102.8 149.6 103.6 149.6C104.4 149.9 103.5 150 104.7 150.3L104.3 149.9C104.9 149.8 105.9 150.2 105.8 150C104.2 149.5 106.5 149.3 106.4 149L106.5 149.1L107.4 148.9H107.5C107.4 148.9 107.3 148.9 107.2 148.8C108.1 148.8 108.7 148.7 108.6 148.3C108.1 148.1 108.1 147.9 108.1 147.6C108.1 147.4 108.2 147.1 107.8 146.9C108 147.1 108 147.2 107.7 147.3L106.6 147C106.7 146.7 107.6 147.3 107.1 146.8C105.6 146.4 106.9 147.2 106.7 147.4C106.4 147.2 106.1 147 106 146.9C105.8 147.3 105.2 147.7 106.7 148.3C106.3 148.3 105.7 148.1 105.6 148C106.4 148.5 104.7 148 105.4 148.5C104 148.1 104.8 147.6 104.1 147.1C105.3 146.9 104.4 146.1 104.4 145.5C105.4 145.8 106.2 146.4 106.8 146.4C107.6 146.2 106.4 145.8 105.9 145.3C106.4 145.1 107.6 145.9 107.8 145.5L108.3 146C109.8 146.3 107.8 145.5 108.2 145.5C107.8 145.4 107.4 145.3 107.4 145.5C106.9 145.3 106.7 145.1 106.7 144.9H106.6C106 144.5 105.2 144.2 105.7 144C106.4 144.6 106.4 144 106.8 144.1L106.9 144.3C106.7 144 107 143.8 106.9 143.6L107.1 143.7C106.9 143.4 105.9 142.8 106.3 142.6C106.7 142.9 107.6 143.7 107.6 143.4C108.2 143.8 108 144 107.7 144.2C108 144.1 109 144.5 109 144.8C109.8 145.1 108.8 144.4 109.2 144.5C109 144.4 108.7 144.2 108.5 144.1C109.5 144.7 108.9 143.7 108.2 143.2L108.6 143.8C107.8 143.4 107.5 142.7 107 142.5C108.3 143.2 106.9 141.3 108 141.9L107.3 141.6C108.1 141.3 107.1 139.8 107.5 138.9C107.6 139.4 108.8 140.5 108.1 140.5C108.8 140.2 109.4 141.4 110.1 141.8C110.8 141.9 109.2 140.6 108.9 140.1V140.6C108.4 139.8 108.7 139.6 109.1 139.5C109.5 139.4 110 139.4 109.9 138.7C110.2 139.1 110 139 110 139.2C110.8 139.8 110.1 138.9 110.1 138.4C110.5 138.3 111 138.5 111.5 139.5C111.9 139.6 111.1 138.9 111 138.5L111.2 138.7C111.1 138.3 110.9 137.8 110.8 137.4C111.3 137.6 111.9 137.9 112.6 138.8C113.1 138.3 111.6 136.3 112 135.7C112.5 136.1 112.3 136.5 112.5 137L112.9 136.7C113.3 138 112.7 137.5 113.3 138.9C113 137.3 113.6 138.3 113.7 137.2L113.6 137.1C113.5 136.1 114.2 136.5 114.5 136.2C114.6 136.8 114.3 137 114.1 137.3C114.6 137.6 115.2 137 115.2 135.6C115.5 135.7 116 136.2 115.9 136.8C116.6 136.9 115.8 134.9 116.5 135.1L116.7 136.1C117.6 137.4 117.8 134.6 118.6 135.8L118.5 134.6C118.7 135.1 119 135.3 119.1 135.8L118.8 136.3C119.2 137.3 119 135.3 119.4 136C119.4 135.6 119 134.8 119 134.4C118.4 134.8 117.6 134.7 116.9 134.6C116.2 134.5 115.4 134.6 114.9 135.4C115 135.5 115.1 135.7 115.1 135.9C114.9 135.7 114.7 136 114.5 135.4V135.3C114.2 135.7 113.4 134.3 113.2 134.4C113.3 135.3 112.3 134.4 113 135.7L112.4 134.9C112.5 135.4 112.8 136.1 112.8 136.4C112.5 136.4 112.3 135.9 112.3 135.4C111.1 135.3 109.9 136.1 109.3 137.2L109.1 136.5C108.7 136.4 109 138.1 108.1 136.6C108.1 137.1 107.7 137.2 107.4 137.4C107.2 137.6 107.1 137.9 107.7 138.6C107 138.1 106.6 138.2 106.3 138.5C106 138.8 106 139.4 105.9 139.8C107.2 140.7 105.9 140.6 106.3 141.1C105.2 140.5 105.7 139.9 105.1 139.4C105.6 140.3 105 140.5 104.6 140.9C104.2 141.2 103.9 141.6 105.2 142.5C105 142.5 104.9 142.5 104.8 142.4C104.7 142.5 104.2 142.5 104 142.5C104.4 142.8 104.8 142.6 104.8 143C104.6 143.2 103.9 142.7 103.5 142.6C103.9 143.4 103.8 144.3 105 144.8C104.6 144.8 103.9 144.7 103.8 144.5C104.5 145.6 103.4 145.2 103.7 146.2C103.7 145.9 102.5 145.7 103.1 145.4C102.2 145.3 102.2 145.6 102.2 146C102.3 146.4 102.5 146.9 102 147.1L103 147.6C103.1 148 102 147.8 101.7 147.5C100.9 148 101.5 148.6 101.4 149.1C101.3 149.1 101 149.1 101.1 149L101 149.7C101.3 149.8 101.8 150.2 102.5 150.2C101.7 150 101.4 149.8 101.9 149.4Z" fill="#322015"/>
<path d="M108.5 145.6C108.2 145.5 108.1 145.5 108 145.5C108.2 145.6 108.4 145.6 108.5 145.6Z" fill="#322015"/>
<path d="M104.1 156.7C105.8 156.6 103.8 156.3 104.3 156C104.6 156.3 105.6 156.2 106.1 156.1C103.9 155.8 106.5 155.7 106.1 155.1C106.8 155.1 106.9 155.4 107.7 155.4C107.1 155.1 106.8 154.6 105.6 154.5C105.6 153.9 106 153.5 105.9 153.2C106.4 153.6 107.1 153.3 108.2 153.7C106.8 153.3 105.1 152.3 103.4 151.4C104.8 151.4 104.9 151.4 106.1 151.6C107.1 151 104.9 151.3 105.4 150.7L105.1 151C104.7 150.6 103.5 150.5 102.6 150.2L102.7 151.1C101.8 151 102 150.5 101.8 150.3C100.7 149.9 100.9 150.7 100.1 150.5C100.8 150.7 100.5 151 100.8 151.3H100.3C99.7999 151.7 101 152 100.9 152.4C100.8 152.4 100.7 152.4 100.6 152.4C101.2 152.6 101.8 152.7 102 153V152.8C103.2 153.2 103.9 153.9 105.2 153.5C105.1 153.8 104.9 154 104.8 154.3C103.5 154.2 101.5 154 101.4 153.5L100.9 153.4C100.1 153.8 101.9 154.5 103 154.3C106.1 154.7 103.1 155.6 104.4 156.1C103.5 156.2 103.2 155.8 102.6 155.7C102.5 155.5 102.5 155.4 103.2 155.4C102.7 154.6 100.5 155.6 100.8 154.7C101.2 154.3 102.2 155.3 102.3 154.6L99.8999 154.1C99.9999 154.5 100.4 154.9 100.6 155.2C101.4 156.1 101.4 156.9 101.3 157.4C101.2 157.9 100.9 158.3 100.9 158.3L101.2 160.3C101.3 160.9 101.5 161.6 101.6 162.2L102 164.1L102.5 166C103 166.7 102.9 167 105.3 166.9C105.7 166.7 105.5 166.2 106.3 166.2C105.4 166.3 104.9 166.1 104.9 165.6C105.7 165.4 105.4 165.9 105.6 165.8V165.7C106 165.7 106.3 165.7 106.4 165.8C107.6 165.1 107.2 164.4 105.5 164.3C106.3 163.8 106.9 164.3 107.6 164.4C108 163 107.8 162.2 107.7 160.9C106.2 161 106.7 160.9 105.7 160.8L106.2 160.6C105.9 160.7 104.9 160.6 104.6 160.9C105.7 160 102.5 160.2 101.8 159.7H102.6C102.4 159.3 102.4 159.1 102 158.8C103.4 158 102.3 159.4 104.2 159.1L103.9 158.9C104.6 159 106 159 106.5 159.2C105.2 158.6 106.9 158.2 105.9 157.6C106.8 157.6 107.5 158.2 107.6 158.4C107.7 158.2 107 157.8 107.8 157.7H106.7C106.5 157.3 107.7 157.7 108.4 157.5C108.1 156.5 104.8 157.5 104.1 156.7Z" fill="#322015"/>
<path d="M105.8 146.5C105.7 146.6 105.7 146.7 105.8 146.8C105.8 146.8 105.9 146.7 105.8 146.5Z" fill="#322015"/>
<path d="M107.4 148.9C107.5 148.9 107.7 149 107.8 149C107.6 149 107.5 148.9 107.4 148.9Z" fill="#322015"/>
<path d="M108.8 149.4C108.3 149.3 108.3 149.2 107.7 149C108 149.2 108 149.5 108.8 149.4Z" fill="#322015"/>
<path d="M111.7 139.5C112.2 139.8 111.6 139 111.3 138.4C110.9 138.4 111.8 139.1 111.7 139.5Z" fill="#322015"/>
<path d="M109.3 143.4C109.9 143.5 109.3 142.9 109.5 142.7C109 142.6 109 143 109.3 143.4Z" fill="#322015"/>
<path d="M111.3 146.4C111.1 146.2 110.9 146.1 110.8 146.1C110.3 145.8 109.9 145.5 109.4 145.2C108.7 145.3 110.6 146.1 111.3 146.4Z" fill="#322015"/>
<path d="M110.9 148L110.4 147.5L110.3 147.6C109.7 147.3 109.4 147.2 108.9 146.9C109.1 147.3 109.7 147.7 110.9 148Z" fill="#322015"/>
<path d="M108.7 146.6C108.7 146.6 108.7 146.7 108.8 146.7C108.9 146.8 109.2 146.8 108.7 146.6Z" fill="#322015"/>
<path d="M108.7 146.9C108.8 146.9 108.8 147 108.9 147C108.8 146.9 108.8 146.8 108.8 146.8C108.6 146.7 108.5 146.7 108.7 146.9Z" fill="#322015"/>
<path d="M110 148C110 148.2 110 148.4 110 148.6L110.4 148.5C109.4 148.1 111 148.4 110 148Z" fill="#322015"/>
<path d="M108.5 150.7L107.5 150.6C107.2 151 109.3 151.7 107.7 151.7C108.3 151.6 108.8 152.1 109.1 151.7C108.3 151.5 108.3 151 108.5 150.7Z" fill="#322015"/>
<path d="M106.9 152C106.6 151.9 106.4 152 106.1 152C106 152.1 106.4 152.3 106.8 152.3C105.6 152.1 107.7 152.2 106.9 152Z" fill="#322015"/>
<path d="M106.9 153.9C106.9 153.8 106.8 153.6 106.5 153.8C106.5 154.2 107.7 154.1 108.4 154.3C109 154 107.4 153.7 106.9 153.9Z" fill="#322015"/>
<path d="M99.5 157C100.4 156.9 100.2 156.6 99.9 156.5C100.1 156.6 99.9 156.8 99.5 157Z" fill="#322015"/>
<path d="M106.7 156.8L106.9 156.7L105.5 156.6L106.7 156.8Z" fill="#322015"/>
<path d="M107.5 158.9L108.4 159.1L108.2 158.7L107.5 158.9Z" fill="#322015"/>
<path d="M107.3 159.3L107.4 159.7L107.7 159.5C108 159.3 107.3 159.5 107.3 159.3Z" fill="#322015"/>
<path d="M107.6 160.4C107.5 160.4 107.6 160.3 107.8 160.3L107.2 160L107.6 160.4Z" fill="#322015"/>
<path d="M103.1 167.1C102.2 167.2 102.8 167.4 102.7 167.6C102.9 167.6 104 167.2 103.1 167.1Z" fill="#322015"/>
</g>
</g>
<path d="M163.5 128.3C163.5 128.3 180.3 146.1 220 169L243.7 211.1C243.7 211.1 236.9 214.9 235.8 223.3H251.4C251.4 223.3 251.7 199.1 249.3 194.4C247 189.7 226.8 157.6 226.8 157.6C226.8 157.6 186.5 126 184.8 124.1C183.1 122.2 157.7 119.8 163.5 128.3Z" fill="#FFF0DD"/>
<mask id="mask1_70_1243" style="mask-type:luminance" maskUnits="userSpaceOnUse" x="162" y="122" width="90" height="102">
<path d="M163.5 128.3C163.5 128.3 180.3 146.1 220 169L243.7 211.1C243.7 211.1 236.9 214.9 235.8 223.3H251.4C251.4 223.3 251.7 199.1 249.3 194.4C247 189.7 226.8 157.6 226.8 157.6C226.8 157.6 186.5 126 184.8 124.1C183.1 122.2 157.7 119.8 163.5 128.3Z" fill="white"/>
</mask>
<g mask="url(#mask1_70_1243)">
<g opacity="0.88">
<path d="M183.4 129.5C183.4 129.6 183.4 129.7 183.4 129.8C183.3 129.8 183.3 129.7 183.4 129.5Z" fill="#322015"/>
<path d="M172.5 127L172.4 126.6C172.6 126.8 172.6 126.9 172.5 127Z" fill="#322015"/>
<path d="M181.3 133.1C181.3 133.2 181.2 133.2 181.2 133.2C181.3 133.1 181.3 133.1 181.3 133.1Z" fill="#322015"/>
<path d="M192 135C192 135 192 134.9 192.1 134.9L192 135Z" fill="#322015"/>
<path d="M192.1 136C192.2 136 192.2 136.1 192.2 136.1L192.1 136.2C192 136.3 192.1 136.1 192.1 136Z" fill="#322015"/>
<path d="M191.5 136.1L191.6 136.2C191.5 136.2 191.5 136.2 191.5 136.1Z" fill="#322015"/>
<path d="M191.4 142.7L191.1 143C191.2 142.8 191.3 142.7 191.4 142.7Z" fill="#322015"/>
<path d="M192.2 134.6C192.2 134.7 192.1 134.8 192.1 134.9C192.1 134.8 192 134.7 192.2 134.6Z" fill="#322015"/>
<path d="M183.4 129.4C183.4 129.5 183.4 129.5 183.3 129.6C183.4 129.5 183.4 129.4 183.4 129.4Z" fill="#322015"/>
<path d="M183.6 132.5C183.5 132.4 183.6 132.4 183.6 132.5V132.5Z" fill="#322015"/>
<path d="M168.4 126.8C168.3 126.8 168.2 126.7 168.1 126.7C168.3 126.6 168.4 126.7 168.4 126.8Z" fill="#322015"/>
<path d="M189.4 133.7C188.6 134.5 189.7 134 188.9 134.8C188.9 134.5 188.9 134.2 188.5 134.6C188.2 135.2 188.8 134.8 188.3 135.6V135.1C187.8 135.3 187.5 136 187.5 135.9C188.2 134.8 186.5 135.7 186.5 135.4V135.6L185.8 135.8C185.8 135.8 185.8 135.8 185.8 135.9C185.8 135.8 185.9 135.8 185.9 135.7C185.4 136.1 184.9 136.3 184.7 135.9C185.1 135.2 184 135.1 184.3 134.5C184.3 134.7 184.4 134.8 184.6 134.8L185.1 134.1C184.8 133.9 184.6 134.7 184.7 134.1C185.5 133.2 185.1 134.4 185.3 134.4C185.4 134.1 185.5 133.9 185.4 133.7C185.8 133.9 186.4 133.9 185.9 135C186.2 134.9 186.4 134.5 186.4 134.3C186.2 135.1 187 133.9 186.8 134.6C187.4 133.7 186.6 133.7 186.8 133C185.9 133.4 186 132.4 185.6 132C185.1 132.7 185 133.4 184.5 133.7C183.8 133.9 184.4 133.1 184.4 132.5C184 132.6 183.6 133.6 183.2 133.4V134C182.3 134.8 183.2 133.5 182.9 133.5C183.1 133.3 183.3 133 183.5 133.2C183.8 132.9 183.7 132.6 183.6 132.5H183.7C183.9 132 184.2 131.4 183.8 131.5C183.6 132.2 183.3 131.8 183.1 132V132.2C183 131.9 182.7 131.8 182.7 131.7L182.6 131.9C182.6 131.6 182.9 130.8 182.6 130.8C182.5 131.1 182.3 132.1 182.1 131.8C181.9 132.3 182.1 132.5 182.5 132.4C182.2 132.4 181.7 133.1 181.9 133.3C181.5 133.8 181.8 132.9 181.5 133.1C181.6 132.9 181.7 132.7 181.8 132.5C181.4 133.3 181.2 132.3 181.5 131.7V132.3C181.9 131.7 181.7 131.1 182 130.8C181.4 131.7 181.5 129.9 180.9 130.7L181.2 130.2C180.5 130.2 180.4 128.8 179.9 128.3C180 128.7 179.6 129.9 180.1 129.6C179.4 129.6 179.5 130.7 179.1 131.1C178.5 131.3 179.3 129.9 179.3 129.5L179.5 129.8C179.6 128.3 178.2 129.7 177.8 128.6C177.6 128.9 177.9 128.8 177.9 129C177.4 129.6 177.7 128.8 177.6 128.4C177.2 128.4 176.8 128.7 176.8 129.6C176.4 129.7 177 129.1 176.9 128.8L176.8 129L176.7 127.9C176.3 128.1 175.9 128.5 175.6 129.3C175 129 175.8 127.3 175.3 126.9C174.9 127.3 175.2 127.6 175.2 127.9L174.8 127.7C174.8 128.7 175.2 128.3 175 129.4C174.8 128.2 174.6 129 174.2 128.1V128C174.1 127.2 173.5 127.7 173.2 127.5C173.3 128 173.6 128.1 173.8 128.3C173.4 128.7 172.6 128.2 172.4 127.1C172.2 127.3 171.7 127.7 172 128.1C171.3 128.2 171.8 126.6 171.2 126.9V127.7C170.5 128.8 169.9 126.7 169.3 127.7L169.2 126.7C169.1 127.1 168.8 127.3 168.8 127.7L169.1 128C168.9 128.8 168.8 127.2 168.5 127.8C168.5 127.5 168.7 126.9 168.7 126.5C169.4 126.8 170 126.5 170.7 126.4C171.4 126.3 172.1 126.2 172.7 126.7C172.6 126.8 172.6 126.9 172.6 127.1C172.8 126.9 173 127.2 173 126.6V126.5C173.3 126.8 173.8 125.6 174 125.7C174.1 126.4 174.8 125.5 174.5 126.6L174.8 125.9C174.8 126.3 174.7 126.9 174.8 127.1C175.1 127.1 175.1 126.6 175 126.3C175.5 126.2 176.1 126.2 176.6 126.3C177.1 126.5 177.6 126.7 178 127L177.9 126.4C178.2 126.2 178.5 127.5 178.7 126.2C179 126.9 180.1 126.3 179.7 127.6C180.5 126.4 181 127.5 181.6 127.9C181 128.9 182 128.4 181.9 129C182.4 128.2 181.8 127.9 182 127.3C182 128.1 182.6 128.1 183 128.1C183.5 128.2 183.8 128.4 183.4 129.5C183.5 129.5 183.6 129.4 183.6 129.3C183.7 129.4 184.1 129.1 184.2 129.1C184.1 129.5 183.7 129.5 183.9 129.8C184.2 129.8 184.4 129.2 184.6 129C184.8 129.7 185.3 130.3 184.8 131.2C185.1 131.1 185.5 130.7 185.5 130.5C185.7 131.5 186.2 130.8 186.5 131.6C186.3 131.4 187 130.7 186.4 130.8C187.4 129.9 187.2 131.7 188.1 131.5L187.8 132.3C188 132.6 188.5 132 188.5 131.6C189.3 131.6 189.3 132.2 189.6 132.6C189.7 132.5 189.8 132.4 189.7 132.4C189.9 132.5 190.1 132.7 190.2 132.9C190.1 133.1 190 133.6 189.6 134C189.8 134 189.9 133.7 189.4 133.7Z" fill="#322015"/>
<path d="M182.6 133.7C182.8 133.6 182.9 133.5 182.9 133.5C182.8 133.6 182.7 133.7 182.6 133.7Z" fill="#322015"/>
<path d="M192.7 140.1C191.7 140.9 192.6 139.7 192.1 139.7C192.1 140 191.5 140.5 191.2 140.7C192.3 139.3 190.7 140.6 190.5 139.9C190.1 140.3 190.2 140.5 189.8 141C189.9 140.5 189.7 139.9 190.4 139.3C190 138.9 189.5 138.8 189.4 138.4C189.4 139 188.8 139.1 188.4 139.9C188.9 138.9 189.2 137.3 189.7 135.9C188.9 136.6 188.8 136.6 188.2 137.4C187.2 137.4 188.7 136.6 188 136.3L188.3 136.4C188.3 136 188.9 135.2 189.3 134.7L189.8 135.4C190.3 134.9 189.8 134.6 189.9 134.4C190.3 133.6 190.6 134.3 191 133.7C190.7 134.2 191.1 134.3 191 134.6L191.3 134.4C191.9 134.4 191.3 135.2 191.6 135.5C191.7 135.4 191.8 135.4 191.8 135.3C191.6 135.7 191.3 136.1 191.3 136.4L191.2 136.3C190.7 137.1 190.8 138 189.8 138.4L190.5 138.8C191.2 138.1 192.2 136.9 191.9 136.5L192.2 136.2C192.9 136.1 192.3 137.5 191.5 137.9C189.9 139.8 192.3 138.9 191.9 140C192.4 139.6 192.4 139.2 192.7 138.8C192.6 138.6 192.6 138.5 192.1 138.9C191.9 138.1 193.8 137.6 193 137.1C192.5 137 192.6 138.2 192.1 137.8L193.1 136.2C193.3 136.5 193.4 137 193.4 137.4C193.7 139.5 195.2 139.8 195.2 139.8C196.7 141.8 198 143.8 199.5 145.4C199.8 146 200 146.1 199.2 147.7C198.9 147.9 198.6 147.5 198.3 148.1C198.6 147.5 198.7 147.1 198.3 146.9C197.8 147.4 198.4 147.4 198.2 147.4H198.1C197.9 147.7 197.8 147.9 197.9 148C196.9 148.5 196.3 147.7 197 146.5C196.3 146.7 196.5 147.4 196.3 147.9C194.9 147.3 194.4 146.5 193.5 145.6C194.4 144.8 194 145 194.4 144.4L194 144.6C194.2 144.5 194.7 143.9 195 143.9C193.8 143.9 195.6 142.2 195.6 141.5L195.2 141.9C195 141.5 194.9 141.4 194.9 140.9C193.6 141.1 195.1 141.5 193.9 142.3L194 142C193.6 142.4 193 143.2 192.8 143.6C193.1 142.5 191.9 143.1 192 142.1C191.5 142.6 191.6 143.4 191.6 143.6C191.4 143.5 191.5 142.8 191 143.2L191.6 142.6C191.4 142.2 191 143.1 190.5 143.4C190.4 142 192.9 141 192.7 140.1Z" fill="#322015"/>
<path d="M185.1 133.4C185.2 133.4 185.3 133.5 185.3 133.6C185.2 133.5 185.1 133.5 185.1 133.4Z" fill="#322015"/>
<path d="M185 136.8C185.3 136.5 185.2 136.5 185.4 136C185.4 136.3 185.6 136.5 185 136.8Z" fill="#322015"/>
<path d="M162.5 129.9C162.5 129.5 162.6 128.6 163 129.3C162.6 129.3 163 130.4 162.5 129.9Z" fill="#322015"/>
<path d="M164.7 128.8L164.1 129.4C164.1 130.4 164.5 129.7 164.7 130.1C164.2 130.4 164.3 130 163.8 129.5C163.7 129.6 163.3 129.1 163.1 128.9C164.1 129.4 163.8 127 164.7 128.8Z" fill="#322015"/>
<path d="M163.6 130L163.5 129.6L163.8 129.8L163.6 130Z" fill="#322015"/>
<path d="M166.1 127.4C166.4 126.2 166.9 128 167.3 127.5C167.2 127.4 167.3 127.3 167.2 127.2L167.6 127.3V127C167.6 127.7 168 128 168.2 128.5C167.9 129.3 168 127.6 167.7 128.5C167.8 128.8 167.9 129.3 168 129.6C167.8 129.3 167.7 128.8 167.5 128.4C167.2 128.3 167.4 128.7 167.4 129C167.1 128.6 167 127.6 166.6 127.8C166.4 128.5 166.9 128.8 166.4 128.6C166.5 127.4 165.9 128.8 165.7 128.1C165.4 128.4 165.2 129.1 165.4 129.5C165.3 128.6 164.9 127.9 164.6 127.7L165.3 128.4L165.4 127.3C165.6 127.8 165.8 127.7 166.1 127.4Z" fill="#322015"/>
<path d="M168 129.6C168 129.7 168.1 129.7 168.1 129.8C168.1 129.8 168 129.7 168 129.6Z" fill="#322015"/>
<path d="M165.2 129.9L165.4 130.1L165.3 130.4L165.2 129.9Z" fill="#322015"/>
<path d="M168.3 130.3C168.2 130.3 168.2 130 168.3 130L168.4 130.5L168.3 130.3Z" fill="#322015"/>
<path d="M168.6 129.6L168.8 129L168.9 129.5L168.6 129.6Z" fill="#322015"/>
<path d="M176.3 129.8C176 130.1 176.2 129.4 176.2 128.9C176.7 128.8 176.1 129.5 176.3 129.8Z" fill="#322015"/>
<path d="M180.5 132.3C180.1 132.6 180.1 131.9 179.9 131.8C180.2 131.5 180.5 131.8 180.5 132.3Z" fill="#322015"/>
<path d="M181 135.3C181.1 135.1 181.1 134.9 181.2 134.9L181.6 133.7C182.2 133.5 181.3 134.8 181 135.3Z" fill="#322015"/>
<path d="M182.6 136.6V136L182.8 136.1C183 135.6 183.1 135.4 183.2 135C183.3 135.3 183.2 135.8 182.6 136.6Z" fill="#322015"/>
<path d="M183.1 134.5C183.1 134.5 183.1 134.6 183.2 134.6C183.1 134.8 182.9 134.9 183.1 134.5Z" fill="#322015"/>
<path d="M183.3 134.8C183.3 134.9 183.3 134.9 183.3 134.9C183.3 134.8 183.3 134.7 183.2 134.7C183.3 134.6 183.4 134.5 183.3 134.8Z" fill="#322015"/>
<path d="M183.2 136.2C183.3 136.4 183.5 136.5 183.6 136.7L183.3 136.8C183.7 136.1 182.8 136.9 183.2 136.2Z" fill="#322015"/>
<path d="M186.1 137.7L186.7 137.2C187.1 137.4 186.3 138.9 187.4 138.2C186.9 138.4 187 139.1 186.5 138.9C186.8 138.2 186.4 137.8 186.1 137.7Z" fill="#322015"/>
<path d="M188 138C188.1 137.8 188.3 137.8 188.5 137.6C188.7 137.6 188.5 138 188.2 138.2C188.8 137.4 187.6 138.5 188 138Z" fill="#322015"/>
<path d="M189.3 139.4C189.2 139.3 189.2 139.1 189.4 139.1C189.6 139.4 188.9 139.9 188.7 140.4C188.1 140.5 188.8 139.5 189.3 139.4Z" fill="#322015"/>
<path d="M195.5 137.9C195 138.3 194.8 138 195 137.8C194.9 137.9 195.2 137.9 195.5 137.9Z" fill="#322015"/>
<path d="M191.4 141.5H191.2L191.9 140.8L191.4 141.5Z" fill="#322015"/>
<path d="M192.4 143.5L192.1 144.2L191.9 143.8L192.4 143.5Z" fill="#322015"/>
<path d="M192.8 143.8L193 144.1L192.7 144.2C192.5 144.1 192.9 143.9 192.8 143.8Z" fill="#322015"/>
<path d="M193.4 144.7C193.4 144.6 193.3 144.7 193.2 144.7L193.3 144.2L193.4 144.7Z" fill="#322015"/>
<path d="M200.5 145.9C200.8 145.3 200.8 145.8 201 145.8C200.8 145.9 200.2 146.5 200.5 145.9Z" fill="#322015"/>
</g>
</g>
<path d="M55.6 18.2C55.6 18.2 54.9 0.400024 57.2 0.400024C59.5 0.400024 68.3 18.6 71.7 23.6C75.1 28.6 83.9 39.9 91 48.6C98 57.3 111.7 73.3 131.5 76.6C151.3 79.9 193.3 81.1 209.5 86.8C225.7 92.5 241 107.1 246.6 122C252.3 136.9 259.7 156.8 274.6 166.4C274.6 166.4 253.3 171.3 237.1 154C237.1 154 238.3 160.9 238.5 162.5C238.8 164.1 247.8 176.7 248.4 177.9C249.1 179.1 256.1 208 256.3 209.4C256.6 210.8 254.2 223.5 254.2 223.5C254.2 223.5 241.7 223.5 241 223.5C240.3 223.5 242.8 214.2 248 211.4C248 211.4 238.6 187.4 237.6 186C236.6 184.6 221.1 170 220 169.2C219 168.4 192.5 155.2 180.6 128.4C180.6 128.4 173 126.2 154.8 130C136.6 133.7 111.2 138.2 105.9 138.2C105.9 138.2 108.1 202.9 107.7 204.9C107.3 206.9 99.9 223.6 99.9 223.6C99.9 223.6 86.6 223.6 85.3 223.6C84 223.6 86.8 215.1 95.9 207.8C95.9 207.8 87.7 168.1 86.5 163.2C85.3 158.3 76.5 135.6 76.5 135.6C76.5 135.6 54.6 130.5 44.4 109.4C34.2 88.3 42.8 72.5 39.7 58C39.7 58 17.1 49.3 12.4 46.9C7.70003 44.6 -2.69997 38.4 2.90003 27.9C2.90003 27.9 25.7 30.4 27.4 30.1C29.1 29.8 33.3 23.8 38.5 21.8C43.9 19.5 55.6 18.2 55.6 18.2Z" fill="#FFF0DD"/>
<path d="M241 223.3C240.3 223.3 242.8 214 248 211.2C248 211.2 238.6 187.2 237.6 185.8C236.6 184.4 221.1 169.8 220 169C219 168.2 192.5 155 180.6 128.2" stroke="#1B1C1E" stroke-width="1.2604" stroke-miterlimit="10" stroke-linecap="round" stroke-linejoin="round"/>
<path d="M106 138C106 138 108.2 202.7 107.8 204.7C107.4 206.7 100 223.4 100 223.4" stroke="#1B1C1E" stroke-width="1.2604" stroke-miterlimit="10" stroke-linecap="round" stroke-linejoin="round"/>
<path d="M235.2 135.2C235.9 142.9 237 153.9 237 153.9C237 153.9 237.3 155.5 237.6 157.3C218.1 160.8 207.3 140.8 202 132.6C196.7 124.4 187.9 107.4 167.6 109.5C147.3 111.7 131.8 129.4 106 124C80.2 118.5 70.9 98.7 70.9 98.7C70.4 101.8 71.4 107.2 71.4 107.2C44.4 86.5 51.2 59.5 52.5 53.4C53.8 47.3 54.5 39.6 51.8 38.4C49.1 37.1 46.7 36.9 45.4 34.5C44.2 32.2 46.4001 25.5 43.1001 23.7C39.8001 21.9 36.3 23 36.3 23C37.1 22.5 37.9 22 38.8 21.7C44 19.6 55.7 18.3 55.7 18.3C55.7 18.3 55 0.5 57.3 0.5C59.7 0.5 68.4 18.7 71.8 23.7C75.2001 28.7 84.0001 40 91.1001 48.7C98.1001 57.4 111.8 73.4 131.6 76.7C151.3 80 193.4 81.2 209.6 86.9C225.8 92.6 241.1 107.2 246.7 122.1C251.5 134.6 257.5 150.7 268.2 161.2C247.2 158.4 238.2 142.1 235.2 135.2Z" fill="#5F6C72"/>
<path d="M89.6001 223.3C89.6001 223.3 90.2001 220.7 91.4001 219.1" stroke="#1B1C1E" stroke-width="1.2604" stroke-miterlimit="10" stroke-linecap="round" stroke-linejoin="round"/>
<path d="M244.6 223.3C244.6 223.3 245.2 220.7 246.4 219.1" stroke="#1B1C1E" stroke-width="1.2604" stroke-miterlimit="10" stroke-linecap="round" stroke-linejoin="round"/>
<path d="M106 138L105.6 127.6" stroke="#1B1C1E" stroke-width="1.2604" stroke-miterlimit="10" stroke-linecap="round" stroke-linejoin="round"/>
<path d="M1.20012 30.6C1.00012 32.4 2.10012 34.1 3.90012 34.5C4.30012 34.6 4.70012 34.7 5.10012 34.6C8.30012 34.4 9.40012 29.8 9.00012 28.1C8.90012 27.5 3.10012 27.1 2.70012 27.1C2.40012 27.1 1.50012 28.5 1.20012 30.6Z" fill="#1B1C1E" stroke="#1B1C1E" stroke-width="1.5329" stroke-miterlimit="10" stroke-linecap="round" stroke-linejoin="round"/>
<path d="M4.5 40.9C4.5 40.9 6.8 42.9 13 44.7C19.2 46.5 22.3 46.9 23.4 47.4C24.5 47.9 25.9 49.5 25.9 49.5" stroke="#1B1C1E" stroke-width="1.2604" stroke-miterlimit="10" stroke-linecap="round" stroke-linejoin="round"/>
<path d="M237 153.9C237 153.9 235.2 136 234.8 130" stroke="#1B1C1E" stroke-width="1.2604" stroke-miterlimit="10" stroke-linecap="round" stroke-linejoin="round"/>
<path d="M180.7 128.2C180.7 128.2 178.5 123 177.9 117.4" stroke="#1B1C1E" stroke-width="1.2604" stroke-miterlimit="10" stroke-linecap="round" stroke-linejoin="round"/>
<path d="M37.9148 32.419C38.3931 31.4233 38.1351 30.306 37.3385 29.9234C36.542 29.5408 35.5086 30.0377 35.0303 31.0334C34.552 32.029 34.81 33.1464 35.6065 33.529C36.4031 33.9116 37.4365 33.4146 37.9148 32.419Z" fill="#1B1C1E"/>
<mask id="mask2_70_1243" style="mask-type:luminance" maskUnits="userSpaceOnUse" x="39" y="57" width="13" height="11">
<path d="M40.6002 68C40.8002 64.5 40.6001 61.2 39.9001 57.9C39.9001 57.9 46.0002 60.2 50.3002 60.8C53.9002 61.3 45.3002 67.5 40.6002 68Z" fill="white"/>
</mask>
<g mask="url(#mask2_70_1243)">
<g opacity="0.88">
<path d="M46.4 59.3L46.3 59.4C46.3 59.4 46.3 59.4 46.4 59.3Z" fill="#322015"/>
<path d="M50.9001 60.5L51.0002 60.3C50.9002 60.4 50.9001 60.4 50.9001 60.5Z" fill="#322015"/>
<path d="M45.7 60.3C45.6 60.3 45.6 60.4 45.5 60.5L45.7 60.3Z" fill="#322015"/>
<path d="M46.1001 61C46.0001 61.1 46.1001 61.1 46.1001 61V61Z" fill="#322015"/>
<path d="M41.9002 58.2C41.8002 58.2 41.8002 58.2 41.9002 58.2C41.8002 58.2 41.8002 58.3 41.9002 58.2Z" fill="#322015"/>
<path d="M42 58.4C41.9 58.5 41.9 58.5 42 58.4V58.4Z" fill="#322015"/>
<path d="M43.3002 58.6C43.2002 59.1 43.1002 58.6 43.0002 59C43.1002 58.9 43.2002 58.9 43.2002 59.1C43.1002 59.3 43.0002 59 42.9002 59.4L43.1002 59.3C43.1002 59.5 43.0002 59.8 43.0002 59.8C43.2002 59.3 43.3002 60.1 43.5002 60H43.4002L43.5002 60.3V60.2C43.5002 60.5 43.6002 60.7 43.8002 60.7C43.9002 60.4 44.3002 60.7 44.4002 60.5C44.3002 60.6 44.3002 60.6 44.2002 60.5L44.3002 60.1C44.4002 60.1 44.2002 60.4 44.4002 60.3C44.5002 59.8 44.2002 60.3 44.1002 60.2C44.2002 60.1 44.2002 60 44.3002 60C44.1002 59.9 43.9002 59.7 43.7002 60.2C43.7002 60.1 43.7002 59.9 43.8002 59.8C43.6002 60.1 43.8002 59.5 43.6002 59.7C43.7002 59.2 44.0002 59.5 44.1002 59.3C44.2002 59.7 44.5002 59.4 44.8002 59.4C44.7002 59.7 44.5002 60 44.6002 60.2C44.8002 60.5 44.8002 60.1 45.0002 59.9C45.1002 60.1 44.9002 60.5 45.1002 60.5L44.9002 60.7C44.9002 61.2 45.1002 60.5 45.2002 60.7C45.2002 60.6 45.2002 60.4 45.1002 60.4C45.1002 60.2 45.2002 60.2 45.3002 60.2C45.4002 60 45.5002 59.7 45.6002 59.9C45.4002 60.2 45.7002 60.1 45.7002 60.3L45.6002 60.4C45.7002 60.3 45.8002 60.4 45.9002 60.4V60.5C46.0002 60.4 46.1002 60.1 46.2002 60.2C46.2002 60.3 45.9002 60.7 46.1002 60.7C46.0002 60.9 45.9002 60.9 45.8002 60.8C45.9002 60.9 45.9002 61.3 45.7002 61.3C45.7002 61.6 45.9002 61.2 45.9002 61.4C45.9002 61.3 45.9002 61.2 46.0002 61.1C45.9002 61.5 46.3002 61.2 46.3002 60.9L46.1002 61.1C46.1002 60.8 46.4002 60.6 46.3002 60.5C46.3002 61 46.7002 60.3 46.7002 60.8V60.5C47.0002 60.7 47.3002 60.2 47.6002 60.2C47.5002 60.3 47.4002 60.8 47.2002 60.6C47.5002 60.8 47.2002 61.1 47.2002 61.4C47.4002 61.6 47.4002 60.9 47.5002 60.8L47.3002 60.9C47.6002 60.3 47.8002 61.1 48.2002 60.8C48.2002 61 48.1002 60.9 48.1002 60.9C48.2002 61.2 48.2002 60.9 48.3002 60.8C48.4002 60.9 48.6002 61 48.4002 61.4C48.5002 61.5 48.4002 61.2 48.5002 61.1V61.2L48.7002 60.8C48.8002 60.9 48.9002 61.2 48.9002 61.5C49.2002 61.5 49.2002 60.7 49.4002 60.6C49.5002 60.8 49.3002 60.9 49.3002 61H49.5002C49.4002 61.4 49.2002 61.2 49.2002 61.7C49.5002 61.2 49.5002 61.6 49.7002 61.3C49.9002 61 50.1002 61.3 50.2002 61.2C50.1002 61.4 50.0002 61.4 49.9002 61.4C50.0002 61.6 50.4002 61.5 50.6002 61.1C50.7002 61.2 50.8002 61.4 50.7002 61.5C51.0002 61.6 50.9002 60.9 51.2002 61.1L51.1002 61.4C51.3002 61.9 51.7002 61.1 51.9002 61.5L52.0002 61.1C52.0002 61.3 52.1002 61.4 52.1002 61.5L51.9002 61.6C52.0002 62 52.1002 61.3 52.2002 61.6C52.2002 61.5 52.1002 61.2 52.2002 61.1C51.6002 61.3 51.1002 60.6 50.5002 60.9C50.5002 61 50.5002 61 50.5002 61.1C50.5002 61 50.3002 61.1 50.4002 60.9C50.2002 61 50.2002 60.5 50.1002 60.4C50.0002 60.7 49.8002 60.2 49.8002 60.7V60.4C49.7002 60.6 49.7002 60.8 49.6002 60.9C49.5002 60.8 49.5002 60.7 49.6002 60.6C49.2002 60.3 48.8002 60.3 48.3002 60.4L48.4002 60.2C48.3002 60.1 48.0002 60.5 48.2002 60C48.0002 60.2 47.7002 59.7 47.6002 60.3C47.6002 59.7 47.2002 60 46.9002 60C46.9002 60.5 46.6002 60.1 46.5002 60.3C46.5002 59.9 46.8002 60 46.9002 59.7C46.5002 60.2 46.2002 59.1 45.9002 60.1V60C45.8002 60 45.8002 59.8 45.8002 59.8C45.7002 60 45.8002 60.1 45.7002 60.1C45.6002 60 45.7002 59.8 45.7002 59.6C45.5002 59.8 45.1002 59.8 45.0002 60.2C45.0002 60.1 44.9002 59.8 45.0002 59.8C44.6002 60 44.7002 59.7 44.3002 59.8C44.4002 59.8 44.4002 59.4 44.6002 59.6C44.6002 59 44.1002 59.6 43.9002 59.3L43.7002 59.6C43.5002 59.6 43.6002 59.3 43.7002 59.2C43.5002 58.9 43.3002 59.1 43.1002 59.1C43.1002 59.1 43.1002 59 43.2002 59L42.9002 58.9C42.9002 59 42.7002 59.1 42.7002 59.4C43.1002 58.6 43.2002 58.5 43.3002 58.6Z" fill="#322015"/>
<path d="M40.2001 58.8C40.1001 59.4 40.4002 58.7 40.5002 58.9C40.4002 59 40.3002 59.3 40.3002 59.4C40.6002 58.7 40.5002 59.6 40.8002 59.5C40.8002 59.7 40.6002 59.7 40.5002 60C40.7002 59.9 40.9002 59.8 41.1002 59.4C41.4002 59.4 41.5001 59.6 41.7001 59.6C41.5001 59.7 41.6001 60 41.4001 60.3C41.7001 59.9 42.2002 59.4 42.6002 58.9C42.5002 59.3 42.5001 59.4 42.4001 59.8C42.7001 60.2 42.6002 59.4 42.8002 59.6L42.7001 59.5C42.9001 59.4 43.0002 59 43.1002 58.7H42.7001C42.8001 58.4 43.0002 58.5 43.1002 58.4C43.3002 58.1 43.0002 58.1 43.1002 57.8C43.0002 58 42.9002 57.9 42.8002 58V57.8C42.7002 57.6 42.5001 58 42.4001 57.9V57.8C42.3001 58 42.2002 58.2 42.1002 58.2H42.2001C42.0001 58.6 41.6002 58.7 41.8002 59.2L41.5002 59C41.6002 58.6 41.8002 58 42.0002 58L42.1002 57.8C42.0002 57.5 41.6002 58 41.6002 58.4C41.2002 59.4 41.1001 58.3 40.7001 58.7C40.7001 58.4 40.9002 58.3 41.0002 58.2C41.1002 58.2 41.1002 58.2 41.1002 58.4C41.5002 58.3 41.2002 57.5 41.6002 57.7C41.8002 57.9 41.3002 58.1 41.5002 58.2L41.9001 57.5C41.7001 57.5 41.5001 57.6 41.4001 57.6C40.5001 57.9 40.1002 57.4 40.1002 57.4C39.0002 57.3 37.8001 57.1 36.7001 57C36.3001 57 36.2001 57 35.9001 57.7C35.9001 57.9 36.2002 57.8 36.1002 58.1C36.2002 57.8 36.3002 57.7 36.5002 57.8C36.5002 58.1 36.3002 57.9 36.3002 58C36.3002 58.1 36.2002 58.2 36.1002 58.2C36.2002 58.7 36.6001 58.6 36.9001 58.1C37.0001 58.4 36.7002 58.5 36.6002 58.7C37.1002 59 37.5002 59.1 38.1002 59.2C38.2002 58.7 38.2001 58.9 38.4001 58.6V58.8C38.4001 58.7 38.5001 58.4 38.4001 58.3C38.7001 58.7 38.9001 57.7 39.2001 57.6L39.0002 58C39.2002 58 39.3002 58 39.5002 57.9C39.7002 58.4 39.2001 57.9 39.2001 58.5L39.3002 58.4C39.2002 58.6 39.1001 59 38.9001 59.2C39.3001 58.9 39.3001 59.4 39.7001 59.2C39.6001 59.5 39.3001 59.6 39.2001 59.6C39.3001 59.6 39.5002 59.5 39.5002 59.7L39.6002 59.4C39.8002 59.4 39.5002 59.7 39.5002 60C39.9002 60.1 39.7001 58.9 40.2001 58.8Z" fill="#322015"/>
<path d="M43.4001 60.9C43.4001 60.7 43.5002 60.7 43.5002 60.6C43.5002 60.7 43.4001 60.6 43.4001 60.9Z" fill="#322015"/>
<path d="M48.9001 61C49.0001 61.2 49.0002 60.9 49.1002 60.7C49.0002 60.6 49.1001 61 48.9001 61Z" fill="#322015"/>
<path d="M46.6001 61C46.7001 61.2 46.9001 61 47.0001 61C46.9001 60.8 46.8001 60.9 46.6001 61Z" fill="#322015"/>
<path d="M45.5 61.8C45.6 61.7 45.6 61.7 45.5 61.6L45.7 61.1C45.6 60.9 45.5 61.6 45.5 61.8Z" fill="#322015"/>
<path d="M44.4001 61.7L44.6002 61.5H44.5002C44.6002 61.3 44.6001 61.2 44.7001 61C44.6001 61.1 44.4001 61.3 44.4001 61.7Z" fill="#322015"/>
<path d="M44.9002 60.9C44.8002 61 44.8002 61.1 44.9002 60.9V60.9Z" fill="#322015"/>
<path d="M44.8001 60.9C44.7001 61 44.8001 61 44.8001 60.9C44.8001 61 44.8001 61 44.8001 60.9Z" fill="#322015"/>
<path d="M44.3 61.4H44L44.1 61.5C44.2 61.2 44.2 61.7 44.3 61.4Z" fill="#322015"/>
<path d="M42.7001 60.8V60.5C42.5001 60.4 42.1001 61 42.1001 60.5C42.1001 60.7 41.9001 60.8 42.1001 61C42.3001 60.6 42.6001 60.6 42.7001 60.8Z" fill="#322015"/>
<path d="M42.1002 60.1C42.2002 60 42.1002 59.9 42.1002 59.8C42.0002 59.7 41.9001 59.9 41.9001 60C42.1001 59.7 42.0002 60.4 42.1002 60.1Z" fill="#322015"/>
<path d="M41.2 60C41.3 60 41.3 60 41.3 59.9C41.1 59.9 41.1 60.3 41 60.4C41.1 60.6 41.3 60.2 41.2 60Z" fill="#322015"/>
<path d="M39.9001 59.6001V59.7L40.1002 59.3L39.9001 59.6001Z" fill="#322015"/>
</g>
</g>
<path d="M76.7001 135.4L74.6001 130.4" stroke="#1B1C1E" stroke-width="1.2604" stroke-miterlimit="10" stroke-linecap="round" stroke-linejoin="round"/>
</svg>
