<svg width="125" height="158" viewBox="0 0 125 158" fill="none" xmlns="http://www.w3.org/2000/svg">
<path d="M8.50006 153.9C8.50006 153.9 3.60006 156 17.0001 156.6C30.5001 157.2 101.6 157.5 108.9 156.6C116.2 155.7 124.4 154.6 110.6 153.4C100.2 152.5 84.9 152.6 74.3 152.3C55.2 151.8 14.3001 152 8.50006 153.9Z" fill="#1B1C1E"/>
<path d="M33.6 13.9C33.6 13.9 28.3 3.80003 19 5.10003C9.70004 6.40003 5.40003 21.2 15.7 29.8C26.1 38.3 33.6 13.9 33.6 13.9Z" fill="#1B1C1E"/>
<path d="M95.3 13.9C95.3 13.9 100.6 3.80003 109.9 5.10003C119.2 6.40003 123.5 21.2 113.2 29.8C102.8 38.3 95.3 13.9 95.3 13.9Z" fill="#1B1C1E"/>
<path d="M53.8 154.8C44 155.5 31 156.7 19.5 153.3C22.8 150.8 39.3 139.1 45.7 141.7C54.2 145.2 54 153.2 53.8 154.8Z" fill="#F9C8A7"/>
<path d="M106 153.3C94.5 156.8 81.6 155.5 71.7 154.8C71.6 153.2 71.3 145.3 79.8 141.7C86.3 139 102.7 150.8 106 153.3Z" fill="#F9C8A7"/>
<path d="M106.1 153.3C102.8 150.8 86.3001 139.1 80.0001 141.7C71.5001 145.3 71.7001 153.2 71.9001 154.8C69.3001 154.6 66.9001 154.5 64.8001 154.5C64.2001 154.5 63.6001 154.5 62.9001 154.5C62.3001 154.5 61.7001 154.5 61.0001 154.5C58.9001 154.5 56.5 154.6 53.9001 154.8C54 153.2 54.3001 145.3 45.8001 141.7C39.4001 139 23.0001 150.8 19.6001 153.3C0.700064 147.6 -3.39994 129.4 5.10006 75.3C5.50006 72.9 5.90006 70.5 6.30006 68C6.80006 64.9 7.40006 62 8.00006 59.2C8.40006 57.5 8.80006 55.9 9.10006 54.3C10.3001 49.4 11.7001 44.9 13.2001 40.8C24.5001 9.80003 43.6001 0.600024 62.9001 0.400024C82.2001 0.600024 101.2 9.80003 112.6 40.8C114.1 44.9 115.5 49.4 116.7 54.3C117.1 55.9 117.5 57.5 117.8 59.2C118.4 62 119 64.9 119.5 68C119.9 70.5 120.3 72.9 120.7 75.3C129 129.3 124.9 147.6 106.1 153.3Z" fill="white"/>
<path d="M59.7 50.7C58 50.8 57 52.7 58.1 54.1C59.2 55.5 60.9 56.8 63.6 57C66.5 57.2 68.5 55.8 69.7 54.2C70.7 52.9 69.8 51 68.2 50.9C65.8 50.8 62.6 50.6 59.7 50.7Z" fill="#1B1C1E" stroke="#1B1C1E" stroke-width="1.3738" stroke-miterlimit="10"/>
<path d="M64.2 57C64.2 57 64.4 61.3 64.3 61.6C64.2 61.9 59.5 64.7 53.3 64.1" stroke="#1B1C1E" stroke-width="1.3" stroke-miterlimit="10"/>
<path d="M64.3 61.7C64.3 61.7 67.9 64.7 74.5 65" stroke="#1B1C1E" stroke-width="1.3" stroke-miterlimit="10"/>
<path d="M41 52.4C44.866 52.4 48 49.266 48 45.4C48 41.534 44.866 38.4 41 38.4C37.134 38.4 34 41.534 34 45.4C34 49.266 37.134 52.4 41 52.4Z" fill="#1B1C1E"/>
<path d="M86.8 52.4C90.666 52.4 93.8 49.266 93.8 45.4C93.8 41.534 90.666 38.4 86.8 38.4C82.9341 38.4 79.8 41.534 79.8 45.4C79.8 49.266 82.9341 52.4 86.8 52.4Z" fill="#1B1C1E"/>
<path d="M58.6001 63.9C58.6001 63.9 59.0001 68.4 63.9001 68.6C69.4001 68.8 69.7001 64.1 69.7001 64.1" stroke="#1B1C1E" stroke-width="1.3" stroke-miterlimit="10"/>
<path d="M64.7001 90.8001C63.7001 89.7001 62.0001 89.7001 61.0001 90.8001C58.2001 93.7001 53.1001 100.1 52.2001 108.7C51.1001 119.9 57.2001 124.3 62.2001 124.5C67.2001 124.6 74.4001 120.4 73.0001 108.7C71.8001 99.5001 67.3001 93.6001 64.7001 90.8001Z" fill="#FFCB6E"/>
<path d="M76.3 1.90004C76.3 13.7 70.4 25 63.9 24.8C51 24.5 49.3 1.90004 49.3 1.90004C53.9 0.80004 58.5 0.300049 62.8 0.300049C67.1 0.300049 71.7 0.80004 76.3 1.90004Z" fill="#CECECE"/>
<path d="M53.8 154.8C53.8 155 53.8 155.1 53.8 155.1" stroke="#1B1C1E" stroke-width="1.3037" stroke-miterlimit="10"/>
<path d="M45.6998 155.4C45.6998 155.4 45.5999 152 45.0999 150.9" stroke="#1B1C1E" stroke-width="1.3" stroke-miterlimit="10"/>
<path d="M38.5 155.6C38.5 155.6 37.8 152.7 36.7 152" stroke="#1B1C1E" stroke-width="1.3" stroke-miterlimit="10"/>
<path d="M45.7 141.7C45.7 141.7 46.5 140 46.7 136.3" stroke="#1B1C1E" stroke-width="1.3" stroke-miterlimit="10"/>
<path d="M71.8 155.1C71.8 155.1 71.8 155 71.8 154.8" stroke="#1B1C1E" stroke-width="1.3037" stroke-miterlimit="10"/>
<path d="M79.9001 155.4C79.9001 155.4 80.0002 152 80.5002 150.9" stroke="#1B1C1E" stroke-width="1.3" stroke-miterlimit="10"/>
<path d="M87.1001 155.6C87.1001 155.6 87.8001 152.7 88.9001 152" stroke="#1B1C1E" stroke-width="1.3" stroke-miterlimit="10"/>
<path d="M79.9001 141.7C79.9001 141.7 79.1001 140 78.9001 136.3" stroke="#1B1C1E" stroke-width="1.3" stroke-miterlimit="10"/>
<path d="M40.3002 83.7001C40.3002 83.7001 48.0002 93.9001 57.0002 100.9C61.7002 104.5 64.6002 111.8 59.3002 116C53.3002 120.7 20.5001 112.6 8.40015 90.0001" fill="white"/>
<path d="M40.3002 83.7001C40.3002 83.7001 48.0002 93.9001 57.0002 100.9C61.7002 104.5 64.6002 111.8 59.3002 116C53.3002 120.7 20.5001 112.6 8.40015 90.0001" stroke="#1B1C1E" stroke-width="1.3" stroke-miterlimit="10"/>
<path d="M62.2 109.8C62.2 109.8 58.6 109.1 56.8 107.7" stroke="#1B1C1E" stroke-width="1.3" stroke-miterlimit="10"/>
<path d="M59.9002 115.5C59.9002 115.5 55.6002 115.3 54.5002 114.7" stroke="#1B1C1E" stroke-width="1.3" stroke-miterlimit="10"/>
<path d="M85.7001 83.7001C85.7001 83.7001 78.0001 93.9001 69.0001 100.9C64.3001 104.5 61.4001 111.8 66.7001 116C72.7001 120.7 105.5 112.6 117.6 90.0001" fill="white"/>
<path d="M85.7001 83.7001C85.7001 83.7001 78.0001 93.9001 69.0001 100.9C64.3001 104.5 61.4001 111.8 66.7001 116C72.7001 120.7 105.5 112.6 117.6 90.0001" stroke="#1B1C1E" stroke-width="1.3" stroke-miterlimit="10"/>
<path d="M63.8 109.8C63.8 109.8 67.4001 109.1 69.2001 107.7" stroke="#1B1C1E" stroke-width="1.3" stroke-miterlimit="10"/>
<path d="M66.1001 115.5C66.1001 115.5 70.4001 115.3 71.5001 114.7" stroke="#1B1C1E" stroke-width="1.3" stroke-miterlimit="10"/>
<path d="M23.5 50.6001C23 55.4001 13.5 54.8001 9 54.2001C10.2 49.3001 11.6 44.8001 13.1 40.7001C16.1 41.9001 24 45.5001 23.5 50.6001Z" fill="#CECECE"/>
<path d="M13.8 67.2001C13.1 71.8001 8.3 74.2001 5 75.2001C5.4 72.8001 5.8 70.4001 6.2 67.9001C6.7 64.8001 7.29999 61.9001 7.89999 59.1001C10.6 60.1001 14.5 62.4001 13.8 67.2001Z" fill="#CECECE"/>
<path d="M116.6 54.2001C112.1 54.8001 102.6 55.4001 102.1 50.6001C101.6 45.5001 109.5 41.9001 112.5 40.7001C114 44.8001 115.4 49.3001 116.6 54.2001Z" fill="#CECECE"/>
<path d="M120.6 75.2001C117.3 74.1001 112.5 71.8001 111.8 67.2001C111.1 62.4001 115 60.1001 117.7 59.1001C118.3 61.9001 118.9 64.8001 119.4 67.9001C119.8 70.4001 120.2 72.9001 120.6 75.2001Z" fill="#CECECE"/>
<mask id="mask0_70_1445" style="mask-type:luminance" maskUnits="userSpaceOnUse" x="36" y="114" width="54" height="41">
<path d="M79.1001 122.6C68.1001 115.6 56.1001 110.6 45.1001 118.6C36.6001 124.5 34.9001 133.8 36.8001 142.9C40.3001 141.5 43.6001 140.7 45.7001 141.6C54.2001 145.2 54.0001 153.1 53.8001 154.7C56.4001 154.5 58.8001 154.4 60.9001 154.4C61.5001 154.4 62.1001 154.4 62.8001 154.4C63.4001 154.4 64.0001 154.4 64.7001 154.4C66.8001 154.4 69.2001 154.5 71.8001 154.7C71.7001 153.1 71.4001 145.2 79.9001 141.6C82.1001 140.7 85.5001 141.5 89.2001 143C89.8001 135.1 86.5001 127.5 79.1001 122.6Z" fill="white"/>
</mask>
<g mask="url(#mask0_70_1445)">
<g opacity="0.78">
<path d="M58.9001 153.8C59.0001 153.7 59.1001 153.5 59.2001 153.3L58.9001 153.8Z" fill="#080809"/>
<path d="M57.9 152C57.9 151.9 57.9 151.8 57.8 151.8C57.8 151.9 57.9 151.9 57.9 152Z" fill="#080809"/>
<path d="M64.7001 156.4C64.5001 155.2 65.1002 156.3 65.0002 155.1C64.8002 155.4 64.7002 155.6 64.6002 155C64.7002 154.3 65.0002 155 65.0002 154L64.7001 154.4C64.5001 153.9 64.7002 153.1 64.5002 153.2C64.4002 154.6 63.6001 152.7 63.4001 152.9L63.5002 152.8L63.1002 152.1V152C63.1002 152.1 63.1002 152.2 63.1002 152.3C62.9002 151.6 62.6001 151.1 62.2001 151.3C62.1001 152.1 61.2002 151.6 61.0002 152.3C61.1002 152.1 61.3001 152.1 61.4001 152.3V153.3C61.1001 153.3 61.3002 152.4 61.1002 153C61.2002 154.4 61.5002 153 61.8002 153.1C61.7002 153.4 61.6002 153.7 61.5002 153.8C61.9002 153.8 62.4002 154.3 62.6002 152.9C62.7002 153.2 62.7002 153.7 62.6002 153.9C62.9002 153.1 62.9002 154.6 63.1002 153.9C63.1002 155.1 62.5001 154.6 62.2001 155.3C61.7001 154.3 61.2002 155.3 60.8002 155.5C60.7002 154.6 61.0002 153.7 60.8002 153.2C60.3002 152.6 60.4002 153.7 60.1002 154.3C59.8002 154 60.0002 152.7 59.5002 152.7L59.8002 152.1C59.5002 150.8 59.5002 152.6 59.3002 152.4C59.4002 152.7 59.4001 153.1 59.7001 153C59.7001 153.5 59.6002 153.7 59.5002 153.8H59.6002C59.5002 154.5 59.5001 155.2 59.2001 154.8C59.4001 154 58.9002 154.2 58.8002 153.8L58.9001 153.6C58.7001 153.9 58.4002 153.8 58.3002 153.9V153.7C58.1002 154 58.1002 155 57.8002 154.8C57.8002 154.4 58.1002 153.3 57.8002 153.5C57.8002 152.9 58.1001 152.8 58.4001 153C58.1001 152.8 58.0002 151.8 58.3002 151.7C58.2002 150.9 58.0002 152 57.8002 151.7C57.8002 151.9 57.8002 152.2 57.8002 152.4C57.8002 151.4 57.2001 152.3 57.2001 153.1L57.5002 152.5C57.5002 153.3 57.2002 153.9 57.3002 154.4C57.1002 153.1 56.5002 155.1 56.3002 153.9L56.4001 154.6C55.8001 154.2 55.2002 155.7 54.6002 156C54.8002 155.6 54.8002 154.1 55.3002 154.6C54.7002 154.3 55.1001 153.2 54.9001 152.5C54.4001 152 54.7002 153.8 54.5002 154.3L54.8002 154C54.4002 155.7 53.6001 153.6 52.9001 154.6C52.9001 154.2 53.0002 154.4 53.1002 154.2C52.8002 153.3 52.8002 154.4 52.6002 154.7C52.3002 154.6 51.9001 154.2 52.2001 153.1C51.9001 152.8 52.2002 153.7 52.0002 154L51.9001 153.8L51.5002 154.9C51.2002 154.6 50.9002 154 50.8002 153C50.1002 153.2 50.5001 155.3 49.9001 155.6C49.6001 155.1 50.0002 154.8 50.0002 154.5L49.6002 154.6C49.8002 153.5 50.1001 154.1 50.2001 152.8C49.8001 154.1 49.7001 153.2 49.2001 154V154.1C48.9001 155 48.5001 154.3 48.2001 154.4C48.4001 153.9 48.7001 153.9 48.9001 153.7C48.6001 153.3 47.8001 153.6 47.4001 154.7C47.2001 154.5 46.9001 154 47.2001 153.6C46.6001 153.4 46.8002 155.1 46.3002 154.7L46.4001 153.9C45.9001 152.7 45.1002 154.8 44.6002 153.7L44.5002 154.6C44.4002 154.2 44.2001 154 44.2001 153.6L44.5002 153.3C44.3002 152.5 44.1001 154 43.9001 153.4C43.9001 153.7 44.0002 154.3 44.0002 154.6C44.7002 154.5 45.3001 154.8 45.9001 155C46.5001 155.2 47.2002 155.5 47.8002 155C47.8002 154.9 47.7002 154.7 47.8002 154.5C47.9002 154.8 48.2002 154.5 48.1002 155.1L48.0002 155.2C48.4002 155 48.6002 156.3 48.8002 156.3C49.0002 155.6 49.5001 156.7 49.4001 155.4L49.6002 156.2C49.7002 155.8 49.7002 155.1 49.8002 154.9C50.0002 155 50.0002 155.5 49.8002 155.8C50.7002 156.4 51.7001 156.3 52.7001 156L52.4001 156.6C52.6001 156.9 53.2002 155.6 53.0002 157.1C53.5002 156.5 54.2002 157.6 54.3002 156C54.6002 157.6 55.4002 156.7 56.0002 156.5C55.9002 155.1 56.5001 156.1 56.7001 155.5C56.8001 156.6 56.2001 156.6 56.2001 157.3C56.8001 155.6 58.0001 158.5 58.2001 155.7C58.3001 155.8 58.3002 155.9 58.3002 156C58.4002 156 58.6001 156.5 58.7001 156.6C58.8001 156.1 58.5002 155.9 58.8002 155.7C59.0002 155.8 58.9002 156.6 59.0002 156.9C59.4002 156.3 60.1001 156 60.2001 154.9C60.3001 155.2 60.5001 155.8 60.4001 156C61.1001 155.1 61.1002 156.1 61.8002 155.5C61.6002 155.6 61.7001 156.7 61.4001 156.2C61.8001 157.7 62.5002 155.8 63.1002 156.6L63.3002 155.6C63.6002 155.4 63.7002 156.3 63.5002 156.7C64.1002 157.2 64.4002 156.6 64.8002 156.5C64.8002 156.6 64.8001 156.8 64.7001 156.8L65.3002 156.7C65.3002 156.5 65.5002 156 65.5002 155.4C65.2002 156.4 65.1001 156.7 64.7001 156.4Z" fill="#080809"/>
<path d="M59.3 152C59.4 152.2 59.4 152.4 59.5 152.4C59.4 152.3 59.4 152.2 59.3 152Z" fill="#080809"/>
<path d="M71.1002 153.6C70.9002 152.5 70.7002 153.8 70.4002 153.6C70.6002 153.4 70.5002 152.8 70.5002 152.5C70.3002 153.9 70.1002 152.2 69.5002 152.6C69.4002 152.1 69.7002 152 69.7002 151.5C69.4002 151.9 68.9002 152.1 68.9002 152.9C68.3002 152.9 67.9002 152.6 67.6002 152.8C68.0002 152.4 67.6002 151.9 67.8002 151.1C67.5002 152.1 66.7002 153.5 66.2002 154.9C66.0002 153.8 66.0002 153.7 66.0002 152.8C65.3002 152.1 65.9002 153.8 65.2002 153.5L65.5002 153.7C65.2002 154 65.3002 155.1 65.2002 155.8L65.9002 155.6C65.9002 156.3 65.5002 156.3 65.3002 156.5C65.1002 157.4 65.8002 157.1 65.7002 157.8C65.8002 157.2 66.1002 157.3 66.3002 157L66.4002 157.4C66.8002 157.7 66.9002 156.7 67.2002 156.7C67.2002 156.8 67.2002 156.9 67.2002 156.9C67.3002 156.5 67.4002 155.9 67.5002 155.7L67.4002 155.8C67.6002 154.9 68.2002 154.2 67.7002 153.3L68.5002 153.5C68.5002 154.4 68.5002 155.9 68.0002 156.1V156.5C68.4002 157 68.9002 155.6 68.6002 154.8C68.7002 152.6 69.8002 154.6 70.2002 153.6C70.3002 154.1 70.0002 154.4 69.9002 154.8C69.7002 154.9 69.6002 154.9 69.6002 154.4C68.9002 154.8 69.9002 156.2 69.1002 156.2C68.7002 156 69.5002 155.2 68.9002 155.2L68.6002 157C69.0002 156.9 69.3002 156.5 69.5002 156.2C70.3002 155.5 71.0002 155.3 71.4002 155.2C71.9002 155.2 72.2002 155.3 72.2002 155.3C74.6002 154.5 76.9002 153.6 79.2002 152.6C79.9002 152.3 80.2002 152.1 80.4002 151.9C80.2002 151.9 79.8002 152 79.9002 151.9C79.8002 152 79.6002 152.1 79.2002 152.2C79.1002 152.1 79.5002 152.1 79.4002 152.1H79.3002C79.3002 152 79.4002 152 79.5002 152C79.0002 151.9 78.2002 151.9 77.9002 152.3C77.5002 152.1 78.1002 152 78.3002 151.9C77.0002 151.7 76.1002 151.7 74.9002 151.7C75.0002 152.3 74.8002 152.1 74.7002 152.5L74.6002 152.3C74.7002 152.4 74.5002 152.9 74.8002 153C74.0002 152.6 74.0002 154 73.6002 154.5V154.1C73.2002 154.3 73.1002 154.3 72.8002 154.6C72.1002 153.9 73.4002 154.3 73.1002 153.4L72.9002 153.6C73.0002 153.2 73.0002 152.5 73.2002 152.2C72.6002 152.9 72.3002 152 71.6002 152.5C71.6002 152 72.2002 151.6 72.4002 151.5C72.2002 151.4 71.8002 151.8 71.7002 151.3V151.9C71.3002 152 71.7002 151.3 71.5002 150.9C70.8002 151.1 71.9002 153.1 71.1002 153.6Z" fill="#080809"/>
<path d="M61.2002 153.9C61.3002 154 61.4002 153.9 61.5002 153.8C61.4002 153.9 61.3002 153.9 61.2002 153.9Z" fill="#080809"/>
<path d="M63.2001 150.8C63.3001 151.2 63.1001 151.2 63.1001 151.7C63.2001 151.5 63.5001 151.5 63.2001 150.8Z" fill="#080809"/>
<path d="M37.5001 151.4L37.1001 151.7C37.1001 151.5 36.7001 151.4 36.8001 151.1C36.6001 151.1 36.6001 151.2 36.4001 151.3C36.3001 151.1 36.3001 151 36.1001 151.1C36.7001 151.5 36.5001 151.5 37.0001 151.8C37.0001 151.9 36.9001 151.8 36.8001 151.8L37.1001 152.1C37.2001 151.7 37.7001 151.8 37.5001 151.4Z" fill="#080809"/>
<path d="M37.9002 151.9C37.6002 151.9 37.3002 152.2 37.4002 152.5C37.6002 152.5 37.9002 152.4 38.1002 152.4C38.0002 152.3 37.7002 152.2 37.9002 151.9Z" fill="#080809"/>
<path d="M38.4001 152C38.5001 152.2 38.5001 152.8 38.9001 152.4C38.5001 152.4 38.8001 151.7 38.4001 152Z" fill="#080809"/>
<path d="M40.5002 152.9L40.0002 152.4C40.0002 151.7 40.3003 152.2 40.6003 151.9C40.1003 151.7 40.2002 152 39.7002 152.3C39.6002 152.2 39.3002 152.5 39.0002 152.6C39.9002 152.4 39.6002 154.1 40.5002 152.9Z" fill="#080809"/>
<path d="M39.4 152L39.3 152.3L39.6001 152.1L39.4 152Z" fill="#080809"/>
<path d="M41.8002 154.1C42.0002 155.2 42.6002 153.7 43.0002 154.2C42.9002 154.3 43.0001 154.3 42.9001 154.4H43.3002V154.6C43.4002 154 43.8002 153.8 44.0002 153.3C43.7002 152.6 43.7002 154.1 43.5002 153.3C43.6002 153 43.7002 152.6 43.8002 152.4C43.5002 152.7 43.4002 153.1 43.3002 153.4C43.1002 153.4 43.2001 153.1 43.2001 152.8C42.9001 153.1 42.7001 154 42.4001 153.7C42.2001 153.1 42.7001 152.9 42.2001 153C42.3001 154 41.8002 152.8 41.5002 153.3C41.2002 153 41.1001 152.5 41.2001 152.2C41.1001 152.9 40.7001 153.4 40.4001 153.5C40.6001 153.4 40.8002 153.2 41.1002 153.1V153.9C41.4002 153.8 41.6002 153.9 41.8002 154.1Z" fill="#080809"/>
<path d="M43.7002 152.5C43.7002 152.4 43.8002 152.4 43.8002 152.3C43.8002 152.3 43.8002 152.3 43.7002 152.5Z" fill="#080809"/>
<path d="M41.0002 152.1L41.2002 152L41.1003 151.8L41.0002 152.1Z" fill="#080809"/>
<path d="M44.1003 151.8C44.0003 151.8 44.0002 152.1 44.0002 152.1L44.2002 151.7L44.1003 151.8Z" fill="#080809"/>
<path d="M44.3 152.4L44.5 153L44.6001 152.6L44.3 152.4Z" fill="#080809"/>
<path d="M51.9001 153.4C51.7001 153 51.7001 153.8 51.6001 154.4C52.0001 154.6 51.7001 153.7 51.9001 153.4Z" fill="#080809"/>
<path d="M56.7001 152.4C56.4001 151.9 56.2001 152.7 55.9001 152.7C56.2001 153.1 56.5001 152.8 56.7001 152.4Z" fill="#080809"/>
<path d="M58.7002 149.5C58.6002 149.8 58.6002 149.9 58.7002 150L58.5002 151.5C58.9002 152 58.7002 150.2 58.7002 149.5Z" fill="#080809"/>
<path d="M61.0002 149.4L60.7002 149.9H60.9002C60.8002 150.5 60.8002 150.8 60.7002 151.2C60.8002 151 61.1002 150.4 61.0002 149.4Z" fill="#080809"/>
<path d="M60.2002 151.6L60.3002 151.5C60.3002 151.3 60.3002 151.1 60.2002 151.6Z" fill="#080809"/>
<path d="M60.5 151.5C60.5 151.4 60.5 151.4 60.5 151.3C60.4 151.4 60.4 151.4 60.3 151.5C60.4 151.6 60.5 151.7 60.5 151.5Z" fill="#080809"/>
<path d="M61.3 150.1L61.9 150L61.6001 149.7C61.6001 150.5 61.3 149.1 61.3 150.1Z" fill="#080809"/>
<path d="M64.7002 150.9L64.8002 151.7C65.2002 151.9 65.6002 150.2 66.0002 151.4C65.8002 150.9 66.3002 150.5 65.8002 150.3C65.6002 151 65.0002 151.1 64.7002 150.9Z" fill="#080809"/>
<path d="M66.3002 152C66.2002 152.2 66.4002 152.4 66.4002 152.6C66.6002 152.7 66.7002 152.3 66.6002 152C66.6002 153.1 66.4002 151.4 66.3002 152Z" fill="#080809"/>
<path d="M68.2002 151.9C68.1002 151.9 67.9002 152 68.1002 152.2C68.5002 152.1 68.3002 151.3 68.4002 150.9C68.1002 150.4 68.0002 151.5 68.2002 151.9Z" fill="#080809"/>
<path d="M71.2003 152L71.0002 151.9V152.7L71.2003 152Z" fill="#080809"/>
<path d="M73.3001 151.6L73.5001 151.2H73.1001L73.3001 151.6Z" fill="#080809"/>
<path d="M73.7002 151.7H74.1002L74.0002 151.5C73.8002 151.4 73.9002 151.7 73.7002 151.7Z" fill="#080809"/>
<path d="M74.8001 151.7C74.8001 151.7 74.7002 151.7 74.7002 151.6L74.4001 151.8L74.8001 151.7Z" fill="#080809"/>
<path d="M80.8002 152.1C80.7002 152.2 81.0002 152 81.1002 151.9C81.1002 151.9 80.9002 152 80.8002 152.1Z" fill="#080809"/>
</g>
</g>
</svg>
