<svg width="192" height="114" viewBox="0 0 192 114" fill="none" xmlns="http://www.w3.org/2000/svg">
<path d="M12.8002 109.4C12.8002 109.4 5.10015 111.3 26.2002 111.8C47.4002 112.4 158 114.2 169.5 113.3C181 112.4 194.9 110 173.3 108.9C156.9 108.1 132.9 108.2 116.2 107.9C86.2002 107.5 21.9002 107.6 12.8002 109.4Z" fill="#1B1C1E"/>
<path d="M52.5002 96.3C52.5002 96.3 50.9002 98.4 47.6002 101.5C47.6002 101.5 40.8002 105.8 41.9002 109.4C41.9002 109.4 51.8002 109.4 58.2002 109.4C64.6002 109.4 80.9002 99.8 80.9002 99.8C80.9002 99.8 64.0002 95.8 52.5002 96.3Z" fill="#FFB192"/>
<path d="M46.5 109.3C46.5 109.3 46.9 107.5 48.6 106.6" stroke="#1B1C1E" stroke-miterlimit="10"/>
<path d="M51 109.3C51 109.3 52.3 107.8 53.2 107.6" stroke="#1B1C1E" stroke-miterlimit="10"/>
<path d="M86.0001 45.6C72.5001 61.2 29.5001 69.8 19.7001 49C9.90006 28.2 40.5001 5.3 40.5001 5.3C59.5001 -4.1 69.5001 3.7 92.2001 4.6C92.2001 4.6 105.6 23.1 86.0001 45.6Z" fill="#EB8226"/>
<path d="M134.3 49C129.1 80 95.2001 98.4 70.8001 105C57.3001 103.3 47.0001 100.9 44.1001 96.5C38.0001 87.4 -0.999942 81.8 0.400058 54.4C1.50006 32.7 24.9001 13.7 38.3001 6.39999C39.1001 5.99999 39.8001 5.6 40.5001 5.2C40.5001 5.2 9.80006 28.1 19.7001 48.9C29.5001 69.7 72.5001 61.1 86.0001 45.5C105.6 23 92.2001 4.5 92.2001 4.5C97.4001 4.7 103.3 4.5 110.2 3.7C113 3.4 115.8 3.1 118.7 3C118.8 3 118.8 3 118.9 3C122 5.6 139.1 20.6 134.3 49Z" fill="#F7EDE1"/>
<path d="M191.2 67.8C188.6 117.6 153.6 113.9 120.6 109.9C103.5 107.9 85.3 106.8 70.8 105C95.2 98.3 129.1 79.9 134.3 49C139 20.6 122 5.6 118.8 3.1C123.1 2.9 127.5 2.99999 131.9 3.39999C135 5.09999 150.3 15.1 156.2 43.3C162.7 74.7 151.3 96.6 167 93.7C182.7 90.7 191.2 67.8 191.2 67.8Z" fill="#EB8226"/>
<path d="M191.2 67.8C191.2 67.8 182.7 90.7001 167 93.6001C151.3 96.5001 162.8 74.6 156.2 43.2C150.3 15 135 5.10005 131.9 3.30005C163.4 6.10005 193.5 24 191.2 67.8Z" fill="#3D3533"/>
<path d="M32.4001 31.6999C29.7001 32.2999 26.4001 36.1999 26.4001 40.8999C26.4001 47.8999 31.5002 50.1 35.8002 48.6C40.1002 47.1 41.1002 42.2 40.1002 38.6C39.3002 35.4 35.7001 30.8999 32.4001 31.6999Z" fill="#1B1C1E"/>
<path d="M48.4001 11.5001C48.4001 11.5001 51.8002 2.20005 61.0002 5.50005C70.1002 8.80005 74.1002 26.9001 72.1002 32.6001C70.9002 36.2001 63.8002 34.9001 56.6002 23.5001C51.3002 15.0001 48.4001 11.5001 48.4001 11.5001Z" fill="#3D3533"/>
<path d="M10.3 67.9C1 69.6 1 59.4 1 59.4C2.6 59.1 4.90001 58.4 7.10001 56.4" stroke="#1B1C1E" stroke-miterlimit="10"/>
<path d="M30.4001 39.5C31.1181 39.5 31.7001 38.918 31.7001 38.2C31.7001 37.4821 31.1181 36.9 30.4001 36.9C29.6821 36.9 29.1001 37.4821 29.1001 38.2C29.1001 38.918 29.6821 39.5 30.4001 39.5Z" fill="#F7EDE1"/>
<mask id="mask0_70_895" style="mask-type:luminance" maskUnits="userSpaceOnUse" x="70" y="3" width="122" height="110">
<path d="M191.2 67.8C188.6 117.6 153.6 113.9 120.6 109.9C103.5 107.9 85.3 106.8 70.8 105C95.2 98.3 129.1 79.9 134.3 49C139 20.6 122 5.6 118.8 3.1C123.1 2.9 127.5 2.99999 131.9 3.39999C135 5.09999 150.3 15.1 156.2 43.3C162.7 74.7 151.3 96.6 167 93.7C182.7 90.7 191.2 67.8 191.2 67.8Z" fill="white"/>
</mask>
<g mask="url(#mask0_70_895)">
<g opacity="0.78">
<path d="M138 110.4C138.1 110.3 138.2 110.2 138.2 110L138 110.4Z" fill="#4B1804"/>
<path d="M137.1 109.1C137.1 109 137.1 109 137 108.9C137 109 137 109.1 137.1 109.1Z" fill="#4B1804"/>
<path d="M146.5 112.2C146.6 112.2 146.6 112.2 146.6 112.2V112.1C146.6 112 146.5 112.1 146.5 112.2Z" fill="#4B1804"/>
<path d="M146.2 111.8H146.3C146.2 111.7 146.2 111.7 146.2 111.8Z" fill="#4B1804"/>
<path d="M143.4 112.3C143.2 111.3 143.7 112.2 143.6 111.3C143.4 111.5 143.3 111.7 143.2 111.2C143.3 110.7 143.6 111.2 143.6 110.4L143.4 110.7C143.2 110.3 143.4 109.7 143.2 109.7C143.1 110.8 142.4 109.3 142.2 109.5L142.3 109.4L141.9 108.9C141.9 108.9 141.9 108.9 141.9 108.8C141.9 108.9 141.9 108.9 141.9 109C141.7 108.5 141.4 108.1 141.1 108.2C141 108.8 140.1 108.5 140 109C140.1 108.8 140.2 108.8 140.4 109V109.8C140.1 109.8 140.3 109.1 140.1 109.6C140.2 110.6 140.5 109.6 140.7 109.7C140.6 109.9 140.6 110.2 140.4 110.3C140.8 110.3 141.2 110.6 141.4 109.6C141.5 109.8 141.5 110.2 141.4 110.4C141.6 109.8 141.7 111 141.9 110.4C141.9 111.4 141.3 110.9 141.1 111.5C140.7 110.8 140.2 111.5 139.8 111.7C139.7 111 140 110.4 139.8 110C139.4 109.6 139.4 110.4 139.2 110.8C138.9 110.6 139.1 109.6 138.6 109.6L138.8 109.1C138.5 108.1 138.6 109.5 138.3 109.3C138.4 109.6 138.4 109.8 138.6 109.8C138.6 110.2 138.5 110.3 138.4 110.4H138.5C138.4 110.9 138.4 111.4 138.1 111.2C138.2 110.6 137.8 110.8 137.7 110.5L137.8 110.4C137.6 110.6 137.4 110.5 137.2 110.7V110.6C137.1 110.9 137 111.6 136.8 111.4C136.8 111.1 137 110.3 136.8 110.4C136.8 110 137.1 109.9 137.3 110C137.1 109.9 136.9 109.1 137.2 109.1C137.1 108.5 136.9 109.4 136.8 109.1C136.8 109.3 136.8 109.5 136.8 109.6C136.7 108.8 136.2 109.6 136.3 110.1L136.6 109.7C136.7 110.3 136.3 110.7 136.5 111.1C136.3 110.2 135.8 111.6 135.6 110.8L135.7 111.3C135.1 111 134.7 112.2 134.1 112.4C134.3 112.1 134.3 111 134.6 111.4C134 111.2 134.4 110.4 134.2 109.9C133.7 109.5 134 110.9 133.9 111.2L134.2 111C133.9 112.2 133.1 110.8 132.5 111.6C132.4 111.3 132.6 111.4 132.7 111.3C132.4 110.7 132.4 111.4 132.3 111.7C132 111.6 131.7 111.3 131.8 110.6C131.5 110.4 131.8 111.1 131.7 111.3L131.6 111.1L131.3 112C131 111.8 130.7 111.3 130.5 110.6C129.9 110.8 130.3 112.3 129.9 112.6C129.6 112.2 129.9 112 130 111.7L129.6 111.8C129.7 110.9 130.1 111.4 130 110.4C129.7 111.4 129.6 110.7 129.1 111.4V111.5C128.9 112.2 128.4 111.7 128.2 111.9C128.3 111.5 128.6 111.4 128.8 111.3C128.5 111 127.8 111.3 127.5 112.2C127.3 112.1 127 111.7 127.2 111.3C126.6 111.2 127 112.6 126.4 112.3V111.6C125.8 110.6 125.3 112.5 124.7 111.6V112.4C124.6 112.1 124.3 111.9 124.3 111.6L124.6 111.3C124.4 110.6 124.3 112 124 111.5C124 111.7 124.2 112.3 124.2 112.6C125.4 112.1 126.5 113.3 127.7 112.5C127.7 112.4 127.6 112.3 127.6 112.1C127.7 112.3 128 112.1 127.9 112.5V112.6C128.2 112.4 128.5 113.4 128.7 113.4C128.8 112.8 129.3 113.6 129.2 112.7L129.4 113.3C129.5 112.9 129.4 112.5 129.5 112.3C129.7 112.4 129.7 112.8 129.6 113C130.4 113.3 131.4 113.2 132.2 112.9L132 113.4C132.2 113.6 132.7 112.6 132.6 113.7C133 113.2 133.7 114 133.7 112.8C134 113.9 134.7 113.3 135.2 113.1C135.1 112.1 135.6 112.8 135.8 112.3C135.9 113.1 135.4 113.1 135.4 113.7C135.9 112.5 137.1 114.5 137.2 112.5C137.3 112.6 137.3 112.7 137.3 112.7C137.4 112.7 137.6 113 137.7 113.1C137.7 112.7 137.5 112.6 137.8 112.5C138 112.6 137.9 113.1 138 113.4C138.4 112.9 139 112.7 139 111.9C139.1 112.1 139.3 112.6 139.2 112.7C139.8 112 139.8 112.8 140.4 112.3C140.2 112.3 140.4 113.2 140 112.9C140.3 114 141 112.6 141.5 113.2L141.6 112.5C141.9 112.3 142 113 141.8 113.3C142.4 113.7 142.6 113.2 143 113.2C143 113.3 143 113.4 143 113.4H143.6C143.6 113.2 143.8 112.8 143.7 112.4C143.9 112.3 143.8 112.5 143.4 112.3Z" fill="#4B1804"/>
<path d="M138.4 109.1C138.5 109.3 138.5 109.4 138.6 109.4C138.5 109.3 138.4 109.1 138.4 109.1Z" fill="#4B1804"/>
<path d="M149.3 109.9C149.1 108.8 149 110.1 148.7 109.9C148.9 109.7 148.8 109.1 148.7 108.7C148.6 110.2 148.3 108.5 147.8 108.8C147.7 108.3 148 108.2 148 107.7C147.7 108.1 147.3 108.3 147.3 109.2C146.8 109.3 146.4 109 146.1 109.2C146.4 108.8 146.1 108.4 146.3 107.7C146 108.7 145.3 109.9 144.9 111.1C144.7 110.2 144.7 110.1 144.7 109.3C144 108.8 144.6 110.1 144 109.9L144.3 110C144 110.3 144.1 111.1 144.1 111.7L144.8 111.5C144.9 112.1 144.4 112.1 144.3 112.2C144.2 112.9 144.7 112.7 144.7 113.3C144.8 112.8 145 112.9 145.2 112.7L145.3 113C145.7 113.3 145.8 112.5 146.1 112.5C146.1 112.6 146.1 112.7 146.1 112.7C146.2 112.3 146.2 111.9 146.4 111.7L146.3 111.8C146.5 111 147 110.4 146.5 109.6L147.2 109.8C147.2 110.7 147.2 112 146.8 112.1V112.5C147.2 112.9 147.6 111.7 147.3 111C147.4 108.9 148.4 110.8 148.8 109.9C148.9 110.5 148.6 110.7 148.6 111.1C148.5 111.2 148.3 111.2 148.3 110.7C147.7 111.1 148.6 112.4 147.9 112.3C147.5 112.1 148.2 111.4 147.7 111.3L147.5 112.9C147.8 112.8 148.1 112.5 148.4 112.3C149.8 111.1 151 111.8 151 111.8C153.2 111.3 155.4 110.8 157.6 110.2C158.3 109.8 158.5 109.9 158.5 108.3C158.3 108 157.9 108.3 157.9 107.7C157.9 108.3 157.7 108.6 157.4 108.7C157.3 108.2 157.7 108.4 157.6 108.3H157.5C157.5 108 157.5 107.8 157.6 107.8C157 107 156.3 107.4 156.3 108.5C155.9 108 156.4 107.6 156.4 107.1C155.2 106.9 154.5 107.1 153.3 107.2C153.4 108.2 153.3 107.8 153.2 108.5L153 108.2C153.1 108.4 153 109.1 153.3 109.2C152.5 108.5 152.7 110.6 152.3 111.1V110.6C151.9 110.7 151.8 110.8 151.5 111.1C150.8 110.2 152 110.9 151.7 109.7L151.6 109.9C151.6 109.4 151.6 108.5 151.8 108.2C151.3 109.1 150.9 108 150.4 108.7C150.4 108.1 150.9 107.6 151 107.5C150.8 107.5 150.5 107.9 150.4 107.4L150.5 108.1C150.1 108.2 150.5 107.4 150.3 107C148.9 107.3 150 109.4 149.3 109.9Z" fill="#4B1804"/>
<path d="M140.2 110.4C140.3 110.5 140.4 110.4 140.5 110.3C140.4 110.3 140.3 110.3 140.2 110.4Z" fill="#4B1804"/>
<path d="M141.9 107.9C142 108.2 141.9 108.2 141.8 108.6C142 108.4 142.2 108.4 141.9 107.9Z" fill="#4B1804"/>
<path d="M113.4 108.5C113.3 108.7 113.1 108.9 113.1 109.1L113.5 108.9L113.4 108.5Z" fill="#4B1804"/>
<path d="M114.1 109.3L114.4 109.6L114.7 108.6C114.3 108.7 114.5 109.3 114.1 109.3Z" fill="#4B1804"/>
<path d="M115 109.9L114.9 110.1C115 110.1 115 110 115 109.9Z" fill="#4B1804"/>
<path d="M115 109.5L115.2 108.8L114.7 109.3L114.9 109.4C114.9 109.6 115 109.7 115 109.9L115.2 109.4C115.2 109.5 115.1 109.6 115 109.5Z" fill="#4B1804"/>
<path d="M116.2 110.8C116.1 110.5 116.3 110.2 116.3 109.9C116 109.6 115.9 110.7 115.6 110.3C116.1 109.8 115.5 109.9 115.3 109.5C115.4 110.2 115.5 110.6 115.8 110.8L115.9 110.4C116.2 110.4 116.1 110.6 116.2 110.8Z" fill="#4B1804"/>
<path d="M118 109.8L117.7 110.4C117.7 110.1 117.2 110.1 117.3 109.4C117.1 109.5 117.1 109.8 117 110C116.9 109.7 116.8 109.4 116.7 109.9C117.3 110.4 117.1 110.5 117.7 110.8C117.7 110.9 117.6 110.9 117.5 110.9L117.9 111.3C117.9 110.4 118.4 110.4 118 109.8Z" fill="#4B1804"/>
<path d="M118.5 110.4C118.2 110.4 118 111.1 118.2 111.5L118.8 111C118.7 110.9 118.4 111 118.5 110.4Z" fill="#4B1804"/>
<path d="M119 110.4C119.1 110.7 119.3 111.5 119.5 110.8C119.1 110.9 119.3 109.9 119 110.4Z" fill="#4B1804"/>
<path d="M121.1 111L120.5 110.5C120.4 109.6 120.8 110.2 121 109.8C120.5 109.6 120.7 109.9 120.3 110.4C120.2 110.3 119.9 110.8 119.8 111C120.5 110.5 120.5 112.6 121.1 111Z" fill="#4B1804"/>
<path d="M119.9 110.1V110.5L120.1 110.2L119.9 110.1Z" fill="#4B1804"/>
<path d="M122.4 112C122.7 113 123.1 111.4 123.5 111.9C123.5 112 123.5 112 123.4 112.2L123.7 112.1V112.3C123.7 111.7 124 111.4 124.2 111C123.9 110.3 124 111.8 123.7 111.1C123.8 110.8 123.8 110.4 123.9 110.2C123.7 110.5 123.6 110.9 123.5 111.2C123.3 111.3 123.3 110.9 123.3 110.7C123.1 111.1 123 112 122.7 111.7C122.5 111.2 122.9 110.8 122.4 111.1C122.6 112.1 122 110.9 121.8 111.6C121.5 111.4 121.3 110.8 121.4 110.4C121.4 111.2 121.1 111.8 120.9 112L121.4 111.4L121.6 112.3C122 111.8 122.2 111.8 122.4 112Z" fill="#4B1804"/>
<path d="M123.9 110.1C123.9 110 124 110 124 109.9C124 109.9 124 110 123.9 110.1Z" fill="#4B1804"/>
<path d="M121.4 110L121.6 109.9L121.5 109.6L121.4 110Z" fill="#4B1804"/>
<path d="M124.2 109.4C124.1 109.4 124.1 109.7 124.2 109.7L124.3 109.3L124.2 109.4Z" fill="#4B1804"/>
<path d="M124.5 110L124.7 110.5L124.8 110.1L124.5 110Z" fill="#4B1804"/>
<path d="M131.6 110.4C131.4 110.1 131.4 110.7 131.4 111.1C131.7 111.3 131.4 110.6 131.6 110.4Z" fill="#4B1804"/>
<path d="M136 109.5C135.7 109.1 135.5 109.7 135.3 109.7C135.5 110 135.8 109.8 136 109.5Z" fill="#4B1804"/>
<path d="M137.8 107.3C137.8 107.5 137.7 107.6 137.8 107.7L137.6 108.8C138 109.1 137.8 107.7 137.8 107.3Z" fill="#4B1804"/>
<path d="M139.9 107L139.6 107.4H139.8C139.7 107.8 139.7 108.1 139.6 108.4C139.8 108.2 140 107.8 139.9 107Z" fill="#4B1804"/>
<path d="M139.2 108.7C139.2 108.7 139.3 108.7 139.3 108.6C139.3 108.5 139.3 108.3 139.2 108.7Z" fill="#4B1804"/>
<path d="M139.5 108.6V108.5C139.4 108.6 139.4 108.6 139.3 108.6C139.4 108.7 139.4 108.8 139.5 108.6Z" fill="#4B1804"/>
<path d="M140.2 107.5L140.8 107.3L140.6 107.1C140.5 107.8 140.2 106.8 140.2 107.5Z" fill="#4B1804"/>
<path d="M143.3 107.8L143.4 108.4C143.8 108.5 144.1 107 144.5 108.1C144.3 107.7 144.7 107.3 144.3 107.2C144.1 107.8 143.6 107.9 143.3 107.8Z" fill="#4B1804"/>
<path d="M144.8 108.6C144.8 108.8 144.9 108.9 144.9 109.1C145 109.2 145.2 108.9 145.1 108.6C145.1 109.5 144.9 108.1 144.8 108.6Z" fill="#4B1804"/>
<path d="M146.5 108.4C146.4 108.4 146.2 108.5 146.4 108.7C146.7 108.6 146.6 107.9 146.7 107.4C146.4 107 146.3 108.1 146.5 108.4Z" fill="#4B1804"/>
<path d="M149.2 108.2L149.1 108.1V109L149.2 108.2Z" fill="#4B1804"/>
<path d="M151.1 107.5L151.3 106.9L151 107.1L151.1 107.5Z" fill="#4B1804"/>
<path d="M151.5 107.6L151.8 107.5L151.7 107.3C151.5 107.2 151.6 107.6 151.5 107.6Z" fill="#4B1804"/>
<path d="M152.5 107.3C152.5 107.4 152.4 107.3 152.4 107.2L152.2 107.6L152.5 107.3Z" fill="#4B1804"/>
<path d="M158.4 109.9C158.4 110.5 158.7 110.1 158.8 110.2C158.8 110 158.5 109.3 158.4 109.9Z" fill="#4B1804"/>
</g>
</g>
<path d="M176.3 104.2C173.4 108.3 169.2 112.1 164.2 112.1H150.7C150.7 112.1 149.9 107.6 157.3 105.1C160.7 104 164.5 103.8 169.2 103.9C171.6 103.9 176.3 104.2 176.3 104.2Z" fill="#FFB192"/>
<path d="M153.9 112.1C153.9 112.1 154.3 110.3 155.1 109.8" stroke="#1B1C1E" stroke-miterlimit="10"/>
<path d="M158.2 112.1C158.2 112.1 158.8 110.5 159.4 110.4" stroke="#1B1C1E" stroke-miterlimit="10"/>
<mask id="mask1_70_895" style="mask-type:luminance" maskUnits="userSpaceOnUse" x="28" y="87" width="27" height="13">
<path d="M48.6002 100C46.5002 99 44.9002 97.9 44.0002 96.5C41.8002 93.3 35.5001 90.5 28.4001 87C29.5001 87.5 39.3002 91.5 50.1002 90.6C61.5002 89.7 48.6002 100 48.6002 100Z" fill="white"/>
</mask>
<g mask="url(#mask1_70_895)">
<g opacity="0.78">
<path d="M43.6003 98.4C43.5003 98.5 43.5002 98.5 43.5002 98.6L43.6003 98.4Z" fill="#4B1804"/>
<path d="M43.5002 98.6001L43.2002 99.3001C43.5002 99.0001 43.6002 98.8001 43.5002 98.6001Z" fill="#4B1804"/>
<path d="M38.4001 97.4C38.2001 97.4 38.1001 97.4 37.9001 97.5C38.1001 97.8 38.3001 97.7 38.4001 97.4Z" fill="#4B1804"/>
<path d="M51.2001 103.7C53.9001 103.8 51.2001 103.9 53.7001 104.1C53.2001 103.9 52.9002 103.8 54.3002 103.8C55.7002 104 54.0002 104.1 56.0002 104.3C55.8002 104.2 55.6001 104.1 55.4001 104C56.0001 103.9 56.7001 104 57.2001 104C57.7001 104 58.0002 104.1 58.0002 104C56.8002 103.8 57.2002 103.6 57.8002 103.4C58.5002 103.2 59.4002 102.8 59.3002 102.7L59.5002 102.8C60.0002 102.6 60.4001 102.4 60.9001 102.1C61.0001 102.1 61.0002 102.1 61.0002 102.1C60.9002 102.1 60.7002 102.1 60.5002 102.1C61.9002 101.7 62.8002 101.1 62.6002 100.5C61.3002 100.6 62.3002 98.8 61.1002 99C61.4002 99.1 61.5002 99.3 61.1002 99.7L59.5002 100.1C59.6002 99.7 61.0002 99.6 60.1002 99.5C57.9002 100.3 60.1001 100.1 59.7001 100.5C59.2001 100.5 58.8002 100.5 58.6002 100.4C58.5002 100.7 58.1001 101 58.2001 101.3C58.3001 101.5 58.5002 101.7 59.6002 101.7C59.3002 101.8 58.9002 101.9 58.6002 101.9C58.3002 101.9 58.0002 101.9 57.8002 101.9C58.0002 101.9 58.1001 101.9 58.2001 102V102.1C58.1001 102.2 58.0001 102.2 57.7001 102.3C57.2001 102.4 56.7002 102.5 57.5002 102.6C56.1002 102.7 55.8001 102.6 55.7001 102.5C55.5001 102.4 55.5002 102.2 54.8002 102.2C56.0002 101.8 56.1002 101.5 55.8002 101.4C55.5002 101.3 54.9002 101.3 54.7001 101.2C56.9002 100.3 59.0002 100 59.6002 99.5C60.1002 99 59.9002 98.9 59.5002 99C59.3002 99 59.0002 99.1 58.8002 99.1C58.4002 99.2 58.0001 99.3 57.7001 99.4C57.9002 99.2 58.2002 99 58.6002 98.8C58.9002 98.7 59.1001 98.5 59.4001 98.3C59.9001 98 60.4002 97.7 60.3002 97.3C60.6002 97.3 61.0002 97.3 61.3002 97.3C63.1002 95.9 60.4002 97.2 60.7001 96.7C60.3001 97.1 59.8001 97.3 59.9001 97.7C59.2001 98.1 58.9002 98 58.8002 97.9V98C58.1002 98.3 57.3002 98.6 56.8002 98.9C56.3002 99.1 56.1001 99.1 56.4001 98.8C57.3001 98.4 57.7002 98.1 57.8002 97.9C58.0002 97.7 58.0002 97.4 58.3002 97.2L58.6002 97.1C58.0002 97.1 58.0002 96.8 57.5002 96.9L57.8002 96.7C57.7002 96.7 57.4002 96.9 57.0002 97.1C56.7002 97.3 56.4002 97.5 56.0002 97.7C55.4002 98.1 54.9002 98.3 55.0002 98.1C55.4002 97.8 56.2001 97.2 56.9001 96.8C57.3001 96.5 57.4002 96.5 57.5002 96.4C57.6002 96.3 57.6002 96.3 57.5002 96.3C58.3002 95.7 58.8002 95.8 58.8002 96.2C58.8002 95.8 59.9001 94.7 60.4001 95C61.3001 94.2 59.6001 95 59.9001 94.6C59.6001 94.9 59.2001 95.1 58.9001 95.3C59.6001 94.8 59.4001 94.6 58.9001 94.8C58.4001 94.9 57.7001 95.3 57.2001 95.7C57.6001 95.5 58.0002 95.3 58.3002 95.2C57.8002 95.6 57.2001 96 56.7001 96.3C56.6001 96.4 56.5002 96.5 56.3002 96.5C56.2002 96.6 56.0001 96.7 55.9001 96.8C55.6001 97 55.4002 97.2 55.2001 97.4C56.3001 96.4 55.7001 96.6 55.2001 96.9C54.6001 97.2 54.1002 97.5 54.8002 96.6L53.9001 97.7C53.9001 97.4 53.1002 97.8 52.3002 98.4C51.5002 99 50.8001 99.7 50.4001 100C51.0001 99.4 52.7002 97.1 52.5002 97.9C52.4002 97.7 52.7001 97.1 53.2001 96.5C53.7001 95.9 54.3002 95.2 54.5002 94.7C54.3002 93.8 52.7002 96.7 52.1002 97.4L52.8002 97C51.6002 98.3 51.5001 98.2 51.2001 97.9C51.0001 97.6 50.7002 97.3 50.0002 98.1C50.2002 97.4 50.3002 97.7 50.5002 97.5C50.7002 96.2 50.0001 97.8 49.7001 98.3C49.5001 98.1 49.2002 97.5 49.8002 95.9C49.4002 95.5 49.6001 96.9 49.2001 97.4V97C48.9001 97.6 48.7002 98.2 48.5002 98.8C48.4002 98.5 48.3001 98.2 48.2001 97.7C48.1001 97.2 47.9001 96.6 47.9001 95.8C47.0001 96 47.3002 99.5 46.5002 100C46.2002 99.1 46.7002 98.8 46.8002 98.1L46.2001 98.2C46.6001 96.4 47.0001 97.4 47.2001 95.2C46.5001 97.3 46.5001 95.7 45.7001 97.1V97.3C45.2001 98.7 44.7002 97.6 44.3002 97.8C44.6002 97 45.0001 96.9 45.4001 96.6C45.1001 95.8 44.0001 96.3 43.2001 98.1C43.0001 97.8 42.7001 96.9 43.2001 96.2C42.4001 95.7 42.2002 98.8 41.6002 98L42.0002 96.6C41.9002 95.5 41.4002 95.8 40.8002 96.2C40.3002 96.6 39.7001 96.9 39.7001 95.9L39.1002 97.6C39.2002 96.8 38.9002 96.4 39.1002 95.7L39.7001 95.3C39.8001 93.8 38.9002 96.5 38.8002 95.4C38.6002 95.9 38.6001 97.1 38.4001 97.7C39.4001 97.5 40.1001 98.1 40.9001 98.6C41.7001 99.1 42.5002 99.5 43.6002 98.8C43.6002 98.6 43.5001 98.3 43.7001 98C43.8001 98.5 44.2002 98.1 44.0002 99L43.9001 99.1C44.4001 98.8 44.5002 101 44.8002 101C45.2002 99.8 45.7002 101.6 45.8002 99.6L46.0002 100.9C46.2002 100.2 46.3002 99.2 46.5002 98.8C46.8002 99 46.7001 99.8 46.4001 100.3C46.7001 100.5 47.0002 100.7 47.3002 100.8C47.5002 100.9 47.6002 100.9 47.8002 100.9C48.0002 100.9 48.2001 100.9 48.2001 100.9C48.4001 100.9 48.7002 100.7 49.1002 100.4C48.9002 100.7 48.8001 101 48.7001 101.3C48.6001 101.8 49.7001 99.6 48.7001 102C49.0001 101.5 49.0002 101.7 49.1002 101.7C49.2002 101.7 49.4001 101.5 50.2001 100.2C49.5001 101.4 49.4002 101.7 49.6002 101.6C49.8002 101.5 50.3002 101.1 50.6002 100.9C52.5002 98.7 51.5002 100.3 52.6002 99.3C50.9002 101 50.6002 101 49.5002 102.2C50.8002 100.9 50.7002 101.4 50.5002 101.6C50.4002 101.9 50.3001 101.9 53.2001 99.9C53.0001 100.1 52.8002 100.3 52.6002 100.4C52.7002 100.4 51.8002 101.2 51.6002 101.4C52.7002 100.7 53.0002 100.3 53.5002 100.2C53.4002 100.5 51.7001 101.5 50.9001 102C52.4001 101.2 53.1002 101.3 55.6002 100.2C54.9002 100.7 53.5002 101.4 53.0002 101.5C54.0002 101.3 53.9001 101.5 53.7001 101.6C53.5001 101.8 53.2002 102 53.8002 102C53.7002 101.8 51.1001 102.8 52.2001 102.2C50.4001 102.9 50.6001 102.9 50.9001 102.9C51.3001 102.9 51.8002 103 50.8002 103.2C51.5002 103.1 52.2001 103 52.9001 103C53.2001 103.2 51.1001 103.4 50.4001 103.4C49.7001 103.6 49.7002 103.6 49.8002 103.6C49.9002 103.6 50.2001 103.7 50.2001 103.7C50.0001 103.7 49.6001 103.7 49.7001 103.7L49.5002 103.8C50.0002 103.8 50.9002 104 52.1002 104.2C51.0002 103.8 50.4001 103.7 51.2001 103.7Z" fill="#4B1804"/>
<path d="M28.9001 86.3001L29.9001 85.1001L28.8002 85.7001V86.1001C28.5002 86.5001 28.5001 86.8001 28.4001 87.0001L29.2001 86.2001C29.1001 86.3001 28.9001 86.4001 28.9001 86.3001Z" fill="#4B1804"/>
<path d="M28.9001 89.5C29.1001 89 29.7001 88.4 30.1001 87.9C30.0001 87.2 28.8001 89 28.8001 88.2C30.0001 87.5 29.1001 87.3 29.4001 86.5C28.7001 87.7 28.4001 88.7 28.6001 89.3L29.1001 88.5C29.4001 88.6 28.9001 89 28.9001 89.5Z" fill="#4B1804"/>
<path d="M32.2001 88.8L31.2001 89.8C31.5001 89.2 31.0001 88.9 31.7001 87.6C31.4001 87.7 31.1001 88.2 30.7001 88.4C30.9001 87.7 31.1001 87.2 30.4001 87.9C30.6001 89.2 30.3001 89.4 30.7001 90.1C30.5001 90.4 30.5001 90.3 30.4001 90.2L30.5002 91.1C31.4002 89.7 32.1001 89.9 32.2001 88.8Z" fill="#4B1804"/>
<path d="M32.3003 90.1001C31.9003 90.0001 31.1003 91.0001 30.8003 91.9001L32.1003 91.3001C31.9003 91.2001 31.5003 91.2001 32.3003 90.1001Z" fill="#4B1804"/>
<path d="M32.8002 90.3C32.6002 91 32.1002 92.6 33.0002 91.4C32.5002 91.5 33.7002 89.7 32.8002 90.3Z" fill="#4B1804"/>
<path d="M34.8002 92.9C34.7002 92.5 34.6002 92.1 34.5002 91.7C35.2002 90 35.1001 91.3 35.7001 90.7C35.3001 90.1 35.2001 90.7 34.2001 91.5C34.1001 91.3 33.4001 92 32.9001 92.4C34.5001 91.5 32.6002 95.6 34.8002 92.9Z" fill="#4B1804"/>
<path d="M34.2003 90.5L33.8003 91.1L34.4003 90.8L34.2003 90.5Z" fill="#4B1804"/>
<path d="M35.8002 95.5001C35.5002 97.7001 37.2002 94.7001 37.4002 95.8001C37.3002 95.9001 37.3003 96.1001 37.1003 96.3001H37.6003L37.5002 96.8001C37.9002 95.6001 38.6003 95.2001 39.1003 94.3001C39.1003 92.8001 38.3002 95.8001 38.4002 94.2001C38.7002 93.7001 39.1002 92.8001 39.3002 92.4001C38.8002 92.9001 38.5003 93.6001 38.1003 94.3001C37.8003 94.3001 38.1002 93.7001 38.3002 93.2001C37.7002 93.8001 37.0002 95.6001 36.7002 95.0001C36.8002 93.8001 37.6002 93.4001 36.8002 93.6001C36.3002 95.7001 36.4002 93.1001 35.7002 94.2001C35.5002 93.6001 35.7003 92.3001 36.1003 91.7001C35.5003 93.2001 34.5002 94.3001 34.0002 94.6001L35.3002 93.7001L34.8002 95.6001C35.5002 95.0001 35.8003 95.2001 36.1003 95.6001L35.8002 95.5001Z" fill="#4B1804"/>
<path d="M39.3003 92.4001C39.4003 92.3001 39.5003 92.2001 39.6003 92.1001C39.5003 92.0001 39.4003 92.2001 39.3003 92.4001Z" fill="#4B1804"/>
<path d="M36.2002 91.1001L36.5002 90.8L36.6002 90.3L36.2002 91.1001Z" fill="#4B1804"/>
<path d="M40.1003 91.2C40.0003 91.1 39.8003 91.7 39.9003 91.8L40.3003 91L40.1003 91.2Z" fill="#4B1804"/>
<path d="M40.1003 92.5L40.0002 93.6L40.4002 92.8L40.1003 92.5Z" fill="#4B1804"/>
<path d="M49.4003 95.3C49.2003 94.6 49.0003 95.9 48.8003 96.9C49.2003 97.1 49.0003 95.7 49.4003 95.3Z" fill="#4B1804"/>
</g>
</g>
</svg>
