<svg width="206" height="241" viewBox="0 0 206 241" fill="none" xmlns="http://www.w3.org/2000/svg">
<path d="M144.2 144.4C144.2 144.4 135 182.2 133.8 188.3C133.8 188.3 134 215.3 136.6 227.2C136.6 227.2 149.2 226.2 147.9 236.3C147.9 236.3 130.9 236.3 130.2 236.3C129.5 236.3 122.3 223.3 120.2 164.7" fill="#EFBE9D"/>
<mask id="mask0_70_4477" style="mask-type:luminance" maskUnits="userSpaceOnUse" x="120" y="144" width="28" height="93">
<path d="M136.5 227.3C133.9 215.4 133.7 188.4 133.7 188.4C135 182.3 144.1 144.5 144.1 144.5L120.1 164.9C122.2 223.5 129.5 236.5 130.1 236.5C130.8 236.5 147.8 236.5 147.8 236.5C149.2 226.2 136.5 227.3 136.5 227.3Z" fill="white"/>
</mask>
<g mask="url(#mask0_70_4477)">
<g opacity="0.88">
<path d="M134.5 157.5C134.5 157.6 134.6 157.7 134.6 157.7C134.6 157.7 134.6 157.7 134.5 157.5Z" fill="#443730"/>
<path d="M139.5 153.7L139.3 153.5C139.4 153.5 139.4 153.6 139.5 153.7Z" fill="#443730"/>
<path d="M135.3 159.5C135.3 159.6 135.3 159.7 135.4 159.9L135.3 159.5Z" fill="#443730"/>
<path d="M136.6 160.1L136.7 160.2C136.7 160.1 136.7 160.1 136.6 160.1Z" fill="#443730"/>
<path d="M129.5 160.1V160C129.4 160 129.5 160 129.5 160.1Z" fill="#443730"/>
<path d="M129.4 160.7C129.3 160.7 129.3 160.7 129.4 160.7L129.3 160.8C129.4 160.9 129.4 160.8 129.4 160.7Z" fill="#443730"/>
<path d="M128.8 165.6L128.9 165.9C128.9 165.7 128.8 165.6 128.8 165.6Z" fill="#443730"/>
<path d="M129.4 159.7C129.4 159.8 129.4 159.9 129.5 160C129.4 159.9 129.5 159.8 129.4 159.7Z" fill="#443730"/>
<path d="M134.4 157.4C134.4 157.5 134.5 157.5 134.5 157.5C134.5 157.5 134.5 157.4 134.4 157.4Z" fill="#443730"/>
<path d="M141 151.8C141 151.7 141 151.7 141 151.6C140.9 151.7 140.9 151.7 141 151.8Z" fill="#443730"/>
<path d="M131.2 159.8C131.8 160.5 131 160 131.5 160.7C131.5 160.5 131.5 160.3 131.8 160.7C132 161.2 131.6 160.8 131.9 161.5V161.2C132.2 161.5 132.4 162.1 132.5 161.9C132.1 160.9 133.2 162 133.2 161.7V161.8L133.7 162.1C133.7 162 133.6 162 133.6 161.9C134 162.3 134.4 162.5 134.5 162.2C134.2 161.7 135 161.6 134.8 161.1C134.8 161.3 134.8 161.3 134.6 161.3L134.2 160.7C134.4 160.6 134.6 161.2 134.5 160.8C133.9 160 134.3 161 134.1 161C134 160.8 134 160.6 134 160.5C133.7 160.6 133.3 160.5 133.7 161.4C133.5 161.3 133.3 160.9 133.3 160.8C133.5 161.4 132.9 160.4 133 161C132.5 160.2 133.1 160.4 132.9 159.8C133.5 160.2 133.4 159.5 133.6 159.2C134 159.7 134.2 160.3 134.5 160.6C135 160.8 134.5 160.1 134.4 159.7C134.7 159.8 135.1 160.6 135.4 160.4L135.5 160.9C136.2 161.5 135.4 160.5 135.7 160.6C135.5 160.4 135.4 160.2 135.2 160.4C135 160.1 135 159.9 135 159.9C134.8 159.5 134.5 159.1 134.8 159.1C135 159.6 135.2 159.3 135.4 159.5V159.6C135.4 159.4 135.6 159.3 135.6 159.2L135.7 159.3C135.6 159 135.2 158.5 135.5 158.5C135.7 158.7 136 159.4 136.1 159.2C136.3 159.5 136.2 159.7 136 159.7C136.2 159.7 136.7 160.2 136.6 160.4C137 160.8 136.6 160.1 136.9 160.2C136.8 160.1 136.7 159.9 136.6 159.8C137.1 160.4 137 159.6 136.6 159.2L136.7 159.6C136.3 159.2 136.3 158.7 136 158.5C136.7 159.1 136.1 157.8 136.7 158.3L136.3 158C136.8 158 136.4 156.9 136.5 156.5C136.6 156.8 137.2 157.6 136.8 157.5C137.2 157.4 137.5 158.2 138 158.5C138.5 158.6 137.5 157.7 137.4 157.4V157.7C136.8 156.7 138.2 157.4 138 156.5C138.2 156.7 138.1 156.7 138.1 156.8C138.6 157.1 138.2 156.6 138.1 156.3C138.3 156.2 138.7 156.3 139.1 156.9C139.4 156.9 138.8 156.6 138.7 156.4L138.8 156.5L138.4 155.8C138.7 155.9 139.1 156 139.7 156.4C139.9 156 138.6 155.1 138.7 154.7C139.1 154.8 139.1 155.1 139.3 155.3L139.4 155C139.9 155.6 139.5 155.5 140.1 156.2C139.6 155.4 140.1 155.8 139.9 155.1H139.8C139.4 154.6 140 154.6 140 154.4C140.2 154.7 140.1 154.9 140.1 155.1C140.5 155.2 140.6 154.6 140.1 153.9C140.3 153.9 140.7 154 140.8 154.3C141.2 154.1 140 153.4 140.4 153.3L140.9 153.7C141.8 154 140.8 152.6 141.7 152.8L141.1 152.3C141.4 152.5 141.6 152.4 141.9 152.6L142 152.9C142.6 153.2 141.6 152.4 142.1 152.5C141.9 152.4 141.4 152.1 141.2 152C141 152.9 139.7 152.8 139.7 153.9C139.8 153.9 139.9 154 140 154.1C139.8 154 139.8 154.3 139.6 154V153.9C139.6 154.2 138.8 153.7 138.7 153.7C139 154.1 138.2 153.9 139 154.4L138.5 154.1C138.7 154.4 139 154.7 139.1 154.8C138.9 154.9 138.7 154.6 138.6 154.4C138 154.5 137.6 155.1 137.4 155.6L137.2 155.2C137 155.1 137.4 156.1 136.7 155.2C136.8 155.7 136 155.5 136.7 156.3C135.8 155.6 135.9 156.4 135.7 156.7C136.4 157.4 135.6 157.1 135.8 157.5C135.3 157 135.6 156.7 135.2 156.3C135.6 157.4 133.9 156.3 134.9 157.9C134.8 157.9 134.8 157.8 134.7 157.7C134.6 157.7 134.4 157.5 134.2 157.5C134.4 157.8 134.6 157.8 134.5 158C134.3 158 134.1 157.6 133.9 157.4C134 157.9 133.7 158.3 134.2 159C134 158.9 133.7 158.6 133.7 158.4C133.7 159.1 133.3 158.5 133.2 159.1C133.3 159 132.8 158.4 133.1 158.5C132.3 157.7 132.7 159 132.1 158.8L132.4 159.5C132.3 159.7 131.9 159.2 131.9 158.9C131.4 158.8 131.5 159.2 131.2 159.3C131.1 159.2 131.1 159.1 131.1 159.1L130.8 159.3C130.9 159.5 130.9 159.8 131.2 160.2C130.9 159.9 130.8 159.7 131.2 159.8Z" fill="#443730"/>
<path d="M135.9 160.7C135.8 160.6 135.7 160.5 135.6 160.5C135.7 160.6 135.8 160.6 135.9 160.7Z" fill="#443730"/>
<path d="M128.4 163.3C128.9 164.2 128.5 163 128.8 163.2C128.7 163.4 129 163.9 129.2 164.2C128.7 162.9 129.6 164.3 129.8 163.9C130 164.3 129.9 164.4 130.1 164.9C130.1 164.5 130.3 164.2 130 163.5C130.3 163.3 130.7 163.4 130.8 163.2C130.7 163.6 131.1 163.9 131.3 164.6C131.1 163.7 131.1 162.5 130.8 161.3C131.3 162 131.3 162.1 131.7 162.7C132.4 162.9 131.4 162 131.9 162H131.7C131.7 161.7 131.3 161 131.1 160.5L130.8 160.9C130.5 160.4 130.8 160.3 130.8 160.2C130.5 159.5 130.3 159.9 130.1 159.4C130.3 159.8 130.1 159.8 130.1 160L129.9 159.7C129.6 159.5 129.9 160.3 129.7 160.4C129.6 160.3 129.6 160.3 129.6 160.2C129.7 160.5 129.9 160.9 129.8 161.1L129.9 161C130.1 161.7 130 162.3 130.6 162.9H130.1C129.8 162.2 129.2 161 129.4 160.8L129.3 160.5C128.9 160.2 129.1 161.3 129.6 161.9C130.4 163.7 129 162.3 129.1 163.2C128.8 162.7 128.9 162.5 128.8 162.1C128.9 162 128.9 161.9 129.1 162.3C129.4 161.8 128.2 160.9 128.7 160.8C129 160.9 128.9 161.7 129.2 161.6L128.7 160.2C128.5 160.3 128.5 160.7 128.4 160.9C128.2 161.6 127.8 161.8 127.5 161.9C127.2 162 126.9 161.9 126.9 161.9C125.7 162.7 124.4 163.4 123.1 164C122.7 164.3 122.6 164.3 122.8 165.8C123 166.1 123.2 165.8 123.3 166.4C123.2 165.9 123.3 165.5 123.5 165.5C123.7 166 123.4 165.8 123.5 165.9H123.6C123.7 166.2 123.7 166.4 123.6 166.4C124.1 167.1 124.6 166.7 124.5 165.7C124.9 166.1 124.6 166.5 124.6 167C125.5 167.1 126.1 166.8 126.9 166.5C126.5 165.6 126.7 165.9 126.6 165.3L126.8 165.6C126.7 165.5 126.5 164.8 126.3 164.7C127 165.2 126.3 163.3 126.4 162.8L126.6 163.3C126.8 163.1 126.9 163.1 127 162.7C127.8 163.4 126.7 163 127.3 164V163.8C127.4 164.2 127.7 165 127.7 165.4C127.8 164.5 128.4 165.4 128.5 164.7C128.7 165.2 128.5 165.8 128.4 165.9C128.6 165.9 128.6 165.4 128.9 165.8L128.6 165.2C128.8 165 128.8 165.8 129.1 166.1C129.6 165.5 128.1 163.9 128.4 163.3Z" fill="#443730"/>
<path d="M134 160.3C133.9 160.3 133.9 160.4 133.9 160.4C134 160.4 134 160.4 134 160.3Z" fill="#443730"/>
<path d="M133.7 162.1C133.7 162.2 133.8 162.3 133.8 162.3C133.8 162.2 133.8 162.2 133.7 162.1Z" fill="#443730"/>
<path d="M134.2 162.9C134 162.7 134.1 162.6 133.9 162.3C133.9 162.5 133.7 162.6 134.2 162.9Z" fill="#443730"/>
<path d="M147.5 147.4L147.1 147.5L147.8 148.1C147.9 147.8 147.3 147.6 147.5 147.4Z" fill="#443730"/>
<path d="M146.7 147.7L146.5 147.5C146.6 147.6 146.6 147.7 146.7 147.7Z" fill="#443730"/>
<path d="M147 147.9L147.5 148.3L147.3 147.8L147 147.9C146.9 147.7 146.8 147.7 146.7 147.7L147 148.1C147 148 146.9 147.9 147 147.9Z" fill="#443730"/>
<path d="M146.9 148.2C147 148.2 147 148.3 147.1 148.3C147 148.2 146.9 148.2 146.9 148.2Z" fill="#443730"/>
<path d="M145.5 148C145.7 148.1 146 148.4 146.2 148.6C146.5 148.5 145.7 148 146.1 148C146.4 148.6 146.5 148.1 146.9 148.2C146.3 147.9 145.9 147.8 145.6 147.9L145.9 148.1C145.9 148.2 145.7 148 145.5 148Z" fill="#443730"/>
<path d="M145.7 149.6L145.3 149.1C145.6 149.2 145.7 149 146.3 149.4C146.3 149.3 146.1 149.1 146 148.9C146.3 149 146.6 149.1 146.2 148.8C145.6 149 145.5 148.8 145.2 149C145.1 148.9 145.1 148.9 145.2 148.9H144.8C145.3 149.3 145.1 149.6 145.7 149.6Z" fill="#443730"/>
<path d="M145 149.7C145.1 149.5 144.7 149.1 144.3 148.9L144.5 149.5C144.5 149.4 144.6 149.3 145 149.7Z" fill="#443730"/>
<path d="M144.9 149.9C144.6 149.8 143.9 149.5 144.4 150C144.4 149.7 145.1 150.4 144.9 149.9Z" fill="#443730"/>
<path d="M143.5 150.8L144.1 150.7C144.8 151.1 144.2 151 144.4 151.3C144.7 151.1 144.5 151 144.2 150.5C144.3 150.4 144 150.1 143.9 149.8C144.1 150.7 142.5 149.5 143.5 150.8Z" fill="#443730"/>
<path d="M144.7 150.6L144.4 150.4L144.5 150.7L144.7 150.6Z" fill="#443730"/>
<path d="M142.2 151C141.3 150.6 142.3 151.7 141.8 151.6C141.8 151.5 141.7 151.5 141.6 151.4L141.5 151.6L141.3 151.5C141.8 151.9 141.8 152.2 142.1 152.6C142.7 152.8 141.6 152 142.3 152.3C142.5 152.5 142.8 152.8 142.9 153C142.8 152.7 142.5 152.5 142.3 152.2C142.3 152 142.6 152.3 142.8 152.4C142.6 152 142 151.5 142.3 151.4C142.8 151.6 142.9 152 142.9 151.6C142.1 151.1 143.2 151.5 142.8 151C143.1 150.9 143.6 151.2 143.9 151.4C143.3 151 142.9 150.4 142.9 150.2L143.2 150.9L142.5 150.5C142.6 150.9 142.4 150.9 142.2 151Z" fill="#443730"/>
<path d="M143 153C143 153.1 143.1 153.1 143.1 153.2C143.1 153.1 143.1 153 143 153Z" fill="#443730"/>
<path d="M144.1 151.5L144.2 151.7L144.4 151.8L144.1 151.5Z" fill="#443730"/>
<path d="M143.3 153.5C143.4 153.5 143.1 153.3 143.1 153.3L143.4 153.6L143.3 153.5Z" fill="#443730"/>
<path d="M142.8 153.3L142.3 153.1L142.6 153.4L142.8 153.3Z" fill="#443730"/>
<path d="M139 156.7C139.3 156.8 138.9 156.4 138.6 156.1C138.3 156.2 139 156.5 139 156.7Z" fill="#443730"/>
<path d="M137.1 159.4C137.5 159.6 137.3 159 137.4 158.9C137.1 158.8 137 159.1 137.1 159.4Z" fill="#443730"/>
<path d="M137.2 161.8C137.1 161.6 137.1 161.5 137 161.5L136.5 160.6C136.1 160.5 136.9 161.4 137.2 161.8Z" fill="#443730"/>
<path d="M136 162.9V162.4L135.9 162.5C135.7 162.1 135.6 161.9 135.5 161.6C135.4 161.9 135.5 162.3 136 162.9Z" fill="#443730"/>
<path d="M135.5 161.3V161.4C135.6 161.5 135.7 161.6 135.5 161.3Z" fill="#443730"/>
<path d="M135.4 161.5V161.6C135.5 161.5 135.5 161.5 135.4 161.5C135.4 161.3 135.4 161.3 135.4 161.5Z" fill="#443730"/>
<path d="M135.5 162.6L135.2 163L135.5 163.1C135.2 162.5 135.9 163.2 135.5 162.6Z" fill="#443730"/>
<path d="M133.3 163.5L132.9 163C132.6 163 133 164.4 132.3 163.6C132.6 163.9 132.5 164.3 132.8 164.3C132.7 163.7 133 163.4 133.3 163.5Z" fill="#443730"/>
<path d="M131.9 163.2C131.8 163 131.7 162.9 131.6 162.8C131.5 162.8 131.5 163.1 131.7 163.3C131.4 162.6 132.1 163.7 131.9 163.2Z" fill="#443730"/>
<path d="M130.8 163.9C130.9 163.8 130.9 163.7 130.7 163.7C130.5 163.9 130.9 164.4 131 164.9C131.5 165.1 131.1 164.2 130.8 163.9Z" fill="#443730"/>
<path d="M127.1 160.8C127.4 161.3 127.5 161.1 127.4 160.9C127.4 161 127.2 160.9 127.1 160.8Z" fill="#443730"/>
<path d="M129 164.7L129.1 164.8L128.8 164.1L129 164.7Z" fill="#443730"/>
<path d="M127.9 165.8L128 166.3L128.2 166.1L127.9 165.8Z" fill="#443730"/>
<path d="M127.6 165.8L127.4 165.9L127.6 166.1C127.7 166.2 127.5 165.8 127.6 165.8Z" fill="#443730"/>
<path d="M127 166.2C127 166.1 127.1 166.2 127.1 166.3L127.2 165.9L127 166.2Z" fill="#443730"/>
<path d="M122.3 164.3C122.2 163.8 122.1 164.1 122.1 164C122.1 164.2 122.4 164.8 122.3 164.3Z" fill="#443730"/>
</g>
</g>
<path d="M1.89995 236.1C1.89995 236.1 -6.60004 238.7 16.6 239.5C39.8 240.3 162.2 240.7 174.8 239.5C187.4 238.3 211.9 239 179.4 236.1C146.9 233.2 113.4 234.9 80.6 233.2C47.8 231.4 6.79995 233.1 1.89995 236.1Z" fill="#1B1C1E"/>
<path d="M38.3999 236.4C38.3999 236.4 100.4 236.4 103.2 236.4C105.9 236.4 104.6 227.3 97.6999 226.5C90.7999 225.7 74.0999 225.5 74.0999 225.5L68.5999 207.8C68.5999 207.9 34.6999 224.9 38.3999 236.4Z" fill="#EFBE9D"/>
<mask id="mask1_70_4477" style="mask-type:luminance" maskUnits="userSpaceOnUse" x="38" y="207" width="67" height="30">
<path d="M38.3999 236.4C38.3999 236.4 100.4 236.4 103.2 236.4C105.9 236.4 104.6 227.3 97.6999 226.5C90.7999 225.7 74.0999 225.5 74.0999 225.5L68.5999 207.8C68.5999 207.9 34.6999 224.9 38.3999 236.4Z" fill="white"/>
</mask>
<g mask="url(#mask1_70_4477)">
<g opacity="0.88">
<path d="M59.2 230.5C59.2 230.6 59.2 230.7 59.3 230.9C59.4 230.9 59.4 230.8 59.2 230.5Z" fill="#443730"/>
<path d="M66.7 226.7L66.5 226.3C66.5 226.5 66.6 226.6 66.7 226.7Z" fill="#443730"/>
<path d="M60 233.5C60 233.6 60 233.8 60.1 234.1L60 233.5Z" fill="#443730"/>
<path d="M61.7 234.7C61.7 234.8 61.7999 234.8 61.8999 234.9C61.7999 234.8 61.7 234.7 61.7 234.7Z" fill="#443730"/>
<path d="M51.8 233.7C51.7 233.7 51.7 233.7 51.7 233.7V233.8C51.8 233.9 51.8 233.7 51.8 233.7Z" fill="#443730"/>
<path d="M52.3 234.1C52.2 234.2 52.2 234.2 52.3 234.1V234.1Z" fill="#443730"/>
<path d="M51.8999 232.2C51.8999 232.3 51.8999 232.4 51.9999 232.6C51.9999 232.5 52.0999 232.4 51.8999 232.2Z" fill="#443730"/>
<path d="M59.2 230.3C59.2 230.4 59.3 230.4 59.3 230.5C59.2 230.5 59.2 230.4 59.2 230.3Z" fill="#443730"/>
<path d="M69.1 224.7C69.1 224.6 69.2 224.5 69.2 224.4C68.9 224.5 69 224.6 69.1 224.7Z" fill="#443730"/>
<path d="M54.4 232.8C55 234 54.2 233 54.7 234.1C54.7 233.8 54.7 233.5 55.1 234.1C55.3 234.8 54.8 234.2 55.2 235.2V234.7C55.6 235.1 55.8 236 55.8 235.9C55.3 234.4 56.7 236.1 56.8 235.8V236L57.4 236.5C57.4 236.5 57.4 236.5 57.4 236.6C57.4 236.5 57.3 236.4 57.3 236.3C57.8 236.9 58.2 237.3 58.4 237C58.1 236.2 59.1 236.3 58.9 235.6C58.9 235.8 58.8 235.9 58.6 235.8L58.2 234.9C58.5 234.8 58.7 235.8 58.6 235.1C57.9 233.9 58.3 235.3 58 235.2C57.9 234.9 57.9 234.6 57.9 234.4C57.5 234.5 57 234.2 57.4 235.6C57.2 235.4 57 234.8 57 234.7C57.1 235.6 56.5 234.1 56.6 234.8C56.1 233.6 56.8 233.9 56.7 233.2C57.5 234 57.4 232.9 57.7 232.5C58.2 233.4 58.3 234.2 58.7 234.6C59.3 235 58.8 234 58.7 233.4C59.1 233.6 59.5 234.8 59.9 234.7L60 235.4C60.9 236.5 60 234.8 60.3 235C60.1 234.7 59.9 234.4 59.7 234.5C59.4 234.1 59.5 233.8 59.5 233.7H59.4C59.2 233.1 58.9 232.4 59.3 232.6C59.5 233.4 59.8 233 60 233.3V233.5C60 233.2 60.3 233.2 60.3 233L60.4 233.2C60.4 232.8 59.9 231.9 60.2 232C60.4 232.4 60.7 233.4 60.8 233.2C61.1 233.7 60.9 233.9 60.5 233.8C60.8 233.9 61.4 234.7 61.2 234.9C61.6 235.5 61.3 234.5 61.6 234.7C61.5 234.5 61.4 234.3 61.2 234.1C61.7 235 61.7 233.9 61.4 233.3L61.5 233.9C61.1 233.2 61.1 232.5 60.8 232.2C61.6 233.3 61.1 231.3 61.8 232.2L61.4 231.7C62.1 231.8 61.7 230.2 62 229.7C62.1 230.1 62.8 231.4 62.2 231.1C62.8 231.1 63.1 232.3 63.6 232.8C64.2 233 63.1 231.5 63 231.1L62.9 231.5C62.3 229.9 64 231.3 63.9 230.1C64.2 230.4 63.9 230.4 64 230.6C64.7 231.2 64.1 230.3 64.1 230C64.4 230 64.9 230.1 65.3 231.1C65.7 231.2 64.9 230.6 64.9 230.2L65.1 230.4L64.7 229.2C65.1 229.4 65.7 229.7 66.3 230.4C66.7 229.9 65.1 228.3 65.2 227.8C65.7 228.1 65.6 228.5 65.8 228.8L66 228.5C66.6 229.5 66 229.2 66.8 230.3C66.3 229 66.9 229.8 66.7 228.8L66.6 228.7C66.2 227.8 66.9 228.1 67 227.8C67.3 228.3 67.1 228.5 67.1 228.8C67.6 229 67.9 228.2 67.3 227.1C67.5 227.2 68.1 227.4 68.2 227.9C68.8 227.7 67.3 226.4 67.9 226.4L68.5 227.1C69.7 227.8 68.6 225.6 69.7 226.2L69 225.3C69.4 225.6 69.7 225.6 70 225.9L70.1 226.4C70.9 227 69.7 225.5 70.3 225.9C70.1 225.6 69.4 225.2 69.2 224.9C68.8 226.1 67 225.4 66.9 226.9C67 227 67.1 227.1 67.3 227.3C67 227.1 67.1 227.5 66.7 227V226.9C66.6 227.3 65.6 226.3 65.5 226.4C65.9 227.1 64.9 226.5 65.7 227.5L65.1 226.9C65.3 227.3 65.7 227.8 65.8 228.1C65.6 228.1 65.3 227.7 65.2 227.3C64.3 227.3 63.7 227.9 63.3 228.6L63.1 228C62.8 227.8 63.2 229.3 62.4 227.9C62.4 228.6 61.4 228 62.2 229.4C61.2 228.2 61.1 229.2 60.8 229.7C61.6 230.9 60.6 230.2 60.9 230.9C60.3 230 60.7 229.7 60.3 229.1C60.7 230.8 58.5 228.8 59.7 231.3C59.6 231.2 59.5 231.1 59.5 231C59.4 231 59.1 230.7 58.9 230.6C59.1 231.1 59.4 231.1 59.3 231.4C59.1 231.4 58.8 230.7 58.6 230.4C58.6 231.1 58.2 231.6 58.7 232.6C58.5 232.4 58.1 231.9 58.1 231.6C58 232.6 57.5 231.7 57.3 232.5C57.5 232.4 56.9 231.4 57.3 231.7C56.4 230.4 56.6 232.4 55.9 231.8L56.2 232.8C56 233.1 55.6 232.2 55.6 231.8C54.9 231.4 55 232.1 54.6 232.3C54.5 232.2 54.5 232 54.5 232L54 232.2C54.1 232.5 54.1 233 54.4 233.6C54 232.9 53.9 232.6 54.4 232.8Z" fill="#443730"/>
<path d="M60.5 235.2C60.3 235 60.2 234.9 60.2 234.9C60.3 235.1 60.4 235.2 60.5 235.2Z" fill="#443730"/>
<path d="M50.3 237.1C50.9 238.5 50.5 236.7 50.9 237C50.8 237.3 51.2 238.1 51.3 238.5C50.8 236.5 51.8 238.7 52.1 238.2C52.4 238.8 52.2 239 52.4 239.7C52.5 239.1 52.8 238.7 52.4 237.7C52.8 237.5 53.3 237.7 53.5 237.4C53.4 238 53.9 238.4 54 239.4C53.8 238.1 53.9 236.3 53.8 234.7C54.4 235.8 54.4 235.9 54.8 236.9C55.7 237.4 54.5 235.8 55.1 235.9L54.8 235.8C54.9 235.4 54.4 234.3 54.2 233.5L53.7 233.9C53.4 233.1 53.8 233.1 53.8 232.8C53.5 231.8 53.2 232.3 52.9 231.5C53.1 232.1 52.8 232 52.8 232.4L52.6 232C52.2 231.7 52.5 232.8 52.2 232.9C52.1 232.8 52.1 232.7 52.1 232.6C52.2 233.1 52.4 233.7 52.3 233.9L52.4 233.8C52.6 234.9 52.4 235.7 53.2 236.7L52.5 236.6C52.1 235.5 51.5 233.8 51.8 233.5L51.6 233C51.1 232.5 51.3 234.1 51.8 235C52.6 237.7 50.9 235.5 50.9 236.7C50.6 236 50.7 235.6 50.6 235.1C50.7 235 50.8 234.9 51 235.5C51.4 234.9 50 233.3 50.7 233.3C51.2 233.5 50.8 234.6 51.3 234.5L50.8 232.4C50.5 232.6 50.4 233 50.3 233.3C49.9 234.2 49.4 234.5 49 234.5C48.6 234.5 48.3 234.3 48.3 234.3C46.6 235.2 44.8 236 43 236.8C42.5 237.3 42.3 237.2 42.5 239.3C42.7 239.7 43.1 239.4 43.1 240.1C43 239.3 43.1 238.8 43.4 238.8C43.6 239.5 43.2 239.2 43.3 239.4H43.4C43.5 239.8 43.5 240.1 43.4 240.1C44.1 241.1 44.7 240.7 44.6 239.2C45.1 239.9 44.7 240.4 44.7 241C45.9 241.3 46.6 240.9 47.7 240.6C47.3 239.3 47.5 239.7 47.4 238.8L47.6 239.2C47.5 239 47.3 238 47 237.8C47.9 238.6 47.1 235.9 47.3 235.2L47.5 235.9C47.8 235.7 47.9 235.6 48 235.2C49 236.3 47.6 235.6 48.3 237.1L48.4 236.8C48.5 237.5 48.8 238.6 48.8 239.1C48.9 237.9 49.7 239.3 50 238.2C50.2 239 49.9 239.7 49.8 239.9C50 239.9 50.2 239.2 50.4 239.9L50.1 239C50.4 238.8 50.4 239.9 50.7 240.4C51.6 240.5 49.8 237.9 50.3 237.1Z" fill="#443730"/>
<path d="M58.2 234.2C58.1 234.2 58 234.3 58 234.4C58 234.4 58.1 234.3 58.2 234.2Z" fill="#443730"/>
<path d="M79.8999 220.8C79.6999 220.6 79.5999 220.2 79.3999 220.1V220.6L79.8999 220.8Z" fill="#443730"/>
<path d="M78.6 220.7H78.1L79 221.7C79.2 221.4 78.4 220.9 78.6 220.7Z" fill="#443730"/>
<path d="M77.4999 220.9L77.2999 220.6C77.3999 220.7 77.3999 220.8 77.4999 220.9Z" fill="#443730"/>
<path d="M77.8999 221.2L78.5999 221.9L78.2999 221.1H77.9999C77.6999 220.9 77.5999 220.9 77.3999 220.8L77.7999 221.4C77.8999 221.4 77.7999 221.2 77.8999 221.2Z" fill="#443730"/>
<path d="M75.7999 220.9C76.0999 221.1 76.3999 221.6 76.6999 221.8C77.1999 221.8 76.0999 220.8 76.6999 220.9C76.9999 221.7 77.1999 221.2 77.6999 221.4C76.9999 220.9 76.3999 220.6 75.9999 220.6L76.3999 221C76.2999 221.4 76.0999 221 75.7999 220.9Z" fill="#443730"/>
<path d="M75.7999 223.2L75.2999 222.4C75.5999 222.7 75.8999 222.4 76.5999 223C76.5999 222.8 76.2999 222.5 76.1999 222.2C76.5999 222.4 76.8999 222.6 76.4999 222.1C75.5999 222.1 75.5999 221.9 74.9999 222C74.8999 221.9 74.8999 221.8 74.9999 221.8L74.3999 221.7C75.2999 222.6 74.9999 222.9 75.7999 223.2Z" fill="#443730"/>
<path d="M74.9 223.1C75.1 222.9 74.5 222.2 74 221.8L74.1 222.7C74.3 222.6 74.3 222.4 74.9 223.1Z" fill="#443730"/>
<path d="M74.5999 223.3C74.1999 223 73.2999 222.4 73.8999 223.2C73.9999 223 74.8999 224 74.5999 223.3Z" fill="#443730"/>
<path d="M72.5999 224.1L73.3999 224.2C74.2999 225 73.4999 224.7 73.6999 225.2C74.1999 225.1 73.7999 224.9 73.5999 224.1C73.6999 224.1 73.4999 223.5 73.2999 223.1C73.4999 224.2 71.4999 222.1 72.5999 224.1Z" fill="#443730"/>
<path d="M74.1999 224.2L73.8999 223.8L73.9999 224.3L74.1999 224.2Z" fill="#443730"/>
<path d="M70.8 224C69.6 223.1 70.9 225 70.2 224.8C70.2 224.7 70.1 224.6 70 224.5L69.8999 224.8L69.7 224.6C70.3 225.2 70.2 225.7 70.6 226.3C71.4 226.8 69.9999 225.4 70.8999 226C71.0999 226.3 71.4 226.8 71.6 227.1C71.5 226.6 71.1999 226.2 70.8999 225.8C70.9999 225.6 71.3 226 71.5 226.2C71.4 225.7 70.5 224.7 71 224.7C71.7 225.1 71.7 225.7 71.8 225.2C70.8 224.3 72.2 225.1 71.8 224.4C72.2 224.4 72.9 224.9 73.2 225.3C72.5 224.5 72.1 223.7 72 223.3L72.3 224.3L71.3 223.5C71.3 223.9 71.1 224 70.8 224Z" fill="#443730"/>
<path d="M71.5 226.9C71.5 227 71.6 227.1 71.6 227.1C71.6 227.1 71.6 227 71.5 226.9Z" fill="#443730"/>
<path d="M73.2999 225.3L73.3999 225.6L73.6999 225.8L73.2999 225.3Z" fill="#443730"/>
<path d="M71.8999 227.7C71.9999 227.7 71.7 227.4 71.7 227.4L72 227.9L71.8999 227.7Z" fill="#443730"/>
<path d="M71.2 227.3L70.6 226.9L70.9 227.4L71.2 227.3Z" fill="#443730"/>
<path d="M65.3999 230.7C65.7999 230.9 65.2999 230.2 64.9999 229.7C64.5999 229.8 65.3999 230.4 65.3999 230.7Z" fill="#443730"/>
<path d="M62.2999 233.8C62.7999 234.1 62.5999 233.3 62.7999 233.2C62.3999 233 62.2999 233.4 62.2999 233.8Z" fill="#443730"/>
<path d="M62.1 237.2C62 236.9 62 236.8 61.9 236.7L61.4 235.3C60.8 235.1 61.8 236.7 62.1 237.2Z" fill="#443730"/>
<path d="M59.9999 236.1C59.9999 236.1 59.9999 236.2 59.8999 236.2C59.9999 236.3 60.1999 236.5 59.9999 236.1Z" fill="#443730"/>
<path d="M59.8 236.3C59.8 236.4 59.8 236.4 59.8 236.5C59.8 236.4 59.8 236.3 59.9 236.2C59.8 236.1 59.7 236 59.8 236.3Z" fill="#443730"/>
<path d="M48.7 233.3C49 234 49.2 233.8 49.1 233.5C49.1 233.7 48.9 233.5 48.7 233.3Z" fill="#443730"/>
</g>
</g>
<path d="M99.8 236.4C99.8 236.4 101.4 232.8 99.2 231.2" stroke="#1B1C1E" stroke-miterlimit="10"/>
<path d="M94.7 236.4C94.7 236.4 95.5 233.3 94.1 231.8" stroke="#1B1C1E" stroke-miterlimit="10"/>
<path d="M136.3 87.7001C136.3 87.7001 125.1 97.7001 118.3 100C111.4 102.4 86.8 102.4 76.9 102.4C67 102.4 46.9 99.2001 36.4 122.8C25.9 146.4 8.89996 186 9.49996 211.4C10.1 236.8 36.6 242.2 60.6 230.6C83.7 219.5 87.8 199.7 89.5 192.5C89.5 192.5 147.6 147.9 158.7 137C169.8 126.1 168.1 114.3 165.1 103.4C162.1 92.5001 161.9 88.4001 163 82.3001C164.1 76.2001 138.8 79.2001 138.8 79.2001L136.3 87.7001Z" fill="#EFBE9D"/>
<mask id="mask2_70_4477" style="mask-type:luminance" maskUnits="userSpaceOnUse" x="134" y="78" width="31" height="25">
<path d="M163 82.2C164.1 76.1 138.8 79.1 138.8 79.1L136.2 87.8C136.2 87.8 135.5 88.4 134.4 89.4C143.2 95.6 154 100.9 164.9 102.5C162.2 92.2 162 88.1 163 82.2Z" fill="white"/>
</mask>
<g mask="url(#mask2_70_4477)">
<g opacity="0.88">
<path d="M154.9 88.1001C154.9 88.1001 155 88.2001 155.1 88.2001C155 88.2001 154.9 88.2001 154.9 88.1001Z" fill="#443730"/>
<path d="M149.8 90.7L149.7 90.5C149.8 90.6 149.8 90.6 149.8 90.7Z" fill="#443730"/>
<path d="M156.2 88.8999C156.3 88.8999 156.4 88.8999 156.5 88.9999L156.2 88.8999Z" fill="#443730"/>
<path d="M158.6 83.5C158.7 83.5 158.7 83.6 158.8 83.6C158.7 83.5 158.6 83.6 158.6 83.5Z" fill="#443730"/>
<path d="M147.6 90.7001C147.5 90.7001 147.5 90.7001 147.4 90.6001C147.6 90.6001 147.6 90.6001 147.6 90.7001Z" fill="#443730"/>
<path d="M157.5 85.3999C157.9 85.8999 157.7 85.1999 158.1 85.6999C157.9 85.6999 157.8 85.6999 158 85.9999C158.3 86.1999 158.1 85.7999 158.6 86.0999H158.3C158.4 86.3999 158.8 86.4999 158.7 86.5999C158.1 86.1999 158.6 87.1999 158.4 87.1999H158.5L158.6 87.5999C158.6 87.5999 158.5 87.5999 158.5 87.4999C158.7 87.7999 158.7 88.0999 158.5 88.1999C158.1 87.9999 157.9 88.5999 157.6 88.3999C157.7 88.3999 157.8 88.3999 157.8 88.1999L157.4 87.8999C157.3 88.0999 157.7 88.1999 157.4 88.1999C157 87.6999 157.6 87.9999 157.6 87.7999C157.5 87.6999 157.3 87.6999 157.2 87.6999C157.4 87.4999 157.4 87.0999 158 87.4999C158 87.2999 157.7 87.1999 157.6 87.1999C158 87.2999 157.4 86.7999 157.8 86.9999C157.3 86.5999 157.3 87.0999 156.9 86.9999C157.1 87.4999 156.5 87.3999 156.3 87.5999C156.6 87.8999 157 88.0999 157.1 88.2999C157.1 88.6999 156.7 88.2999 156.4 88.1999C156.4 88.4999 156.9 88.7999 156.7 88.9999L157 89.0999C157.3 89.6999 156.7 88.9999 156.7 89.1999C156.6 88.9999 156.5 88.8999 156.7 88.7999C156.6 88.5999 156.4 88.5999 156.3 88.5999C156 88.3999 155.8 88.1999 155.8 88.3999C156.1 88.5999 155.9 88.6999 155.9 88.8999H156C155.8 88.8999 155.7 88.9999 155.6 88.9999L155.7 89.0999C155.5 88.9999 155.2 88.6999 155.1 88.8999C155.2 88.9999 155.7 89.2999 155.5 89.3999C155.7 89.5999 155.9 89.4999 155.9 89.2999C155.8 89.4999 156 89.8999 156.2 89.7999C156.4 90.0999 155.9 89.7999 156 89.9999C156 89.8999 155.8 89.7999 155.8 89.6999C156.1 90.0999 155.5 89.9999 155.3 89.6999L155.6 89.7999C155.4 89.4999 155 89.3999 155 89.1999C155.3 89.7999 154.4 89.1999 154.6 89.6999L154.5 89.3999C154.3 89.7999 153.6 89.2999 153.2 89.3999C153.4 89.4999 153.7 90.0999 153.8 89.7999C153.5 90.0999 154 90.3999 154.1 90.7999C154 91.1999 153.7 90.2999 153.5 90.1999H153.7C153.1 89.5999 153.1 90.6999 152.5 90.3999C152.6 90.5999 152.6 90.4999 152.7 90.4999C152.7 90.8999 152.5 90.4999 152.4 90.3999C152.3 90.4999 152.1 90.7999 152.4 91.1999C152.2 91.3999 152.3 90.8999 152.2 90.7999V90.8999L151.8 90.3999C151.7 90.5999 151.6 90.8999 151.6 91.3999C151.2 91.3999 151.1 90.3999 150.8 90.2999C150.7 90.5999 150.9 90.6999 151 90.7999H150.7C150.9 91.2999 151.1 90.9999 151.2 91.5999C150.8 90.9999 150.8 91.4999 150.5 91.0999V90.9999C150.3 90.5999 150.1 90.9999 149.9 90.8999C150 91.1999 150.2 91.0999 150.4 91.1999C150.3 91.4999 149.7 91.2999 149.5 90.7999C149.4 90.8999 149.2 91.1999 149.4 91.3999C149 91.4999 149.2 90.5999 148.8 90.7999V91.1999C148.4 91.7999 148.1 90.6999 147.7 91.1999V90.6999C147.6 90.8999 147.5 90.9999 147.4 91.1999L147.6 91.3999C147.4 91.7999 147.4 90.9999 147.2 91.2999C147.2 91.0999 147.4 90.7999 147.4 90.5999C148.1 90.8999 148.8 90.1999 149.6 90.5999C149.6 90.6999 149.6 90.6999 149.6 90.7999C149.7 90.6999 149.8 90.7999 149.8 90.4999C150 90.5999 150.1 89.8999 150.2 89.8999C150.3 90.1999 150.5 89.6999 150.6 90.2999V89.8999C150.7 90.0999 150.7 90.3999 150.8 90.4999C150.9 90.3999 150.9 90.1999 150.7 90.0999C151.1 89.7999 151.6 89.5999 152.2 89.5999L152 89.3999C152 89.1999 152.6 89.6999 152.2 89.0999C152.5 89.2999 152.7 88.6999 153.1 89.2999C152.9 88.5999 153.4 88.6999 153.8 88.5999C154.1 89.1999 154.1 88.5999 154.4 88.7999C154.2 88.3999 153.9 88.4999 153.7 88.1999C154.4 88.6999 154.1 87.1999 155 88.1999C155 88.0999 155 88.0999 154.9 88.0999C155 88.0999 154.9 87.7999 154.9 87.6999C155.1 87.8999 155 87.9999 155.2 87.9999C155.3 87.8999 155 87.5999 154.9 87.4999C155.3 87.5999 155.7 87.3999 156 87.7999C156 87.5999 155.8 87.3999 155.7 87.2999C156.3 87.2999 155.9 86.9999 156.4 86.8999C156.3 86.9999 156 86.5999 156 86.8999C155.6 86.2999 156.5 86.5999 156.5 86.0999L156.9 86.2999C157.1 86.1999 156.8 85.8999 156.5 85.8999C156.5 85.4999 156.8 85.4999 157 85.2999L156.9 85.1999L157.1 84.8999C157.2 84.8999 157.5 84.9999 157.7 85.1999C157.7 85.1999 157.5 85.0999 157.5 85.3999Z" fill="#443730"/>
<path d="M156.9 89.3999C156.9 89.2999 156.8 89.2 156.8 89.2C156.9 89.2 156.9 89.2999 156.9 89.3999Z" fill="#443730"/>
<path d="M162.1 84.3999C162.1 85.0999 161.8 84.2999 161.7 84.4999C161.9 84.5999 161.9 84.9999 161.9 85.1999C161.6 84.2999 161.7 85.3999 161.3 85.2999C161.3 85.5999 161.5 85.5999 161.6 85.9999C161.4 85.7999 161.1 85.6999 160.9 85.1999C160.6 85.2999 160.4 85.4999 160.2 85.4999C160.5 85.5999 160.4 85.9999 160.7 86.3999C160.3 85.8999 159.6 85.2999 158.8 85.0999C159.1 85.5999 159.2 85.5999 159.5 85.9999C159.5 86.3999 159.2 85.8999 159 85.9999C159 85.9999 158.9 85.9999 158.9 86.0999V85.8999C158.6 85.8999 158.2 85.5999 157.9 85.3999L158.1 85.2999C158.2 85.1999 158.3 85.1999 158.4 85.0999C158.2 84.8999 158 84.9999 157.9 85.0999C157.8 85.0999 157.8 85.1999 157.7 85.1999C157.4 85.0999 157.5 84.8999 157.4 84.7999V84.6999C157.4 84.5999 157.4 84.5999 157.3 84.5999C157.7 84.6999 157.8 84.3999 158.1 84.3999L158 83.9999C158.2 83.4999 158.7 83.8999 158.9 83.6999C158.9 83.5999 158.9 83.5999 158.9 83.5999C159.1 83.7999 159.3 83.9999 159.5 83.9999H159.4C159.8 84.3999 160.3 84.4999 160.2 85.1999C160.3 85.0999 160.5 84.9999 160.6 84.8999C160.4 84.3999 160.1 83.5999 159.7 83.5999L159.6 83.3999C159.8 82.9999 160.4 83.5999 160.4 84.0999C160.7 84.6999 160.9 84.6999 161 84.5999C161.2 84.4999 161.4 84.2999 161.6 84.4999C161.6 84.0999 161.4 83.9999 161.2 83.7999C161.1 83.7999 161 83.7999 161 84.0999C160.5 83.9999 160.9 82.8999 160.3 83.1999C160 83.3999 160.8 83.6999 160.4 83.7999C160.2 83.4999 160 83.1999 159.8 82.8999C160.1 82.8999 160.4 82.9999 160.6 82.9999C161.3 83.1999 161.7 83.1999 162.1 83.0999C162.4 82.9999 162.6 82.8999 162.6 82.8999C164.2 82.9999 165.8 83.1999 167.3 83.4999C167.8 83.6999 167.9 83.6999 168 84.6999C167.9 84.8999 167.6 84.7999 167.7 85.0999C167.7 84.6999 167.5 84.4999 167.3 84.4999C167.2 84.8999 167.5 84.6999 167.4 84.7999C167.4 84.9999 167.4 85.0999 167.5 85.0999C167.2 85.5999 166.7 85.3999 166.6 84.6999C166.3 84.9999 166.7 85.2999 166.8 85.5999C166 85.7999 165.5 85.6999 164.7 85.6999C164.7 85.0999 164.6 85.2999 164.6 84.7999L164.5 84.9999C164.5 84.8999 164.4 84.3999 164.6 84.2999C164.1 84.7999 164.1 83.3999 163.8 83.0999V83.3999C163.5 83.2999 163.5 83.2999 163.2 83.1999C162.8 83.7999 163.6 83.2999 163.5 84.0999L163.4 83.9999C163.5 84.2999 163.6 84.8999 163.7 85.0999C163.3 84.5999 163.2 85.2999 162.7 84.8999C162.8 85.2999 163.1 85.4999 163.2 85.5999C163.1 85.5999 162.8 85.3999 162.8 85.6999V85.1999C162.6 85.0999 162.9 85.5999 162.8 85.8999C162.2 86.0999 162.6 84.6999 162.1 84.3999Z" fill="#443730"/>
<path d="M159.2 87.8999C159.1 87.6999 159 87.7999 158.8 87.6999C159 87.6999 159.1 87.4999 159.2 87.8999Z" fill="#443730"/>
<path d="M139.8 91.0001C139.8 90.9001 139.7 90.7001 139.8 90.6001L140 90.8001L139.8 91.0001Z" fill="#443730"/>
<path d="M140.4 90.7001L140.7 90.6001L140.6 91.2001C140.4 91.2001 140.7 90.8001 140.4 90.7001Z" fill="#443730"/>
<path d="M141.1 90.9L141 91.4L140.8 91H140.9C141 90.9 141.1 90.8 141.1 90.8V91.1001C141.2 91.0001 141.1 90.9 141.1 90.9Z" fill="#443730"/>
<path d="M141.3 91C141.3 91 141.3 91.1 141.2 91.1C141.3 91.1 141.3 91.1 141.3 91Z" fill="#443730"/>
<path d="M142.2 90.3999C142.1 90.4999 142.1 90.7999 142.1 90.9999C141.8 91.0999 142.1 90.3999 141.8 90.5999C142 90.9999 141.6 90.7999 141.4 90.9999C141.6 90.5999 141.8 90.3999 142.1 90.3999L142 90.6999C142.1 90.6999 142.1 90.4999 142.2 90.3999Z" fill="#443730"/>
<path d="M143.1 91.5001V91.0001C143 91.2001 142.7 91.1001 142.6 91.5001C142.5 91.4001 142.6 91.2001 142.5 91.1001C142.4 91.3001 142.2 91.4001 142.2 91.1001C142.7 91.0001 142.6 90.8001 143 90.8001C143 90.7001 143 90.7001 142.9 90.7001L143.2 90.6001C143.1 91.1001 143.4 91.3001 143.1 91.5001Z" fill="#443730"/>
<path d="M143.6 91.3001C143.4 91.2001 143.4 90.8001 143.6 90.6001L143.9 91.1001C143.8 91.0001 143.6 90.9001 143.6 91.3001Z" fill="#443730"/>
<path d="M143.8 91.4C143.9 91.2 144.2 90.8 144.2 91.2C144 91.1 144 91.8 143.8 91.4Z" fill="#443730"/>
<path d="M145.3 91.3L144.9 91.5C144.7 92 145 91.7 145.1 92C144.7 92 144.9 91.9 144.7 91.5C144.6 91.5 144.5 91.2 144.5 91C144.9 91.6 145.2 90.2 145.3 91.3Z" fill="#443730"/>
<path d="M144.4 91.7L144.5 91.5L144.6 91.7H144.4Z" fill="#443730"/>
<path d="M146.3 90.8999C146.6 90.2999 146.7 91.3 147 91.1C147 91.1 147 90.9999 147 90.8999L147.2 91V90.8999C147.2 91.2999 147.4 91.5 147.5 91.8C147.2 92.2 147.4 91.3 147.2 91.7C147.2 91.9 147.2 92.2 147.3 92.3C147.2 92.1 147.2 91.8 147.1 91.6C147 91.5 147 91.7999 147 91.8999C146.9 91.6999 146.9 91.1 146.7 91.2C146.5 91.5 146.7 91.8 146.5 91.6C146.7 91 146.2 91.7 146.2 91.2C146 91.3 145.8 91.6999 145.8 91.8999C145.9 91.3999 145.8 91 145.7 90.8C145.8 91 145.9 91.1 146 91.3L146.2 90.7C146 91 146.2 90.8999 146.3 90.8999Z" fill="#443730"/>
<path d="M147.2 92.2C147.2 92.2 147.2 92.3 147.3 92.3C147.2 92.4 147.2 92.3 147.2 92.2Z" fill="#443730"/>
<path d="M145.4 92L145.5 92.2L145.4 92.3V92Z" fill="#443730"/>
<path d="M147.4 92.7C147.3 92.7 147.3 92.5 147.4 92.5V92.7Z" fill="#443730"/>
<path d="M147.6 92.3L147.7 92L147.8 92.3H147.6Z" fill="#443730"/>
<path d="M152.4 91.3001C152.3 91.5001 152.2 91.2 152.1 90.9C152.3 90.7 152.2 91.2001 152.4 91.3001Z" fill="#443730"/>
<path d="M155.4 90.3C155.4 90.6 155 90.4 154.9 90.5C155 90.2 155.2 90.2 155.4 90.3Z" fill="#443730"/>
<path d="M157.4 90.5C157.3 90.4 157.2 90.4 157.2 90.3L156.6 89.9C156.7 89.5 157.2 90.3 157.4 90.5Z" fill="#443730"/>
<path d="M158.7 89.5H158.3L158.4 89.4C158.2 89.2 158 89.2 157.8 89.1C158 89 158.3 89.1 158.7 89.5Z" fill="#443730"/>
<path d="M157.5 89.1001C157.6 89.1001 157.6 89.1001 157.5 89.1001C157.7 89.1001 157.7 89.2001 157.5 89.1001Z" fill="#443730"/>
<path d="M157.7 89C157.7 89.1 157.7 89.1 157.7 89C157.6 89 157.6 89 157.7 89Z" fill="#443730"/>
<path d="M158.6 89.1001L159 88.8V89C158.6 88.8 159 89.4001 158.6 89.1001Z" fill="#443730"/>
<path d="M159.8 87.1L159.5 86.8C159.5 86.7 159.7 86.7 159.9 86.7C160.1 86.8 160.2 86.8 160 86.5C160.2 86.7 160.3 86.8 160.4 87C160.3 86.9 160.2 86.8 160.1 86.8C159.9 86.9 159.9 87 159.8 87.1Z" fill="#443730"/>
<path d="M159.9 86.2001C159.8 86.1001 159.8 86.0001 159.7 85.9001C159.7 85.8001 159.9 86.0001 160 86.1001C159.6 85.7001 160.1 86.4001 159.9 86.2001Z" fill="#443730"/>
<path d="M160.7 85.9C160.6 85.9 160.5 85.9 160.6 85.8C160.8 85.8 160.9 86.3 161 86.5C160.9 86.7 160.6 86.1 160.7 85.9Z" fill="#443730"/>
<path d="M162 82.5C162 82.9 161.8 82.8 161.7 82.7C161.8 82.8 161.9 82.6 162 82.5Z" fill="#443730"/>
<path d="M162.3 85.5L162.2 85.6L162.1 85L162.3 85.5Z" fill="#443730"/>
<path d="M163.6 85.8L163.7 86.1001H163.5L163.6 85.8Z" fill="#443730"/>
<path d="M163.8 85.7H164L163.9 85.8C163.9 85.9 163.9 85.7 163.8 85.7Z" fill="#443730"/>
<path d="M164.5 85.8001C164.4 85.8001 164.5 85.7001 164.5 85.8001V85.8001Z" fill="#443730"/>
</g>
</g>
<path d="M89.5 192.4C89.5 192.4 93.1 172.5 81.1 159C69.1 145.5 49.3 155.1 48.5 160.1C47.7 165.1 54.8 155.9 66.3 157.7C77.9 159.5 82.3999 173.3 80.8999 187.6C79.4999 201.9 67.2 218.2 51.2 223C35.1 227.8 28.7 219.6 28.7 219.6" stroke="#1B1C1E" stroke-miterlimit="10"/>
<path d="M144 236.4C144 236.4 144.8 233.5 143 231.6" stroke="#1B1C1E" stroke-miterlimit="10"/>
<path d="M123.4 144.4C123.4 144.4 124.3 148.2 125.6 154.2C127.5 162.8 130.4 175.8 133.3 188.4C137.7 207.8 142 226.3 142.3 226.6C143.1 227.1 148.2 226.5 151.1 229.4C154 232.3 152.6 236.4 152.6 236.4C152.6 236.4 138.9 236.4 138.3 236.4C137.8 236.4 116.4 193 109 177.3C107.6 174.3 106.6 172.3 106.2 171.8" fill="#EFBE9D"/>
<path d="M149 236.4C149 236.4 150 233.2 148 231.6" stroke="#1B1C1E" stroke-miterlimit="10"/>
<path d="M144.8 236.4C144.8 236.4 145.1 233.2 143 232.4" stroke="#1B1C1E" stroke-miterlimit="10"/>
<path d="M139.2 42.5999C139.2 42.5999 140.2 37.5999 139.7 35.7999C139.2 33.9999 128.9 25.1999 121.8 15.1999C114.7 5.19994 111.4 -0.200055 109 0.799945C106.5 1.79995 105.1 22.7999 109 36.3999C112.9 49.9999 115.3 52.4999 118.8 53.1999C122.3 53.9999 124.7 54.8999 124.7 54.8999C124.7 54.8999 137.7 48.0999 139.2 42.5999Z" fill="#EFBE9D"/>
<path d="M130.9 51.1998C127.7 53.3998 124.7 54.8998 124.7 54.8998C124.7 54.8998 122.3 53.8998 118.8 53.1998C115.3 52.3998 112.9 49.9998 109 36.3998C106.4 27.2998 106.1 14.8998 107 7.39983C107 7.39983 107 7.39983 107 7.29983C107.1 6.79983 107.1 6.39982 107.2 5.99982C107.6 4.59982 109 3.59982 113.7 9.59982C120.6 18.5998 131.2 37.8998 131.7 39.7998C132 41.3998 131.2 48.1998 130.9 51.1998Z" fill="#E2AF8D"/>
<path d="M166.4 47.3998C166.4 47.3998 166.8 42.5998 166.8 40.3998C166.8 38.1998 167.5 36.0998 173.7 30.5998C179.9 25.0998 189.9 14.3998 194.6 9.79984C199.3 5.19984 202.7 2.59983 205 4.89983C207.3 7.19983 203.5 47.4998 200.8 52.2998C198.1 56.9998 195.2 58.6998 188 59.7998C180.8 60.8998 176.3 60.6998 175.7 60.8998C175 60.9998 164.5 53.8998 166.4 47.3998Z" fill="#EFBE9D"/>
<path d="M205.5 16.6999C204.9 29.6999 202.6 48.9999 200.8 52.0999C198.1 56.7999 195.2 58.4999 188 59.5999C180.8 60.6999 176.3 60.4999 175.7 60.6999C175.5 60.7999 173.7 59.6999 171.7 57.9999C172.2 51.3999 173.2 42.2999 174.4 39.7999C176.3 35.5999 199.8 9.09985 202.7 9.09985C205.6 9.19985 205.5 16.6999 205.5 16.6999Z" fill="#E2AF8D"/>
<path d="M129.2 74.8999C129.2 74.8999 123.1 70.0999 122.1 66.4999C121.1 62.9999 121.8 52.9999 130.8 45.8999C139.8 38.7999 150.1 39.2999 155.1 40.3999C160.1 41.4999 171.8 45.4999 176.6 58.9999C181.4 72.4999 175.5 78.5999 169.8 81.2999C164.2 83.9999 158.6 83.4999 158.6 83.4999C158.6 83.4999 155.4 87.9999 153.1 88.9999C150.8 89.9999 146.3 90.5999 142.4 89.9999C138.5 89.3999 133.2 85.9999 131.7 83.6999C130.2 81.3999 129.7 75.2999 129.2 74.8999Z" fill="#EFBE9D"/>
<path d="M134.6 86.6999C134.6 86.6999 136.2 87.6999 138 85.7999C139.8 83.8999 142.6 82.4999 143.4 82.1999L143.7 80.3999" stroke="#1B1C1E" stroke-miterlimit="10" stroke-linecap="round" stroke-linejoin="round"/>
<path d="M143.4 82.2C143.4 82.2 143.7 82.6999 145.6 84.3999C147.8 86.3999 149.2 90.3 153.2 89.2" stroke="#1B1C1E" stroke-miterlimit="10" stroke-linecap="round" stroke-linejoin="round"/>
<path d="M143.9 80.5999C143.9 80.5999 143.1 80.7999 142.4 79.1999C141.7 77.5999 139.9 76.5999 139.2 75.8999C138.5 75.1999 138.9 73.4999 141 74.3999C143.2 75.2999 145.2 75.3999 147.1 75.3999C150 75.3999 150.3 75.7999 150.4 76.5999C150.4 77.3999 149.1 78.0999 147.5 78.2999C145.9 78.5999 145.4 80.8999 143.9 80.5999Z" fill="#1B1C1E" stroke="#1B1C1E" stroke-miterlimit="10"/>
<path d="M139.2 68.6C139.2 68.6 140 63.3 137.2 60C134.4 56.7 129.5 57.4 129.5 57.4C129.5 57.4 127.2 63 131.3 66.8C134.1 69.4 139.2 68.6 139.2 68.6Z" fill="#FCEA9F"/>
<path d="M154.6 69.4999C154.6 69.4999 156.1 61.9999 160.9 61.0999C165.7 60.1999 168.3 62.9999 168.3 62.9999C168.3 62.9999 167.6 70.0999 162.5 70.9999C157.4 71.9999 154.6 69.4999 154.6 69.4999Z" fill="#FCEA9F"/>
<path d="M135.391 63.2841C135.733 61.2694 135.348 59.5238 134.531 59.3851C133.714 59.2465 132.775 60.7672 132.433 62.7819C132.091 64.7965 132.476 66.5421 133.292 66.6808C134.109 66.8195 135.048 65.2987 135.391 63.2841Z" fill="#1B1C1E"/>
<path d="M162.022 66.3133C162.364 64.2987 161.979 62.5531 161.163 62.4144C160.346 62.2758 159.407 63.7965 159.064 65.8111C158.722 67.8258 159.107 69.5714 159.924 69.7101C160.741 69.8488 161.68 68.328 162.022 66.3133Z" fill="#1B1C1E"/>
<path d="M109.1 177.3C107.7 174.3 106.7 172.3 106.3 171.8" stroke="#1B1C1E" stroke-miterlimit="10"/>
<path d="M123.4 144.4C123.4 144.4 124.3 148.2 125.6 154.2C127.5 162.8 130.4 175.8 133.3 188.4" stroke="#1B1C1E" stroke-miterlimit="10"/>
</svg>
