<svg width="286" height="240" viewBox="0 0 286 240" fill="none" xmlns="http://www.w3.org/2000/svg">
<path d="M31.1001 234.5C28.7001 233.2 269.5 230.9 283.5 234.5C293.6 237.1 257 239.7 213.9 239.6C168.1 239.6 114.9 236.8 100 238.3C70.9001 241.2 39.2001 239 31.1001 234.5Z" fill="#1B1C1E"/>
<path d="M57.9 236.1C57.9 236.1 75.6 236.1 76.5 236.1C77.4 236.1 87.6 210.5 87.6 210.5C87.6 210.5 89.5 179 97.9 153.6C106.3 128.2 108.2 109.2 107.2 96.7L65 78.7C65 78.7 65 85.1 65 95.1C65 105.1 68.3 116.3 75.7 137.2L77.3 211.1L71.1 228.3C71.2 228.4 58.5 227.5 57.9 236.1Z" fill="#AA8C7D"/>
<mask id="mask0_70_1039" style="mask-type:luminance" maskUnits="userSpaceOnUse" x="57" y="78" width="51" height="159">
<path d="M57.9 236.1C57.9 236.1 75.6 236.1 76.5 236.1C77.4 236.1 87.6 210.5 87.6 210.5C87.6 210.5 89.5 179 97.9 153.6C106.3 128.2 108.2 109.2 107.2 96.7L65 78.7C65 78.7 65 85.1 65 95.1C65 105.1 68.3 116.3 75.7 137.2L77.3 211.1L71.1 228.3C71.2 228.4 58.5 227.5 57.9 236.1Z" fill="white"/>
</mask>
<g mask="url(#mask0_70_1039)">
<g opacity="0.88">
<path d="M95.2001 144.9C95.2001 145 95.2001 145.2 95.3001 145.3C95.4001 145.3 95.3001 145.1 95.2001 144.9Z" fill="#322015"/>
<path d="M107.3 143.3L107.5 142.8C107.3 143 107.3 143.1 107.3 143.3Z" fill="#322015"/>
<path d="M96.3 148.2C96.3 148.3 96.3 148.5 96.5 148.8L96.3 148.2Z" fill="#322015"/>
<path d="M87.1 152.3L87 152.2C87 152.3 87 152.3 87.1 152.3Z" fill="#322015"/>
<path d="M87.4 153.4C87.3 153.4 87.3 153.5 87.3 153.6L87.4 153.7C87.5 153.7 87.4 153.5 87.4 153.4Z" fill="#322015"/>
<path d="M91.2001 160.3L91.6001 160.5C91.5001 160.5 91.3001 160.4 91.2001 160.3Z" fill="#322015"/>
<path d="M86.7001 151.9C86.8001 152 86.9001 152.1 87.0001 152.2C86.9001 152.1 86.9001 151.9 86.7001 151.9Z" fill="#322015"/>
<path d="M95.1001 144.7C95.1001 144.8 95.2001 144.8 95.2001 144.9C95.2001 144.8 95.2001 144.7 95.1001 144.7Z" fill="#322015"/>
<path d="M89.6001 150.4C90.9001 151.2 89.4001 150.8 90.6001 151.6C90.5001 151.3 90.4001 151 91.0001 151.3C91.6001 151.9 90.7001 151.6 91.7001 152.4L91.5001 151.9C92.1001 152.1 92.8001 152.9 92.8001 152.7C91.6001 151.5 93.8001 152.4 93.8001 152.1L93.9001 152.3L94.8001 152.5C94.8001 152.5 94.8001 152.5 94.9001 152.6C94.8001 152.5 94.8001 152.5 94.7001 152.4C95.5001 152.8 96.1001 153 96.1001 152.6C95.8001 152.2 95.9001 152 96.0001 151.8C96.1001 151.6 96.3001 151.4 96.0001 151C96.1001 151.3 96.0001 151.3 95.7001 151.3L94.9001 150.5C95.1001 150.3 95.7001 151.2 95.4001 150.5C94.2001 149.5 95.1001 150.8 94.8001 150.8C94.6001 150.5 94.4001 150.2 94.4001 150C94.0001 150.3 93.4001 150.3 94.4001 151.5C94.1001 151.4 93.6001 150.9 93.5001 150.7C94.0001 151.5 92.6001 150.3 93.1001 151.1C92.0001 150.1 93.0001 150.1 92.5001 149.3C93.6001 149.7 93.2001 148.6 93.5001 148C94.3001 148.7 94.7001 149.6 95.3001 149.9C96.1001 150.1 95.2001 149.2 95.0001 148.5C95.5001 148.5 96.2001 149.8 96.7001 149.5L97.0001 150.2C98.2001 151.1 96.8001 149.6 97.2001 149.7C96.9001 149.4 96.6001 149.2 96.5001 149.3C96.1001 148.9 96.1001 148.6 96.1001 148.5H96.0001C95.6001 147.9 95.1001 147.2 95.6001 147.3C96.0001 148.1 96.2001 147.6 96.6001 147.9V148.1C96.6001 147.7 96.9001 147.7 96.9001 147.4L97.0001 147.6C96.9001 147.2 96.4001 146.2 96.7001 146.3C96.9001 146.7 97.3001 147.9 97.5001 147.5C97.8001 148.1 97.6001 148.3 97.3001 148.2C97.7001 148.2 98.4001 149.1 98.2001 149.3C98.8001 149.9 98.2001 148.8 98.6001 149.1C98.4001 148.9 98.3001 148.6 98.1001 148.4C98.8001 149.4 98.6001 148.2 98.2001 147.5L98.3001 148.2C97.8001 147.4 97.8001 146.7 97.4001 146.3C98.3001 147.5 97.8001 145.2 98.6001 146.2L98.1001 145.6C98.9001 145.7 98.7001 143.9 99.4001 143.3C99.3001 143.8 99.8001 145.3 99.2001 145C99.9001 145.1 100 146.4 100.4 147.1C101 147.5 100.1 145.6 100.1 145.1L99.9001 145.5C99.8001 144.6 100.2 144.5 100.6 144.6C101 144.6 101.5 144.9 101.7 144.2C101.8 144.7 101.6 144.5 101.6 144.7C102.1 145.6 101.9 144.4 102 144C102.4 144.1 102.8 144.5 102.8 145.6C103.2 145.9 102.7 144.9 102.8 144.5L102.9 144.8C103 144.4 103.1 143.9 103.2 143.5C103.6 143.9 104 144.4 104.1 145.6C104.8 145.4 104.3 143 104.9 142.5C105.2 143.1 104.8 143.4 104.8 143.8L105.3 143.7C105.1 145 104.7 144.3 104.7 145.9C105.1 144.4 105.2 145.5 105.8 144.5V144.4C106.1 143.4 106.6 144.2 107 144C106.8 144.6 106.4 144.6 106.2 144.8C106.5 145.3 107.3 145 107.9 143.7C108.1 143.9 108.4 144.6 108 145.1C108.6 145.5 108.7 143.3 109.2 143.8L108.9 144.8C109.1 146.4 110.5 143.9 110.7 145.4L111.2 144.2C111.2 144.7 111.3 145.1 111.2 145.5L110.8 145.8C110.7 146.9 111.4 145 111.5 145.8C111.6 145.4 111.7 144.6 111.8 144.2C111 144.3 110.5 143.8 109.8 143.4C109.2 143 108.5 142.7 107.6 143.2C107.6 143.4 107.7 143.5 107.6 143.8C107.5 143.5 107.2 143.7 107.3 143.1L107.4 143C107 143.2 106.8 141.7 106.6 141.6C106.3 142.4 105.8 141.2 105.8 142.6L105.6 141.7C105.5 142.2 105.5 142.9 105.3 143.2C105 143.1 105.1 142.5 105.3 142.1C104.3 141.5 102.8 141.7 101.8 142.4L102 141.7C101.6 141.4 101.2 143.1 101.1 141.3C100.9 141.7 100.5 141.7 100.1 141.8C99.8001 141.9 99.6001 142.2 99.8001 143C99.4001 142.2 99.0001 142.2 98.6001 142.3C98.2001 142.5 98.0001 143 97.7001 143.3C98.5001 144.6 97.3001 144 97.5001 144.7C96.8001 143.7 97.5001 143.3 97.2001 142.6C97.2001 143.6 96.6001 143.6 96.1001 143.7C95.6001 143.8 95.2001 144 95.9001 145.4C95.8001 145.4 95.7001 145.3 95.6001 145.1C95.5001 145.2 95.0001 144.9 94.8001 144.9C95.1001 145.4 95.4001 145.4 95.3001 145.8C95.0001 145.9 94.6001 145.1 94.3001 144.9C94.3001 145.8 93.8001 146.5 94.6001 147.5C94.3001 147.4 93.7001 147 93.6001 146.7C93.7001 148 92.9001 147.1 92.8001 148.1C93.0001 147.9 91.9001 147.1 92.6001 147.2C91.9001 146.7 91.7001 147 91.5001 147.4C91.4001 147.8 91.4001 148.3 90.8001 148.3L91.5001 149.2C91.4001 149.6 90.5001 149 90.4001 148.5C89.4001 148.6 89.7001 149.3 89.4001 149.8C89.3001 149.7 89.1001 149.6 89.2001 149.6L88.7001 150.2C88.9001 150.4 89.2001 151 89.8001 151.3C89.2001 150.8 89.0001 150.5 89.6001 150.4Z" fill="#322015"/>
<path d="M89.7001 151.3L89.8001 151.4C89.8001 151.3 89.8001 151.3 89.7001 151.3Z" fill="#322015"/>
<path d="M97.3 150C97.1 149.8 97 149.7 96.9 149.7C97 149.8 97.1 149.9 97.3 150Z" fill="#322015"/>
<path d="M88.4 157.9C90 158.5 88.3 157.4 88.9 157.4C89 157.8 89.9 158.1 90.4 158.3C88.5 157.1 91 158.1 90.8 157.4C91.4 157.7 91.4001 158 92.1001 158.4C91.7001 157.9 91.7001 157.3 90.6001 156.7C90.8001 156.2 91.4 156 91.4 155.6C91.6 156.2 92.4 156.3 93.2 157C92.1 156 91.1 154.3 89.9 152.8C91.1 153.4 91.2 153.5 92.2 154.2C93.3 154.1 91.2 153.4 92 153L91.6001 153.1C91.4001 152.6 90.4 151.9 89.7 151.3L89.4 152.1C88.6 151.6 89 151.2 88.9 151C88.1 150.2 88 151 87.3 150.4C87.9 150.9 87.4001 151.1 87.6001 151.4L87.2 151.2C86.5 151.3 87.5 152.1 87.3 152.4C87.2 152.4 87.1 152.3 87 152.3C87.4 152.7 88 153.1 88 153.4V153.2C88.9 154.1 89.2001 155 90.6001 155.2C90.4001 155.4 90.1 155.5 89.9 155.7C88.8 155 87.1 153.9 87.2 153.4L86.7 153.1C85.8 153.1 87.1 154.5 88.2 154.8C90.8 156.6 87.8 156 88.7 157.1C87.9 156.8 87.7 156.3 87.3 155.9C87.3 155.7 87.3 155.6 88 155.9C87.9 155 85.5 154.8 86.2 154.2C86.8 154 87.2001 155.3 87.6001 154.8L85.7 153.3C85.6 153.7 85.8 154.2 85.9 154.7C86.2 155.9 85.9001 156.6 85.6001 157C85.3001 157.4 84.8 157.6 84.8 157.6L84.2 159.5C84 160.1 83.9 160.8 83.7 161.4L83.2 163.3L82.8 165.2C82.9 166.1 82.7 166.3 84.9 167.3C85.4 167.3 85.3001 166.8 86.1001 167.1C85.3001 166.8 84.9001 166.4 85.1001 166C85.9001 166.2 85.4001 166.5 85.6001 166.4L85.7 166.3C86.1 166.5 86.4 166.6 86.4 166.7C87.8 166.6 87.7 165.8 86.3 165C87.2 164.9 87.5001 165.6 88.1001 166C89.1001 165 89.3 164.1 89.8 163C88.4 162.5 88.9 162.6 88 162L88.6001 162.1C88.3001 162.1 87.4 161.5 87 161.7C88.4 161.4 85.4 160.1 85 159.4L85.7 159.7C85.7 159.2 85.8 159.1 85.5 158.6C87.1 158.5 85.5 159.3 87.3 159.8L87.1001 159.5C87.7001 159.9 88.9 160.5 89.3 160.9C88.4 159.8 90.1 160.2 89.5 159.2C90.3 159.6 90.7 160.5 90.7 160.6C90.9 160.4 90.4 159.8 91.2 160.1L90.2 159.6C90.2 159.2 91.1 160.1 91.8 160.2C92.1 159.5 88.6 158.9 88.4 157.9Z" fill="#322015"/>
<path d="M94.4001 149.6C94.2001 149.6 94.2001 149.7 94.2001 149.9C94.3001 149.8 94.4001 149.7 94.4001 149.6Z" fill="#322015"/>
<path d="M94.7001 152.4C94.8001 152.5 94.9001 152.6 95.0001 152.7C95.0001 152.6 94.9001 152.5 94.7001 152.4Z" fill="#322015"/>
<path d="M95.8 153.5C95.4 153.2 95.4 153.1 95 152.7C95.2 153 95.1 153.2 95.8 153.5Z" fill="#322015"/>
<path d="M102.9 145.9C103.2 146.4 103.1 145.4 103.1 144.7C102.6 144.6 103.1 145.5 102.9 145.9Z" fill="#322015"/>
<path d="M98.9 148.3C99.4 148.7 99.2 147.8 99.4 147.7C99.1 147.4 98.9 147.8 98.9 148.3Z" fill="#322015"/>
<path d="M99.4 151.8C99.3 151.5 99.2 151.4 99.1 151.3C98.8 150.8 98.5 150.3 98.2 149.8C97.6 149.7 98.9 151.3 99.4 151.8Z" fill="#322015"/>
<path d="M98.3001 153.2L98.1001 152.6L98.0001 152.7C97.6001 152.2 97.4001 151.9 97.1001 151.4C97.1001 151.8 97.4001 152.4 98.3001 153.2Z" fill="#322015"/>
<path d="M97 150.9C97 150.9 97 151 97 151.1C97.1 151.2 97.3 151.3 97 150.9Z" fill="#322015"/>
<path d="M96.9 151.2C96.9 151.3 97 151.3 97 151.4C97 151.3 97 151.2 97 151.1C96.8 151 96.7 150.9 96.9 151.2Z" fill="#322015"/>
<path d="M97.5 152.8C97.4 153 97.3 153.1 97.3 153.3L97.7 153.4C96.9 152.6 98.3 153.6 97.5 152.8Z" fill="#322015"/>
<path d="M95 154.5L94.1001 154C93.7001 154.2 95.2 155.8 93.8 155.1C94.4 155.3 94.6001 156 95.1001 155.7C94.4001 155.1 94.7 154.6 95 154.5Z" fill="#322015"/>
<path d="M93 155C92.8 154.8 92.6 154.8 92.3 154.7C92.1 154.8 92.4 155.1 92.8 155.3C91.7 154.4 93.6 155.5 93 155Z" fill="#322015"/>
<path d="M92.1001 156.6C92.1001 156.5 92.1001 156.3 91.8001 156.3C91.7001 156.6 92.7001 157.1 93.2001 157.6C93.9001 157.6 92.7001 156.7 92.1001 156.6Z" fill="#322015"/>
<path d="M84.2001 156.2C85.0001 156.5 85.0001 156.2 84.8001 156C84.9001 156.1 84.5001 156.2 84.2001 156.2Z" fill="#322015"/>
<path d="M90.6001 159.1H90.9001L89.7001 158.5L90.6001 159.1Z" fill="#322015"/>
<path d="M90.5 161.4L91.1 162L91.2 161.6L90.5 161.4Z" fill="#322015"/>
<path d="M90.1 161.7L90 162.1H90.4C90.7 162 90.1 161.8 90.1 161.7Z" fill="#322015"/>
<path d="M89.9001 162.8C89.8001 162.7 90.0001 162.8 90.1001 162.8L89.7001 162.3L89.9001 162.8Z" fill="#322015"/>
<path d="M82.9 166.9C82.1 166.6 82.5 167.1 82.3 167.1C82.5 167.2 83.6 167.2 82.9 166.9Z" fill="#322015"/>
</g>
</g>
<path d="M186.1 113.7C186.1 113.7 191.7 113.4 194.9 123.3C198.1 133.3 199.1 149.9 202.8 158C206.5 166 222.9 175.7 246.8 194.6L257.4 230.3H262.5C262.5 230.3 259.7 188 256.5 185.3C253.3 182.6 223.1 145.3 217 130.3C210.9 115.3 187.9 104.8 186.1 113.7Z" fill="#AA8C7D"/>
<mask id="mask1_70_1039" style="mask-type:luminance" maskUnits="userSpaceOnUse" x="186" y="110" width="77" height="121">
<path d="M186.1 113.7C186.1 113.7 191.7 113.4 194.9 123.3C198.1 133.3 199.1 149.9 202.8 158C206.5 166 222.9 175.7 246.8 194.6L257.4 230.3H262.5C262.5 230.3 259.7 188 256.5 185.3C253.3 182.6 223.1 145.3 217 130.3C210.9 115.3 187.9 104.8 186.1 113.7Z" fill="white"/>
</mask>
<g mask="url(#mask1_70_1039)">
<g opacity="0.88">
<path d="M201.8 131.7C201.7 131.7 201.5 131.7 201.4 131.7C201.4 131.8 201.5 131.8 201.8 131.7Z" fill="#322015"/>
<path d="M205.1 141.5L205.6 141.4C205.4 141.4 205.2 141.4 205.1 141.5Z" fill="#322015"/>
<path d="M197.1 134C197 134 197 134.1 196.9 134.2C197 134.1 197.1 134.1 197.1 134Z" fill="#322015"/>
<path d="M198.4 122.7C198.5 122.7 198.5 122.7 198.6 122.6C198.5 122.6 198.5 122.6 198.4 122.7Z" fill="#322015"/>
<path d="M197.3 122.5C197.3 122.4 197.3 122.4 197.2 122.4H197.1C197.1 122.5 197.2 122.5 197.3 122.5Z" fill="#322015"/>
<path d="M197 123L196.9 122.9C196.9 123 196.9 123 197 123Z" fill="#322015"/>
<path d="M189.7 122.2L189.3 122.5C189.4 122.4 189.6 122.3 189.7 122.2Z" fill="#322015"/>
<path d="M199 122.5C198.9 122.5 198.7 122.6 198.6 122.6C198.7 122.6 198.8 122.7 199 122.5Z" fill="#322015"/>
<path d="M202 131.6C201.9 131.6 201.9 131.7 201.8 131.7C201.9 131.7 201.9 131.7 202 131.6Z" fill="#322015"/>
<path d="M206.6 145.1C206.7 145.2 206.8 145.3 206.9 145.3C206.9 145 206.8 145 206.6 145.1Z" fill="#322015"/>
<path d="M198.8 125.5C197.6 126.3 198.6 125.2 197.4 125.9C197.8 125.9 198 125.9 197.4 126.4C196.6 126.7 197.3 126 196.2 126.5H196.7C196.3 127 195.3 127.2 195.5 127.3C197.1 126.7 195.3 128.3 195.7 128.4H195.5L195 129.1H194.9C195 129.1 195.1 129 195.2 129C194.6 129.5 194.2 130.1 194.5 130.3C195.4 130 195.3 131.1 196 130.9C195.7 130.9 195.7 130.8 195.8 130.5L196.8 130C196.9 130.3 195.9 130.5 196.6 130.5C197.9 129.7 196.4 130.1 196.4 129.8C196.7 129.7 197.1 129.7 197.3 129.7C197.1 129.3 197.4 128.6 195.9 129.1C196.1 128.8 196.7 128.6 196.9 128.6C196 128.7 197.6 128 196.7 128.1C198 127.5 197.7 128.4 198.5 128.2C197.7 129.1 198.9 129.1 199.3 129.4C198.4 129.9 197.4 130 197 130.4C196.6 131.1 197.7 130.5 198.4 130.5C198.2 131 196.9 131.3 197 131.8H196.3C195.1 132.7 196.9 131.8 196.8 132.1C197.1 131.9 197.5 131.7 197.3 131.5C197.8 131.2 198.1 131.3 198.2 131.4V131.3C198.9 131.1 199.6 130.8 199.4 131.2C198.5 131.4 198.9 131.7 198.6 132H198.4C198.8 132.1 198.8 132.4 199 132.4L198.8 132.5C199.2 132.5 200.2 132.1 200.1 132.4C199.7 132.6 198.5 132.8 198.8 133C198.2 133.2 198 133 198.1 132.6C198 132.9 197.1 133.5 196.9 133.3C196.2 133.7 197.4 133.4 197.1 133.7C197.3 133.6 197.6 133.5 197.8 133.4C196.8 133.9 198 134 198.7 133.7H198C198.8 133.3 199.5 133.4 199.9 133.1C198.7 133.8 200.9 133.6 199.9 134.2L200.5 133.8C200.4 134.6 202.1 134.4 202.7 134.8C202.2 134.8 200.8 135.4 201.1 134.8C201.1 135.5 199.8 135.6 199.1 136.1C198.8 136.8 200.5 135.7 201 135.7L200.6 135.5C202.4 135.2 200.8 136.8 202 136.9C201.6 137.1 201.7 136.9 201.5 136.9C200.8 137.5 201.8 137.1 202.2 137.1C202.2 137.4 202 137.9 200.8 138.2C200.7 138.6 201.4 137.9 201.8 137.9L201.6 138.1L202.9 137.9C202.7 138.3 202.2 138.9 201.3 139.4C201.8 139.9 203.8 138.6 204.4 138.9C204 139.4 203.6 139.2 203.2 139.3L203.5 139.7C202.3 140 202.7 139.5 201.4 140.1C202.9 139.9 202 140.4 203.1 140.5L203.2 140.4C204.2 140.2 203.8 141 204 141.2C203.4 141.3 203.2 141.1 202.9 140.9C202.6 141.4 203.3 142 204.7 141.7C204.6 142 204.2 142.5 203.6 142.5C203.6 143.2 205.5 142.1 205.3 142.7L204.4 143C203.3 144.1 206.1 143.7 205.1 144.7L206.2 144.3C205.8 144.6 205.6 144.9 205.2 145.2L204.7 145.1C203.8 145.7 205.7 145 205.2 145.6C205.5 145.5 206.2 144.9 206.6 144.8C205.5 143.9 206.7 142.1 205 141.3C204.9 141.4 204.7 141.5 204.5 141.6C204.7 141.4 204.3 141.2 204.9 141H205C204.6 140.8 205.9 139.9 205.8 139.8C205 140 205.9 139 204.6 139.7L205.3 139.1C204.8 139.2 204.2 139.5 203.9 139.5C203.9 139.2 204.4 139 204.8 139.1C205 138.1 204.4 137.2 203.6 136.5H204.3C204.5 136.2 202.9 136.2 204.5 135.7C203.7 135.6 204.4 134.4 202.8 135.1C204.2 134.1 203 133.8 202.6 133.3C201.3 134 202 133 201.3 133.2C202.3 132.6 202.6 133.2 203.3 132.8C201.4 133 203.7 130.6 200.9 131.7C201 131.6 201.1 131.5 201.2 131.5C201.2 131.4 201.5 131 201.6 130.8C201.1 131 201 131.3 200.7 131.1C200.7 130.8 201.5 130.6 201.8 130.3C201 130.2 200.4 129.7 199.3 130.2C199.5 129.9 200.1 129.5 200.4 129.5C199.2 129.3 200.2 128.8 199.4 128.4C199.6 128.6 200.6 127.9 200.3 128.5C201.7 127.5 199.5 127.7 200 126.7L198.9 127C198.6 126.8 199.5 126.3 199.9 126.3C200.2 125.4 199.5 125.5 199.2 125.1C199.3 125 199.5 124.9 199.5 125L199.2 124.4C198.9 124.5 198.3 124.5 197.7 124.9C198.6 125.1 199 125 198.8 125.5Z" fill="#322015"/>
<path d="M198 125.3L197.9 125.4C198 125.4 198 125.4 198 125.3Z" fill="#322015"/>
<path d="M196.5 132.7C196.7 132.5 196.8 132.4 196.8 132.4C196.8 132.5 196.6 132.6 196.5 132.7Z" fill="#322015"/>
<path d="M193.1 121.1C191.8 122.1 193.5 121.3 193.3 121.8C192.9 121.7 192.2 122.3 191.8 122.6C193.8 121.7 191.7 123.2 192.3 123.4C191.7 123.8 191.5 123.6 190.8 124C191.4 124 191.9 124.2 193 123.7C193.3 124.2 193.2 124.7 193.5 124.9C192.9 124.8 192.4 125.5 191.4 125.8C192.8 125.4 194.7 125.3 196.5 125C195.4 125.7 195.3 125.8 194.2 126.4C193.8 127.4 195.4 126 195.3 126.7L195.4 126.3C195.9 126.4 197 125.8 197.8 125.4L197.2 124.8C198 124.3 198.1 124.8 198.4 124.9C199.5 124.6 198.9 124.1 199.6 123.8C198.9 124.1 199 123.7 198.6 123.6L199 123.3C199.2 122.7 198.1 123.2 197.9 122.9C198 122.8 198.1 122.7 198.2 122.7C197.7 122.9 197 123.1 196.8 123L196.9 123.1C195.8 123.4 194.8 123.3 193.9 124.3L193.8 123.5C194.9 122.9 196.7 122 197 122.3L197.5 122.1C197.9 121.4 196.1 121.8 195.3 122.6C192.5 124 194.6 121.6 193.2 121.9C193.9 121.4 194.3 121.5 194.9 121.3C195.1 121.4 195.2 121.5 194.6 121.9C195.4 122.3 196.7 120.3 197 121.2C196.9 121.8 195.6 121.5 195.8 122.1L198 121.2C197.7 120.9 197.2 120.8 196.8 120.7C195.7 120.4 195.3 119.8 195.1 119.3C194.9 118.8 195 118.4 195 118.4C194.1 117.4 193.3 116.4 192.3 115.5L190.9 114.1C190.4 113.6 189.9 113.2 189.4 112.8C188.6 112.4 188.4 112.2 186.7 113.6C186.5 114.1 187 114.2 186.3 114.7C186.9 114.1 187.5 114 187.7 114.4C187.1 115 187.2 114.4 187.1 114.6V114.7C186.8 115 186.5 115.1 186.4 115.1C185.8 116.3 186.5 116.7 187.9 115.8C187.5 116.6 186.8 116.5 186.2 116.8C186.3 117.1 186.4 117.4 186.5 117.6C186.6 117.9 186.7 118.1 186.9 118.3C187.2 118.7 187.5 119.1 187.9 119.6C189.1 118.7 188.7 119.1 189.6 118.6L189.2 119C189.4 118.8 190.3 118.3 190.4 117.9C190 119.2 192.5 117.4 193.3 117.4L192.7 117.8C193.1 118.1 193.2 118.2 193.7 118.2C192.9 119.6 193.2 117.8 191.8 119.1H192.2C191.6 119.4 190.5 120.1 189.9 120.2C191.3 120 190 121.2 191.2 121.2C190.5 121.6 189.6 121.5 189.4 121.4C189.5 121.6 190.2 121.6 189.6 122.1L190.5 121.5C190.8 121.7 189.7 122 189.2 122.5C189.9 123.4 192.1 120.8 193.1 121.1Z" fill="#322015"/>
<path d="M197.6 130.1C197.6 130 197.5 129.9 197.4 129.8C197.5 129.9 197.5 130 197.6 130.1Z" fill="#322015"/>
<path d="M195 129.3C194.9 129.4 194.7 129.4 194.6 129.5C194.7 129.4 194.8 129.4 195 129.3Z" fill="#322015"/>
<path d="M193.6 129.8C194 129.5 194.1 129.6 194.6 129.4C194.2 129.5 194.1 129.2 193.6 129.8Z" fill="#322015"/>
<path d="M206.2 158.6C206.5 158.5 206.9 158.6 207.1 158.5L206.6 158.3L206.2 158.6Z" fill="#322015"/>
<path d="M207 157.4L207.2 156.9L205.8 157.2C205.9 157.6 206.8 157 207 157.4Z" fill="#322015"/>
<path d="M207.3 156L207.7 155.9C207.4 156 207.3 156 207.3 156Z" fill="#322015"/>
<path d="M206.7 156.3L205.7 156.6L206.6 156.8L206.7 156.5C207 156.4 207.1 156.2 207.3 156.1L206.5 156.2C206.6 156.2 206.8 156.2 206.7 156.3Z" fill="#322015"/>
<path d="M207.9 154.3C207.6 154.5 207 154.6 206.6 154.7C206.4 155.2 207.8 154.6 207.5 155.1C206.5 154.9 207 155.5 206.5 155.9C207.4 155.4 207.9 155 208 154.5L207.4 154.7C207.3 154.6 207.7 154.5 207.9 154.3Z" fill="#322015"/>
<path d="M205.7 153L206.7 152.9C206.3 153.1 206.4 153.6 205.5 153.9C205.7 154 206.1 153.9 206.4 153.9C206 154.2 205.6 154.4 206.4 154.3C206.8 153.4 207.1 153.5 207.1 152.8C207.3 152.7 207.3 152.8 207.3 152.9L207.7 152.3C206.6 152.9 206.3 152.4 205.7 153Z" fill="#322015"/>
<path d="M206.2 152.2C206.4 152.5 207.3 152.3 207.8 151.9L206.8 151.5C207 151.8 207.1 152 206.2 152.2Z" fill="#322015"/>
<path d="M206 151.8C206.4 151.5 207.4 150.9 206.4 151.1C206.7 151.3 205.2 151.7 206 151.8Z" fill="#322015"/>
<path d="M206.1 149.3L205.7 150.1C204.5 150.7 205.2 150 204.6 150C204.5 150.6 204.9 150.3 205.8 150.4C205.8 150.6 206.5 150.6 206.9 150.6C205.6 150.2 208.5 149 206.1 149.3Z" fill="#322015"/>
<path d="M205.3 150.9L205.8 150.8L205.3 150.7V150.9Z" fill="#322015"/>
<path d="M206.9 147.4C208.2 146.5 205.8 147 206.3 146.4C206.4 146.4 206.5 146.3 206.7 146.4L206.4 146.1L206.7 146C205.9 146.3 205.4 146.1 204.7 146.2C203.9 146.9 205.8 146 205 146.7C204.6 146.8 204 147 203.6 147C204.1 147 204.6 146.9 205.2 146.8C205.4 147 204.9 147.1 204.6 147.3C205.2 147.4 206.5 146.9 206.3 147.4C205.6 147.9 205.1 147.7 205.5 148C206.8 147.3 205.4 148.5 206.4 148.3C206.3 148.7 205.5 149.2 205 149.4C206.1 149 207.1 148.9 207.5 149L206.4 148.8L207.6 148.1C206.9 148 206.9 147.8 207 147.4H206.9Z" fill="#322015"/>
<path d="M204.6 149.5L204.3 149.4L203.9 149.7L204.6 149.5Z" fill="#322015"/>
<path d="M202.6 147C202.6 147.1 203 147 203 146.9L202.4 147H202.6Z" fill="#322015"/>
<path d="M203.2 146.3L203.9 145.9L203.3 146L203.2 146.3Z" fill="#322015"/>
<path d="M201 138.9C200.7 139.3 201.5 138.9 202.1 138.7C202.2 138.2 201.4 139 201 138.9Z" fill="#322015"/>
<path d="M198 134.9C197.6 135.4 198.5 135.3 198.6 135.5C198.9 135.1 198.5 134.9 198 134.9Z" fill="#322015"/>
<path d="M194.3 134.4C194.6 134.3 194.8 134.3 194.8 134.2L196.4 133.7C196.7 133.1 195 134.1 194.3 134.4Z" fill="#322015"/>
<path d="M193.1 132.5H193.8L193.7 132.3C194.3 132.1 194.6 132 195.2 131.9C194.8 131.8 194.1 131.9 193.1 132.5Z" fill="#322015"/>
<path d="M195.7 132.1L195.6 132C195.4 132.1 195.2 132.3 195.7 132.1Z" fill="#322015"/>
<path d="M195.4 131.9C195.3 131.9 195.3 131.9 195.2 131.9C195.3 131.9 195.4 131.9 195.5 132C195.7 131.9 195.7 131.8 195.4 131.9Z" fill="#322015"/>
<path d="M193.7 131.9L193.3 131.4L193.1 131.8C194 131.3 192.7 132.3 193.7 131.9Z" fill="#322015"/>
<path d="M192.9 128.5L193.7 128C193.7 127.5 191.6 128.2 192.8 127.2C192.4 127.7 191.7 127.5 191.7 128C192.6 127.7 193 128.2 192.9 128.5Z" fill="#322015"/>
<path d="M193.4 126.5C193.7 126.4 193.8 126.2 194 126C194 125.8 193.6 125.9 193.2 126.2C194.4 125.7 192.6 126.8 193.4 126.5Z" fill="#322015"/>
<path d="M192.3 124.9C192.4 125 192.6 125.1 192.7 124.8C192.5 124.5 191.6 125.2 190.9 125.4C190.6 126 192 125.4 192.3 124.9Z" fill="#322015"/>
<path d="M196.7 118.5C196 119 196.3 119.2 196.6 119.1C196.4 119.1 196.6 118.8 196.7 118.5Z" fill="#322015"/>
<path d="M191 122.4L190.9 122.6L192 121.9L191 122.4Z" fill="#322015"/>
<path d="M189.2 121.1L188.3 121.3L188.7 121.6L189.2 121.1Z" fill="#322015"/>
<path d="M189.1 120.6L188.8 120.3L188.6 120.6C188.5 120.9 189 120.5 189.1 120.6Z" fill="#322015"/>
<path d="M188.3 119.9C188.4 119.9 188.3 120 188.2 120.1L188.8 120L188.3 119.9Z" fill="#322015"/>
<path d="M188.2 112C188.8 111.4 188.2 111.6 188.3 111.4C188.1 111.5 187.6 112.4 188.2 112Z" fill="#322015"/>
</g>
</g>
<path d="M215 83C215 83 236.8 93.1 246.9 117.7C257 142.3 242.9 157.2 223.3 170.4C207.6 180.9 198.2 189.8 194.2 203C194.2 203 194.6 189.4 213.5 172.2C232.4 155 248.2 135.1 226.4 112.6C204.6 90.1 213.7 82.3 215 83Z" fill="#AA8C7D"/>
<path d="M45.7 31.6C45.7 31.6 56.8 77.7 59.6 87.3C62.4 96.9 70.4 123.7 87.1 136.6C103.8 149.5 129.9 144 150.1 129.2C166.9 117 179.9 110 189.5 114.9C191.5 115.9 193.4 117.5 195.1 119.6C205.1 131.8 205.1 154 212.5 163.6C219.9 173.2 242.6 182.7 253 190.9C253 190.9 259.7 227.4 259.3 228.3C258.9 229.3 253.6 228.1 250.4 229.3C247.2 230.4 247.1 236.1 247.1 236.1C247.1 236.1 260 236.1 261.6 236.1C263.1 236.1 265.7 232.2 266.4 230.4C267.1 228.6 265.7 187.7 265.4 186.3C265.1 184.9 240.8 160.1 240.5 159.3C240.4 158.9 242.2 148.1 241.9 134.9C241.6 124.3 240 112.1 235 102.5C223.6 81.1 199.4 74.4 172.6 73.6C145.8 72.7 107.7 66.1 93.5 60.5C93.5 60.5 73.6 26 70.6 19.4C67.6 12.8 40.4 9.79999 45.7 31.6Z" fill="#AA8C7D"/>
<path d="M251.5 236.1C251.5 236.1 251.7 233.2 253.2 232" stroke="#1B1C1E" stroke-width="1.2604" stroke-miterlimit="10" stroke-linecap="round" stroke-linejoin="round"/>
<path d="M255.7 236.1C255.7 236.1 255.9 233.2 257.4 232" stroke="#1B1C1E" stroke-width="1.2604" stroke-miterlimit="10" stroke-linecap="round" stroke-linejoin="round"/>
<path d="M60.7001 78.8C60.7001 78.8 60.7001 85.2 60.7001 95.2C60.7001 105.2 64.0001 116.4 71.4001 137.3L73.0001 211.2L66.8001 228.4C66.8001 228.4 59.7001 228.4 57.4001 229.4C54.8001 230.6 54.3001 232.5 54.1001 236.1C54.1001 236.1 71.3001 236.1 72.1001 236.1C72.9001 236.1 83.2001 210.5 83.2001 210.5C83.2001 210.5 83.8001 180.3 92.2001 154.9C93.8001 150.2 95.1001 145.7 96.2001 141.4C101.2 122.7 102.3 108.2 101.5 98L60.7001 78.8Z" fill="#AA8C7D"/>
<path d="M57.7001 32.7C57.7001 32.7 54.8001 34.6 46.3001 34C37.8001 33.4 22.2001 32.3 17.2001 32.3C12.3001 32.3 11.3001 31.3 7.20009 27.7C3.10009 24.1 2.00009 20.2 5.10009 19.1C8.20009 18 25.6001 14.7 26.3001 14.5C27.0001 14.3 30.1001 9.3 32.7001 7.7C35.3001 6.1 49.2001 2.2 54.9001 3.2C63.5001 4.8 69.3001 17.2 71.9001 22.1C74.5001 27.1 57.7001 32.7 57.7001 32.7Z" fill="#AA8C7D"/>
<path d="M2.00003 22.2C2.00003 22.2 3.50003 26 5.50003 26.4C7.50003 26.8 9.60003 24.6 10.2 22.2C10.8 19.8 9.70003 17.8 8.00003 18.1C6.80003 18.3 0.70003 19 2.00003 22.2Z" fill="#1B1C1E" stroke="#1B1C1E" stroke-width="1.818" stroke-miterlimit="10" stroke-linecap="round" stroke-linejoin="round"/>
<path d="M9 29.2C9 29.2 9.6 30.3 15.2 30.1C20.8 29.8 24.7 29.7 27.4 29.7C30.1 29.7 31.3 29.7 32.8 30.2" fill="#1B1C1E"/>
<path d="M9 29.2C9 29.2 9.6 30.3 15.2 30.1C20.8 29.8 24.7 29.7 27.4 29.7C30.1 29.7 31.3 29.7 32.8 30.2" stroke="#1B1C1E" stroke-width="1.2604" stroke-miterlimit="10" stroke-linecap="round" stroke-linejoin="round"/>
<path d="M57.1 2.49999C56.2 2.69999 55.3 3.89999 57.4 5.19999C59.5 6.49999 61.1 10.2 63.1 16.3C65.1 22.4 66.2 24.2 69.2 23.9C72.2 23.7 72.7 15.7 73.1 10.5C73.5 5.29999 72.1 1.39999 66.2 1.49999C60 1.69999 58.1 2.29999 57.1 2.49999Z" fill="#1B1C1E" stroke="#1B1C1E" stroke-width="1.818" stroke-miterlimit="10" stroke-linecap="round" stroke-linejoin="round"/>
<path d="M57.9 236.1C57.9 236.1 58.1 233.2 59.6 232" stroke="#1B1C1E" stroke-width="1.2604" stroke-miterlimit="10" stroke-linecap="round" stroke-linejoin="round"/>
<path d="M62.2001 236.1C62.2001 236.1 62.4001 233.2 63.9001 232" stroke="#1B1C1E" stroke-width="1.2604" stroke-miterlimit="10" stroke-linecap="round" stroke-linejoin="round"/>
<path d="M35.4882 15.2795C36.4111 15.1065 37.0354 14.3061 36.8827 13.4918C36.73 12.6776 35.8582 12.1578 34.9353 12.3308C34.0125 12.5038 33.3882 13.3042 33.5409 14.1185C33.6935 14.9327 34.5654 15.4525 35.4882 15.2795Z" fill="#1B1C1E"/>
<mask id="mask2_70_1039" style="mask-type:luminance" maskUnits="userSpaceOnUse" x="46" y="33" width="11" height="8">
<path d="M56.7001 33.2C52.8001 37.9 47.8001 40.5 47.8001 40.5C47.1001 37.8 46.6001 35.6 46.2001 34C52.1001 34.4 55.3001 33.7 56.7001 33.2Z" fill="white"/>
</mask>
<g mask="url(#mask2_70_1039)">
<g opacity="0.88">
<path d="M53.1001 34.1999V33.9999C53.0001 34.0999 53.0001 34.1999 53.1001 34.1999Z" fill="#322015"/>
<path d="M48.8001 35.9999C48.8001 36.0999 48.7001 36.0999 48.7001 36.2999L48.8001 35.9999Z" fill="#322015"/>
<path d="M54.5001 33.7L54.6001 33.6C54.5001 33.5 54.5001 33.6 54.5001 33.7Z" fill="#322015"/>
<path d="M46.6001 34.3999C46.6001 35.0999 46.5001 34.3999 46.4001 35.0999C46.5001 34.9999 46.6001 34.8999 46.6001 35.1999C46.5001 35.5999 46.4001 35.0999 46.4001 35.6999L46.5001 35.4999C46.5001 35.7999 46.4001 36.1999 46.5001 36.1999C46.7001 35.4999 46.8001 36.4999 46.9001 36.3999V36.4999L47.1001 36.8999V36.7999C47.1001 37.1999 47.3001 37.4999 47.4001 37.3999C47.5001 36.9999 47.9001 37.2999 48.0001 36.8999C47.9001 36.9999 47.9001 36.9999 47.8001 36.8999V36.3999C47.9001 36.3999 47.8001 36.8999 47.9001 36.5999C47.9001 35.8999 47.7001 36.5999 47.6001 36.4999C47.6001 36.2999 47.7001 36.1999 47.7001 36.0999C47.5001 36.0999 47.3001 35.7999 47.2001 36.4999C47.2001 36.2999 47.2001 36.0999 47.2001 35.9999C47.0001 36.3999 47.1001 35.5999 47.0001 35.9999C47.1001 35.2999 47.3001 35.6999 47.4001 35.2999C47.5001 35.7999 47.8001 35.2999 48.0001 35.2999C48.0001 35.7999 47.9001 36.1999 47.9001 36.4999C48.1001 36.7999 48.1001 36.2999 48.2001 35.9999C48.3001 36.1999 48.2001 36.7999 48.4001 36.7999L48.3001 37.0999C48.4001 37.7999 48.4001 36.7999 48.5001 36.9999C48.5001 36.7999 48.5001 36.5999 48.3001 36.6999C48.3001 36.3999 48.4001 36.2999 48.4001 36.2999C48.4001 35.9999 48.4001 35.5999 48.6001 35.7999C48.5001 36.1999 48.7001 36.0999 48.8001 36.2999V36.3999C48.9001 36.2999 49.0001 36.2999 49.1001 36.1999V36.2999C49.2001 36.0999 49.2001 35.5999 49.3001 35.6999C49.3001 35.8999 49.2001 36.4999 49.3001 36.3999C49.3001 36.6999 49.2001 36.6999 49.1001 36.5999C49.2001 36.6999 49.3001 37.1999 49.2001 37.1999C49.3001 37.5999 49.3001 36.9999 49.4001 37.1999C49.4001 37.0999 49.4001 36.9999 49.4001 36.7999C49.4001 37.2999 49.7001 36.7999 49.6001 36.4999L49.5001 36.7999C49.5001 36.3999 49.6001 36.0999 49.5001 35.8999C49.6001 36.4999 49.8001 35.5999 49.9001 36.0999L49.8001 35.7999C50.1001 35.9999 50.2001 35.1999 50.4001 34.9999C50.3001 35.1999 50.4001 35.8999 50.2001 35.6999C50.5001 35.7999 50.4001 36.3999 50.5001 36.6999C50.7001 36.8999 50.5001 35.9999 50.5001 35.7999L50.4001 35.8999C50.4001 35.0999 50.9001 35.9999 51.1001 35.4999C51.2001 35.6999 51.1001 35.5999 51.0001 35.6999C51.2001 36.0999 51.1001 35.5999 51.1001 35.3999C51.2001 35.4999 51.4001 35.5999 51.5001 36.0999C51.7001 36.1999 51.4001 35.7999 51.5001 35.5999V35.6999V35.0999C51.6001 35.1999 51.9001 35.4999 52.0001 35.9999C52.3001 35.7999 51.8001 34.7999 52.0001 34.5999C52.2001 34.7999 52.1001 34.9999 52.1001 35.1999L52.3001 35.0999C52.4001 35.6999 52.2001 35.3999 52.3001 36.0999C52.3001 35.3999 52.5001 35.8999 52.5001 35.3999V35.2999C52.5001 34.7999 52.7001 35.0999 52.8001 34.9999C52.8001 35.2999 52.7001 35.2999 52.7001 35.4999C52.9001 35.6999 53.2001 35.3999 53.1001 34.7999C53.2001 34.8999 53.4001 34.9999 53.4001 35.2999C53.7001 35.2999 53.2001 34.3999 53.5001 34.4999L53.6001 34.8999C54.1001 35.3999 53.9001 34.1999 54.3001 34.6999L54.1001 34.1999C54.2001 34.3999 54.4001 34.4999 54.5001 34.6999V34.8999C54.8001 35.2999 54.5001 34.3999 54.7001 34.6999C54.6001 34.4999 54.4001 34.1999 54.3001 33.9999C53.9001 34.4999 53.2001 33.8999 52.9001 34.5999C52.9001 34.6999 53.0001 34.6999 53.0001 34.7999C52.9001 34.6999 52.8001 34.8999 52.8001 34.5999C52.7001 34.7999 52.4001 34.0999 52.3001 34.0999C52.4001 34.4999 52.0001 33.9999 52.2001 34.5999L52.0001 34.1999C52.0001 34.3999 52.1001 34.6999 52.1001 34.8999C52.0001 34.8999 51.9001 34.5999 52.0001 34.3999C51.6001 34.1999 51.2001 34.3999 50.9001 34.6999V34.3999C50.8001 34.2999 50.7001 34.9999 50.6001 34.1999C50.5001 34.4999 50.1001 33.9999 50.2001 34.8999C50.0001 34.0999 49.8001 34.5999 49.5001 34.7999C49.6001 35.4999 49.3001 34.9999 49.3001 35.3999C49.2001 34.8999 49.4001 34.7999 49.4001 34.4999C49.2001 35.3999 48.7001 33.8999 48.7001 35.2999C48.7001 35.1999 48.7001 35.1999 48.7001 35.0999C48.7001 35.0999 48.6001 34.8999 48.5001 34.7999C48.5001 34.9999 48.6001 35.0999 48.5001 35.1999C48.4001 35.1999 48.4001 34.7999 48.4001 34.5999C48.3001 34.8999 48.0001 35.0999 48.0001 35.5999C47.9001 35.4999 47.9001 35.0999 47.9001 34.9999C47.6001 35.3999 47.6001 34.8999 47.4001 35.1999C47.5001 35.1999 47.5001 34.5999 47.6001 34.7999C47.5001 33.9999 47.2001 34.8999 47.0001 34.4999L46.9001 34.9999C46.8001 35.0999 46.8001 34.5999 46.9001 34.3999C46.7001 34.0999 46.6001 34.3999 46.4001 34.3999C46.4001 34.2999 46.4001 34.1999 46.4001 34.2999H46.2001C46.2001 34.3999 46.1001 34.6999 46.0001 34.9999C46.4001 34.3999 46.5001 34.1999 46.6001 34.3999Z" fill="#322015"/>
<path d="M48.7001 36.9C48.7001 36.8 48.6001 36.7 48.6001 36.7C48.6001 36.8 48.6001 36.9 48.7001 36.9Z" fill="#322015"/>
<path d="M47.9002 35.9H47.8002C47.8002 36 47.8002 36 47.9002 35.9Z" fill="#322015"/>
<path d="M46.9001 37.4999C46.9001 37.2999 46.9002 37.2999 47.0002 36.9999C46.9002 37.1999 46.7001 37.1999 46.9001 37.4999Z" fill="#322015"/>
<path d="M56.2001 33.9L56.6001 34.1C56.9001 34.6 56.6001 34.3 56.6001 34.6C56.9001 34.6 56.7001 34.5 56.7001 34.1C56.8001 34.1 56.7001 33.8 56.7001 33.6C56.6001 34.1 56.0001 32.8 56.2001 33.9Z" fill="#322015"/>
<path d="M55.4002 33.5999C55.0002 32.9999 55.3002 34.0999 55.0002 33.8999C55.0002 33.8999 55.0002 33.7999 55.0002 33.6999L54.9002 33.7999L54.8002 33.6999C55.0002 34.0999 54.9002 34.2999 54.9002 34.5999C55.2002 34.9999 54.8002 34.0999 55.1002 34.4999C55.1002 34.6999 55.2002 34.9999 55.3002 35.0999C55.3002 34.8999 55.2002 34.5999 55.2002 34.3999C55.3002 34.2999 55.3002 34.5999 55.4002 34.6999C55.4002 34.3999 55.2002 33.7999 55.4002 33.8999C55.6002 34.1999 55.6002 34.4999 55.7002 34.1999C55.3002 33.5999 55.9002 34.1999 55.8002 33.7999C56.0002 33.8999 56.2002 34.1999 56.3002 34.3999C56.1002 33.8999 56.0002 33.4999 56.0002 33.2999V33.7999L55.7002 33.2999C55.7002 33.6999 55.6002 33.6999 55.4002 33.5999Z" fill="#322015"/>
<path d="M56.4001 34.6V34.8L56.5002 34.9L56.4001 34.6Z" fill="#322015"/>
<path d="M55.3001 35.4999C55.3001 35.4999 55.3001 35.2999 55.2001 35.2999L55.3001 35.4999Z" fill="#322015"/>
<path d="M55.1002 35.2L54.9001 34.9V35.2H55.1002Z" fill="#322015"/>
<path d="M51.8002 35.8999C51.9002 36.0999 51.8002 35.6999 51.8002 35.3999C51.6002 35.2999 51.9002 35.6999 51.8002 35.8999Z" fill="#322015"/>
<path d="M49.8002 36.7C50.0002 37 50.0002 36.5 50.1002 36.5C50.0002 36.3 49.9002 36.5 49.8002 36.7Z" fill="#322015"/>
<path d="M49.0001 38.2C49.0001 38.1 49.1001 38 49.0001 37.9L49.1001 37.1C48.9001 36.9 49.0001 37.9 49.0001 38.2Z" fill="#322015"/>
<path d="M47.9001 38.2999L48.1001 37.9999H48.0001C48.0001 37.6999 48.1001 37.5999 48.1001 37.2999C48.0001 37.4999 47.8001 37.7999 47.9001 38.2999Z" fill="#322015"/>
<path d="M48.1001 37.2C48.1001 37.3 48.1001 37.3 48.1001 37.2C48.1001 37.3 48.2001 37.3 48.1001 37.2C48.2001 37.2 48.2001 37.1 48.1001 37.2Z" fill="#322015"/>
<path d="M47.7001 37.9L47.4001 38L47.5002 38.1C47.6002 37.7 47.7001 38.4 47.7001 37.9Z" fill="#322015"/>
</g>
</g>
<path d="M240.5 159.4C240.4 159 242.2 148.2 241.9 135C241.6 124.4 240 112.2 235 102.6" stroke="#1B1C1E" stroke-width="1.2604" stroke-miterlimit="10" stroke-linecap="round" stroke-linejoin="round"/>
<path d="M72.2001 236.1C73.1001 236.1 83.3001 210.5 83.3001 210.5C83.3001 210.5 83.9001 180.3 92.3001 154.9C93.9001 150.2 95.2001 145.7 96.3001 141.4" stroke="#1B1C1E" stroke-width="1.2604" stroke-miterlimit="10" stroke-linecap="round" stroke-linejoin="round"/>
<path d="M96.3 141.5C101.3 122.8 102.4 108.3 101.6 98.1" stroke="#1B1C1E" stroke-width="1.2604" stroke-miterlimit="10" stroke-linecap="round" stroke-linejoin="round"/>
<path d="M189.6 114.9C191.6 115.9 193.5 117.5 195.2 119.6C205.2 131.8 205.2 154 212.6 163.6C220 173.2 242.7 182.7 253.1 190.9C253.1 190.9 259.8 227.4 259.4 228.3" stroke="#1B1C1E" stroke-width="1.2604" stroke-miterlimit="10" stroke-linecap="round" stroke-linejoin="round"/>
</svg>
