<svg width="236" height="182" viewBox="0 0 236 182" fill="none" xmlns="http://www.w3.org/2000/svg">
<path d="M167.5 49.2C167.5 49.2 140.7 4.19997 134.6 0.699972C128.5 -2.80003 81.6 46.3 80.9 49.2C80.3 52.1 95.7 65.6 95.7 65.6C95.7 65.6 137.4 50.5 167.5 49.2Z" fill="#FF510C"/>
<path d="M149.5 41.6C149.5 41.6 140.3 20.8 135.4 17" stroke="#1B1C1E" stroke-miterlimit="10"/>
<path d="M139 44.4C139 44.4 130.3 29.3 124.2 23" stroke="#1B1C1E" stroke-miterlimit="10"/>
<path d="M127.6 47.6C127.6 47.6 117.7 34.3 113.5 32.2" stroke="#1B1C1E" stroke-miterlimit="10"/>
<path d="M115.2 51.7C115.2 51.7 107.3 43.3 103.8 41.6" stroke="#1B1C1E" stroke-miterlimit="10"/>
<path d="M103.8 56C103.8 56 98.2 50.4 95 49.6" stroke="#1B1C1E" stroke-miterlimit="10"/>
<mask id="mask0_70_685" style="mask-type:luminance" maskUnits="userSpaceOnUse" x="80" y="0" width="88" height="66">
<path d="M167.5 49.2C167.5 49.2 140.7 4.19997 134.6 0.699972C128.5 -2.80003 81.6 46.3 80.9 49.2C80.3 52.1 95.7 65.6 95.7 65.6C95.7 65.6 137.4 50.5 167.5 49.2Z" fill="white"/>
</mask>
<g mask="url(#mask0_70_685)">
<g opacity="0.78">
<path d="M125.7 58.8C125.6 58.6 125.4 58.5 125.3 58.3C125.4 58.2 125.5 58.4 125.7 58.8Z" fill="#4B1804"/>
<path d="M142 53.3C142.1 53.4 142.1 53.4 142.1 53.5L142 53.3Z" fill="#4B1804"/>
<path d="M142.1 53.5L142.4 54.2C142.1 53.9 142.1 53.7 142.1 53.5Z" fill="#4B1804"/>
<path d="M122.9 54.7C122.7 54.6 122.5 54.4 122.2 54L122.9 54.7Z" fill="#4B1804"/>
<path d="M109.9 64.3C109.8 64.4 109.7 64.4 109.6 64.4L109.5 64.3C109.6 64.1 109.8 64.2 109.9 64.3Z" fill="#4B1804"/>
<path d="M99.8 58.1L99.5 57.4C99.7 57.7 99.7 57.9 99.8 58.1Z" fill="#4B1804"/>
<path d="M111.9 65.8C111.8 65.7 111.7 65.5 111.5 65.3C111.7 65.4 111.9 65.4 111.9 65.8Z" fill="#4B1804"/>
<path d="M125.8 59.1C125.8 59 125.7 58.9 125.7 58.8C125.8 58.9 125.8 59 125.8 59.1Z" fill="#4B1804"/>
<path d="M148.4 52.5C148.6 52.5 148.7 52.6 148.9 52.7C148.6 53 148.5 52.8 148.4 52.5Z" fill="#4B1804"/>
<path d="M115.1 62.2C114.6 60.1 114.5 62.3 113.9 60.4C114.3 60.7 114.7 61 114.5 59.9C113.9 58.9 113.9 60.2 113.2 58.6L113.9 59.1C113.9 58.2 113.1 57 113.4 57C114.5 59.2 114.5 55.7 115 55.9L114.8 55.7L115.1 54.4V54.3C115.2 54.4 115.2 54.6 115.3 54.7C115.2 53.5 115.5 52.5 116.1 52.6C116.7 53.8 118 52.5 118.6 53.5C118.3 53.2 118.1 53.3 117.9 53.7L118.4 55.3C118.9 55.1 118 53.8 118.8 54.6C119.3 56.8 118.1 54.8 117.8 55.2C118.1 55.7 118.4 56 118.7 56.2C118 56.5 117.5 57.5 116.3 55.5C116.2 56 116.6 56.9 116.8 57.1C115.9 56 116.8 58.4 116 57.4C116.8 59.3 117.4 58.1 118.2 59.1C118.4 57.3 119.7 58.5 120.6 58.6C120.2 57.1 119.3 56 119.3 55.1C119.8 53.9 120.3 55.7 121 56.4C121.4 55.7 120.3 53.9 121.2 53.6L120.4 52.8C120.3 50.6 121.1 53.5 121.4 53C121.4 53.6 121.6 54.1 121.1 54.2C121.3 55 121.7 55.2 121.9 55.2L121.8 55.3C122.3 56.3 122.6 57.3 123 56.7C122.3 55.6 123.2 55.6 123.1 55L122.9 54.8C123.4 55.1 123.8 54.8 124.1 55L124 54.7C124.4 55.1 125 56.6 125.3 56.2C125.1 55.6 124.1 54.1 124.7 54.2C124.4 53.3 123.8 53.4 123.5 53.8C123.8 53.3 123.6 51.8 123.1 51.8C122.9 50.6 123.7 52.2 123.9 51.5C123.9 51.9 124.1 52.3 124.2 52.6C123.8 51 125.2 52.2 125.5 53.3L124.7 52.6C125 53.9 125.9 54.5 125.9 55.3C125.6 53.2 127.5 55.9 127.4 54.1L127.5 55.2C128.4 54.3 129.9 56.4 131.1 56.6C130.6 56.1 130 53.8 129.5 54.8C130.4 54.1 129.2 52.5 129.3 51.4C129.9 50.4 130.2 53.4 130.7 54L130 53.7C131.3 56.1 131.9 52.6 133.4 54C133.3 53.3 133.1 53.7 132.9 53.5C133.1 52 133.4 53.7 133.9 54.1C134.4 53.8 134.8 53 134.1 51.5C134.6 51 134.3 52.5 134.7 52.9V52.5L135.7 54.2C136.1 53.6 136.5 52.5 136.3 51C137.5 51.1 137.5 54.6 138.5 55C138.8 54.1 138.1 53.8 138 53.2H138.8C138.2 51.4 137.7 52.5 137.3 50.3C138.4 52.3 138.3 50.7 139.4 52V52.2C140.1 53.6 140.7 52.4 141.2 52.6C140.8 51.8 140.3 51.8 139.9 51.5C140.3 50.7 141.8 51.1 142.6 52.9C142.9 52.6 143.4 51.7 142.8 51C143.9 50.5 143.8 53.6 144.6 52.9L144.3 51.5C145 49.2 146.7 53 147.3 50.9L147.6 52.6C147.7 51.8 148.1 51.4 148 50.7L147.4 50.2C147.6 48.6 148.1 51.5 148.5 50.4C148.6 50.9 148.3 52.2 148.4 52.8C146.1 52.2 144.5 55 142.1 53.6C142.1 53.4 142.2 53.1 142.1 52.8C141.9 53.3 141.4 52.9 141.7 53.8L141.8 53.9C141.2 53.6 141.1 55.9 140.8 55.9C140.3 54.8 139.8 56.6 139.6 54.5L139.5 55.9C139.2 55.2 139.1 54.2 138.8 53.8C138.5 54 138.6 54.9 139 55.3C137.7 56.4 136 56.5 134.4 56.2L135 57.1C134.8 57.7 133.3 55.7 134.2 58.1C133.3 57.3 132.4 59.3 131.8 56.8C131.9 59.4 130.3 58.3 129.3 58.2C128.9 56 128.3 57.8 127.8 56.9C128.1 58.6 129.1 58.4 129.4 59.5C127.7 57.2 127.1 62.1 125.5 58C125.4 58.2 125.5 58.4 125.6 58.5C125.4 58.6 125.3 59.4 125.2 59.6C124.9 58.9 125.2 58.4 124.7 58.3C124.4 58.6 124.9 59.7 124.9 60.3C123.9 59.5 122.7 59.4 122.1 57.8C122 58.3 122.1 59.3 122.4 59.6C120.9 58.6 121.4 60.2 120 59.7C120.4 59.6 120.7 61.4 121.1 60.6C121.4 63.1 119.2 60.7 118.7 62.2L117.9 60.8C117.3 60.7 117.7 62.2 118.2 62.6C117.6 63.8 116.8 63 116.1 63.3C116.1 63.5 116.2 63.8 116.3 63.7L115.3 64.1C115.1 63.8 114.5 63.1 114.2 62.1C114.3 62.5 114.7 63 115.1 62.2Z" fill="#4B1804"/>
<path d="M113.9 61.7L113.8 61.5C113.9 61.6 113.9 61.6 113.9 61.7Z" fill="#4B1804"/>
<path d="M121.4 52.1C121.4 52.5 121.4 52.7 121.3 52.8C121.3 52.6 121.3 52.4 121.4 52.1Z" fill="#4B1804"/>
<path d="M103.3 62.3C102.6 60 104.1 62.4 104.3 61.7C103.7 61.5 103.4 60.1 103.2 59.4C104.8 62.2 103.6 58.6 104.9 58.9C104.6 57.9 104.1 57.9 103.6 56.9C104.4 57.5 105.4 57.6 106.1 59.2C107 58.9 107.5 58.1 108.1 58.2C107.2 57.8 107.4 56.6 106.4 55.3C107.7 57 110 58.8 111.8 60.9C111.3 59 111.3 58.8 110.6 57.2C111.3 55.6 111.5 58.8 112.4 57.9L112 58.4C112.7 58.8 113.3 60.5 113.8 61.7L112.5 61.8C112.9 63.1 113.6 62.6 114 62.9C114.9 64.3 113.7 64.2 114.2 65.3C113.7 64.4 113.3 64.8 112.9 64.5L113.1 65.2C112.8 66.1 111.9 64.5 111.4 64.7C111.4 64.9 111.5 65.1 111.5 65.2C111.1 64.5 110.6 63.6 110.2 63.5H110.5C109.5 62 108.1 61.4 108.2 59.4L107.1 60.3C107.8 62 109 64.6 109.8 64.6L110.1 65.3C109.9 66.5 108.1 64.5 108 62.8C106 58.7 106 63.3 104.5 61.9C104.8 63.1 105.5 63.4 106 64.1C106.3 64.1 106.5 64.1 106.2 63.1C107.6 63.3 107.2 66.8 108.4 66C108.8 65.2 107 64.4 107.9 63.9L109.7 66.9C109.1 67 108.4 66.7 107.8 66.5C106.1 65.9 105 66.2 104.3 66.7C103.6 67.2 103.3 67.8 103.3 67.8C99.3 68.8 95.4 70 91.5 71.2C90.1 71.2 89.8 71.6 88 68.7C88 68 88.8 67.9 88.1 67C88.7 68.1 89.4 68.5 90 68.2C89.6 67 89.2 67.9 89.3 67.6L89.4 67.5C89.1 67 88.8 66.6 88.6 66.7C88.6 64.7 90.1 64.5 91.5 66.5C91.6 65.1 90.4 64.9 89.7 64.1C91.4 62.4 92.9 62 94.9 61.1C95.7 63.1 95.6 62.3 96.4 63.6L96.3 62.8C96.4 63.2 97.2 64.5 96.9 65.1C97.5 63.1 99.3 67.2 100.4 67.8L99.9 66.8C100.6 66.7 100.8 66.7 101.6 67C101.9 64.6 100.5 67 99.9 64.4L100.4 64.7C99.9 63.8 99 62.1 98.4 61.5C100.1 62.8 99.6 60.3 101.3 61.2C100.7 60.1 99.4 59.5 99.1 59.5C99.4 59.2 100.4 59.8 100.1 58.7L100.7 60.1C101.4 60 100.1 58.8 100 57.8C101.4 56.8 101.6 61.9 103.3 62.3Z" fill="#4B1804"/>
<path d="M119.2 56.1C119 56.3 118.9 56.3 118.7 56.2C118.8 56.1 119 56 119.2 56.1Z" fill="#4B1804"/>
<path d="M115.1 54.3C115 54.1 114.9 53.9 114.9 53.8C115 53.8 115 54 115.1 54.3Z" fill="#4B1804"/>
<path d="M114.1 52.3C114.2 53 114.4 52.9 114.8 53.8C114.5 53.3 114 53.5 114.1 52.3Z" fill="#4B1804"/>
<path d="M167.5 44.8L166.9 45.4L166.4 43.3C167.1 43.3 166.8 44.8 167.5 44.8Z" fill="#4B1804"/>
<path d="M165.7 46L165.9 46.5C165.7 46.3 165.6 46.1 165.7 46Z" fill="#4B1804"/>
<path d="M165.6 45.1L165.3 43.6L166.2 44.7L165.9 45C165.9 45.5 165.7 45.8 165.7 46L165.4 44.9C165.4 45 165.6 45.3 165.6 45.1Z" fill="#4B1804"/>
<path d="M163.4 47.9C163.5 47.3 163.2 46.5 163.1 45.9C163.7 45.3 163.8 47.6 164.4 46.8C163.5 45.6 164.7 45.9 165 45C164.9 46.4 164.6 47.4 163.9 47.9L163.8 46.9C163.4 46.9 163.6 47.5 163.4 47.9Z" fill="#4B1804"/>
<path d="M159.9 45.8L160.5 47.2C160.5 46.5 161.4 46.4 161.2 45C161.5 45.2 161.6 45.8 161.8 46.2C162 45.4 162.1 44.8 162.5 45.9C161.3 47 161.7 47.3 160.7 47.8C160.7 48.1 160.9 48.1 161 48L160.4 48.8C160.2 47 159.3 47 159.9 45.8Z" fill="#4B1804"/>
<path d="M158.9 47C159.5 47 159.9 48.4 159.7 49.3L158.5 48.3C158.8 48.2 159.2 48.4 158.9 47Z" fill="#4B1804"/>
<path d="M158.1 47C157.9 47.8 157.7 49.4 157.2 48C157.9 48.2 157.4 46 158.1 47Z" fill="#4B1804"/>
<path d="M154.3 48.8L155.3 47.7C155.3 45.8 154.7 47.2 154.3 46.4C155.2 45.9 155 46.5 155.8 47.6C156.1 47.5 156.6 48.4 156.9 48.9C155.3 47.5 155.7 52.1 154.3 48.8Z" fill="#4B1804"/>
<path d="M156.2 46.6L156.4 47.4L155.9 46.9L156.2 46.6Z" fill="#4B1804"/>
<path d="M152 51.2C151.7 53.5 150.6 50.1 150 51.2C150.1 51.3 150.1 51.5 150.3 51.8L149.7 51.7V52.2C149.5 50.9 148.8 50.4 148.4 49.4C148.8 47.9 149 51 149.3 49.4C149.1 48.8 148.8 47.9 148.6 47.4C149.1 48 149.3 48.8 149.6 49.5C150 49.6 149.8 48.8 149.8 48.3C150.4 49 150.7 51 151.3 50.4C151.6 49.2 150.8 48.6 151.6 49C151.5 51.2 152.3 48.6 152.8 49.9C153.3 49.4 153.5 48.1 153.3 47.3C153.5 48.9 154.2 50.3 154.6 50.7L153.5 49.5L153.4 51.5C152.8 50.7 152.4 50.9 151.9 51.2H152Z" fill="#4B1804"/>
<path d="M148.6 47.3C148.5 47.2 148.4 47.1 148.3 47C148.4 47 148.5 47.1 148.6 47.3Z" fill="#4B1804"/>
<path d="M153.4 46.7L153.1 46.3L153.2 45.8L153.4 46.7Z" fill="#4B1804"/>
<path d="M147.9 46C148 45.9 148.2 46.6 148 46.6L147.7 45.7L147.9 46Z" fill="#4B1804"/>
<path d="M147.5 47.4L147.4 48.5L147 47.7L147.5 47.4Z" fill="#4B1804"/>
<path d="M134.5 51C134.8 50.2 135 51.6 135.3 52.5C134.8 52.9 135.1 51.4 134.5 51Z" fill="#4B1804"/>
<path d="M125.9 51.4C126.1 50.4 126.9 51.6 127.3 51.4C127.1 52.2 126.5 52 125.9 51.4Z" fill="#4B1804"/>
<path d="M121.3 48.1C121.5 48.5 121.8 48.6 121.5 48.9L122.6 51.1C122.1 51.9 121.5 49 121.3 48.1Z" fill="#4B1804"/>
<path d="M117.2 48.9L118.1 49.6L117.8 49.8C118.2 50.7 118.5 51.1 118.9 51.7C118.3 51.3 117.6 50.6 117.2 48.9Z" fill="#4B1804"/>
<path d="M119.6 51.9C119.5 51.9 119.4 51.9 119.3 51.8C119.3 51.5 119.2 51.2 119.6 51.9Z" fill="#4B1804"/>
<path d="M119 51.9C118.9 51.8 118.9 51.7 118.8 51.7C118.9 51.8 119.1 51.8 119.2 51.9C119.3 52 119.3 52.2 119 51.9Z" fill="#4B1804"/>
<path d="M117 50.1L115.8 50.2L116.1 49.6C116.6 51 116.4 48.7 117 50.1Z" fill="#4B1804"/>
<path d="M111.6 53.1L111.9 54.5C111.3 55 109.5 52.4 109.8 54.7C109.8 53.8 108.7 53.4 109.4 52.7C110.2 53.8 111.2 53.6 111.6 53.1Z" fill="#4B1804"/>
<path d="M109.7 56C109.9 56.4 109.9 56.7 109.9 57.1C109.7 57.3 109.2 56.8 109.2 56.2C110 57.9 109.1 55 109.7 56Z" fill="#4B1804"/>
<path d="M106.5 56.9C106.7 56.9 107 56.9 106.9 57.3C106.3 57.4 105.9 55.8 105.3 55C105.4 54.1 106.6 56.1 106.5 56.9Z" fill="#4B1804"/>
<path d="M101.7 58.9L101.8 58.6L102.6 60.3L101.7 58.9Z" fill="#4B1804"/>
<path d="M97.8 59.3L96.9 58.4L97.7 58.3L97.8 59.3Z" fill="#4B1804"/>
<path d="M97.2 59.9L96.6 60V59.5C96.8 59 97 59.9 97.2 59.9Z" fill="#4B1804"/>
<path d="M95.3 60.3C95.4 60.4 95.4 60.2 95.4 60L96.2 60.5L95.3 60.3Z" fill="#4B1804"/>
</g>
</g>
<path d="M220 127.1C206.6 136.9 190.9 139.6 183.5 139.9C183.5 139.9 173.4 135.9 169.3 122.6C168.8 122.8 152.5 129.9 123.2 125.9C103 123.1 91.2 109.2 90.4 108.3C86.9 103.1 80 102.3 80 102.3C67.1 148.6 33.4 148.9 31.8 148.5C30.2 148 31.5 139.6 37.9 122.3C44.3 104.9 37.6 100.1 27.3 67.7C17 35.2 -5.2 16.6 1.6 17.2C8.4 17.8 44.3 25.6 61.7 51C75.9 71.8 71.2 72.6 93.8 64C98.8 62.1 105.1 59.8 113.2 57.1C132.3 50.8 150.5 47.7 166.9 47.8C189.1 47.9 208 53.8 221.9 65.5C245.8 85.6 235 116 220 127.1Z" fill="#FF510C"/>
<path d="M183.4 139.9C176 140.2 154.4 151.6 124.3 146.7C100.6 142.8 94.9 123.2 91.8 111.7C91.5 110.4 91 109.3 90.3 108.4C91 109.3 102.9 123.2 123.1 126C152.4 130 168.6 123 169.2 122.7C173.3 135.9 183.4 139.9 183.4 139.9Z" fill="white"/>
<path d="M214.8 104.8C217.617 104.8 219.9 101.979 219.9 98.5C219.9 95.0206 217.617 92.2 214.8 92.2C211.983 92.2 209.7 95.0206 209.7 98.5C209.7 101.979 211.983 104.8 214.8 104.8Z" fill="#000A0E"/>
<path d="M106.6 137.4C100.4 135.4 88.6 133.8 80.7 135.5C72.8 137.2 58.2 171.9 63.1 175.8C68 179.7 114.3 143 114.7 142.2C115.2 141.3 108.9 138.1 106.6 137.4Z" fill="#FF510C"/>
<path d="M90.4 108.3C90.3 108.2 90.3 108.2 90.4 108.3Z" stroke="#1B1C1E" stroke-miterlimit="10"/>
<path d="M151 71.7C151 71.7 143.6 72.7 141.7 80.2C139.3 89.5 148.6 93.8999 148.6 93.8999C148.6 93.8999 140.9 95.6 140.1 102.7C139.3 109.8 145.6 112.5 145.6 112.5C145.6 112.5 138 116.8 145.6 122.6" stroke="#1B1C1E" stroke-miterlimit="10"/>
<path d="M126.3 84.3C126.3 84.3 120.5 86.2 119.8 91.4C118.8 98.6 124.2 101.2 124.2 101.2C124.2 101.2 118.9 103.4 119.8 109.1C120.6 114.8 126.3 115.8 126.3 115.8" stroke="#1B1C1E" stroke-miterlimit="10"/>
<path d="M71.9 78.3C71.9 78.3 64.2 74.7 53.9 63.7C43.6 52.8 32.4 46 32.4 46" stroke="#1B1C1E" stroke-miterlimit="10"/>
<path d="M71.9 88.3999C71.9 88.3999 60.7 83.8999 53.6 80.3999C46.5 76.8999 42 76.2 42 76.2" stroke="#1B1C1E" stroke-miterlimit="10"/>
<path d="M73.2 94C73.2 94 58.4 103.9 49.4 101.6" stroke="#1B1C1E" stroke-miterlimit="10"/>
<path d="M69.3 104.8C69.3 104.8 65.3 119 49.4 127" stroke="#1B1C1E" stroke-miterlimit="10"/>
<path d="M149.5 53.7C145.3 52.9 136.7 52.4 134 60.6C131.3 68.8 146.9 71.7 153.3 64.1C159.7 56.6 152.2 54.3 149.5 53.7Z" fill="white"/>
<path d="M201 66.4C189 70.3 184.8 65.3 174.2 57.6C165.6 51.3 158.5 51.8 159.9 47.8C181.9 46.7 201.1 51.1 215.8 60.8C218.4 65.9 211.3 63 201 66.4Z" fill="white"/>
<mask id="mask1_70_685" style="mask-type:luminance" maskUnits="userSpaceOnUse" x="90" y="108" width="94" height="40">
<path d="M183.4 139.9C176 140.2 154.4 151.6 124.3 146.7C100.6 142.8 94.9 123.2 91.8 111.7C91.5 110.4 91 109.3 90.3 108.4C91 109.3 102.9 123.2 123.1 126C152.4 130 168.6 123 169.2 122.7C173.3 135.9 183.4 139.9 183.4 139.9Z" fill="white"/>
</mask>
<g mask="url(#mask1_70_685)">
<g opacity="0.78">
<path d="M162.6 146.8C162.6 146.7 162.6 146.6 162.6 146.5C162.5 146.5 162.5 146.6 162.6 146.8Z" fill="#4B1804"/>
<path d="M162.3 144.1C162.3 144 162.4 143.8 162.3 143.6V144.1Z" fill="#4B1804"/>
<path d="M160.8 143C160.8 142.9 160.7 142.9 160.7 142.8C160.7 142.9 160.7 143 160.8 143Z" fill="#4B1804"/>
<path d="M171.7 142.7C171.8 142.7 171.8 142.7 171.8 142.6V142.5C171.7 142.4 171.7 142.6 171.7 142.7Z" fill="#4B1804"/>
<path d="M171.2 142.4L171.3 142.3C171.3 142.3 171.2 142.3 171.2 142.4Z" fill="#4B1804"/>
<path d="M173 136.1L172.8 135.7C172.9 135.9 173 136 173 136.1Z" fill="#4B1804"/>
<path d="M171.5 144.1C171.5 144 171.5 143.9 171.4 143.7C171.4 143.9 171.3 143.9 171.5 144.1Z" fill="#4B1804"/>
<path d="M162.7 147C162.7 146.9 162.7 146.9 162.6 146.8C162.6 146.9 162.6 146.9 162.7 147Z" fill="#4B1804"/>
<path d="M163 143.8C162.9 143.9 162.9 143.9 163 143.8V143.8Z" fill="#4B1804"/>
<path d="M168.7 144C168.1 143 169 143.8 168.5 142.8C168.4 143.1 168.4 143.3 168 142.8C167.8 142.2 168.4 142.7 168 141.8L167.9 142.3C167.5 142 167.4 141.2 167.3 141.3C167.7 142.6 166.3 141.2 166.2 141.5V141.3L165.6 140.9C165.6 140.9 165.6 140.9 165.6 140.8C165.6 140.9 165.7 140.9 165.7 141C165.3 140.5 164.8 140.2 164.5 140.5C164.7 141.2 163.7 141.2 163.8 141.8C163.8 141.6 163.9 141.5 164.2 141.6L164.6 142.4C164.3 142.5 164.2 141.7 164.2 142.3C164.8 143.4 164.6 142.1 164.9 142.1C165 142.4 165 142.7 164.9 142.8C165.3 142.6 165.9 142.8 165.6 141.6C165.8 141.8 166 142.3 166 142.4C166 141.6 166.5 142.9 166.5 142.2C166.9 143.3 166.2 143 166.2 143.7C165.4 143.1 165.3 144.1 165 144.4C164.6 143.6 164.6 142.9 164.2 142.5C163.5 142.2 164 143.1 164 143.7C163.6 143.6 163.4 142.4 162.9 142.6V142C162.1 141 162.9 142.6 162.5 142.4C162.7 142.6 162.8 142.9 163 142.8C163.2 143.2 163.1 143.4 163.1 143.5H163.2C163.4 144.1 163.6 144.7 163.2 144.5C163.1 143.8 162.7 144.1 162.5 143.9V143.7C162.4 144 162.1 144 162 144.2L161.9 144C161.9 144.3 162.2 145.2 161.9 145.1C161.8 144.8 161.7 143.8 161.5 144C161.3 143.5 161.6 143.3 161.9 143.4C161.6 143.3 161.1 142.6 161.4 142.4C161 141.8 161.3 142.8 161 142.6C161.1 142.8 161.2 143 161.3 143.2C160.9 142.4 160.7 143.4 161 144L161.1 143.4C161.4 144.1 161.3 144.7 161.6 145C161 144 161.1 145.9 160.5 145L160.8 145.5C160.1 145.4 160.1 146.9 159.6 147.4C159.7 147 159.2 145.8 159.7 146.1C159 146.1 159 145 158.6 144.5C158 144.3 158.8 145.7 158.9 146.1L159.1 145.8C159.3 147.3 157.8 146 157.6 147.1C157.4 146.8 157.6 146.8 157.7 146.7C157.1 146.1 157.5 147 157.4 147.3C157.1 147.3 156.6 147.1 156.4 146.2C156 146.1 156.6 146.7 156.6 147L156.5 146.8L156.6 147.9C156.2 147.7 155.7 147.4 155.3 146.6C154.7 147 155.8 148.6 155.5 149.1C155.1 148.8 155.3 148.4 155.2 148.1L154.8 148.3C154.6 147.3 155.1 147.6 154.6 146.5C154.7 147.8 154.3 147 154.1 147.9L154.2 148C154.3 148.8 153.6 148.5 153.4 148.7C153.3 148.2 153.6 148 153.8 147.8C153.4 147.5 152.7 148.2 152.8 149.3C152.6 149.2 152 148.9 152.2 148.4C151.5 148.4 152.4 149.9 151.8 149.8L151.6 149C150.7 148.1 150.7 150.4 149.9 149.5L150.1 150.5C149.9 150.1 149.5 150 149.4 149.7L149.6 149.3C149.1 148.6 149.5 150.1 149.1 149.7C149.2 150 149.6 150.6 149.7 150.9C150.8 150 152.4 151 153.3 149.6C153.2 149.5 153.1 149.4 153.1 149.2C153.3 149.4 153.5 149 153.6 149.6V149.7C153.8 149.4 154.5 150.4 154.7 150.3C154.6 149.6 155.5 150.3 154.9 149.3L155.4 149.9C155.3 149.5 155.1 149 155.1 148.7C155.3 148.7 155.5 149.1 155.4 149.5C156.4 149.6 157.3 149.1 158 148.4V149C158.3 149.2 158.4 147.8 158.7 149.2C158.9 148.5 160 149.1 159.4 147.8C160.2 149 160.6 147.9 161.1 147.5C160.5 146.4 161.4 147 161.3 146.4C161.8 147.2 161.2 147.5 161.5 148.1C161.5 146.5 163.6 148.3 162.8 146C162.9 146.1 163 146.1 163 146.2C163.1 146.2 163.4 146.5 163.6 146.5C163.5 146.1 163.2 146 163.4 145.8C163.6 145.8 163.8 146.5 164 146.7C164.2 146 164.7 145.5 164.3 144.6C164.5 144.8 164.9 145.2 164.8 145.5C165.1 144.5 165.5 145.3 165.9 144.6C165.7 144.7 166.2 145.6 165.7 145.4C166.6 146.5 166.6 144.7 167.4 145.1L167.2 144.2C167.4 143.9 167.8 144.7 167.8 145C168.6 145.2 168.6 144.6 169 144.4C169.1 144.5 169.1 144.6 169 144.6L169.6 144.3C169.6 144.1 169.6 143.6 169.3 143.1C169.1 143.8 169.1 144.2 168.7 144Z" fill="#4B1804"/>
<path d="M162.1 142.5C162.2 142.7 162.3 142.7 162.4 142.8C162.3 142.6 162.2 142.5 162.1 142.5Z" fill="#4B1804"/>
<path d="M173.5 139.1C172.8 138 173.3 139.5 172.8 139.3C172.9 139 172.5 138.3 172.3 138C172.9 139.7 171.8 137.9 171.4 138.5C171.1 138 171.3 137.8 171 137.2C170.9 137.7 170.6 138.2 171 139.1C170.5 139.4 170 139.3 169.8 139.6C170 139.1 169.4 138.7 169.3 137.8C169.5 139 169.3 140.6 169.4 142.1C168.8 141.2 168.8 141.1 168.4 140.2C167.5 139.9 168.7 141.2 168 141.2H168.4C168.3 141.6 168.7 142.5 169 143.2L169.6 142.7C169.9 143.4 169.5 143.5 169.4 143.7C169.6 144.6 170.1 144.1 170.3 144.7C170.1 144.1 170.5 144.2 170.5 143.8L170.7 144.1C171.2 144.3 170.9 143.3 171.2 143.2C171.3 143.3 171.3 143.4 171.3 143.4C171.2 143 171 142.4 171.1 142.2L171 142.3C170.8 141.3 171.1 140.5 170.2 139.8L171 139.7C171.4 140.6 172 142.1 171.7 142.4L171.9 142.8C172.5 143.2 172.4 141.6 171.7 141C170.8 138.7 172.7 140.4 172.7 139.2C173.1 139.8 172.9 140.2 173 140.6C172.9 140.8 172.8 140.8 172.5 140.3C172 141 173.7 142.1 172.8 142.3C172.3 142.2 172.7 141.1 172.1 141.3L172.6 143.1C172.9 142.9 173.1 142.4 173.2 142.1C174.1 140.2 175.6 140.6 175.6 140.6C177.6 139.2 179.6 137.8 181.6 136.3C182.1 135.7 182.4 135.6 181.7 133.9C181.4 133.7 181.1 134.1 180.9 133.4C181.2 134 181.2 134.5 180.8 134.7C180.4 134.1 180.9 134.2 180.8 134.1H180.7C180.6 133.8 180.5 133.6 180.6 133.5C179.7 132.9 179.1 133.5 179.5 134.7C178.8 134.3 179.2 133.7 179 133.1C177.7 133.3 177 133.8 175.9 134.4C176.5 135.4 176.2 135.1 176.4 135.9L176.1 135.6C176.3 135.8 176.5 136.6 176.9 136.6C175.8 136.2 176.9 138.4 176.8 139.1L176.5 138.5C176.2 138.8 176.1 138.9 175.9 139.3C174.7 138.6 176.3 138.8 175.4 137.6V137.9C175.2 137.3 174.8 136.4 174.8 135.9C174.7 137.1 173.8 136 173.6 137C173.3 136.4 173.6 135.6 173.7 135.4C173.5 135.5 173.4 136.1 173 135.6L173.4 136.4C173.1 136.7 173.1 135.7 172.7 135.3C171.9 136.3 174 138.2 173.5 139.1Z" fill="#4B1804"/>
<path d="M164.5 143.2C164.6 143.2 164.7 143.1 164.8 143C164.7 143.1 164.6 143.1 164.5 143.2Z" fill="#4B1804"/>
<path d="M165.5 140.9C165.5 140.8 165.4 140.7 165.4 140.6C165.4 140.7 165.4 140.8 165.5 140.9Z" fill="#4B1804"/>
<path d="M165.1 139.8C165.3 140.1 165.2 140.2 165.4 140.7C165.4 140.3 165.7 140.2 165.1 139.8Z" fill="#4B1804"/>
<path d="M147.9 147.9C147.8 147.9 147.9 148.2 148 148.2V147.7L147.9 147.9Z" fill="#4B1804"/>
<path d="M155.8 146.6C155.4 146.3 155.7 147 155.9 147.5C156.3 147.5 155.6 146.9 155.8 146.6Z" fill="#4B1804"/>
<path d="M159.9 143.8C159.5 143.5 159.5 144.2 159.3 144.3C159.6 144.6 159.8 144.2 159.9 143.8Z" fill="#4B1804"/>
<path d="M160.6 140.7C160.6 140.9 160.6 141.1 160.8 141.1L161.1 142.4C161.7 142.7 160.9 141.2 160.6 140.7Z" fill="#4B1804"/>
<path d="M162.6 139.6L162.5 140.2L162.7 140.1C162.8 140.6 162.9 140.9 163 141.3C163.1 141 163.1 140.4 162.6 139.6Z" fill="#4B1804"/>
<path d="M162.7 141.7L162.8 141.6C162.7 141.4 162.6 141.3 162.7 141.7Z" fill="#4B1804"/>
<path d="M163 141.5C163 141.4 163 141.4 163 141.3C163 141.4 162.9 141.5 162.9 141.5C162.9 141.7 163 141.7 163 141.5Z" fill="#4B1804"/>
<path d="M163.2 140L163.7 139.6L163.4 139.5C163.6 140.2 162.9 139.2 163.2 140Z" fill="#4B1804"/>
<path d="M166.5 139.1L166.9 139.8C167.4 139.8 167 138 167.8 139C167.4 138.7 167.7 138.1 167.2 138.1C167.3 138.8 166.8 139.2 166.5 139.1Z" fill="#4B1804"/>
<path d="M168.4 139.4C168.5 139.6 168.6 139.7 168.8 139.9C169 139.9 168.9 139.5 168.7 139.3C169 140.3 168.2 138.8 168.4 139.4Z" fill="#4B1804"/>
<path d="M170 138.5C169.9 138.6 169.8 138.7 170 138.8C170.3 138.6 169.8 137.8 169.7 137.3C169.3 137 169.6 138.2 170 138.5Z" fill="#4B1804"/>
<path d="M175.4 142.2C175 141.6 174.8 141.9 174.9 142.1C174.9 141.9 175.1 142 175.4 142.2Z" fill="#4B1804"/>
<path d="M172.7 137.2L172.5 137.1L172.9 138.1L172.7 137.2Z" fill="#4B1804"/>
<path d="M174.3 135.7L174.2 135L173.9 135.3L174.3 135.7Z" fill="#4B1804"/>
<path d="M174.7 135.6L175 135.4L174.8 135.2C174.5 135.1 174.8 135.5 174.7 135.6Z" fill="#4B1804"/>
<path d="M175.6 135C175.6 135.1 175.5 135 175.4 134.9L175.3 135.4L175.6 135Z" fill="#4B1804"/>
<path d="M182.8 135.6C183.1 136.2 183.1 135.7 183.3 135.7C183.3 135.5 182.6 134.9 182.8 135.6Z" fill="#4B1804"/>
</g>
</g>
<mask id="mask2_70_685" style="mask-type:luminance" maskUnits="userSpaceOnUse" x="161" y="79" width="23" height="65">
<path d="M183.4 139.9C180.6 140 175.8 141.7 169.3 143.5C164.8 137.4 162.5 131.1 161.6 124.9C158.8 103.9 173.3 84.4 177.4 79.5C174.7 83 167.5 93.7 167.5 110.5C167.5 115.2 168.2 119.2 169.2 122.6C173.3 135.9 183.4 139.9 183.4 139.9Z" fill="white"/>
</mask>
<g mask="url(#mask2_70_685)">
<g opacity="0.78">
<path d="M167.7 119.1C167.8 119.1 167.8 119.2 167.9 119.2C167.9 119.1 167.8 119.1 167.7 119.1Z" fill="#4B1804"/>
<path d="M167.3 108.2L167.1 108.1C167.2 108.2 167.2 108.2 167.3 108.2Z" fill="#4B1804"/>
<path d="M169.5 119.7C169.6 119.8 169.7 119.9 169.8 119.9L169.5 119.7Z" fill="#4B1804"/>
<path d="M170.2 118.5C170.2 118.5 170.3 118.5 170.3 118.4C170.3 118.4 170.3 118.4 170.2 118.5Z" fill="#4B1804"/>
<path d="M171 129.3C171 129.4 171 129.4 171.1 129.5H171.2C171.2 129.4 171 129.3 171 129.3Z" fill="#4B1804"/>
<path d="M171.1 128.9L171.2 129C171.2 128.9 171.2 128.9 171.1 128.9Z" fill="#4B1804"/>
<path d="M176 131.7L176.2 131.6C176.1 131.6 176 131.7 176 131.7Z" fill="#4B1804"/>
<path d="M170 128.7C170.1 128.7 170.2 128.7 170.2 128.7C170.1 128.7 170 128.6 170 128.7Z" fill="#4B1804"/>
<path d="M167.6 104.1C167.6 104 167.6 103.9 167.6 103.8C167.5 104 167.5 104.1 167.6 104.1Z" fill="#4B1804"/>
<path d="M169.7 126C170.3 125.6 169.9 126.4 170.5 126.1C170.3 126 170.1 125.9 170.4 125.6C170.8 125.6 170.5 126 171.1 125.9L170.8 125.7C171 125.4 171.5 125.5 171.4 125.3C170.5 125.4 171.4 124.4 171.2 124.2L171.3 124.3L171.5 123.8H171.4C171.7 123.5 171.9 123.1 171.7 122.8C171.2 122.8 171.2 121.8 170.8 121.8C170.9 121.9 171 122 170.9 122.2L170.4 122.3C170.3 122 170.9 122.1 170.5 121.9C169.8 122.2 170.6 122.3 170.6 122.6C170.4 122.6 170.2 122.5 170.1 122.4C170.2 122.9 170.1 123.4 170.9 123.4C170.8 123.6 170.5 123.6 170.4 123.6C170.9 123.8 170.1 124 170.5 124.1C169.8 124.2 169.9 123.6 169.4 123.4C169.8 122.8 169.1 122.4 168.9 122C169.4 121.8 169.9 122 170.2 121.8C170.4 121.2 169.8 121.4 169.4 121.2C169.5 120.8 170.2 120.9 170.1 120.4L170.5 120.6C171.1 120.1 170.1 120.4 170.2 120.1C170 120.2 169.8 120.3 169.9 120.5C169.6 120.6 169.5 120.4 169.4 120.3V120.4C169 120.4 168.6 120.4 168.7 120.1C169.2 120.2 169 119.8 169.1 119.6L169.2 119.7C169 119.5 169 119.2 168.9 119.1H169C168.8 119 168.2 119 168.3 118.7C168.5 118.7 169.2 118.9 169 118.6C169.3 118.6 169.4 118.9 169.4 119.2C169.5 118.9 170 118.7 170.1 119C170.5 118.8 169.9 118.7 170 118.5C169.9 118.6 169.7 118.5 169.6 118.6C170.1 118.5 169.5 118 169.1 118L169.5 118.3C169.1 118.4 168.7 118.1 168.5 118.2C169.2 117.9 168 117.4 168.6 117.1L168.3 117.3C168.4 116.6 167.5 116.2 167.3 115.5C167.6 115.7 168.3 115.6 168.1 116.1C168.2 115.4 168.8 115.8 169.2 115.6C169.4 115.1 168.4 115.4 168.2 115.3L168.4 115.6C167.5 115.3 168.4 114.3 167.8 113.6C168 113.5 167.9 113.7 168 113.8C168.4 113.5 167.9 113.5 167.7 113.3C167.8 113 167.9 112.6 168.5 112.7C168.6 112.3 168.2 112.8 168 112.6L168.1 112.5L167.4 112.2C167.6 111.9 167.9 111.5 168.4 111.3C168.3 110.6 167.1 111.1 166.9 110.5C167.2 110.2 167.3 110.6 167.6 110.6L167.5 110.1C168.1 110.3 167.8 110.6 168.6 110.6C167.8 110.2 168.4 110.1 167.9 109.6H167.8C167.3 109.4 167.7 108.8 167.6 108.5C167.9 108.6 167.9 109 168 109.2C168.3 108.9 168.1 108 167.4 107.7C167.5 107.5 167.8 107.1 168.1 107.4C168.3 106.7 167.2 107 167.4 106.5L167.9 106.6C168.7 106 167.4 105.2 168.1 104.7L167.5 104.6C167.8 104.5 167.9 104.2 168.2 104.2L168.4 104.5C168.9 104.3 168 104.1 168.4 103.9C168.2 103.9 167.8 104.1 167.6 104.1C167.7 104.8 167.5 105.4 167.3 106.1C167.1 106.8 167 107.4 167.3 108.1C167.4 108.1 167.5 108 167.6 108C167.4 108.1 167.6 108.4 167.3 108.4V108.3C167.4 108.7 166.7 109 166.7 109.2C167.1 109.3 166.5 109.9 167.2 109.8L166.8 110C167.1 110.1 167.4 110 167.5 110.2C167.4 110.4 167.2 110.5 167 110.3C166.7 111.2 166.8 112.4 167.1 113.3L166.7 113.1C166.5 113.3 167.3 113.9 166.5 113.8C166.9 114.2 166.4 115.1 167.3 115.1C166.5 115.5 167 116.3 167.3 116.9C168 116.7 167.6 117.4 168 117.5C167.4 117.7 167.3 117.1 166.9 117.1C167.9 117.6 166.6 119.1 168.1 119.1C168.1 119.2 168 119.2 167.9 119.2C167.9 119.3 167.7 119.6 167.7 119.7C168 119.7 168 119.4 168.2 119.7C168.2 120 167.8 119.9 167.6 120.1C168 120.5 168.4 121.2 169 121.1C168.9 121.3 168.6 121.5 168.4 121.4C169.1 122 168.5 122.1 169 122.8C168.9 122.6 168.3 122.9 168.5 122.4C167.8 122.9 169 123.5 168.8 124.2L169.4 124.3C169.6 124.6 169.1 124.8 168.9 124.6C168.8 125.3 169.2 125.5 169.4 126C169.3 126.1 169.2 126.1 169.2 126C169.3 126.2 169.3 126.4 169.4 126.7C169.6 126.7 169.9 126.8 170.2 126.7C169.8 126.5 169.6 126.4 169.7 126Z" fill="#4B1804"/>
<path d="M170.5 119.9C170.4 120 170.3 120.1 170.3 120.1C170.4 120.1 170.5 120 170.5 119.9Z" fill="#4B1804"/>
<path d="M173.9 131.7C174.6 131.2 173.6 131.4 173.6 131C173.8 131.2 174.2 130.9 174.4 130.7C173.3 130.9 174.4 130.2 173.9 129.8C174.2 129.6 174.4 129.9 174.8 129.7C174.4 129.5 174 129.2 173.5 129.4C173.2 128.9 173.2 128.4 173 128.1C173.4 128.4 173.6 127.9 174.2 127.9C173.4 127.8 172.2 127.4 171.2 127.1C171.8 126.8 171.8 126.7 172.4 126.5C172.5 125.7 171.8 126.6 171.7 125.9V126.2C171.4 126 170.8 126.2 170.4 126.3L170.8 127C170.4 127.2 170.2 126.7 170.1 126.6C169.5 126.6 169.9 127.2 169.5 127.2C169.9 127.2 169.9 127.5 170.1 127.6L169.9 127.7C169.8 128.2 170.5 128.1 170.6 128.4C170.6 128.5 170.5 128.5 170.5 128.5C170.8 128.5 171.2 128.5 171.3 128.6L171.2 128.5C171.8 128.5 172.5 129 172.8 128.3L173 129.1C172.4 129.3 171.5 129.6 171.2 129.2L170.9 129.3C170.8 129.8 171.8 130 172.2 129.5C173.7 129.1 172.8 130.6 173.7 130.8C173.4 131 173.1 130.8 172.7 130.9C172.6 130.8 172.5 130.7 172.8 130.5C172.2 129.9 171.7 131.3 171.4 130.4C171.4 129.9 172.2 130.6 172 130L170.8 130.1C171 130.4 171.4 130.7 171.6 130.9C172.4 131.5 172.8 132.1 173 132.6C173.2 133.1 173.3 133.4 173.3 133.4C174.8 135.5 176.6 137.6 178.5 139.4C179.2 139.9 179.4 140.1 180.4 139.5C180.4 139.2 180 139 180.4 138.8C180 139.1 179.7 139 179.4 138.7C179.7 138.4 179.8 138.8 179.8 138.7V138.6C180 138.5 180.1 138.4 180.2 138.5C180.3 137.7 179.7 137.2 178.8 137.5C178.9 136.9 179.5 137.3 179.8 137.2C179.2 136 178.6 135.4 177.8 134.4C177.2 134.8 177.3 134.6 176.8 134.7L176.9 134.4C176.8 134.5 176.3 134.7 176.3 135C176.3 134 175 134.8 174.4 134.6L174.7 134.4C174.4 134.1 174.3 134 173.9 133.8C174.1 132.8 174.3 134.3 175 133.6L174.8 133.5C175.2 133.4 175.8 133.1 176.1 133.2C175.2 133 175.8 132.3 175 131.9C175.4 131.7 176 132.1 176.2 132.2C176.1 132 175.6 131.8 175.9 131.6L175.4 131.8C175.1 131.5 175.8 131.6 176.1 131.3C175.6 130.6 174.6 132.3 173.9 131.7Z" fill="#4B1804"/>
<path d="M170 122.1C170 122.2 170 122.3 170.1 122.4C170.1 122.3 170.1 122.2 170 122.1Z" fill="#4B1804"/>
<path d="M171.6 123.7C171.7 123.7 171.7 123.7 171.8 123.7C171.7 123.6 171.6 123.6 171.6 123.7Z" fill="#4B1804"/>
<path d="M172.3 123.6C172.1 123.7 172 123.6 171.7 123.6C172 123.7 172.1 124 172.3 123.6Z" fill="#4B1804"/>
<path d="M173.5 92.6C173.4 92.5 173.3 92.2 173.2 92.2V92.6H173.5Z" fill="#4B1804"/>
<path d="M172.7 93.2L172.4 93.5L173 94C173.1 93.5 172.6 93.5 172.7 93.2Z" fill="#4B1804"/>
<path d="M172 94L171.9 93.9C171.9 94 171.9 94 172 94Z" fill="#4B1804"/>
<path d="M172.2 94.1001L172.6 94.4L172.4 93.8L172.2 93.9C172 93.8 171.9 93.9 171.8 93.9L172.1 94.2C172.2 94.3 172.2 94.1001 172.2 94.1001Z" fill="#4B1804"/>
<path d="M170.9 95.1C171.1 95.1 171.3 95.4 171.5 95.4C171.8 95.1 171.1 94.8 171.4 94.6C171.6 95.2 171.8 94.5 172.1 94.5C171.6 94.4 171.2 94.5 171 94.8L171.3 94.9C171.2 95.2 171.1 95 170.9 95.1Z" fill="#4B1804"/>
<path d="M171 97.3L170.6 96.9C170.8 96.9 171 96.5001 171.5 96.6001C171.5 96.4001 171.3 96.3001 171.2 96.1001C171.5 96.1001 171.7 96 171.4 95.8C170.8 96.4 170.8 96.1 170.5 96.7C170.4 96.7 170.4 96.6 170.5 96.5L170.1 96.8C170.7 97 170.5 97.6 171 97.3Z" fill="#4B1804"/>
<path d="M170.5 97.8C170.6 97.5 170.2 97.2 169.8 97.2L170 98C170 97.8 170.1 97.5 170.5 97.8Z" fill="#4B1804"/>
<path d="M170.4 98.2C170.1 98.3 169.5 98.3 170 98.7C169.9 98.3 170.6 98.7 170.4 98.2Z" fill="#4B1804"/>
<path d="M169.3 100.5C169.5 100.3 169.6 100.1 169.8 99.9C170.5 99.9 169.9 100.3 170.2 100.5C170.4 100 170.2 100.1 169.9 99.6C170 99.5 169.7 99.1 169.6 98.9C169.9 99.9 168.3 99.6 169.3 100.5Z" fill="#4B1804"/>
<path d="M170.3 99.3L170 99.2L170.2 99.6L170.3 99.3Z" fill="#4B1804"/>
<path d="M168.3 101.9C167.5 102.2 168.6 102.7 168.2 103.1C168.2 103 168.1 103.1 168 103V103.4H167.8C168.3 103.4 168.4 103.9 168.7 104.1C169.2 103.8 168.2 103.8 168.7 103.6C168.9 103.7 169.2 103.8 169.4 103.9C169.2 103.6 168.9 103.5 168.7 103.4C168.7 103.1 168.9 103.3 169.1 103.3C168.9 103 168.2 102.9 168.4 102.5C168.9 102.3 169 102.8 168.9 102.3C168.1 102.4 169.1 101.9 168.7 101.6C168.9 101.3 169.4 101.1 169.6 101.3C169 101.2 168.6 100.8 168.5 100.5L168.8 101.2L168.1 101.3C168.6 101.4 168.5 101.6 168.3 101.9Z" fill="#4B1804"/>
<path d="M170 101L170.1 101.2L170.3 101.1L170 101Z" fill="#4B1804"/>
<path d="M169.9 104.2C169.9 104.1 169.7 104.1 169.7 104.1L170 104.3L169.9 104.2Z" fill="#4B1804"/>
<path d="M169.4 104.4L169 104.6L169.3 104.7L169.4 104.4Z" fill="#4B1804"/>
<path d="M168.7 112.4C168.9 112.1 168.5 112.2 168.1 112.1C168 112.6 168.5 112.2 168.7 112.4Z" fill="#4B1804"/>
<path d="M169.8 117.3C170 117 169.6 116.8 169.5 116.5C169.3 116.8 169.5 117.2 169.8 117.3Z" fill="#4B1804"/>
<path d="M171.7 119.1C171.5 119.1 171.4 119 171.4 119.1L170.5 119C170.4 119.5 171.4 119.2 171.7 119.1Z" fill="#4B1804"/>
<path d="M172.4 121.3L172 121V121.2C171.7 121.2 171.5 121.2 171.2 121.1C171.5 121.3 171.9 121.5 172.4 121.3Z" fill="#4B1804"/>
<path d="M171 120.8L171.1 120.9C171.2 120.9 171.3 120.8 171 120.8Z" fill="#4B1804"/>
<path d="M171.2 121.1H171.3C171.2 121 171.2 121 171.1 120.9C171 121 171 121 171.2 121.1Z" fill="#4B1804"/>
<path d="M172.1 121.7L172.4 122.3L172.5 122C172 122.1 172.7 121.6 172.1 121.7Z" fill="#4B1804"/>
<path d="M172.9 125L172.5 125.2C172.6 125.6 173.7 125.7 173.1 126.3C173.3 126 173.7 126.4 173.7 125.9C173.2 125.9 172.9 125.4 172.9 125Z" fill="#4B1804"/>
<path d="M172.8 126.8C172.6 126.8 172.6 126.9 172.5 127C172.5 127.2 172.8 127.2 172.9 127.1C172.3 127.2 173.3 126.7 172.8 126.8Z" fill="#4B1804"/>
<path d="M173.7 128.5C173.6 128.4 173.5 128.3 173.5 128.5C173.7 128.8 174.1 128.5 174.5 128.5C174.7 128.1 173.9 128.2 173.7 128.5Z" fill="#4B1804"/>
<path d="M172.1 133C172.4 132.7 172.2 132.5 172.1 132.5C172.2 132.5 172.2 132.8 172.1 133Z" fill="#4B1804"/>
<path d="M175.1 131.2V131.1L174.5 131.3L175.1 131.2Z" fill="#4B1804"/>
<path d="M176.6 132.9H177.1L176.8 132.6L176.6 132.9Z" fill="#4B1804"/>
<path d="M176.8 133.3L177 133.6L177.1 133.4C177.1 133.2 176.8 133.4 176.8 133.3Z" fill="#4B1804"/>
<path d="M177.5 134.2C177.4 134.2 177.5 134.1 177.5 134.1L177.1 134L177.5 134.2Z" fill="#4B1804"/>
<path d="M179.6 140.5C179.2 140.8 179.7 140.8 179.8 141C179.8 140.9 180 140.3 179.6 140.5Z" fill="#4B1804"/>
</g>
</g>
<path d="M181.9 137.7C175 136.3 165.1 138.8 158.4 149.7C154 156.8 151.4 171.7 154.6 171.7C157.8 171.7 169.5 165.5 177.6 152.7C184.6 141.7 184.3 138.2 181.9 137.7Z" fill="#FF510C"/>
<path d="M177.4 79.5C174.7 83 167.5 93.7 167.5 110.5C167.5 115.2 168.2 119.2 169.2 122.6C173.3 135.9 183.4 139.9 183.4 139.9" stroke="#1B1C1E" stroke-miterlimit="10"/>
<path d="M93.7 63.8C98.7 61.9 105 59.6 113.1 56.9C132.2 50.6 150.4 47.5 166.8 47.6" stroke="#1B1C1E" stroke-miterlimit="10"/>
<path d="M84.4 177.9C84.4 177.9 79.5 180 92.9 180.6C106.4 181.2 177.5 181.5 184.8 180.6C192.1 179.7 200.3 178.6 186.5 177.4C176.1 176.5 160.8 176.6 150.2 176.3C131.1 175.8 90.2 176 84.4 177.9Z" fill="#1B1C1E"/>
</svg>
