<svg width="273" height="243" viewBox="0 0 273 243" fill="none" xmlns="http://www.w3.org/2000/svg">
<path d="M2.99994 238.7C2.99994 238.7 -8.80006 241.3 23.4999 242.1C55.7999 242.9 226.1 243.3 243.6 242.1C261.1 240.9 295.2 241.6 249.9 238.7C204.6 235.8 158.1 237.5 112.5 235.8C66.7999 234.1 9.79994 235.7 2.99994 238.7Z" fill="#1B1C1E"/>
<path d="M214 152.3C214 152.3 213.4 202.5 233.8 228.9C233.8 228.9 248.5 228.7 247.4 239C247.4 239 229.7 239 227.1 239C224.5 239 211.8 223.4 204.8 212.7C204.8 212.7 202 216.8 201.7 209.8C201.7 209.8 199.9 212.8 198.3 211.1C196.7 209.4 198.3 200 198.3 200C198.3 200 196.6 203.3 195.1 201.8C193.6 200.4 194.5 193.6 194.5 193.6C194.5 193.6 190.7 197.9 191.2 191.6C191.7 185.3 203.8 154.8 214 152.3Z" fill="#B37D4F"/>
<mask id="mask0_70_538" style="mask-type:luminance" maskUnits="userSpaceOnUse" x="191" y="152" width="57" height="87">
<path d="M214 152.3C214 152.3 213.4 202.5 233.8 228.9C233.8 228.9 248.5 228.7 247.4 239C247.4 239 229.7 239 227.1 239C224.5 239 211.8 223.4 204.8 212.7C204.8 212.7 202 216.8 201.7 209.8C201.7 209.8 199.9 212.8 198.3 211.1C196.7 209.4 198.3 200 198.3 200C198.3 200 196.6 203.3 195.1 201.8C193.6 200.4 194.5 193.6 194.5 193.6C194.5 193.6 190.7 197.9 191.2 191.6C191.7 185.3 203.8 154.8 214 152.3Z" fill="white"/>
</mask>
<g mask="url(#mask0_70_538)">
<g opacity="0.88">
<path d="M211.4 160.8C211.4 160.9 211.5 161 211.5 161C211.5 161 211.5 160.9 211.4 160.8Z" fill="#322015"/>
<path d="M215.6 156.1L215.4 155.9C215.5 156 215.5 156.1 215.6 156.1Z" fill="#322015"/>
<path d="M212.5 162.6C212.5 162.7 212.6 162.8 212.7 163L212.5 162.6Z" fill="#322015"/>
<path d="M207.1 169.7L207.3 170C207.2 169.8 207.1 169.7 207.1 169.7Z" fill="#322015"/>
<path d="M206.6 163.8C206.6 163.9 206.7 164 206.7 164C206.7 163.9 206.8 163.9 206.6 163.8Z" fill="#322015"/>
<path d="M211.3 160.6L211.4 160.7C211.3 160.7 211.3 160.7 211.3 160.6Z" fill="#322015"/>
<path d="M216.8 154C216.8 153.9 216.8 153.9 216.8 153.8C216.7 153.9 216.7 154 216.8 154Z" fill="#322015"/>
<path d="M208.4 163.6C209.1 164.2 208.3 163.8 208.9 164.4C208.9 164.2 208.8 164 209.2 164.3C209.5 164.7 209 164.4 209.5 165L209.4 164.7C209.7 164.9 210 165.5 210.1 165.3C209.5 164.4 210.8 165.2 210.8 165V165.1L211.3 165.3L211.2 165.2C211.6 165.5 212 165.6 212.1 165.4C211.7 164.9 212.5 164.7 212.2 164.3C212.2 164.5 212.2 164.5 212 164.5L211.5 164C211.7 163.9 212 164.5 211.8 164C211.1 163.3 211.6 164.2 211.4 164.2C211.3 164 211.2 163.8 211.2 163.7C211 163.9 210.5 163.8 211.1 164.7C210.9 164.6 210.6 164.3 210.6 164.2C210.8 164.8 210.1 163.9 210.3 164.4C209.7 163.7 210.3 163.8 210 163.3C210.7 163.6 210.5 162.9 210.6 162.6C211.1 163.1 211.3 163.6 211.7 163.8C212.2 163.9 211.7 163.3 211.5 163C211.8 163 212.3 163.8 212.6 163.5L212.8 163.9C213.6 164.4 212.7 163.5 212.9 163.5C212.7 163.4 212.5 163.2 212.4 163.3C212.1 163.1 212.1 162.9 212.1 162.8C211.8 162.4 211.5 162.1 211.8 162.1C212.1 162.6 212.2 162.3 212.4 162.4L212.5 162.5C212.5 162.3 212.6 162.2 212.6 162.1L212.7 162.2C212.6 162 212.1 161.5 212.3 161.4C212.5 161.6 212.9 162.3 213 162C213.3 162.3 213.2 162.5 213 162.5C213.2 162.5 213.8 162.9 213.7 163.1C214.1 163.4 213.7 162.8 213.9 162.9C213.8 162.8 213.7 162.7 213.5 162.6C214 163.1 213.8 162.3 213.4 162L213.6 162.4C213.2 162 213 161.6 212.7 161.4C213.4 161.9 212.7 160.7 213.4 161.1L213 160.9C213.5 160.8 212.9 159.8 213 159.4C213.1 159.7 213.9 160.3 213.5 160.3C213.9 160.1 214.3 160.8 214.8 161C215.3 161 214.2 160.3 214 160V160.3C213.3 159.4 214.7 159.8 214.4 159.1C214.7 159.3 214.5 159.3 214.5 159.4C215.1 159.6 214.5 159.2 214.4 159C214.6 158.9 215 158.9 215.5 159.4C215.8 159.3 215.1 159.2 215 158.9L215.2 159L214.7 158.3C215 158.3 215.4 158.3 216.1 158.7C216.2 158.3 214.9 157.6 214.8 157.2C215.2 157.3 215.2 157.5 215.5 157.7L215.6 157.4C216.2 157.9 215.8 157.9 216.5 158.4C215.9 157.7 216.5 158 216.1 157.4H216C215.5 156.9 216.1 156.9 216.1 156.7C216.4 157 216.3 157.2 216.3 157.4C216.7 157.4 216.7 156.8 216.1 156.2C216.3 156.2 216.7 156.1 216.9 156.5C217.3 156.2 216 155.7 216.4 155.5L216.9 155.9C217.9 156 216.6 154.8 217.5 154.9L216.8 154.5C217.1 154.6 217.3 154.5 217.6 154.7L217.7 155C218.3 155.2 217.3 154.5 217.8 154.6C217.6 154.5 217.1 154.4 216.8 154.2C216.8 155.1 215.5 155.2 215.7 156.3C215.8 156.3 215.9 156.4 216 156.5C215.8 156.5 215.9 156.7 215.5 156.5V156.4C215.5 156.7 214.6 156.3 214.6 156.4C215 156.8 214.2 156.6 215 157.1L214.5 156.9C214.8 157.1 215.1 157.4 215.2 157.5C215.1 157.6 214.8 157.4 214.6 157.1C214 157.4 213.7 157.9 213.6 158.5L213.4 158.1C213.2 158.1 213.7 158.9 212.9 158.2C213.1 158.7 212.2 158.6 213.1 159.3C212.1 158.8 212.3 159.5 212.2 159.9C213 160.5 212.2 160.3 212.5 160.7C211.9 160.3 212.1 160 211.7 159.6C212.3 160.6 210.4 159.8 211.7 161.2C211.6 161.2 211.6 161.1 211.5 161.1C211.4 161.2 211.1 161 211 161C211.2 161.3 211.4 161.2 211.4 161.5C211.3 161.6 210.9 161.1 210.7 161C210.8 161.5 210.7 161.9 211.2 162.5C211 162.4 210.6 162.2 210.6 162C210.7 162.7 210.2 162.2 210.2 162.8C210.3 162.7 209.7 162.2 210.1 162.2C209.2 161.6 209.8 162.8 209.1 162.6L209.5 163.2C209.4 163.4 209 163 208.9 162.7C208.4 162.6 208.5 163.1 208.3 163.3C208.2 163.2 208.1 163.1 208.2 163.1L207.9 163.3C208 163.5 208.1 163.8 208.4 164.1C208.2 163.7 208.1 163.5 208.4 163.6Z" fill="#322015"/>
<path d="M213.2 163.6C213 163.5 213 163.5 212.9 163.5C213 163.5 213.1 163.6 213.2 163.6Z" fill="#322015"/>
<path d="M206.3 167.4C207 168.2 206.4 167.1 206.7 167.2C206.7 167.4 207.1 167.9 207.3 168.1C206.6 166.9 207.7 168.2 207.8 167.7C208.1 168 208 168.2 208.3 168.6C208.3 168.2 208.4 167.8 208 167.2C208.3 167 208.7 167 208.7 166.8C208.7 167.2 209.2 167.4 209.4 168.1C209 167.2 208.8 166 208.4 165C209 165.6 209.1 165.7 209.5 166.3C210.2 166.4 209.1 165.6 209.6 165.5H209.4C209.4 165.2 208.9 164.6 208.5 164.1L208.2 164.5C207.8 164.1 208.1 163.9 208.1 163.8C207.7 163.2 207.6 163.6 207.3 163.2C207.6 163.6 207.3 163.6 207.4 163.8L207.2 163.6C206.8 163.5 207.3 164.2 207.1 164.3C207 164.2 207 164.2 207 164.2C207.2 164.5 207.4 164.9 207.4 165V164.9C207.8 165.6 207.7 166.2 208.4 166.6L207.9 166.7C207.4 166 206.7 165 206.9 164.8L206.7 164.5C206.3 164.3 206.7 165.3 207.2 165.8C208.3 167.5 206.7 166.3 206.9 167.2C206.6 166.8 206.6 166.5 206.4 166.2C206.4 166.1 206.5 166 206.8 166.4C207 165.9 205.7 165.1 206.2 165C206.6 165.1 206.5 165.9 206.8 165.7L206.1 164.4C206 164.6 206 164.9 205.9 165.1C205.8 165.8 205.5 166.1 205.2 166.2C204.9 166.3 204.6 166.2 204.6 166.2C203.5 167.2 202.4 168.1 201.2 168.9C200.9 169.3 200.7 169.3 201.2 170.7C201.4 170.9 201.6 170.7 201.8 171.2C201.6 170.7 201.6 170.3 201.9 170.3C202.2 170.8 201.8 170.6 201.9 170.7H202C202.1 171 202.1 171.1 202.1 171.2C202.7 171.8 203.2 171.4 202.8 170.4C203.3 170.8 203.1 171.2 203.2 171.6C204.1 171.5 204.6 171.2 205.4 170.8C204.9 170 205.2 170.3 204.9 169.7L205.1 170C205 169.9 204.7 169.3 204.5 169.2C205.3 169.5 204.3 167.8 204.3 167.3L204.6 167.7C204.8 167.5 204.8 167.4 204.9 167.1C205.8 167.6 204.7 167.4 205.5 168.3V168.1C205.7 168.5 206.1 169.2 206.2 169.6C206.1 168.7 206.9 169.5 206.9 168.7C207.2 169.2 207.1 169.8 207 169.9C207.2 169.9 207.2 169.4 207.5 169.8L207.1 169.2C207.3 169 207.4 169.7 207.8 170C207.8 169.4 206.1 168.1 206.3 167.4Z" fill="#322015"/>
<path d="M211.3 163.5C211.2 163.5 211.2 163.6 211.2 163.7C211.3 163.7 211.3 163.6 211.3 163.5Z" fill="#322015"/>
<path d="M211.3 165.4C211.4 165.5 211.4 165.5 211.5 165.6C211.5 165.5 211.4 165.4 211.3 165.4Z" fill="#322015"/>
<path d="M211.9 166.1C211.7 165.9 211.7 165.8 211.5 165.5C211.6 165.8 211.4 165.9 211.9 166.1Z" fill="#322015"/>
<path d="M219.1 152.6L219.7 152.4C220.5 152.7 219.8 152.7 220.1 153C220.4 152.8 220.1 152.7 219.8 152.3C219.9 152.2 219.6 151.9 219.4 151.7C219.7 152.4 217.9 151.5 219.1 152.6Z" fill="#322015"/>
<path d="M217.8 153C216.8 152.7 218.1 153.7 217.6 153.7C217.6 153.6 217.5 153.6 217.4 153.5V153.7L217.2 153.6C217.7 153.9 217.8 154.2 218.1 154.5C218.8 154.6 217.5 154 218.2 154.2C218.4 154.4 218.7 154.6 218.9 154.8C218.7 154.5 218.4 154.3 218.2 154.1C218.2 153.9 218.5 154.1 218.7 154.2C218.5 153.9 217.7 153.5 218.1 153.3C218.6 153.4 218.8 153.8 218.7 153.4C217.8 153.1 219 153.2 218.5 152.8C218.8 152.7 219.3 152.8 219.6 153C219 152.7 218.5 152.2 218.4 152L218.8 152.6L218 152.3C218.2 152.8 218.1 152.9 217.8 153Z" fill="#322015"/>
<path d="M218.9 154.8L219 154.9C219.1 155 219 154.9 218.9 154.8Z" fill="#322015"/>
<path d="M219.8 153.2L219.9 153.4L220.2 153.5L219.8 153.2Z" fill="#322015"/>
<path d="M219.4 155.3L219.2 155.1L219.5 155.4L219.4 155.3Z" fill="#322015"/>
<path d="M218.8 155.2L218.3 155.1L218.6 155.3L218.8 155.2Z" fill="#322015"/>
<path d="M215.6 159.2C215.9 159.2 215.5 158.9 215.1 158.6C214.9 158.8 215.5 159 215.6 159.2Z" fill="#322015"/>
<path d="M214.2 162.2C214.6 162.3 214.3 161.8 214.4 161.7C214.1 161.6 214.1 161.9 214.2 162.2Z" fill="#322015"/>
<path d="M214.7 164.5C214.6 164.3 214.6 164.2 214.4 164.3L213.8 163.5C213.4 163.4 214.4 164.2 214.7 164.5Z" fill="#322015"/>
<path d="M213.7 165.8L213.6 165.3L213.5 165.4C213.3 165.1 213.1 164.9 213 164.6C213 164.9 213.1 165.3 213.7 165.8Z" fill="#322015"/>
<path d="M213 164.3V164.4C213.1 164.5 213.2 164.6 213 164.3Z" fill="#322015"/>
<path d="M212.9 164.5C212.9 164.5 212.9 164.6 213 164.6C213 164.5 213 164.5 212.9 164.5C212.9 164.4 212.8 164.3 212.9 164.5Z" fill="#322015"/>
<path d="M213.2 165.6L213 166H213.3C212.8 165.5 213.6 166.1 213.2 165.6Z" fill="#322015"/>
<path d="M211.1 166.8L210.6 166.4C210.3 166.5 210.9 167.7 210.1 167.1C210.4 167.3 210.4 167.8 210.8 167.7C210.6 167.2 210.9 166.8 211.1 166.8Z" fill="#322015"/>
<path d="M209.7 166.8C209.6 166.6 209.5 166.6 209.3 166.5C209.2 166.5 209.3 166.8 209.5 167C209.1 166.3 210 167.3 209.7 166.8Z" fill="#322015"/>
<path d="M208.8 167.7C208.9 167.6 208.9 167.5 208.7 167.5C208.5 167.7 209 168.2 209.2 168.6C209.6 168.7 209.1 167.9 208.8 167.7Z" fill="#322015"/>
<path d="M204.5 165.2C204.8 165.6 204.9 165.4 204.9 165.3C204.9 165.4 204.7 165.3 204.5 165.2Z" fill="#322015"/>
<path d="M207.2 168.8L207.3 168.9L206.9 168.1L207.2 168.8Z" fill="#322015"/>
<path d="M206.2 170L206.4 170.5L206.5 170.3L206.2 170Z" fill="#322015"/>
<path d="M205.9 170.1L205.7 170.3L205.9 170.4C206.1 170.4 205.8 170.1 205.9 170.1Z" fill="#322015"/>
<path d="M205.4 170.6C205.4 170.5 205.5 170.6 205.5 170.7V170.3L205.4 170.6Z" fill="#322015"/>
<path d="M200.5 169.5C200.3 169 200.3 169.4 200.2 169.3C200.2 169.4 200.6 170 200.5 169.5Z" fill="#322015"/>
</g>
</g>
<path d="M243.2 239C243.2 239 243.4 235.2 240.7 233.7" stroke="#1B1C1E" stroke-width="1.2604" stroke-miterlimit="10" stroke-linecap="round" stroke-linejoin="round"/>
<path d="M95.9 210.6C95.9 210.6 90.8 222.5 72.4 216.6C54 210.7 48.6 208.8 36.2 211.4C23.8 214 17.9 225.1 14.6 229.2C11.3 233.4 9.19998 236.2 7.29998 237.4C5.39998 238.6 11 238.6 13.3 237.9C13.3 237.9 10.5 239.4 12.1 240.2C13.7 241 22.3 239.4 22.3 239.4C22.3 239.4 20.5 240.6 21.8 241.2C23.1 241.8 29.6 239.5 50 240.1C70.4 240.7 88.6 236.4 99.8 222.6C111.1 208.6 100.2 205.7 95.9 210.6Z" fill="#B37D4F"/>
<path d="M102.9 208.9C100.4 214 94.2001 224.5 84.0001 228.7C70.3001 234.2 57.0001 232 47.5001 227.3C38.0001 222.7 35.9001 223.5 34.9001 223.3C34.0001 223 36.6001 221.6 36.6001 221.6C36.6001 221.6 28.8001 222.5 30.8001 220.5C32.8001 218.5 30.4001 218.6 28.6001 218.9C23.9001 219.7 19.4001 223 19.1001 223.2C22.7001 218.5 28.1001 213.1 36.3001 211.4C48.7001 208.8 54.0001 210.7 72.5001 216.6C91.0001 222.5 96.0001 210.6 96.0001 210.6C97.8001 208.5 100.9 207.8 102.9 208.9Z" fill="#343434"/>
<path d="M241.2 30.8C241.2 30.8 243.7 32 248.8 30.8C253.9 29.6 257.4 28.4 258.6 30.4C258.6 30.4 247.8 37.8 241.3 39.9C234.7 42 232 41.6 232.1 39.9C232.1 38.2 237.2 30.2 241.2 30.8Z" fill="#BC6464"/>
<path d="M201.6 12.4C201.6 12.4 208.2 9.09997 216.2 9.19997C224.2 9.29997 228.1 12.4 228.1 12.4C228.1 12.4 251.1 3.89997 253.8 3.09997C256.6 2.29997 258 11.7 255.6 17.5C253.2 23.3 246.6 27.7 242.3 30.1C238.1 32.4 234.3 36.4 234.7 38.6C235.1 40.8 257.2 30.7 258.1 30.3C259 29.9 259.7 35.7 253.1 39.6C246.5 43.6 238.6 47.9 237 49.7C235.4 51.5 233.1 56.4 232.9 57.1C232.8 57.7 236.1 66.1 233.6 66.5C231.7 66.8 231.3 65.8 231.3 65.8C231.3 65.8 232 70.5 231.3 70.7C230.6 70.9 229.2 69.6 229.2 69.6C229.2 69.6 228.9 78.6 229.9 83C230.9 87.4 229.8 87.6 227.9 86.7C227.9 86.7 231.2 99.6 232 114.9C232.8 130.2 232.1 131.4 230.4 131C230.4 131 230.2 140.1 228 141.8C226.8 142.7 226 141.8 226 141.8C226 141.8 225.4 152.2 222.7 153.8C220.8 154.9 220.1 151.3 220.1 151.3C220.1 151.3 212.8 163.4 201.3 167.9C189.8 172.3 183.9 192 183.9 192C183.9 192 174.9 201.1 173.6 202.4C172.3 203.7 170.2 211.8 167.7 207.8C167.7 207.8 165.7 216.8 162.8 213.6C162.8 213.6 158.7 220.6 158.6 226.2C158.6 226.2 168.7 225.9 174.5 227C180.3 228.1 186.6 232.9 185.5 239.1C185.5 239.1 120 239.1 114.6 239.1C109.2 239.1 94.9999 221.4 90.6999 195.1C86.7999 171.2 96.5999 144.4 115.6 125.9C134.6 107.4 160.4 85 165.8 79.9C171.2 74.7 174.9 65.4 176.6 59.5C178.3 53.6 187.4 27.3 187.4 27.3C187.4 27.3 178.8 4.89998 177.6 2.79998C177 1.09998 189.8 -4.50002 201.6 12.4Z" fill="#B37D4F"/>
<mask id="mask1_70_538" style="mask-type:luminance" maskUnits="userSpaceOnUse" x="89" y="0" width="170" height="240">
<path d="M201.6 12.4C201.6 12.4 208.2 9.09997 216.2 9.19997C224.2 9.29997 228.1 12.4 228.1 12.4C228.1 12.4 251.1 3.89997 253.8 3.09997C256.6 2.29997 258 11.7 255.6 17.5C253.2 23.3 246.6 27.7 242.3 30.1C238.1 32.4 234.3 36.4 234.7 38.6C235.1 40.8 257.2 30.7 258.1 30.3C259 29.9 259.7 35.7 253.1 39.6C246.5 43.6 238.6 47.9 237 49.7C235.4 51.5 233.1 56.4 232.9 57.1C232.8 57.7 236.1 66.1 233.6 66.5C231.7 66.8 231.3 65.8 231.3 65.8C231.3 65.8 232 70.5 231.3 70.7C230.6 70.9 229.2 69.6 229.2 69.6C229.2 69.6 228.9 78.6 229.9 83C230.9 87.4 229.8 87.6 227.9 86.7C227.9 86.7 231.2 99.6 232 114.9C232.8 130.2 232.1 131.4 230.4 131C230.4 131 230.2 140.1 228 141.8C226.8 142.7 226 141.8 226 141.8C226 141.8 225.4 152.2 222.7 153.8C220.8 154.9 220.1 151.3 220.1 151.3C220.1 151.3 212.8 163.4 201.3 167.9C189.8 172.3 183.9 192 183.9 192C183.9 192 174.9 201.1 173.6 202.4C172.3 203.7 170.2 211.8 167.7 207.8C167.7 207.8 165.7 216.8 162.8 213.6C162.8 213.6 158.7 220.6 158.6 226.2C158.6 226.2 168.7 225.9 174.5 227C180.3 228.1 186.6 232.9 185.5 239.1C185.5 239.1 120 239.1 114.6 239.1C109.2 239.1 94.9999 221.4 90.6999 195.1C86.7999 171.2 96.5999 144.4 115.6 125.9C134.6 107.4 160.4 85 165.8 79.9C171.2 74.7 174.9 65.4 176.6 59.5C178.3 53.6 187.4 27.3 187.4 27.3C187.4 27.3 178.8 4.89998 177.6 2.79998C177 1.09998 189.8 -4.50002 201.6 12.4Z" fill="white"/>
</mask>
<g mask="url(#mask1_70_538)">
<g opacity="0.88">
<path d="M180.8 195C180.7 195 180.6 194.9 180.5 194.9C180.5 195 180.6 195 180.8 195Z" fill="#322015"/>
<path d="M179.4 202.5L179.7 202.6C179.6 202.5 179.5 202.5 179.4 202.5Z" fill="#322015"/>
<path d="M178.5 194.2C178.4 194.1 178.3 194 178.1 194L178.5 194.2Z" fill="#322015"/>
<path d="M182.1 188.2H182.2C182.2 188.3 182.2 188.2 182.1 188.2Z" fill="#322015"/>
<path d="M181.6 187.7V187.6H181.5C181.4 187.6 181.5 187.6 181.6 187.7Z" fill="#322015"/>
<path d="M182.6 188.4C182.5 188.4 182.4 188.3 182.3 188.3C182.4 188.3 182.4 188.4 182.6 188.4Z" fill="#322015"/>
<path d="M179.1 205.4C179.1 205.5 179.1 205.6 179.2 205.6C179.3 205.4 179.3 205.4 179.1 205.4Z" fill="#322015"/>
<path d="M181.3 190.1C180.2 190.1 181.3 189.8 180.3 189.8C180.5 190 180.7 190.1 180.1 190.1C179.5 189.9 180.2 189.8 179.3 189.7L179.6 189.9C179.2 190 178.5 189.8 178.5 189.9C179.7 190.2 178 190.5 178.2 190.7L178.1 190.6L177.5 190.9C177.5 190.9 177.5 190.9 177.4 190.9C177.5 190.9 177.5 190.9 177.6 190.9C177 191 176.6 191.2 176.7 191.4C177.4 191.5 176.9 192.2 177.4 192.4C177.2 192.3 177.2 192.2 177.4 192.1L178.2 192.2C178.2 192.4 177.4 192.2 177.9 192.4C179 192.4 177.9 192.1 178.1 191.9C178.4 192 178.6 192.1 178.7 192.2C178.8 191.9 179.2 191.6 178.1 191.3C178.3 191.2 178.8 191.3 178.9 191.4C178.3 191.1 179.6 191.3 179 191C180 191.1 179.5 191.5 180.1 191.8C179.3 192.1 180 192.5 180.1 192.9C179.3 192.9 178.7 192.6 178.2 192.7C177.7 193 178.6 193.1 179 193.3C178.7 193.5 177.7 193.2 177.6 193.6L177.1 193.3C176 193.4 177.5 193.5 177.3 193.7C177.6 193.7 177.9 193.7 177.8 193.5C178.2 193.5 178.3 193.7 178.4 193.7C178.9 193.8 179.5 193.9 179.2 194.1C178.6 193.9 178.7 194.3 178.4 194.3L178.3 194.2C178.5 194.4 178.4 194.6 178.5 194.7H178.3C178.6 194.9 179.3 195 179.2 195.1C178.9 195.1 178 194.8 178.2 195C177.7 194.9 177.7 194.7 177.9 194.5C177.7 194.7 176.9 194.7 176.9 194.5C176.3 194.5 177.1 194.7 176.9 194.8C177.1 194.8 177.3 194.8 177.5 194.9C176.7 194.8 177.4 195.4 178 195.4L177.6 195.1C178.3 195.1 178.7 195.5 179.1 195.4C178 195.4 179.6 196.1 178.7 196.1H179.2C178.8 196.5 180 197 180.2 197.6C179.9 197.4 178.7 197.3 179.2 197C178.9 197.4 178.1 197 177.5 197.1C177 197.4 178.5 197.4 178.9 197.5L178.7 197.2C180 197.6 178.3 198.1 179.1 198.7C178.8 198.7 178.9 198.6 178.8 198.5C178.1 198.7 178.9 198.7 179.2 198.9C179.1 199.1 178.7 199.4 177.9 199.1C177.7 199.3 178.4 199.1 178.7 199.3H178.5L179.4 199.7C179.1 199.9 178.6 200.1 177.8 200.1C177.9 200.6 179.7 200.5 179.9 200.9C179.4 201.1 179.3 200.8 179 200.7L179.1 201C178.2 200.8 178.7 200.6 177.6 200.5C178.7 200.9 177.9 200.9 178.6 201.3H178.7C179.4 201.5 178.9 201.9 179 202.1C178.6 202 178.5 201.7 178.4 201.5C178 201.7 178.3 202.3 179.2 202.7C179 202.8 178.6 203.1 178.2 202.8C178 203.3 179.6 203.2 179.2 203.5L178.5 203.4C177.4 203.7 179.3 204.4 178.3 204.7L179.2 204.8C178.8 204.8 178.6 205 178.3 205L178 204.7C177.2 204.8 178.7 205 178.1 205.2C178.4 205.2 179 205.1 179.3 205.2C178.9 204.2 180.3 203.4 179.5 202.4C179.4 202.4 179.3 202.5 179.1 202.4C179.3 202.3 179.1 202.1 179.6 202.2H179.7C179.5 201.9 180.6 201.8 180.6 201.7C180 201.5 180.9 201.2 179.9 201.2L180.6 201.1C180.2 201 179.7 201 179.5 200.9C179.6 200.7 180 200.8 180.3 200.9C180.8 200.3 180.7 199.5 180.5 198.8L181 199C181.3 198.9 180.2 198.3 181.4 198.6C180.9 198.2 181.8 197.7 180.5 197.6C181.8 197.5 181.1 196.9 181 196.4C179.9 196.4 180.7 196 180.2 195.8C181.1 195.8 181 196.3 181.6 196.3C180.3 195.7 182.7 195.1 180.5 194.7C180.6 194.7 180.7 194.7 180.8 194.7C180.8 194.6 181.2 194.5 181.3 194.4C180.9 194.3 180.7 194.5 180.6 194.3C180.7 194.1 181.3 194.3 181.6 194.2C181.1 193.8 181 193.3 180.1 193.2C180.3 193.1 180.9 193.1 181 193.2C180.3 192.6 181.2 192.7 180.8 192.2C180.8 192.4 181.7 192.4 181.3 192.6C182.6 192.5 181.1 191.8 181.8 191.4L181 191.2C180.9 190.9 181.6 191 181.9 191.2C182.4 190.8 181.9 190.5 182 190.2C182.1 190.2 182.3 190.2 182.2 190.3L182.3 189.8C182.1 189.7 181.7 189.5 181.2 189.5C181.3 189.8 181.6 189.9 181.3 190.1Z" fill="#322015"/>
<path d="M177.1 193.7C177.3 193.7 177.4 193.6 177.4 193.6C177.3 193.7 177.2 193.7 177.1 193.7Z" fill="#322015"/>
<path d="M179.6 185.1C178.4 185.1 179.8 185.4 179.4 185.6C179.2 185.4 178.5 185.4 178.2 185.4C179.8 185.7 177.9 185.7 178.2 186.1C177.7 186.1 177.6 185.9 177 185.8C177.4 186.1 177.6 186.4 178.5 186.5C178.5 186.9 178.2 187.2 178.3 187.5C178 187.2 177.4 187.4 176.7 187.1C177.7 187.5 178.9 188.2 180.1 188.7C179.1 188.7 179 188.7 178.2 188.6C177.5 189.1 179.1 188.8 178.8 189.3L179 189.1C179.3 189.3 180.2 189.4 180.8 189.5L180.7 188.9C181.4 188.9 181.2 189.3 181.4 189.4C182.2 189.6 182 189.1 182.6 189.2C182.1 189.1 182.3 188.9 182 188.7H182.4C182.8 188.5 181.9 188.3 181.9 188C182 188 182.1 188 182.1 188C181.7 187.9 181.2 187.8 181.1 187.6V187.7C180.3 187.5 179.7 186.9 178.8 187.2L179.1 186.6C180 186.7 181.4 186.9 181.5 187.2L181.9 187.3C182.4 187.1 181.2 186.6 180.4 186.7C178.2 186.3 180.4 185.8 179.4 185.4C180 185.4 180.2 185.6 180.7 185.8C180.8 185.9 180.8 186 180.3 186C180.6 186.6 182.2 186 182 186.6C181.7 186.9 181 186.2 180.9 186.6L182.6 187C182.6 186.7 182.3 186.5 182.1 186.2C181 184.9 182 184.1 182 184.1C181.9 182.3 181.7 180.5 181.6 178.7C181.4 178.1 181.4 177.9 179.8 177.7C179.5 177.8 179.6 178.2 179 178C179.6 178.1 180 178.3 179.9 178.6C179.3 178.6 179.6 178.3 179.5 178.4V178.5C179.2 178.5 179 178.4 179 178.3C178.1 178.6 178.3 179.2 179.4 179.5C178.8 179.8 178.5 179.3 178 179.2C177.5 180.1 177.6 180.8 177.5 181.7C178.6 181.7 178.2 181.8 178.9 182L178.5 182.1C178.7 182.1 179.4 182.2 179.7 182C178.8 182.5 181.1 182.7 181.6 183.1H181C181.1 183.4 181.1 183.5 181.4 183.8C180.3 184.3 181.2 183.4 179.9 183.4L180.1 183.5C179.6 183.4 178.6 183.3 178.3 183.1C179.2 183.6 177.9 183.8 178.6 184.3C178 184.2 177.5 183.7 177.4 183.6C177.3 183.8 177.8 184.1 177.2 184.1L178 184.2C178.1 184.5 177.3 184.1 176.8 184.2C176.8 185 179.2 184.5 179.6 185.1Z" fill="#322015"/>
<path d="M178.8 192.5C178.9 192.4 178.8 192.3 178.8 192.3C178.7 192.3 178.7 192.4 178.8 192.5Z" fill="#322015"/>
<path d="M176.3 190.7C176.7 190.7 176.7 190.8 177.1 190.9C176.9 190.8 176.9 190.5 176.3 190.7Z" fill="#322015"/>
<path d="M173.9 213.7C174.1 213.8 174.3 214 174.5 214L174.3 213.7H173.9Z" fill="#322015"/>
<path d="M174.8 213.3L175.1 213.1L174.1 212.7C174.1 213 174.9 213 174.8 213.3Z" fill="#322015"/>
<path d="M175.5 212.6L175.7 212.7C175.7 212.7 175.6 212.6 175.5 212.6Z" fill="#322015"/>
<path d="M175.1 212.5L174.4 212.3L174.9 212.7L175.1 212.6C175.4 212.6 175.5 212.6 175.6 212.6L175.1 212.4C175.1 212.4 175.2 212.5 175.1 212.5Z" fill="#322015"/>
<path d="M176.6 211.8C176.3 211.8 175.9 211.6 175.6 211.5C175.3 211.7 176.4 211.9 176 212.1C175.5 211.6 175.5 212.2 175.1 212.2C175.8 212.3 176.3 212.2 176.6 212L176.1 211.9C176.1 211.7 176.4 211.9 176.6 211.8Z" fill="#322015"/>
<path d="M175.7 210.2L176.4 210.5C176.1 210.5 176 210.8 175.3 210.7C175.4 210.8 175.7 210.9 175.9 211C175.5 211 175.2 211.1 175.7 211.3C176.3 210.9 176.4 211 176.7 210.6C176.9 210.6 176.8 210.7 176.8 210.7L177.2 210.5C176.3 210.4 176.3 210 175.7 210.2Z" fill="#322015"/>
<path d="M176.3 209.8C176.3 210 177 210.3 177.4 210.2L176.9 209.6C177 209.8 177 210 176.3 209.8Z" fill="#322015"/>
<path d="M176.4 209.5C176.8 209.5 177.6 209.4 176.9 209.2C177 209.4 175.9 209.2 176.4 209.5Z" fill="#322015"/>
<path d="M177.3 207.9L176.8 208.3C175.8 208.3 176.5 208 176.1 207.8C175.8 208.2 176.2 208.1 176.7 208.5C176.6 208.6 177.1 208.8 177.3 209C176.7 208.3 179 208.6 177.3 207.9Z" fill="#322015"/>
<path d="M176.2 208.7L176.6 208.8L176.3 208.5L176.2 208.7Z" fill="#322015"/>
<path d="M178.5 207C179.7 206.9 177.9 206.4 178.5 206.1C178.6 206.1 178.7 206.1 178.8 206.2L178.7 205.9H179C178.3 205.8 178.1 205.5 177.6 205.3C176.9 205.5 178.4 205.5 177.6 205.7C177.3 205.6 176.9 205.5 176.6 205.4C176.9 205.6 177.3 205.7 177.7 205.8C177.8 206 177.4 205.9 177.1 205.9C177.5 206.1 178.4 206.3 178.2 206.6C177.6 206.7 177.3 206.4 177.5 206.7C178.6 206.7 177.3 207 177.9 207.2C177.7 207.4 177 207.5 176.6 207.4C177.4 207.5 178.1 207.8 178.3 208L177.7 207.5H178.7C178.2 207.3 178.3 207.1 178.5 207Z" fill="#322015"/>
<path d="M176.5 205.5C176.4 205.5 176.4 205.4 176.3 205.4C176.3 205.4 176.4 205.4 176.5 205.5Z" fill="#322015"/>
<path d="M176.3 207.5L176.1 207.4H175.8L176.3 207.5Z" fill="#322015"/>
<path d="M175.9 205.2C175.9 205.3 176.2 205.3 176.2 205.3L175.8 205.2H175.9Z" fill="#322015"/>
<path d="M176.5 205L177.1 204.9L176.7 204.8L176.5 205Z" fill="#322015"/>
<path d="M177.7 199.4C177.3 199.5 178 199.6 178.5 199.7C178.7 199.4 177.9 199.6 177.7 199.4Z" fill="#322015"/>
<path d="M177.2 195.7C176.7 195.9 177.4 196.1 177.3 196.3C177.7 196.1 177.5 195.9 177.2 195.7Z" fill="#322015"/>
<path d="M175.1 194C175.3 194.1 175.4 194.1 175.5 194L176.7 194.3C177.1 194.1 175.6 194 175.1 194Z" fill="#322015"/>
<path d="M175 192.3L175.4 192.6V192.5C175.9 192.6 176.1 192.7 176.5 192.8C176.3 192.5 175.9 192.3 175 192.3Z" fill="#322015"/>
<path d="M176.8 193C176.8 193 176.8 192.9 176.7 192.9C176.6 192.9 176.4 192.9 176.8 193Z" fill="#322015"/>
<path d="M176.7 192.8C176.6 192.8 176.6 192.8 176.6 192.8C176.7 192.9 176.7 192.9 176.7 193C176.8 192.9 176.9 192.9 176.7 192.8Z" fill="#322015"/>
<path d="M175.6 192.1L175.5 191.6L175.3 191.8C176 191.9 174.8 192 175.6 192.1Z" fill="#322015"/>
<path d="M176.4 189.6H177.1C177.3 189.3 175.8 188.8 176.9 188.7C176.5 188.8 176.1 188.4 175.9 188.8C176.6 188.9 176.6 189.4 176.4 189.6Z" fill="#322015"/>
<path d="M177.5 188.5C177.7 188.6 177.9 188.5 178.1 188.5C178.2 188.4 177.9 188.3 177.6 188.3C178.5 188.4 177 188.4 177.5 188.5Z" fill="#322015"/>
<path d="M177.5 187.1C177.5 187.2 177.6 187.3 177.8 187.2C177.8 186.9 177 187 176.5 186.8C176.1 187 177.2 187.2 177.5 187.1Z" fill="#322015"/>
<path d="M182.9 185.2C182.3 185.2 182.4 185.4 182.6 185.5C182.5 185.4 182.7 185.3 182.9 185.2Z" fill="#322015"/>
<path d="M177.8 184.9L177.7 185L178.6 185.1L177.8 184.9Z" fill="#322015"/>
<path d="M177.4 183.3L176.8 183.1L176.9 183.4L177.4 183.3Z" fill="#322015"/>
<path d="M177.5 183V182.7L177.3 182.8C177.1 182.9 177.5 182.9 177.5 183Z" fill="#322015"/>
<path d="M177.5 182.2C177.6 182.2 177.5 182.3 177.4 182.3L177.8 182.6L177.5 182.2Z" fill="#322015"/>
<path d="M181.4 177.9C182 178 181.6 177.7 181.8 177.6C181.6 177.6 180.8 177.8 181.4 177.9Z" fill="#322015"/>
</g>
</g>
<path d="M253.2 39.6C246.7 43.6 238.7 47.9 237.1 49.7C235.5 51.4 233.2 56.4 233 57C226.7 42 223.2 34.9 223.6 27.6C224 21.1 226.3 18.7 229.9 15.7C232.9 13.1 231.9 11.6 231.6 11.1C238.2 8.69999 251.6 3.79999 253.7 3.09999C256.5 2.29999 257.8 11.7 255.5 17.5C253.2 23.3 246.5 27.7 242.2 30.1C238 32.4 234.2 36.4 234.6 38.6C235.1 40.8 257.1 30.7 258 30.3C259.1 29.9 259.8 35.6 253.2 39.6Z" fill="#343434"/>
<path d="M197.8 26.8C196.1 32.6 188.6 40.5 190.5 63.8C192.5 87.2 192.7 89.2999 189.7 88.3999C189.7 88.3999 186.4 107.2 182.5 103.5C182.5 103.5 180.7 110.3 171.1 117.9C161.6 125.4 140.1 143 140.9 155.2C135.6 154.1 129.1 154.6 121.4 157.3C121.4 157.3 114.7 158.4 107.3 167.9C103.6 172.7 104.1 180.5 102.3 177.8C102.3 177.8 100.4 176.9 97.9001 191.9C96.9001 198.1 96.1001 195.3 96.1001 195.3C96.1001 195.3 93.5001 203.3 96.2001 214.2C93.9001 208.5 92.1001 202.1 90.9001 195C87.0001 171.1 96.8001 144.3 115.8 125.8C134.8 107.3 160.6 84.9 166 79.8C171.4 74.6 175.1 65.3 176.8 59.4C178.5 53.5 187.6 27.2 187.6 27.2C187.6 27.2 179 4.79995 177.8 2.59995C177.7 2.49995 177.8 2.39995 177.8 2.19995C178.8 2.89995 183.1 6.09995 189.7 11.1C197.4 16.9 199.5 21 197.8 26.8Z" fill="#343434"/>
<path d="M165.3 239C166.4 232.8 160.1 228 154.3 226.9C148.5 225.8 138.4 226.1 138.4 226.1H130.1" stroke="#1B1C1E" stroke-width="1.2604" stroke-miterlimit="10" stroke-linecap="round" stroke-linejoin="round"/>
<path d="M121.4 157.4C160.4 144 168.2 185.7 153.9 208.5C146.9 219.7 140.1 224.3 136.2 226.1" stroke="#1B1C1E" stroke-width="1.2604" stroke-miterlimit="10" stroke-linecap="round" stroke-linejoin="round"/>
<path d="M204 152.3C204 152.3 204 155.5 204.2 160.8C204.3 162.5 204.4 164.3 204.6 166.4C205.9 183.2 210.2 211.4 223.8 229C223.8 229 238.5 228.8 237.4 239.1C237.4 239.1 219.7 239.1 217.1 239.1C214.5 239.1 201.8 223.5 194.8 212.8C194.8 212.8 192 216.9 191.7 209.9C191.7 209.9 189.9 212.9 188.3 211.2C186.7 209.5 188.3 200.1 188.3 200.1C188.3 200.1 186.6 203.4 185.1 201.9C183.6 200.5 184.5 193.7 184.5 193.7C184.5 193.7 180.7 198 181.2 191.7C181.3 190.4 175.3 180.5 176.3 177.4C180.1 166.1 195.9 154.3 204 152.3Z" fill="#B37D4F"/>
<path d="M204.6 166.4C205.9 183.2 210.2 211.4 223.8 229C223.8 229 238.5 228.8 237.4 239.1" stroke="#1B1C1E" stroke-width="1.2604" stroke-miterlimit="10" stroke-linecap="round" stroke-linejoin="round"/>
<path d="M204 152.3C204 152.3 204 155.5 204.2 160.8C204.3 162.5 204.4 164.3 204.6 166.4" stroke="#1B1C1E" stroke-width="1.2604" stroke-miterlimit="10" stroke-linecap="round" stroke-linejoin="round"/>
<path d="M233.1 239C233.1 239 233.3 235.2 230.6 233.7" stroke="#1B1C1E" stroke-width="1.2604" stroke-miterlimit="10" stroke-linecap="round" stroke-linejoin="round"/>
<path d="M181.1 239C181.1 239 181.1 235.1 177.7 233" stroke="#1B1C1E" stroke-width="1.2604" stroke-miterlimit="10" stroke-linecap="round" stroke-linejoin="round"/>
<path d="M174.8 239C174.8 239 174.4 235.4 171.5 233.9" stroke="#1B1C1E" stroke-width="1.2604" stroke-miterlimit="10" stroke-linecap="round" stroke-linejoin="round"/>
<path d="M159.7 239C159.7 239 159.7 235.1 156.3 233" stroke="#1B1C1E" stroke-width="1.2604" stroke-miterlimit="10" stroke-linecap="round" stroke-linejoin="round"/>
<path d="M153.3 239C153.3 239 152.9 235.4 150 233.9" stroke="#1B1C1E" stroke-width="1.2604" stroke-miterlimit="10" stroke-linecap="round" stroke-linejoin="round"/>
<path d="M204.5 46.3C204.5 46.3 204.1 56.5 206 58C207.9 59.5 209.4 55.6 209.6 56C209.7 56.4 211.9 60.5 213.5 60.5C214.9 60.5 214.7 58.4 214.7 58.4C215.2 58.8 218.4 61.4 220.2 59.2" stroke="#1B1C1E" stroke-width="1.2604" stroke-miterlimit="10" stroke-linecap="round" stroke-linejoin="round"/>
<path d="M249.9 4C249.5 4.2 249.2 4.7 249.3 5.1C249.4 6.2 250 8.2 251.8 9.5C254.4 11.4 257.1 9.5 257.3 8.8C257.5 8.1 256.9 2.5 254.7 2.5C253.1 2.6 251 3.5 249.9 4Z" fill="#1B1C1E" stroke="#1B1C1E" stroke-width="1.1485" stroke-miterlimit="10" stroke-linecap="round" stroke-linejoin="round"/>
<path d="M217.3 17.3C217.3 17.3 222.5 14 223.7 13.4C224.6 12.9 225.9 16.5 224.2 18.1C222.7 19.4 220.4 18.3 219.5 17.1C219.5 17.1 218.2 17.3 217.3 17.3Z" fill="#1B1C1E" stroke="#1B1C1E" stroke-width="1.1485" stroke-miterlimit="10" stroke-linecap="round" stroke-linejoin="round"/>
</svg>
