<svg width="144" height="206" viewBox="0 0 144 206" fill="none" xmlns="http://www.w3.org/2000/svg">
<path d="M3.6 202.1C3.6 202.1 -2.50001 204.2 14.2 204.9C30.9 205.6 119.2 205.9 128.2 204.9C137.3 203.9 155 204.5 131.5 202.1C108 199.7 83.9 201.2 60.3 199.7C36.7 198.2 7.1 199.7 3.6 202.1Z" fill="#1B1C1E"/>
<path d="M118.4 132.1C118.4 132.1 125.8 130.2 126.2 122C126.2 122 134 126.1 134.3 136.8C134.6 147.5 126.3 152.1 126.3 152.1C126.3 152.1 115 145 118.4 132.1Z" fill="#FBAF5E"/>
<mask id="mask0_70_111" style="mask-type:luminance" maskUnits="userSpaceOnUse" x="117" y="122" width="18" height="31">
<path d="M118.4 132.1C118.4 132.1 125.8 130.2 126.2 122C126.2 122 134 126.1 134.3 136.8C134.6 147.5 126.3 152.1 126.3 152.1C126.3 152.1 115 145 118.4 132.1Z" fill="white"/>
</mask>
<g mask="url(#mask0_70_111)">
<g opacity="0.62">
<path d="M124.6 143.1C124.7 143.1 124.8 143.1 124.9 143.1C124.9 143 124.9 143 124.6 143.1Z" fill="#3E240C"/>
<path d="M123.5 139L123.2 139.2C123.3 139.1 123.4 139.1 123.5 139Z" fill="#3E240C"/>
<path d="M128.5 141.7C128.6 141.7 128.6 141.6 128.7 141.6C128.6 141.7 128.6 141.7 128.5 141.7Z" fill="#3E240C"/>
<path d="M122.4 137.7C122.3 137.7 122.3 137.7 122.2 137.7C122.2 137.8 122.3 137.8 122.4 137.7Z" fill="#3E240C"/>
<path d="M125.1 145.7C126.2 145.5 125.2 145.8 126.3 145.7C126 145.6 125.9 145.6 126.4 145.5C127 145.5 126.4 145.7 127.3 145.6L126.9 145.5C127.4 145.4 128.1 145.4 128 145.3C126.7 145.4 128.4 144.8 128.2 144.7H128.3L128.9 144.4C128.9 144.4 128.9 144.4 129 144.4C128.9 144.4 128.9 144.4 128.8 144.4C129.4 144.2 129.8 144 129.6 143.8C128.9 143.9 129.2 143.3 128.6 143.4C128.8 143.4 128.8 143.5 128.7 143.6L127.8 143.8C127.8 143.6 128.6 143.6 128 143.6C126.8 143.9 128 143.8 127.9 143.9C127.6 143.9 127.4 143.9 127.2 143.9C127.2 144.1 126.8 144.4 128.1 144.3C127.9 144.4 127.4 144.5 127.2 144.4C127.9 144.4 126.6 144.6 127.2 144.6C126.1 144.7 126.6 144.4 125.9 144.4C126.7 144 125.9 144 125.6 143.8C126.4 143.6 127.1 143.6 127.6 143.4C128.1 143.1 127.1 143.3 126.6 143.3C126.8 143.1 127.9 142.9 127.9 142.7H128.5C129.6 142.2 128 142.7 128.2 142.5C127.9 142.6 127.6 142.7 127.7 142.8C127.3 142.9 127.1 142.9 127 142.8C126.4 142.9 125.9 143.1 126.1 142.8C126.8 142.7 126.6 142.5 126.9 142.4H127.1C126.8 142.4 126.9 142.2 126.8 142.2H127C126.7 142.2 125.9 142.4 126 142.3C126.3 142.2 127.3 142 127.1 142C127.6 141.9 127.7 142 127.6 142.2C127.7 142 128.5 141.7 128.6 141.8C129.2 141.6 128.3 141.7 128.5 141.6C128.3 141.7 128.1 141.7 127.9 141.8C128.7 141.5 127.9 141.5 127.3 141.7H127.8C127.1 141.9 126.6 141.9 126.3 142.1C127.3 141.7 125.7 141.9 126.5 141.5L126 141.8C126.2 141.4 124.9 141.6 124.6 141.5C125 141.4 126.1 141 125.8 141.3C125.9 141 126.9 140.8 127.4 140.4C127.7 140 126.3 140.7 125.9 140.8L126.2 140.9C124.8 141.3 126.2 140.3 125.3 140.4C125.6 140.2 125.5 140.4 125.7 140.3C126.3 139.9 125.5 140.2 125.2 140.3C125.3 140.1 125.5 139.8 126.3 139.5C126.4 139.3 125.8 139.8 125.5 139.8L125.7 139.7L124.7 140C124.9 139.8 125.2 139.4 126 138.9C125.7 138.7 124.2 139.8 123.8 139.8C124.1 139.5 124.4 139.5 124.7 139.3L124.5 139.2C125.4 138.8 125.1 139.1 126.1 138.6C125 139 125.7 138.6 124.9 138.8L124.8 138.9C124.1 139.2 124.4 138.7 124.2 138.7C124.6 138.5 124.8 138.6 125 138.6C125.3 138.3 124.7 138.1 123.8 138.6C123.9 138.4 124.1 138.1 124.6 137.9C124.6 137.6 123.3 138.6 123.4 138.3L124 137.8C124.7 136.9 122.8 138 123.5 137.1L122.7 137.7C123 137.4 123.1 137.2 123.3 136.9L123.6 136.8C124.2 136.2 122.9 137.2 123.3 136.7C123.1 136.9 122.6 137.4 122.4 137.6C123.2 137.7 122.4 138.9 123.5 138.8C123.6 138.7 123.7 138.6 123.8 138.5C123.6 138.7 123.9 138.6 123.5 138.9H123.4C123.7 138.9 122.7 139.6 122.8 139.7C123.4 139.4 122.7 140.1 123.6 139.4L123 139.8C123.4 139.6 123.8 139.3 124 139.3C124 139.4 123.6 139.7 123.3 139.7C123.1 140.2 123.4 140.5 123.9 140.7L123.4 140.8C123.2 141 124.4 140.7 123.1 141.2C123.7 141.1 122.9 141.8 124.2 141.2C123 141.9 123.8 141.8 124.1 142C125.2 141.5 124.5 142.1 125 141.9C124.1 142.2 124 142 123.5 142.3C124.9 142 122.7 143.3 125 142.6C124.9 142.7 124.8 142.7 124.7 142.7C124.7 142.7 124.3 142.9 124.3 143C124.7 142.9 124.9 142.7 125 142.8C124.9 142.9 124.3 143.1 124 143.2C124.6 143.2 124.9 143.4 125.8 143.2C125.6 143.3 125.1 143.5 124.9 143.5C125.7 143.6 124.8 143.8 125.3 144C125.2 143.9 124.3 144.2 124.7 143.9C123.4 144.3 125 144.3 124.4 144.6L125.3 144.5C125.5 144.6 124.7 144.8 124.3 144.7C123.8 145 124.3 145 124.4 145.2C124.3 145.2 124.1 145.2 124.2 145.2V145.4C124.4 145.4 124.9 145.4 125.4 145.4C125.1 145.9 124.8 145.9 125.1 145.7Z" fill="#3E240C"/>
<path d="M128.7 142.5C128.5 142.6 128.4 142.6 128.4 142.7C128.5 142.6 128.6 142.5 128.7 142.5Z" fill="#3E240C"/>
<path d="M127.2 148.4C128.5 148.4 127 148.2 127.3 148.1C127.5 148.2 128.3 148.2 128.6 148.2C126.9 148 128.9 148 128.6 147.7C129.2 147.7 129.2 147.8 129.8 147.9C129.4 147.7 129.1 147.5 128.2 147.4C128.2 147.1 128.5 146.9 128.3 146.8C128.7 147 129.2 146.8 130.1 146.9C129 146.7 127.7 146.3 126.3 146.2C127.3 146.1 127.4 146 128.4 146C129 145.6 127.4 146 127.7 145.7L127.5 145.9C127.2 145.8 126.2 145.9 125.5 145.9L125.7 146.2C125 146.3 125.1 146.1 124.9 146C124 146 124.3 146.2 123.6 146.3C124.2 146.3 124 146.4 124.3 146.5H123.9C123.5 146.7 124.5 146.7 124.5 146.8C124.4 146.8 124.3 146.8 124.2 146.8C124.6 146.8 125.2 146.8 125.3 146.9V146.8C126.2 146.9 126.8 147.1 127.8 146.9L127.5 147.3C126.5 147.3 125 147.3 124.8 147.1H124.4C123.8 147.2 125.2 147.4 126 147.3C128.4 147.4 126.1 147.8 127.1 148.1C126.4 148.1 126.2 148 125.7 147.9C125.6 147.8 125.6 147.8 126.2 147.8C125.8 147.5 124.1 147.9 124.3 147.5C124.6 147.3 125.4 147.7 125.4 147.4L123.6 147.3C123.7 147.4 124 147.5 124.2 147.7C124.8 148 124.8 148.3 124.7 148.5C124.6 148.7 124.3 148.8 124.3 148.8C124.4 149.7 124.5 150.7 124.4 151.7C124.6 152.1 124.5 152.1 126.1 152.8C126.5 152.9 126.4 152.6 127 152.9C126.4 152.7 126.1 152.4 126.2 152.3C126.8 152.5 126.5 152.5 126.6 152.5H126.7C127 152.6 127.2 152.7 127.2 152.8C128.2 152.9 128.1 152.4 126.9 151.9C127.6 151.9 127.9 152.3 128.3 152.5C128.9 152 128.9 151.5 129.1 150.9C128 150.7 128.4 150.7 127.6 150.5H128C127.8 150.5 127 150.3 126.8 150.4C127.8 150.2 125.3 149.8 124.8 149.5L125.4 149.6C125.3 149.4 125.3 149.4 125 149.2C126.2 149 125.2 149.5 126.6 149.5L126.4 149.4C127 149.5 128 149.7 128.4 149.8C127.5 149.4 128.8 149.4 128.1 149C128.8 149.1 129.3 149.4 129.3 149.5C129.4 149.4 128.9 149.1 129.5 149.2L128.7 149.1C128.6 148.9 129.5 149.2 130 149.1C130.3 148.5 127.7 148.8 127.2 148.4Z" fill="#3E240C"/>
<path d="M127.3 143.8C127.2 143.9 127.3 143.9 127.4 143.9C127.4 143.9 127.4 143.8 127.3 143.8Z" fill="#3E240C"/>
<path d="M130.2 144.3C129.8 144.4 129.8 144.3 129.3 144.4C129.6 144.4 129.6 144.6 130.2 144.3Z" fill="#3E240C"/>
<path d="M121.2 130.7C121 130.9 120.8 131 120.7 131.2L121 131.1L121.2 130.7Z" fill="#3E240C"/>
<path d="M120.9 131.7L120.8 132.1L121.6 131.3C121.5 131.1 121.1 131.8 120.9 131.7Z" fill="#3E240C"/>
<path d="M120.9 132.5L120.7 132.7C120.8 132.6 120.9 132.5 120.9 132.5Z" fill="#3E240C"/>
<path d="M121.2 132.1L121.8 131.5L121.2 131.8V132.1C121 132.2 121 132.4 120.9 132.5L121.3 132.1C121.3 132.1 121.2 132.2 121.2 132.1Z" fill="#3E240C"/>
<path d="M121.4 132.2C121.4 132.1 121.5 132.1 121.5 132C121.5 132.1 121.4 132.2 121.4 132.2Z" fill="#3E240C"/>
<path d="M120.8 133.7C121 133.4 121.3 133.2 121.6 132.9C121.7 132.5 120.9 133.5 121 133.1C121.6 132.8 121.2 132.7 121.5 132.3C121 132.8 120.7 133.3 120.8 133.7L121.1 133.2C121.1 133.3 120.9 133.5 120.8 133.7Z" fill="#3E240C"/>
<path d="M122.3 133.3L121.7 133.8C121.9 133.5 121.8 133.4 122.3 132.8C122.2 132.8 121.9 133.1 121.7 133.2C121.9 132.9 122.1 132.6 121.7 133C121.6 133.6 121.4 133.7 121.5 134.1C121.4 134.2 121.4 134.2 121.4 134.1L121.3 134.5C121.8 133.8 122.1 133.9 122.3 133.3Z" fill="#3E240C"/>
<path d="M122.1 134C122 133.9 121.4 134.4 121.1 134.8L121.7 134.6C121.7 134.5 121.6 134.5 122.1 134Z" fill="#3E240C"/>
<path d="M122.3 134.1C122.1 134.4 121.5 135.1 122.1 134.6C121.9 134.6 122.8 133.8 122.3 134.1Z" fill="#3E240C"/>
<path d="M122.5 135.4L122.7 134.8C123.4 134 123 134.7 123.4 134.4C123.4 134.1 123.2 134.4 122.6 134.7C122.6 134.6 122.1 134.9 121.9 135C122.7 134.8 121 136.5 122.5 135.4Z" fill="#3E240C"/>
<path d="M122.8 134.3L122.5 134.6L122.8 134.4V134.3Z" fill="#3E240C"/>
<path d="M122.2 136.7C121.4 137.6 122.9 136.5 122.7 137C122.6 137 122.6 137.1 122.4 137.2H122.6L122.4 137.4C122.9 136.9 123.3 136.9 123.8 136.6C124.3 136 123.1 137.1 123.6 136.4C123.9 136.2 124.3 135.9 124.5 135.8C124.2 135.9 123.8 136.2 123.5 136.4C123.4 136.4 123.7 136.1 123.9 135.9C123.5 136.1 122.7 136.8 122.8 136.5C123.2 136 123.6 135.9 123.3 135.9C122.5 136.7 123.3 135.6 122.7 136.1C122.8 135.8 123.2 135.3 123.5 135C122.8 135.6 122.2 136 121.9 136.1L122.6 135.8L121.9 136.6C122.2 136.3 122.2 136.5 122.2 136.7Z" fill="#3E240C"/>
<path d="M124.4 135.8C124.5 135.8 124.5 135.7 124.6 135.7C124.6 135.7 124.5 135.7 124.4 135.8Z" fill="#3E240C"/>
<path d="M123.5 134.8L123.7 134.7L123.9 134.4L123.5 134.8Z" fill="#3E240C"/>
<path d="M125.1 135.4C125.1 135.3 124.8 135.6 124.8 135.6L125.2 135.3L125.1 135.4Z" fill="#3E240C"/>
<path d="M124.6 136L124.2 136.4L124.6 136.2V136Z" fill="#3E240C"/>
<path d="M126.2 139.4C126.5 139.1 125.8 139.5 125.4 139.7C125.4 140 126 139.4 126.2 139.4Z" fill="#3E240C"/>
<path d="M128 141.3C128.4 141 127.7 141.1 127.7 141C127.4 141.2 127.7 141.3 128 141.3Z" fill="#3E240C"/>
<path d="M130.7 141.6C130.5 141.6 130.3 141.6 130.3 141.7L129 141.9C128.6 142.3 130.2 141.8 130.7 141.6Z" fill="#3E240C"/>
<path d="M131.2 142.9L130.7 142.8V142.9C130.2 143 129.9 143 129.5 143C129.8 143.1 130.3 143.1 131.2 142.9Z" fill="#3E240C"/>
<path d="M129.2 142.9C129.5 142.9 129.6 142.8 129.2 142.9V142.9Z" fill="#3E240C"/>
<path d="M129.3 143C129.4 143 129.4 143 129.4 143C129.4 143 129.4 142.9 129.3 143C129.2 143 129.1 143 129.3 143Z" fill="#3E240C"/>
<path d="M130.6 143.2L130.8 143.5L131 143.3C130.3 143.4 131.5 143 130.6 143.2Z" fill="#3E240C"/>
<path d="M130.3 145.1L129.5 145.2C129.4 145.4 131 145.5 129.8 145.8C130.3 145.7 130.7 145.9 130.9 145.6C130.2 145.6 130.1 145.3 130.3 145.1Z" fill="#3E240C"/>
<path d="M129.3 146.1C129.1 146.1 128.9 146.1 128.7 146.2C128.6 146.3 129 146.3 129.3 146.3C128.2 146.3 129.9 146.1 129.3 146.1Z" fill="#3E240C"/>
<path d="M129.4 147.1C129.4 147 129.3 147 129.1 147.1C129.2 147.3 130 147.2 130.5 147.3C131 147 129.8 146.9 129.4 147.1Z" fill="#3E240C"/>
<path d="M123.7 148.3C124.4 148.3 124.3 148.2 124 148.2C124.2 148.2 124 148.3 123.7 148.3Z" fill="#3E240C"/>
<path d="M129.2 148.6L129.3 148.5L128.3 148.4L129.2 148.6Z" fill="#3E240C"/>
<path d="M129.6 149.7L130.3 149.9L130.2 149.7H129.6Z" fill="#3E240C"/>
<path d="M129.4 149.9V150.1H129.7C129.9 150 129.4 150 129.4 149.9Z" fill="#3E240C"/>
<path d="M129.5 150.5C129.4 150.5 129.6 150.5 129.7 150.5L129.3 150.3L129.5 150.5Z" fill="#3E240C"/>
<path d="M124.9 152.2C124.3 152 124.6 152.2 124.5 152.1C124.6 152.2 125.5 152.4 124.9 152.2Z" fill="#3E240C"/>
</g>
</g>
<path d="M10.2999 92.6C10.2999 92.6 8.69989 135.7 12.3999 184.1C12.3999 184.1 6.1999 191.8 9.7999 202.1C9.7999 202.1 32.0999 202.1 34.9999 202.1C34.9999 202.1 40.9999 190.8 41.9999 175.3H61.7999C61.7999 175.3 69.1999 185.9 74.3999 194.8C75.9999 197.5 76.7999 201.1 77.9999 202.1C77.9999 202.1 120.9 202.1 121.6 202.1C122.3 202.1 129.7 177.1 128.1 155.4C128 154.3 127.9 153.2 127.8 152.1C127.2 147.5 126.1 143.7 124.7 140.3C123.3 137.1 121.7 134.3 119.7 131.7C115.1 125.5 109.1 120.8 103.1 115C94.1999 106.4 87.2999 88.9 87.2999 88.9C87.2999 88.9 90.0999 83.1 59.9999 81.7C29.8999 80.4 11.7999 84.7 10.2999 92.6Z" fill="#FBAF5E"/>
<path d="M61.7999 175.3L58.8999 170.9" stroke="#1B1C1E" stroke-width="1.2604" stroke-miterlimit="10" stroke-linecap="round" stroke-linejoin="round"/>
<path d="M80.7 133.9C74.8 146 68.4 147.3 68.4 147.3C60.9 156.3 57.4 156.5 57.4 156.5C53.4 161.8 45.7 167.1 45.7 167.1C39.9 164.9 34.3 155.9 34.3 155.9C29.3 155 24.9 144.9 24.9 144.9C15.2 139.4 11.1 125 9.79998 118.9C9.69998 102.9 10.1 92.7 10.1 92.7C11.7 84.9 29.7 80.5 59.8 81.9C89.9 83.3 87.1 89.1 87.1 89.1C87.1 89.1 88.2 91.8 90 95.6C96.7 121.4 80.7 133.9 80.7 133.9Z" fill="#FFF0DD"/>
<path d="M87.2 88.9C88.9 93.3 88 98.3 84.7 101.7C76.6 110.1 60.3 123.7 41.4 121C31.5 119.6 24.2 115.7 19.1 111.7C13.2 107.1 10 100 10.2 92.5C11.8 84.7 29.8 80.3 59.9 81.7C90 83.1 87.2 88.9 87.2 88.9Z" fill="#D1493B"/>
<path d="M51.0999 117.5C51.0999 112.7 47.1999 108.9 42.4999 108.9C37.7999 108.9 33.8999 112.8 33.8999 117.5C33.8999 119.7 34.6999 121.7 36.0999 123.2C37.6999 125 39.9999 126.1 42.4999 126.1C47.1999 126.1 51.0999 122.3 51.0999 117.5Z" fill="#FFAE1F"/>
<path d="M36 123.2C37.6 125 39.9 126.1 42.4 126.1C47.2 126.1 51 122.2 51 117.5" stroke="#1B1C1E" stroke-width="1.2604" stroke-miterlimit="10" stroke-linecap="round" stroke-linejoin="round"/>
<path d="M62.9999 33.6C62.9999 33.6 72.8999 16 76.5999 3.09999C77.2999 0.699995 80.1999 -0.100005 82.0999 1.59999C89.2999 8.29999 101.4 25.5 84.7999 56.4C84.8999 56.4 61.8999 47.8 62.9999 33.6Z" fill="#FBAF5E"/>
<path d="M84.1998 50.3C82.6998 47.1 80.7998 43.9 78.0998 41.2C75.0998 38.2 74.3998 33.6 75.9998 29.7C78.7998 23.1 81.1998 15.2 82.2998 11.4C82.5998 10.4 83.8998 10.2 84.4998 11.1C95.9998 27.6 84.1998 50.3 84.1998 50.3Z" fill="#BC763C"/>
<path d="M84.2 50.3C83.2 52.4 66.7 45.8 72.1 37.6C72.2 37.4 72.4 37.1 72.6 36.9C78.3 40.1 81.8 45.1 84.2 50.3Z" fill="#BC763C"/>
<path d="M93.8999 79.8C87.4999 91.7 75.7999 100.5 65.1999 106.6C50.9999 114.7 33.2999 113.3 20.6999 102.9C3.7999 89 -0.600097 74.9 0.999903 73.8C1.6999 73.3 2.8999 71 4.1999 68.2C4.1999 68.2 9.09991 67.6 18.0999 72.6C26.9999 77.5 33.5999 73.7 35.2999 57.3C37.1999 37.9 40.4999 32.6 40.4999 32.6C43.5999 32.3 47.3999 32.1 51.3999 32.3C51.3999 32.3 44.4999 59.9 52.3999 71.9C57.8999 80.3 69.3999 74.7 76.4999 70.9C83.4999 67.2 89.0999 66.9 89.0999 66.9C89.2999 67.5 89.3999 68.1 89.4999 68.5C90.9999 73.8 93.8999 79.8 93.8999 79.8Z" fill="#FFF0DD"/>
<path d="M35.3 33.4C36.7 33 38.4 32.8 40.5 32.5C40.5 32.5 37.2 37.8 35.3 57.2C33.7 73.5 27.1 77.4 18.1 72.5C9.19996 67.5 4.19995 68.1 4.19995 68.1C6.79995 62.2 9.79996 53.9 9.79996 53.9C-3.20004 25 10.5 8.3 18.6 1.5C20.7 -0.200004 23.9 0.999993 24.3 3.69999C26.7 19.4 35.3 33.4 35.3 33.4Z" fill="#FBAF5E"/>
<path d="M88.9 66.8C88.9 66.8 83.3 67.1 76.3 70.8C69.3 74.5 57.8 80.2 52.2 71.8C44.4 59.8 51.2 32.2 51.2 32.2C57.1 32.4 63.3 33.2 68.3 35C69.4 35.4 70.4 35.8 71.4 36.3C71.7 36.5 72.1 36.6 72.4 36.8C78.1 40 81.7 45 84 50.2C84.7 51.6 85.2 53 85.7 54.4C87.5 59.4 88.3 64 88.9 66.8Z" fill="#FBAF5E"/>
<path d="M44.6 81.3C42.4 83.1 39.3 83 37.2 81.1C35.3 79.4 33.2 76.9 33.2 74.1C33.2 70.9 47.9 70.8 48.3 74.1C48.8 76.9 46.7 79.5 44.6 81.3Z" fill="#1B1C1E"/>
<path d="M29.0999 66.6C29.0999 68.2 27.8999 70 26.0999 69.9C24.1999 69.7 23.3999 68 23.3999 66.5C23.3999 64.9 24.7999 63.7 26.2999 63.7C27.8999 63.7 29.0999 65 29.0999 66.6Z" fill="#1B1C1E"/>
<path d="M59.8 67.5C59.8 69.1 58.5 70.7 57 70.6C55.4 70.6 54.1 68.9 54.2 67.3C54.2 65.7 55.6 64.5 57.1 64.5C58.6 64.6 59.8 65.9 59.8 67.5Z" fill="#1B1C1E"/>
<path d="M19.9999 40.6C16.2999 43.7 13.4999 47.5 11.7999 50.3C-0.100142 28.1 16.9999 2.99997 17.5999 12.8C17.8999 17.9 20.3999 24.5 22.5999 29.6C24.3999 33.4 23.2999 37.9 19.9999 40.6Z" fill="#BC763C"/>
<mask id="mask1_70_111" style="mask-type:luminance" maskUnits="userSpaceOnUse" x="25" y="166" width="17" height="24">
<path d="M41.9999 175.3C41.6999 180.6 40.6999 185.4 39.6999 189.5C28.5999 182.3 25.8999 169.3 25.3999 166.1C31.9999 176.2 41.9999 175.3 41.9999 175.3Z" fill="white"/>
</mask>
<g mask="url(#mask1_70_111)">
<g opacity="0.62">
<path d="M35.9999 173.8C35.9999 173.9 35.8999 174 35.8999 174.1C35.8999 174.1 35.9999 174 35.9999 173.8Z" fill="#3E240C"/>
<path d="M32.2 172L32.3999 171.7C32.3999 171.8 32.3 171.9 32.2 172Z" fill="#3E240C"/>
<path d="M35.2001 176.3C35.2001 176.4 35.2001 176.5 35.1001 176.8L35.2001 176.3Z" fill="#3E240C"/>
<path d="M34.1 177.4C34.1 177.5 34 177.5 34 177.6C34 177.5 34 177.5 34.1 177.4Z" fill="#3E240C"/>
<path d="M39.7 174.2C39.7 174.1 39.7 174.1 39.7 174.1C39.8 174.1 39.7 174.1 39.7 174.2Z" fill="#3E240C"/>
<path d="M39.6001 175.3C39.6001 175.4 39.7001 175.4 39.6001 175.3V175.3Z" fill="#3E240C"/>
<path d="M39.8001 173.7C39.8001 173.8 39.8001 173.9 39.8001 174C39.8001 173.9 39.7001 173.9 39.8001 173.7Z" fill="#3E240C"/>
<path d="M36.1 173.7C36.1 173.8 36 173.8 36 173.9C36.1 173.8 36.1 173.7 36.1 173.7Z" fill="#3E240C"/>
<path d="M31.2 170.7C31.2 170.6 31.2 170.6 31.2 170.5C31.3 170.5 31.3 170.6 31.2 170.7Z" fill="#3E240C"/>
<path d="M38.5 174.7C38.1 175.8 38.6 174.8 38.3 175.8C38.3 175.5 38.3 175.4 38.1 175.9C38 176.5 38.3 175.9 38 176.8V176.4C37.8 176.8 37.7 177.6 37.6 177.5C37.9 176.2 37.1 177.9 37 177.6V177.7L36.6 178.2C36.6 178.2 36.6 178.2 36.6 178.3C36.6 178.2 36.6 178.2 36.7 178.1C36.4 178.7 36.1 179 36 178.8C36.2 178.1 35.6 178.4 35.7 177.7C35.7 177.9 35.7 177.9 35.9 177.8L36.2 177C36.1 177 35.9 177.8 35.9 177.2C36.4 176.1 36.1 177.3 36.3 177.2C36.4 176.9 36.4 176.7 36.4 176.5C36.6 176.5 36.9 176.2 36.7 177.4C36.8 177.2 37 176.7 37 176.6C36.9 177.3 37.3 176 37.2 176.6C37.5 175.5 37.1 175.9 37.2 175.3C36.7 176.1 36.8 175.2 36.7 175C36.4 175.8 36.2 176.5 36 176.9C35.6 177.3 36 176.4 36.1 175.9C35.8 176.1 35.5 177.1 35.3 177.1L35.2 177.6C34.6 178.6 35.3 177.1 35.1 177.3C35.3 177 35.4 176.8 35.5 176.9C35.7 176.5 35.7 176.3 35.7 176.3C35.9 175.8 36.1 175.2 35.9 175.4C35.7 176.1 35.6 175.8 35.4 176.1V176.2C35.4 175.9 35.3 176 35.3 175.8L35.2 176C35.3 175.7 35.6 174.9 35.4 175.1C35.2 175.4 34.9 176.3 34.9 176.1C34.7 176.6 34.8 176.7 35 176.6C34.8 176.7 34.3 177.4 34.5 177.5C34.2 178.1 34.5 177.2 34.3 177.4C34.4 177.2 34.5 177 34.6 176.8C34.2 177.6 34.3 176.7 34.6 176.2L34.5 176.7C34.9 176.1 34.9 175.6 35.2 175.3C34.6 176.2 35.1 174.6 34.6 175.4L34.9 174.9C34.5 175.1 34.9 173.8 34.9 173.4C34.8 173.7 34.1 174.8 34.5 174.5C34.1 174.5 33.8 175.5 33.4 175.9C33 176.1 33.9 174.9 34.1 174.5V174.8C34.7 173.5 33.5 174.7 33.7 173.8C33.5 174.1 33.6 174 33.6 174.1C33.1 174.6 33.6 173.9 33.7 173.6C33.5 173.6 33.2 173.8 32.7 174.5C32.4 174.6 33 174.1 33.1 173.8L33 173.9L33.5 173C33.2 173.2 32.8 173.4 32.2 174C32.1 173.7 33.4 172.4 33.5 172C33.1 172.3 33.1 172.5 32.9 172.8L32.8 172.6C32.2 173.4 32.6 173.1 31.9 174C32.5 173 31.9 173.6 32.3 172.8L32.4 172.7C32.9 172 32.3 172.3 32.3 172.1C32 172.5 32.1 172.6 32 172.8C31.6 173 31.6 172.5 32.2 171.6C32 171.7 31.6 171.8 31.4 172.2C31.1 172.1 32.4 171.1 32 171.1L31.4 171.7C30.4 172.3 31.8 170.6 30.8 171.1L31.5 170.4C31.2 170.6 30.9 170.7 30.6 170.9L30.4 171.2C29.7 171.6 30.9 170.6 30.4 170.9C30.6 170.7 31.2 170.4 31.4 170.2C31.4 171 32.7 170.4 32.4 171.5C32.3 171.6 32.2 171.7 32.1 171.8C32.3 171.7 32.2 171.9 32.6 171.5V171.4C32.6 171.7 33.5 170.9 33.5 170.9C33.1 171.4 33.9 170.9 33.1 171.7L33.6 171.2C33.4 171.5 33 171.9 32.9 172.1C33 172.1 33.3 171.8 33.4 171.5C33.9 171.4 34.2 171.8 34.3 172.3L34.5 171.8C34.7 171.6 34.2 172.7 34.9 171.6C34.7 172.1 35.5 171.5 34.7 172.7C35.6 171.6 35.4 172.5 35.5 172.8C34.8 173.8 35.5 173.2 35.3 173.7C35.8 172.9 35.6 172.8 35.9 172.3C35.4 173.7 37 171.7 35.9 173.8C36 173.7 36 173.6 36.1 173.6C36.1 173.6 36.4 173.3 36.5 173.2C36.3 173.6 36.2 173.7 36.2 173.9C36.3 173.9 36.6 173.3 36.7 173C36.6 173.6 36.8 173.9 36.4 174.8C36.6 174.6 36.8 174.1 36.9 173.9C36.9 174.7 37.2 173.9 37.3 174.4C37.2 174.3 37.6 173.5 37.4 173.8C38 172.6 37.7 174.2 38.2 173.6L38 174.4C38.1 174.6 38.4 173.8 38.4 173.5C38.8 173.1 38.7 173.6 38.9 173.7C38.9 173.6 39 173.4 38.9 173.5H39.1C39.1 173.7 39 174.2 38.8 174.7C38.7 174.7 38.8 174.4 38.5 174.7Z" fill="#3E240C"/>
<path d="M34.8 177.7C34.9 177.5 35 177.4 35 177.4C34.9 177.6 34.8 177.7 34.8 177.7Z" fill="#3E240C"/>
<path d="M40.7999 177.3C40.5999 178.6 40.6999 177.1 40.4999 177.4C40.5999 177.6 40.3999 178.4 40.3999 178.7C40.4999 177 40.1999 179 39.8999 178.6C39.7999 179.1 39.8999 179.3 39.7999 179.9C39.6999 179.5 39.4999 179.2 39.5999 178.2C39.2999 178.1 39.0999 178.4 38.8999 178.2C38.9999 178.6 38.6999 179.1 38.6999 180C38.6999 178.9 38.5999 177.5 38.6999 176.1C38.3999 177.1 38.3999 177.2 38.0999 178.1C37.5999 178.7 38.2999 177.1 37.8999 177.3L38.0999 177.2C38.0999 176.9 38.2999 175.9 38.4999 175.2L38.7999 175.4C38.9999 174.7 38.7999 174.8 38.7999 174.6C38.9999 173.8 39.0999 174.1 39.2999 173.4C39.1999 174 39.2999 173.8 39.2999 174.1L39.3999 173.7C39.5999 173.3 39.4999 174.3 39.5999 174.3C39.5999 174.2 39.6999 174.1 39.6999 174.1C39.5999 174.5 39.5999 175 39.5999 175.2V175.1C39.4999 176 39.6999 176.6 39.2999 177.6L39.6999 177.4C39.8999 176.4 40.0999 174.9 39.9999 174.7L40.0999 174.3C40.2999 173.8 40.2999 175.1 39.9999 176C39.6999 178.4 40.4999 176.2 40.5999 177.2C40.6999 176.6 40.5999 176.3 40.5999 175.8C40.4999 175.7 40.4999 175.7 40.3999 176.2C40.1999 175.8 40.7999 174.2 40.4999 174.3C40.2999 174.6 40.4999 175.4 40.1999 175.4L40.3999 173.6C40.4999 173.7 40.5999 174 40.6999 174.2C40.8999 174.8 41.1999 174.9 41.3999 174.8C41.5999 174.7 41.6999 174.5 41.6999 174.5C42.5999 174.8 43.5999 175 44.4999 175.1C44.7999 175.3 44.8999 175.2 45.2999 177C45.2999 177.4 45.0999 177.2 45.1999 177.8C45.0999 177.1 44.8999 176.8 44.6999 176.9C44.6999 177.6 44.8999 177.2 44.8999 177.4C44.9999 177.7 44.9999 178 45.0999 178C44.9999 179 44.4999 178.8 44.2999 177.6C44.1999 178.3 44.4999 178.6 44.5999 179.1C43.9999 179.6 43.4999 179.6 42.8999 179.6C42.8999 178.4 42.7999 178.9 42.7999 178.1L42.6999 178.5C42.6999 178.3 42.6999 177.5 42.7999 177.3C42.3999 178.2 42.4999 175.7 42.2999 175.2V175.8C42.0999 175.7 42.0999 175.7 41.9999 175.3C41.5999 176.4 42.1999 175.5 41.9999 177L41.8999 176.8C41.8999 177.4 41.8999 178.4 41.9999 178.8C41.7999 177.8 41.4999 179.2 41.1999 178.4C41.1999 179.1 41.3999 179.6 41.4999 179.7C41.3999 179.8 41.1999 179.3 41.0999 179.9L41.1999 179.1C40.9999 179 41.0999 179.9 40.9999 180.4C40.3999 180.4 41.1999 177.8 40.7999 177.3Z" fill="#3E240C"/>
<path d="M36.3 176.6C36.4 176.6 36.4 176.6 36.4 176.7L36.3 176.6Z" fill="#3E240C"/>
<path d="M36.3 179.5C36.5 179.2 36.4 179.1 36.5 178.7C36.5 179 36.7 179 36.3 179.5Z" fill="#3E240C"/>
<path d="M25.5 168.2H25.9L25 168.8C24.8 168.6 25.6 168.4 25.5 168.2Z" fill="#3E240C"/>
<path d="M26.3 168.3L26.5 168.1C26.4 168.2 26.4 168.3 26.3 168.3Z" fill="#3E240C"/>
<path d="M25.8999 168.6L25.2 169.1L25.6 168.6H25.8999C26.0999 168.4 26.2 168.4 26.3 168.4L25.8 168.8C25.9 168.6 25.9999 168.5 25.8999 168.6Z" fill="#3E240C"/>
<path d="M25.8999 168.8C25.7999 168.8 25.8 168.9 25.7 168.9C25.8 168.8 25.8999 168.8 25.8999 168.8Z" fill="#3E240C"/>
<path d="M27.5 168.4C27.2 168.5 26.9 168.8 26.6 169C26.2 169 27.3 168.4 26.9 168.4C26.5 168.9 26.4 168.6 26 168.7C26.7 168.4 27.2 168.2 27.5 168.2L27.1 168.5C27 168.6 27.3 168.4 27.5 168.4Z" fill="#3E240C"/>
<path d="M26.8999 169.8L27.4999 169.3C27.1999 169.5 27.0999 169.3 26.3999 169.7C26.4999 169.6 26.6999 169.4 26.8999 169.2C26.4999 169.4 26.1999 169.5 26.6999 169.1C27.2999 169.1 27.3999 168.9 27.7999 169.1C27.8999 169 27.8999 169 27.8999 169L28.3999 168.9C27.3999 169.4 27.4999 169.7 26.8999 169.8Z" fill="#3E240C"/>
<path d="M27.5 169.8C27.4 169.6 28 169.2 28.5 169L28.2 169.6C28.1 169.5 28.1 169.3 27.5 169.8Z" fill="#3E240C"/>
<path d="M27.7 169.9C28.1 169.7 28.9 169.3 28.3 169.8C28.2 169.7 27.3 170.4 27.7 169.9Z" fill="#3E240C"/>
<path d="M28.9001 170.4L28.3001 170.5C27.4001 171 28.1001 170.8 27.8001 171.2C27.5001 171.1 27.8001 171 28.2001 170.5C28.1001 170.5 28.5001 170.1 28.7001 169.9C28.2001 170.5 30.3001 169.1 28.9001 170.4Z" fill="#3E240C"/>
<path d="M27.7 170.5L28 170.3L27.8999 170.6L27.7 170.5Z" fill="#3E240C"/>
<path d="M30.2 170.3C31.2 169.7 29.9 171 30.4 170.8C30.4 170.7 30.5001 170.7 30.6001 170.6V170.8L30.8 170.6C30.2 171.1 30.1 171.4 29.8 171.8C29.1 172.2 30.4 171.2 29.7 171.6C29.5 171.8 29.1 172.2 28.9 172.4C29.1 172.1 29.4 171.8 29.7 171.5C29.7 171.4 29.4 171.7 29.2 171.8C29.4 171.4 30.3 170.8 29.9 170.8C29.3 171.1 29.2 171.5 29.2 171.1C30.2 170.5 28.9 171 29.5 170.5C29.2 170.5 28.6 170.9 28.3 171.1C29 170.6 29.5 170 29.7 169.8L29.3 170.5L30.2 169.9C29.8 170.3 30 170.3 30.2 170.3Z" fill="#3E240C"/>
<path d="M28.9 172.3C28.9 172.4 28.8 172.4 28.8 172.5C28.8 172.5 28.8 172.4 28.9 172.3Z" fill="#3E240C"/>
<path d="M28.1 171.3L27.8999 171.4L27.7 171.6L28.1 171.3Z" fill="#3E240C"/>
<path d="M28.3999 172.9C28.3999 172.9 28.5999 172.7 28.6999 172.7L28.3999 173.1V172.9Z" fill="#3E240C"/>
<path d="M29.1001 172.6L29.6001 172.3L29.3001 172.6H29.1001Z" fill="#3E240C"/>
<path d="M32.2 174.8C31.9 175 32.3 174.5 32.6 174C32.9 174 32.3 174.5 32.2 174.8Z" fill="#3E240C"/>
<path d="M33.7 176.9C33.3 177.2 33.6 176.6 33.5 176.5C33.8 176.2 33.8 176.5 33.7 176.9Z" fill="#3E240C"/>
<path d="M33.5 179.5C33.6 179.3 33.6 179.1 33.7 179.1L34.2 177.9C34.6 177.6 33.8 179 33.5 179.5Z" fill="#3E240C"/>
<path d="M34.7 180.3V179.8H34.8C35 179.3 35 179.1 35.1 178.7C35.1 178.9 35.1 179.4 34.7 180.3Z" fill="#3E240C"/>
<path d="M35.1001 178.3C34.9001 178.7 35.0001 178.5 35.1001 178.3V178.3Z" fill="#3E240C"/>
<path d="M35.2 178.5C35.2 178.6 35.2 178.6 35.2 178.6C35.1 178.5 35.1 178.5 35.2 178.5C35.2 178.2 35.1 178.3 35.2 178.5Z" fill="#3E240C"/>
<path d="M35.1001 179.7L35.4001 180L35.2001 180.2C35.4001 179.4 34.8001 180.5 35.1001 179.7Z" fill="#3E240C"/>
<path d="M37.1001 179.7L37.4001 179C37.6001 178.9 37.5001 180.6 37.9001 179.4C37.7001 179.8 37.9001 180.3 37.5001 180.4C37.6001 179.8 37.3001 179.6 37.1001 179.7Z" fill="#3E240C"/>
<path d="M38.1999 178.9C38.1999 178.7 38.2999 178.5 38.3999 178.3C38.4999 178.2 38.4999 178.6 38.3999 178.9C38.5999 177.9 38.0999 179.5 38.1999 178.9Z" fill="#3E240C"/>
<path d="M39.2 179.2C39.1 179.2 39.1 179.1 39.2 178.9C39.4 179 39.1 179.8 39.1 180.4C38.8 180.8 39 179.6 39.2 179.2Z" fill="#3E240C"/>
<path d="M41.3999 173.8C41.2999 174.4 41.2 174.3 41.2 174.1C41.2 174.3 41.2999 174.1 41.3999 173.8Z" fill="#3E240C"/>
<path d="M40.7001 179.3L40.6001 179.4L40.7001 178.4V179.3Z" fill="#3E240C"/>
<path d="M41.7001 179.9L41.8001 180.6L41.6001 180.4L41.7001 179.9Z" fill="#3E240C"/>
</g>
</g>
<path d="M16.6998 202.1C16.6998 202.1 15.1998 194.1 18.7998 190.6" stroke="#1B1C1E" stroke-width="1.2604" stroke-miterlimit="10" stroke-linecap="round" stroke-linejoin="round"/>
<path d="M25.3998 202.1C25.3998 202.1 23.9998 198.2 27.0998 191.6" stroke="#1B1C1E" stroke-width="1.2604" stroke-miterlimit="10" stroke-linecap="round" stroke-linejoin="round"/>
<path d="M41.9999 175.3C41.9999 175.3 29.7999 176.4 23.3999 162.4" stroke="#1B1C1E" stroke-width="1.2604" stroke-miterlimit="10" stroke-linecap="round" stroke-linejoin="round"/>
<path d="M101.1 202.1C101.1 202.1 103.3 197 102.3 188.6C101.3 180.2 93.7998 146.4 94.6998 144.8" stroke="#1B1C1E" stroke-width="1.2604" stroke-miterlimit="10" stroke-linecap="round" stroke-linejoin="round"/>
<path d="M24.9999 144.8C24.9999 144.8 22.9999 139.9 22.3999 135.7" stroke="#1B1C1E" stroke-width="1.2604" stroke-miterlimit="10" stroke-linecap="round" stroke-linejoin="round"/>
<path d="M34.4997 155.9C34.4997 155.9 32.8997 153.1 32.1997 149.8" stroke="#1B1C1E" stroke-width="1.2604" stroke-miterlimit="10" stroke-linecap="round" stroke-linejoin="round"/>
<path d="M57.4998 156.4C57.4998 156.4 60.8998 152.3 61.4998 149.7" stroke="#1B1C1E" stroke-width="1.2604" stroke-miterlimit="10" stroke-linecap="round" stroke-linejoin="round"/>
<path d="M68.3999 147.2C68.3999 147.2 74.1999 140 75.0999 132.1" stroke="#1B1C1E" stroke-width="1.2604" stroke-miterlimit="10" stroke-linecap="round" stroke-linejoin="round"/>
<path d="M80.6997 133.9C80.6997 133.9 83.1997 129.2 83.6997 124.5" stroke="#1B1C1E" stroke-width="1.2604" stroke-miterlimit="10" stroke-linecap="round" stroke-linejoin="round"/>
<path d="M85.7998 202.1C85.7998 202.1 83.3998 198.7 83.8998 192.5" stroke="#1B1C1E" stroke-width="1.2604" stroke-miterlimit="10" stroke-linecap="round" stroke-linejoin="round"/>
<path d="M92.9999 202.1C92.9999 202.1 91.9999 196.8 92.9999 192.5" stroke="#1B1C1E" stroke-width="1.2604" stroke-miterlimit="10" stroke-linecap="round" stroke-linejoin="round"/>
<path d="M106.2 202.1C106.2 202.1 103.9 197.1 106.6 191.7" stroke="#1B1C1E" stroke-width="1.2604" stroke-miterlimit="10" stroke-linecap="round" stroke-linejoin="round"/>
<path d="M113.8 202.1C113.8 202.1 112.8 196.2 116.3 192.5" stroke="#1B1C1E" stroke-width="1.2604" stroke-miterlimit="10" stroke-linecap="round" stroke-linejoin="round"/>
<path d="M41.1997 87.5C41.1997 87.5 51.0997 92.4 56.2997 87.4C57.9997 85.8 58.2997 81.5 54.9997 78.5" stroke="#1B1C1E" stroke-width="1.2604" stroke-miterlimit="10" stroke-linecap="round" stroke-linejoin="round"/>
<path d="M40.7999 82.6C40.7999 82.6 40.4999 84.2 41.1999 87.5C41.3999 88.4 30.9999 92 26.9999 87.4C25.5999 85.8 24.9999 82.6 27.9999 79" stroke="#1B1C1E" stroke-width="1.2604" stroke-miterlimit="10" stroke-linecap="round" stroke-linejoin="round"/>
<path d="M37.1997 89.4C37.1997 89.4 38.5997 90.2 41.3997 90.4C44.3997 90.6 45.5997 89.5 45.5997 89.5" stroke="#1B1C1E" stroke-width="1.2604" stroke-miterlimit="10" stroke-linecap="round" stroke-linejoin="round"/>
<path d="M99.9998 175.3C99.9998 175.3 104.1 175.2 106.6 170.9" stroke="#1B1C1E" stroke-width="1.2604" stroke-miterlimit="10" stroke-linecap="round" stroke-linejoin="round"/>
<path d="M127.7 152.1C127.1 147.5 126 143.7 124.6 140.3C123.2 137.1 121.6 134.3 119.6 131.7" stroke="#1B1C1E" stroke-width="1.2604" stroke-miterlimit="10" stroke-linecap="round" stroke-linejoin="round"/>
<mask id="mask2_70_111" style="mask-type:luminance" maskUnits="userSpaceOnUse" x="100" y="168" width="11" height="21">
<path d="M100 175.3C100 175.3 102.1 175.3 104.5 173.4C106.9 171.5 107.9 168.5 107.9 168.5C107.9 168.5 111.5 177.9 109.7 182.5C108 187.1 102.3 188.5 102.3 188.5L100 175.3Z" fill="white"/>
</mask>
<g mask="url(#mask2_70_111)">
<g opacity="0.62">
<path d="M101.7 174.8C101.8 174.9 101.8 175 101.9 175.1C101.9 175.1 101.9 175 101.7 174.8Z" fill="#3E240C"/>
<path d="M104.8 171.9L104.5 171.7C104.6 171.8 104.7 171.8 104.8 171.9Z" fill="#3E240C"/>
<path d="M103.2 176.9C103.2 177 103.3 177.1 103.4 177.3L103.2 176.9Z" fill="#3E240C"/>
<path d="M104.7 177.7C104.8 177.7 104.8 177.8 104.9 177.8C104.8 177.7 104.7 177.7 104.7 177.7Z" fill="#3E240C"/>
<path d="M101.6 174.7C101.7 174.8 101.7 174.8 101.7 174.8L101.6 174.7Z" fill="#3E240C"/>
<path d="M105.5 170.4C105.5 170.3 105.5 170.3 105.4 170.2C105.2 170.3 105.3 170.3 105.5 170.4Z" fill="#3E240C"/>
<path d="M99.6 176.4C100.3 177.3 99.5 176.5 100.1 177.4C100 177.2 100 177 100.3 177.4C100.6 178 100.1 177.4 100.6 178.2L100.5 177.8C100.8 178.1 101.2 178.8 101.2 178.7C100.5 177.6 101.8 178.9 101.8 178.6V178.7L102.3 179.1C102.3 179.1 102.3 179.1 102.3 179.2C102.3 179.1 102.2 179.1 102.2 179C102.7 179.5 103.1 179.7 103.1 179.5C102.7 178.9 103.4 178.9 103 178.4C103.1 178.6 103 178.6 102.8 178.5L102.2 177.8C102.3 177.7 102.7 178.4 102.5 177.9C101.7 177 102.3 178 102.2 178C102.1 177.8 101.9 177.5 101.9 177.4C101.7 177.5 101.3 177.3 101.9 178.3C101.7 178.1 101.4 177.7 101.4 177.6C101.7 178.3 100.9 177.1 101.2 177.7C100.6 176.8 101.1 177 100.8 176.5C101.5 177.1 101.2 176.3 101.2 176C101.7 176.6 102.1 177.2 102.5 177.6C103 177.9 102.4 177.1 102.2 176.7C102.5 176.8 103.1 177.7 103.4 177.6L103.6 178.1C104.5 178.9 103.4 177.7 103.6 177.8C103.4 177.6 103.2 177.4 103.1 177.5C102.8 177.2 102.8 177 102.8 176.9C102.5 176.5 102 176 102.3 176.1C102.7 176.7 102.7 176.4 103 176.6L103.1 176.7C103 176.5 103.2 176.4 103.1 176.3L103.2 176.4C103.1 176.1 102.5 175.5 102.7 175.6C102.9 175.8 103.5 176.6 103.5 176.4C103.9 176.8 103.8 176.9 103.6 176.9C103.8 176.9 104.5 177.5 104.4 177.6C104.9 178 104.3 177.3 104.6 177.4C104.4 177.3 104.3 177.1 104.2 177C104.8 177.6 104.5 176.8 104 176.4L104.2 176.9C103.7 176.4 103.5 176 103.1 175.7C104 176.4 103 175.1 103.7 175.6L103.2 175.3C103.7 175.3 102.8 174.3 102.8 173.9C103 174.2 104 175 103.5 174.9C103.9 174.8 104.5 175.6 105 175.9C105.5 176 104.2 175.1 103.9 174.8L104 175.1C103 174.1 104.6 174.8 104.1 174.1C104.4 174.3 104.2 174.3 104.3 174.4C105 174.7 104.3 174.2 104.1 174C104.3 174 104.6 174 105.3 174.6C105.6 174.6 104.8 174.3 104.7 174.1L104.9 174.2L104.2 173.5C104.5 173.6 105 173.7 105.7 174.1C105.7 173.7 104.1 172.9 103.9 172.5C104.4 172.6 104.5 172.9 104.7 173.1V172.9C105.5 173.5 105 173.4 106 174C105.1 173.2 105.8 173.6 105.3 173H105.2C104.6 172.5 105.2 172.6 105.1 172.4C105.5 172.7 105.5 172.8 105.6 173C106 173.1 105.9 172.5 105 171.9C105.2 171.9 105.6 171.9 106 172.3C106.3 172.1 104.7 171.5 105.1 171.4L105.8 171.8C106.9 172 105.1 170.9 106.2 171.1L105.3 170.7C105.7 170.8 105.9 170.8 106.3 170.9L106.5 171.2C107.3 171.4 105.9 170.8 106.4 170.9C106.1 170.8 105.5 170.6 105.2 170.5C105.5 171.2 104 171.1 104.6 172C104.7 172 104.8 172.1 105 172.2C104.8 172.1 104.9 172.4 104.5 172.1L104.4 172C104.5 172.2 103.4 171.7 103.4 171.8C103.9 172.2 103 171.9 104 172.4L103.4 172.1C103.7 172.3 104.2 172.6 104.4 172.8C104.3 172.8 103.9 172.6 103.7 172.4C103.1 172.5 103 172.9 103.1 173.4L102.7 173C102.4 172.9 103.3 173.8 102.2 172.9C102.5 173.4 101.6 173 102.7 173.9C101.6 173.1 102 173.9 102 174.2C102.9 175 102.1 174.6 102.5 175C101.8 174.4 101.9 174.2 101.5 173.8C102.4 174.9 100.3 173.6 101.9 175.3C101.8 175.3 101.7 175.2 101.7 175.1C101.7 175.1 101.3 174.9 101.2 174.9C101.5 175.2 101.7 175.3 101.7 175.5C101.6 175.5 101.2 175 100.9 174.8C101.2 175.3 101.1 175.7 101.7 176.4C101.5 176.2 101.1 175.9 101 175.7C101.3 176.4 100.7 175.8 100.8 176.3C100.9 176.2 100.2 175.5 100.6 175.7C99.6 174.7 100.4 176.2 99.8 175.8L100.3 176.5C100.3 176.7 99.8 176.1 99.7 175.8C99.2 175.5 99.4 176 99.3 176.1C99.2 176 99.1 175.9 99.2 175.9L99 176C99.1 176.2 99.3 176.6 99.6 177C99.4 176.5 99.3 176.2 99.6 176.4Z" fill="#3E240C"/>
<path d="M104.1 178.2C103.9 178.1 103.8 178 103.8 178C103.9 178 104 178.1 104.1 178.2Z" fill="#3E240C"/>
<path d="M98.2001 179.6C98.8001 180.8 98.3001 179.3 98.5001 179.6C98.5001 179.8 98.8001 180.5 99.0001 180.8C98.4001 179.2 99.3001 181 99.4001 180.6C99.7001 181.1 99.6001 181.2 99.8001 181.8C99.8001 181.3 99.9001 181 99.5001 180.2C99.7001 180.1 100.1 180.2 100.1 180C100.1 180.4 100.5 180.8 100.8 181.6C100.5 180.5 100.2 179.2 99.7001 177.9C100.3 178.8 100.4 178.8 100.8 179.7C101.5 180.1 100.4 178.8 100.8 178.9L100.6 178.8C100.5 178.5 100 177.6 99.6001 177L99.4001 177.3C99.0001 176.7 99.2001 176.7 99.2001 176.5C98.8001 175.7 98.7001 176.1 98.4001 175.5C98.7001 176 98.5001 175.9 98.6001 176.2L98.4001 175.9C98.1001 175.6 98.5001 176.5 98.4001 176.5C98.3001 176.4 98.3001 176.3 98.3001 176.3C98.5001 176.7 98.7001 177.2 98.7001 177.3V177.2C99.1001 178 99.1001 178.7 99.8001 179.5L99.3001 179.4C98.9001 178.5 98.2001 177.1 98.3001 176.9L98.1001 176.5C97.7001 176.1 98.2001 177.4 98.6001 178.1C99.6001 180.3 98.2001 178.4 98.4001 179.4C98.1001 178.8 98.1001 178.5 98.0001 178.1C98.0001 178 98.1001 178 98.3001 178.5C98.4001 178 97.3001 176.7 97.7001 176.7C98.0001 176.9 98.0001 177.7 98.3001 177.7L97.6001 176C97.5001 176.1 97.5001 176.4 97.5001 176.7C97.5001 177.4 97.2001 177.5 97.0001 177.5C96.8001 177.5 96.6001 177.3 96.6001 177.3C95.8001 177.8 95.0001 178.3 94.1001 178.7C93.9001 179 93.8001 178.9 93.9001 180.7C94.0001 181.1 94.2001 180.9 94.2001 181.5C94.1001 180.8 94.2001 180.5 94.4001 180.5C94.5001 181.1 94.3001 180.8 94.4001 181C94.4001 181.3 94.5001 181.6 94.4001 181.6C94.8001 182.5 95.2001 182.2 95.0001 181C95.3001 181.6 95.1001 182 95.1001 182.6C95.9001 182.9 96.3001 182.7 96.9001 182.6C96.5001 181.5 96.7001 181.9 96.6001 181.1L96.8001 181.5C96.7001 181.3 96.5001 180.5 96.3001 180.3C96.9001 181 96.2001 178.7 96.2001 178.2L96.4001 178.8C96.5001 178.6 96.6001 178.6 96.6001 178.3C97.3001 179.2 96.4001 178.6 97.1001 179.9V179.6C97.3001 180.1 97.6001 181.1 97.6001 181.5C97.5001 180.5 98.2001 181.7 98.2001 180.9C98.4001 181.5 98.3001 182.1 98.3001 182.2C98.4001 182.2 98.5001 181.7 98.7001 182.3L98.4001 181.5C98.5001 181.3 98.7001 182.2 99.0001 182.7C99.5001 182.3 98.0001 180.2 98.2001 179.6Z" fill="#3E240C"/>
<path d="M102.3 177.5C102.2 177.5 102.2 177.5 102.2 177.6C102.2 177.6 102.3 177.6 102.3 177.5Z" fill="#3E240C"/>
<path d="M102.5 179.3C102.6 179.4 102.6 179.5 102.7 179.6C102.7 179.5 102.6 179.4 102.5 179.3Z" fill="#3E240C"/>
<path d="M103.2 180.3C103 180 103 180 102.7 179.6C102.8 179.9 102.7 180 103.2 180.3Z" fill="#3E240C"/>
<path d="M108.6 168.6C108.2 168.5 107.3 168.4 108.1 168.7C107.9 168.5 109 168.9 108.6 168.6Z" fill="#3E240C"/>
<path d="M107.5 169.4L108.1 169.3C109.1 169.6 108.4 169.5 108.8 169.8C109.1 169.6 108.7 169.6 108.2 169.2C108.3 169.1 107.8 168.9 107.6 168.7C108.2 169.3 105.8 168.5 107.5 169.4Z" fill="#3E240C"/>
<path d="M108.7 169.2L108.3 169L108.6 169.3L108.7 169.2Z" fill="#3E240C"/>
<path d="M106.2 169.7C105 169.4 106.7 170.3 106.2 170.2C106.1 170.2 106 170.1 105.9 170V170.2L105.6 170.1C106.3 170.4 106.5 170.6 106.9 170.9C107.7 171 106.1 170.5 106.9 170.7C107.2 170.9 107.6 171.1 107.9 171.2C107.6 171 107.2 170.8 106.9 170.6C106.9 170.5 107.2 170.7 107.5 170.8C107.2 170.5 106.2 170.1 106.5 170C107.1 170.1 107.4 170.4 107.2 170.1C106.1 169.8 107.4 170 106.8 169.6C107.1 169.5 107.8 169.7 108.1 169.8C107.3 169.5 106.6 169.1 106.4 168.9L107 169.4L106 169.1C106.6 169.6 106.5 169.6 106.2 169.7Z" fill="#3E240C"/>
<path d="M108.1 171.2C108.2 171.2 108.2 171.3 108.2 171.3C108.3 171.4 108.2 171.3 108.1 171.2Z" fill="#3E240C"/>
<path d="M108.6 170L108.7 170.1L109 170.2L108.6 170Z" fill="#3E240C"/>
<path d="M108.7 171.7C108.7 171.7 108.4 171.5 108.4 171.6L108.8 171.8L108.7 171.7Z" fill="#3E240C"/>
<path d="M108 171.6L107.4 171.4L107.8 171.6H108Z" fill="#3E240C"/>
<path d="M105.7 174.6C106.1 174.7 105.5 174.3 105.1 174C104.8 174 105.5 174.3 105.7 174.6Z" fill="#3E240C"/>
<path d="M104.8 177C105.2 177.2 104.8 176.6 104.9 176.6C104.6 176.4 104.7 176.7 104.8 177Z" fill="#3E240C"/>
<path d="M105.8 179.5C105.7 179.3 105.6 179.2 105.5 179.2L104.7 178.2C104.3 178 105.4 179.1 105.8 179.5Z" fill="#3E240C"/>
<path d="M104.9 180.5L104.7 180H104.6C104.3 179.6 104.2 179.4 104 179C104.1 179.4 104.3 179.9 104.9 180.5Z" fill="#3E240C"/>
<path d="M104 178.8V178.9C104.1 179 104.2 179.1 104 178.8Z" fill="#3E240C"/>
<path d="M103.9 179C103.9 179 103.9 179.1 104 179.1C104 179 104 179 103.9 179C103.9 178.8 103.8 178.8 103.9 179Z" fill="#3E240C"/>
<path d="M104.4 180.2L104.2 180.5L104.5 180.6C104 180 104.9 180.9 104.4 180.2Z" fill="#3E240C"/>
<path d="M102.5 180.8L102 180.2C101.7 180.2 102.4 181.7 101.6 180.8C101.9 181.1 101.9 181.6 102.3 181.7C102 181 102.2 180.7 102.5 180.8Z" fill="#3E240C"/>
<path d="M101.2 180.3C101.1 180.1 101 180 100.8 179.8C100.7 179.8 100.8 180.1 101 180.4C100.5 179.5 101.4 180.9 101.2 180.3Z" fill="#3E240C"/>
<path d="M100.3 180.9C100.3 180.9 100.4 180.7 100.2 180.6C100.1 180.7 100.5 181.5 100.7 182C101.1 182.3 100.6 181.2 100.3 180.9Z" fill="#3E240C"/>
</g>
</g>
</svg>
