<svg width="218" height="204" viewBox="0 0 218 204" fill="none" xmlns="http://www.w3.org/2000/svg">
<path d="M19.3001 199.1C19.3001 199.1 11.5001 201.7 32.8001 202.5C54.1001 203.3 166.6 203.7 178.2 202.5C189.8 201.3 212.3 202 182.4 199.1C152.5 196.2 121.7 197.9 91.6001 196.2C61.5001 194.4 23.8001 196.1 19.3001 199.1Z" fill="#1B1C1E"/>
<path d="M83.3999 173.2C83.3999 173.2 60.0999 161.6 63.0999 169L71.4999 188.2C75.2999 190 79.1999 191.4 83.3999 192.1V173.2Z" fill="#6E85BD"/>
<mask id="mask0_70_334" style="mask-type:luminance" maskUnits="userSpaceOnUse" x="62" y="166" width="22" height="27">
<path d="M83.3999 173.2C83.3999 173.2 60.0999 161.6 63.0999 169L71.4999 188.2C75.2999 190 79.1999 191.4 83.3999 192.1V173.2Z" fill="white"/>
</mask>
<g mask="url(#mask0_70_334)">
<g opacity="0.78">
<path d="M66.7 170.8L66.8 170.6C66.8 170.7 66.8 170.7 66.7 170.8Z" fill="#030203"/>
<path d="M70.8 176.7L70.7 176.8C70.8 176.7 70.8 176.7 70.8 176.7Z" fill="#030203"/>
<path d="M72.4999 174.2C72.4999 174.2 72.4999 174.3 72.3999 174.3C72.4999 174.3 72.4999 174.3 72.4999 174.2Z" fill="#030203"/>
<path d="M64.7001 169.1C64.7001 169 64.6001 169 64.6001 168.9C64.8001 169 64.8001 169 64.7001 169.1Z" fill="#030203"/>
<path d="M76.2 176.5C75.8 177.2 76.4 176.6 76 177.3C76 177.1 75.9 176.9 75.7 177.3C75.6 177.7 76 177.4 75.7 178V177.7C75.4 177.9 75.3 178.5 75.3 178.4C75.6 177.5 74.6 178.4 74.5 178.2V178.3L74 178.5C74 178.5 74 178.4 74.1 178.4C73.8 178.7 73.4 178.9 73.3 178.7C73.5 178.2 72.6999 178.2 72.8999 177.7C72.8999 177.9 73 177.9 73.2 177.9L73.5 177.4C73.3 177.3 73.2 177.9 73.2 177.5C73.7 176.8 73.5 177.7 73.6 177.7C73.7 177.5 73.7 177.3 73.6 177.2C73.9 177.3 74.3 177.2 74 178.1C74.2 178 74.3 177.7 74.3 177.6C74.3 178.1 74.7 177.3 74.6 177.7C74.9 177 74.4 177.1 74.5 176.7C74 177.1 73.9 176.4 73.7 176.1C73.4 176.6 73.3 177.1 73 177.3C72.5 177.5 72.8999 176.9 72.8999 176.5C72.5999 176.6 72.4 177.3 72.1 177.1V177.5C71.5 178.1 72.0999 177.1 71.8999 177.2C72.0999 177.1 72.2 176.9 72.3 177C72.5 176.8 72.3999 176.6 72.3999 176.5C72.4999 176.1 72.8 175.8 72.5 175.8C72.4 176.3 72.2 176 72 176.2V176.3C71.9 176.1 71.8 176 71.7 175.9L71.6 176C71.6 175.8 71.9 175.3 71.7 175.3C71.6 175.5 71.4 176.2 71.3 176C71.1 176.3 71.3 176.5 71.5 176.4C71.3 176.4 70.9 176.8 71 177C70.7 177.3 70.9 176.7 70.7 176.8C70.8 176.7 70.7999 176.5 70.8999 176.4C70.5999 176.9 70.5 176.2 70.8 175.8V176.2C71.1 175.8 71 175.4 71.3 175.2C70.8 175.8 71.1 174.6 70.6 175L70.8999 174.7C70.3999 174.6 70.5999 173.7 70.3999 173.3C70.3999 173.6 69.9 174.3 70.3 174.2C69.9 174.1 69.6999 174.8 69.3999 175.1C68.9999 175.2 69.7 174.4 69.8 174.1L69.8999 174.4C70.1999 173.4 69.1 174.1 69.1 173.3C68.9 173.5 69.1 173.5 69.1 173.6C68.6 173.9 69 173.4 69 173.2C68.8 173.1 68.5 173.2 68.2 173.7C67.9 173.7 68.4 173.4 68.5 173.2L68.3999 173.3L68.6 172.6C68.3 172.6 67.9 172.8 67.5 173.2C67.2 172.8 68.2 172 68.1 171.6C67.8 171.7 67.8 172 67.7 172.2L67.5 172C67.2 172.6 67.6 172.5 67.1 173.1C67.4 172.3 67 172.7 67 172.1H67.1C67.3 171.6 66.8 171.7 66.7 171.5C66.6 171.8 66.7 172 66.7 172.2C66.4 172.3 66.0999 171.7 66.3999 171.1C66.1999 171.1 65.8 171.2 65.8 171.5C65.4 171.3 66.2999 170.6 65.8999 170.5L65.6 170.9C64.8 171.3 65.4 169.8 64.6 170.1L65 169.6C64.8 169.8 64.4999 169.8 64.3999 169.9V170.2C63.8999 170.5 64.6 169.7 64.2 169.8C64.3 169.6 64.6999 169.4 64.8999 169.2C65.2999 170 66.6 169.8 66.8 170.9C66.7 170.9 66.6 171 66.6 171.1C66.8 171 66.8 171.3 67 171V170.9C67.1 171.2 67.7 170.6 67.8 170.7C67.6 171.1 68.3 170.8 67.7 171.4L68.1 171.1C68 171.4 67.7 171.6 67.7 171.8C67.9 171.8 68 171.6 68.1 171.4C68.7 171.5 69.2 172 69.6 172.5L69.7 172.1C69.9 172 69.7 172.9 70.2 172.1C70.2 172.6 70.9999 172.3 70.3999 173.1C71.0999 172.5 71.2 173.2 71.5 173.5C71 174.1 71.6 173.9 71.5 174.3C71.9 173.8 71.6 173.6 71.8 173.2C71.6 174.3 73.0999 173.2 72.3999 174.7C72.4999 174.7 72.5 174.6 72.5 174.6C72.6 174.6 72.7999 174.5 72.8999 174.5C72.7999 174.8 72.6 174.8 72.7 175C72.9 175 73 174.6 73.2 174.5C73.2 175 73.5 175.3 73.2 175.9C73.4 175.8 73.6 175.5 73.6 175.4C73.7 176.1 74 175.5 74.2 176.1C74.1 176 74.5 175.5 74.2 175.6C74.8 174.9 74.7 176.1 75.3 175.9L75.1 176.5C75.2 176.7 75.5 176.2 75.5 176C76 175.9 76 176.3 76.2 176.4C76.2 176.3 76.3 176.2 76.2 176.2L76.6 176.4C76.6 176.5 76.5999 176.9 76.3999 177.2C76.4999 176.6 76.5 176.4 76.2 176.5Z" fill="#030203"/>
<path d="M76.4 176.9C76.3 177 76.3 177 76.4 176.9V176.9Z" fill="#030203"/>
<path d="M71.7 177.2C71.8 177.1 71.8999 177.1 71.8999 177C71.7999 177.1 71.8 177.1 71.7 177.2Z" fill="#030203"/>
<path d="M79.5 179.4C79.2 180.3 79.3 179.2 79.1 179.4C79.2 179.6 79.1 180.1 79 180.3C79.1 179.1 78.7 180.5 78.3 180.1C78.2 180.5 78.3 180.6 78.2 181C78.1 180.6 77.7999 180.4 77.8999 179.7C77.4999 179.6 77.2 179.7 77 179.5C77.2 179.9 76.8 180.1 76.8 180.7C76.8 179.9 76.6 178.8 76.7 177.8C76.3 178.4 76.3 178.5 76 179.1C75.4 179.3 76.2 178.4 75.7 178.4H75.8999C75.7999 178.1 76.1 177.5 76.3 177.1L76.7 177.4C76.9 177 76.6 176.9 76.6 176.7C76.7 176.1 77 176.5 77.2 176C77.1 176.4 77.3 176.4 77.3 176.6L77.3999 176.4C77.6999 176.2 77.5 176.9 77.7 177C77.7 176.9 77.8 176.9 77.8 176.8C77.7 177.1 77.6 177.5 77.7 177.6L77.6 177.5C77.5 178.1 77.7 178.7 77.2 179.2C77.4 179.2 77.6 179.2 77.8 179.2C78 178.5 78.3 177.5 78.1 177.4L78.2 177.1C78.5 176.8 78.5 177.8 78.2 178.3C77.8 179.9 78.9 178.6 79 179.4C79.1 179 79 178.8 79 178.4C78.9 178.3 78.9 178.3 78.7 178.6C78.4 178.2 79.2 177.3 78.7 177.3C78.4 177.4 78.6999 178.1 78.3999 178C78.4999 177.6 78.5 177.2 78.6 176.8C78.8 176.9 78.9 177.2 79 177.4C79.3 178 79.7 178.1 80 178.1C80.3 178.1 80.5 177.9 80.5 177.9C81.7 178.2 82.8 178.2 83.7 177.7C84.1 177.6 84.1 177.5 85.1 178.2C85.2 178.4 84.9 178.6 85.3 178.8C84.9 178.5 84.6 178.5 84.5 178.7C84.8 179.1 84.8 178.7 84.8 178.8V178.9C85 179.1 85.1 179.1 85.2 179.1C85.5 179.8 84.7 180.2 84.1 179.5C84.1 180 84.5999 180 84.8999 180.2C84.1999 181.1 83.3999 181.3 82.3999 181.5C82.2999 180.7 82.2 181 82 180.5V180.8C82 180.7 81.8 180.1 82 179.9C81.6 180.6 81.4 178.9 81.1 178.5V178.9C80.9 178.8 80.8 178.8 80.6 178.6C80.1 179.3 80.9 178.8 80.7 179.7L80.6 179.5C80.6 179.9 80.7 180.6 80.8 180.9C80.4 180.2 80.1 181.1 79.7 180.5C79.7 181 80.1 181.4 80.2 181.5C80 181.5 79.7 181.1 79.7 181.6L79.8 181C79.5 180.9 79.7 181.5 79.6 181.9C79 181.5 80 179.8 79.5 179.4Z" fill="#030203"/>
<path d="M73.3999 176.9C73.4999 176.9 73.4999 177 73.5999 177C73.4999 177 73.3999 176.9 73.3999 176.9Z" fill="#030203"/>
<path d="M73.9999 178.5C73.9999 178.6 73.8999 178.6 73.8999 178.7C73.8999 178.6 73.8999 178.6 73.9999 178.5Z" fill="#030203"/>
<path d="M73.7 179.2C73.9 179 73.7999 178.9 73.8999 178.6C73.8999 178.9 74.1 179 73.7 179.2Z" fill="#030203"/>
<path d="M63.3999 168.4C64.0999 167.9 63.4999 169.1 63.8999 169C63.8999 168.9 63.9999 168.9 63.9999 168.8L64.0999 169L64.1999 168.9C63.8999 169.3 63.9999 169.6 63.7999 170C63.2999 170.3 64.0999 169.4 63.5999 169.7C63.4999 169.9 63.2999 170.2 63.1999 170.4C63.1999 170.1 63.3999 169.9 63.4999 169.6C63.3999 169.5 63.2999 169.7 63.0999 169.8C63.0999 169.5 63.5999 168.9 63.2999 168.8C62.8999 169 62.9999 169.4 62.7999 169.1C63.3999 168.6 62.4999 169 62.6999 168.5C62.3999 168.5 61.9999 168.8 61.8999 169C62.2999 168.5 62.4999 168 62.3999 167.7V168.3L62.9999 167.8C62.9999 168.4 63.0999 168.4 63.3999 168.4Z" fill="#030203"/>
<path d="M63.1 170.9C63 170.9 63.2 170.7 63.2 170.7L63.1 171V170.9Z" fill="#030203"/>
<path d="M63.5 170.7L63.9 170.4L63.8 170.7H63.5Z" fill="#030203"/>
<path d="M68 173.6C67.7 173.7 68 173.3 68.2 173C68.4 173.1 67.9 173.3 68 173.6Z" fill="#030203"/>
<path d="M70.2999 176C69.9999 176.2 70.0999 175.7 69.8999 175.6C70.1999 175.5 70.2999 175.7 70.2999 176Z" fill="#030203"/>
<path d="M70.6001 178.2C70.6001 178 70.6001 177.9 70.8001 177.9L71.1001 177.1C71.4001 177 70.8001 177.9 70.6001 178.2Z" fill="#030203"/>
<path d="M71.9 179.2L71.8 178.8L71.9 178.9C72 178.6 72.1001 178.4 72.1001 178.1C72.3001 178.3 72.3 178.7 71.9 179.2Z" fill="#030203"/>
<path d="M72.1001 177.8C72.0001 178 72.1001 177.9 72.1001 177.8V177.8Z" fill="#030203"/>
<path d="M72.2 177.9C72.2 177.8 72.3 177.8 72.2 177.9V177.9Z" fill="#030203"/>
<path d="M72.3 178.9L72.7 179.2L72.5 179.3C72.7 178.8 72.1 179.5 72.3 178.9Z" fill="#030203"/>
<path d="M74.7 179.7L75 179.3C75.3 179.3 75.1 180.5 75.7 179.8C75.4 180 75.6 180.4 75.3 180.4C75.3 180 74.9 179.7 74.7 179.7Z" fill="#030203"/>
<path d="M76 179.6C76 179.4 76.0999 179.4 76.1999 179.3C76.2999 179.3 76.2999 179.6 76.1999 179.7C76.3999 179 75.8999 180 76 179.6Z" fill="#030203"/>
<path d="M77.2 180.2C77.1 180.2 77 180.1 77.2 180C77.4 180.1 77.1 180.7 77.1 181C76.8 181.2 77 180.4 77.2 180.2Z" fill="#030203"/>
<path d="M80.1001 177C80.0001 177.4 79.8 177.3 79.8 177.2C79.9 177.3 80.0001 177.2 80.1001 177Z" fill="#030203"/>
<path d="M79.3 180.7L79.2 180.8L79.3 180.1V180.7Z" fill="#030203"/>
<path d="M81 181.3L81.2 181.8L80.8 181.7L81 181.3Z" fill="#030203"/>
<path d="M81.3 181.2H81.6001L81.5 181.4C81.3 181.6 81.4 181.2 81.3 181.2Z" fill="#030203"/>
<path d="M82.2 181.3C82.2 181.3 82.1001 181.3 82.1001 181.4L81.8 181.1L82.2 181.3Z" fill="#030203"/>
</g>
</g>
<path d="M71.5 188.2C71.5 188.3 34.5 191.3 26.9 194C19.3 196.7 83.4 194 83.4 194V192C79.2 191.3 75.3 190 71.5 188.2Z" fill="#86889A"/>
<path d="M64 22.2C64.5 43.8 38.2 58.7 25.9 60.9C24.6 61.1 23.5 61.2 22.6 61.2C12.8 60.7 8.49999 53.7 8.49999 53.7C7.19999 42.8 7.69999 33.8 7.69999 33.8C7.69999 20.1 9.49999 10.7 14.1 5.80002C21.2 -1.79998 33.1 0.100017 41.1 3.00002C51.1 6.50002 58.5 13.8 64 22.2Z" fill="#0B060A"/>
<path d="M76.6 51.7C76.6 51.7 76.5 72.1 55.7 76C34.9 79.9 26 60.9 26 60.9C38.2 58.7 64.5 43.9 64.1 22.2C68.4 28.7 71.4 35.9 73.6 42.5C74 43.9 74.9 47.1 76.6 51.7Z" fill="#736E72"/>
<path d="M172.3 172C137.9 182.3 74.8999 165.7 47.7999 136.2C39.9999 137.7 31.9999 137 23.8999 134.5C25.5999 137.2 27.3999 139.8 29.4999 142.3C50.0999 166.4 90.0999 186.2 132.7 193.8C154.2 197.6 170.1 193.9 179.4 194.4C204.2 195.7 215.6 198 217.5 195.8C219.2 193.8 198.8 189.1 172.3 172Z" fill="#6E85BD"/>
<path d="M47.8001 136.2C45.5001 133.7 43.5001 131.1 41.7001 128.4C35.0001 118 33.9001 109.2 35.3001 102.3C37.1001 92.6 45.1001 85.3 54.8001 83.6C63.7001 82 77.2001 76.2 81.1001 62.8C79.2001 58.5 77.7001 54.7 76.6001 51.7C76.6001 51.7 76.5001 72.1 55.7001 76C34.9001 79.9 26.0001 60.9 26.0001 60.9C24.7001 61.1 23.6001 61.2 22.7001 61.2C12.9001 60.7 8.6001 53.7 8.6001 53.7C8.7001 54.8 8.90009 56 9.00009 57.2C10.6001 68.4 7.60009 107.6 24.0001 134.6C32.0001 137 40.0001 137.7 47.8001 136.2Z" fill="#9E9AA0"/>
<path d="M172.3 172C147.7 179.4 108.4 173 78.1001 157.9C79.9001 158.7 121.3 176.7 157 161.2C162.3 165.3 167.4 168.9 172.3 172Z" fill="#18172A"/>
<path d="M157.1 161.2C121.3 176.7 80 158.7 78.2 157.9H78.1C62.5 150.1 49.3 140.1 41.8 128.4C35.1 118 33.9999 109.2 35.3999 102.3C37.1999 92.6 45.2 85.3001 54.9 83.6001C63.7999 82.0001 77.2999 76.2 81.2 62.8C88.5 79.2 102.3 104.2 128.4 134.1C137.8 144.9 147.6 153.9 157.1 161.2Z" fill="#3B4D84"/>
<path d="M5.6001 33.3C5.6001 33.3 7.40009 34 9.20009 35.8C11.0001 37.6 14.9001 30.3 18.5001 25.9C22.1001 21.5 23.9001 17.2 24.0001 16.4C24.1001 15.7 5.7001 29.1 5.6001 33.3Z" fill="#FFA3AC"/>
<path d="M50.3 20C50.9 19.5 51.2 18.7 50.9 18C50.5 16.9 49.7 15 48.3 13C45.6 9.30004 39.6 7.40004 37.3 9.00004C33.4 11.6 33.9 18.1 36.8 21.3C39.3 24.1 46.6 22.7 50.3 20Z" fill="#E7E6E8"/>
<path d="M45.0341 19.4219C46.8302 18.0429 47.0047 15.2559 45.4239 13.1969C43.8431 11.138 41.1056 10.5868 39.3095 11.9658C37.5134 13.3448 37.3389 16.1318 38.9197 18.1907C40.5005 20.2497 43.238 20.8009 45.0341 19.4219Z" fill="#0B080B"/>
<path d="M15.2 3.70001C15.2 3.70001 6.09999 4.60001 1.69999 16.2C-2.00001 25.9 1.4 34.1 2.6 36.5C2.8 36.8 3.19999 36.8 3.39999 36.5C4.29999 34.9 6.79999 31.1 10.9 28.1C16.2 24.2 23.6 20 24.1 15.8C24.6 11.5 20.7 4.50001 15.2 3.70001Z" fill="#FFA3AC"/>
<path d="M75.8999 189.5V189.6C75.8999 189.6 56.3999 192.4 40.8999 192.4C25.4999 192.4 22 195.4 21.2 199.3C21.2 199.3 44.4 199.3 62.3 199.3C80.2 199.3 78.9 199.3 83.5 199.3C88.1 199.3 90.7999 195.1 91.2 194.5C91.2999 194.4 91.6 193.6 92 192.6L75.8999 189.5Z" fill="#86889A"/>
<path d="M46.5 192.3C45.7 193.8 42.8 197.5 35.8 196.3C28.8 195.1 23.4 198.1 21.5 199.3C21.4 199.3 21.3 199.3 21.3 199.3C22.1 195.4 25.5 192.4 41 192.4C42.7 192.5 44.6 192.4 46.5 192.3Z" fill="#18172A"/>
<path d="M83.6001 199.4C83.6001 199.4 86.1001 199.4 89.5001 199.4C92.9001 199.4 96.9001 193.6 96.9001 193.6L91.7001 192.6L83.6001 199.4Z" fill="#86889A"/>
<path d="M98.1001 178.4L70.6001 164.8L75.9001 189.5C75.9001 189.5 78.6001 191.7 83.4001 192.5C87.1001 193.2 92.1001 192.6 92.1001 192.6C92.8001 190.7 94.3001 187 95.7001 183.7C96.1001 182.6 96.6001 181.6 97.0001 180.7C97.4001 179.7 97.8001 178.9 98.1001 178.4Z" fill="#6E85BD"/>
<path d="M70.5 164.8L75.8 189.5C75.8 189.5 78.5 191.7 83.3 192.5" stroke="#1B1C1E" stroke-width="1.2005" stroke-miterlimit="10" stroke-linecap="round" stroke-linejoin="round"/>
<path d="M72.5 173.9L70.5 164.8" stroke="#1B1C1E" stroke-width="1.2005" stroke-miterlimit="10" stroke-linecap="round" stroke-linejoin="round"/>
<mask id="mask1_70_334" style="mask-type:luminance" maskUnits="userSpaceOnUse" x="5" y="16" width="20" height="21">
<path d="M5.6001 33.3C5.6001 33.3 7.40009 34 9.20009 35.8C11.0001 37.6 14.9001 30.3 18.5001 25.9C22.1001 21.5 23.9001 17.2 24.0001 16.4C24.1001 15.7 5.7001 29.1 5.6001 33.3Z" fill="white"/>
</mask>
<g mask="url(#mask1_70_334)">
<g opacity="0.78">
<path d="M14.0002 23.2C14.1002 23.2 14.1002 23.3 14.2002 23.3C14.1002 23.3 14.1002 23.3 14.0002 23.2Z" fill="#030203"/>
<path d="M8.90019 27.6001L8.7002 27.5001C8.9002 27.5001 8.90019 27.5001 8.90019 27.6001Z" fill="#030203"/>
<path d="M15.3 24.0001C15.4 24.0001 15.5001 24.0001 15.6001 24.1001L15.3 24.0001Z" fill="#030203"/>
<path d="M19.2002 19.4H19.3002C19.3002 19.5 19.3002 19.4 19.2002 19.4Z" fill="#030203"/>
<path d="M23.1001 20.2L23.2001 20.4C23.1001 20.3 23.1001 20.3 23.1001 20.2Z" fill="#030203"/>
<path d="M18.4001 19.2C18.4001 19.2 18.5002 19.3 18.6002 19.3C18.5002 19.3 18.4001 19.3 18.4001 19.2Z" fill="#030203"/>
<path d="M7.00005 29.2C6.90005 29.2 6.90005 29.3 6.80005 29.3C6.90005 29.1 7.00005 29.1 7.00005 29.2Z" fill="#030203"/>
<path d="M17.5 20.7C17.8 21.3 17.7 20.6 18 21.1C17.8 21.1 17.7 21 17.8 21.3C18.1 21.5 18 21.1 18.3 21.5L18 21.4C18 21.7 18.4 21.9 18.3 22C17.8 21.5 18 22.5 17.8 22.5H17.9V22.9L17.8 22.8C17.9 23.2 17.9 23.5 17.7 23.5C17.4 23.2 17.1 23.8 16.8 23.6C16.9 23.6 17 23.6 17 23.4L16.7 23C16.5 23.1 16.9001 23.4 16.6001 23.3C16.2001 22.7 16.8 23.1 16.9 23C16.8 22.9 16.6 22.8 16.5 22.8C16.7 22.6 16.8 22.3 17.4 22.7C17.4 22.5 17.2001 22.3 17.1001 22.3C17.5001 22.5 17 21.9 17.4 22.1C17 21.6 16.9 22.1 16.5 21.9C16.6 22.5 16 22.3 15.7 22.4C16 22.8 16.3 23 16.4 23.3C16.3 23.7 16 23.3 15.7 23.2C15.6 23.5 16.1 23.8 15.9 24L16.2 24.1C16.4 24.7 15.9 24 15.9 24.2C15.8 24 15.7 23.9 15.9 23.8C15.8 23.6 15.6001 23.6 15.6001 23.6C15.4001 23.4 15.1001 23.1 15.1001 23.4C15.4001 23.6 15.1 23.7 15.2 23.9H15.3C15.1 23.9 15 24 14.9 24L15 24.1C14.8 24 14.5 23.7 14.4 23.9C14.5 24 15 24.3 14.8 24.4C15 24.6 15.2 24.5 15.2 24.3C15.1 24.5 15.3 24.9 15.5 24.8C15.7 25.1 15.3 24.8 15.3 25C15.3 24.9 15.1001 24.8 15.1001 24.7C15.4001 25.1 14.8001 25 14.6001 24.7L14.9 24.8C14.7 24.5 14.3 24.4 14.3 24.2C14.6 24.8 13.7 24.3 13.9 24.8L13.8 24.5C13.6 24.9 12.9 24.5 12.4 24.7C12.6 24.8 13.0001 25.3 13.1001 25C12.9001 25.3 13.4 25.6 13.5 26C13.4 26.4 13 25.6 12.8 25.5H13C12.3 25 12.5 26.1 11.8 26C11.9 26.2 11.9 26 12 26.1C12.1 26.5 11.8001 26.1 11.6001 26.1C11.5001 26.3 11.4 26.6 11.8 26.9C11.7 27.1 11.6 26.6 11.4 26.6V26.7L10.9 26.4C10.8 26.6 10.8001 27 11.1001 27.4C10.7001 27.6 10.3 26.6 9.90004 26.7C9.90004 27 10.2 27 10.3 27.1L10 27.2C10.4 27.6 10.4 27.2 10.8 27.7C10.2 27.3 10.4 27.8 9.90004 27.6V27.5C9.50004 27.2 9.40004 27.7 9.20004 27.7C9.40004 27.9 9.60005 27.8 9.80005 27.7C9.80005 28 9.20004 28.2 8.70004 27.8C8.70004 27.9 8.60004 28.3 8.90004 28.4C8.60004 28.7 8.20005 27.9 8.10005 28.2L8.40004 28.5C8.50004 29.2 7.40005 28.6 7.50005 29.3L7.10005 28.9C7.20005 29.1 7.10004 29.3 7.20004 29.5H7.50005C7.70005 29.9 7.10005 29.3 7.10005 29.7C7.00005 29.6 6.90005 29.2 6.80005 29.1C7.60005 28.8 7.80004 27.7 8.70004 27.6C8.70004 27.7 8.70005 27.7 8.80005 27.8C8.80005 27.6 9.00005 27.6 8.80005 27.4C9.00005 27.4 8.80004 26.7 8.90004 26.7C9.20004 26.9 9.20005 26.3 9.50005 26.8L9.40004 26.4C9.60004 26.5 9.70004 26.8 9.90004 26.8C10 26.7 9.80005 26.5 9.60005 26.4C9.90005 25.8 10.5001 25.5 11.1001 25.3L10.8 25.2C10.8 25 11.5 25.3 11 24.8C11.4 24.9 11.5 24.2 12 24.8C11.7 24.1 12.4 24.1 12.7 24C13 24.6 13.1 24 13.3 24.1C13 23.7 12.7 23.9 12.5 23.6C13.3 24 13.1 22.5 14 23.4C14 23.3 14 23.3 13.9 23.3C14 23.3 13.9 23 13.9 22.9C14.1 23.1 14 23.2 14.2 23.2C14.3 23.1 14 22.8 14 22.7C14.4 22.8 14.8 22.6 15.2 23C15.2 22.8 15.1 22.5 15 22.5C15.6 22.6 15.3 22.2 15.8 22.1C15.7 22.2 15.4 21.7 15.4 22C15.1 21.3 16.1001 21.7 16.1001 21.2L16.5 21.5C16.7 21.4 16.5 21.1 16.3 21C16.4 20.5 16.8 20.7 17 20.5C17 20.4 16.9 20.4 16.9 20.4L17.2 20.2C17.3 20.3 17.6 20.4 17.7 20.7C17.7 20.5 17.6 20.4 17.5 20.7Z" fill="#030203"/>
<path d="M21.7002 19.3001C22.0002 19.9001 21.4002 19.3001 21.4002 19.6001C21.6002 19.6001 21.8002 20.0001 21.9002 20.2001C21.2002 19.5001 21.8002 20.5001 21.3002 20.5001C21.5002 20.8001 21.6002 20.7001 21.8002 21.0001C21.5002 20.9001 21.2002 21.0001 20.8002 20.6001C20.5002 20.8001 20.4003 21.1001 20.1003 21.1001C20.4003 21.1001 20.4002 21.5001 20.8002 21.8001C20.3002 21.4001 19.3003 21.1001 18.6003 20.7001C18.9003 21.2001 18.9002 21.3001 19.2002 21.7001C19.0002 22.3001 18.8002 21.3001 18.5002 21.7001L18.6003 21.5001C18.3003 21.5001 18.0002 21.0001 17.8002 20.7001L18.3002 20.5001C18.1002 20.2001 17.9002 20.4001 17.7002 20.4001C17.3002 20.1001 17.7002 20.0001 17.5002 19.7001C17.7002 19.9001 17.8002 19.7001 18.0002 19.8001L17.9002 19.6001C18.0002 19.3001 18.4002 19.7001 18.5002 19.5001C18.5002 19.4001 18.5002 19.4001 18.4002 19.4001C18.6002 19.6001 18.8002 19.8001 19.0002 19.8001H18.9002C19.3002 20.1001 19.9002 20.2001 19.9002 20.8001L20.2002 20.4001C19.9002 20.0001 19.3002 19.3001 19.0002 19.4001L18.8002 19.2001C18.8002 18.8001 19.6002 19.2001 19.7002 19.7001C20.6002 20.7001 20.4002 19.3001 21.0002 19.6001C20.8002 19.3001 20.6002 19.3001 20.4002 19.1001C20.3002 19.1001 20.2002 19.2001 20.4002 19.4001C19.9002 19.5001 19.9002 18.4001 19.5002 18.8001C19.4002 19.1001 20.1002 19.1001 19.8002 19.4001L19.0002 18.7001C19.2002 18.6001 19.5002 18.6001 19.7002 18.6001C21.0002 18.6001 21.3002 17.7001 21.3002 17.7001C22.7002 17.0001 24.2003 16.3001 25.6003 15.6001C26.1003 15.5001 26.3002 15.4001 26.9002 16.2001C26.9002 16.4001 26.6002 16.5001 26.8002 16.7001C26.6002 16.4001 26.3003 16.3001 26.1003 16.5001C26.2003 16.8001 26.4002 16.5001 26.4002 16.7001C26.5002 16.9001 26.6002 16.9001 26.7002 16.9001C26.7002 17.5001 26.2002 17.7001 25.7002 17.2001C25.7002 17.6001 26.1002 17.6001 26.3002 17.8001C25.7002 18.4001 25.2002 18.6001 24.5002 19.1001C24.2002 18.6001 24.2002 18.8001 23.9002 18.5001L24.0002 18.7001C24.0002 18.6001 23.7002 18.3001 23.7002 18.1001C23.5002 18.8001 22.8002 17.6001 22.4002 17.6001L22.6003 17.9001C22.3003 18.0001 22.3002 18.0001 22.0002 18.0001C21.9002 18.8001 22.4002 17.9001 22.7002 18.7001L22.5002 18.6001C22.7002 18.8001 23.1002 19.3001 23.3002 19.4001C22.7002 19.2001 22.9002 19.9001 22.3002 19.8001C22.5002 20.1001 23.0003 20.1001 23.1003 20.1001C23.0003 20.2001 22.6002 20.1001 22.8002 20.4001L22.5002 20.0001C22.2002 20.1001 22.8002 20.4001 22.8002 20.6001C22.6002 20.8001 22.3002 19.3001 21.7002 19.3001Z" fill="#030203"/>
<path d="M16.4001 23.1001C16.4001 23.0001 16.5002 23.0001 16.6002 23.0001C16.6002 23.0001 16.5001 23.1001 16.4001 23.1001Z" fill="#030203"/>
<path d="M18.0002 23.1C18.0002 23.2 18.1003 23.2 18.1003 23.2C18.0003 23.2 18.0002 23.1 18.0002 23.1Z" fill="#030203"/>
<path d="M18.4002 23.5C18.3002 23.3 18.2002 23.3 18.0002 23.2C18.2002 23.3 18.4002 23.2 18.4002 23.5Z" fill="#030203"/>
<path d="M5.80025 31.4L5.70024 31.9C6.00024 32.4 6.00024 31.9 6.20024 32C6.00024 32.3 6.00025 32.1 5.60025 32C5.50025 32.1 5.20024 32 5.00024 31.9C5.70024 31.9 4.80025 30.9 5.80025 31.4Z" fill="#030203"/>
<path d="M6.1002 30.3C5.8002 29.6 6.7002 30.3 6.7002 29.9C6.7002 29.9 6.6002 29.8 6.5002 29.8L6.7002 29.7L6.6002 29.6C6.8002 29.9 7.10019 29.9 7.40019 30C7.50019 30.5 7.0002 29.7 7.1002 30.2C7.3002 30.3 7.5002 30.5 7.6002 30.6C7.4002 30.5 7.2002 30.4 7.0002 30.3C6.9002 30.4 7.0002 30.5 7.1002 30.6C6.8002 30.5 6.4002 30.1 6.3002 30.4C6.4002 30.8 6.70019 30.7 6.40019 30.8C6.10019 30.2 6.20019 31.1 5.90019 30.8C5.80019 31 6.0002 31.4 6.2002 31.6C5.9002 31.2 5.5002 31 5.2002 31.1L5.7002 31.2L5.40019 30.7C5.90019 30.6 6.0002 30.5 6.1002 30.3Z" fill="#030203"/>
<path d="M7.7002 30.5001H7.8002C7.8002 30.6001 7.8002 30.6001 7.7002 30.5001Z" fill="#030203"/>
<path d="M6.40015 31.7H6.50015L6.60016 31.9L6.40015 31.7Z" fill="#030203"/>
<path d="M8.10017 30.7C8.10017 30.7 7.90017 30.6 8.00017 30.6L8.10017 30.7Z" fill="#030203"/>
<path d="M8.10016 30.3001L7.90015 30.0001L8.20015 30.1001L8.10016 30.3001Z" fill="#030203"/>
<path d="M11.7 26.9C11.7 27.2 11.5 26.8 11.3 26.6C11.4 26.4 11.5 26.9 11.7 26.9Z" fill="#030203"/>
<path d="M14.5002 25.4C14.5002 25.7 14.1002 25.5 14.0002 25.6C14.1002 25.3 14.3002 25.3 14.5002 25.4Z" fill="#030203"/>
<path d="M16.4 25.7001C16.3 25.6001 16.2 25.6001 16.3 25.5001L15.8 25.0001C15.8 24.7001 16.2 25.4001 16.4 25.7001Z" fill="#030203"/>
<path d="M17.7001 24.9L17.3002 24.8L17.4001 24.7C17.2001 24.5 17.1001 24.4 16.9001 24.3C17.1001 24.4 17.4001 24.5 17.7001 24.9Z" fill="#030203"/>
<path d="M16.6001 24.4001C16.7001 24.3001 16.7001 24.3001 16.6001 24.4001C16.7001 24.4001 16.8001 24.5001 16.6001 24.4001Z" fill="#030203"/>
<path d="M16.8001 24.3001C16.7001 24.2001 16.7001 24.3001 16.8001 24.3001V24.3001Z" fill="#030203"/>
<path d="M17.6001 24.5L18.0001 24.3L17.9001 24.5C17.7001 24.2 17.9001 24.9 17.6001 24.5Z" fill="#030203"/>
<path d="M19.2002 23L19.0002 22.6C19.2002 22.4 20.0002 23 19.7002 22.3C19.7002 22.6 20.1002 22.6 19.9002 22.9C19.7002 22.6 19.3002 22.8 19.2002 23Z" fill="#030203"/>
<path d="M19.7001 21.9C19.6001 21.8 19.6001 21.7 19.6001 21.6C19.7001 21.5 19.8001 21.6 19.9001 21.8C19.5001 21.4 20.0001 22.1 19.7001 21.9Z" fill="#030203"/>
<path d="M20.8001 21.3001C20.7001 21.3001 20.6001 21.4001 20.7001 21.2001C20.9001 21.1001 21.1001 21.5001 21.4001 21.7001C21.3001 22.0001 20.8001 21.5001 20.8001 21.3001Z" fill="#030203"/>
<path d="M20.7001 17.6C20.9001 17.9 20.7001 18 20.6001 17.9C20.7001 17.9 20.7001 17.8 20.7001 17.6Z" fill="#030203"/>
<path d="M22.4002 20.2L22.3002 20.3L22.0002 19.8L22.4002 20.2Z" fill="#030203"/>
<path d="M23.7002 19.7L24.0002 19.9L23.8002 20L23.7002 19.7Z" fill="#030203"/>
<path d="M23.9001 19.5L24.1002 19.4V19.6C24.1002 19.7 24.0001 19.5 23.9001 19.5Z" fill="#030203"/>
</g>
</g>
<mask id="mask2_70_334" style="mask-type:luminance" maskUnits="userSpaceOnUse" x="95" y="178" width="48" height="18">
<path d="M142.7 195.1C139.5 194.8 136.2 194.4 132.8 193.8C120.2 191.6 107.8 188.2 96.0999 184.1C95.8999 183.9 95.7 183.8 95.7 183.8C96.2 182.7 96.5999 181.7 96.8999 180.8C97.3999 179.7 97.7999 178.8 97.9999 178.4C97.9999 178.4 106.3 182.9 125.1 187.1C136.6 189.7 143.1 192.7 142.7 195.1Z" fill="white"/>
</mask>
<g mask="url(#mask2_70_334)">
<g opacity="0.78">
<path d="M112.4 191.1V191.4C112.3 191.3 112.3 191.2 112.4 191.1Z" fill="#030203"/>
<path d="M104.7 187.5C104.7 187.4 104.6 187.3 104.6 187.1L104.7 187.5Z" fill="#030203"/>
<path d="M105.8 186.6L105.9 186.5C105.8 186.5 105.8 186.6 105.8 186.6Z" fill="#030203"/>
<path d="M97.5 186.8V186.9C97.4 186.9 97.5 186.8 97.5 186.8Z" fill="#030203"/>
<path d="M97.2999 186C97.1999 186 97.2 185.9 97.2 185.9V185.8C97.3 185.8 97.2999 185.9 97.2999 186Z" fill="#030203"/>
<path d="M97.7001 185.9L97.6001 185.8C97.7001 185.8 97.7001 185.9 97.7001 185.9Z" fill="#030203"/>
<path d="M98.6001 181.3L98.9001 181.2C98.8001 181.2 98.7001 181.3 98.6001 181.3Z" fill="#030203"/>
<path d="M97.4001 187.2C97.4001 187.1 97.4002 187 97.5002 186.9C97.4002 187 97.5001 187.1 97.4001 187.2Z" fill="#030203"/>
<path d="M115.1 191.9C115.2 191.9 115.2 192 115.3 192.1C115.1 192.1 115.1 192 115.1 191.9Z" fill="#030203"/>
<path d="M99.7002 187.6C100.2 186.9 99.5001 187.4 99.9001 186.7C99.9001 186.9 100 187.1 100.3 186.8C100.4 186.3 100 186.7 100.3 186V186.4C100.6 186.2 100.7 185.6 100.8 185.7C100.5 186.7 101.5 185.7 101.6 185.9V185.8L102.1 185.5C102.1 185.6 102.1 185.6 102 185.7C102.3 185.3 102.7 185.1 102.8 185.3C102.6 185.9 103.4 185.8 103.3 186.3C103.3 186.1 103.2 186.1 103 186.2L102.7 186.8C102.9 186.9 103 186.2 103 186.7C102.6 187.5 102.7 186.6 102.5 186.6C102.5 186.8 102.5 187 102.5 187.1C102.2 187 101.7 187.2 101.9 186.2C101.7 186.3 101.6 186.7 101.6 186.8C101.6 186.2 101.2 187.2 101.2 186.7C100.9 187.5 101.5 187.3 101.5 187.9C102.1 187.4 102.2 188.2 102.5 188.4C102.8 187.8 102.7 187.2 103 186.9C103.5 186.6 103.2 187.4 103.2 187.8C103.5 187.7 103.6 186.8 104 186.9L103.9 186.4C104.4 185.6 104 186.8 104.2 186.7C104.1 186.9 104 187.1 103.8 187C103.7 187.3 103.8 187.5 103.8 187.5H103.7C103.6 187.9 103.5 188.4 103.8 188.3C103.8 187.7 104.1 188 104.3 187.8V187.7C104.4 187.9 104.6 187.9 104.7 188V187.9C104.8 188.1 104.6 188.8 104.8 188.7C104.9 188.4 104.9 187.7 105 187.9C105.1 187.5 104.9 187.4 104.6 187.5C104.8 187.4 105.1 186.8 104.9 186.7C105.1 186.2 105 187 105.2 186.8C105.1 186.9 105.1 187.1 105.1 187.3C105.3 186.7 105.6 187.4 105.4 187.8L105.3 187.4C105.1 187.9 105.3 188.3 105.1 188.6C105.5 187.8 105.6 189.2 105.9 188.5L105.7 188.9C106.2 188.8 106.4 189.9 106.8 190.2C106.7 189.9 107 189 106.6 189.2C107.1 189.2 107 188.3 107.3 187.9C107.7 187.7 107.2 188.8 107.3 189.1L107.1 188.9C107.1 190 108.1 188.9 108.4 189.7C108.5 189.4 108.3 189.5 108.3 189.4C108.7 188.9 108.5 189.6 108.6 189.8C108.8 189.8 109.2 189.6 109.2 188.9C109.5 188.8 109.1 189.3 109.1 189.5L109.2 189.4L109.3 190.2C109.6 190 109.9 189.7 110.2 189.1C110.7 189.4 110 190.7 110.3 191C110.6 190.7 110.4 190.5 110.4 190.2L110.7 190.3C110.8 189.5 110.4 189.8 110.7 189C110.7 189.9 111 189.3 111.2 190V190.1C111.2 190.7 111.7 190.4 111.9 190.6C111.9 190.2 111.7 190.1 111.6 189.9C111.9 189.7 112.4 190.1 112.5 190.9C112.7 190.8 113 190.6 112.9 190.2C113.4 190.2 112.8 191.4 113.3 191.2L113.4 190.6C114.1 189.9 114.1 191.6 114.7 190.9L114.5 191.6C114.7 191.3 114.9 191.2 115 191L114.8 190.7C115.1 190.1 114.9 191.3 115.2 191C115.1 191.2 114.8 191.7 114.8 191.9C114 191.3 112.8 192.1 112.1 191.1C112.2 191 112.2 190.9 112.2 190.8C112.1 190.9 111.9 190.7 111.8 191.1V191.2C111.6 191 111.2 191.8 111 191.8C111 191.3 110.4 191.9 110.8 191.1L110.5 191.6C110.5 191.3 110.7 190.9 110.6 190.7C110.4 190.7 110.3 191.1 110.4 191.3C109.7 191.5 108.9 191.2 108.3 190.7L108.4 191.1C108.2 191.3 108 190.3 107.9 191.3C107.7 190.8 106.9 191.3 107.2 190.3C106.7 191.3 106.3 190.5 105.9 190.2C106.2 189.3 105.6 189.8 105.6 189.4C105.3 190.1 105.8 190.2 105.6 190.7C105.5 189.5 104 191 104.4 189.2C104.3 189.2 104.3 189.3 104.3 189.4C104.2 189.4 104 189.6 103.9 189.7C104 189.4 104.2 189.3 104 189.1C103.8 189.1 103.7 189.6 103.6 189.8C103.4 189.3 103 188.9 103.2 188.2C103 188.4 102.8 188.7 102.8 188.9C102.5 188.2 102.3 188.8 101.9 188.2C102.1 188.3 101.7 189 102.1 188.8C101.5 189.7 101.4 188.3 100.7 188.6L100.8 187.9C100.6 187.7 100.3 188.2 100.4 188.5C99.8001 188.6 99.7001 188.2 99.4001 188C99.3001 188.1 99.3001 188.2 99.4001 188.2L98.9001 187.9C98.9001 187.7 98.9002 187.3 99.2002 187C99.4002 187.4 99.4002 187.6 99.7002 187.6Z" fill="#030203"/>
<path d="M104.8 186.3C104.7 186.4 104.6 186.5 104.6 186.5C104.6 186.4 104.7 186.3 104.8 186.3Z" fill="#030203"/>
<path d="M96.9002 182.6C97.8002 182.2 96.9002 182.9 97.2002 183C97.2002 182.7 97.8002 182.5 98.1002 182.4C97.1002 183.2 98.5002 182.5 98.5002 183C98.8002 182.8 98.8002 182.6 99.2002 182.3C99.0002 182.6 99.1002 183 98.5002 183.5C98.8002 183.8 99.2002 183.8 99.2002 184.1C99.2002 183.7 99.7002 183.5 100 182.9C99.5002 183.7 99.4002 184.9 99.2002 186C99.7002 185.4 99.8002 185.3 100.1 184.7C100.8 184.5 99.8001 185.4 100.3 185.5H100C100.1 185.8 99.7002 186.5 99.5002 187C99.3002 186.9 99.2002 186.7 99.0002 186.6C98.7002 187.1 99.1002 187.2 99.1002 187.4C98.9002 188.1 98.5001 187.6 98.3001 188.1C98.5001 187.7 98.1002 187.6 98.1002 187.4L97.9002 187.6C97.4002 187.6 97.7002 186.9 97.5002 186.8C97.4002 186.8 97.4002 186.9 97.4002 186.9C97.5002 186.6 97.7002 186.2 97.6002 186L97.7002 186.1C97.9002 185.4 97.9002 184.7 98.7002 184.4L98.1002 184.1C97.6002 184.7 96.8002 185.6 97.1002 185.9L96.9002 186.2C96.3002 186.3 96.7001 185.1 97.3001 184.8C97.9001 184.1 97.7002 183.9 97.5002 183.8C97.3002 183.7 96.9002 183.6 97.1002 183.2C96.6002 183.4 96.6002 183.7 96.4002 184C96.4002 184.2 96.5002 184.3 96.9002 184C97.1002 184.7 95.5002 184.8 96.2002 185.4C96.7002 185.5 96.5002 184.5 96.9002 184.9C96.6002 185.3 96.4002 185.7 96.2002 186.1C95.9002 185.8 95.9001 185.4 95.8001 185C95.7001 184.5 95.6002 184.1 95.5002 183.8C95.4002 183.4 95.3002 183.2 95.1002 182.9C94.9002 182.7 94.9002 182.5 94.7002 182.3C94.6002 182.2 94.5002 182.1 94.5002 182.1C94.2002 180.8 94.4002 179.4 94.8002 178.3C95.2002 177.2 95.8002 176.2 96.5002 175.3C97.0002 174.9 97.2002 174.6 98.4002 175.3C98.5002 175.6 98.2002 175.8 98.7002 176C98.3002 175.7 97.9002 175.7 97.7002 176C98.1002 176.3 98.1002 175.9 98.1002 176V176.1C98.3002 176.2 98.5002 176.3 98.6002 176.2C99.0002 176.9 98.6002 177.2 97.7002 177C98.0002 177.5 98.5002 177.2 98.9002 177.3C98.8002 178.2 98.5002 178.7 98.4002 179.4C97.5002 179.2 97.8002 179.4 97.2002 179.4L97.5002 179.5C97.3002 179.4 96.7002 179.5 96.6002 179.2C97.2002 179.8 95.3002 179.7 94.9002 180.3H95.4002C95.3002 180.7 95.3002 180.8 95.1002 181.2C96.0002 181.7 95.2001 180.6 96.3001 180.7L96.1002 180.9C96.5002 180.8 97.3002 180.6 97.6002 180.5C97.2002 180.7 97.3002 180.9 97.4002 181C97.5002 181.1 97.7002 181.2 97.5002 181.5C98.0002 181.3 98.3001 180.9 98.3001 180.8C98.4001 180.9 98.1002 181.2 98.5002 181.1L97.9002 181.3C97.9002 181.6 98.5002 181.1 98.9002 181.1C98.9002 181.3 98.4002 181.5 97.9002 181.7C97.5002 182.1 96.9002 182.2 96.9002 182.6Z" fill="#030203"/>
<path d="M103 187C102.9 187 102.8 187 102.8 186.9C102.9 186.9 102.9 186.9 103 187Z" fill="#030203"/>
<path d="M102.5 184.4C102.3 184.6 102.4 184.7 102.3 185C102.3 184.9 102.1 184.8 102.5 184.4Z" fill="#030203"/>
<path d="M124.9 191.5C124.9 191.7 125 191.9 124.9 192.1L124.7 191.8L124.9 191.5Z" fill="#030203"/>
<path d="M124.1 192L123.7 192.1L123.8 191.2C124.2 191.3 123.8 191.8 124.1 192Z" fill="#030203"/>
<path d="M123.3 191.8L123.4 191.2L123.6 191.8L123.4 191.9C123.3 192.1 123.2 192.2 123.2 192.3V191.8C123.2 191.7 123.3 191.9 123.3 191.8Z" fill="#030203"/>
<path d="M123 191.7C123 191.6 123.1 191.6 123.1 191.5C123.1 191.6 123.1 191.6 123 191.7Z" fill="#030203"/>
<path d="M122 192.5C122.1 192.3 122.1 191.9 122.2 191.7C122.5 191.6 122.3 192.5 122.6 192.2C122.4 191.6 122.9 191.9 123.1 191.6C122.8 192.1 122.6 192.5 122.2 192.5L122.3 192.1C122.1 192.2 122.1 192.4 122 192.5Z" fill="#030203"/>
<path d="M120.9 191.2V191.8C121 191.5 121.4 191.6 121.5 191.1C121.6 191.2 121.5 191.5 121.6 191.7C121.8 191.4 121.9 191.2 121.9 191.7C121.3 191.9 121.4 192.1 120.9 192.1C120.9 192.2 120.9 192.2 121 192.2L120.6 192.4C120.8 191.7 120.4 191.5 120.9 191.2Z" fill="#030203"/>
<path d="M120.3 191.5C120.5 191.6 120.5 192.2 120.2 192.5L119.9 191.9C120.1 191.9 120.2 192 120.3 191.5Z" fill="#030203"/>
<path d="M120 191.4C119.8 191.7 119.5 192.3 119.5 191.6C119.7 191.8 119.8 190.9 120 191.4Z" fill="#030203"/>
<path d="M118.1 191.4L118.7 191.1C119 190.4 118.5 190.8 118.5 190.4C118.9 190.4 118.7 190.6 118.9 191.1C119 191.1 119.1 191.5 119.2 191.8C118.7 191.1 118.2 192.9 118.1 191.4Z" fill="#030203"/>
<path d="M119.3 190.9L119.2 191.2L119.1 190.9H119.3Z" fill="#030203"/>
<path d="M116.8 191.9C116.3 192.7 116.4 191.3 116 191.6C116 191.7 116 191.7 116 191.9L115.8 191.7L115.7 191.9C115.9 191.4 115.6 191.1 115.6 190.6C116 190.1 115.6 191.3 116 190.7C116 190.4 116.1 190.1 116.1 189.8C116.2 190.1 116.2 190.4 116.1 190.8C116.3 190.9 116.3 190.6 116.4 190.4C116.5 190.8 116.3 191.6 116.7 191.5C117 191.1 116.8 190.7 117.1 191C116.7 191.8 117.5 191 117.5 191.5C117.8 191.4 118.1 190.9 118.1 190.6C117.9 191.3 118 191.9 118.1 192.1L117.8 191.4L117.4 192.1C117.2 191.8 117 191.8 116.8 191.9Z" fill="#030203"/>
<path d="M116.1 189.9C116.1 189.8 116.1 189.8 116 189.7C116.1 189.7 116.1 189.8 116.1 189.9Z" fill="#030203"/>
<path d="M118.1 190.5V190.3L118.2 190.1L118.1 190.5Z" fill="#030203"/>
<path d="M116 189.3C116.1 189.3 116 189.6 116 189.6V189.2V189.3Z" fill="#030203"/>
<path d="M115.6 189.7L115.4 190.2V189.8L115.6 189.7Z" fill="#030203"/>
<path d="M109.8 188.8C110.1 188.6 109.9 189.1 109.8 189.5C109.5 189.5 110 189 109.8 188.8Z" fill="#030203"/>
<path d="M106.5 187.1C106.8 186.8 106.8 187.4 107 187.4C106.8 187.6 106.6 187.4 106.5 187.1Z" fill="#030203"/>
<path d="M105.7 184.9C105.7 185.1 105.7 185.2 105.6 185.2L105.5 186.2C105 186.4 105.5 185.3 105.7 184.9Z" fill="#030203"/>
<path d="M104.2 184.2L104.3 184.6H104.2C104.1 185 104.1 185.2 104.1 185.5C103.9 185.2 103.9 184.8 104.2 184.2Z" fill="#030203"/>
<path d="M104.2 185.8C104.2 185.7 104.2 185.7 104.2 185.8C104.2 185.6 104.3 185.4 104.2 185.8Z" fill="#030203"/>
<path d="M104 185.6V185.5C104.1 185.6 104.1 185.6 104 185.6C104.1 185.7 104 185.8 104 185.6Z" fill="#030203"/>
<path d="M103.9 184.5L103.5 184.2L103.7 184.1C103.5 184.7 104.1 183.9 103.9 184.5Z" fill="#030203"/>
<path d="M101.6 184L101.3 184.5C101 184.5 101.4 183.2 100.7 183.9C101 183.7 100.9 183.2 101.2 183.3C101 183.7 101.3 184 101.6 184Z" fill="#030203"/>
<path d="M100.2 184.1C100.1 184.3 100 184.3 99.9002 184.4C99.8002 184.4 99.8002 184.1 100 183.9C99.7002 184.7 100.5 183.7 100.2 184.1Z" fill="#030203"/>
<path d="M99.3001 183.3C99.3001 183.4 99.4001 183.5 99.2001 183.5C99.1001 183.3 99.6001 182.9 99.8001 182.5C100.2 182.4 99.6001 183.2 99.3001 183.3Z" fill="#030203"/>
<path d="M98.2001 181.9H98.3001L97.6001 182.3C97.8001 182.2 98.0001 182 98.2001 181.9Z" fill="#030203"/>
<path d="M98.3 180.7C98.5 180.6 98.6 180.6 98.8 180.6L98.7001 180.8L98.3 180.7Z" fill="#030203"/>
<path d="M98.2 180.4L98.2999 180.2L98.4999 180.3C98.5999 180.4 98.2 180.4 98.2 180.4Z" fill="#030203"/>
<path d="M98.3999 179.8C98.2999 179.8 98.3999 179.8 98.4999 179.9C98.3999 179.9 98.3 180 98.2 180C98.2 180 98.2999 179.9 98.3999 179.8Z" fill="#030203"/>
</g>
</g>
<path d="M95.7 183.8C96.1 182.7 96.5999 181.7 96.9999 180.8C97.4999 179.7 97.8999 178.8 98.0999 178.4" stroke="#1B1C1E" stroke-width="1.2005" stroke-miterlimit="10" stroke-linecap="round" stroke-linejoin="round"/>
<path d="M47.8 136.2C47.8 136.2 68.6001 153.9 86.6001 157.9C104.6 161.9 88.5 145.1 88.5 145.1C88.5 145.1 99.2001 154.3 109.1 155.2C119 156.1 107.2 141.5 107.2 141.5C107.2 141.5 116.4 151.1 128 152.6C139.6 154.1 125.3 138.9 125.3 138.9C125.3 138.9 134.4 147.9 141.8 148" stroke="#1B1C1E" stroke-width="1.2005" stroke-miterlimit="10" stroke-linecap="round" stroke-linejoin="round"/>
</svg>
