<svg width="210" height="235" viewBox="0 0 210 235" fill="none" xmlns="http://www.w3.org/2000/svg">
<path d="M207.8 230.8C207.8 230.8 216.9 233.4 192.1 234.2C167.3 235 36.3002 235.4 22.8002 234.2C9.30016 233 -16.8999 233.7 17.9001 230.8C52.7001 227.9 88.5002 229.6 123.6 227.9C158.7 226.1 202.5 227.8 207.8 230.8Z" fill="#1B1C1E"/>
<path d="M40.5 29.2C34.3 33.5 25.5 38.8 25.5 38.8C18.5 21.8 26.8001 0.299951 28.8001 0.199951C28.8001 0.199951 40 8.29995 40.5 29.2Z" fill="#1B1C1E"/>
<path d="M46.4 24.5999C45.8 25.4999 43.4 27.1999 40.5 29.1999C39.9 8.39986 28.8 0.299867 28.8 0.299867C30.8 0.199867 33.4 2.59986 38.4 8.49986C43.4 14.4999 46.4 24.5999 46.4 24.5999Z" fill="#8B2403"/>
<path d="M40.5 31.3999C40.5 30.5999 40.5 29.8999 40.5 29.0999" stroke="#1B1C1E" stroke-miterlimit="10"/>
<path d="M80.1001 48.4999C80.1001 48.4999 74.5 39.7999 70.8 33.2999C80.4 14.7999 93.9 12.3999 93.9 12.3999C95.7 13.2999 93.8001 36.1999 80.1001 48.4999Z" fill="#1B1C1E"/>
<path d="M93.9 12.3999C93.9 12.3999 80.3 14.7999 70.8 33.2999C69.1 30.2999 67.7 27.6999 67.5 26.5999C67.5 26.5999 74.6 18.7999 81.7 15.5999C88.8 12.3999 92.2 11.4999 93.9 12.3999Z" fill="#8B2403"/>
<path d="M70.8 33.2998C70.5 33.9998 70.1 34.5998 69.8 35.2998" stroke="#1B1C1E" stroke-miterlimit="10"/>
<path d="M36.4 25.7C36.4 25.7 27 30.4 24.2 42C21.4 53.6 23.8 65.8 24.2 70.3C24.6 74.8 24.8 81 24 89.6C23.2 98.2 26.1 117 42 138.9C57.9 160.8 91.5 187.5 95.4 209.4C99.3 231.3 192.7 214.5 192.7 214.5C192.7 214.5 197.4 193.6 188.4 152.8C184.1 133.3 171.9 117.8 166.5 112.9C156.7 104.1 140.8 93.2 123.4 88.5C93 80.4 90.6 75.1 82 64.2C82 64.2 86.5 55.8 83.6 42.8C80.4 28.6 70.2 24.4 67.6 23.7C63.7 22.6 45.1 20.9 36.4 25.7Z" fill="#8B2403"/>
<path d="M83.8 66.5C83.8 66.5 74.9 100.7 51.6 102.4C33.8 103.7 24.6 78 24.6 78C24.6 75 24.4 72.4 24.2 70.3C24 68.5 23.5 65.3 23.2 61.5C25.9 67.1 30.8 72.6 36.5 75.1C41.9 77.5 48.6999 78.5 56.8999 77.9C62.4999 77.5 66.9 76.1 70.5 74.3C78.8 70.2 82 64.2 82 64.2C82.6 65 83.2 65.8 83.8 66.5Z" fill="#EBDAD2"/>
<path d="M70.5001 74.2C67.0001 76 62.5 77.4 56.9 77.8C48.7 78.4 41.9001 77.4 36.5001 75C33.8001 72.4 32.1 69.1001 32.9 65.6001C34.8 57.4001 42.5001 55.3 42.5001 55.3L67.0001 56.8C74.0001 62.3 74.4001 69.4 70.5001 74.2Z" fill="#EBDAD2"/>
<path d="M68.9 153.5C68.9 153.5 68.6 156.2 67.9 160.8C67.6 162.7 67.2001 164.8 66.8001 167.2C64.2001 181 58.8001 202.4 48.6001 218.1C48.6001 218.1 42.2 217.9 38.7 222.6C35.3 227.3 36.8001 232.5 36.8001 232.5C36.8001 232.5 59.0001 232.5 62.8001 232.5C66.2001 232.5 73.3 213.1 87.7 192.5C89.5 190 91.3001 187.5 93.3001 185C111.6 161.9 112.9 140 112.9 140L68.9 153.5Z" fill="#8B2403"/>
<path d="M83.1001 199.5C71.7001 217.3 65.9001 232.5 62.8001 232.5C58.9001 232.5 36.8001 232.5 36.8001 232.5C36.8001 232.5 35.3 227.4 38.7 222.6C42.1 217.9 48.6001 218.1 48.6001 218.1C53.2001 211.1 56.8001 202.9 59.6001 194.8C59.6001 194.9 76.3001 193.4 83.1001 199.5Z" fill="#A84E39"/>
<path d="M198.1 198.6C198.1 198.6 193.5 207.4 169.8 207C146.1 206.6 96.1 200.8 75.5 207.9C54.9 215 57.3 232.5 61.1 232.5C65 232.5 61.1 232.5 74.6 232.5C88.1 232.5 138.9 232.5 176.5 232.5C214.1 232.5 208.6 201.7 201.3 193.4C194 185.1 192.5 176.3 192.5 176.3C192.5 176.3 194 193.9 193.7 204.4L198.1 198.6Z" fill="#8B2403"/>
<path d="M155.3 212.1C125.1 216.4 109 223 82.9 223.7C56.8 224.3 64.7 214.1 64.7 214.1C67.3 211.7 70.8 209.5 75.6 207.8C96.2 200.7 146.2 206.5 169.9 206.9C171.3 206.9 172.7 206.9 174 206.9C174.6 207.1 184.6 208 155.3 212.1Z" fill="#751A01"/>
<path d="M44.3 232.5C44.3 232.5 42.6 228.1 46 224.8" stroke="#1B1C1E" stroke-miterlimit="10"/>
<path d="M53.8 225.5C53.8 225.5 51.9 228.5 53.4 232.5" stroke="#1B1C1E" stroke-miterlimit="10"/>
<path d="M50.3 54.8999C50.3 54.8999 47.6 54.6999 44.6 54.8999C41.6 55.0999 36.8 58.0999 37.9 63.5999C39 69.0999 42.8 70.6999 45.5 70.3999C48.2 69.9999 53.5 64.5999 53.5 64.5999L53.6 59.7999C53.6 59.5999 53.5 55.3999 50.3 54.8999Z" fill="#EBDAD2" stroke="#1B1C1E" stroke-miterlimit="10"/>
<path d="M56.7001 54.8999C56.7001 54.8999 59.4001 54.6999 62.4001 54.8999C65.4001 55.0999 70.2002 58.0999 69.1002 63.5999C68.0002 69.0999 64.2002 70.6999 61.5002 70.3999C58.8002 69.9999 53.5002 64.5999 53.5002 64.5999L53.4001 59.7999C53.4001 59.5999 53.5001 55.3999 56.7001 54.8999Z" fill="#EBDAD2" stroke="#1B1C1E" stroke-miterlimit="10"/>
<path d="M46.7 48.1999C46.7 48.1999 44 51.2999 38.7 50.5999C33.5 49.8999 32 45.5999 32 45.5999C32.3 44.5999 34.1 41.1999 38.8 41.0999C39.3 41.0999 39.8 41.0999 40.4 41.1999C40.7 41.1999 41 41.2999 41.2 41.2999C46.3 42.3999 46.7 48.1999 46.7 48.1999Z" fill="#FBAF5E"/>
<path d="M41.7001 44.5999C41.7001 47.1999 40.9001 49.2999 39.9001 49.2999C38.9001 49.2999 38.1001 47.1999 38.1001 44.5999C38.1001 43.1999 38.4001 41.8999 38.7001 41.0999C39.2001 41.0999 39.7001 41.0999 40.3001 41.1999C40.6001 41.1999 40.9001 41.2999 41.1001 41.2999C41.5001 42.0999 41.7001 43.2999 41.7001 44.5999Z" fill="#1B1C1E" stroke="#1B1C1E" stroke-miterlimit="10"/>
<path d="M60.1001 48.2998C60.1001 48.2998 62.8001 51.3998 68.0001 50.7998C73.2001 50.0998 74.8001 45.8998 74.8001 45.8998C74.5001 44.8998 72.8001 41.4998 68.1001 41.2998C67.6001 41.2998 67.1001 41.2998 66.5001 41.3998C66.2001 41.3998 65.9001 41.4998 65.7001 41.4998C60.5001 42.4998 60.1001 48.2998 60.1001 48.2998Z" fill="#FBAF5E"/>
<path d="M65.1001 44.6999C65.1001 47.2999 65.9001 49.3999 66.9001 49.3999C67.9001 49.3999 68.7001 47.2999 68.7001 44.6999C68.7001 43.2999 68.5001 41.9999 68.1001 41.0999C67.6001 41.0999 67.1001 41.0999 66.5001 41.1999C66.2001 41.1999 65.9001 41.2999 65.7001 41.2999C65.4001 42.2999 65.1001 43.3999 65.1001 44.6999Z" fill="#1B1C1E" stroke="#1B1C1E" stroke-miterlimit="10"/>
<path d="M53.6001 59.6C53.6001 59.6 50.5001 58 48.9001 55.6C47.3001 53.1 51.3001 52.7 53.9001 52.7C56.5001 52.8 58.9001 53.5 57.5001 55.8C56.0001 58.1 53.6001 59.6 53.6001 59.6Z" fill="#1B1C1E" stroke="#1B1C1E" stroke-miterlimit="10"/>
<path d="M90.3001 74.0999C90.3001 74.0999 82.3001 116.5 68.5001 131.6C51.3001 150.4 38.4001 133.7 38.4001 133.7C25.6001 114.1 23.2001 97.4999 24.0001 89.5999C24.5001 85.0999 24.6001 81.2999 24.6001 78.0999C24.6001 78.0999 33.9001 103.8 51.6001 102.5C74.9001 100.8 83.8001 66.5999 83.8001 66.5999C86.0001 69.3999 87.9001 71.8999 90.3001 74.0999Z" fill="#A84E39"/>
<path d="M64.6 23.0998C63.9 24.3998 61.4 28.7998 58.2 34.8998C55.7 39.6998 50.3 39.6999 47.6 34.2998C45.4 29.7998 42.6 25.1998 41.7 23.7998C49.3 21.8998 59.3 22.3998 64.6 23.0998Z" fill="#751A01"/>
<path d="M198.1 198.6C198.1 198.6 193.5 207.4 169.8 207C146.1 206.6 96.1 200.8 75.5 207.9" stroke="#1B1C1E" stroke-miterlimit="10"/>
<path d="M87.8 192.5C89.6 190 91.4 187.5 93.4 185C111.7 161.9 113 140 113 140" stroke="#1B1C1E" stroke-miterlimit="10"/>
<path d="M68.9 153.5C68.9 153.5 68.6 156.2 67.9 160.8C67.6 162.7 67.2 164.8 66.8 167.2" stroke="#1B1C1E" stroke-miterlimit="10"/>
<mask id="mask0_70_3723" style="mask-type:luminance" maskUnits="userSpaceOnUse" x="23" y="61" width="61" height="42">
<path d="M83.8 66.5C83.8 66.5 74.9 100.7 51.6 102.4C33.8 103.7 24.6 78 24.6 78C24.6 75 24.4 72.4 24.2 70.3C24 68.5 23.5 65.3 23.2 61.5C25.9 67.1 30.8 72.6 36.5 75.1C41.9 77.5 48.6999 78.5 56.8999 77.9C62.4999 77.5 66.9 76.1 70.5 74.3C78.8 70.2 82 64.2 82 64.2C82.6 65 83.2 65.8 83.8 66.5Z" fill="white"/>
</mask>
<g mask="url(#mask0_70_3723)">
<g opacity="0.78">
<path d="M78.1998 70.7C78.1998 70.6 78.0998 70.5 78.0998 70.5C77.9998 70.5 78.0998 70.5 78.1998 70.7Z" fill="#290B01"/>
<path d="M72.5999 74.3L72.6998 74.6001C72.6998 74.5001 72.5999 74.4 72.5999 74.3Z" fill="#290B01"/>
<path d="M77.1998 68.7999C77.1998 68.6999 77.1999 68.5999 77.0999 68.3999L77.1998 68.7999Z" fill="#290B01"/>
<path d="M75.8998 68.3L75.7998 68.2C75.7998 68.2 75.8998 68.2 75.8998 68.3Z" fill="#290B01"/>
<path d="M82.9998 66.8C82.9998 66.9 82.9998 66.9 82.9998 66.8C82.9998 66.9 83.0998 66.9 82.9998 66.8Z" fill="#290B01"/>
<path d="M82.8999 66.2C82.9999 66.1 82.9999 66.1 82.8999 66.2V66.1C82.8999 66 82.8999 66.1 82.8999 66.2Z" fill="#290B01"/>
<path d="M83.1998 67.2C83.1998 67.1 83.0998 67.1 82.9998 67C83.0998 67 83.0998 67.1 83.1998 67.2Z" fill="#290B01"/>
<path d="M78.1998 70.8L78.0999 70.7C78.1999 70.7 78.1998 70.8 78.1998 70.8Z" fill="#290B01"/>
<path d="M70.4999 75.7C70.4999 75.8 70.3999 75.7999 70.3999 75.8999C70.5999 75.8999 70.5999 75.8 70.4999 75.7Z" fill="#290B01"/>
<path d="M81.3998 67.6999C80.6998 67.0999 81.4998 67.4999 80.8998 66.8999C80.9998 67.0999 80.9999 67.3 80.5999 67C80.2999 66.6 80.7999 66.8 80.2999 66.3L80.3998 66.6C79.9998 66.4 79.6998 65.9 79.6998 66C80.3998 66.8 78.9999 66.1 79.0999 66.3V66.1999L78.5999 66L78.6998 66.1C78.2998 65.8 77.8999 65.6999 77.7999 65.8999C78.1999 66.3999 77.4998 66.4999 77.6998 66.8999C77.6998 66.6999 77.6998 66.6999 77.8998 66.6999L78.3998 67.1999C78.1998 67.2999 77.8999 66.6999 78.0999 67.1999C78.7999 67.8999 78.2998 67 78.4998 67C78.5998 67.2 78.6998 67.4 78.6998 67.5C78.8998 67.3 79.3999 67.4 78.7999 66.6C78.9999 66.7 79.2999 67 79.2999 67.1C78.9999 66.6 79.7999 67.3999 79.5999 66.8999C80.1999 67.5999 79.5998 67.5 79.8998 68C79.1998 67.7 79.3999 68.3999 79.2999 68.6999C78.7999 68.1999 78.5998 67.7 78.1998 67.5C77.6998 67.4 78.1998 68 78.3998 68.3C78.0998 68.3 77.5998 67.4999 77.3998 67.6999L77.1998 67.3C76.3998 66.8 77.2999 67.6999 77.0999 67.6999C77.2999 67.7999 77.4999 67.9999 77.5999 67.8999C77.7999 68.0999 77.8999 68.2999 77.7999 68.3999C78.0999 68.7999 78.3999 69.1 78.0999 69.1C77.7999 68.6 77.6998 68.9 77.4998 68.8V68.6999C77.4998 68.8999 77.2999 69 77.2999 69.1L77.1998 69C77.2998 69.2 77.6998 69.8 77.4998 69.8C77.2998 69.6 76.9998 68.9 76.8998 69.1C76.5998 68.8 76.7998 68.6 76.9998 68.6C76.7998 68.6 76.2998 68.1 76.3998 68C75.9998 67.6 76.3998 68.2999 76.1998 68.1999C76.2998 68.2999 76.3998 68.5 76.4998 68.6C75.9998 68.1 76.1998 68.7999 76.4998 69.1999L76.3998 68.8C76.7998 69.2 76.8999 69.7 77.0999 69.8C76.3999 69.2 76.9998 70.5 76.3998 70L76.7999 70.3C76.2999 70.4 76.6998 71.4 76.4998 71.8C76.3998 71.5 75.7998 70.7 76.1998 70.8C75.7998 70.9 75.4999 70.1 75.0999 69.8C74.5999 69.7 75.5998 70.5999 75.6998 70.8999L75.7999 70.6C76.2999 71.6 74.9999 70.8999 75.0999 71.6999C74.8999 71.4999 75.0998 71.4999 74.9998 71.3999C74.4998 71.0999 74.8998 71.5999 74.9998 71.8999C74.7998 71.8999 74.3999 71.8999 74.0999 71.1999C73.7999 71.1999 74.3998 71.5 74.3998 71.8L74.2999 71.6999L74.5999 72.5C74.2999 72.4 73.8998 72.3 73.3998 71.8C73.0998 72.2 74.1999 73.2 74.0999 73.6C73.6999 73.4 73.7998 73.0999 73.6998 72.8999L73.4998 73.1C73.0998 72.4 73.4998 72.6 72.9998 71.8C73.3998 72.7 72.8998 72.1999 72.9998 72.8999L73.0999 73C73.3999 73.6 72.7998 73.4 72.6998 73.6C72.4998 73.2 72.6998 73.0999 72.6998 72.8999C72.3998 72.7999 72.0998 73.3 72.3998 74.1C72.1998 74.1 71.7999 73.9 71.7999 73.5C71.3999 73.6 72.2998 74.6 71.8998 74.6L71.5999 74.1C70.7999 73.6 71.3999 75.2 70.5999 74.7L70.9998 75.3999C70.7998 75.1999 70.4998 75.0999 70.3998 74.8999V74.6C69.8998 74.1 70.5999 75.1999 70.0999 74.8999C70.1999 75.0999 70.5999 75.5 70.7999 75.7C71.2999 74.9 72.5999 75.4 72.7999 74.3C72.6999 74.2 72.5999 74.2 72.5999 74C72.7999 74.1 72.7998 73.8 72.9998 74.2V74.3C73.0998 74 73.7998 74.7 73.8998 74.6C73.6998 74.1 74.3999 74.5 73.7999 73.8L74.1998 74.2C73.9998 73.9 73.7998 73.5999 73.6998 73.3999C73.8998 73.3999 74.0999 73.6999 74.0999 73.8999C74.7999 73.8999 75.2999 73.3 75.5999 72.8L75.6998 73.1999C75.8998 73.2999 75.5998 72.2999 76.1998 73.1999C76.1998 72.6999 76.9999 72.9 76.2999 72.1C77.0999 72.8 77.1999 72 77.2999 71.6C76.5999 70.9 77.3998 71.2 77.1998 70.8C77.6998 71.3 77.3999 71.6 77.7999 72C77.3999 70.9 79.1999 71.9 78.0999 70.3C78.1999 70.3 78.1999 70.3999 78.2999 70.3999C78.3999 70.3999 78.6999 70.5 78.7999 70.5C78.5999 70.2 78.3998 70.2 78.3998 70C78.5998 70 78.8999 70.4 79.0999 70.5C78.9999 70 79.1998 69.5 78.6998 69C78.8998 69.1 79.2999 69.3 79.2999 69.5C79.1999 68.8 79.6999 69.2999 79.7999 68.6999C79.6999 68.7999 80.2998 69.3 79.8998 69.3C80.7998 69.9 80.2998 68.7 80.8998 68.8L80.4998 68.1999C80.5998 67.9999 81.0999 68.3999 81.0999 68.6999C81.6999 68.6999 81.4998 68.3 81.6998 68.1C81.7998 68.1 81.8999 68.2 81.7999 68.3L82.0999 68C81.9999 67.9 81.8998 67.4999 81.4998 67.1999C81.5998 67.4999 81.6998 67.6999 81.3998 67.6999Z" fill="#290B01"/>
<path d="M76.5999 67.7C76.6999 67.8 76.7998 67.8 76.8998 67.8C76.7998 67.8 76.6999 67.7 76.5999 67.7Z" fill="#290B01"/>
<path d="M82.8998 63.3999C81.9998 62.7999 82.8998 63.7 82.4998 63.7C82.4998 63.5 81.9998 63.1 81.6998 63C82.5998 64 81.2998 63 81.2998 63.5C80.9998 63.2 80.9998 63 80.5998 62.7C80.6998 63.1 80.6998 63.3999 81.1998 63.8999C80.9998 64.1999 80.5998 64.1999 80.5998 64.3999C80.4998 63.9999 80.0998 63.9 79.6998 63.3C80.1998 64.1 80.5998 65.2 81.1998 66.2C80.4998 65.7 80.4998 65.6 79.8998 65.1C79.1998 65 80.3998 65.7 79.8998 65.8H80.0998C80.1998 66.1 80.6998 66.6 81.0998 67.1L81.3998 66.7C81.7998 67.1 81.4998 67.2999 81.5998 67.3999C81.9998 67.9999 82.0998 67.4999 82.4998 67.8999C82.1998 67.4999 82.4998 67.5 82.3998 67.3L82.5998 67.5C82.9998 67.5 82.4998 66.9 82.6998 66.8C82.7998 66.8 82.7998 66.8999 82.8998 66.8999C82.6998 66.5999 82.3998 66.3 82.3998 66.1V66.2C81.9998 65.6 81.8998 65 81.0998 64.7L81.5998 64.5C82.1998 65.1 83.0998 65.9 82.8998 66.2L83.0998 66.3999C83.5998 66.4999 82.9998 65.5 82.3998 65.2C81.0998 63.8 82.7998 64.6 82.3998 63.8C82.7998 64.1 82.8998 64.4 83.0998 64.7C83.0998 64.8 82.9998 64.9 82.6998 64.6C82.5998 65.2 84.0998 65.5999 83.5998 65.8999C83.1998 65.8999 83.1998 65.0999 82.7998 65.3999L83.6998 66.5C83.7998 66.3 83.7998 66 83.7998 65.7C83.6998 64.2 84.7998 64.1 84.7998 64.1C85.5998 62.7 86.3998 61.3 87.0998 59.8C87.1998 59.3 87.2998 59.1 86.1998 58.3C85.8998 58.3 85.8998 58.6 85.4998 58.2C85.8998 58.5 86.0998 58.8 85.8998 59C85.3998 58.8 85.7998 58.7 85.6998 58.7H85.5998C85.3998 58.5 85.1998 58.4 85.2998 58.3C84.4998 58.1 84.3998 58.6999 85.0998 59.3999C84.4998 59.2999 84.4998 58.8 84.1998 58.5C83.3998 59 83.1998 59.4 82.7998 60.1C83.5998 60.6 83.1998 60.4999 83.6998 60.8999L83.3998 60.8C83.5998 60.9 83.9998 61.3 84.2998 61.3C83.3998 61.3 84.9998 62.5 85.0998 63L84.6998 62.7C84.5998 63 84.5998 62.9999 84.5998 63.3999C83.5998 63.1999 84.6998 62.9999 83.6998 62.3999L83.7998 62.6C83.4998 62.3 82.8998 61.6999 82.6998 61.3999C83.0998 62.1999 82.0998 61.6999 82.2998 62.3999C81.8998 61.9999 81.7998 61.4999 81.7998 61.3999C81.6998 61.4999 81.7998 61.9 81.3998 61.6L81.8998 62C81.7998 62.3 81.3998 61.5999 80.9998 61.3999C80.8998 61.8999 82.8998 62.6999 82.8998 63.3999Z" fill="#290B01"/>
<path d="M78.3999 67.8999C78.4999 67.8999 78.4999 67.8 78.4999 67.7C78.4999 67.7 78.3999 67.7999 78.3999 67.8999Z" fill="#290B01"/>
<path d="M78.3999 66.0999C78.2999 65.9999 78.3 65.9999 78.2 65.8999C78.2 65.9999 78.2999 65.9999 78.3999 66.0999Z" fill="#290B01"/>
<path d="M77.7998 65.3999C77.9998 65.5999 77.9998 65.5999 78.1998 65.8999C78.0998 65.6999 78.1998 65.5999 77.7998 65.3999Z" fill="#290B01"/>
<path d="M62.0999 76.0999C62.0999 76.2999 62.0998 76.4998 62.1998 76.6998L62.2999 76.3998L62.0999 76.0999Z" fill="#290B01"/>
<path d="M62.7998 76.5999L63.0998 76.7999L62.8998 75.8999C62.6998 75.9999 62.9998 76.4999 62.7998 76.5999Z" fill="#290B01"/>
<path d="M63.5 76.4999L63.3 75.8999L63.2 76.4999L63.3999 76.5999C63.4999 76.7999 63.6 76.8999 63.6 76.9999L63.5 76.4999Z" fill="#290B01"/>
<path d="M63.6998 76.2999C63.6998 76.1999 63.5999 76.1999 63.5999 76.0999C63.5999 76.1999 63.6998 76.2999 63.6998 76.2999Z" fill="#290B01"/>
<path d="M64.7 77.1999C64.5 76.9999 64.4999 76.5999 64.3999 76.3999C64.0999 76.2999 64.5 77.1999 64.2 76.9999C64.3 76.3999 63.9 76.6999 63.7 76.3999C64 76.8999 64.3 77.2999 64.6 77.3999L64.5 76.9999C64.5 76.7999 64.6 77.0999 64.7 77.1999Z" fill="#290B01"/>
<path d="M65.3997 75.8L65.4997 76.3999C65.2997 76.0999 65.0997 76.2 64.7997 75.7C64.6997 75.8 64.7997 76.1 64.7997 76.3C64.5997 76 64.3997 75.8 64.4997 76.3C65.0997 76.5 64.9997 76.7 65.4997 76.7C65.4997 76.8 65.4997 76.8 65.3997 76.8L65.7997 77C65.5997 76.3 65.7997 76.2 65.3997 75.8Z" fill="#290B01"/>
<path d="M65.9998 76.0999C65.7998 76.1999 65.9998 76.7999 66.1998 77.0999L66.3998 76.4998C66.2998 76.4998 66.1998 76.6999 65.9998 76.0999Z" fill="#290B01"/>
<path d="M66.2 76C66.4 76.3 66.8 76.8 66.7 76.2C66.5 76.3 66.2 75.5 66.2 76Z" fill="#290B01"/>
<path d="M67.7998 75.7999L67.2998 75.5999C66.8998 74.8999 67.2998 75.2999 67.2998 74.8999C66.8998 74.8999 67.0998 75.0999 67.1998 75.6999C67.0998 75.6999 67.0998 76.0999 67.0998 76.3999C67.1998 75.5999 68.0998 77.2999 67.7998 75.7999Z" fill="#290B01"/>
<path d="M66.7 75.5L66.8 75.8L66.8999 75.5H66.7Z" fill="#290B01"/>
<path d="M69.0998 76.2C69.7998 76.9 69.1998 75.5 69.6998 75.7C69.6998 75.8 69.7998 75.8 69.7998 76L69.9998 75.8L70.0998 76C69.7998 75.5 69.8998 75.2 69.6998 74.8C69.1998 74.4 69.9998 75.5 69.3998 75C69.2998 74.7 69.0998 74.4 69.0998 74.2C69.0998 74.5 69.2998 74.8 69.3998 75.2C69.2998 75.3 69.1998 75 69.0998 74.8C69.0998 75.2 69.4998 75.8999 69.1998 75.8999C68.7998 75.4999 68.8998 75.2 68.6998 75.5C69.2998 76.2 68.3998 75.5 68.5998 76.1C68.2998 76 67.8998 75.6 67.7998 75.3C68.0998 75.9 68.2998 76.5 68.1998 76.8V76.1L68.6998 76.8C68.6998 76.1 68.7998 76.1 69.0998 76.2Z" fill="#290B01"/>
<path d="M69.0999 74C69.0999 73.9 69.0999 73.9 69.0999 73.8C68.9999 73.9 68.9999 73.9 69.0999 74Z" fill="#290B01"/>
<path d="M67.5999 74.9L67.4999 74.7L67.3999 74.5L67.5999 74.9Z" fill="#290B01"/>
<path d="M68.8998 73.3999C68.7998 73.3999 68.9998 73.6 68.9998 73.6L68.8998 73.2V73.3999Z" fill="#290B01"/>
<path d="M69.3999 73.8L69.6999 74.1001L69.5999 73.8H69.3999Z" fill="#290B01"/>
<path d="M73.6999 71.3998C73.3999 71.2998 73.7999 71.6998 73.9999 72.0998C74.1999 71.9998 73.5999 71.6998 73.6999 71.3998Z" fill="#290B01"/>
<path d="M75.5998 69C75.1998 68.8 75.4998 69.4 75.2998 69.5C75.5998 69.5 75.5998 69.3 75.5998 69Z" fill="#290B01"/>
<path d="M75.2 66.7C75.3 66.9 75.2999 67 75.3999 67L76 67.8999C76.4 67.8999 75.5 67 75.2 66.7Z" fill="#290B01"/>
<path d="M76.0999 65.5999L76.1998 65.9998L76.2999 65.8998C76.4999 66.1998 76.5999 66.3998 76.7999 66.6998C76.7999 66.4998 76.6999 66.0999 76.0999 65.5999Z" fill="#290B01"/>
<path d="M76.7998 67.0999V66.9999C76.6998 66.8999 76.5998 66.7999 76.7998 67.0999Z" fill="#290B01"/>
<path d="M76.8998 66.9C76.8998 66.9 76.8998 66.8 76.7998 66.8C76.7998 66.8 76.7998 66.9 76.8998 66.9C76.9998 67 76.8998 67 76.8998 66.9Z" fill="#290B01"/>
<path d="M76.5998 65.7999L76.7998 65.3999H76.5998C76.9998 65.8999 76.1998 65.2999 76.5998 65.7999Z" fill="#290B01"/>
<path d="M78.3999 64.7001L78.8999 65.1001C79.1999 65.0001 78.3999 63.9001 79.1999 64.4001C78.7999 64.2001 78.7999 63.8001 78.4999 63.9001C78.8999 64.4001 78.6999 64.7001 78.3999 64.7001Z" fill="#290B01"/>
<path d="M79.6999 64.5999C79.7999 64.7999 79.8999 64.7999 80.0999 64.8999C80.1999 64.8999 80.0999 64.5999 79.7999 64.4999C80.3999 65.0999 79.3999 64.1999 79.6999 64.5999Z" fill="#290B01"/>
<path d="M80.4997 63.7C80.4997 63.8 80.3997 63.9 80.5997 63.9C80.6997 63.7 80.0997 63.3 79.8997 63C79.4997 62.8 80.0997 63.6 80.4997 63.7Z" fill="#290B01"/>
<path d="M81.6998 62.3H81.5999L82.1998 62.9L81.6998 62.3Z" fill="#290B01"/>
</g>
</g>
<mask id="mask1_70_3723" style="mask-type:luminance" maskUnits="userSpaceOnUse" x="58" y="176" width="149" height="57">
<path d="M201.4 193.4C194 185 192.6 176.3 192.6 176.3C192.6 176.3 192.6 176.3 192.6 176.4V176.5C192.8 177.7 192.9 179 193 180.2C194 189.5 194.1 196.9 193.9 202.5C194.9 201.9 195.7 201.4 196.2 200.8C196.6 200.4 197 200.1 197.2 199.8L196.1 201.2L193.7 204.4C193.3 211.1 192.5 214.5 192.5 214.5C192.5 214.5 99.1 231.2 95.2 209.4C94.9 207.9 94.5 206.4 94 204.8C86.7 205.3 80.3 206.2 75.5 207.9C54.9 215 57.3 232.5 61.1 232.5C65 232.5 61.1 232.5 74.6 232.5H176.5C214.2 232.5 208.8 201.8 201.4 193.4ZM197.3 199.8L198.1 198.7C198 198.8 197.8 199.2 197.3 199.8Z" fill="white"/>
</mask>
<g mask="url(#mask1_70_3723)">
<g opacity="0.78">
<path d="M195.4 191.1C195.3 191.1 195.2 191 195.2 191C195.2 191.1 195.3 191.1 195.4 191.1Z" fill="#290B01"/>
<path d="M194.8 197.6L195.1 197.7C195 197.5 194.9 197.5 194.8 197.6Z" fill="#290B01"/>
<path d="M193.4 190.5C193.3 190.4 193.2 190.4 193 190.3L193.4 190.5Z" fill="#290B01"/>
<path d="M192.2 191.1C192.1 191.1 192.1 191.1 192 191.1C192.1 191.2 192.1 191.2 192.2 191.1Z" fill="#290B01"/>
<path d="M195.9 184.9V184.8H195.8C195.7 184.8 195.8 184.9 195.9 184.9Z" fill="#290B01"/>
<path d="M195.5 185.1C195.4 185 195.4 185 195.5 185.1V185.1Z" fill="#290B01"/>
<path d="M196.7 185.5C196.6 185.5 196.5 185.4 196.4 185.4C196.6 185.4 196.6 185.5 196.7 185.5Z" fill="#290B01"/>
<path d="M194.8 200C194.8 200.1 194.9 200.1 194.9 200.2C195 200 195 200 194.8 200Z" fill="#290B01"/>
<path d="M195.7 187C194.8 187 195.7 186.8 194.8 186.8C195 186.9 195.1 187 194.7 187.1C194.2 187 194.8 186.9 194 186.8L194.3 187C193.9 187.1 193.3 186.9 193.4 187C194.4 187.2 193 187.5 193.1 187.7L193 187.6L192.5 187.8C192.5 187.8 192.5 187.8 192.4 187.8C192.5 187.8 192.5 187.8 192.6 187.8C192.1 187.9 191.7 188.1 191.8 188.3C192.4 188.4 192 189 192.5 189.1C192.4 189 192.3 188.9 192.5 188.8H193.2C193.2 189 192.5 188.8 193 189C194 189 193 188.7 193.1 188.6C193.3 188.7 193.5 188.7 193.6 188.8C193.6 188.5 194 188.2 193 188C193.2 187.9 193.6 188 193.7 188C193.1 187.8 194.3 187.9 193.7 187.7C194.6 187.8 194.2 188.1 194.7 188.3C194 188.5 194.6 188.9 194.8 189.2C194.1 189.2 193.6 189 193.2 189.1C192.8 189.4 193.5 189.4 193.9 189.6C193.7 189.8 192.8 189.6 192.8 189.9L192.4 189.7C191.5 189.9 192.8 189.9 192.6 190C192.8 190 193.1 190 193.1 189.8C193.4 189.8 193.6 189.9 193.6 190C194.1 190.1 194.5 190.1 194.3 190.3C193.8 190.2 193.9 190.5 193.6 190.5L193.5 190.4C193.7 190.6 193.6 190.7 193.7 190.8H193.6C193.8 190.9 194.5 191 194.4 191.1C194.1 191.1 193.4 190.9 193.5 191.1C193.1 191.1 193.1 190.9 193.2 190.7C193 190.9 192.4 190.9 192.3 190.7C191.8 190.7 192.5 190.9 192.3 191C192.5 191 192.6 191 192.8 191C192.1 191 192.7 191.4 193.2 191.4L192.8 191.2C193.4 191.2 193.7 191.4 194.1 191.4C193.2 191.5 194.5 191.9 193.8 192L194.3 191.9C194 192.3 195 192.7 195.3 193.1C195 193 194 192.9 194.4 192.7C194.2 193.1 193.4 192.8 192.9 192.9C192.5 193.2 193.8 193.1 194.1 193.2L193.9 193C195 193.3 193.6 193.8 194.3 194.2C194 194.2 194.1 194.1 194 194.1C193.4 194.3 194.1 194.3 194.3 194.4C194.2 194.6 193.9 194.8 193.2 194.7C193 194.9 193.6 194.7 193.9 194.8H193.7L194.5 195C194.3 195.2 193.9 195.4 193.2 195.5C193.3 195.9 194.8 195.7 195.1 196C194.7 196.2 194.6 196 194.3 195.9L194.4 196.2C193.6 196.1 194 195.9 193.1 195.9C194 196.1 193.4 196.2 194 196.5H194.1C194.7 196.6 194.3 197 194.4 197.1C194 197 194 196.8 193.8 196.7C193.5 196.9 193.8 197.4 194.6 197.6C194.5 197.7 194.1 198 193.8 197.8C193.7 198.2 195 198 194.7 198.3H194.1C193.2 198.7 194.9 199.1 194.1 199.4H194.9C194.6 199.5 194.4 199.6 194.1 199.7L193.8 199.5C193.2 199.7 194.4 199.7 194 199.9C194.2 199.9 194.8 199.7 195 199.7C194.6 198.9 195.7 198.1 194.9 197.3C194.8 197.3 194.7 197.4 194.6 197.3C194.8 197.2 194.6 197 195 197.1H195.1C194.9 196.9 195.9 196.7 195.9 196.6C195.4 196.5 196.1 196.2 195.2 196.3L195.8 196.2C195.5 196.2 195 196.2 194.9 196.1C195 196 195.3 196 195.6 196.1C196 195.6 195.9 194.9 195.6 194.3L196 194.5C196.2 194.4 195.3 194 196.3 194.1C195.9 193.8 196.6 193.4 195.5 193.3C196.6 193.1 196 192.6 195.8 192.3C194.8 192.4 195.5 192 195.1 191.9C195.8 191.9 195.9 192.2 196.3 192.2C195.2 191.8 197.1 191.1 195.3 190.9C195.4 190.9 195.5 190.9 195.5 190.9C195.5 190.8 195.8 190.7 195.9 190.7C195.6 190.6 195.4 190.8 195.3 190.6C195.4 190.5 195.9 190.5 196.1 190.5C195.7 190.2 195.5 189.8 194.8 189.7C195 189.6 195.4 189.5 195.6 189.6C195 189.1 195.7 189.2 195.4 188.7C195.4 188.9 196.2 188.8 195.9 189C197 188.8 195.7 188.3 196.3 188L195.6 187.8C195.5 187.6 196.1 187.6 196.4 187.7C196.8 187.3 196.4 187.1 196.4 186.9C196.5 186.9 196.6 186.9 196.6 186.9V186.5C196.4 186.5 196.1 186.3 195.6 186.3C195.7 186.7 195.9 186.8 195.7 187Z" fill="#290B01"/>
<path d="M192.2 190.2C192.4 190.2 192.5 190.1 192.5 190.1C192.4 190.2 192.3 190.2 192.2 190.2Z" fill="#290B01"/>
<path d="M194.2 182.8C193.2 182.8 194.4 183.1 194.1 183.2C193.9 183 193.3 183.1 193 183.1C194.3 183.3 192.7 183.3 193 183.7C192.6 183.7 192.5 183.5 192 183.5C192.3 183.7 192.5 184.1 193.3 184.1C193.3 184.5 193 184.7 193.1 184.9C192.8 184.6 192.3 184.8 191.7 184.6C192.6 184.9 193.6 185.5 194.7 185.9C193.9 185.9 193.8 185.9 193 185.9C192.4 186.3 193.8 186 193.5 186.4L193.7 186.2C193.9 186.4 194.7 186.4 195.3 186.5L195.2 186C195.8 186 195.7 186.3 195.8 186.4C196.5 186.6 196.3 186.2 196.8 186.2C196.4 186.1 196.5 185.9 196.3 185.8H196.6C196.9 185.6 196.2 185.4 196.2 185.2C196.3 185.2 196.4 185.2 196.4 185.2C196.1 185.1 195.6 185 195.5 184.9V185C194.8 184.8 194.3 184.4 193.5 184.6L193.7 184.1C194.5 184.2 195.7 184.3 195.8 184.6H196.1C196.6 184.4 195.5 184 194.8 184.1C192.9 183.8 194.8 183.4 194 183C194.5 183 194.7 183.2 195.1 183.3C195.2 183.4 195.2 183.5 194.7 183.5C195 184 196.4 183.5 196.2 184C195.9 184.2 195.4 183.7 195.3 184L196.7 184.3C196.7 184.1 196.4 183.9 196.3 183.7C195.4 182.6 196.2 181.9 196.2 181.9L195.9 177.3C195.7 176.8 195.8 176.6 194.4 176.4C194.1 176.5 194.2 176.8 193.7 176.7C194.2 176.8 194.5 177 194.5 177.2C194 177.2 194.3 177 194.1 177C193.8 177 193.7 176.9 193.6 176.8C192.8 177 192.9 177.6 193.9 177.8C193.4 178 193.1 177.6 192.7 177.5C192.3 178.3 192.3 178.8 192.3 179.7C193.2 179.7 192.9 179.8 193.5 179.9L193.2 180C193.4 180 194 180.1 194.2 180C193.5 180.4 195.4 180.6 195.8 180.9H195.3C195.4 181.2 195.4 181.2 195.6 181.5C194.7 181.9 195.5 181.1 194.3 181.2L194.5 181.3C194.1 181.2 193.3 181.1 192.9 181C193.7 181.4 192.6 181.6 193.2 182C192.7 181.9 192.3 181.5 192.2 181.4C192.1 181.5 192.5 181.8 192 181.8L192.7 181.9C192.8 182.2 192.1 181.8 191.7 181.9C191.7 182.7 193.8 182.2 194.2 182.8Z" fill="#290B01"/>
<path d="M193.6 189.1C193.7 189 193.6 189 193.6 188.9C193.6 188.9 193.6 189 193.6 189.1Z" fill="#290B01"/>
<path d="M191.4 187.6C191.7 187.6 191.7 187.7 192.1 187.7C191.9 187.7 191.9 187.5 191.4 187.6Z" fill="#290B01"/>
<path d="M191.5 207.7C191.7 207.7 191.9 207.9 192.1 207.9L191.9 207.7H191.5Z" fill="#290B01"/>
<path d="M192.3 207.2L192.6 207L191.7 206.9C191.6 207.1 192.2 207 192.3 207.2Z" fill="#290B01"/>
<path d="M192.8 206.6L193 206.7C192.9 206.6 192.8 206.6 192.8 206.6Z" fill="#290B01"/>
<path d="M192.4 206.6L191.7 206.5L192.2 206.8L192.4 206.6C192.6 206.7 192.7 206.6 192.8 206.6L192.3 206.5C192.3 206.5 192.4 206.5 192.4 206.6Z" fill="#290B01"/>
<path d="M193.6 205.7C193.4 205.8 193 205.6 192.7 205.6C192.4 205.8 193.4 205.8 193.1 206C192.6 205.7 192.7 206.1 192.3 206.2C192.9 206.1 193.3 206 193.5 205.8H193.1C193.1 205.7 193.4 205.8 193.6 205.7Z" fill="#290B01"/>
<path d="M192.5 204.5L193.1 204.7C192.8 204.7 192.8 205 192.2 205C192.3 205.1 192.6 205.1 192.7 205.2C192.4 205.3 192.1 205.3 192.6 205.4C193 204.9 193.2 205.1 193.4 204.7C193.5 204.7 193.5 204.8 193.5 204.8L193.8 204.5C193.1 204.5 193 204.2 192.5 204.5Z" fill="#290B01"/>
<path d="M193 204.1C193 204.3 193.6 204.4 194 204.3L193.5 203.9C193.5 204 193.6 204.2 193 204.1Z" fill="#290B01"/>
<path d="M193 203.8C193.3 203.7 194 203.6 193.4 203.4C193.5 203.7 192.6 203.6 193 203.8Z" fill="#290B01"/>
<path d="M193.6 202.3L193.2 202.7C192.4 202.8 192.9 202.5 192.6 202.4C192.4 202.7 192.7 202.6 193.2 202.9C193.2 203 193.6 203.1 193.8 203.3C193.1 202.7 195.1 202.7 193.6 202.3Z" fill="#290B01"/>
<path d="M192.8 203.1L193.1 203.2L192.8 203V203.1Z" fill="#290B01"/>
<path d="M194.5 201.4C195.5 201.2 194 200.9 194.4 200.7C194.5 200.7 194.5 200.7 194.6 200.8L194.5 200.6H194.7C194.1 200.6 193.9 200.4 193.5 200.3C192.9 200.5 194.2 200.4 193.5 200.6C193.2 200.5 192.8 200.5 192.6 200.5C192.9 200.6 193.2 200.7 193.6 200.7C193.7 200.9 193.3 200.8 193.1 200.8C193.4 201 194.3 201 194.1 201.2C193.6 201.4 193.3 201.1 193.5 201.4C194.4 201.3 193.4 201.7 193.9 201.8C193.7 202 193.2 202.2 192.8 202.1C193.5 202.1 194.1 202.3 194.3 202.4L193.7 202L194.5 201.9C194.3 201.7 194.3 201.5 194.5 201.4Z" fill="#290B01"/>
<path d="M192.7 200.3C192.6 200.3 192.6 200.3 192.5 200.2C192.5 200.3 192.6 200.3 192.7 200.3Z" fill="#290B01"/>
<path d="M192.7 202.1L192.5 202L192.2 202.1H192.7Z" fill="#290B01"/>
<path d="M192.1 200.1C192.1 200.1 192.4 200.2 192.4 200.1L192 200L192.1 200.1Z" fill="#290B01"/>
<path d="M192.6 199.9L193.1 199.8L192.7 199.7L192.6 199.9Z" fill="#290B01"/>
<path d="M193.1 195C192.8 195.2 193.4 195.1 193.8 195.2C193.9 194.9 193.3 195.2 193.1 195Z" fill="#290B01"/>
<path d="M192.4 191.9C192 192.1 192.6 192.2 192.6 192.4C192.9 192.3 192.7 192 192.4 191.9Z" fill="#290B01"/>
<path d="M190.5 190.5C190.7 190.5 190.8 190.6 190.9 190.5L191.9 190.7C192.2 190.5 191 190.5 190.5 190.5Z" fill="#290B01"/>
<path d="M190.4 189L190.8 189.3V189.2C191.2 189.3 191.4 189.3 191.7 189.4C191.5 189.2 191.1 189 190.4 189Z" fill="#290B01"/>
<path d="M191.9 189.6C191.6 189.6 191.7 189.5 191.9 189.6V189.6Z" fill="#290B01"/>
<path d="M191.9 189.4H191.8C191.8 189.4 191.8 189.5 191.9 189.4C192 189.5 192 189.5 191.9 189.4Z" fill="#290B01"/>
<path d="M190.9 188.9L190.8 188.5L190.6 188.7C191.2 188.6 190.2 188.8 190.9 188.9Z" fill="#290B01"/>
<path d="M191.5 186.7H192.1C192.2 186.4 190.9 186.1 191.9 185.9C191.5 186 191.2 185.7 191 186C191.6 186.1 191.6 186.5 191.5 186.7Z" fill="#290B01"/>
<path d="M192.4 185.7C192.6 185.7 192.7 185.7 192.9 185.7C193 185.6 192.7 185.5 192.4 185.5C193.2 185.6 191.9 185.6 192.4 185.7Z" fill="#290B01"/>
<path d="M192.4 184.5C192.4 184.6 192.5 184.7 192.6 184.6C192.6 184.4 191.9 184.4 191.5 184.3C191.1 184.4 192.1 184.6 192.4 184.5Z" fill="#290B01"/>
<path d="M197 182.8C196.5 182.8 196.5 183 196.7 183C196.6 183 196.7 182.8 197 182.8Z" fill="#290B01"/>
<path d="M192.6 182.6L192.5 182.7L193.3 182.8L192.6 182.6Z" fill="#290B01"/>
<path d="M192.2 181.2L191.7 181L191.8 181.3L192.2 181.2Z" fill="#290B01"/>
<path d="M192.4 180.9V180.7L192.2 180.8C192 180.9 192.3 180.8 192.4 180.9Z" fill="#290B01"/>
<path d="M192.3 180.2C192.3 180.2 192.3 180.2 192.2 180.3L192.5 180.5L192.3 180.2Z" fill="#290B01"/>
<path d="M195.7 176.6C196.2 176.7 195.9 176.5 196 176.4C195.9 176.4 195.2 176.5 195.7 176.6Z" fill="#290B01"/>
</g>
</g>
<mask id="mask2_70_3723" style="mask-type:luminance" maskUnits="userSpaceOnUse" x="87" y="144" width="44" height="61">
<path d="M129.7 204.9C117.4 204.3 104.8 204 94.1001 204.7C92.7001 200.7 90.5 196.6 87.8 192.5C89.6 190 91.4 187.5 93.4 185C106.9 167.9 111.2 151.5 112.4 144.1C119 154.4 134.6 181.9 129.7 204.9Z" fill="white"/>
</mask>
<g mask="url(#mask2_70_3723)">
<g opacity="0.78">
<path d="M95.2002 179.5C95.3002 179.6 95.4002 179.7 95.6002 179.9C95.6002 179.8 95.5002 179.7 95.2002 179.5Z" fill="#290B01"/>
<path d="M100.5 171.6L100 171.3C100.1 171.5 100.3 171.6 100.5 171.6Z" fill="#290B01"/>
<path d="M98.4001 182.4C98.5001 182.6 98.6001 182.7 98.9001 183L98.4001 182.4Z" fill="#290B01"/>
<path d="M89.3001 185.8C89.2001 185.7 89.2001 185.7 89.1001 185.6C89.1001 185.7 89.2001 185.7 89.3001 185.8Z" fill="#290B01"/>
<path d="M89.8002 186.9C89.7002 186.9 89.7002 187 89.7002 187L89.8002 187.1C89.9002 187.2 89.8002 187 89.8002 186.9Z" fill="#290B01"/>
<path d="M94.0002 195.1L94.5002 195.5C94.3002 195.3 94.2002 195.2 94.0002 195.1Z" fill="#290B01"/>
<path d="M88.7002 185.2C88.8002 185.3 88.9002 185.4 89.1002 185.6C89.0002 185.5 89.0002 185.4 88.7002 185.2Z" fill="#290B01"/>
<path d="M95.0002 179.3C95.1002 179.4 95.2002 179.4 95.2002 179.5C95.1002 179.4 95.0002 179.4 95.0002 179.3Z" fill="#290B01"/>
<path d="M101.7 168.3C101.7 168.2 101.7 168.1 101.6 168C101.4 168.1 101.5 168.2 101.7 168.3Z" fill="#290B01"/>
<path d="M91.8002 184.6C93.5002 185.6 91.7001 184.9 93.2001 185.9C93.0001 185.5 92.8001 185.3 93.7001 185.7C94.5001 186.4 93.4001 186 94.7001 186.9L94.3002 186.3C95.1002 186.6 96.0002 187.5 96.0002 187.3C94.3002 185.9 97.1002 187.1 97.0002 186.7L97.1002 186.9L98.2001 187.1C98.2001 187.1 98.3002 187.1 98.3002 187.2C98.2002 187.1 98.1002 187.1 98.0002 187C99.0002 187.4 99.8002 187.6 99.8002 187.2C98.8002 186.4 100 186.1 99.2001 185.4C99.4001 185.7 99.3002 185.8 99.0002 185.8L97.8002 185C98.0002 184.7 99.0001 185.7 98.4001 185C96.7001 184 98.2001 185.4 97.9001 185.4C97.5001 185.1 97.3001 184.8 97.2001 184.6C96.9001 184.9 96.1002 184.9 97.6002 186.2C97.2002 186.1 96.5001 185.6 96.4001 185.4C97.2001 186.3 95.3002 185 96.1002 185.8C94.6002 184.7 95.6001 184.7 94.9001 183.9C96.4001 184.3 95.5001 183.2 95.4001 182.7C96.6001 183.4 97.4001 184.3 98.2001 184.5C99.2001 184.6 97.8002 183.7 97.3002 183.1C97.9002 183.1 99.3002 184.3 99.6002 183.9L100.2 184.6C102 185.3 99.7002 184 100.1 184C99.6002 183.8 99.2002 183.6 99.1002 183.8C98.5002 183.5 98.3002 183.1 98.3002 183H98.2001C97.4001 182.4 96.6001 181.9 97.2001 181.9C98.1001 182.7 98.1002 182.1 98.6002 182.3L98.8002 182.5C98.6002 182.1 98.8001 182 98.7001 181.7L98.9001 181.9C98.6001 181.5 97.4002 180.7 97.8002 180.7C98.3002 181 99.5001 182 99.4001 181.7C100.1 182.2 100 182.5 99.6002 182.5C100 182.4 101.3 183 101.2 183.3C102.2 183.8 100.9 182.8 101.5 182.9C101.2 182.8 100.9 182.5 100.6 182.4C101.9 183.1 101 181.9 100.1 181.4L100.7 182.1C99.7001 181.5 99.2002 180.8 98.5002 180.6C100.2 181.4 98.1002 179.5 99.5002 180.1L98.6002 179.7C99.4002 179.4 97.8002 178 97.6002 177.2C98.0002 177.7 99.8002 178.6 99.0002 178.6C99.6002 178.3 100.9 179.4 101.9 179.7C102.8 179.6 100.3 178.6 99.8002 178.2L100 178.7C98.1002 177.2 101 177.9 100 176.6C100.6 176.8 100.3 176.9 100.4 177.1C101.6 177.4 100.3 176.7 100 176.4C100.3 176.2 101 176.2 102.2 177C102.7 176.9 101.4 176.6 101 176.3L101.3 176.4L99.9001 175.4C100.5 175.4 101.4 175.4 102.7 175.9C102.7 175.2 99.7001 174.2 99.4001 173.6C100.2 173.7 100.4 174.1 100.9 174.4V174C102.4 174.8 101.5 174.8 103.2 175.6C101.6 174.4 102.9 174.9 101.9 173.9H101.7C100.6 173.2 101.6 173.1 101.5 172.8C102.2 173.2 102.1 173.5 102.3 173.8C103 173.8 102.8 172.8 101.3 171.9C101.6 171.9 102.4 171.8 103 172.3C103.5 171.8 100.8 171.1 101.5 170.8L102.7 171.3C104.7 171.4 101.6 169.6 103.4 169.7L101.9 169.1C102.6 169.2 103 169.1 103.6 169.3L104 169.8C105.3 170 102.9 169.1 103.9 169.1C103.4 168.9 102.3 168.8 101.8 168.6C102.2 170 99.7001 170.2 100.7 171.9C100.9 171.9 101.1 172 101.4 172.1C101 172.1 101.3 172.5 100.5 172.1L100.4 172C100.6 172.4 98.7002 171.9 98.6002 172.1C99.5002 172.7 97.9001 172.5 99.7001 173.1L98.5002 172.8C99.1002 173.1 99.9001 173.5 100.2 173.8C100 173.9 99.3001 173.6 98.9001 173.3C97.9001 173.7 97.7002 174.7 97.8002 175.7L97.1002 175.1C96.6002 175.1 98.2001 176.4 96.2001 175.3C96.8001 176.1 95.1001 176 97.2001 177.1C95.1001 176.3 95.9001 177.5 95.9001 178.1C97.7001 179 96.2001 178.8 96.9001 179.4C95.5001 178.7 95.7001 178.2 94.9001 177.7C96.7001 179.4 92.6001 178.2 95.9001 180.4C95.7001 180.4 95.6002 180.3 95.5002 180.2C95.4002 180.3 94.8002 180.1 94.6002 180.1C95.2002 180.5 95.6002 180.5 95.6002 180.8C95.4002 180.9 94.5002 180.3 94.0002 180.1C94.6002 180.9 94.6001 181.6 95.9001 182.5C95.5001 182.4 94.6001 182 94.4001 181.8C95.1001 183 93.9001 182.2 94.2001 183.2C94.3001 183 92.8002 182.2 93.6002 182.3C91.6002 181.3 93.4002 183.4 92.1002 183.2L93.2001 184.1C93.2001 184.5 92.1002 183.8 91.8002 183.3C90.8002 183.3 91.4002 184 91.1002 184.3C90.9002 184.2 90.7002 184.1 90.8002 184L90.4001 184.5C90.7001 184.7 91.1001 185.3 91.9001 185.8C91.5001 184.9 91.1002 184.5 91.8002 184.6Z" fill="#290B01"/>
<path d="M92.1001 185.4L92.2001 185.5C92.2001 185.5 92.2001 185.5 92.1001 185.4Z" fill="#290B01"/>
<path d="M100.4 184C100.1 183.9 99.9 183.8 99.8 183.8C100 183.9 100.2 184 100.4 184Z" fill="#290B01"/>
<path d="M91.0001 191.6C92.8001 192.8 90.9001 191.1 91.6001 191.2C91.7001 191.6 92.8001 192.3 93.3001 192.6C91.2001 190.7 94.0001 192.6 93.9001 191.8C94.7001 192.3 94.6001 192.6 95.4001 193.3C95.0001 192.6 95.0001 192 93.8001 191C94.1001 190.5 94.8001 190.5 94.8001 190.1C95.1001 190.8 96.1001 191.1 97.0001 192.1C95.7001 190.7 94.4001 188.7 92.9001 187C94.4001 187.9 94.5001 188 95.8001 188.9C97.1001 189 94.6001 187.8 95.4001 187.6L95.0001 187.7C94.7001 187.2 93.4001 186.3 92.5001 185.5L92.3001 186.2C91.3001 185.5 91.7001 185.3 91.5001 185C90.4001 184 90.4001 184.7 89.5001 184.1C90.2001 184.7 89.8001 184.8 90.1001 185.1L89.6001 184.8C88.9001 184.7 90.1001 185.7 89.9001 186C89.7001 185.9 89.6001 185.8 89.5001 185.8C90.0001 186.3 90.7001 186.9 90.8001 187.2V187C91.9001 188.1 92.3001 189.2 93.9001 189.8L93.1001 190.1C91.8001 189.1 89.8001 187.5 89.8001 187L89.2001 186.6C88.3001 186.3 89.8001 188.1 91.1001 188.7C94.2001 191.3 90.6001 189.7 91.6001 191.1C90.7001 190.5 90.5001 190 90.0001 189.4C90.0001 189.2 90.0001 189.1 90.8001 189.6C90.7001 188.7 87.9001 187.7 88.7001 187.3C89.4001 187.3 89.9001 188.7 90.3001 188.3L88.0001 186.2C87.9001 186.5 88.1001 187.1 88.3001 187.5C89.0001 189.9 87.0001 189.8 87.0001 189.8C86.0001 191.8 84.8001 193.8 83.6001 195.7C83.5001 196.5 83.2001 196.6 85.4001 198.8C86.0001 199.1 86.0001 198.6 86.7001 199.3C85.9001 198.5 85.6001 197.9 85.9001 197.7C86.8001 198.4 86.1001 198.3 86.4001 198.4H86.5001C86.9001 198.8 87.2001 199.1 87.1001 199.2C88.6001 199.9 88.9001 199.1 87.5001 197.5C88.6001 197.9 88.7001 198.8 89.2001 199.4C90.6001 199 91.0001 198.2 91.9001 197.3C90.4001 196.1 91.0001 196.4 90.1001 195.5L90.7001 195.9C90.4001 195.7 89.4001 194.8 89.0001 194.7C90.6001 195.1 87.5001 192.5 87.1001 191.6L87.9001 192.2C88.0001 191.8 88.0001 191.7 87.8001 191.1C89.7001 191.7 87.7001 191.7 89.8001 193.1L89.6001 192.7C90.3001 193.3 91.6001 194.5 92.0001 195C91.1001 193.5 93.0001 194.7 92.5001 193.4C93.4001 194.1 93.7001 195.1 93.7001 195.4C93.9001 195.3 93.5001 194.5 94.4001 195.1L93.3001 194.2C93.4001 193.8 94.3001 195 95.1001 195.4C95.2001 194.6 91.2001 192.7 91.0001 191.6Z" fill="#290B01"/>
<path d="M97.0002 184.1C96.8002 184.1 96.8002 184.2 96.9002 184.4C97.0002 184.3 97.0002 184.3 97.0002 184.1Z" fill="#290B01"/>
<path d="M99.8002 188.4C99.2002 188.1 99.3002 188 98.7002 187.5C98.9002 187.8 98.8002 188.1 99.8002 188.4Z" fill="#290B01"/>
<path d="M111.4 158.2C111 158.1 110.6 157.6 110.3 157.8C110.5 158 110.6 158.2 110.8 158.4L111.4 158.2Z" fill="#290B01"/>
<path d="M109.8 159L109.2 159.3L111 159.8C111.1 159.4 109.8 159.4 109.8 159Z" fill="#290B01"/>
<path d="M108.6 159.9L108.2 159.7C108.4 159.9 108.5 159.9 108.6 159.9Z" fill="#290B01"/>
<path d="M109.4 160.1L110.7 160.5L109.8 159.8L109.5 160C109 159.9 108.8 160 108.6 160L109.5 160.3C109.5 160.2 109.3 160.1 109.4 160.1Z" fill="#290B01"/>
<path d="M106.7 160.9C107.2 160.9 107.9 161.2 108.5 161.4C109.1 161.1 107.1 160.7 107.8 160.5C108.8 161.2 108.6 160.5 109.4 160.4C108.1 160.3 107.2 160.3 106.8 160.6L107.6 160.8C107.6 161.1 107.1 160.9 106.7 160.9Z" fill="#290B01"/>
<path d="M108.4 163.3L107.2 162.7C107.8 162.8 107.9 162.3 109.2 162.6C109.1 162.4 108.5 162.2 108.2 162C108.9 162 109.4 162 108.5 161.7C107.5 162.2 107.2 161.9 106.7 162.4C106.4 162.3 106.5 162.3 106.6 162.2L105.8 162.4C107.3 162.9 107.3 163.4 108.4 163.3Z" fill="#290B01"/>
<path d="M107.3 163.6C107.3 163.3 106.2 162.8 105.3 162.8L106.1 163.7C106.1 163.5 106.1 163.2 107.3 163.6Z" fill="#290B01"/>
<path d="M107.1 164C106.4 164 105 163.8 106.2 164.3C106.1 164 108 164.6 107.1 164Z" fill="#290B01"/>
<path d="M105.3 165.9L106.3 165.6C108 166 106.7 166 107.4 166.4C107.9 166 107.3 166 106.4 165.3C106.5 165.2 105.8 164.7 105.4 164.4C106.5 165.5 102.5 164.4 105.3 165.9Z" fill="#290B01"/>
<path d="M107.3 165.2L106.7 164.9L107.1 165.3L107.3 165.2Z" fill="#290B01"/>
<path d="M103.1 166.6C101.1 166.3 104 167.6 103 167.7C102.9 167.6 102.7 167.6 102.5 167.4L102.6 167.8L102.2 167.7C103.3 168.1 103.7 168.6 104.5 169.1C105.8 169.2 103.2 168.4 104.6 168.6C105.1 168.9 105.8 169.2 106.2 169.4C105.7 169 105.1 168.7 104.4 168.4C104.4 168.1 105 168.4 105.4 168.6C104.8 168.1 103.2 167.5 103.7 167.3C104.8 167.4 105.2 168 105 167.4C103.1 167 105.4 167.1 104.3 166.5C104.8 166.3 105.9 166.5 106.6 166.7C105.2 166.3 104.1 165.6 103.7 165.2L104.7 166.1L103 165.7C103.7 166.3 103.5 166.5 103.1 166.6Z" fill="#290B01"/>
<path d="M106.2 169.4C106.3 169.5 106.4 169.5 106.5 169.6C106.5 169.6 106.4 169.5 106.2 169.4Z" fill="#290B01"/>
<path d="M107.1 166.8L107.4 167L107.9 167.1L107.1 166.8Z" fill="#290B01"/>
<path d="M107.3 170.1C107.4 170 106.8 169.8 106.8 169.9L107.5 170.3L107.3 170.1Z" fill="#290B01"/>
<path d="M106.1 170L105.1 169.8L105.8 170.2L106.1 170Z" fill="#290B01"/>
<path d="M102.2 176.6C102.9 176.7 101.8 176.1 101 175.7C100.6 175.9 101.9 176.2 102.2 176.6Z" fill="#290B01"/>
<path d="M101.3 181.5C102.1 181.6 101.2 180.9 101.4 180.6C100.7 180.6 100.8 181 101.3 181.5Z" fill="#290B01"/>
<path d="M103.7 185.3C103.4 185 103.3 184.9 103.1 184.9L101.4 183.6C100.6 183.7 102.9 184.9 103.7 185.3Z" fill="#290B01"/>
<path d="M102.7 187.6L102.2 186.8L102 186.9C101.3 186.4 101 186.1 100.5 185.6C100.8 186.1 101.4 186.8 102.7 187.6Z" fill="#290B01"/>
<path d="M100.5 185.2C100.5 185.3 100.5 185.3 100.5 185.4C100.7 185.5 101 185.6 100.5 185.2Z" fill="#290B01"/>
<path d="M100.4 185.5C100.5 185.6 100.5 185.6 100.6 185.7C100.5 185.6 100.5 185.5 100.5 185.4C100.3 185.3 100.1 185.2 100.4 185.5Z" fill="#290B01"/>
<path d="M101.7 187.3L101.5 188H102C100.9 187.2 102.8 188.1 101.7 187.3Z" fill="#290B01"/>
<path d="M98.9002 189.6L97.8002 189C97.3002 189.2 99.3002 191.2 97.5002 190.2C98.3002 190.5 98.5003 191.3 99.1003 191.1C98.2003 190.3 98.5002 189.7 98.9002 189.6Z" fill="#290B01"/>
<path d="M96.4001 189.8C96.1001 189.5 95.9001 189.5 95.5001 189.3C95.3001 189.3 95.7001 189.8 96.2001 190C94.9001 189 97.2001 190.5 96.4001 189.8Z" fill="#290B01"/>
<path d="M95.5002 191.5C95.5002 191.4 95.5002 191.2 95.2002 191.1C95.1002 191.4 96.3002 192.2 96.9002 192.8C97.6002 193 96.2002 191.7 95.5002 191.5Z" fill="#290B01"/>
<path d="M93.5002 193.7H93.8002L92.5002 192.6L93.5002 193.7Z" fill="#290B01"/>
<path d="M92.9001 195.9L93.6002 196.8L93.7001 196.4L92.9001 195.9Z" fill="#290B01"/>
<path d="M92.5 196.1L92.3 196.4L92.7 196.6C93.1 196.7 92.4 196.2 92.5 196.1Z" fill="#290B01"/>
<path d="M92.0002 197.1C91.9002 197 92.1002 197.1 92.3002 197.2L91.9001 196.5L92.0002 197.1Z" fill="#290B01"/>
</g>
</g>
</svg>
