<svg width="238" height="144" viewBox="0 0 238 144" fill="none" xmlns="http://www.w3.org/2000/svg">
<path d="M27.7 131.5C27.7 131.5 3.50002 129.3 0.800021 135.7C-1.89998 142.1 104.9 142.5 145.7 143.4C186.5 144.3 235.7 139.2 237.6 132.8C239.5 126.4 107.4 125.8 107.4 125.8L27.7 131.5Z" fill="#1B1C1E"/>
<path d="M188.1 85.2C185.1 84.6 182 84 178.9 83.5C173.4 58.3 163 37.3 163 37.3C175.9 35.7 197.6 37.7 203.2 32.5C208.7 27.4 212.1 13.9 198.4 5.10004C187.4 -1.99996 128.3 -3.79996 131.2 30.8C133 51.9 140.4 65.1 144.7 79.8C101.4 77.3 57.1001 82.2 36.0001 87.5C1.20008 96.2 -10.5999 122.2 13.2001 131.9C28.0001 137.9 57.9001 139.3 83.5001 138.6C83.5001 138.6 214.3 144.4 231.5 125.4C240.9 114.9 238.5 95.8 188.1 85.2Z" fill="white"/>
<path d="M189.4 18.8999C190.56 18.8999 191.5 17.5568 191.5 15.8999C191.5 14.243 190.56 12.8999 189.4 12.8999C188.24 12.8999 187.3 14.243 187.3 15.8999C187.3 17.5568 188.24 18.8999 189.4 18.8999Z" fill="#1B1C1E"/>
<path d="M83.5 138.6C83.5 138.6 102.5 123.3 139.5 117.1C176.5 110.9 203.3 110.5 213.3 106" stroke="#1B1C1E" stroke-width="1.3738" stroke-miterlimit="10"/>
<path d="M178.9 83.5C179.6 86.6 180.2 89.7 180.7 92.9C181.9 100.5 179.8 106.8 175.7 112.1" stroke="#1B1C1E" stroke-width="1.3738" stroke-miterlimit="10"/>
<path d="M32.8 101.6C32.8 101.6 42.8 103.5 76.8 103.8C110.8 104.1 146.2 98.6999 145.6 84.7999C145.5 83.2999 145.2 81.6999 144.7 79.8999" stroke="#1B1C1E" stroke-width="1.3738" stroke-miterlimit="10"/>
<mask id="mask0_70_4218" style="mask-type:luminance" maskUnits="userSpaceOnUse" x="41" y="95" width="93" height="9">
<path d="M91.9 103.6L41.9 102.6H41.8C42.4 102.4 63.6 98.6 81.4 96.2C94.6 94.4 133.9 95 133.8 96.9C133.8 98.4 91.9 103.6 91.9 103.6Z" fill="white"/>
</mask>
<g mask="url(#mask0_70_4218)">
<g opacity="0.45">
<path d="M99.3 103.3H99.4V103.4L99.3 103.3Z" fill="#080809"/>
<path d="M99.3999 103.4L99.5999 103.8C99.2999 103.7 99.2999 103.5 99.3999 103.4Z" fill="#080809"/>
<path d="M77.8999 102.2C77.6999 102.1 77.4999 101.9 77.3999 101.6L77.8999 102.2Z" fill="#080809"/>
<path d="M79.8 100.1C79.8 99.9999 79.9 99.8999 79.9 99.8999C79.9 99.9999 79.8 99.9999 79.8 100.1Z" fill="#080809"/>
<path d="M106.7 102.8C106.9 102.8 107.1 102.8 107.3 102.9C106.9 103 106.8 103 106.7 102.8Z" fill="#080809"/>
<path d="M67.0001 105.5C67.2001 104.2 66.3001 105.4 66.3001 104.2C66.7001 104.5 67.0001 104.7 67.1001 104C66.8001 103.3 66.3001 104.1 66.2001 103L66.8001 103.4C67.1001 102.8 66.7001 102 67.0001 102.1C67.5001 103.6 68.6001 101.5 69.1001 101.7L68.9001 101.6L69.7001 100.8V100.7C69.7001 100.8 69.7001 100.9 69.7001 101C70.0001 100.2 70.6001 99.6 71.2001 99.8C71.5001 100.7 73.3001 100 73.6001 100.8C73.3001 100.6 73.1001 100.6 72.7001 100.8L72.8001 101.9C73.4001 101.9 72.8001 100.9 73.4001 101.5C73.3001 103 72.5001 101.5 72.1001 101.7C72.3001 102 72.5001 102.3 72.8001 102.5C71.9001 102.6 71.1001 103.1 70.5001 101.6C70.3001 101.9 70.4001 102.5 70.6001 102.7C70.0001 101.9 70.2001 103.5 69.6001 102.8C69.8001 104.1 70.9001 103.5 71.5001 104.3C72.3001 103.2 73.4001 104.2 74.3001 104.4C74.3001 103.4 73.7001 102.5 74.0001 101.9C74.9001 101.2 74.9001 102.4 75.4001 103C76.0001 102.6 75.4001 101.3 76.4001 101.2L75.8001 100.5C76.3001 99 76.4001 101.1 76.8001 100.7C76.7001 101.1 76.7001 101.5 76.2001 101.4C76.2001 101.9 76.5001 102.1 76.7001 102.2H76.6001C76.8001 102.9 76.9001 103.7 77.5001 103.3C77.1001 102.4 78.0001 102.6 78.1001 102.2L77.9001 102C78.4001 102.3 78.8001 102.1 79.1001 102.3V102.1C79.5001 102.4 79.6001 103.5 80.1001 103.3C80.0001 102.9 79.4001 101.7 80.0001 101.9C79.9001 101.2 79.3001 101.2 78.8001 101.5C79.3001 101.2 79.5001 100.1 78.9001 100.1C79.0001 99.3 79.5001 100.4 79.8001 100C79.7001 100.3 79.9001 100.5 79.8001 100.8C79.8001 99.7 81.0001 100.7 81.0001 101.5L80.4001 100.9C80.4001 101.8 81.2001 102.4 80.9001 102.9C81.1001 101.5 82.5001 103.6 82.8001 102.3L82.6001 103C83.8001 102.5 84.9001 104.1 86.2001 104.4C85.7001 104 85.7001 102.4 84.9001 103C86.1001 102.6 85.2001 101.4 85.5001 100.6C86.4001 100 86.0001 102 86.3001 102.5L85.6001 102.2C86.5001 104 88.0001 101.7 89.3001 102.8C89.4001 102.3 89.0001 102.5 88.8001 102.4C89.3001 101.4 89.4001 102.6 89.7001 102.9C90.3001 102.7 91.0001 102.3 90.6001 101.2C91.2001 100.9 90.6001 101.9 90.9001 102.2L91.0001 101.9L91.7001 103.1C92.2001 102.7 92.9001 102.1 93.1001 101C94.4001 101.1 93.7001 103.5 94.7001 103.8C95.2001 103.2 94.6001 103 94.5001 102.6L95.4001 102.7C95.0001 101.5 94.4001 102.1 94.4001 100.7C95.2001 102.1 95.4001 101.1 96.4001 101.9L96.3001 102C96.8001 102.9 97.7001 102.2 98.3001 102.3C98.0001 101.7 97.4001 101.7 97.0001 101.5C97.6001 101 99.2001 101.4 99.8001 102.5C100.1 102.3 100.9 101.8 100.3 101.3C101.6 101 100.9 102.9 102 102.5L101.9 101.6C103 100.3 104.3 102.5 105.4 101.3L105.5 102.3C105.7 101.9 106.2 101.6 106.3 101.2L105.7 100.9C106.1 100 106.3 101.6 106.9 101C106.9 101.3 106.5 102 106.5 102.3C105.3 102.2 104.1 102.5 102.9 102.8C101.7 103.1 100.5 103.3 99.2001 102.9C99.3001 102.8 99.4001 102.6 99.3001 102.4C99.0001 102.7 98.5001 102.4 98.6001 103L98.7001 103.1C98.0001 102.9 97.5001 104.3 97.2001 104.3C96.9001 103.5 95.9001 104.7 96.1001 103.4L95.7001 104.3C95.5001 103.8 95.6001 103.2 95.3001 102.9C94.9001 103 94.9001 103.6 95.2001 103.9C93.5001 104.6 91.5001 104.6 89.8001 104.2L90.3001 104.8C89.9001 105.2 88.7001 103.7 89.2001 105.4C88.3001 104.8 86.9001 106 86.8001 104.2C86.3001 106 84.8001 105.1 83.6001 104.8C83.7001 103.3 82.6001 104.4 82.3001 103.7C82.2001 104.9 83.3001 104.9 83.4001 105.7C82.1001 103.9 80.1001 107.1 79.5001 104.1C79.4001 104.2 79.4001 104.3 79.4001 104.5C79.2001 104.5 78.9001 105 78.6001 105.2C78.4001 104.7 78.9001 104.4 78.4001 104.2C78.0001 104.3 78.2001 105.2 78.1001 105.5C77.2001 104.8 75.9001 104.6 75.7001 103.4C75.5001 103.7 75.2001 104.4 75.5001 104.6C74.1001 103.7 74.2001 104.8 72.8001 104.2C73.3001 104.2 73.1001 105.5 73.7001 105C73.2001 106.7 71.6001 104.7 70.5001 105.5L70.0001 104.5C69.3001 104.3 69.3001 105.3 69.8001 105.7C68.7001 106.3 68.1001 105.7 67.2001 105.6C67.2001 105.7 67.2001 105.9 67.3001 105.9H66.1001C66.0001 105.6 65.5001 105.1 65.6001 104.5C66.1001 105.5 66.3001 105.9 67.0001 105.5Z" fill="#080809"/>
<path d="M77 100.3C76.9 100.6 76.8 100.7 76.7 100.8C76.8 100.6 76.9 100.4 77 100.3Z" fill="#080809"/>
<path d="M54.3 103C54.5 101.8 55.0001 103.2 55.6001 102.9C55.1001 102.7 55.2 102 55.3 101.7C55.9 103.3 56.1 101.4 57.2 101.7C57.2 101.2 56.7001 101.1 56.6001 100.5C57.2001 100.9 58.2 101.1 58.4 102C59.5 102 60.3 101.6 60.9 101.8C60.1 101.4 60.8 100.8 60.2 100C61 101.1 62.8 102.5 64 104C64.1 102.8 64.2 102.7 64 101.7C65.3 100.9 64.4001 102.8 65.6001 102.4L65 102.6C65.6 103 65.6 104.1 65.8 104.9L64.3 104.7C64.3 105.5 65.2 105.4 65.5 105.6C65.9 106.6 64.7 106.3 64.9 107C64.7 106.3 64.1 106.5 63.7 106.2L63.6001 106.6C62.9001 107 62.5 105.9 61.9 105.9C61.8 106 61.8 106.1 61.8 106.2C61.6 105.7 61.4 105.1 61 105L61.3 105.1C60.8 104.1 59.5 103.5 60.3 102.5C59.8 102.6 59.3 102.7 58.8 102.8C59 103.8 59.3001 105.4 60.1001 105.6L60.2 106C59.6 106.5 58.4 105.1 58.8 104.2C58.5 103 57.9 102.9 57.3 103.1C56.7 103.2 56 103.5 55.4 103C55.3 103.6 55.9 103.9 56.2 104.3C56.5 104.4 56.8 104.4 56.8 103.9C58.2 104.3 56.5001 105.9 58.1001 105.8C58.9001 105.5 57.2 104.7 58.3 104.7L59.1001 106.6C58.4001 106.5 57.7 106.1 57.2 105.8C55.6 105.1 54.3 104.9 53.3 104.9C52.3 104.9 51.8 105 51.8 105C47.1 104.3 42.5 103.5 37.8 102.5C36.4 102.2 35.8 102 35.3 101.9C35.6 101.9 36.5 102 36.2 101.9C36.4 102 36.9 102.1 37.7 102.1C37.8 102 37 102 37.2 102H37.3C37.2 101.9 37.1 101.9 36.9 101.9C37.8 101.8 39.4 101.7 40 102.1C40.7 101.9 39.5 101.7 39.2 101.6C41.7 101.4 43.3 101.3 45.8 101.1C45.8 101.8 46 101.5 46.4 102L46.6001 101.7C46.5001 101.8 46.8 102.3 46.3 102.5C47.7 102 48 103.6 48.9 104.1L48.8 103.7C49.6 103.9 49.8 103.9 50.5 104.2C51.8 103.4 49.4 103.9 49.7 102.9L50.1001 103.1C49.9001 102.7 49.7 101.9 49.3 101.6C50.5 102.3 51.1 101.3 52.4 101.8C52.3 101.2 51.1 100.9 50.7 100.8C51.2 100.7 52 101.1 52 100.6L52.1001 101.3C52.9001 101.4 52 100.7 52.3 100.2C54.4 100.3 52.7 102.6 54.3 103Z" fill="#080809"/>
<path d="M73.4 102.5C73.2 102.6 73 102.6 72.8 102.5C73 102.4 73.2 102.4 73.4 102.5Z" fill="#080809"/>
<path d="M69.6 100.7C69.6 100.6 69.6 100.4 69.5 100.3C69.6 100.4 69.7 100.5 69.6 100.7Z" fill="#080809"/>
<path d="M69.2001 99.3C69.1001 99.8 69.4001 99.8 69.5001 100.3C69.3001 100 68.7001 100 69.2001 99.3Z" fill="#080809"/>
<path d="M128.6 99.1L127.9 99.2C127.7 99.1 127.6 99.1 127.4 99C128.2 99 127.8 99.1 128.6 99.1Z" fill="#080809"/>
<path d="M126.6 99.3L126.8 99.4C126.6 99.3 126.6 99.3 126.6 99.3Z" fill="#080809"/>
<path d="M126.6 99.2L126.3 99C126.6 99.1 126.9 99.1 127.2 99.2H126.8C126.8 99.3 126.6 99.3 126.5 99.3L126.1 99.2C126.3 99.2 126.5 99.2 126.6 99.2Z" fill="#080809"/>
<path d="M124 99.8C124.2 99.7 123.8 99.4999 123.7 99.3999C124.4 99.2999 124.5 99.7 125.1 99.5C124.1 99.3 125.4 99.3 125.7 99.2C125.5 99.4 125.2 99.6 124.5 99.8L124.4 99.6C124.1 99.6 124.3 99.7 124 99.8Z" fill="#080809"/>
<path d="M120.2 99.3999L120.8 99.8C120.9 99.6 121.8 99.5 121.7 99.2C122 99.3 122.1 99.4 122.4 99.5C122.6 99.3 122.8 99.1999 123.1 99.3999C121.8 99.6999 122.2 99.8 121 100C121 100.1 121.2 100.1 121.3 100L120.5 100.3C120.5 99.8 119.5 99.7999 120.2 99.3999Z" fill="#080809"/>
<path d="M119.1 99.8C119.7 99.8 120.1 100.2 119.8 100.5C119.4 100.4 118.9 100.3 118.5 100.3C118.8 100.2 119.3 100.2 119.1 99.8Z" fill="#080809"/>
<path d="M118.2 99.7999C118 100.1 117.6 100.7 117.2 100.2C117.9 100.3 117.5 99.4999 118.2 99.7999Z" fill="#080809"/>
<path d="M113.8 100.7L115 100.2C115.2 99.4 114.4 100 114 99.6C115 99.4 114.7 99.7 115.5 100.1C115.8 100 116.3 100.4 116.6 100.6C115 100.1 115.1 102 113.8 100.7Z" fill="#080809"/>
<path d="M116.1 99.7L116.3 100L115.7 99.8L116.1 99.7Z" fill="#080809"/>
<path d="M111 101.9C110.3 103.1 109.6 101.4 108.8 102C108.9 102.1 108.8 102.2 109 102.3H108.3V102.6C108.3 101.9 107.5 101.7 107.2 101.1C107.9 100.3 107.6 102 108.2 101.1C108 100.8 107.9 100.3 107.7 100.1C108.2 100.4 108.3 100.8 108.5 101.2C109 101.2 108.8 100.9 108.8 100.6C109.3 101 109.4 102 110.2 101.7C110.7 101.1 109.8 100.8 110.7 101C110.3 102.1 111.6 100.8 112 101.4C112.6 101.1 113 100.5 112.9 100.2C112.9 100.9 113.6 101.5 114.1 101.7C113.7 101.5 113.3 101.4 113 101.2L112.7 102.1C111.9 101.6 111.5 101.7 111 101.9Z" fill="#080809"/>
<path d="M107.7 100C107.6 99.9 107.5 99.9 107.4 99.8C107.5 99.8 107.6 99.8 107.7 100Z" fill="#080809"/>
<path d="M113 99.8L112.7 99.6001L112.9 99.3L113 99.8Z" fill="#080809"/>
<path d="M107.1 99.3001C107.2 99.3001 107.3 99.6001 107.2 99.6001L106.9 99.1001L107.1 99.3001Z" fill="#080809"/>
<path d="M106.4 99.8999L106.1 100.6L105.9 100.1L106.4 99.8999Z" fill="#080809"/>
<path d="M91.5 101.3C92 100.8 92 101.7 92.1 102.4C91.4 102.5 92 101.5 91.5 101.3Z" fill="#080809"/>
<path d="M82.0999 100.5C82.5999 99.9001 83.0998 100.8 83.6998 100.7C83.1998 101.2 82.4999 100.9 82.0999 100.5Z" fill="#080809"/>
<path d="M78 97.5C78.1 97.8 78.3 97.9 78 98.1L78.6 99.7C77.8 100.2 78 98.2 78 97.5Z" fill="#080809"/>
<path d="M73.4999 97.5L74.1999 98.1L73.7999 98.2C73.9999 98.8 74.0999 99.1 74.3999 99.6C73.8999 99.2 73.3999 98.6 73.4999 97.5Z" fill="#080809"/>
<path d="M75.1001 99.8001C75.0001 99.8001 74.9 99.8 74.8 99.7C74.9 99.6 75.0001 99.3001 75.1001 99.8001Z" fill="#080809"/>
<path d="M74.6 99.7C74.6 99.6 74.5 99.6 74.5 99.5C74.6 99.6 74.8 99.6 74.9 99.7C74.8 99.9 74.7 100 74.6 99.7Z" fill="#080809"/>
<path d="M72.8998 98.2999L71.5999 98.1999L72.0999 97.8999C72.2999 98.7999 72.6998 97.2999 72.8998 98.2999Z" fill="#080809"/>
<path d="M66.2999 99.5L66.1999 100.4C65.3999 100.6 64.3999 98.8 63.8999 100.2C64.2999 99.6 63.1999 99.3 64.1999 99C64.5999 99.7 65.6999 99.7 66.2999 99.5Z" fill="#080809"/>
<path d="M63.3 100.9C63.4 101.1 63.2 101.3 63.1 101.6C62.8 101.7 62.5 101.3 62.7 101C63 102 63 100.2 63.3 100.9Z" fill="#080809"/>
<path d="M59.5999 100.9C59.7999 100.9 60.1999 101 59.7999 101.2C59.0999 101.2 59.2999 100.3 58.8999 99.8001C59.4999 99.3001 59.9999 100.5 59.5999 100.9Z" fill="#080809"/>
<path d="M53.8999 101.3L54.0999 101.2L54.2999 102L53.8999 101.3Z" fill="#080809"/>
<path d="M49.6998 101L49.0999 100.6H49.8998L49.6998 101Z" fill="#080809"/>
<path d="M48.8999 101.2H48.2L48.5 101C48.7 100.8 48.5999 101.2 48.8999 101.2Z" fill="#080809"/>
<path d="M46.7 101.2C46.8 101.2 46.7999 101.2 46.8999 101.1L47.5 101.3L46.7 101.2Z" fill="#080809"/>
</g>
</g>
<mask id="mask1_70_4218" style="mask-type:luminance" maskUnits="userSpaceOnUse" x="0" y="103" width="125" height="36">
<path d="M124.4 120.3C97.9001 127.3 84.0001 138.2 83.5001 138.6C58.0001 139.2 28.0001 137.8 13.2001 131.9C-1.4999 125.9 -2.5999 113.7 7.0001 103.2L124.4 120.3Z" fill="white"/>
</mask>
<g mask="url(#mask1_70_4218)">
<g opacity="0.45">
<path d="M47.1003 136C46.9003 135.8 46.7002 135.6 46.5002 135.2L47.1003 136Z" fill="#080809"/>
<path d="M25.8002 137.5C25.7002 137.5 25.5001 137.5 25.4001 137.4V137.3C25.5001 137.2 25.7002 137.4 25.8002 137.5Z" fill="#080809"/>
<path d="M26.5002 137L26.2002 136.9C26.3002 136.9 26.4002 137 26.5002 137Z" fill="#080809"/>
<path d="M16.9001 130V129.6C17.0001 129.7 17.0001 129.9 16.9001 130Z" fill="#080809"/>
<path d="M45.5002 136C45.7002 136.1 45.7002 136.1 45.5002 136V136Z" fill="#080809"/>
<path d="M33.5 138.8C33.9 137.2 32.6 138.6 32.9 137C33.3 137.4 33.6 137.7 33.9 136.9C33.6 135.9 33 136.9 33 135.5L33.6001 136.1C34.1001 135.5 33.6 134.3 34 134.5C34.3 136.5 36.0001 134 36.6001 134.3L36.4 134.1L37.4 133.2V133.1C37.4 133.2 37.4 133.3 37.4 133.5C37.9 132.5 38.6 131.8 39.4 132.1C39.6 133.3 41.8001 132.6 42.1001 133.6C41.8001 133.3 41.5001 133.2 41.1001 133.6L41 135C41.7 135 41.2001 133.6 41.8001 134.6C41.5001 136.6 40.8 134.5 40.2 134.7C40.4 135.2 40.6 135.6 40.9 135.8C39.9 135.8 38.8 136.3 38.2 134.4C37.9 134.8 37.9001 135.6 38.1001 135.8C37.4001 134.6 37.4 136.8 36.9 135.8C36.9 137.6 38.4 136.9 38.9 138C40 136.7 41.1 138.2 42.2 138.6C42.3 137.2 41.7 136 42.2 135.2C43.3 134.3 43.2 136 43.7 136.9C44.5 136.5 43.9001 134.5 45.1001 134.5L44.5 133.5C45.3 131.5 45.1 134.3 45.7 133.9C45.5 134.4 45.5 134.9 44.9 134.9C44.8 135.6 45.2 136 45.4 136.1L45.3001 136.2C45.5001 137.2 45.5001 138.3 46.3001 137.8C45.9001 136.6 47 136.9 47.2 136.4L47 136.1C47.5 136.5 48.1 136.4 48.5 136.6V136.3C48.9 136.8 49.0001 138.4 49.6001 138.1C49.6001 137.5 48.9001 135.7 49.6001 136C49.6001 135 48.8 134.9 48.2 135.3C48.8 135 49.2 133.4 48.5 133.3C48.8 132.1 49.2001 133.8 49.6001 133.3C49.5001 133.7 49.6001 134.1 49.6001 134.4C49.7001 132.8 51 134.3 51 135.5L50.3001 134.6C50.2001 135.9 51 136.8 50.7 137.6C51.1 135.5 52.6001 138.7 53.1001 137L52.8001 138.1C54.3001 137.5 55.5 140.1 57 140.8C56.5 140 56.5001 137.6 55.6001 138.4C57.0001 138 56.1001 136 56.6001 134.8C57.7001 133.9 57.1 137.1 57.4 137.9L56.6001 137.4C57.1001 138.8 57.8001 138.7 58.6001 138.5C59.4001 138.2 60.3 137.8 61 138.8C61.1 138 60.7 138.3 60.5 138C61.2 136.5 61.2001 138.3 61.6001 139C62.3001 138.8 63.2001 138.1 62.8001 136.1C63.6 135.6 62.7001 137.3 63.1001 137.9L63.3001 137.5L64.1001 139.8C64.8001 139.2 65.6 138.1 66 136.1C67.6 136.5 66.5 140.8 67.7 141.7C68.4 140.6 67.6 140.1 67.5 139.3L68.5 139.6C68.1 137.2 67.3 138.4 67.4 135.6C68.2 138.4 68.6 136.4 69.7 138.3L69.6001 138.5C70.1001 140.4 71.3 139.1 72 139.5C71.7 138.3 71 138.2 70.5 137.7C71.3 136.7 73.2001 137.7 73.8 140.3C74.2001 139.9 75.2 138.8 74.5 137.8C76 137.4 75.2 141.5 76.5 140.7L76.4 138.7C77.8 135.9 79.3001 141.1 80.6001 138.6L80.7 140.9C81 139.9 81.6 139.4 81.7 138.5L81 137.7C81.6 135.8 81.7 139.5 82.4 138.1C82.4 138.8 81.8 140.4 81.9 141.1C78.9 139.9 76 143.4 73 141C73.1 140.7 73.2 140.4 73.2 139.9C72.9 140.5 72.3 139.8 72.4 141.1L72.5 141.3C71.7 140.7 71 143.6 70.5 143.6C70.2 142 68.9 144.2 69.2 141.5L68.7 143.2C68.5 142.2 68.6 140.9 68.3 140.4C67.8 140.6 67.7 141.6 68.2 142.3C66.1 143.2 63.7001 142.6 61.6001 141.7L62.1001 142.9C61.6001 143.4 60.3 140.7 60.7 143.6C59.7 142.3 57.9 144 57.9 141.2C57.1 143.9 55.4 142.1 54 141.6C54.3 139.3 52.9 140.9 52.5 139.8C52.2 141.5 53.6001 141.7 53.6001 142.9C52.9001 141.4 51.9 141.9 51 142C50.1 142.2 49.3001 142.1 49.1001 139.9C48.9001 140.1 48.9 140.2 49 140.4C48.7 140.4 48.3 141.1 48 141.2C47.9 140.4 48.5001 140.2 47.8001 139.8C47.3001 139.9 47.5 141.1 47.2 141.6C46.2 140.5 44.6001 139.9 44.6001 138.3C44.3001 138.7 43.9 139.6 44.2 140C42.7 138.5 42.6 140 41 139.1C41.6 139.2 41.2 140.8 42 140.3C41.2 142.4 39.5001 139.5 38.1001 140.5L37.7 139.1C36.9 138.7 36.8001 140 37.3001 140.6C35.9001 141.2 35.2 140.2 34.2 140C34.1 140.1 34.1001 140.4 34.3001 140.4L32.8001 140.1C32.7001 139.8 32.2 139 32.4 138.3C32.3 138.7 32.6 139.2 33.5 138.8Z" fill="#080809"/>
<path d="M32.2002 137.9V137.7H32.3002C32.3002 137.9 32.2002 137.9 32.2002 137.9Z" fill="#080809"/>
<path d="M46.2 133.3C46 133.7 45.9 133.8 45.8 133.9C45.9 133.7 46 133.4 46.2 133.3Z" fill="#080809"/>
<path d="M18.7001 133.1C19.2001 131.8 19.5002 133.5 20.3002 133.3C19.7002 133 20.1001 132.2 20.2001 131.8C20.6001 133.7 21.2002 131.6 22.5002 132.2C22.7002 131.6 22.0002 131.4 22.1002 130.7C22.8002 131.3 23.9002 131.7 23.8002 132.8C25.1002 133 26.1002 132.8 26.8002 133.1C25.9002 132.5 26.8002 131.9 26.3002 130.8C27.0002 132.2 28.9002 134.2 30.0002 136.3C30.4002 134.9 30.4001 134.8 30.4001 133.5C32.1001 132.7 30.7001 134.9 32.2001 134.6L31.5002 134.8C32.1002 135.3 32.0002 136.7 32.1002 137.7L30.4001 137.2C30.3001 138.2 31.4001 138.3 31.7001 138.6C32.1001 139.9 30.6001 139.3 30.7001 140.2C30.5001 139.4 29.8001 139.5 29.4001 139L29.2001 139.5C28.3001 139.8 28.0002 138.4 27.3002 138.3C27.2002 138.4 27.2001 138.5 27.2001 138.6C27.0001 138 26.9001 137.2 26.4001 137L26.7001 137.1C26.2001 135.8 24.8001 134.8 26.0002 133.8H24.2001C24.2001 135 24.2001 136.9 25.2001 137.3V137.9C24.3001 138.4 23.2001 136.4 23.9001 135.5C23.8001 134 23.1002 133.8 22.3002 133.9C21.5002 133.9 20.6002 134.1 20.1002 133.4C19.9002 134.1 20.5001 134.5 20.7001 135.1C21.1001 135.3 21.4002 135.4 21.5002 134.8C23.1002 135.6 20.7002 137 22.6002 137.3C23.6002 137.2 21.7002 135.8 23.1002 136L23.7001 138.4C22.9001 138.1 22.1002 137.5 21.5002 137.1C19.7002 135.9 18.1002 135.3 17.0002 135.1C15.8002 134.8 15.1002 134.8 15.1002 134.8C12.4002 133.7 9.70015 132.4 7.10015 130.8C4.60015 129.2 2.10015 127.2 0.700148 124.3C0.000148356 122.5 0.000152916 121.7 0.400153 120.9C0.500153 121.3 0.700154 122.3 0.800154 121.9C0.700154 122 0.700154 122.2 0.800154 122.6C0.900154 122.9 1.00015 123.3 1.20015 123.7C1.50015 123.7 0.90015 122.9 1.10015 123.1C1.10015 123.2 1.20015 123.2 1.20015 123.3C1.30015 123.2 1.30015 123 1.20015 122.7C1.90015 123.5 3.00015 124.9 3.10015 125.8C3.90015 126.2 3.10015 125 2.90015 124.6C5.00015 126.4 6.80015 127.2 9.40015 128.3C9.10015 129.1 9.40015 128.9 9.60015 129.6L10.0002 129.4C9.80015 129.5 10.0002 130.2 9.40015 130.1C10.3002 130.1 10.7001 130.6 10.9001 131.2C11.2001 131.8 11.3002 132.5 11.8002 133L11.9001 132.5C12.8001 132.9 13.1002 133.1 13.8002 133.7C15.6002 133.3 12.5002 133.1 13.3002 132L13.7001 132.4C13.6001 131.8 13.6002 130.9 13.3002 130.4C14.4002 131.6 15.4002 130.6 16.8002 131.7C16.8002 131 15.5001 130.2 15.2001 130.1C15.7001 130.2 16.5001 130.8 16.7001 130.2L16.6002 131C17.5002 131.3 16.7002 130.2 17.1002 129.8C19.5002 130.1 16.9001 132.2 18.7001 133.1Z" fill="#080809"/>
<path d="M41.7002 135.9C41.4002 136 41.2002 135.9 41.0002 135.8C41.2002 135.8 41.4002 135.8 41.7002 135.9Z" fill="#080809"/>
<path d="M37.1001 131.3C36.9001 131.9 37.2001 131.9 37.3001 132.6C37.1001 132.2 36.4001 132.2 37.1001 131.3Z" fill="#080809"/>
<path d="M110 134.9C110.1 135 110.8 135.2 110.6 135.2C110.3 135.1 110 135 109.7 134.9C109.8 135 109.9 134.9 110 134.9Z" fill="#080809"/>
<path d="M108.2 135C107.9 135 107.6 135.1 107.3 135.1C107.1 134.8 106.9 134.5 106.7 134.2C107.7 134.4 107.3 134.8 108.2 135Z" fill="#080809"/>
<path d="M105.8 135.2L106 135.4C105.8 135.3 105.8 135.2 105.8 135.2Z" fill="#080809"/>
<path d="M105.8 134.8L105.4 134C105.8 134.2 106.2 134.5 106.6 134.7C106.5 134.7 106.3 134.7 106.2 134.8C106.2 135 105.9 135.1 105.9 135.2L105.4 134.7C105.5 134.7 105.7 134.9 105.8 134.8Z" fill="#080809"/>
<path d="M104.8 134.6C104.8 134.5 104.9 134.5 104.9 134.4C104.9 134.5 104.8 134.6 104.8 134.6Z" fill="#080809"/>
<path d="M102.7 136.2C102.9 135.8 102.4 135.3 102.3 134.9C103.1 134.6 103.3 135.9 104 135.5C102.8 134.8 104.4 135 104.8 134.6C104.6 135.3 104.2 135.8 103.4 136.1L103.3 135.5C102.8 135.6 103 136 102.7 136.2Z" fill="#080809"/>
<path d="M98.1001 134.5L98.8001 135.7C98.9001 135.1 100 135.1 99.9001 134.1C100.3 134.3 100.4 134.8 100.7 135C101 134.5 101.2 134.1 101.6 134.8C100 135.4 100.5 135.7 99.1001 136.1C99.1001 136.3 99.3001 136.3 99.5001 136.2C99.2001 136.4 98.9001 136.6 98.6001 136.9C98.4001 135.6 97.2001 135.4 98.1001 134.5Z" fill="#080809"/>
<path d="M96.8001 135.4C97.5001 135.5 98.0001 136.6 97.7001 137.4C97.2001 137.1 96.6001 136.8 96.1001 136.5C96.5001 136.6 97.0001 136.7 96.8001 135.4Z" fill="#080809"/>
<path d="M95.7001 135.5C95.4001 136.2 95.0001 137.8 94.4001 136.4C95.3001 136.5 94.8001 134.5 95.7001 135.5Z" fill="#080809"/>
<path d="M90.3 137C90.8 136.6 91.3 136.3 91.7 135.9C91.9 133.9 91 135.3 90.5 134.3C91.7 133.9 91.4 134.6 92.3 135.8C92.7 135.7 93.2 136.7 93.7 137.2C92.7 136.5 92.3 137.3 91.8 137.9C91.5 138.4 91.1 138.8 90.3 137Z" fill="#080809"/>
<path d="M93.2002 134.9L93.4002 135.7L92.7002 135.1L93.2002 134.9Z" fill="#080809"/>
<path d="M86.9 139.5C86.1 142.3 85.2 138.1 84.2 139.3C84.3 139.5 84.2 139.7 84.5 140L83.6001 139.8V140.4C83.6001 138.7 82.7 138.1 82.3 136.8C83.1 135 82.8 138.9 83.5 136.9C83.3 136.1 83.1 135 83 134.4C83.5 135.3 83.7 136.2 83.9 137.2C84.5 137.4 84.3 136.4 84.3 135.8C85 136.8 85 139.2 86 138.5C86.6 137.1 85.6 136.3 86.7 136.8C86.2 139.4 87.8 136.4 88.2 137.9C89 137.4 89.4 135.9 89.2 135C89.2 136.9 90.0001 138.4 90.6001 138.9C90.1001 138.4 89.7 138 89.2 137.5L88.8 139.7C88 138.7 87.5 138.9 86.8 139.3L86.9 139.5Z" fill="#080809"/>
<path d="M83.0002 134.5C82.9002 134.3 82.8002 134.2 82.7002 134.1C82.8002 134 82.9002 134.2 83.0002 134.5Z" fill="#080809"/>
<path d="M89.4001 134.5L89.1001 134.1L89.3001 133.5L89.4001 134.5Z" fill="#080809"/>
<path d="M82.3001 132.7C82.5001 132.6 82.6001 133.4 82.4001 133.5L82.1001 132.3L82.3001 132.7Z" fill="#080809"/>
<path d="M81.5 134.2L81.1001 135.7L80.8 134.5L81.5 134.2Z" fill="#080809"/>
<path d="M63.5002 135.8C64.1002 135 64.0003 136.6 64.1003 137.8C63.2003 138 64.1002 136.3 63.5002 135.8Z" fill="#080809"/>
<path d="M52.3 133.9C53 133 53.5001 134.4 54.1001 134.3C53.5001 135 52.7 134.6 52.3 133.9Z" fill="#080809"/>
<path d="M47.7002 129.5C47.8002 129.9 48.0002 130.1 47.7002 130.3L48.2002 132.6C47.2002 133.3 47.6002 130.5 47.7002 129.5Z" fill="#080809"/>
<path d="M42.4001 129.3L43.2001 130.1L42.7001 130.2C42.9001 131 43.0001 131.5 43.3001 132.2C42.7001 131.6 42.1001 130.8 42.4001 129.3Z" fill="#080809"/>
<path d="M44.0002 132.5C43.9002 132.5 43.8002 132.4 43.7002 132.4C43.8002 132.1 43.9002 131.8 44.0002 132.5Z" fill="#080809"/>
<path d="M43.4 132.4C43.4 132.3 43.3 132.2 43.3 132.2C43.4 132.3 43.6 132.4 43.7 132.5C43.6 132.6 43.5 132.7 43.4 132.4Z" fill="#080809"/>
<path d="M41.6001 130.3L40.1001 130.1L40.7001 129.7C40.8001 131 41.5001 128.9 41.6001 130.3Z" fill="#080809"/>
<path d="M33.6001 131.2L33.3001 132.3C32.3001 132.4 31.4001 130.1 30.6001 131.7C31.1001 131.1 30.0001 130.5 31.1001 130.2C31.5001 131.2 32.9001 131.4 33.6001 131.2Z" fill="#080809"/>
<path d="M29.9002 132.5C30.0002 132.8 29.8002 133 29.6002 133.3C29.2002 133.4 28.9002 132.9 29.2002 132.5C29.2002 133.8 29.6002 131.7 29.9002 132.5Z" fill="#080809"/>
<path d="M25.5002 131.9C25.8002 132 26.1002 132.1 25.7002 132.3C24.9002 132.1 25.3002 131.1 25.0002 130.5C25.7002 130 26.1002 131.5 25.5002 131.9Z" fill="#080809"/>
<path d="M17.5002 136.6C17.8002 136 18.4002 136.3 18.5002 136.6C18.4002 136.3 17.9002 136.4 17.5002 136.6Z" fill="#080809"/>
<path d="M18.7002 131.1L19.0002 131V132L18.7002 131.1Z" fill="#080809"/>
<path d="M14.0002 129.5L13.5002 128.8L14.4002 129.1L14.0002 129.5Z" fill="#080809"/>
<path d="M13.0002 129.4L12.2002 129.1L12.6002 129C13.0002 128.9 12.8002 129.3 13.0002 129.4Z" fill="#080809"/>
<path d="M10.7002 128.5C10.8002 128.6 10.9002 128.5 11.0002 128.5L11.6002 129L10.7002 128.5Z" fill="#080809"/>
</g>
</g>
<mask id="mask2_70_4218" style="mask-type:luminance" maskUnits="userSpaceOnUse" x="175" y="83" width="39" height="30">
<path d="M211.8 106.5C205 108.9 192.5 110.1 175.6 112.1C179.7 106.9 181.8 100.6 180.6 92.9C180.1 89.7 179.5 86.5 178.8 83.5C181.9 84 185 84.6 188 85.2C196.8 87 204.1 89.1 210.1 91.4C216.6 101 211.8 106.5 211.8 106.5Z" fill="white"/>
</mask>
<g mask="url(#mask2_70_4218)">
<g opacity="0.45">
<path d="M195.5 112.4C195.5 112.3 195.4 112.1 195.4 111.9C195.4 111.9 195.5 112.1 195.5 112.4Z" fill="#080809"/>
<path d="M208.8 111.6L208.9 112.1C208.7 111.9 208.7 111.8 208.8 111.6Z" fill="#080809"/>
<path d="M194.5 108.6C194.4 108.5 194.3 108.3 194.2 107.9L194.5 108.6Z" fill="#080809"/>
<path d="M195.9 106.3C195.9 106.2 195.9 106.1 196 106C196 106.2 195.9 106.3 195.9 106.3Z" fill="#080809"/>
<path d="M182.6 111.3C182.5 111.3 182.5 111.3 182.4 111.3V111.2C182.4 111 182.5 111.2 182.6 111.3Z" fill="#080809"/>
<path d="M183 110.8L182.8 110.7C182.9 110.7 182.9 110.7 183 110.8Z" fill="#080809"/>
<path d="M193.6 108.6C193.7 108.7 193.7 108.7 193.6 108.6V108.6Z" fill="#080809"/>
<path d="M186.8 111.8C187.1 110.3 186.3 111.7 186.5 110.2C186.7 110.6 186.9 110.8 187.1 110C187 109.1 186.6 110 186.6 108.8L186.9 109.3C187.2 108.7 186.9 107.7 187.2 107.8C187.4 109.6 188.3 107.2 188.6 107.5L188.5 107.3L189.1 106.5V106.4C189.1 106.5 189.1 106.6 189.1 106.7C189.4 105.8 189.8 105.2 190.2 105.4C190.3 106.4 191.6 105.8 191.7 106.7C191.5 106.4 191.4 106.4 191.1 106.7V108C191.5 108 191.2 106.8 191.6 107.6C191.4 109.3 191 107.6 190.7 107.8C190.8 108.2 190.9 108.6 191.1 108.7C190.5 108.7 189.9 109.3 189.6 107.5C189.4 107.9 189.4 108.6 189.5 108.7C189.1 107.7 189.1 109.6 188.8 108.7C188.8 110.3 189.6 109.6 189.9 110.5C190.5 109.3 191.2 110.5 191.7 110.8C191.8 109.6 191.4 108.6 191.7 107.9C192.3 107.1 192.2 108.6 192.5 109.3C192.9 108.9 192.7 107.3 193.3 107.3L193 106.5C193.5 104.8 193.3 107.2 193.6 106.9C193.5 107.3 193.5 107.8 193.1 107.7C193 108.3 193.3 108.6 193.4 108.7H193.3C193.4 109.5 193.4 110.4 193.8 110C193.6 109 194.2 109.3 194.3 108.8L194.2 108.6C194.5 109 194.8 108.8 195 109V108.7C195.2 109.1 195.2 110.4 195.6 110.1C195.6 109.6 195.3 108.2 195.6 108.4C195.6 107.6 195.2 107.5 194.8 107.8C195.2 107.5 195.4 106.3 195 106.2C195.2 105.2 195.4 106.6 195.6 106.2C195.5 106.5 195.6 106.8 195.6 107.1C195.7 105.8 196.4 107 196.4 107.9L196 107.2C195.9 108.3 196.4 109 196.2 109.6C196.5 107.9 197.2 110.5 197.5 109.1L197.3 110C198.2 109.5 198.8 111.5 199.6 111.9C199.3 111.4 199.4 109.5 198.8 110.2C199.6 109.9 199.1 108.4 199.4 107.5C200 106.9 199.6 109.2 199.8 109.8L199.4 109.5C199.9 111.6 201 109.1 201.8 110.4C201.9 109.9 201.6 110.1 201.5 109.9C201.9 108.8 201.9 110.1 202.1 110.6C202.5 110.4 203 110 202.8 108.7C203.2 108.4 202.7 109.5 202.9 109.9L203 109.6L203.4 111.1C203.8 110.7 204.3 110 204.5 108.8C205.4 109.1 204.7 111.7 205.4 112.2C205.8 111.5 205.4 111.2 205.3 110.7L205.9 110.8C205.7 109.4 205.3 110.1 205.3 108.4C205.7 110.1 205.9 108.9 206.5 110V110.1C206.8 111.2 207.4 110.4 207.8 110.6C207.7 109.9 207.3 109.9 207 109.6C207.4 109.1 208.5 109.6 208.8 111C209 110.8 209.6 110.2 209.2 109.7C210.1 109.5 209.5 111.6 210.3 111.2V110.2C211.1 108.8 211.9 111.5 212.7 110.2V111.3C212.9 110.8 213.2 110.6 213.3 110.1L212.9 109.7C213.2 108.8 213.3 110.6 213.7 109.9C213.7 110.2 213.3 111 213.3 111.4C212.5 111.1 211.7 111.4 210.8 111.6C210 111.8 209.1 112 208.3 111.4C208.4 111.2 208.4 111.1 208.4 110.8C208.2 111.1 207.9 110.8 207.9 111.5L208 111.6C207.6 111.3 207.1 112.9 206.9 112.9C206.8 112 206 113.3 206.2 111.7L205.9 112.7C205.8 112.1 205.9 111.4 205.7 111.1C205.4 111.2 205.4 111.9 205.6 112.2C204.4 112.8 203.1 112.7 201.9 112.1L202.2 112.9C201.9 113.3 201.2 111.5 201.4 113.5C200.9 112.7 199.8 114 199.9 112C199.4 114 198.5 112.8 197.7 112.5C197.9 110.7 197.1 112 196.9 111.1C196.7 112.5 197.5 112.5 197.5 113.5C196.8 111.3 195.1 114.9 195 111.4C194.9 111.5 194.9 111.7 194.9 111.8C194.7 111.8 194.5 112.4 194.3 112.5C194.2 111.9 194.6 111.6 194.2 111.4C193.9 111.5 194 112.5 193.9 112.9C193.4 112.1 192.5 111.7 192.5 110.3C192.3 110.7 192.1 111.4 192.3 111.7C191.5 110.5 191.4 111.8 190.5 111.1C190.8 111.2 190.6 112.6 191.1 112C190.6 113.9 189.7 111.5 188.9 112.4L188.7 111.2C188.3 110.9 188.2 112.1 188.4 112.6C187.6 113.2 187.2 112.4 186.7 112.4C186.7 112.5 186.7 112.8 186.8 112.7L186 112.6C185.9 112.3 185.7 111.7 185.8 111C186.2 111.7 186.4 112.1 186.8 111.8Z" fill="#080809"/>
<path d="M194 106.3C193.9 106.6 193.8 106.8 193.8 106.8C193.9 106.7 193.9 106.5 194 106.3Z" fill="#080809"/>
<path d="M178.6 108.1C178.8 106.8 179.1 108.4 179.5 108.1C179.2 107.8 179.3 107.1 179.4 106.7C179.6 108.5 180 106.4 180.7 106.8C180.8 106.2 180.4 106.1 180.4 105.4C180.8 105.9 181.4 106.1 181.4 107.2C182.1 107.3 182.7 106.9 183.1 107.1C182.6 106.6 183.1 105.9 182.8 105C183.2 106.3 184.3 108 184.9 109.9C185.1 108.6 185.2 108.4 185.2 107.2C186.2 106.3 185.4 108.5 186.2 108.1L185.8 108.3C186.2 108.7 186.1 110 186.1 111L185.1 110.7C185 111.6 185.7 111.6 185.8 111.9C186 113.1 185.2 112.6 185.2 113.5C185.1 112.7 184.7 112.9 184.5 112.5L184.4 113C183.9 113.4 183.7 112.1 183.3 112.1C183.3 112.2 183.2 112.3 183.2 112.4C183.1 111.8 183 111.2 182.8 110.9L183 111C182.7 109.8 181.9 109 182.6 107.9L181.6 108.2C181.6 109.4 181.6 111.2 182.2 111.5V112C181.7 112.6 181.1 110.8 181.4 109.9C181.3 108.5 180.9 108.4 180.5 108.5C180.1 108.6 179.6 108.9 179.3 108.3C179.2 109 179.6 109.3 179.7 109.9C179.9 110 180.1 110.1 180.1 109.5C181 110.1 179.7 111.8 180.8 111.8C181.4 111.5 180.3 110.5 181.1 110.5L181.4 112.7C180.9 112.5 180.5 112.1 180.2 111.7C179.2 110.8 178.3 110.5 177.7 110.5C177.1 110.4 176.7 110.6 176.7 110.6C173.6 109.5 170.6 108.4 167.6 107.1C166.7 106.7 166.3 106.5 166 106.3C166.2 106.3 166.8 106.4 166.6 106.3C166.7 106.4 167.1 106.5 167.6 106.6C167.7 106.5 167.1 106.4 167.3 106.4H167.4C167.4 106.3 167.3 106.3 167.1 106.3C167.7 106.2 168.8 106.1 169.1 106.7C169.6 106.5 168.8 106.3 168.6 106.1C170.3 105.9 171.4 105.9 173.1 105.8C173 106.6 173.2 106.3 173.4 106.9L173.6 106.6C173.5 106.7 173.7 107.3 173.3 107.5C174.3 107 174.3 108.8 174.9 109.4V108.9C175.4 109.1 175.6 109.2 176 109.6C177 108.8 175.3 109.3 175.6 108L175.8 108.3C175.7 107.8 175.7 106.9 175.4 106.5C176.1 107.4 176.6 106.2 177.5 106.9C177.5 106.2 176.7 105.7 176.5 105.7C176.8 105.6 177.3 106.1 177.4 105.5V106.3C177.9 106.4 177.4 105.6 177.6 105C178.2 105 178.2 105.7 178.1 106.4C178.1 107 178.1 107.8 178.6 108.1Z" fill="#080809"/>
<path d="M191.4 108.7C191.2 108.8 191.1 108.7 191 108.6C191.2 108.6 191.3 108.6 191.4 108.7Z" fill="#080809"/>
<path d="M188.9 104.7C188.8 105.2 189 105.2 189 105.9C188.9 105.5 188.5 105.5 188.9 104.7Z" fill="#080809"/>
<path d="M213.7 108.2L213.4 108.9L213.3 108.3L213.7 108.2Z" fill="#080809"/>
<path d="M203.6 108.5C203.9 108 203.9 109 203.9 109.8C203.4 110 204 108.9 203.6 108.5Z" fill="#080809"/>
<path d="M197.4 106.9C197.8 106.2 198.1 107.3 198.4 107.3C198.1 107.8 197.6 107.4 197.4 106.9Z" fill="#080809"/>
<path d="M194.9 103.2C195 103.5 195.1 103.7 194.9 103.9L195.1 105.8C194.6 106.4 194.9 104 194.9 103.2Z" fill="#080809"/>
<path d="M191.9 102.9L192.3 103.6H192C192.1 104.3 192.1 104.7 192.3 105.3C192.1 104.9 191.8 104.2 191.9 102.9Z" fill="#080809"/>
<path d="M192.8 105.7C192.7 105.7 192.7 105.6 192.6 105.6C192.7 105.4 192.8 105.1 192.8 105.7Z" fill="#080809"/>
<path d="M192.4 105.6C192.4 105.5 192.4 105.5 192.3 105.4C192.4 105.5 192.5 105.6 192.5 105.6C192.6 105.7 192.5 105.9 192.4 105.6Z" fill="#080809"/>
<path d="M191.5 103.8L190.7 103.6L191 103.3C191 104.4 191.4 102.6 191.5 103.8Z" fill="#080809"/>
<path d="M187 104.7L186.8 105.7C186.2 105.9 185.7 103.7 185.3 105.3C185.6 104.7 184.9 104.2 185.6 103.9C185.8 104.8 186.6 104.9 187 104.7Z" fill="#080809"/>
<path d="M184.9 106.1C185 106.4 184.8 106.6 184.7 106.9C184.5 107 184.3 106.5 184.5 106.1C184.5 107.4 184.7 105.3 184.9 106.1Z" fill="#080809"/>
<path d="M182.4 106C182.6 106 182.8 106.1 182.5 106.3C182 106.2 182.2 105.2 182.1 104.6C182.5 104.1 182.7 105.5 182.4 106Z" fill="#080809"/>
<path d="M178 111.6C178.1 111 178.5 111.1 178.6 111.4C178.5 111.3 178.2 111.4 178 111.6Z" fill="#080809"/>
<path d="M178.5 106.1L178.7 105.9V107L178.5 106.1Z" fill="#080809"/>
<path d="M175.7 105.5L175.4 105L175.9 105.1L175.7 105.5Z" fill="#080809"/>
</g>
</g>
<mask id="mask3_70_4218" style="mask-type:luminance" maskUnits="userSpaceOnUse" x="151" y="37" width="19" height="17">
<path d="M170 53.7C160.9 53.7 151.1 39.4 151.1 39.4C154.6 37.8 163 37.3 163 37.3C163 37.3 166.2 43.7 170 53.7Z" fill="white"/>
</mask>
<g mask="url(#mask3_70_4218)">
<g opacity="0.45">
<path d="M160.4 38.2C160.4 38.3 160.5 38.2999 160.5 38.3999C160.5 38.3999 160.4 38.3 160.4 38.2Z" fill="#080809"/>
<path d="M154.7 39L154.6 38.8C154.7 38.8 154.7 38.9 154.7 39Z" fill="#080809"/>
<path d="M161 39.8C161.1 39.9 161.1 39.9001 161.2 40.1001L161 39.8Z" fill="#080809"/>
<path d="M160.5 40.8V40.9C160.4 40.9 160.5 40.9 160.5 40.8Z" fill="#080809"/>
<path d="M166 37.8C166 37.9 166.1 37.9 166 37.8V37.8Z" fill="#080809"/>
<path d="M161.4 39.8001C161.3 39.7001 161.3 39.7001 161.4 39.8001V39.8001Z" fill="#080809"/>
<path d="M152.5 39.0999C152.4 39.0999 152.4 39.0999 152.3 38.9999C152.5 38.8999 152.5 38.9999 152.5 39.0999Z" fill="#080809"/>
<path d="M164.2 37.9999C164.2 38.6999 164.4 37.9999 164.4 38.6999C164.3 38.4999 164.2 38.3999 164.2 38.7999C164.3 39.1999 164.4 38.7999 164.5 39.3999L164.3 39.1999C164.2 39.4999 164.4 39.9999 164.3 39.8999C164.1 39.0999 163.8 40.1999 163.7 40.0999L163.8 40.1999L163.6 40.5999C163.6 40.5999 163.6 40.4999 163.6 40.3999C163.5 40.7999 163.4 41.0999 163.2 40.9999C163.1 40.4999 162.6 40.8999 162.5 40.4999C162.6 40.5999 162.7 40.5999 162.7 40.4999V39.8999C162.5 39.8999 162.7 40.3999 162.5 40.0999C162.5 39.2999 162.7 40.0999 162.9 39.9999C162.8 39.7999 162.8 39.6999 162.7 39.5999C163 39.5999 163.2 39.2999 163.4 40.0999C163.5 39.8999 163.4 39.5999 163.4 39.4999C163.6 39.8999 163.5 39.0999 163.7 39.4999C163.6 38.7999 163.3 39.0999 163.1 38.6999C162.9 39.2999 162.6 38.6999 162.3 38.5999C162.3 39.0999 162.5 39.5999 162.4 39.8999C162.2 40.2999 162.1 39.5999 162 39.2999C161.8 39.4999 162 40.1999 161.7 40.1999L161.9 40.4999C161.8 41.2999 161.7 40.1999 161.6 40.3999C161.6 40.1999 161.6 39.9999 161.8 39.9999C161.8 39.6999 161.7 39.5999 161.6 39.5999C161.5 39.1999 161.5 38.7999 161.3 38.9999C161.4 39.3999 161.2 39.2999 161.1 39.4999L161.2 39.5999C161.1 39.4999 160.9 39.4999 160.8 39.3999V39.4999C160.7 39.2999 160.6 38.7999 160.5 38.8999C160.5 39.0999 160.7 39.6999 160.6 39.5999C160.6 39.8999 160.8 39.9999 161 39.7999C160.9 39.8999 160.8 40.4999 161 40.4999C161 40.8999 160.8 40.2999 160.7 40.4999C160.7 40.3999 160.7 40.1999 160.7 40.0999C160.7 40.6999 160.4 40.1999 160.3 39.7999L160.5 40.0999C160.5 39.5999 160.3 39.2999 160.3 39.0999C160.2 39.7999 159.8 38.7999 159.8 39.3999V38.9999C159.4 39.1999 159.1 38.3999 158.7 38.2999C158.8 38.4999 158.9 39.2999 159.1 38.9999C158.8 39.1999 159 39.7999 158.9 40.1999C158.6 40.4999 158.7 39.4999 158.6 39.1999L158.8 39.2999C158.5 38.3999 158.1 39.4999 157.7 38.9999C157.7 39.1999 157.8 39.0999 157.8 39.1999C157.7 39.6999 157.6 39.0999 157.5 38.8999C157.3 38.9999 157.1 39.1999 157.3 39.7999C157.1 39.9999 157.3 39.3999 157.2 39.2999V39.3999L157 38.7999C156.8 38.9999 156.7 39.2999 156.6 39.8999C156.2 39.7999 156.4 38.5999 156.1 38.3999C156 38.6999 156.2 38.7999 156.2 39.0999H155.9C156 39.6999 156.2 39.3999 156.2 40.1999C155.9 39.4999 155.9 39.9999 155.6 39.4999V39.3999C155.4 38.8999 155.2 39.2999 155 39.1999C155.1 39.4999 155.3 39.4999 155.4 39.5999C155.2 39.8999 154.8 39.5999 154.6 38.9999C154.5 39.0999 154.3 39.3999 154.5 39.6999C154.1 39.7999 154.3 38.7999 154 38.9999V39.4999C153.7 40.1999 153.3 38.8999 153 39.5999L152.9 38.9999C152.8 39.2999 152.7 39.3999 152.7 39.5999L152.9 39.7999C152.8 40.2999 152.7 39.2999 152.5 39.6999C152.5 39.4999 152.6 39.0999 152.6 38.8999C153.3 39.1999 154 38.2999 154.7 38.7999C154.7 38.8999 154.7 38.9999 154.7 39.0999C154.8 38.8999 154.9 39.0999 154.9 38.7999C155.1 38.8999 155.2 38.1999 155.3 38.1999C155.4 38.5999 155.7 37.9999 155.6 38.6999L155.7 38.1999C155.8 38.4999 155.8 38.7999 155.8 38.8999C155.9 38.7999 155.9 38.4999 155.8 38.3999C156.3 38.0999 156.9 38.0999 157.4 38.2999L157.2 37.9999C157.3 37.7999 157.7 38.5999 157.5 37.6999C157.8 37.9999 158.2 37.3999 158.2 38.2999C158.3 37.3999 158.8 37.8999 159.1 37.9999C159.1 38.7999 159.4 38.1999 159.5 38.5999C159.5 37.9999 159.2 37.9999 159.2 37.5999C159.6 38.4999 160.2 36.8999 160.4 38.3999C160.4 38.2999 160.4 38.2999 160.4 38.1999C160.5 38.1999 160.5 37.8999 160.6 37.8999C160.6 38.1999 160.5 38.2999 160.7 38.3999C160.8 38.2999 160.7 37.8999 160.8 37.6999C161.1 37.9999 161.5 38.1999 161.5 38.7999C161.6 38.5999 161.6 38.2999 161.5 38.1999C161.9 38.6999 161.9 38.0999 162.3 38.3999C162.2 38.3999 162.2 37.7999 162 37.9999C162.1 37.0999 162.6 38.0999 162.9 37.6999L163 38.1999C163.2 38.2999 163.2 37.7999 163.1 37.5999C163.4 37.1999 163.6 37.5999 163.9 37.5999C163.9 37.4999 163.9 37.3999 163.9 37.4999H164.3C164.3 37.5999 164.5 37.8999 164.5 38.2999C164.4 37.9999 164.3 37.7999 164.2 37.9999Z" fill="#080809"/>
<path d="M161.3 40.8001C161.3 40.7001 161.4 40.6001 161.4 40.6001C161.3 40.6001 161.3 40.7001 161.3 40.8001Z" fill="#080809"/>
<path d="M167.9 39.2C167.9 40 167.7 39.1 167.5 39.3C167.7 39.4 167.6 39.9 167.6 40.2C167.4 39.1 167.4 40.4 167 40.2C167 40.6 167.2 40.6 167.2 41C167 40.7 166.7 40.6 166.7 40C166.4 40 166.2 40.2 166 40.1C166.2 40.3 166 40.7 166.2 41.2C166 40.5 165.4 39.6 165.1 38.8C165.1 39.5 165.1 39.5 165.1 40.2C164.7 40.7 165 39.6 164.6 39.8L164.8 39.7C164.6 39.5 164.6 38.9 164.5 38.4L164.9 38.5C164.9 38 164.6 38.1 164.5 38C164.4 37.4 164.7 37.6 164.7 37.2C164.8 37.6 164.9 37.4 165 37.6V37.4C165.2 37.1 165.3 37.8 165.5 37.7C165.5 37.6 165.5 37.6 165.5 37.5C165.6 37.8 165.6 38.1 165.7 38.2H165.6C165.8 38.8 166.1 39.2 165.9 39.8L166.3 39.6C166.2 39 166.1 38 165.9 37.9V37.6C166.1 37.2 166.4 38.1 166.3 38.6C166.5 40.2 167 38.6 167.3 39.3C167.3 38.9 167.1 38.7 167.1 38.4C167 38.4 166.9 38.3 166.9 38.7C166.5 38.5 167 37.4 166.5 37.5C166.3 37.7 166.8 38.2 166.4 38.2L166.1 37C166.3 37 166.5 37.2 166.7 37.4C167.6 38.2 168.3 37.5 168.3 37.5L172.4 37.9C172.8 38.1 173 38 173.1 39.2C173 39.4 172.7 39.3 172.8 39.7C172.8 39.3 172.6 39 172.4 39.1C172.4 39.5 172.6 39.3 172.5 39.4C172.5 39.6 172.6 39.8 172.6 39.8C172.3 40.4 171.9 40.3 171.7 39.5C171.5 39.9 171.8 40.2 171.9 40.5C171.2 40.8 170.7 40.7 170 40.8C170 40.1 169.9 40.3 169.8 39.8L169.7 40.1C169.7 40 169.6 39.4 169.8 39.3C169.4 39.9 169.3 38.3 169 38V38.4C168.8 38.3 168.7 38.3 168.5 38.1C168.1 38.8 168.8 38.2 168.7 39.2L169 39C169.1 39.4 169.1 40 169.2 40.3C168.8 39.7 168.7 40.5 168.3 40.1C168.3 40.5 168.7 40.9 168.8 40.9C168.7 40.9 168.4 40.6 168.4 41V40.5C168.2 40.4 168.4 41 168.4 41.3C167.9 41.2 168.3 39.6 167.9 39.2Z" fill="#080809"/>
<path d="M163.5 41.4C163.5 41.2 163.5 41.2 163.4 40.8C163.5 41 163.7 41 163.5 41.4Z" fill="#080809"/>
<path d="M151.3 39.4C151.5 38.6 151.7 39.8 152 39.5C152 39.5 152 39.4 151.9 39.3L152.1 39.4V39.2C152.1 39.7 152.4 39.8 152.5 40.2C152.3 40.7 152.3 39.6 152.2 40.2C152.3 40.4 152.3 40.7 152.4 40.9C152.3 40.7 152.2 40.4001 152.1 40.1001C152 40.1001 152 40.3 152 40.5C151.8 40.2 151.8 39.6 151.6 39.7C151.5 40.1 151.7 40.3 151.5 40.2C151.6 39.5 151.3 40.3 151.1 39.9C150.9 40.1 150.8 40.5 150.9 40.8C150.9 40.2 150.7 39.7001 150.5 39.6001L150.9 40.1001L151 39.4C151.1 39.6 151.2 39.6 151.3 39.4Z" fill="#080809"/>
<path d="M152.4 40.8C152.4 40.8 152.4 40.9 152.5 40.9C152.4 41 152.4 40.9 152.4 40.8Z" fill="#080809"/>
<path d="M152.6 41.3001C152.6 41.3001 152.5 41.1001 152.6 41.1001V41.3001Z" fill="#080809"/>
<path d="M152.7 40.9L152.8 40.5L152.9 40.8L152.7 40.9Z" fill="#080809"/>
<path d="M157 40.2C156.9 40.4 156.9 40 156.8 39.6C157.1 39.5 156.9 40 157 40.2Z" fill="#080809"/>
<path d="M159.8 40.6001C159.7 40.9001 159.5 40.5001 159.3 40.5001C159.5 40.3001 159.7 40.4001 159.8 40.6001Z" fill="#080809"/>
<path d="M161 42.2C161 42.1 160.9 42 161 41.9L160.8 41.1C161 40.8 161 41.8 161 42.2Z" fill="#080809"/>
<path d="M162.3 42.2L162.1 41.8999H162.2C162.1 41.5999 162.1 41.4 162 41.2C162.2 41.3 162.3 41.7 162.3 42.2Z" fill="#080809"/>
<path d="M161.8 41C161.9 41.2 161.9 41.3 161.8 41V41Z" fill="#080809"/>
<path d="M162 41.1001C161.9 40.9001 161.9 41.0001 162 41.1001V41.1001Z" fill="#080809"/>
<path d="M162.5 41.8L162.9 41.9L162.8 42.1001C162.7 41.6001 162.5 42.4 162.5 41.8Z" fill="#080809"/>
<path d="M164.4 41.4V40.9C164.6 40.8 164.9 41.9001 165.1 41.1001C165 41.4001 165.3 41.7001 165 41.8001C164.9 41.3001 164.6 41.2 164.4 41.4Z" fill="#080809"/>
<path d="M165.3 40.6C165.3 40.5 165.3 40.4 165.3 40.2C165.4 40.1 165.5 40.4 165.4 40.6C165.4 39.9 165.3 41 165.3 40.6Z" fill="#080809"/>
<path d="M166.3 40.5999C166.2 40.5999 166.1 40.4999 166.2 40.3999C166.4 40.3999 166.4 40.9999 166.5 41.2999C166.4 41.6999 166.2 40.8999 166.3 40.5999Z" fill="#080809"/>
<path d="M167.9 37C167.9 37.4 167.7 37.4 167.7 37.2C167.8 37.3 167.9 37.1 167.9 37Z" fill="#080809"/>
<path d="M168 40.5L167.9 40.6V40L168 40.5Z" fill="#080809"/>
<path d="M169.2 40.8999L169.4 41.2999L169.2 41.1999V40.8999Z" fill="#080809"/>
<path d="M169.5 40.7H169.7L169.6 40.8999C169.5 41.0999 169.5 40.8 169.5 40.7Z" fill="#080809"/>
</g>
</g>
<path d="M202 29.8C202 29.8 205.8 31 208.3 36.8C208.3 36.8 208.8 36 208.7 35.3C208.6 34.7 212.1 36.8 212.1 36.8C212.1 36.8 209.4 31.3 204.2 29.5L202 29.8Z" fill="#FF510C"/>
<path d="M194.4 29.4999C194.4 29.4999 196.2 32.5999 197.2 32.5999C198.2 32.5999 198 29.8999 199.3 29.4999C200.6 29.1999 201.9 30.6999 205.8 28.8999" stroke="#1B1C1E" stroke-width="1.3738" stroke-miterlimit="10" stroke-linecap="round" stroke-linejoin="round"/>
<path d="M76.2002 81.2C76.2002 81.2 84.9002 80.7 93.9002 89.7C102.9 98.7 104.6 83.9 93.7002 79.8C93.7002 79.8 79.8002 80.7 76.2002 81.2Z" fill="#1B1C1E"/>
<path d="M84.9002 103.9C84.9002 103.9 76.2002 104.9 72.4002 116.7C68.5002 128.6 55.0002 122.8 52.5002 113.8C50.0002 104.8 38.2002 112 34.8002 109.3C31.4002 106.6 38.0002 101.9 38.0002 101.9C38.0002 101.9 73.6002 104.7 84.9002 103.9Z" fill="#1B1C1E"/>
<path d="M37.3 112.7C37.3 112.7 28.7 114.8 33.8 119.6C38.9 124.4 43.1 113.1 37.3 112.7Z" fill="#1B1C1E"/>
<path d="M155.7 114.6C155.7 114.6 163 114 173.3 120.8C183.6 127.6 198.9 121 189.9 110.5" fill="#1B1C1E"/>
<path d="M205.2 119.6C205.2 119.6 199.7 117.5 199.8 122.3C199.9 127 204.4 128.9 209.3 125.9C214.1 122.8 205.2 119.6 205.2 119.6Z" fill="#1B1C1E"/>
<path d="M212.1 112.7C212.1 112.7 209.1 117.4 212.1 116.8C215.1 116.1 215.8 110.9 212.1 112.7Z" fill="#1B1C1E"/>
</svg>
