<svg width="152" height="247" viewBox="0 0 152 247" fill="none" xmlns="http://www.w3.org/2000/svg">
<path d="M1.30001 241.9C1.30001 241.9 -4.6 244.5 11.5 245.3C27.6 246.1 112.8 246.5 121.6 245.3C130.4 244.1 147.4 244.8 124.8 241.9C102.2 239 78.9 240.7 56.1 239C33.3 237.3 4.70001 238.9 1.30001 241.9Z" fill="#1B1C1E"/>
<path d="M119.4 191.8C119.4 191.8 128.4 187.7 129.9 166.7C131.4 145.7 122.2 128.8 121.3 102.2C120.4 75.6001 135.4 60.6001 147 69.2001C158.6 77.8001 141.2 94.6001 144.4 129.3C147.6 163.9 148.5 198.9 121 207.9C121.1 207.9 116.4 201.4 119.4 191.8Z" fill="#513F3B"/>
<path d="M46.8001 242C46.8001 242 12.1001 242 10.0001 242C7.90013 242 5.30013 226.2 23.7001 225.9C42.1001 225.6 53.2001 225.9 53.2001 225.9L46.8001 242Z" fill="#513F3B"/>
<path d="M14.8999 242C14.8999 242 13.8999 238.2 16.6999 235.5" stroke="#1B1C1E" stroke-miterlimit="10"/>
<path d="M21.5 242C21.5 242 21.5 238.9 22.9 237.5" stroke="#1B1C1E" stroke-miterlimit="10"/>
<path d="M34.5 16.9001C34.5 16.9001 22.3 -1.09993 14.4 0.600075C6.50002 2.30007 5.40003 39.4001 12.3 41.7001C19.1 44.1001 34.5 16.9001 34.5 16.9001Z" fill="#513F3B"/>
<path d="M70.3 18.2C70.3 18.2 86.4001 6.59998 96.2001 7.29998C106.1 7.89998 96.0001 37.1 88.7001 44.6C81.4001 52.1 70.3 18.2 70.3 18.2Z" fill="#513F3B"/>
<path d="M25.3002 79.9001C25.3002 79.9001 12.4002 72.0001 10.3002 55.5001C8.20016 39.0001 15.7001 12.9001 51.7001 12.9001C87.7001 12.9001 94.5001 43.0001 91.9001 58.5001C89.5001 73.2001 82.1002 77.8001 82.1002 77.8001C82.1002 77.8001 90.1002 95.9001 94.1002 106.5C97.2002 114.7 98.7001 123.1 97.5002 132.9C97.5002 132.9 109.5 150.7 117 165.5C124.2 179.7 130.2 215.3 123.7 239.4C123.3 241 121.8 242.1 120.2 242.1H25.5002C17.1002 242.1 7.30015 228.3 15.0002 173.6C15.0002 173.6 11.0002 164.2 14.5002 144.7C18.0002 125.2 25.3002 79.9001 25.3002 79.9001Z" fill="#FFE6BD"/>
<path d="M108.6 242C108.6 242 102.5 242 100.7 242H56.6C51.5 228.7 67 223.7 74.9 223.7C81 223.7 95 223.7 95 223.7C95 223.7 102.5 224 105.7 229.2C109.5 235.3 108.8 241.7 108.6 242Z" fill="#513F3B"/>
<path d="M36.0001 176.9C32.3001 179.5 28.9001 181 26.5001 181.9C23.9001 182.8 21.0002 182.2 19.1002 180.1C16.5002 177.3 14.9001 173.5 14.9001 173.5C14.9001 173.5 12.3002 167.4 13.1002 154.9C13.1002 154.9 13.4002 146.7 24.8002 144.2C33.3002 142.3 37.9001 146.4 37.9001 146.4C37.7001 148 37.4002 149.6 37.1002 151.4C36.1002 157.4 37.3001 167.8 37.9001 172.6C38.1001 174.2 37.4001 175.9 36.0001 176.9Z" fill="#513F3B"/>
<path d="M25.3 79.9001C25.3 79.9001 26.9 80.9002 27.4 81.0002" stroke="#1B1C1E" stroke-miterlimit="10"/>
<path d="M14.8999 173.6C14.8999 173.6 16.4999 177.4 19.0999 180.2C20.9999 182.2 23.8999 182.9 26.4999 181.9C28.8999 181 32.2999 179.5 35.9999 176.9C37.3999 175.9 38.0999 174.3 37.7999 172.6C37.1999 167.8 36.0999 157.4 36.9999 151.4C38.2999 143.4 39.0999 136.9 39.0999 136.9" stroke="#1B1C1E" stroke-miterlimit="10"/>
<path d="M27 181.6C27 181.6 23 178.5 22.5 172.9" stroke="#1B1C1E" stroke-miterlimit="10"/>
<path d="M33.3 178.6C33.3 178.6 30.3 175.8 30 170.9" stroke="#1B1C1E" stroke-miterlimit="10"/>
<path d="M83.0001 152C76.0001 156.3 72.4001 158.8 72.8001 163.6C73.3001 169.2 69.0001 169.7 67.1001 170.2C64.3001 170.9 59.0001 171.4 54.9001 170.9C53.1001 170.7 49.6001 167.4 49.6001 160C49.6001 153.2 55.1001 141.6 65.7001 135.7C65.7001 135.7 74.4001 134 80.2001 140.7C84.0001 145.2 83.0001 152 83.0001 152Z" fill="#513F3B"/>
<path d="M97.5 132.9C97.5 132.9 96.2 143.7 86.7 149.7C77.2 155.7 72.2 158.1 72.7 163.7C73.2 169.3 68.9 169.8 67 170.3C64.2 171 58.9 171.5 54.8 171C53 170.8 49.5 167.5 49.5 160.1C49.5 153.3 55 141.7 65.6 135.8" stroke="#1B1C1E" stroke-miterlimit="10"/>
<path d="M61 171C61 171 56.1 169.9 56.4 162.4" stroke="#1B1C1E" stroke-miterlimit="10"/>
<path d="M67.1 170.2C67.1 170.2 63.9 168 64.3 162.4" stroke="#1B1C1E" stroke-miterlimit="10"/>
<path d="M107.5 167.9C107.5 167.9 98.5 156.8 84.4 164.8C71.4 172.2 68.2 206.3 79.3 223.6" stroke="#1B1C1E" stroke-miterlimit="10"/>
<path d="M56.7001 242C51.6001 228.7 67.1001 223.7 75.0001 223.7C81.1001 223.7 95.1001 223.7 95.1001 223.7" stroke="#1B1C1E" stroke-miterlimit="10"/>
<path d="M63.8001 242C63.8001 242 61.3001 238.1 63.8001 235.5" stroke="#1B1C1E" stroke-miterlimit="10"/>
<path d="M69.4999 242C69.4999 242 68.9 237.6 70.6 236.1" stroke="#1B1C1E" stroke-miterlimit="10"/>
<path d="M51 76.9002C51 76.9002 33.2 73.0002 25.3 62.1002C17.4 51.2002 21.9 35.6002 23.8 33.0002C25.7 30.5002 27.7 21.4002 53.6 22.6002C73.9 23.6002 81.3 34.5002 82.5 41.8002C83.6 48.4002 81.9 60.7002 74.4 66.7002C63.8 75.2002 51 76.9002 51 76.9002Z" fill="#513F3B"/>
<path d="M41.8001 42.1C42.1001 41.6 42.1001 41.1 41.8001 40.6C40.8001 39.1 38.4001 35.6 35.2001 35.8C31.4001 36 28.6001 40.1 28.6001 41.4C28.6001 43.1 31.2001 46.9 35.1001 47.3C38.1001 47.5 40.8001 43.7 41.8001 42.1Z" fill="#9BBEDC"/>
<path d="M35.1002 45.6C36.8675 45.6 38.3002 43.6748 38.3002 41.3C38.3002 38.9252 36.8675 37 35.1002 37C33.3328 37 31.9001 38.9252 31.9001 41.3C31.9001 43.6748 33.3328 45.6 35.1002 45.6Z" fill="#1B1C1E"/>
<path d="M48.2999 46.3C48.2999 46.3 42.9999 45.9 39.9999 49C36.9999 52.1 37.4999 57.2 40.4999 59.1C43.1999 60.9 44.5999 56.6 48.2999 56.4C51.9999 56.2 51.5999 53.5 51.7999 50.8C51.8999 48.2 48.2999 46.3 48.2999 46.3Z" stroke="#1B1C1E" stroke-miterlimit="10"/>
<path d="M51.4999 54.3003C51.4999 54.3003 51.2999 56.1003 53.2999 57.0003C55.2999 58.0003 56.9999 57.7003 59.0999 60.1003C61.1999 62.4003 65.2999 59.7003 65.2999 55.3003C65.2999 50.3003 61.9999 46.8003 55.9999 46.6003C49.9999 46.4003 51.9999 48.6003 51.9999 48.6003L51.4999 54.3003Z" stroke="#1B1C1E" stroke-miterlimit="10"/>
<path d="M43.7 58.8C43.7 58.8 46.1999 62.3 50.3999 62.7C54.2999 63.1 57.7999 60.7 58.3999 59.5" stroke="#1B1C1E" stroke-miterlimit="10"/>
<path d="M51.7999 50.9002C51.7999 50.9002 47.4999 48.2002 46.8999 45.9002C46.2999 43.7002 47.4999 42.3002 52.4999 42.5002C56.5999 42.7002 58.3999 44.3002 56.7999 46.9002C55.1999 49.2002 51.7999 50.9002 51.7999 50.9002Z" fill="#1B1C1E" stroke="#1B1C1E" stroke-miterlimit="10"/>
<mask id="mask0_70_3564" style="mask-type:luminance" maskUnits="userSpaceOnUse" x="64" y="77" width="22" height="11">
<path d="M85.3999 85.4C48.0999 91.9 72.0999 82.6001 72.0999 82.6001C78.2999 81.0001 82.0999 77.8 82.0999 77.8C82.0999 77.8 83.4999 81 85.3999 85.4Z" fill="white"/>
</mask>
<g mask="url(#mask0_70_3564)">
<g opacity="0.88">
<path d="M80.3999 79.6001L80.2 79.1001C80.3 79.3001 80.2999 79.5001 80.3999 79.6001Z" fill="#443730"/>
<path d="M77.7 80.4C77.6 80.4 77.5 80.3 77.5 80.3C77.5 80 77.6 80.1 77.7 80.4Z" fill="#443730"/>
<path d="M89.9999 72.4001C90.9999 73.6001 90.1999 72.3001 91.1999 73.4001C90.8999 73.3001 90.5999 73.1002 91.0999 73.8002C91.7999 74.4002 91.2999 73.5002 92.1999 74.5002L91.6999 74.3002C91.9999 74.9002 92.8999 75.5002 92.6999 75.5002C91.3999 74.3002 92.6999 76.5001 92.2999 76.4001L92.4999 76.5002L92.7999 77.4001C92.7999 77.4001 92.7999 77.4002 92.8999 77.5002C92.7999 77.4002 92.7999 77.4002 92.6999 77.3002C93.1999 78.1002 93.3999 78.7001 92.9999 78.7001C92.2999 78.0001 92.0999 79.0001 91.3999 78.4001C91.5999 78.5001 91.6999 78.5001 91.6999 78.2001L90.8999 77.3002C90.6999 77.5002 91.5999 78.2002 90.8999 77.8002C89.8999 76.5002 91.1999 77.6002 91.1999 77.3002C90.8999 77.0002 90.5999 76.8002 90.3999 76.8002C90.6999 76.5002 90.4999 75.9002 91.7999 77.0002C91.5999 76.7002 91.1999 76.2002 90.9999 76.1002C91.7999 76.7002 90.4999 75.3002 91.2999 75.8002C90.2999 74.7002 90.3999 75.5002 89.6999 75.0002C90.1999 76.1002 89.1999 75.5002 88.7999 75.5002C89.4999 76.4002 90.2999 77.0002 90.5999 77.6002C90.7999 78.4002 89.8999 77.3001 89.3999 76.9001C89.3999 77.4001 90.4999 78.4001 90.1999 78.7001L90.7999 79.1002C91.4999 80.5002 90.1999 78.7002 90.2999 79.1002C90.0999 78.7002 89.8999 78.4002 90.0999 78.3002C89.7999 77.8002 89.4999 77.7001 89.3999 77.7001V77.6002C88.8999 77.0002 88.3999 76.4002 88.3999 76.8002C89.0999 77.5002 88.6999 77.5001 88.8999 77.9001L89.0999 78.0002C88.7999 77.9002 88.6999 78.1002 88.4999 78.0002L88.5999 78.2001C88.2999 78.0001 87.5999 77.0002 87.4999 77.3002C87.7999 77.7002 88.6999 78.6002 88.3999 78.6002C88.7999 79.2002 89.0999 79.1002 89.0999 78.8002C89.0999 79.1002 89.5999 80.1002 89.8999 80.1002C90.2999 80.9002 89.4999 79.9002 89.5999 80.3002C89.4999 80.1002 89.2999 79.8002 89.0999 79.6002C89.7999 80.6002 88.6999 80.0001 88.2999 79.2001L88.8999 79.6002C88.3999 78.8002 87.7999 78.4001 87.5999 77.9001C88.2999 79.3001 86.6999 77.6002 87.1999 78.8002L86.8999 78.1002C86.6999 78.8002 85.4999 77.5001 84.8999 77.4001C85.2999 77.7001 86.0999 79.2002 86.0999 78.5002C85.8999 79.0002 86.7999 80.0002 87.0999 80.8002C87.0999 81.6002 86.1999 79.5002 85.7999 79.1002C85.8999 79.2002 86.0999 79.2001 86.1999 79.2001C84.9999 77.7001 85.4999 80.0001 84.4999 79.2001C84.6999 79.7001 84.6999 79.4002 84.8999 79.6002C85.1999 80.6002 84.5999 79.5001 84.2999 79.2001C84.1999 79.4001 84.0999 80.0002 84.7999 81.0002C84.6999 81.4002 84.4999 80.3002 84.1999 80.0002L84.2999 80.3002L83.4999 79.2001C83.4999 79.7001 83.4999 80.4002 83.8999 81.5002C83.2999 81.5002 82.5999 79.0002 82.0999 78.8002C82.1999 79.5002 82.4999 79.7002 82.6999 80.1002H82.2999C82.8999 81.3002 82.8999 80.6002 83.4999 82.1002C82.5999 80.7002 82.8999 81.8002 82.1999 81.0002V80.9001C81.5999 79.9001 81.5999 80.8001 81.2999 80.7001C81.5999 81.3001 81.8999 81.3001 82.0999 81.4001C82.0999 82.0001 81.2999 81.7002 80.5999 80.5002C80.4999 80.8002 80.3999 81.4001 80.7999 81.9001C80.3999 82.3001 79.9999 80.0002 79.6999 80.6002L79.9999 81.6002C79.9999 83.2002 78.6999 80.5002 78.6999 82.0002L78.2999 80.7001C78.3999 81.3001 78.1999 81.6002 78.2999 82.1002L78.5999 82.5002C78.6999 83.6002 78.0999 81.5002 78.0999 82.3002C77.9999 81.9002 77.9999 81.0002 77.8999 80.6002C78.3999 80.9002 78.7999 80.5001 79.1999 80.2001C79.5999 79.9001 79.8999 79.6002 80.5999 80.0002C80.5999 80.2002 80.5999 80.3002 80.6999 80.6002C80.6999 80.3002 80.9999 80.5001 80.6999 79.9001L80.5999 79.8002C80.8999 80.0002 80.5999 78.4001 80.6999 78.4001C81.0999 79.2001 80.9999 77.9002 81.4999 79.3002L81.2999 78.3002C81.5999 78.8002 81.7999 79.5001 81.9999 79.7001C82.0999 79.5001 81.8999 79.0001 81.5999 78.7001C81.9999 78.0001 82.5999 77.7001 83.3999 77.9001L82.8999 77.3002C82.8999 76.9002 83.9999 78.2002 82.9999 76.6002C83.5999 77.1002 83.4999 75.8002 84.3999 77.5002C83.6999 75.8002 84.5999 76.4001 85.1999 76.4001C85.9999 77.8001 85.6999 76.6001 86.1999 77.2001C85.5999 76.1001 85.1999 76.3002 84.7999 75.6002C86.1999 77.0002 84.9999 73.8001 86.9999 76.4001C86.9999 76.3001 86.8999 76.2002 86.7999 76.1002C86.8999 76.0002 86.6999 75.5001 86.5999 75.4001C86.9999 75.8001 86.9999 76.2001 87.1999 76.2001C87.2999 76.0001 86.6999 75.3001 86.4999 74.9001C87.1999 75.3001 87.6999 75.3002 88.5999 76.3002C88.4999 76.0002 88.0999 75.3001 87.8999 75.2001C88.8999 75.7001 88.1999 74.8002 88.9999 75.0002C88.7999 75.1002 88.0999 74.0002 88.1999 74.5002C87.1999 72.9002 88.9999 74.3002 88.6999 73.3002L89.5999 74.1002C89.8999 74.1002 89.1999 73.2002 88.7999 73.0002C88.5999 72.2002 89.2999 72.6001 89.4999 72.4001C89.3999 72.3001 89.1999 72.1001 89.2999 72.2001L89.5999 71.9001C89.7999 72.1001 90.3999 72.4002 90.7999 73.0002C90.1999 72.2002 89.8999 71.9001 89.9999 72.4001Z" fill="#443730"/>
<path d="M68.6999 87.1001C68.6999 86.8001 68.3999 86.4001 68.4999 86.1001L68.7999 86.5001L68.6999 87.1001Z" fill="#443730"/>
<path d="M69.2998 85.9001L69.5998 85.4001L69.7998 87.0002C69.4998 87.0002 69.6998 85.9001 69.2998 85.9001Z" fill="#443730"/>
<path d="M70.1999 85.0001L70.0999 84.6001C70.1999 84.8001 70.1999 84.9001 70.1999 85.0001Z" fill="#443730"/>
<path d="M70.1999 85.6L70.2999 86.7L69.8999 85.9L70.0999 85.7C70.0999 85.3 70.1999 85.1 70.1999 85L70.3999 85.8C70.2999 85.7 70.1999 85.5 70.1999 85.6Z" fill="#443730"/>
<path d="M70.5999 85.7002C70.5999 85.8002 70.5999 85.9002 70.5999 86.0002C70.4999 85.9002 70.4999 85.8002 70.5999 85.7002Z" fill="#443730"/>
<path d="M71.1999 83.6001C71.0999 84.0001 71.2998 84.6001 71.3998 85.1001C71.0998 85.5001 70.9998 83.9001 70.7998 84.4001C71.1998 85.3001 70.6999 85.1001 70.5999 85.7001C70.6999 84.6001 70.7999 83.9001 71.0999 83.6001L71.1999 84.3001C71.1999 84.3001 71.0999 83.9001 71.1999 83.6001Z" fill="#443730"/>
<path d="M72.8999 85.2001L72.5999 84.2001C72.5999 84.7001 72.1999 84.7001 72.2999 85.8001C72.1999 85.7001 72.0999 85.2001 71.9999 84.9001C71.8999 85.5001 71.9 85.9001 71.7 85.1001C72.2 84.3001 71.9999 84.1001 72.4999 83.8001C72.4999 83.6001 72.3999 83.6001 72.3999 83.7001L72.7 83.1001C72.7 84.3001 73.1999 84.4001 72.8999 85.2001Z" fill="#443730"/>
<path d="M73.3 84.4002C73 84.4002 72.8 83.4002 72.9 82.7002L73.5 83.5002C73.3 83.4002 73.1 83.3002 73.3 84.4002Z" fill="#443730"/>
<path d="M73.7 84.3001C73.7 83.7001 73.7999 82.5001 74.0999 83.6001C73.6999 83.4001 74.1 85.0001 73.7 84.3001Z" fill="#443730"/>
<path d="M75.3999 83.0001L74.9999 83.8001C75.0999 85.2001 75.2999 84.2001 75.5999 84.8001C75.1999 85.1001 75.2999 84.7001 74.7999 83.9001C74.6999 84.0001 74.4 83.3001 74.2 82.9001C75 83.9001 74.4999 80.6001 75.3999 83.0001Z" fill="#443730"/>
<path d="M74.5999 84.6L74.3999 84L74.6999 84.4L74.5999 84.6Z" fill="#443730"/>
<path d="M76.1999 81.4002C76.0999 79.7002 76.8999 82.2002 77.0999 81.4002C76.9999 81.3002 76.9999 81.2002 76.8999 81.0002L77.1999 81.1002L77.0999 80.7002C77.2999 81.7002 77.6999 82.0002 77.9999 82.7002C77.9999 83.8002 77.5999 81.5002 77.5999 82.7002C77.7999 83.1002 77.9999 83.8002 78.0999 84.1002C77.7999 83.7002 77.5999 83.1002 77.3999 82.6002C77.1999 82.5002 77.3999 83.1002 77.3999 83.4002C77.0999 82.9002 76.6999 81.5002 76.4999 81.9002C76.4999 82.8002 76.8999 83.2002 76.4999 82.9002C76.3999 81.3002 76.1999 83.2002 75.8999 82.3002C75.6999 82.6002 75.6999 83.6002 75.7999 84.2002C75.5999 83.0002 75.1999 82.0002 74.8999 81.7002L75.4999 82.6002L75.3999 81.2002C75.8999 81.8002 76.0999 81.7002 76.1999 81.4002Z" fill="#443730"/>
<path d="M78.0999 84.1001C78.1999 84.2001 78.1998 84.3001 78.2998 84.3001C78.2998 84.4001 78.1999 84.3001 78.0999 84.1001Z" fill="#443730"/>
<path d="M75.8999 84.6001L76.0999 84.9001V85.3001L75.8999 84.6001Z" fill="#443730"/>
<path d="M78.5999 85C78.4999 85.1 78.3999 84.6 78.4999 84.5L78.7999 85.1L78.5999 85Z" fill="#443730"/>
<path d="M78.6999 84.1002L78.5999 83.2002L78.8998 83.9002L78.6999 84.1002Z" fill="#443730"/>
<path d="M84.2998 81.2002C84.2998 81.7002 83.8999 80.8002 83.5999 80.2002C83.7999 79.9002 83.9998 81.0002 84.2998 81.2002Z" fill="#443730"/>
</g>
</g>
<mask id="mask1_70_3564" style="mask-type:luminance" maskUnits="userSpaceOnUse" x="73" y="132" width="41" height="38">
<path d="M113.4 158.6L104 165C100.2 162.4 93.3001 159.8 84.3001 164.9C82.5001 165.9 81.0001 167.4 79.6001 169.2L73.1001 160.6C74.4001 156.9 79.1001 154.4 86.7001 149.6C96.2001 143.7 97.5001 132.8 97.5001 132.8C97.5001 132.8 106.2 145.7 113.4 158.6Z" fill="white"/>
</mask>
<g mask="url(#mask1_70_3564)">
<g opacity="0.88">
<path d="M91.2 146.7C91.3 146.7 91.2999 146.7 91.3999 146.8C91.3999 146.8 91.3 146.8 91.2 146.7Z" fill="#443730"/>
<path d="M85.3999 151.2L85.2 151C85.4 151.1 85.3999 151.2 85.3999 151.2Z" fill="#443730"/>
<path d="M95.3 140.9C95.3 140.9 95.3001 140.8 95.4001 140.8L95.3 140.9C95.5 140.8 95.4 140.9 95.3 140.9Z" fill="#443730"/>
<path d="M99.3999 139L99.5999 139.1C99.4999 139.1 99.3999 139.1 99.3999 139Z" fill="#443730"/>
<path d="M94.5 141.1C94.6 141.1 94.6 141.1 94.7 141.1C94.6 141.1 94.5 141.2 94.5 141.1Z" fill="#443730"/>
<path d="M82.7 152.2C82.6 152.2 82.6 152.2 82.5 152.2C82.6 152.1 82.7 152.2 82.7 152.2Z" fill="#443730"/>
<path d="M94.2001 143C94.7001 143.4 94.4001 142.8 94.9001 143.2C94.7001 143.2 94.6001 143.3 94.8001 143.5C95.2001 143.6 94.9001 143.2 95.4001 143.5L95.1001 143.6C95.3001 143.9 95.7001 144 95.6001 144C94.9001 143.7 95.5001 144.7 95.3001 144.8H95.4001L95.5001 145.3C95.5001 145.3 95.4001 145.3 95.4001 145.2C95.6001 145.5 95.7001 145.9 95.5001 146.1C95.1001 145.9 94.8001 146.7 94.5001 146.5C94.7001 146.5 94.7001 146.4 94.7001 146.2L94.3001 145.9C94.1001 146.1 94.7001 146.2 94.3001 146.2C93.8001 145.7 94.5001 145.9 94.6001 145.7C94.4001 145.6 94.3001 145.6 94.1001 145.7C94.3001 145.4 94.3001 145 95.0001 145.3C94.9001 145.1 94.7001 145 94.6001 145C95.1001 145.1 94.4001 144.6 94.8001 144.7C94.2001 144.4 94.2001 144.9 93.8001 144.8C94.0001 145.4 93.4001 145.4 93.1001 145.6C93.5001 145.9 93.9001 146 94.1001 146.3C94.1001 146.8 93.7001 146.4 93.3001 146.4C93.3001 146.7 93.9001 147 93.7001 147.3H94.1001C94.5001 148 93.7001 147.3 93.7001 147.5C93.6001 147.3 93.5001 147.2 93.6001 147.1C93.4001 146.9 93.2001 147 93.2001 147V146.9C92.9001 146.7 92.6001 146.5 92.6001 146.8C93.0001 147 92.7001 147.2 92.8001 147.3H92.9001C92.7001 147.3 92.6001 147.5 92.4001 147.5L92.5001 147.6C92.3001 147.6 91.9001 147.2 91.8001 147.5C92.0001 147.6 92.5001 147.9 92.3001 148C92.5001 148.2 92.7001 148.1 92.8001 147.8C92.7001 148 93.0001 148.5 93.2001 148.3C93.4001 148.6 92.9001 148.3 92.9001 148.6C92.8001 148.5 92.7001 148.4 92.6001 148.3C93.0001 148.7 92.3001 148.7 92.0001 148.4H92.4001C92.1001 148.1 91.7001 148.1 91.6001 147.8C92.0001 148.4 90.9001 148 91.2001 148.5L91.0001 148.2C90.8001 148.7 90.0001 148.3 89.5001 148.5C89.8001 148.6 90.2001 149.1 90.3001 148.8C90.0001 149.2 90.6001 149.5 90.7001 149.8C90.6001 150.2 90.1001 149.4 89.9001 149.3H90.2001C89.4001 148.8 89.5001 150 88.8001 149.9C88.9001 150.1 89.0001 149.9 89.1001 150C89.2001 150.5 88.9001 150.1 88.7001 150C88.6001 150.2 88.4001 150.5 88.8001 150.9C88.7001 151.2 88.6001 150.6 88.4001 150.5V150.6C88.2001 150.5 88.0001 150.4 87.9001 150.2C87.8001 150.5 87.7001 150.8 87.9001 151.3C87.4001 151.5 87.1001 150.3 86.7001 150.3C86.7001 150.6 86.9001 150.6 87.1001 150.8L86.8001 150.9C87.2001 151.4 87.3001 151 87.6001 151.6C87.0001 151.1 87.2001 151.6 86.6001 151.4V151.3C86.2001 151 86.0001 151.4 85.8001 151.5C86.0001 151.7 86.2001 151.6 86.4001 151.6C86.3001 151.9 85.6001 152 85.2001 151.6C85.1001 151.8 84.9001 152.1 85.2001 152.2C84.8001 152.5 84.6001 151.5 84.3001 151.8L84.5001 152.2C84.3001 153 83.4001 152 83.2001 152.7L83.0001 152.2C83.0001 152.5 82.9001 152.6 82.9001 152.9L83.2001 153C83.2001 153.5 82.8001 152.6 82.7001 153.1C82.6001 152.9 82.7001 152.5 82.6001 152.3C83.6001 152.3 84.2001 151.2 85.2001 151.3C85.2001 151.4 85.2001 151.5 85.3001 151.6C85.3001 151.4 85.6001 151.5 85.4001 151.2C85.7001 151.2 85.6001 150.5 85.7001 150.4C86.0001 150.7 86.1001 150 86.3001 150.7L86.2001 150.3C86.4001 150.5 86.5001 150.8 86.6001 150.9C86.7001 150.8 86.6001 150.5 86.4001 150.5C86.8001 150 87.5001 149.7 88.2001 149.5L87.9001 149.3C87.9001 149.1 88.7001 149.4 88.1001 148.8C88.5001 148.9 88.7001 148.1 89.2001 148.8C88.9001 148 89.6001 148.1 90.0001 147.9C90.4001 148.5 90.4001 147.8 90.7001 148C90.4001 147.5 90.1001 147.8 89.8001 147.5C90.7001 147.8 90.3001 146.2 91.4001 147.1C91.4001 147 91.4001 147 91.3001 147C91.4001 146.9 91.3001 146.7 91.3001 146.6C91.5001 146.7 91.5001 147 91.7001 146.9C91.8001 146.7 91.4001 146.5 91.4001 146.4C91.9001 146.4 92.3001 146.1 92.8001 146.5C92.7001 146.3 92.6001 146 92.4001 146C93.1001 145.9 92.6001 145.6 93.2001 145.4C93.1001 145.5 92.7001 145.1 92.7001 145.4C92.2001 144.7 93.3001 144.9 93.2001 144.3L93.7001 144.5C93.9001 144.4 93.5001 144 93.3001 144.1C93.3001 143.6 93.6001 143.6 93.8001 143.3C93.8001 143.2 93.7001 143.2 93.7001 143.3L93.9001 142.9C94.0001 142.9 94.3001 142.9 94.6001 143.1C94.4001 142.7 94.2001 142.7 94.2001 143Z" fill="#443730"/>
<path d="M93.7001 147.7C93.6001 147.6 93.6001 147.5 93.6001 147.5C93.7001 147.5 93.7001 147.6 93.7001 147.7Z" fill="#443730"/>
<path d="M97.4999 139.2C98.1999 139.6 97.2999 139.4 97.3999 139.7C97.5999 139.6 97.9999 139.8 98.1999 139.9C97.1999 139.7 98.2999 140.3 97.8999 140.6C98.1999 140.7 98.2999 140.6 98.6999 140.7C98.3999 140.8 98.0999 141.2 97.4999 141C97.2999 141.4 97.2999 141.8 97.0999 142C97.4999 141.8 97.5999 142.2 98.1999 142.2C97.4999 142.2 96.3999 142.5 95.4999 142.5C95.9999 142.9 95.9999 142.9 96.5999 143.2C96.6999 143.9 95.9999 143 95.8999 143.5V143.2C95.5999 143.3 95.0999 143 94.6999 142.8L95.0999 142.4C94.6999 142.2 94.5999 142.5 94.3999 142.5C93.8999 142.4 94.2999 142.1 93.8999 141.9C94.1999 142 94.2999 141.8 94.4999 141.7L94.2999 141.6C94.1999 141.3 94.7999 141.4 94.8999 141.2L94.7999 141.1C95.0999 141.2 95.3999 141.2 95.4999 141.2L95.3999 141.3C95.9999 141.4 96.4999 141.1 96.8999 141.7L96.9999 141.1C96.3999 140.9 95.5999 140.6 95.2999 140.8L95.0999 140.7C94.8999 140.3 95.7999 140.3 96.1999 140.7C97.5999 141.1 96.5999 139.9 97.2999 139.8C96.9999 139.6 96.6999 139.8 96.3999 139.8C96.2999 139.9 96.2999 140 96.5999 140.1C96.1999 140.5 95.4999 139.5 95.3999 140.1C95.3999 140.4 96.0999 140.1 95.9999 140.5L94.8999 140.3C94.9999 140.1 95.2999 140 95.4999 139.8C96.0999 139.4 96.2999 138.9 96.3999 138.6C96.4999 138.3 96.3999 138 96.3999 138C97.0999 136.4 97.5999 134.7 97.9999 133C98.1999 132.5 98.1999 132.3 99.2999 132.2C99.4999 132.3 99.3999 132.7 99.7999 132.6C99.3999 132.6 99.1999 132.8 99.1999 133.1C99.5999 133.2 99.3999 132.9 99.4999 132.9V133C99.6999 133 99.7999 133 99.8999 132.9C100.4 133.3 100.2 134 99.3999 134.1C99.6999 134.4 99.9999 134 100.4 133.9C100.5 134.9 100.3 135.6 100.1 136.6C99.3999 136.4 99.5999 136.6 99.1999 136.6L99.3999 136.8C99.2999 136.7 98.7999 136.7 98.6999 136.5C99.0999 137.2 97.5999 136.9 97.1999 137.1L97.5999 137.2C97.3999 137.5 97.3999 137.6 97.0999 137.7C97.5999 138.4 97.2999 137.3 98.0999 137.7L97.8999 137.8C98.1999 137.8 98.7999 137.9 99.0999 137.8C98.3999 138.1 99.0999 138.6 98.4999 138.9C98.8999 139 99.2999 138.6 99.3999 138.5C99.3999 138.7 98.9999 138.9 99.2999 139.1L98.7999 139C98.5999 139.3 99.2999 139.1 99.4999 139.3C99.2999 139.9 98.0999 138.8 97.4999 139.2Z" fill="#443730"/>
<path d="M93.8999 145.9C93.8999 145.8 93.9999 145.8 94.0999 145.7C93.9999 145.8 93.9999 145.8 93.8999 145.9Z" fill="#443730"/>
<path d="M95.6001 145.3C95.7001 145.3 95.7001 145.4 95.8001 145.4C95.7001 145.3 95.7001 145.3 95.6001 145.3Z" fill="#443730"/>
<path d="M96.3 145.5C96.1 145.3 96.1 145.4 95.8 145.3C96 145.4 96.1 145.1 96.3 145.5Z" fill="#443730"/>
<path d="M74 156.6C73.9 156.5 73.7 156.3 73.8 156.2L74.1 156.3L74 156.6Z" fill="#443730"/>
<path d="M74.6001 156L74.9001 155.8L75.2001 156.5C74.8001 156.4 74.9001 155.9 74.6001 156Z" fill="#443730"/>
<path d="M75.4001 155.5L75.3 155.3C75.3 155.4 75.4001 155.4 75.4001 155.5Z" fill="#443730"/>
<path d="M75.3999 155.8L75.5999 156.3L75.2 156L75.2999 155.9C75.2999 155.7 75.3999 155.6 75.3999 155.6L75.5999 155.9C75.4999 155.8 75.3999 155.7 75.3999 155.8Z" fill="#443730"/>
<path d="M76.2999 154.7C76.2999 154.9 76.3999 155.1 76.4999 155.3C76.1999 155.5 76.0999 154.8 75.8999 155.1C76.2999 155.4 75.8 155.4 75.7 155.7C75.7 155.2 75.7999 154.9 76.0999 154.7L76.2 155C76.3 155.1 76.1999 154.9 76.2999 154.7Z" fill="#443730"/>
<path d="M77.8999 155.3L77.5999 154.9C77.5999 155.1 77.1999 155.2 77.2999 155.6C77.1999 155.6 77.0999 155.3 76.9999 155.2C76.8999 155.5 76.9 155.6 76.7 155.3C77.2 154.9 76.9999 154.8 77.4999 154.6C77.4999 154.5 77.3999 154.5 77.3999 154.6L77.7 154.3C77.8 154.9 78.1999 154.9 77.8999 155.3Z" fill="#443730"/>
<path d="M78.3 154.9C78.1 154.9 77.8 154.5 77.9 154.2C78.1 154.3 78.3 154.4 78.5 154.5C78.4 154.5 78.2 154.5 78.3 154.9Z" fill="#443730"/>
<path d="M78.7 154.8C78.7 154.5 78.7999 154 79.0999 154.4C78.7999 154.4 79 155.1 78.7 154.8Z" fill="#443730"/>
<path d="M80.2999 153.9L79.8999 154.3C79.9999 154.9 80.1999 154.4 80.3999 154.7C79.9999 154.9 80.1 154.7 79.7 154.4C79.6 154.5 79.3 154.2 79.2 154.1C79.9 154.4 79.5999 153 80.2999 153.9Z" fill="#443730"/>
<path d="M79.4999 154.8L79.3999 154.5L79.6999 154.7L79.4999 154.8Z" fill="#443730"/>
<path d="M81.3 153C81.4 152.2 82.0001 153.3 82.2001 152.9C82.2001 152.9 82.2001 152.8 82.1001 152.7H82.4001V152.5C82.5001 152.9 82.8001 153 83.1001 153.2C83.0001 153.7 82.8001 152.7 82.7001 153.3C82.8001 153.5 83.0001 153.7 83.1001 153.9C82.9001 153.8 82.7001 153.5 82.6001 153.3C82.4001 153.3 82.5001 153.5 82.6001 153.7C82.3001 153.5 82.1001 152.9 81.9001 153.1C81.8001 153.5 82.2 153.6 81.8 153.6C81.8 152.9 81.5001 153.8 81.2001 153.4C81.0001 153.6 80.9001 154 81.0001 154.3C80.9001 153.8 80.5 153.4 80.3 153.3L80.8 153.6V153C80.9 153.3 81.1 153.2 81.3 153Z" fill="#443730"/>
<path d="M80.8 154.6L80.9001 154.7V154.8L80.8 154.6Z" fill="#443730"/>
<path d="M83.2001 154.3C83.1001 154.3 83.1001 154.2 83.1001 154.1L83.2001 154.3Z" fill="#443730"/>
<path d="M83.3 153.8L83.4001 153.4L83.5001 153.7L83.3 153.8Z" fill="#443730"/>
<path d="M88.7 150.9C88.7 151.2 88.4 150.8 88.2 150.6C88.4 150.3 88.4 150.9 88.7 150.9Z" fill="#443730"/>
<path d="M92.1 149C92.1 149.4 91.7 149.2 91.5 149.3C91.5 149 91.8 149 92.1 149Z" fill="#443730"/>
<path d="M94.2999 148.9C94.1999 148.8 94.0999 148.8 94.0999 148.7L93.3999 148.3C93.4999 147.9 94.0999 148.6 94.2999 148.9Z" fill="#443730"/>
<path d="M95.7 147.5L95.2999 147.6L95.3999 147.5C95.0999 147.4 95 147.3 94.7 147.2C95 147.1 95.3 147.1 95.7 147.5Z" fill="#443730"/>
<path d="M94.3999 147.2C94.3999 147.2 94.4999 147.2 94.4999 147.1C94.5999 147.3 94.5999 147.4 94.3999 147.2Z" fill="#443730"/>
<path d="M95.6001 147L96.0001 146.6V146.9C95.6001 146.7 96.0001 147.3 95.6001 147Z" fill="#443730"/>
<path d="M97.0001 144.5L96.6001 144.2C96.7001 143.9 97.8001 144 97.3001 143.5C97.5001 143.8 97.9001 143.5 97.8001 143.9C97.3001 143.8 97.0001 144.2 97.0001 144.5Z" fill="#443730"/>
<path d="M97.1001 143.1C97.0001 143.1 96.9 143 96.8 142.9C96.8 142.8 97.1001 142.8 97.2001 142.9C96.6001 142.6 97.4001 143.2 97.1001 143.1Z" fill="#443730"/>
<path d="M97.8001 141.7C97.7001 141.8 97.6001 141.9 97.6001 141.7C97.8001 141.5 98.2001 141.8 98.5001 141.8C98.7001 142.1 98.0001 142 97.8001 141.7Z" fill="#443730"/>
<path d="M95.6001 138.4C96.0001 138.6 95.8001 138.7 95.7001 138.7C95.8001 138.7 95.7001 138.5 95.6001 138.4Z" fill="#443730"/>
<path d="M98.7 139.5V139.6L98.2 139.5H98.7Z" fill="#443730"/>
<path d="M99.6001 138L100 137.9L99.9001 138.2L99.6001 138Z" fill="#443730"/>
<path d="M99.6001 137.6L99.7001 137.3L99.8001 137.4C99.9001 137.7 99.6001 137.5 99.6001 137.6Z" fill="#443730"/>
<path d="M99.8999 136.8C99.8999 136.8 99.8999 136.9 99.9999 136.9L99.7 137.1L99.8999 136.8Z" fill="#443730"/>
</g>
</g>
<path d="M62.5 42.5002C62.3 42.0002 62.3 41.4002 62.7 41.0002C63.8 39.6002 66.6 36.4002 69.8 36.9002C73.5 37.5002 75.9 41.9002 75.8 43.1002C75.6 44.8002 72.7 48.3002 68.7 48.2002C65.5 48.3002 63.3 44.2002 62.5 42.5002Z" fill="#9BBEDC"/>
<path d="M72.329 42.7599C72.5831 40.3986 71.3646 38.3311 69.6073 38.142C67.8501 37.9529 66.2196 39.7138 65.9655 42.0751C65.7114 44.4364 66.9299 46.5039 68.6871 46.693C70.4444 46.8821 72.0749 45.1212 72.329 42.7599Z" fill="#1B1C1E"/>
</svg>
