<svg width="219" height="212" viewBox="0 0 219 212" fill="none" xmlns="http://www.w3.org/2000/svg">
<path d="M18.0999 207.2C18.0999 207.2 9.29993 209.8 33.2999 210.6C57.2999 211.4 183.9 211.8 196.9 210.6C209.9 209.4 235.3 210.1 201.6 207.2C167.9 204.3 133.3 206 99.3999 204.3C65.5999 202.6 23.1999 204.2 18.0999 207.2Z" fill="#1B1C1E"/>
<path d="M158.8 192.4C158.8 192.4 166.8 203.7 185.4 201.4C205.5 198.9 220.4 175.1 216 151C211.6 126.9 186.3 120.6 172 129C157.7 137.4 156.9 151 161.7 161.8C161.6 161.7 157.2 188.3 158.8 192.4Z" fill="#FBAF5E"/>
<path d="M161.6 161.7C161.6 161.7 167.5 172.2 181 169.9C194.4 167.6 193.1 150.9 186.5 148.1" stroke="#1B1C1E" stroke-width="1.2604" stroke-miterlimit="10" stroke-linecap="round" stroke-linejoin="round"/>
<mask id="mask0_70_4685" style="mask-type:luminance" maskUnits="userSpaceOnUse" x="158" y="125" width="59" height="77">
<path d="M158.8 192.4C158.8 192.4 166.8 203.7 185.4 201.4C205.5 198.9 220.4 175.1 216 151C211.6 126.9 186.3 120.6 172 129C157.7 137.4 156.9 151 161.7 161.8C161.6 161.7 157.2 188.3 158.8 192.4Z" fill="white"/>
</mask>
<g mask="url(#mask0_70_4685)">
<path d="M161.1 192.8C161.2 192.7 161.2 192.5 161.3 192.4C161.4 192.5 161.4 192.6 161.1 192.8Z" fill="#322015"/>
<path d="M172 201.2L171.9 201.7C171.8 201.4 171.8 201.3 172 201.2Z" fill="#322015"/>
<path d="M163.4 190.1C163.4 189.9 163.5 189.8 163.8 189.5L163.4 190.1Z" fill="#322015"/>
<path d="M165.7 190C165.8 190 165.9 189.9 165.9 189.9C165.8 190 165.8 190 165.7 190Z" fill="#322015"/>
<path d="M161 192.9C161.1 192.8 161.1 192.8 161.2 192.8C161.1 192.9 161 192.9 161 192.9Z" fill="#322015"/>
<path d="M157.5 184.5C159 184.3 157.5 184 158.8 183.7C158.5 184 158.4 184.3 159.1 184.2C159.8 183.8 158.9 183.7 160.1 183.4L159.7 183.9C160.3 184 161.2 183.4 161.2 183.7C159.6 184.4 162.1 184.5 161.9 184.8L162 184.6C162.3 184.7 162.6 184.8 162.9 184.8H163C162.9 184.8 162.8 184.9 162.7 184.9C163.6 184.8 164.2 185 164.2 185.4C163.3 185.9 164.3 186.6 163.6 187.1C163.8 186.9 163.7 186.7 163.4 186.6L162.3 187C162.5 187.3 163.3 186.6 162.8 187.2C161.3 187.7 162.6 186.7 162.3 186.5C162 186.7 161.8 187 161.7 187.2C161.4 186.7 160.8 186.4 162.1 185.5C161.7 185.5 161.1 185.7 161 185.9C161.7 185.2 160.1 185.9 160.7 185.3C159.4 185.8 160.2 186.3 159.6 186.9C160.8 187 160.1 188 160.1 188.7C161.1 188.3 161.8 187.6 162.4 187.5C163.3 187.7 162.1 188.2 161.7 188.8C162.2 189 163.3 188.1 163.7 188.6L164.2 188C165.7 187.6 163.8 188.5 164.2 188.6C163.8 188.7 163.5 188.9 163.4 188.6C162.9 188.8 162.8 189.1 162.8 189.3H162.7C162.1 189.8 161.4 190.2 161.9 190.4C162.6 189.8 162.6 190.4 163.1 190.2L163.2 190C163.1 190.4 163.4 190.6 163.3 190.8L163.5 190.7C163.3 191.1 162.4 191.7 162.8 191.9C163.2 191.6 164 190.7 164 191.1C164.5 190.7 164.4 190.3 164 190.2C164.4 190.3 165.4 189.9 165.3 189.5C166.1 189.1 165.2 190 165.6 189.9C165.4 190 165.1 190.2 164.9 190.3C165.9 189.7 165.4 190.8 164.7 191.3L165 190.6C164.2 191.1 164 191.8 163.5 192C164.8 191.3 163.5 193.3 164.6 192.7L163.9 193C164.8 193.3 163.9 195 164.2 195.9C164.3 195.4 165.5 194.3 164.7 194.3C165.4 194.7 166 193.4 166.8 193.1C167.6 193.1 165.9 194.3 165.7 194.8L165.6 194.3C165.1 195.1 165.5 195.3 165.9 195.5C166.3 195.7 166.8 195.8 166.8 196.5C167.2 196.2 166.9 196.2 166.9 196C167.8 195.5 167 196.4 167 196.8C167.4 196.9 168 196.9 168.6 195.8C169.1 195.8 168.1 196.3 168.1 196.8L168.3 196.6C168.1 197 168 197.5 167.9 197.9C168.4 197.8 169.2 197.6 169.9 196.7C170.4 197.3 168.7 199.1 169 199.8C169.6 199.5 169.4 199 169.6 198.6L170 199C170.5 197.8 169.8 198.1 170.6 196.9C170.2 198.4 170.9 197.6 170.9 198.7L171 199C170.7 200 171.6 199.7 171.9 200.1C172.1 199.5 171.7 199.3 171.6 198.9C172.2 198.7 172.8 199.5 172.6 200.9C172.9 200.8 173.6 200.5 173.5 199.9C174.3 200 173.1 201.8 173.9 201.7L174.3 200.7C175.5 199.6 175.3 202.5 176.4 201.5L176.1 202.7C176.4 202.2 176.8 202.1 177 201.7L176.8 201.2C177.4 200.3 176.9 202.3 177.4 201.7C177.3 202.1 176.7 202.8 176.6 203.2C175.9 202.6 175.1 202.6 174.2 202.5C173.8 202.4 173.4 202.4 173 202.2C172.6 202 172.3 201.7 172.1 201.2C172.2 201.1 172.4 201 172.4 200.7C172.1 200.9 172 200.5 171.7 201.1V201.2C171.4 200.8 170.4 201.9 170.1 201.8C170.4 201 169.1 201.6 170 200.5L169.3 201.1C169.5 200.6 169.9 200 169.9 199.7C169.6 199.6 169.3 200.1 169.3 200.6C168.6 200.6 168 200.2 167.5 199.8C167 199.4 166.5 198.9 166.2 198.3L166 199C165.5 199.1 166 197.4 165 198.9C165 198 163.4 198 164.7 196.8C163.9 197.3 163.5 197.1 163.3 196.8C163.1 196.4 163 195.8 162.8 195.4C164.1 194.5 162.7 194.6 163.2 194C162.2 194.6 162.6 195.3 162 195.8C162.4 194.9 161.8 194.6 161.4 194.2C160.9 193.9 160.6 193.4 161.8 192.5C161.6 192.5 161.5 192.5 161.5 192.6C161.4 192.5 160.8 192.5 160.6 192.5C161 192.1 161.4 192.3 161.4 191.9C161.1 191.7 160.5 192.3 160.1 192.3C160.4 191.4 160.3 190.4 161.3 189.8C160.9 189.8 160.2 189.9 160.1 190.2C160.6 189 159.6 189.4 159.8 188.3C159.9 188.6 158.6 188.9 159.3 189.2C158.4 189.4 158.3 189 158.4 188.5C158.4 188 158.5 187.5 158 187.3L159 186.7C159 186.2 158 186.5 157.7 186.9C156.8 186.3 157.4 185.7 157.2 185.1C157.1 185.1 156.9 185.2 156.9 185.3C156.8 185 156.7 184.7 156.7 184.4C157 184.2 157.4 183.8 158.1 183.7C157.3 183.9 157 184.2 157.5 184.5Z" fill="#322015"/>
<path d="M164.8 188.7C164.5 188.8 164.4 188.8 164.3 188.8C164.5 188.7 164.7 188.7 164.8 188.7Z" fill="#322015"/>
<path d="M159 175.8C160.7 175.9 158.7 176.3 159.2 176.6C159.4 176.3 160.4 176.3 160.9 176.3C158.7 176.8 161.3 176.8 160.9 177.5C161.6 177.5 161.7 177.1 162.5 177C162 177.4 161.7 178 160.5 178.2C160.5 178.9 161 179.3 160.9 179.7C161.3 179.2 162.1 179.5 163.1 179C161.7 179.6 160.2 180.9 158.6 182C159.9 181.9 160.1 181.9 161.3 181.5C162.3 182.1 160.1 182 160.7 182.7L160.4 182.4C160.1 182.8 158.8 183.1 158 183.4V182.4C157.1 182.6 157.4 183.2 157.2 183.4C156.2 183.9 156.3 183 155.5 183.3C156.2 183 155.9 182.6 156.1 182.3H155.6C155 181.9 156.2 181.4 156.1 181C156 181 155.8 181 155.8 181C156.3 180.8 157 180.5 157.2 180.2V180.4C158.3 179.9 159 179 160.3 179.4L159.8 178.5C158.5 178.7 156.6 179.1 156.5 179.7L156 179.8C155.2 179.4 156.9 178.4 158 178.6C161.1 177.9 158 177.1 159.3 176.3C158.4 176.3 158.1 176.7 157.5 176.9C157.4 177.1 157.4 177.3 158.1 177.3C157.7 178.3 155.4 177.3 155.8 178.3C156.3 178.8 157.1 177.5 157.3 178.3C156.5 178.5 155.8 178.8 155 179.1C155 178.6 155.4 178.1 155.6 177.7C156.3 176.5 156.4 175.7 156.2 175C156.1 174.4 155.7 174 155.7 174C156 170.8 156.5 167.7 157.2 164.8C157.7 163.9 157.6 163.5 160 163.6C160.4 163.9 160.1 164.4 161 164.3C160.1 164.3 159.6 164.5 159.6 165C160.4 165.2 160.1 164.6 160.3 164.8V164.9C160.7 164.9 161 164.9 161.1 164.7C162.3 165.4 161.9 166.4 160.2 166.5C161 167 161.6 166.4 162.3 166.3C162.8 167.9 162.5 168.9 162.5 170.4C161 170.3 161.5 170.5 160.5 170.6L161 170.8C160.7 170.7 159.7 170.9 159.4 170.5C160.5 171.5 157.3 171.4 156.7 172.1H157.5C157.3 172.6 157.3 172.8 156.9 173.2C158.3 174.1 157.2 172.5 159.1 172.8L158.8 173C159.5 172.9 160.9 172.8 161.4 172.5C160.1 173.2 161.9 173.6 160.9 174.4C161.8 174.3 162.4 173.6 162.5 173.4C162.6 173.7 162 174.2 162.8 174.2L161.7 174.3C161.6 174.8 162.7 174.2 163.4 174.4C163 175.8 159.7 174.8 159 175.8Z" fill="#322015"/>
<path d="M161.9 187.7C161.8 187.6 161.8 187.5 161.8 187.3C161.9 187.4 161.9 187.5 161.9 187.7Z" fill="#322015"/>
<path d="M163.1 184.8C163.2 184.7 163.4 184.7 163.5 184.6C163.4 184.7 163.2 184.8 163.1 184.8Z" fill="#322015"/>
<path d="M164.5 184.2C164 184.3 164 184.4 163.5 184.7C163.7 184.4 163.6 184.1 164.5 184.2Z" fill="#322015"/>
<path d="M191.8 199.3C191.9 199.6 192.2 199.9 192.1 200.2L191.6 199.8L191.8 199.3Z" fill="#322015"/>
<path d="M191 200.5L190.6 200.9L190.3 199.4C190.7 199.5 190.5 200.5 191 200.5Z" fill="#322015"/>
<path d="M189.7 201.4L189.8 201.8C189.7 201.6 189.7 201.5 189.7 201.4Z" fill="#322015"/>
<path d="M189.7 200.7L189.5 199.6L190.1 200.4L189.9 200.6C189.9 201 189.8 201.1 189.7 201.3L189.5 200.5C189.6 200.7 189.7 200.9 189.7 200.7Z" fill="#322015"/>
<path d="M189.2 200.7C189.2 200.6 189.2 200.5 189.2 200.4C189.3 200.5 189.3 200.6 189.2 200.7Z" fill="#322015"/>
<path d="M188.1 202.6C188.2 202.2 188 201.6 188 201.2C188.5 200.8 188.4 202.4 188.8 201.9C188.2 201 189 201.3 189.2 200.7C189.1 201.7 188.8 202.4 188.4 202.7V202C188.1 201.9 188.2 202.4 188.1 202.6Z" fill="#322015"/>
<path d="M185.8 200.9L186.1 201.9C186.2 201.4 186.8 201.4 186.8 200.4C187 200.6 187 201 187.1 201.3C187.3 200.8 187.4 200.4 187.6 201.1C186.7 201.8 187 202 186.2 202.3C186.2 202.5 186.3 202.5 186.4 202.5L185.9 203C185.9 201.8 185.3 201.6 185.8 200.9Z" fill="#322015"/>
<path d="M185.1 201.6C185.5 201.7 185.6 202.7 185.4 203.3L184.6 202.4C184.8 202.4 185.1 202.6 185.1 201.6Z" fill="#322015"/>
<path d="M184.5 201.5C184.3 202 183.9 203.1 183.8 202.1C184.2 202.3 184.1 200.8 184.5 201.5Z" fill="#322015"/>
<path d="M181.6 202.1L182.5 201.6C182.8 200.3 182.2 201.1 182.1 200.5C182.8 200.3 182.5 200.7 182.9 201.6C183.1 201.5 183.3 202.3 183.5 202.7C182.5 201.5 182 204.6 181.6 202.1Z" fill="#322015"/>
<path d="M183.3 201V201.6L183 201.1L183.3 201Z" fill="#322015"/>
<path d="M179.5 203.2C178.7 204.6 178.8 202.1 178.1 202.7C178.1 202.8 178.1 202.9 178.1 203.1L177.7 202.8L177.6 203.1C177.9 202.2 177.5 201.7 177.5 201C178.2 200.2 177.4 202.2 178.1 201.3C178.1 200.9 178.2 200.2 178.2 199.9C178.3 200.4 178.2 201 178.2 201.5C178.5 201.7 178.5 201.1 178.6 200.8C178.8 201.4 178.5 202.7 179 202.5C179.5 201.8 179.1 201.2 179.6 201.7C179 203.1 180.2 201.6 180.2 202.6C180.7 202.4 181.1 201.5 181.1 201C180.9 202.1 181.1 203.2 181.3 203.5L180.8 202.4L180.3 203.7C180 203 179.7 203 179.3 203.1L179.5 203.2Z" fill="#322015"/>
<path d="M178.2 199.8C178.2 199.7 178.2 199.6 178.1 199.5C178.2 199.5 178.2 199.6 178.2 199.8Z" fill="#322015"/>
<path d="M181.4 200.5L181.3 200.2L181.5 199.9L181.4 200.5Z" fill="#322015"/>
<path d="M178.2 198.8C178.3 198.8 178.2 199.2 178.1 199.2V198.6L178.2 198.8Z" fill="#322015"/>
<path d="M177.6 199.5L177.1 200.2L177.2 199.5H177.6Z" fill="#322015"/>
<path d="M169.1 196.2C169.6 196 169 196.7 168.7 197.3C168.2 197.1 169.2 196.6 169.1 196.2Z" fill="#322015"/>
<path d="M166.1 191.4C166.8 191.3 166.2 192.1 166.4 192.3C165.8 192.3 165.8 191.8 166.1 191.4Z" fill="#322015"/>
<path d="M167.6 187.9C167.4 188.1 167.3 188.3 167.1 188.2L165.8 189.3C165.1 189.1 166.9 188.2 167.6 187.9Z" fill="#322015"/>
<path d="M166.8 185.7L166.4 186.3L166.3 186.1C165.7 186.4 165.5 186.6 165 187C165.2 186.6 165.7 186.1 166.8 185.7Z" fill="#322015"/>
<path d="M164.8 187.5C164.8 187.4 164.8 187.4 164.8 187.3C165.1 187.3 165.3 187.2 164.8 187.5Z" fill="#322015"/>
<path d="M164.8 187.2C164.9 187.2 164.9 187.1 165 187.1C165 187.2 164.9 187.3 164.9 187.4C164.7 187.4 164.6 187.4 164.8 187.2Z" fill="#322015"/>
<path d="M165.9 185.8C165.9 185.6 165.8 185.4 165.8 185.1L166.2 185.2C165.3 185.6 166.9 185.3 165.9 185.8Z" fill="#322015"/>
<path d="M164 182.6L163 182.7C162.7 182.3 164.7 181.3 163.1 181.3C163.7 181.4 164.1 180.7 164.5 181.2C163.7 181.7 163.7 182.3 164 182.6Z" fill="#322015"/>
<path d="M162.2 181.2C161.9 181.3 161.7 181.2 161.4 181.2C161.3 181 161.7 180.8 162.1 180.8C160.9 181.2 163 180.9 162.2 181.2Z" fill="#322015"/>
<path d="M162 179C162 179.1 161.9 179.3 161.6 179.2C161.6 178.8 162.7 178.8 163.4 178.5C164.1 178.7 162.6 179.2 162 179Z" fill="#322015"/>
<path d="M161.6 175.6L161.8 175.7L160.5 175.8L161.6 175.6Z" fill="#322015"/>
<path d="M162.3 173L163.1 172.7L163 173.2L162.3 173Z" fill="#322015"/>
<path d="M162.1 172.5L162.2 172.1L162.5 172.3C162.8 172.5 162.1 172.4 162.1 172.5Z" fill="#322015"/>
<path d="M162.4 171.2C162.3 171.2 162.5 171.3 162.6 171.3L162 171.7L162.4 171.2Z" fill="#322015"/>
<path d="M157.9 163.5C157 163.5 157.6 163.1 157.5 163C157.7 163 158.7 163.4 157.9 163.5Z" fill="#322015"/>
</g>
<path d="M38.8 150L35.5 197.6C35.5 197.6 46 193.8 50.2 191C54.4 188.2 58.5 155.3 58.5 155.3C58.5 155.3 37.6 150.9 38.8 150Z" fill="#FFF0DD"/>
<mask id="mask1_70_4685" style="mask-type:luminance" maskUnits="userSpaceOnUse" x="35" y="150" width="24" height="48">
<path d="M38.8 150L35.5 197.6C35.5 197.6 46 193.8 50.2 191C54.4 188.2 58.5 155.3 58.5 155.3C58.5 155.3 37.6 150.9 38.8 150Z" fill="white"/>
</mask>
<g mask="url(#mask1_70_4685)">
<g opacity="0.58">
<path d="M44.7001 159.7C44.7001 159.8 44.6001 159.8 44.6001 159.9C44.6001 159.9 44.6001 159.9 44.7001 159.7Z" fill="#322015"/>
<path d="M40.9 156L41.1 155.8C41.1 155.9 41 156 40.9 156Z" fill="#322015"/>
<path d="M43.6 161.4C43.6 161.5 43.5 161.6 43.4 161.7L43.6 161.4Z" fill="#322015"/>
<path d="M42.4 161.8L42.3 161.9C42.3 161.8 42.4 161.8 42.4 161.8Z" fill="#322015"/>
<path d="M48.1001 163.3C48.1001 163.4 48.2001 163.4 48.1001 163.3V163.3Z" fill="#322015"/>
<path d="M47.8001 167.5L47.6001 167.7C47.7001 167.6 47.8001 167.6 47.8001 167.5Z" fill="#322015"/>
<path d="M48.7001 162.3C48.7001 162.4 48.6001 162.4 48.6001 162.5C48.6001 162.4 48.6001 162.4 48.7001 162.3Z" fill="#322015"/>
<path d="M39.8 154.4C39.8 154.3 39.8 154.3 39.8 154.2C39.9 154.2 39.9 154.3 39.8 154.4Z" fill="#322015"/>
<path d="M47.2 162.1C46.6 162.7 47.3 162.3 46.7 162.8C46.8 162.6 46.8 162.4 46.5 162.7C46.2 163.1 46.7 162.8 46.2 163.4L46.3 163.1C46 163.3 45.7 163.8 45.7 163.7C46.3 162.9 45.1 163.7 45.1 163.5V163.6L44.6 163.8L44.7 163.7C44.3 164 43.9 164.1 43.9 163.9C44.2 163.5 43.6 163.3 43.9 163C43.9 163.2 43.9 163.2 44.1 163.2L44.6 162.7C44.5 162.6 44.1 163.1 44.3 162.7C45 162.1 44.5 162.9 44.6 162.9C44.7 162.7 44.8 162.6 44.8 162.4C45 162.6 45.4 162.5 44.8 163.3C45 163.2 45.2 162.9 45.3 162.8C45.1 163.3 45.8 162.5 45.5 163C46.1 162.4 45.6 162.4 45.8 162C45.2 162.3 45.4 161.7 45.3 161.4C44.8 161.8 44.6 162.3 44.3 162.5C43.8 162.6 44.4 162.1 44.5 161.7C44.2 161.7 43.7 162.4 43.5 162.2L43.3 162.6C42.5 163.1 43.4 162.3 43.2 162.3C43.4 162.2 43.6 162 43.6 162.1C43.8 161.9 43.9 161.7 43.9 161.7C44.2 161.4 44.5 161 44.2 161.1C43.9 161.5 43.8 161.3 43.6 161.4V161.5C43.6 161.3 43.5 161.2 43.5 161.1L43.4 161.2C43.5 161 43.9 160.5 43.7 160.5C43.5 160.7 43.1 161.3 43.1 161.1C42.8 161.4 42.9 161.5 43.1 161.5C42.9 161.5 42.4 161.9 42.5 162C42.1 162.3 42.5 161.7 42.3 161.8C42.4 161.7 42.5 161.6 42.6 161.5C42.1 161.9 42.3 161.3 42.7 161L42.5 161.4C42.9 161 43 160.7 43.3 160.5C42.6 161 43.3 159.9 42.7 160.3L43.1 160.1C42.7 160 43.2 159.2 43.2 158.8C43.1 159.1 42.4 159.7 42.8 159.6C42.5 159.5 42 160.1 41.6 160.3C41.2 160.3 42.2 159.6 42.3 159.4V159.6C43 158.7 41.7 159.2 42 158.5C41.8 158.7 41.9 158.7 41.9 158.8C41.4 159 41.9 158.6 42 158.4C41.8 158.3 41.5 158.3 41.1 158.8C40.9 158.8 41.4 158.6 41.5 158.3L41.4 158.4L41.9 157.8C41.6 157.8 41.2 157.9 40.7 158.2C40.6 157.8 41.8 157.1 41.8 156.8C41.4 156.9 41.4 157.1 41.2 157.3L41.1 157.1C40.6 157.6 41 157.5 40.3 158.1C40.9 157.4 40.3 157.7 40.6 157.2H40.7C41.1 156.7 40.6 156.8 40.6 156.6C40.3 156.9 40.4 157 40.4 157.2C40.1 157.2 40 156.7 40.6 156.1C40.4 156.1 40.1 156.1 39.9 156.4C39.6 156.2 40.7 155.6 40.3 155.5L39.8 155.9C38.9 156.1 40 154.9 39.2 155.1L39.8 154.7C39.5 154.8 39.3 154.8 39.1 154.9L39 155.2C38.4 155.4 39.4 154.7 38.9 154.8C39.1 154.7 39.6 154.5 39.8 154.4C39.8 155.2 41.1 155.1 40.9 156.1C40.8 156.1 40.7 156.2 40.6 156.3C40.8 156.3 40.7 156.5 41 156.2V156.1C41 156.3 41.8 155.9 41.8 156C41.5 156.4 42.2 156.2 41.5 156.6L42 156.4C41.8 156.6 41.4 156.9 41.4 157C41.5 157.1 41.8 156.8 41.9 156.6C42.4 156.8 42.7 157.2 42.8 157.8L43 157.5C43.2 157.5 42.7 158.3 43.4 157.5C43.2 157.9 44 157.8 43.2 158.5C44.1 158 43.9 158.6 44 159C43.3 159.5 44 159.4 43.7 159.7C44.2 159.3 44.1 159 44.4 158.7C43.8 159.7 45.6 158.8 44.3 160.1C44.4 160.1 44.4 160 44.5 160C44.5 160 44.8 159.9 44.9 159.9C44.7 160.1 44.5 160.1 44.5 160.3C44.6 160.3 44.9 160 45.1 159.8C45 160.2 45.1 160.6 44.6 161.1C44.8 161 45.1 160.8 45.2 160.6C45 161.2 45.5 160.8 45.5 161.3C45.4 161.2 46 160.7 45.7 160.8C46.5 160.2 46 161.3 46.5 161.2L46.1 161.7C46.1 161.9 46.6 161.5 46.7 161.2C47.2 161.1 47 161.5 47.2 161.7C47.3 161.7 47.3 161.6 47.3 161.6L47.5 161.8C47.4 161.9 47.3 162.3 47 162.5C47.4 162.3 47.5 162.1 47.2 162.1Z" fill="#322015"/>
<path d="M43 162.3C43.1 162.2 43.2 162.2 43.3 162.2C43.1 162.3 43 162.3 43 162.3Z" fill="#322015"/>
<path d="M48.7 165.5C48 166.2 48.6 165.2 48.4 165.4C48.4 165.6 48 166 47.8 166.2C48.5 165.1 47.5 166.3 47.4 165.8C47.1 166.1 47.2 166.3 46.9 166.6C47 166.2 46.9 165.9 47.3 165.4C47.1 165.2 46.8 165.2 46.7 165C46.7 165.4 46.3 165.6 46 166.1C46.4 165.3 46.7 164.3 47.1 163.3C46.5 163.8 46.5 163.9 46 164.4C45.4 164.5 46.4 163.8 46 163.7H46.2C46.2 163.4 46.8 162.9 47.1 162.5L47.3 162.9C47.7 162.5 47.4 162.4 47.5 162.2C47.9 161.7 48 162 48.3 161.6C48 161.9 48.2 162 48.2 162.2L48.4 162C48.7 161.9 48.3 162.5 48.4 162.6C48.5 162.5 48.5 162.5 48.5 162.5C48.3 162.8 48.1 163.1 48.1 163.3V163.2C47.7 163.8 47.7 164.4 47 164.8L47.5 164.9C48 164.3 48.7 163.4 48.6 163.2L48.8 162.9C49.2 162.7 48.8 163.7 48.3 164.1C47.2 165.6 48.7 164.6 48.5 165.3C48.8 164.9 48.8 164.7 49 164.4C49 164.3 48.9 164.3 48.7 164.6C48.6 164.1 49.8 163.5 49.4 163.3C49.1 163.4 49.1 164.1 48.8 163.9L49.6 162.7C49.7 162.8 49.7 163.1 49.7 163.4C49.7 164.6 50.7 164.4 50.7 164.4C51.1 164.8 51.6 165.2 52 165.7C52.4 166.1 52.9 166.5 53.3 166.8C53.5 167.1 53.6 167.1 53.2 168.4C53 168.6 52.8 168.4 52.7 168.8C52.9 168.3 52.9 168 52.7 168C52.4 168.4 52.8 168.3 52.6 168.4H52.5C52.4 168.6 52.3 168.8 52.4 168.8C51.8 169.3 51.5 169 51.8 168.1C51.4 168.4 51.5 168.8 51.4 169.2C50.6 169.1 50.2 168.8 49.6 168.4C50.1 167.7 49.9 167.9 50.1 167.4L49.9 167.6C50 167.5 50.3 166.9 50.5 166.9C49.8 167.2 50.8 165.7 50.9 165.2L50.6 165.6C50.5 165.4 50.4 165.4 50.4 165.1C49.6 165.6 50.6 165.4 49.8 166.2V166C49.6 166.4 49.2 167 49.1 167.3C49.3 166.5 48.5 167.2 48.6 166.5C48.3 166.9 48.3 167.4 48.4 167.5C48.3 167.5 48.3 167 48 167.4L48.4 166.9C48.3 166.7 48.1 167.4 47.7 167.6C47.2 167.3 48.8 166.1 48.7 165.5Z" fill="#322015"/>
<path d="M44.6001 162.2C44.7001 162.2 44.7001 162.3 44.7001 162.3C44.6001 162.3 44.6001 162.3 44.6001 162.2Z" fill="#322015"/>
<path d="M44.5 163.8C44.4 163.9 44.4 163.9 44.4 164C44.4 163.9 44.4 163.8 44.5 163.8Z" fill="#322015"/>
<path d="M43.9 164.5C44.1 164.3 44.1 164.3 44.3 164C44.2 164.2 44.4 164.3 43.9 164.5Z" fill="#322015"/>
<path d="M36.3001 151C36.1001 151.1 35.8001 151.3 35.6001 151.4C35.3001 151.3 36.1001 150.9 35.8001 150.9C35.5001 151.4 35.4001 151 35.1001 151C35.7001 150.8 36.1001 150.7 36.3001 150.8L36.0001 151C35.9001 151.1 36.1001 151 36.3001 151Z" fill="#322015"/>
<path d="M35.9 152.4L36.3 152C36 152.1 35.9 151.9 35.4 152.2C35.4 152.1 35.7 151.9 35.8 151.8C35.5 151.9 35.3 151.9 35.6 151.7C36.1 151.9 36.2 151.7 36.5 151.9C36.6 151.8 36.6 151.8 36.5 151.8H36.9C36.3 152.1 36.4 152.3 35.9 152.4Z" fill="#322015"/>
<path d="M36.5001 152.4C36.4001 152.2 36.9001 151.9 37.2001 151.8L37.0001 152.3C37.0001 152.2 36.9001 152.1 36.5001 152.4Z" fill="#322015"/>
<path d="M36.6001 152.6C36.9001 152.5 37.5001 152.3 37.1001 152.7C37.0001 152.5 36.3001 153 36.6001 152.6Z" fill="#322015"/>
<path d="M37.7 153.4L37.2 153.3C36.5 153.6 37.1 153.6 36.8 153.8C36.5 153.6 36.8 153.6 37.1 153.1C37 153.1 37.3 152.7 37.4 152.5C37.1 153.4 38.7 152.4 37.7 153.4Z" fill="#322015"/>
<path d="M36.7001 153.2L36.9001 153.1L36.8001 153.3L36.7001 153.2Z" fill="#322015"/>
<path d="M38.8 153.6C39.7 153.3 38.6 154.2 39 154.2C39 154.2 39.1 154.1 39.2 154V154.2L39.4 154.1C38.9 154.4 38.9 154.7 38.6 155C38 155.2 39.1 154.5 38.5 154.7C38.3 154.9 38 155.1 37.9 155.3C38.1 155 38.3 154.8 38.5 154.6C38.5 154.5 38.2 154.7 38.1 154.8C38.3 154.5 38.9 154.1 38.7 154C38.2 154.1 38.1 154.5 38.2 154.2C39 153.8 37.9 154.1 38.4 153.7C38.2 153.6 37.7 153.8 37.4 154C38 153.6 38.4 153.2 38.5 153L38.2 153.6L38.9 153.3C38.5 153.5 38.7 153.6 38.8 153.6Z" fill="#322015"/>
<path d="M37.9 155.3L37.8 155.4C37.8 155.4 37.9 155.4 37.9 155.3Z" fill="#322015"/>
<path d="M37.1001 154.1L37 154.2L36.8 154.3L37.1001 154.1Z" fill="#322015"/>
<path d="M37.6 155.8L37.8 155.6L37.5 155.9L37.6 155.8Z" fill="#322015"/>
<path d="M38.1001 155.6L38.5001 155.4L38.2001 155.7L38.1001 155.6Z" fill="#322015"/>
<path d="M41 158.7C40.7 158.8 41.1 158.4 41.4 158.2C41.6 158.3 41 158.5 41 158.7Z" fill="#322015"/>
<path d="M42.2 161.1C41.8 161.2 42.1 160.8 42 160.7C42.3 160.6 42.3 160.9 42.2 161.1Z" fill="#322015"/>
<path d="M41.6001 163.2C41.7001 163.1 41.7001 163 41.8001 163L42.4001 162.2C42.8001 162.2 41.9001 162.9 41.6001 163.2Z" fill="#322015"/>
<path d="M42.4 164.3L42.5 163.9L42.6 164C42.8 163.7 42.9 163.5 43.1 163.3C43.1 163.4 42.9 163.8 42.4 164.3Z" fill="#322015"/>
<path d="M43.1001 162.9C43.1001 163 43.1001 163 43.1001 162.9C42.9001 163.2 43.0001 163.1 43.1001 162.9Z" fill="#322015"/>
<path d="M43.2 163.1C43.1 163.1 43.1 163.2 43.2 163.1C43.1 163.1 43.1 163.1 43.2 163.1C43.3 162.9 43.2 163 43.2 163.1Z" fill="#322015"/>
<path d="M42.8 164.1L43 164.4H42.8C43.2 164 42.4 164.5 42.8 164.1Z" fill="#322015"/>
<path d="M44.6001 165.1L45.0001 164.7C45.3001 164.8 44.6001 165.9 45.3001 165.3C45.0001 165.5 45.0001 165.9 44.7001 165.8C45.0001 165.3 44.8001 165.1 44.6001 165.1Z" fill="#322015"/>
<path d="M45.8001 165C45.9001 164.8 46.0001 164.8 46.1001 164.7C46.2001 164.7 46.1001 165 45.9001 165.1C46.4001 164.5 45.5001 165.4 45.8001 165Z" fill="#322015"/>
<path d="M46.5 165.8C46.5 165.7 46.4 165.6 46.6 165.6C46.7 165.8 46.3 166.2 46.1 166.6C45.7 166.7 46.2 165.9 46.5 165.8Z" fill="#322015"/>
<path d="M50.4 163.6C50.1 164 50 163.8 50.1 163.7C50.1 163.7 50.3 163.7 50.4 163.6Z" fill="#322015"/>
<path d="M47.8001 166.7L47.7001 166.8L48.2001 166.2L47.8001 166.7Z" fill="#322015"/>
<path d="M48.5001 167.8L48.4001 168.3L48.2001 168.1L48.5001 167.8Z" fill="#322015"/>
<path d="M48.8 167.9L48.9 168.1L48.7 168.2C48.6 168.2 48.8 167.9 48.8 167.9Z" fill="#322015"/>
<path d="M49.2001 168.3C49.2001 168.2 49.1001 168.3 49.1001 168.4V168L49.2001 168.3Z" fill="#322015"/>
<path d="M53.5001 167.3C53.7001 166.8 53.7001 167.2 53.8001 167.1C53.7001 167.3 53.3001 167.8 53.5001 167.3Z" fill="#322015"/>
</g>
</g>
<path d="M27.8999 20.8999C27.8999 20.8999 9.69993 17.2999 6.89993 16.6999C4.09993 16.0999 -0.300062 20.4999 1.59994 32.0999C3.49994 43.6999 9.59993 50.3999 17.3999 54.3999C25.1999 58.3999 25.9999 58.6999 26.3999 59.4999C26.8999 60.2999 29.5999 71.6999 29.3999 72.6999C29.1999 73.6999 15.7999 97.3999 25.9999 130.8C36.1999 164.2 77.1999 186.9 87.8999 191.1C87.8999 191.1 77.1999 192.8 77.3999 207.6C77.3999 207.6 154.6 207.6 157.6 207.6C160.6 207.6 165.5 186.9 161.2 159.7C156.9 132.5 135 115.3 122.7 103.1C110.4 90.7999 101.6 75.9999 96.7999 62.0999C91.8999 48.1999 90.7999 42.8999 89.6999 39.6999C89.6999 39.6999 88.4999 25.4999 88.2999 18.3999C88.0999 11.2999 87.3999 1.99994 82.0999 0.599938C76.7999 -0.800062 71.4999 4.49994 65.2999 12.1999C65.2999 11.9999 36.1999 4.39994 27.8999 20.8999Z" fill="#FFF0DD"/>
<mask id="mask2_70_4685" style="mask-type:luminance" maskUnits="userSpaceOnUse" x="71" y="163" width="18" height="28">
<path d="M88.8999 190.8C88.2999 191 88 191 88 191C84.8 189.7 78.8 186.8 71.7 182.3C74.2 175.9 76.8 169.2 79.1 163.5C81.5 165 83.8 166.4 86 167.6C82.8 181.8 88.8999 190.8 88.8999 190.8Z" fill="white"/>
</mask>
<g mask="url(#mask2_70_4685)">
<g opacity="0.58">
<path d="M73.6 175.2C73.7 175.2 73.8 175.1 73.8 175.1C73.8 175.2 73.7 175.2 73.6 175.2Z" fill="#322015"/>
<path d="M72.2 185H72C72.1 184.9 72.2 184.9 72.2 185Z" fill="#322015"/>
<path d="M75.5 174.7C75.6 174.6 75.7 174.6 75.9 174.5L75.5 174.7Z" fill="#322015"/>
<path d="M76.3 175.9C76.3 175.9 76.4 175.9 76.4 176C76.4 175.9 76.4 175.9 76.3 175.9Z" fill="#322015"/>
<path d="M75.8 165.8C75.8 165.7 75.8 165.7 75.8 165.6H75.9C76 165.7 75.9 165.8 75.8 165.8Z" fill="#322015"/>
<path d="M76.1 166.2L76.2 166.1C76.1 166.1 76.1 166.2 76.1 166.2Z" fill="#322015"/>
<path d="M74.8 166.4C74.9 166.4 75.0001 166.4 75.1001 166.4C75.0001 166.4 75 166.5 74.8 166.4Z" fill="#322015"/>
<path d="M71.8 188.6C71.8 188.7 71.7 188.8 71.7 188.9C71.6 188.7 71.6 188.6 71.8 188.6Z" fill="#322015"/>
<path d="M75.1 168.9C75.8 169.2 75.2 168.6 75.9 168.8C75.7 168.9 75.5 169 75.9 169.2C76.4 169.2 76 168.8 76.6 168.9L76.3 169.1C76.6 169.4 77.1 169.3 77 169.4C76.1 169.4 77.1 170.3 76.9 170.5L77 170.4L77.3 170.9C77.2 170.9 77.2 170.9 77.1 170.9C77.5 171.2 77.7 171.5 77.5 171.8C77 171.8 77.1 172.7 76.6 172.8C76.8 172.7 76.8 172.6 76.7 172.4L76.1 172.3C76 172.6 76.6 172.5 76.2 172.7C75.4 172.4 76.3 172.3 76.3 172.1C76.1 172.1 75.9 172.2 75.8 172.3C75.9 171.9 75.7 171.4 76.6 171.3C76.5 171.1 76.1 171.1 76 171.2C76.5 171 75.6 170.9 76.1 170.7C75.3 170.6 75.5 171.2 75.1 171.4C75.6 171.9 74.9 172.3 74.7 172.7C75.2 172.9 75.8 172.7 76.1 172.9C76.4 173.4 75.7 173.3 75.3 173.4C75.4 173.8 76.2 173.7 76.1 174.1L76.5 173.9C77.2 174.4 76.1 174.1 76.2 174.3C76 174.2 75.8 174.1 75.9 173.9C75.6 173.8 75.5 174 75.4 174V173.9C75 173.9 74.6 173.8 74.7 174.2C75.2 174.1 75 174.5 75.2 174.7L75.3 174.6C75.1 174.8 75.1 175 75 175.2H75.1C74.9 175.3 74.3 175.3 74.4 175.5C74.6 175.5 75.3 175.4 75.2 175.6C75.6 175.6 75.7 175.4 75.6 175.1C75.7 175.4 76.2 175.6 76.3 175.3C76.7 175.5 76 175.5 76.2 175.7C76.1 175.6 75.9 175.7 75.8 175.6C76.4 175.7 75.7 176.2 75.3 176.1L75.7 175.9C75.2 175.8 74.8 176.1 74.6 175.9C75.3 176.2 74.1 176.6 74.7 176.9L74.3 176.7C74.4 177.4 73.4 177.7 73.1 178.3C73.4 178.1 74.2 178.3 74 177.9C74 178.5 74.8 178.2 75.2 178.5C75.4 179 74.4 178.6 74.1 178.7L74.3 178.4C73.3 178.6 74.3 179.6 73.6 180.1C73.8 180.2 73.8 180 73.9 179.9C74.3 180.3 73.7 180.2 73.5 180.3C73.5 180.6 73.7 181 74.3 180.9C74.4 181.2 73.9 180.8 73.7 180.9L73.8 181L73.1 181.2C73.2 181.5 73.5 181.9 74.1 182.1C73.9 182.7 72.7 182.1 72.4 182.5C72.7 182.8 72.9 182.5 73.1 182.5L73 182.9C73.7 182.9 73.4 182.5 74.2 182.6C73.3 182.8 73.9 183 73.3 183.4H73.2C72.6 183.5 72.9 184.1 72.8 184.3C73.1 184.2 73.2 183.9 73.4 183.8C73.6 184.1 73.2 184.9 72.5 185.1C72.6 185.3 72.8 185.7 73.1 185.5C73.1 186.1 72.1 185.6 72.2 186.2H72.7C73.4 186.9 71.9 187.3 72.5 187.9H71.8C72.1 188.1 72.2 188.3 72.4 188.4L72.7 188.1C73.2 188.4 72.1 188.3 72.5 188.7C72.3 188.7 71.9 188.4 71.7 188.4C72.2 187.2 71.4 185.9 72.2 184.8C72.3 184.9 72.4 184.9 72.5 184.9C72.4 184.7 72.6 184.5 72.2 184.5H72.1C72.3 184.2 71.5 183.8 71.6 183.6C72.1 183.5 71.5 182.9 72.3 183.2L71.9 182.9C72.2 182.9 72.6 183 72.7 182.9C72.7 182.7 72.4 182.6 72.2 182.8C72 181.9 72.3 180.9 72.7 180.1L72.3 180.3C72.2 180.1 73.1 179.7 72.1 179.7C72.5 179.4 72.1 178.5 73 178.7C72.1 178.2 72.8 177.6 73.1 177.1C73.9 177.4 73.4 176.7 73.8 176.6C73.2 176.4 73.1 176.9 72.6 176.9C73.7 176.5 72.3 175.1 73.9 175.2C73.9 175.1 73.8 175.1 73.7 175.1C73.7 175 73.5 174.8 73.4 174.6C73.7 174.6 73.8 174.9 73.9 174.6C73.9 174.4 73.4 174.4 73.2 174.3C73.7 174 74 173.4 74.6 173.4C74.5 173.2 74.1 173 74 173.1C74.7 172.6 74.1 172.4 74.5 171.9C74.4 172.1 73.8 171.8 74 172.2C73.2 171.7 74.4 171.2 74.1 170.6L74.7 170.5C74.9 170.2 74.3 170 74.1 170.2C73.9 169.6 74.3 169.4 74.4 169C74.3 169 74.2 168.9 74.2 169L74.3 168.4C74.5 168.4 74.8 168.2 75.2 168.4C75.2 168.5 74.9 168.5 75.1 168.9Z" fill="#322015"/>
<path d="M76.6 174.5C76.5 174.4 76.4 174.3 76.4 174.3C76.5 174.4 76.5 174.5 76.6 174.5Z" fill="#322015"/>
<path d="M78.2 163.3C79 163.7 77.9 163.6 78.1 163.9C78.3 163.7 78.8 163.9 79 164C77.8 163.9 79.1 164.4 78.7 164.9C79.1 165 79.2 164.8 79.6 164.9C79.2 165.1 78.9 165.5 78.3 165.4C78.1 165.9 78.2 166.3 78 166.6C78.4 166.3 78.6 166.7 79.3 166.6C78.5 166.8 77.3 167.3 76.3 167.6C77 167.9 77 167.9 77.7 168C78 168.8 77 168 77 168.7V168.4C76.7 168.6 76.1 168.5 75.6 168.4L75.9 167.7C75.4 167.6 75.4 168 75.2 168.1C74.6 168.2 74.9 167.6 74.4 167.6C74.8 167.6 74.8 167.3 75 167.2L74.8 167.1C74.6 166.7 75.3 166.7 75.4 166.4C75.3 166.4 75.3 166.3 75.2 166.3C75.5 166.3 75.9 166.3 76 166.1L75.9 166.2C76.6 166.1 77.1 165.6 77.7 166.2V165.4C77 165.3 76 165.1 75.8 165.5H75.5C75.2 165.1 76.3 164.8 76.8 165.2C78.5 165.4 77.2 164.1 78 163.8C77.6 163.6 77.3 163.9 77 163.9C76.9 164 76.9 164.2 77.2 164.3C76.7 164.9 75.9 163.7 75.8 164.5C75.9 164.9 76.6 164.3 76.5 164.8H75.2C75.3 164.5 75.6 164.2 75.9 164C77.2 162.7 76.9 161.4 76.9 161.4C77.8 159.2 78.8 157 79.8 154.9C80.3 154.3 80.3 154 81.6 154.3C81.8 154.5 81.5 154.9 81.9 154.9C81.4 154.8 81.1 154.9 81 155.3C81.4 155.5 81.3 155.1 81.4 155.2V155.3C81.6 155.4 81.8 155.4 81.9 155.3C82.4 156 81.9 156.6 81 156.6C81.3 157.1 81.7 156.6 82.1 156.6C82 157.8 81.6 158.6 81.2 159.7C80.4 159.4 80.7 159.6 80.1 159.6L80.3 159.8C80.2 159.7 79.6 159.7 79.5 159.4C79.8 160.3 78.2 159.8 77.7 160.2L78.1 160.3C77.9 160.7 77.8 160.8 77.5 161C78 161.9 77.8 160.5 78.7 161L78.5 161.1C78.9 161.1 79.6 161.2 79.9 161.2C79.1 161.6 79.9 162.1 79.2 162.6C79.7 162.7 80.2 162.2 80.3 162.1C80.3 162.3 79.8 162.6 80.2 162.8L79.6 162.7C79.4 163.1 80.1 162.8 80.4 163.1C80.2 163.9 78.8 162.6 78.2 163.3Z" fill="#322015"/>
<path d="M75.9 172.5C75.9 172.4 75.9 172.3 76 172.2C76 172.3 76 172.4 75.9 172.5Z" fill="#322015"/>
<path d="M78.2 171C78 170.9 77.9 171 77.6 171C77.8 170.9 77.9 170.6 78.2 171Z" fill="#322015"/>
<path d="M71.9 190.8C71.1 190.4 72.4 190.1 72.1 189.7C72 189.7 72 189.7 71.9 189.8L72 189.5H71.8C72.3 189.6 72.5 189.2 72.9 189.1C73.4 189.5 72.3 189.2 72.8 189.6C73 189.5 73.4 189.5 73.6 189.5C73.3 189.7 73 189.7 72.7 189.8C72.6 190 72.9 190 73.1 190C72.8 190.2 72.1 190.2 72.2 190.6C72.6 190.9 72.9 190.5 72.7 190.9C71.9 190.6 72.8 191.3 72.3 191.5C72.4 191.8 72.9 192.1 73.2 192C72.6 192 72 192.2 71.9 192.5L72.4 192L71.7 191.8C72.1 191.3 72 191.1 71.9 190.8Z" fill="#322015"/>
<path d="M73.6 189.4L73.7 189.3C73.7 189.3 73.7 189.3 73.6 189.4Z" fill="#322015"/>
<path d="M74.1 189.1C74.1 189.2 73.9 189.2 73.9 189.1L74.2 189L74.1 189.1Z" fill="#322015"/>
<path d="M73.7 188.8L73.3 188.5H73.6001L73.7 188.8Z" fill="#322015"/>
<path d="M74.3 181.4C74.5 181.7 74 181.6 73.7 181.5C73.7 181.1 74.1 181.6 74.3 181.4Z" fill="#322015"/>
<path d="M75.9 176.9C76.2 177.2 75.6 177.4 75.6 177.6C75.4 177.4 75.6 177.1 75.9 176.9Z" fill="#322015"/>
<path d="M77.9 175.4C77.7 175.4 77.6 175.5 77.6 175.3H76.7C76.5 174.9 77.5 175.3 77.9 175.4Z" fill="#322015"/>
<path d="M78.6 173.3L78.2 173.6V173.4C77.8 173.4 77.7 173.4 77.4 173.5C77.6 173.2 78 173.1 78.6 173.3Z" fill="#322015"/>
<path d="M77.1 173.7C77.1 173.7 77.1 173.6 77.2 173.6C77.3 173.7 77.4 173.7 77.1 173.7Z" fill="#322015"/>
<path d="M77.1999 173.5H77.3C77.2 173.6 77.2 173.6 77.1 173.7C77.1 173.5 76.9999 173.5 77.1999 173.5Z" fill="#322015"/>
<path d="M78.2 172.9L78.3999 172.3L78.5 172.6C78 172.5 78.8 172.9 78.2 172.9Z" fill="#322015"/>
<path d="M78.6 169.6L78.1 169.4C78.1 169 79.3 168.8 78.6 168.4C78.9 168.7 79.3 168.3 79.3 168.7C78.8 168.8 78.6 169.3 78.6 169.6Z" fill="#322015"/>
<path d="M78.3 168C78.1 168 78.1 167.9 77.9 167.8C77.9 167.6 78.2 167.6 78.3 167.7C77.6 167.6 78.7 168 78.3 168Z" fill="#322015"/>
<path d="M78.8 166.2C78.8 166.3 78.7 166.4 78.6 166.2C78.7 165.9 79.3 166.1 79.7 166.1C79.9 166.5 79 166.5 78.8 166.2Z" fill="#322015"/>
<path d="M79.6 163.5V163.6L78.9 163.5H79.6Z" fill="#322015"/>
</g>
</g>
<path d="M157.6 207.5C154.6 207.5 77.3999 207.5 77.3999 207.5C77.2999 192.8 87.9999 191 87.9999 191C87.9999 191 88.2999 190.9 88.8999 190.8C88.8999 190.8 82.7999 181.8 85.8999 167.7C75.7999 161.9 64.0999 154.3 52.4999 137.7C38.3999 117.6 44.9999 83.9 46.6999 72C48.3999 60.1 49.2999 48.1 47.9999 45.8C46.6999 43.5 40.9999 45 27.9999 39.8C17.5999 35.7 12.7999 28.8 11.2999 26.1C11.4999 26 11.6999 25.9 11.7999 25.8C14.3999 24.2 15.3999 21.3 15.6999 19.5C15.7999 19.2 15.6999 18.8 15.5999 18.5C21.3999 19.7 27.8999 20.9 27.8999 20.9C36.1999 4.39999 65.1999 12 65.1999 12C71.3999 4.29998 76.5999 -1.00001 81.9999 0.399986C87.3999 1.79999 88.0999 11.1 88.1999 18.2C88.3999 25.3 89.5999 39.5 89.5999 39.5C90.6999 42.7 91.7999 48 96.6999 61.9C101.6 75.8 110.4 90.7 122.6 102.9C134.8 115.2 156.8 132.3 161.1 159.5C165.6 186.8 160.7 207.5 157.6 207.5Z" fill="#FBAF5E"/>
<path d="M88 191.1C88 191.1 94.2 189.2 101.1 190.1" stroke="#1B1C1E" stroke-width="1.2604" stroke-miterlimit="10" stroke-linecap="round" stroke-linejoin="round"/>
<path d="M88.8999 190.8C88.8999 190.8 81.9999 180.7 86.5999 165.1C90.4999 151.7 105.1 147.5 111.2 148.2" stroke="#1B1C1E" stroke-width="1.2604" stroke-miterlimit="10" stroke-linecap="round" stroke-linejoin="round"/>
<path d="M82.1 207.5C82.1 207.5 81.6 201.2 85.3 197.6" stroke="#1B1C1E" stroke-width="1.2604" stroke-miterlimit="10" stroke-linecap="round" stroke-linejoin="round"/>
<path d="M50.9 135.2C50.9 135.2 43.3 185.7 41.4 191.1C41.4 191.1 28 191.1 28 207.6C28 207.6 59.8 207.6 61.1 207.6C62.1 207.6 72.3 180.9 79.1 163.6C82 156.1 84.4 150.4 85 149.4L50.9 135.2Z" fill="#FBAF5E"/>
<path d="M35.4999 207.5C35.4999 207.5 34.9999 201.2 38.6999 197.6" stroke="#1B1C1E" stroke-width="1.2604" stroke-miterlimit="10" stroke-linecap="round" stroke-linejoin="round"/>
<path d="M43.5 207.5C43.5 207.5 43.8 201.9 46.6 199.6" stroke="#1B1C1E" stroke-width="1.2604" stroke-miterlimit="10" stroke-linecap="round" stroke-linejoin="round"/>
<path d="M90.1 207.5C90.1 207.5 90.4 201.9 93.2 199.6" stroke="#1B1C1E" stroke-width="1.2604" stroke-miterlimit="10" stroke-linecap="round" stroke-linejoin="round"/>
<path d="M14.5 17.3999C15.4 17.5999 15.9 18.4999 15.7 19.3999C15.3 21.1999 14.3 24.0999 11.8 25.6999C7.89997 28.1999 2.49996 26.8999 1.19996 24.0999C-0.10004 21.1999 3.29997 15.5999 6.09997 15.6999C8.09997 15.7999 12.2 16.7999 14.5 17.3999Z" fill="#1B1C1E" stroke="#1B1C1E" stroke-width="1.818" stroke-miterlimit="10" stroke-linecap="round" stroke-linejoin="round"/>
<path d="M38.7323 28.6052C39.3472 26.6564 38.6928 24.7128 37.2706 24.2641C35.8485 23.8154 34.1972 25.0315 33.5823 26.9803C32.9674 28.9292 33.6219 30.8728 35.044 31.3215C36.4661 31.7702 38.1174 30.554 38.7323 28.6052Z" fill="#1B1C1E"/>
<path d="M48.2 16.5C46.7 16 43.1 15.2 41.8 16.5C40.2 18 42.2 20.4 46.4 21.5C51.3 22.7 54.1 18.5 48.2 16.5Z" fill="white"/>
<path d="M73.9 21.2999C72.5 20.4999 70.6 19.5999 69.3 17.2999C68 14.9999 69.3 12.5999 71.9 9.99993C74.5 7.49993 78.8 4.39992 81.1 6.69992C83.3 8.89992 81.9 20.4999 80 22.1999C78.8 23.3999 75.2 21.9999 73.9 21.2999Z" fill="#CC813E"/>
<path d="M5.59998 43.7C5.59998 43.7 8.29997 47.3 13.8 47.8C18.6 48.2 20.8 46.1 20.8 46.1" stroke="#1B1C1E" stroke-width="1.2604" stroke-miterlimit="10" stroke-linecap="round" stroke-linejoin="round"/>
<path d="M79.1 163.5C82 156 84.4 150.3 85 149.3" stroke="#1B1C1E" stroke-width="1.2604" stroke-miterlimit="10" stroke-linecap="round" stroke-linejoin="round"/>
<mask id="mask3_70_4685" style="mask-type:luminance" maskUnits="userSpaceOnUse" x="26" y="59" width="18" height="13">
<path d="M29.4 72C29.1 69.2 26.8 60.2 26.4 59.5C26.3 59.3 26.2 59.2 26 59C26 59 33.7 63.4 42.1 62.3C47.1 61.7 38.7 68.2 29.4 72Z" fill="white"/>
</mask>
<g mask="url(#mask3_70_4685)">
<g opacity="0.58">
<path d="M33.3 61C33.3 60.9 33.2 60.8 33.2 60.7L33.3 61Z" fill="#322015"/>
<path d="M28.2 62.1C28.1 62.1 28.2 62.2 28.2 62.1V62.1Z" fill="#322015"/>
<path d="M28.5 63C28.5 62.9 28.5 62.9 28.5 62.8C28.5 62.8 28.6 62.8 28.5 63Z" fill="#322015"/>
<path d="M41.3 62.7C41.4 62.7 41.4 62.7 41.5 62.8C41.3 62.9 41.3 62.8 41.3 62.7Z" fill="#322015"/>
<path d="M30 62.4C30.2 61.7 29.8 62.3 29.9 61.6C30 61.8 30 61.9 30.1 61.5C30.1 61.1 29.9 61.5 30 60.9L30.1 61.2C30.3 60.9 30.2 60.4 30.3 60.5C30.3 61.4 30.8 60.2 30.9 60.4V60.3L31.2 59.9C31.2 59.9 31.2 60 31.2 60.1C31.4 59.7 31.6 59.4 31.7 59.5C31.7 60 32.2 59.7 32.3 60.2C32.2 60.1 32.2 60 32.1 60.2L32 60.8C32.2 60.8 32.1 60.3 32.2 60.6C32.1 61.4 32 60.6 31.8 60.6C31.8 60.8 31.9 61 31.9 61C31.7 61 31.4 61.2 31.3 60.4C31.2 60.6 31.2 60.9 31.2 61C31.1 60.5 31 61.4 30.9 61C30.8 61.7 31.2 61.4 31.3 61.9C31.6 61.3 31.8 61.9 32.1 62.1C32.2 61.6 32.1 61.1 32.2 60.8C32.5 60.5 32.4 61.1 32.5 61.5C32.7 61.3 32.6 60.6 32.9 60.6L32.8 60.2C33.1 59.4 32.9 60.5 33 60.4C32.9 60.6 32.9 60.8 32.8 60.8C32.7 61.1 32.8 61.2 32.9 61.3C32.9 61.7 32.9 62.1 33.1 61.9C33 61.4 33.3 61.6 33.3 61.4V61.3C33.4 61.5 33.5 61.4 33.6 61.5V61.4C33.7 61.6 33.6 62.2 33.8 62.1C33.8 61.9 33.7 61.2 33.9 61.3C33.9 61 33.8 60.9 33.6 61C33.8 60.9 33.9 60.3 33.7 60.3C33.8 59.9 33.8 60.5 33.9 60.3C33.9 60.4 33.9 60.6 33.9 60.7C34 60.1 34.2 60.7 34.2 61.1L34.1 60.8C34 61.3 34.2 61.6 34.1 61.9C34.3 61.2 34.5 62.3 34.7 61.7L34.6 62.1C35 61.9 35.2 62.8 35.5 63C35.4 62.8 35.5 61.9 35.2 62.2C35.5 62.1 35.4 61.4 35.5 61C35.8 60.7 35.6 61.8 35.6 62L35.4 61.8C35.6 62.8 36.1 61.6 36.4 62.3C36.4 62.1 36.3 62.2 36.3 62.1C36.5 61.6 36.4 62.2 36.5 62.4C36.7 62.3 36.9 62.1 36.8 61.5C37 61.4 36.8 61.9 36.8 62.1V62L37 62.7C37.2 62.5 37.4 62.2 37.5 61.6C37.9 61.7 37.6 63 37.8 63.2C38 62.9 37.8 62.7 37.8 62.5L38 62.6C37.9 61.9 37.7 62.3 37.8 61.5C38 62.3 38.1 61.7 38.3 62.3V62.4C38.4 62.9 38.7 62.6 38.8 62.7C38.7 62.4 38.6 62.3 38.5 62.2C38.7 62 39.1 62.2 39.2 62.9C39.3 62.8 39.5 62.5 39.4 62.2C39.8 62.1 39.5 63.2 39.8 63V62.5C40.1 61.7 40.5 63.2 40.8 62.5V63.1C40.9 62.8 41 62.7 41 62.4L40.8 62.2C40.9 61.7 41 62.7 41.1 62.3C41.1 62.5 41 62.9 41 63.1C40.3 62.8 39.6 63.6 38.9 63C38.9 62.9 39 62.8 38.9 62.7C38.8 62.9 38.7 62.7 38.7 63C38.5 62.9 38.3 63.6 38.2 63.6C38.1 63.2 37.8 63.8 37.9 63L37.8 63.5C37.8 63.2 37.8 62.9 37.7 62.7C37.6 62.8 37.6 63.1 37.6 63.2C37.1 63.5 36.5 63.4 36.1 63.1L36.2 63.5C36.1 63.7 35.8 62.8 35.9 63.8C35.7 63.4 35.2 64 35.3 63.1C35.1 64 34.7 63.5 34.4 63.3C34.5 62.5 34.1 63.1 34.1 62.7C34 63.3 34.3 63.4 34.3 63.8C34.1 62.8 33.3 64.4 33.3 62.8C33.3 62.9 33.2 62.9 33.3 63C33.2 63 33.1 63.3 33 63.3C33 63 33.1 62.9 33 62.8C32.9 62.8 32.9 63.3 32.8 63.5C32.6 63.1 32.2 62.9 32.3 62.3C32.2 62.5 32.1 62.8 32.1 62.9C31.8 62.4 31.7 62.9 31.4 62.6C31.5 62.6 31.4 63.3 31.6 63C31.3 63.9 31 62.8 30.7 63.2V62.6C30.5 62.5 30.4 63 30.5 63.2C30.1 63.5 30 63.1 29.8 63.1C29.8 63.2 29.8 63.3 29.8 63.3H29.4C29.4 63.2 29.3 62.8 29.4 62.5C29.8 62.3 29.8 62.5 30 62.4Z" fill="#322015"/>
<path d="M33.2 60C33.1 60.1 33.1 60.2 33.1 60.2C33.1 60.1 33.2 60 33.2 60Z" fill="#322015"/>
<path d="M26.8001 60.3C27.1001 59.5 27 60.5 27.2 60.3C27.1 60.1 27.3001 59.6 27.3001 59.4C27.2001 60.5 27.6001 59.2 27.8001 59.5C27.9001 59.1 27.8001 59 27.8001 58.6C27.9001 58.9 28.1 59.1 28.0001 59.8C28.3001 59.9 28.5 59.7 28.7 59.8C28.5 59.5 28.8001 59.2 28.8001 58.6C28.9001 59.4 29.2001 60.3 29.3001 61.3C29.5001 60.6 29.5001 60.6 29.6001 59.9C30.0001 59.5 29.6 60.6 30 60.4L29.8001 60.5C29.9001 60.7 29.8001 61.4 29.8001 61.8L29.4 61.6C29.3 62.1 29.6001 62 29.6001 62.2C29.6001 62.8 29.3001 62.6 29.3001 63C29.3001 62.6 29.1 62.7 29.0001 62.5L28.9 62.7C28.7 62.9 28.7 62.3 28.5001 62.2C28.5001 62.3 28.5001 62.3 28.5001 62.4C28.5001 62.1 28.5 61.7 28.4 61.6H28.5001C28.5001 61 28.2001 60.5 28.6001 59.9L28.2 60C28.1 60.7 28 61.7 28.2 61.8V62.1C27.9 62.4 27.8001 61.5 28.0001 61C28.2 59.4 27.4 60.8 27.2 60.1C27.1 60.5 27.2 60.7 27.2 61C27.3 61.1 27.3 61.1 27.4 60.7C27.7 61 27.0001 62 27.5001 62C27.8001 61.8 27.4 61.3 27.7 61.3V62.5C27.5 62.4 27.4 62.2 27.2 62C26.5 61 25.7 61.5 25.7 61.5C25.1 61.3 24.4001 61 23.8001 60.7C23.2001 60.4 22.5 60.1 21.9 59.7C21.6 59.4 21.4001 59.3 21.8001 58.2C22.0001 58 22.2001 58.2 22.3001 57.8C22.1001 58.2 22.2 58.5 22.4 58.6C22.6 58.2 22.3 58.3 22.4 58.3C22.5 58.1 22.5001 57.9 22.5001 57.9C23.0001 57.4 23.3001 57.7 23.1001 58.5C23.5001 58.2 23.2001 57.8 23.3001 57.5C24.0001 57.4 24.4001 57.6 25.0001 57.8C24.8001 58.5 24.9001 58.3 24.8001 58.8L24.9 58.5C24.8 58.6 24.8001 59.2 24.6001 59.3C25.2001 58.8 24.7 60.4 24.9 60.8L25.0001 60.4C25.2001 60.5 25.3 60.6 25.4 60.8C26 60.2 25.1 60.6 25.5001 59.7L25.6001 59.9C25.6001 59.5 25.8 58.9 25.7 58.6C25.8 59.3 26.2 58.5 26.4 59.1C26.5 58.7 26.2 58.2 26.2 58.2C26.3 58.2 26.5001 58.6 26.6001 58.2L26.5001 58.7C26.7 58.8 26.6001 58.2 26.8001 57.9C27.3001 58.3 26.4001 59.9 26.8001 60.3Z" fill="#322015"/>
<path d="M32.1 61C32 61 32 61 31.9 60.9C32 60.9 32 60.9 32.1 61Z" fill="#322015"/>
<path d="M31.2 59C31.1 59.2 31.2 59.3 31.2 59.6C31.2 59.4 31 59.4 31.2 59Z" fill="#322015"/>
<path d="M43.2 61.6L43.5 61.2C43.5 60.5 43.3 61 43.2 60.7C43.5 60.5 43.4 60.8 43.6 61.2C43.7 61.2 43.7999 61.5 43.8999 61.7C43.5999 61.2 43.7 62.8 43.2 61.6Z" fill="#322015"/>
<path d="M42.5 62.4C42.3 63.2 42.1 62 41.9 62.3C41.9 62.3 41.9 62.4 42 62.5L41.8 62.4V62.6C41.8 62.1 41.6 61.9 41.5 61.6C41.7 61.1 41.6 62.2 41.8 61.6C41.8 61.4 41.7 61 41.7 60.9C41.8 61.1 41.9 61.4 41.9 61.7C42 61.8 42 61.5 42 61.3C42.2 61.6 42.2 62.3 42.4 62.1C42.5 61.7 42.3 61.4 42.5 61.6C42.4 62.4 42.7 61.5 42.9 61.9C43.1 61.7 43.2 61.3 43.1 61C43.1 61.6 43.3 62.1 43.5 62.3L43.2 61.8L43.1 62.5C42.7 62.2 42.6 62.3 42.5 62.4Z" fill="#322015"/>
<path d="M41.5 60.9C41.5 60.9 41.5 60.8 41.4 60.8C41.5 60.7 41.5 60.8 41.5 60.9Z" fill="#322015"/>
<path d="M43 60.8L42.9 60.7L43 60.5V60.8Z" fill="#322015"/>
<path d="M41.4 60.4C41.4 60.4 41.5 60.6 41.4 60.6V60.4Z" fill="#322015"/>
<path d="M41.2 60.8L41.1 61.2L41 60.9L41.2 60.8Z" fill="#322015"/>
<path d="M37.1 61.1C37.2 60.9 37.2 61.2999 37.2 61.6999C37 61.7999 37.2 61.3 37.1 61.1Z" fill="#322015"/>
<path d="M34.6 60.3C34.8 60 34.9 60.5 35 60.5C34.8 60.7 34.7 60.6 34.6 60.3Z" fill="#322015"/>
<path d="M33.6999 58.6C33.6999 58.8 33.7999 58.8 33.6999 58.9V59.8C33.3999 60 33.5999 59 33.6999 58.6Z" fill="#322015"/>
<path d="M32.5 58.3L32.6 58.6001H32.5C32.5 58.9001 32.5 59.1 32.6 59.4C32.5 59.3 32.4 58.9 32.5 58.3Z" fill="#322015"/>
<path d="M32.6 59.6C32.6 59.5 32.6 59.5 32.6 59.6C32.6 59.5 32.7 59.6 32.6 59.6C32.7 59.7 32.6 59.7 32.6 59.6Z" fill="#322015"/>
<path d="M30.5 58.9L30.4 59.4C30.2 59.5 30.1 58.3 29.8 59.1C30 58.8 29.7 58.5 30 58.4C30 58.9 30.3 59 30.5 58.9Z" fill="#322015"/>
<path d="M29.5 59.5C29.5 59.7 29.4 59.7 29.4 59.9C29.3 59.9 29.3 59.7 29.4 59.5C29.3 60.1 29.5 59.1 29.5 59.5Z" fill="#322015"/>
<path d="M28.5 59.2C28.6 59.2 28.6 59.3 28.5 59.4C28.3 59.3 28.5 58.8 28.5 58.4C28.8 58.2 28.7 59 28.5 59.2Z" fill="#322015"/>
<path d="M26.1 62.5C26.2 62.1 26.4 62.2 26.4 62.3C26.4 62.3 26.2 62.4 26.1 62.5Z" fill="#322015"/>
<path d="M27 59L27.1 58.9L27 59.6V59Z" fill="#322015"/>
</g>
</g>
</svg>
