<svg width="279" height="173" viewBox="0 0 279 173" fill="none" xmlns="http://www.w3.org/2000/svg">
<path d="M234.4 79.2001C234.4 79.2001 255.7 70.4001 253.4 44.6001C253.4 44.6001 259.5 69.6001 236.1 82.4001C236 82.5001 232.5 81.1001 234.4 79.2001Z" fill="#D29F7E"/>
<mask id="mask0_70_3297" style="mask-type:luminance" maskUnits="userSpaceOnUse" x="233" y="44" width="22" height="39">
<path d="M234.4 79.2001C234.4 79.2001 255.7 70.4001 253.4 44.6001C253.4 44.6001 259.5 69.6001 236.1 82.4001C236 82.5001 232.5 81.1001 234.4 79.2001Z" fill="white"/>
</mask>
<g mask="url(#mask0_70_3297)">
<g opacity="0.88">
<path d="M239.1 78.8C239.1 78.9 239.1 78.9 239.1 79C239.2 79 239.1 78.9 239.1 78.8Z" fill="#322015"/>
<path d="M242.7 77.1002L242.6 76.9001C242.6 77.0001 242.6 77.0002 242.7 77.1002Z" fill="#322015"/>
<path d="M235.5 79.8001C235.4 79.7001 235.5 79.7001 235.5 79.8001V79.8001Z" fill="#322015"/>
<path d="M243.8 76.1002V76.0002C243.7 75.9002 243.8 76.0002 243.8 76.1002Z" fill="#322015"/>
<path d="M236.7 79.6001C236.9 80.2001 236.6 79.7001 236.7 80.3001C236.7 80.1001 236.8 80.0001 236.9 80.4001C236.9 80.8001 236.7 80.4001 236.9 80.9001L237 80.7001C237.1 80.9001 237.2 81.4001 237.2 81.3001C237.1 80.5001 237.6 81.5001 237.7 81.3001V81.4001L238 81.7001V81.6001C238.2 81.9001 238.4 82.1001 238.5 82.0001C238.4 81.6001 238.9 81.7001 238.8 81.3001C238.8 81.4001 238.7 81.4001 238.6 81.4001L238.4 80.9001C238.5 80.9001 238.6 81.3001 238.6 81.0001C238.3 80.3001 238.4 81.1001 238.3 81.0001C238.3 80.8001 238.3 80.7001 238.3 80.6001C238.1 80.6001 237.9 80.5001 238 81.2001C237.9 81.1001 237.8 80.8001 237.8 80.7001C237.8 81.1001 237.6 80.3001 237.6 80.7001C237.4 80.1001 237.8 80.3001 237.7 79.9001C238 80.3001 238.1 79.8001 238.2 79.7001C238.4 80.1001 238.4 80.6001 238.6 80.8001C238.9 81.0001 238.7 80.5001 238.7 80.2001C238.9 80.3001 239 80.9001 239.2 80.9001V81.2001C239.6 81.8001 239.2 80.9001 239.4 81.0001C239.3 80.8001 239.2 80.7001 239.1 80.8001C239 80.6001 239 80.4001 239.1 80.4001C239 80.1001 238.9 79.7001 239.1 79.8001C239.2 80.2001 239.3 80.0001 239.4 80.2001V80.3001C239.4 80.1001 239.6 80.1001 239.6 80.1001V80.2001C239.6 80.0001 239.4 79.6001 239.6 79.6001C239.7 79.8001 239.8 80.3001 239.9 80.2001C240 80.5001 239.9 80.6001 239.8 80.5001C239.9 80.6001 240.2 81.0001 240.1 81.1001C240.3 81.4001 240.2 80.9001 240.3 81.0001C240.2 80.9001 240.2 80.8001 240.1 80.7001C240.3 81.2001 240.4 80.6001 240.2 80.3001V80.6001C240 80.2001 240 79.9001 239.9 79.7001C240.2 80.3001 240.1 79.3001 240.4 79.7001L240.2 79.4001C240.5 79.4001 240.4 78.7001 240.5 78.4001C240.5 78.6001 240.9 79.3001 240.6 79.1001C240.9 79.1001 241 79.7001 241.3 80.0001C241.6 80.1001 241.1 79.4001 241 79.1001L240.9 79.3001C240.6 78.5001 241.4 79.2001 241.4 78.6001C241.5 78.8001 241.4 78.7001 241.4 78.8001C241.7 79.1001 241.5 78.7001 241.4 78.5001C241.5 78.5001 241.8 78.6001 242 79.1001C242.2 79.1001 241.8 78.8001 241.8 78.7001L241.9 78.8001L241.7 78.2001C241.9 78.3001 242.2 78.4001 242.5 78.8001C242.7 78.6001 241.9 77.8001 242 77.5001C242.2 77.7001 242.2 77.8001 242.3 78.0001L242.4 77.9001C242.7 78.4001 242.4 78.3001 242.8 78.8001C242.5 78.1001 242.9 78.5001 242.8 78.0001C242.6 77.6001 243 77.7001 243 77.6001C243.1 77.9001 243 78.0001 243 78.1001C243.2 78.2001 243.4 77.8001 243.1 77.3001C243.2 77.3001 243.5 77.4001 243.6 77.7001C243.9 77.6001 243.1 77.0001 243.4 76.9001L243.7 77.3001C244.3 77.6001 243.7 76.5001 244.3 76.8001L243.9 76.4001C244.1 76.5001 244.3 76.6001 244.4 76.7001V76.9001C244.8 77.2001 244.2 76.5001 244.5 76.6001C244.4 76.5001 244 76.3001 243.9 76.1001C243.7 76.7001 242.8 76.4001 242.8 77.1001C242.9 77.1001 242.9 77.2001 243 77.3001C242.9 77.2001 242.9 77.4001 242.7 77.2001C242.7 77.4001 242.2 76.9001 242.1 76.9001C242.3 77.2001 241.8 76.9001 242.2 77.4001L241.9 77.1001C242 77.3001 242.2 77.6001 242.2 77.7001C242.1 77.7001 241.9 77.5001 241.9 77.3001C241.5 77.3001 241.2 77.6001 241 77.9001L240.9 77.6001C240.7 77.5001 240.9 78.2001 240.6 77.5001C240.6 77.8001 240.1 77.5001 240.5 78.2001C240 77.6001 240 78.1001 239.8 78.3001C240.2 78.9001 239.7 78.6001 239.8 78.9001C239.5 78.4001 239.7 78.3001 239.6 78.0001C239.8 78.9001 238.8 77.7001 239.3 79.0001L239.2 78.9001C239.2 78.9001 239 78.7001 238.9 78.7001C239 78.9001 239.1 79.0001 239 79.1001C238.9 79.1001 238.8 78.7001 238.7 78.6001C238.7 79.0001 238.5 79.2001 238.7 79.7001C238.6 79.6001 238.4 79.3001 238.4 79.2001C238.3 79.7001 238.1 79.2001 238 79.6001C238.1 79.6001 237.8 79.0001 238 79.2001C237.6 78.5001 237.7 79.5001 237.3 79.1001L237.4 79.6001C237.3 79.7001 237.2 79.3001 237.2 79.1001C236.9 78.9001 236.9 79.2001 236.7 79.2001C236.7 79.1001 236.7 79.0001 236.7 79.1001H236.5C236.5 79.2001 236.5 79.5001 236.6 79.8001C236.5 79.6001 236.5 79.4001 236.7 79.6001Z" fill="#322015"/>
<path d="M239.6 81.2C239.5 81.1 239.5 81 239.5 81C239.5 81.1 239.5 81.2 239.6 81.2Z" fill="#322015"/>
<path d="M234.4 81.2C234.5 82 234.5 81.1 234.7 81.3C234.6 81.4 234.7 81.9001 234.7 82.1001C234.7 81.1001 234.9 82.3 235.1 82C235.2 82.3 235 82.4 235.1 82.7C235.2 82.4 235.4 82.3 235.4 81.7C235.6 81.7 235.8 81.8 236 81.7C235.9 81.9 236.1 82.2 236 82.7C236.1 82 236.3 81.2 236.4 80.4C236.6 81 236.6 81.0001 236.7 81.6001C237.1 81.9001 236.6 81.0001 237 81.1001L236.9 81C237 80.8 236.8 80.2 236.8 79.8L236.5 80C236.4 79.6 236.6 79.6 236.6 79.5C236.6 79 236.4 79.2 236.3 78.8C236.3 79.1 236.2 79.1 236.2 79.2L236.1 79C235.9 78.8 236 79.4 235.9 79.4C235.9 79.3 235.9 79.3 235.9 79.3C235.9 79.6 235.9 79.9 235.9 80H236C236 80.5 235.8 80.9 236.1 81.5L235.8 81.4C235.7 80.8 235.7 79.9 235.8 79.8V79.6001C235.6 79.3001 235.5 80.1001 235.7 80.6001C235.8 82.0001 235.2 80.7 235.1 81.3C235 80.9 235.1 80.8 235.2 80.5C235.3 80.4 235.3 80.4 235.4 80.7C235.7 80.4 235.2 79.5001 235.5 79.6001C235.7 79.8001 235.4 80.2 235.6 80.3V79.2C235.5 79.2 235.4 79.4001 235.3 79.6001C235.1 80.0001 234.8 80 234.6 80C234.4 80 234.3 79.8 234.3 79.8C233.4 80 232.5 80.1 231.6 80C231.3 80.1 231.2 80 230.9 81C230.9 81.2 231.1 81.2 231 81.5C231.1 81.1 231.3 80.9 231.4 81C231.4 81.4 231.2 81.2 231.2 81.3C231.1 81.5 231.1 81.6001 231 81.6001C231.1 82.2001 231.5 82.1 231.7 81.4C231.8 81.8 231.5 82 231.4 82.3C231.9 82.7 232.3 82.6 232.9 82.7C232.9 82 233 82.3 233.1 81.8V82C233.1 81.9 233.2 81.4 233.1 81.3C233.4 81.8 233.5 80.4001 233.6 80.1001V80.5C233.8 80.4 233.8 80.4 233.9 80.2C234.2 80.9 233.7 80.3 233.8 81.2L233.9 81.1001C233.9 81.4001 233.8 82 233.8 82.3C234.1 81.7 234.2 82.5001 234.5 82.1001C234.5 82.5001 234.2 82.8 234.2 82.9C234.3 82.9 234.5 82.6 234.5 83V82.5C234.7 82.4 234.5 83 234.6 83.3C234.6 83 234.1 81.5 234.4 81.2Z" fill="#322015"/>
<path d="M238.4 80.6001C238.3 80.6001 238.3 80.6001 238.3 80.7001C238.4 80.6001 238.4 80.6001 238.4 80.6001Z" fill="#322015"/>
<path d="M237.9 81.7002C237.9 81.8002 237.9 81.8002 237.9 81.9002C238 81.8002 238 81.8002 237.9 81.7002Z" fill="#322015"/>
<path d="M238.1 82.4001C238 82.2001 238.1 82.2001 238 81.9001C238 82.1001 237.8 82.1001 238.1 82.4001Z" fill="#322015"/>
<path d="M249.1 73.9001C249 73.8001 249 73.6001 248.8 73.6001V73.8001L249.1 73.9001Z" fill="#322015"/>
<path d="M248.4 73.9001H248.2L248.7 74.4001C248.7 74.2001 248.3 74.0001 248.4 73.9001Z" fill="#322015"/>
<path d="M247.9 74.0002L247.8 73.9001C247.8 73.9001 247.8 74.0002 247.9 74.0002Z" fill="#322015"/>
<path d="M248.1 74.2L248.4 74.5L248.3 74.1L248.1 74.2C248 74.1 248 74.1 247.9 74L248.1 74.2Z" fill="#322015"/>
<path d="M247 74.1002C247.2 74.2002 247.3 74.4002 247.5 74.5002C247.7 74.5002 247.2 74.0002 247.5 74.1002C247.7 74.5002 247.8 74.2002 248 74.3002C247.6 74.1002 247.3 73.9002 247 74.1002L247.3 74.2002C247.3 74.2002 247.2 74.1002 247 74.1002Z" fill="#322015"/>
<path d="M247.1 75.2L246.8 74.8C247 74.9 247.1 74.8 247.5 75.1C247.5 75 247.3 74.9 247.3 74.7C247.5 74.8 247.7 74.9 247.5 74.6C247.1 74.6 247 74.5 246.8 74.6C246.7 74.5 246.8 74.5 246.8 74.5H246.5C246.8 74.9 246.7 75.1 247.1 75.2Z" fill="#322015"/>
<path d="M246.7 75.1C246.8 75 246.5 74.6 246.2 74.5C246.2 74.7 246.3 74.8 246.3 74.9C246.3 74.9 246.4 74.8 246.7 75.1Z" fill="#322015"/>
<path d="M246.5 75.3001C246.3 75.2001 245.8 74.9001 246.1 75.3001C246.2 75.1001 246.7 75.6001 246.5 75.3001Z" fill="#322015"/>
<path d="M245.5 75.7002H245.9C246.4 76.1002 245.9 75.9002 246.1 76.2002C246.3 76.1002 246.2 76.0002 246 75.7002C246.1 75.7002 245.9 75.4002 245.8 75.2002C246 75.7002 244.9 74.7002 245.5 75.7002Z" fill="#322015"/>
<path d="M246.3 75.7L246.2 75.5V75.7H246.3Z" fill="#322015"/>
<path d="M244.6 75.7002C244 75.3002 244.7 76.2002 244.3 76.1002C244.3 76.1002 244.2 76.0002 244.2 75.9002L244.1 76.0002L244 75.9002C244.3 76.2002 244.3 76.4002 244.5 76.7002C244.9 76.9002 244.2 76.3002 244.6 76.5002C244.7 76.7002 244.9 76.9002 245 77.0002C244.9 76.8002 244.8 76.6002 244.6 76.4002C244.6 76.3002 244.8 76.5002 244.9 76.6002C244.8 76.3002 244.4 75.9002 244.6 75.9002C244.9 76.1002 245 76.4002 245 76.1002C244.5 75.7002 245.2 76.0002 245 75.7002C245.2 75.7002 245.5 75.9002 245.7 76.1002C245.3 75.7002 245.1 75.3002 245.1 75.2002L245.2 75.7002L244.7 75.3002C244.9 75.6002 244.8 75.7002 244.6 75.7002Z" fill="#322015"/>
<path d="M245.9 76.3L246 76.4L246.1 76.5L245.9 76.3Z" fill="#322015"/>
<path d="M244.9 77.3001L244.6 77.1001L244.8 77.3001H244.9Z" fill="#322015"/>
<path d="M242.1 79.1001C242.3 79.2001 242.1 78.9001 241.9 78.6001C241.7 78.6001 242.1 78.9001 242.1 79.1001Z" fill="#322015"/>
<path d="M240.5 80.6C240.7 80.8 240.6 80.4 240.8 80.3C240.6 80.2 240.5 80.4 240.5 80.6Z" fill="#322015"/>
<path d="M240.3 82.2C240.3 82.1 240.3 82 240.2 82L240 81.3C239.7 81.1 240.1 82 240.3 82.2Z" fill="#322015"/>
<path d="M239.3 82.8L239.4 82.5H239.3C239.2 82.2 239.2 82.1 239.2 81.8C239.1 82 239.1 82.3 239.3 82.8Z" fill="#322015"/>
<path d="M239.2 81.6001C239.3 81.7001 239.3 81.8001 239.2 81.6001V81.6001Z" fill="#322015"/>
<path d="M239.1 81.7002C239.2 81.7002 239.2 81.7002 239.1 81.7002C239.1 81.5002 239.2 81.6002 239.1 81.7002Z" fill="#322015"/>
<path d="M239 82.5L238.7 82.7L238.9 82.8C238.8 82.3 239.2 82.9 239 82.5Z" fill="#322015"/>
<path d="M237.4 82.6001L237.3 82.2001C237.1 82.1001 237.1 83.2001 236.8 82.5001C236.9 82.7001 236.8 83.0001 237 83.1001C237 82.6001 237.2 82.5001 237.4 82.6001Z" fill="#322015"/>
<path d="M236.6 82.1001C236.6 82.0001 236.5 81.9 236.5 81.8C236.4 81.8 236.4 82 236.5 82.2C236.3 81.5 236.6 82.5001 236.6 82.1001Z" fill="#322015"/>
<path d="M235.7 82.3001C235.8 82.3001 235.8 82.2001 235.7 82.1001C235.5 82.2001 235.7 82.6001 235.6 83.0001C235.9 83.2001 235.9 82.5001 235.7 82.3001Z" fill="#322015"/>
<path d="M234.1 79.2002C234.2 79.6002 234.3 79.5002 234.3 79.4002C234.3 79.4002 234.2 79.3002 234.1 79.2002Z" fill="#322015"/>
<path d="M234.4 82.4001L234.5 82.5002V81.9001L234.4 82.4001Z" fill="#322015"/>
</g>
</g>
<path d="M24.8 167.2C22.4 165.9 263.2 163.6 277.2 167.2C287.3 169.8 250.7 172.4 207.6 172.3C161.8 172.3 108.6 169.5 93.7 171C64.7 173.8 32.9 171.6 24.8 167.2Z" fill="#1B1C1E"/>
<path d="M219.5 133.6C211.2 140.5 205 160.7 203 167.6C202.6 169 201.3 170 199.8 170H194.4C192.8 170 191.5 168.8 191.3 167.2C189 146.4 195.9 122.9 195.9 122.9C195.9 122.9 202.4 116.7 211.1 118.6C219.9 120.7 234.1 121.4 219.5 133.6Z" fill="#D29F7E"/>
<path d="M194.6 169.8C194.6 169.8 194.1 165.5 194.8 162" stroke="#1B1C1E" stroke-width="1.2604" stroke-miterlimit="10" stroke-linecap="round" stroke-linejoin="round"/>
<path d="M199.1 169.4C199.1 169.4 199.3 165.6 199.7 163.9" stroke="#1B1C1E" stroke-width="1.2604" stroke-miterlimit="10" stroke-linecap="round" stroke-linejoin="round"/>
<mask id="mask1_70_3297" style="mask-type:luminance" maskUnits="userSpaceOnUse" x="190" y="118" width="36" height="52">
<path d="M219.5 133.6C211.2 140.5 205 160.7 203 167.6C202.6 169 201.3 170 199.8 170H194.4C192.8 170 191.5 168.8 191.3 167.2C189 146.4 195.9 122.9 195.9 122.9C195.9 122.9 202.4 116.7 211.1 118.6C219.9 120.7 234.1 121.4 219.5 133.6Z" fill="white"/>
</mask>
<g mask="url(#mask1_70_3297)">
<g opacity="0.84">
<path d="M205 123.9V123.6C205.1 123.7 205.1 123.8 205 123.9Z" fill="#322015"/>
<path d="M210 127.7C210 127.7 210 127.8 209.9 127.8C209.9 127.7 210 127.7 210 127.7Z" fill="#322015"/>
<path d="M216.4 128.4C216.5 128.4 216.5 128.5 216.4 128.4V128.5C216.4 128.6 216.4 128.5 216.4 128.4Z" fill="#322015"/>
<path d="M215 132.6L214.8 132.8C214.9 132.6 214.9 132.6 215 132.6Z" fill="#322015"/>
<path d="M216.7 127.5C216.7 127.6 216.6 127.6 216.6 127.7C216.6 127.6 216.6 127.6 216.7 127.5Z" fill="#322015"/>
<path d="M211 124.7C211 124.8 211 124.8 211 124.8C210.9 124.8 210.9 124.8 211 124.7Z" fill="#322015"/>
<path d="M202.9 123.5C202.8 123.5 202.8 123.4 202.8 123.4C202.9 123.3 202.9 123.3 202.9 123.5Z" fill="#322015"/>
<path d="M215 126.9C214.3 127.4 215.1 127.1 214.5 127.6C214.6 127.4 214.6 127.2 214.2 127.5C213.9 127.9 214.4 127.6 213.9 128.1L214 127.8C213.7 128 213.4 128.4 213.3 128.3C213.9 127.5 212.7 128.2 212.7 128V128.1C212.5 128.2 212.4 128.2 212.3 128.3L212.4 128.2C212 128.5 211.8 128.7 211.8 128.6C211.9 128.3 211.9 128.3 211.8 128.2C211.7 128.1 211.6 128.1 211.7 127.9C211.7 128.1 211.8 128.1 211.9 128L212.1 127.4C211.9 127.4 211.9 128 211.9 127.5C212.1 126.9 212.2 127.2 212.2 127.4C212.2 127.5 212.2 127.5 212.3 127.5C212.3 127.4 212.4 127.2 212.3 127.1V127H212.4C212.6 127 213 127 212.6 127.8C212.8 127.7 213 127.4 213 127.3C212.8 127.8 213.4 127 213.3 127.5C213.8 126.9 213.2 126.9 213.3 126.4C213 126.6 212.9 126.5 212.8 126.4C212.6 126.3 212.6 126 212.4 125.9C212.2 126.5 212.2 127 212 127.3C211.6 127.6 211.9 126.9 211.8 126.5C211.6 126.6 211.4 127.4 211.2 127.4V127.8C210.8 128.5 211.2 127.4 211 127.5C211.1 127.3 211.2 127.1 211.3 127.2C211.4 126.9 211.4 126.8 211.3 126.7C211.4 126.3 211.5 125.9 211.3 126C211.3 126.5 211 126.3 210.9 126.5V126.6C210.8 126.4 210.7 126.4 210.6 126.3V126.4C210.6 126.2 210.7 125.6 210.5 125.7C210.4 125.9 210.4 126.6 210.3 126.5C210.2 126.9 210.4 127 210.5 126.9C210.3 127 210.1 127.6 210.2 127.6C210 128 210.1 127.4 209.9 127.5C210 127.4 210 127.2 210 127.1C209.8 127.7 209.7 127 209.8 126.6L209.9 127C210.1 126.5 210 126.1 210.1 125.9C209.8 126.7 209.8 125.4 209.5 126L209.7 125.6C209.3 125.7 209.2 124.8 208.9 124.5C209 124.8 208.7 125.7 209 125.4C208.6 125.5 208.7 126.2 208.4 126.6C208.1 126.8 208.5 125.8 208.5 125.5L208.6 125.7C208.6 124.6 207.9 125.7 207.7 125C207.6 125.3 207.7 125.2 207.8 125.3C207.5 125.8 207.7 125.2 207.6 124.9C207.4 124.9 207.1 125.1 207.1 125.8C206.9 125.9 207.2 125.4 207.2 125.2L207.1 125.3V124.5C206.9 124.7 206.6 125 206.4 125.6C206 125.4 206.6 124.1 206.4 123.8C206.2 124.1 206.3 124.3 206.3 124.5L206.1 124.4C206 125.1 206.3 124.8 206.1 125.6C206.1 124.7 205.9 125.3 205.7 124.7V124.6C205.7 124 205.3 124.3 205.2 124.2C205.2 124.6 205.4 124.6 205.5 124.8C205.3 125 204.9 124.7 204.8 123.9C204.7 124 204.4 124.3 204.5 124.6C204.1 124.7 204.5 123.5 204.2 123.7L204.1 124.3C203.6 125 203.5 123.5 203.1 124.1L203.2 123.4C203.1 123.7 202.9 123.8 202.8 124.1L202.9 124.4C202.7 125 202.8 123.8 202.6 124.2C202.6 124 202.9 123.5 202.9 123.3C203.5 123.8 204.4 123 205 123.8C205 123.9 204.9 124 204.9 124.1C205 123.9 205.1 124.2 205.2 123.8V123.7C205.4 123.9 205.7 123.1 205.8 123.1C205.8 123.6 206.2 123 206 123.8L206.2 123.3C206.2 123.6 206.1 124 206.1 124.2C206.2 124.2 206.3 123.8 206.3 123.6C206.9 123.4 207.4 123.6 207.9 124V123.6C208.1 123.4 208.2 124.4 208.3 123.4C208.5 123.8 209.1 123.3 208.8 124.3C209.2 123.4 209.5 124.1 209.8 124.3C209.5 125.1 210 124.6 210 125C210.2 124.4 209.9 124.3 210 123.8C210.1 124.9 211.2 123.4 210.8 125.1C210.9 125 210.9 125 210.9 124.9C211 124.9 211.2 124.7 211.2 124.6C211.1 124.9 211 125 211.1 125.1C211.2 125.1 211.3 124.6 211.4 124.4C211.5 124.8 211.9 125.1 211.7 125.8C211.8 125.6 212 125.3 212 125.2C212.2 125.9 212.4 125.2 212.7 125.7C212.5 125.6 212.9 125 212.6 125.2C212.8 124.8 213 124.9 213.2 125C213.4 125.2 213.6 125.6 214 125.5C213.9 125.7 213.9 125.9 213.8 126.1C214 126.4 214.4 125.9 214.3 125.6C214.7 125.6 214.8 125.7 214.8 125.9C214.9 126 214.9 126.2 215 126.3C215.1 126.3 215.1 126.2 215.1 126.1C215.2 126.2 215.3 126.3 215.4 126.4C215.3 126.5 215.2 126.9 214.9 127.1C215.2 127.2 215.3 126.9 215 126.9Z" fill="#322015"/>
<path d="M210.7 127.9C210.8 127.8 210.8 127.7 210.9 127.7C210.9 127.8 210.8 127.8 210.7 127.9Z" fill="#322015"/>
<path d="M216.3 130.9C215.5 131.4 216.3 130.6 216 130.6C216 130.8 215.5 131.1 215.3 131.2C216.2 130.3 215 131.2 215 130.7C214.7 130.9 214.7 131.1 214.4 131.4C214.5 131.1 214.5 130.7 215 130.3C214.8 130 214.5 130 214.5 129.8C214.4 130.1 214 130.3 213.6 130.7C214.1 130 214.6 129 215.1 128.1C214.5 128.6 214.4 128.6 213.9 129.1C213.3 129.1 214.4 128.6 214 128.4H214.2C214.3 128.1 214.8 127.6 215.1 127.3C215.2 127.4 215.3 127.6 215.3 127.7C215.7 127.4 215.5 127.2 215.5 127C215.9 126.5 216 126.9 216.3 126.5C216 126.8 216.3 126.9 216.2 127.1L216.4 126.9C216.8 126.9 216.3 127.4 216.4 127.6C216.5 127.6 216.5 127.5 216.6 127.5C216.4 127.7 216.1 128 216.1 128.2V128.1C215.7 128.6 215.6 129.2 214.9 129.4L215.3 129.6C215.9 129.1 216.7 128.4 216.6 128.1L216.8 127.9C217.3 127.8 216.7 128.7 216.1 129C214.8 130.2 216.5 129.6 216.1 130.3C216.5 130 216.6 129.8 216.8 129.5C216.8 129.4 216.8 129.3 216.4 129.6C216.4 129.1 217.7 128.8 217.2 128.5C216.9 128.5 216.8 129.2 216.5 128.9L217.4 127.9C217.5 128.1 217.5 128.4 217.4 128.6C217.3 129.9 218.3 130 218.3 130C219 131.3 219.6 132.5 220.2 133.8C220.3 134.3 220.4 134.4 219.3 135.2C219 135.2 219 135 218.6 135.3C219 135 219.2 134.7 219 134.6C218.6 134.8 218.9 134.9 218.8 134.9H218.7C218.5 135 218.4 135.2 218.4 135.2C217.7 135.3 217.6 134.9 218.2 134.3C217.7 134.4 217.6 134.8 217.4 135.1C216.7 134.7 216.5 134.2 216.1 133.7C216.8 133.2 216.5 133.3 216.9 133L216.6 133.1C216.7 133 217.2 132.6 217.4 132.7C216.6 132.7 218.1 131.7 218.2 131.2L217.8 131.5C217.7 131.3 217.7 131.2 217.8 130.9C216.9 131 217.9 131.3 216.9 131.8L217 131.6C216.7 131.9 216.1 132.3 215.9 132.6C216.3 131.9 215.4 132.3 215.6 131.7C215.2 132 215.1 132.5 215.1 132.6C215 132.5 215.1 132.1 214.8 132.4L215.3 132C215.2 131.8 214.8 132.3 214.5 132.5C214.4 132.2 216.2 131.5 216.3 130.9Z" fill="#322015"/>
<path d="M212.1 127.1C212.2 127.1 212.2 127.1 212.3 127.2C212.2 127.2 212.2 127.1 212.1 127.1Z" fill="#322015"/>
<path d="M212.4 128.5C212.3 128.6 212.3 128.6 212.3 128.7C212.2 128.6 212.3 128.6 212.4 128.5Z" fill="#322015"/>
<path d="M211.8 129.2C212 129 212 129 212.2 128.7C212.1 128.8 212.2 129 211.8 129.2Z" fill="#322015"/>
<path d="M195.7 125.7C195.7 125.5 195.6 125.3 195.6 125.2L195.8 125.4L195.7 125.7Z" fill="#322015"/>
<path d="M196.2 125.1L196.4 124.9L196.5 125.7C196.2 125.7 196.4 125.1 196.2 125.1Z" fill="#322015"/>
<path d="M196.8 125V125.6L196.6 125.1L196.8 125C196.7 124.8 196.8 124.8 196.8 124.7V125Z" fill="#322015"/>
<path d="M197.6 124C197.5 124.2 197.6 124.6 197.6 124.8C197.4 125 197.4 124.1 197.2 124.4C197.4 124.9 197.1 124.7 196.9 125.1C197 124.5 197.1 124.2 197.4 124V124.4C197.6 124.4 197.5 124.1 197.6 124Z" fill="#322015"/>
<path d="M198.6 125L198.5 124.4C198.4 124.7 198.2 124.6 198.1 125.2C198 125.1 198 124.9 198 124.7C197.9 125 197.8 125.2 197.8 124.8C198.2 124.4 198.1 124.3 198.5 124.2C198.5 124.1 198.5 124.1 198.4 124.1L198.7 123.8C198.6 124.5 198.9 124.6 198.6 125Z" fill="#322015"/>
<path d="M199 124.6C198.8 124.5 198.8 124 198.9 123.7L199.2 124.2C199.1 124.1 199 124.1 199 124.6Z" fill="#322015"/>
<path d="M199.3 124.6C199.4 124.3 199.6 123.7 199.7 124.3C199.4 124.2 199.4 125.1 199.3 124.6Z" fill="#322015"/>
<path d="M200.6 124.3L200.2 124.6C200 125.3 200.3 124.9 200.4 125.2C200.1 125.3 200.2 125.1 200 124.6C199.9 124.6 199.8 124.2 199.7 124C200.2 124.7 200.4 122.9 200.6 124.3Z" fill="#322015"/>
<path d="M199.8 124.9V124.6L200 124.9H199.8Z" fill="#322015"/>
<path d="M201.6 123.6C201.9 122.8 201.9 124.2 202.2 123.8C202.2 123.7 202.2 123.7 202.2 123.6L202.4 123.7V123.5C202.3 124 202.5 124.3 202.5 124.7C202.2 125.2 202.5 124 202.2 124.6C202.2 124.8 202.2 125.2 202.2 125.4C202.1 125.1 202.1 124.8 202.1 124.5C202 124.4 202 124.7 201.9 124.9C201.8 124.6 201.9 123.8 201.6 124C201.4 124.4 201.6 124.7 201.4 124.5C201.6 123.7 201.1 124.6 201.1 124.1C200.9 124.2 200.7 124.7 200.7 125C200.8 124.4 200.7 123.8 200.6 123.6L200.9 124.2L201.1 123.5C201.3 123.7 201.4 123.7 201.6 123.6Z" fill="#322015"/>
<path d="M200.7 125.2L200.8 125.3L200.7 125.5V125.2Z" fill="#322015"/>
<path d="M202.6 125.5L202.8 125.1V125.4L202.6 125.5Z" fill="#322015"/>
<path d="M207 125.9C206.8 126.1 206.9 125.6 207 125.2C207.2 125.2 206.9 125.7 207 125.9Z" fill="#322015"/>
<path d="M209.4 127.2C209.2 127.5 209.2 127 209 126.9C209.2 126.8 209.4 127 209.4 127.2Z" fill="#322015"/>
<path d="M210 129.3C210 129.1 210 129 210.1 129L210.3 128.1C210.5 127.8 210.1 128.9 210 129.3Z" fill="#322015"/>
<path d="M211.1 129.8L211 129.4H211.1C211.2 129 211.2 128.9 211.2 128.5C211.3 128.8 211.3 129.2 211.1 129.8Z" fill="#322015"/>
<path d="M211.1 128.3C211.2 128.4 211.2 128.4 211.1 128.3C211.1 128.5 211.1 128.6 211.1 128.3Z" fill="#322015"/>
<path d="M211.3 128.5V128.6C211.2 128.5 211.2 128.5 211.3 128.5C211.3 128.3 211.2 128.3 211.3 128.5Z" fill="#322015"/>
<path d="M211.4 129.4C211.4 129.5 211.4 129.5 211.4 129.5L211.3 129.6C211.4 129.3 211.4 129.4 211.3 129.5C211.3 129.6 211.2 129.7 211.4 129.4Z" fill="#322015"/>
<path d="M212.3 129.6L212.7 129.3C212.9 129.4 212.2 130.4 213 129.9C212.7 130 212.6 130.4 212.3 130.3C212.7 129.9 212.5 129.7 212.3 129.6Z" fill="#322015"/>
<path d="M213.5 129.7C213.6 129.6 213.7 129.5 213.9 129.5C214 129.5 213.9 129.8 213.7 129.9C214.1 129.3 213.2 130.1 213.5 129.7Z" fill="#322015"/>
<path d="M214.1 130.6C214.1 130.5 214.1 130.4 214.2 130.4C214.3 130.6 213.8 130.9 213.5 131.2C213.2 131.3 213.8 130.7 214.1 130.6Z" fill="#322015"/>
<path d="M218.4 129.5C218 129.8 217.9 129.6 218.1 129.4C218 129.6 218.2 129.6 218.4 129.5Z" fill="#322015"/>
<path d="M215.2 131.8H215L215.6 131.4L215.2 131.8Z" fill="#322015"/>
<path d="M215.5 133.1L215.2 133.4V133.2L215.5 133.1Z" fill="#322015"/>
<path d="M215.8 133.2L215.9 133.4H215.7C215.5 133.4 215.8 133.2 215.8 133.2Z" fill="#322015"/>
<path d="M216 133.8H215.9L216.1 133.5L216 133.8Z" fill="#322015"/>
<path d="M220.3 135.1C220.7 134.8 220.5 135.2 220.7 135.2C220.6 135.2 220 135.4 220.3 135.1Z" fill="#322015"/>
</g>
</g>
<path d="M47.8999 118.7C47.8999 118.7 31.9 126.4 28.6 145.4C28.3 147 28.2 148.7 28.3 150.4C28.3 151.5 29.0999 152.5 30.1999 152.7C31.2999 152.9 32.7 153.1 33.8 153.3C35 153.5 36.1999 153 36.8999 152C38.8999 149.1 43.6999 143 51.6999 139.7C51.6999 139.7 60.2 139.1 62.6 133C65 126.9 55.5 117.2 53.1 117.2C50.8 117.3 47.8999 118.7 47.8999 118.7Z" fill="#D29F7E"/>
<path d="M30.5 152.8C30.5 152.8 31 148.5 31.9 146.3" stroke="#1B1C1E" stroke-width="1.2604" stroke-miterlimit="10" stroke-linecap="round" stroke-linejoin="round"/>
<path d="M33.2 153.3C33.2 153.3 34.5 148.4 36.5 146.6" stroke="#1B1C1E" stroke-width="1.2604" stroke-miterlimit="10" stroke-linecap="round" stroke-linejoin="round"/>
<mask id="mask2_70_3297" style="mask-type:luminance" maskUnits="userSpaceOnUse" x="28" y="117" width="35" height="37">
<path d="M47.8999 118.7C47.8999 118.7 31.9 126.4 28.6 145.4C28.3 147 28.2 148.7 28.3 150.4C28.3 151.5 29.0999 152.5 30.1999 152.7C31.2999 152.9 32.7 153.1 33.8 153.3C35 153.5 36.1999 153 36.8999 152C38.8999 149.1 43.6999 143 51.6999 139.7C51.6999 139.7 60.2 139.1 62.6 133C65 126.9 55.5 117.2 53.1 117.2C50.8 117.3 47.8999 118.7 47.8999 118.7Z" fill="white"/>
</mask>
<g mask="url(#mask2_70_3297)">
<path d="M50.3 130C50.2 130 50.2 130.1 50.1 130.1C50.1 130 50.2 130 50.3 130Z" fill="#322015"/>
<path d="M50.1 123.6H50.4C50.2 123.7 50.1 123.7 50.1 123.6Z" fill="#322015"/>
<path d="M48.6999 130.5C48.5999 130.6 48.5999 130.6 48.3999 130.7L48.6999 130.5Z" fill="#322015"/>
<path d="M50.7 136.1V136.2C50.6 136.2 50.7 136.1 50.7 136.1Z" fill="#322015"/>
<path d="M50.4 135.9C50.3 136 50.3 136 50.4 135.9V135.9Z" fill="#322015"/>
<path d="M51.3999 135.5C51.2999 135.5 51.3 135.6 51.2 135.6C51.2 135.6 51.2999 135.5 51.3999 135.5Z" fill="#322015"/>
<path d="M50.3999 130H50.2999C50.3999 129.9 50.3999 129.9 50.3999 130Z" fill="#322015"/>
<path d="M50.2999 121.3C50.2999 121.2 50.3999 121.2 50.3999 121.1C50.3999 121.2 50.3999 121.3 50.2999 121.3Z" fill="#322015"/>
<path d="M50.5 134.1C49.7 134.1 50.5 134.3 49.8 134.3C50 134.2 50.1 134.1 49.7 134C49.3 134.1 49.7 134.2 49.1 134.3L49.3 134.1C49 134 48.5 134.2 48.5 134.1C49.4 133.9 48.2 133.6 48.3 133.4L48.2 133.5L47.8 133.2C47.8 133.2 47.9 133.2 48 133.2C47.6 133.1 47.3 132.9 47.4 132.7C47.9 132.6 47.6 132 48 131.9C47.9 132 47.9 132.1 48 132.2H48.6C48.6 132 48.1 132.2 48.4 132C49.2 132 48.4 132.3 48.5 132.4C48.7 132.3 48.8 132.3 48.9 132.2C48.9 132.5 49.2 132.8 48.4 133C48.6 133.1 48.9 133 49 133C48.5 133.2 49.5 133.1 49 133.3C49.7 133.2 49.4 132.9 49.8 132.7C49.2 132.4 49.8 132.1 49.9 131.8C49.4 131.8 48.9 132 48.6 131.9C48.2 131.6 48.9 131.6 49.2 131.4C49 131.2 48.3 131.4 48.3 131.1L47.9 131.3C47.1 131.1 48.2 131.1 48 131C48.2 131 48.4 131 48.4 131.2C48.7 131.2 48.8 131.1 48.8 131C49.2 130.9 49.6 130.9 49.4 130.7C48.9 130.8 49.1 130.5 48.8 130.5L48.7 130.6C48.9 130.4 48.8 130.3 48.9 130.2H48.8C49 130.1 49.6 130 49.4 129.9C49.2 129.9 48.6 130.1 48.7 129.9C48.4 129.9 48.3 130.1 48.5 130.3C48.4 130.1 47.8 130 47.8 130.3C47.4 130.2 48 130.1 47.8 130C47.9 130 48.1 130 48.2 130C47.6 130 48.2 129.6 48.6 129.6L48.3 129.8C48.8 129.8 49.1 129.6 49.3 129.7C48.6 129.6 49.7 129.2 49 129.1L49.4 129.2C49.2 128.8 50 128.5 50.2 128.1C50 128.2 49.2 128.2 49.4 128.5C49.2 128.1 48.6 128.4 48.2 128.2C47.9 127.9 49 128.1 49.2 128H49C49.9 127.8 48.8 127.2 49.4 126.8C49.2 126.8 49.3 126.9 49.2 126.9C48.7 126.7 49.3 126.7 49.5 126.6C49.4 126.4 49.2 126.2 48.6 126.3C48.5 126.1 49 126.3 49.1 126.2H49L49.7 126C49.5 125.8 49.2 125.6 48.6 125.5C48.7 125.1 49.9 125.4 50.2 125.1C49.9 124.9 49.7 125.1 49.5 125.1L49.6 124.8C48.9 124.9 49.3 125.1 48.5 125.1C49.3 124.9 48.7 124.8 49.3 124.5H49.4C49.9 124.4 49.6 124.1 49.7 123.9C49.4 124 49.3 124.2 49.2 124.3C49 124.1 49.2 123.6 49.9 123.4C49.8 123.3 49.5 123 49.2 123.2C49.1 122.8 50.2 123.1 50 122.7H49.5C48.8 122.3 50.2 122 49.6 121.6H50.2C49.9 121.5 49.8 121.3 49.6 121.3L49.4 121.5C48.9 121.3 49.9 121.4 49.6 121.1C49.8 121.1 50.2 121.3 50.4 121.3C50 122.1 50.8 122.9 50.1 123.6C50 123.6 49.9 123.5 49.8 123.5C49.9 123.6 49.8 123.7 50.1 123.7C49.9 123.9 50.7 124.1 50.7 124.3C50.3 124.4 50.9 124.7 50.1 124.6L50.6 124.8C50.3 124.8 50 124.8 49.8 124.9C49.9 125 50.1 125.1 50.3 125C50.6 125.6 50.5 126.2 50.2 126.7L50.6 126.6C50.8 126.7 50 127.1 50.9 127C50.5 127.3 51.1 127.7 50.2 127.7C51.1 127.9 50.6 128.4 50.4 128.7C49.6 128.6 50.2 129 49.8 129.1C50.4 129.2 50.4 128.8 50.8 128.8C49.8 129.2 51.5 129.9 49.9 130C50 130 50 130 50.1 130C50.1 130.1 50.4 130.2 50.4 130.3C50.1 130.3 50 130.2 49.9 130.4C50 130.5 50.4 130.5 50.6 130.5C50.2 130.8 50.1 131.2 49.5 131.3C49.7 131.4 50 131.5 50.1 131.4C49.6 131.8 50.2 131.8 49.9 132.3C49.9 132.1 50.6 132.2 50.3 132C51.2 132.2 50.1 132.7 50.6 133L50 133.2C49.9 133.4 50.4 133.4 50.6 133.3C51 133.7 50.6 133.8 50.6 134.1C50.7 134.1 50.8 134.1 50.8 134.1V134.5C50.7 134.5 50.4 134.7 50 134.7C50.5 134.4 50.7 134.3 50.5 134.1Z" fill="#322015"/>
<path d="M47.7 130.8C47.8 130.8 47.8999 130.9 47.8999 130.9C47.7999 130.9 47.7 130.9 47.7 130.8Z" fill="#322015"/>
<path d="M49.4 138.2C48.5 138.2 49.5 137.9 49.3 137.8C49.2 138 48.7 138 48.4 138C49.5 137.7 48.2 137.8 48.4 137.4C48 137.4 48 137.6 47.6 137.7C47.9 137.5 48 137.1 48.6 137.1C48.6 136.7 48.4 136.5 48.4 136.3C48.2 136.6 47.8 136.4 47.3 136.6C48 136.3 48.9 135.7 49.7 135.3C49 135.3 48.9 135.3 48.3 135.3C47.8 134.9 48.9 135.2 48.7 134.8L48.8 135C49 134.8 49.6 134.8 50.1 134.7L50 135.2C50.5 135.2 50.4 134.9 50.5 134.8C51.1 134.6 50.9 135 51.4 135C51 135.1 51.2 135.3 51 135.4H51.3C51.6 135.6 50.9 135.8 51 136C51.1 136 51.1 136 51.2 136C50.9 136.1 50.6 136.2 50.5 136.3V136.2C49.9 136.4 49.5 136.8 48.9 136.6L49.1 137.1C49.8 137 50.8 136.9 50.8 136.6H51.1C51.5 136.8 50.6 137.2 50 137.1C48.4 137.4 50 137.8 49.3 138.2C49.7 138.2 49.9 138 50.2 137.9C50.2 137.8 50.2 137.7 49.9 137.7C50.1 137.2 51.3 137.7 51.1 137.2C50.9 137 50.4 137.5 50.3 137.2L51.5 136.9C51.5 137.1 51.3 137.3 51.2 137.5C50.5 138.6 51.2 139.2 51.2 139.2C51.2 139.9 51.2 140.7 51.3 141.4C51.3 142.1 51.4 142.8 51.5 143.3C51.4 143.6 51.4 143.5 50.7 144.4C50.4 144.5 50.3 144.2 50.1 144.5C50.4 144.2 50.6 144 50.5 143.8C50.1 143.9 50.4 144.1 50.3 144.1C50.1 144.2 50 144.3 50 144.4C49.2 144.4 49.2 143.7 49.9 143.3C49.4 143.2 49.3 143.6 49 143.9C48.4 143.1 48.4 142.5 48.2 141.7C49 141.6 48.7 141.5 49.2 141.4H48.9C49 141.4 49.5 141.2 49.7 141.4C49.1 141 50.6 140.7 50.9 140.4L50.5 140.5C50.5 140.2 50.5 140.2 50.7 139.9C49.9 139.6 50.6 140.3 49.6 140.3L49.7 140.2C49.3 140.3 48.7 140.4 48.4 140.6C49 140.1 48.1 140 48.5 139.6C48.1 139.7 47.8 140.1 47.7 140.2C47.6 140.1 47.9 139.8 47.5 139.8L48 139.7C48 139.4 47.5 139.8 47.1 139.7C47.3 138.4 49.1 138.8 49.4 138.2Z" fill="#322015"/>
<path d="M48.8 132C48.8 132.1 48.8 132.1 48.8 132.2C48.7 132.1 48.7 132.1 48.8 132Z" fill="#322015"/>
<path d="M47 133.4C47.3 133.4 47.3 133.3 47.6 133.3C47.4 133.4 47.4 133.6 47 133.4Z" fill="#322015"/>
<path d="M49.2 117C49.3 116.8 49.8 116.8 50.1 116.9L49.6 117.3C49.7 117.2 49.7 117.1 49.2 117Z" fill="#322015"/>
<path d="M49.2 117.3C49.5 117.4 50 117.6 49.5 117.7C49.6 117.5 48.8 117.5 49.2 117.3Z" fill="#322015"/>
<path d="M49.4999 118.9L49.1999 118.5C48.4999 118.3 48.9999 118.7 48.6999 118.7C48.5999 118.3 48.7999 118.5 49.2999 118.3C49.2999 118.2 49.5999 118.1 49.7999 118C49.0999 118.4 50.6999 118.6 49.4999 118.9Z" fill="#322015"/>
<path d="M48.8999 118H49.1999L48.8999 118.1V118Z" fill="#322015"/>
<path d="M50.1 119.9C50.9 120.2 49.6 120.3 49.9 120.6C49.9 120.6 50 120.6 50.1 120.6L50 120.8H50.2C49.7 120.7 49.5 121 49.1 121C48.6 120.7 49.7 120.9 49.2 120.7C49 120.7 48.7 120.7 48.5 120.8C48.8 120.7 49 120.7 49.3 120.6C49.4 120.5 49.1 120.5 48.9 120.4C49.2 120.3 49.9 120.3 49.8 120C49.4 119.8 49.1 120 49.3 119.8C50 120 49.2 119.5 49.7 119.4C49.6 119.2 49.1 119 48.9 119C49.5 119.1 50 118.9 50.2 118.8L49.7 119.1L50.4 119.3C49.9 119.5 50 119.7 50.1 119.9Z" fill="#322015"/>
<path d="M48.4999 120.7C48.4999 120.7 48.3999 120.7 48.3999 120.8C48.3999 120.8 48.3999 120.8 48.4999 120.7Z" fill="#322015"/>
<path d="M48.6999 119L48.4999 119.1L48.2999 119H48.6999Z" fill="#322015"/>
<path d="M48 120.9C48 120.8 48.2 120.9 48.2 120.9H48Z" fill="#322015"/>
<path d="M48.3999 121.1L48.7999 121.3H48.4999L48.3999 121.1Z" fill="#322015"/>
<path d="M48.5 126.1C48.3 125.9 48.7 126 49.1 126C49.2 126.2 48.7 125.9 48.5 126.1Z" fill="#322015"/>
<path d="M47.9 129.2C47.6 129 48.1 128.9 48 128.7C48.2 128.8 48.1 129 47.9 129.2Z" fill="#322015"/>
<path d="M46.2 130.5C46.4 130.5 46.4 130.4 46.5 130.5L47.3 130.3C47.7 130.5 46.6 130.5 46.2 130.5Z" fill="#322015"/>
<path d="M46.1 132L46.4 131.8V131.9C46.7 131.8 46.9 131.8 47.2 131.7C47.1 131.8 46.7 132 46.1 132Z" fill="#322015"/>
<path d="M47.3999 131.4C47.3999 131.5 47.3999 131.5 47.3999 131.4C47.0999 131.5 47.1999 131.5 47.3999 131.4Z" fill="#322015"/>
<path d="M47.2999 131.6C47.3999 131.5 47.4999 131.6 47.2999 131.6V131.6Z" fill="#322015"/>
<path d="M46.5999 132.2L46.4999 132.6L46.2999 132.4C46.7999 132.4 45.9999 132.2 46.5999 132.2Z" fill="#322015"/>
<path d="M47 134.4H47.5C47.6 134.7 46.4999 135 47.3999 135.2C47.0999 135.1 46.8 135.4 46.7 135.1C47.1 135 47.2 134.6 47 134.4Z" fill="#322015"/>
<path d="M47.7999 135.3C47.8999 135.3 48.0999 135.3 48.1999 135.3C48.2999 135.4 47.9999 135.5 47.7999 135.5C48.4999 135.4 47.3999 135.5 47.7999 135.3Z" fill="#322015"/>
<path d="M47.8 136.6C47.8 136.5 47.8 136.4 48 136.5C48 136.7 47.4 136.7 47.1 136.8C46.8 136.7 47.6 136.4 47.8 136.6Z" fill="#322015"/>
<path d="M51.7 138.1C51.3 138.1 51.3 137.9 51.5 137.9C51.4 138 51.5 138.1 51.7 138.1Z" fill="#322015"/>
<path d="M48.1 138.5L48 138.4L48.6 138.3L48.1 138.5Z" fill="#322015"/>
<path d="M47.9 139.9L47.5 140.1V139.9H47.9Z" fill="#322015"/>
<path d="M47.9999 140.2V140.4L47.7999 140.3C47.6999 140.2 47.9999 140.2 47.9999 140.2Z" fill="#322015"/>
<path d="M47.9999 140.9C47.9999 140.9 47.9999 140.9 47.8999 140.8L48.1999 140.5L47.9999 140.9Z" fill="#322015"/>
<path d="M51.4 143.3C51.7 143 51.6 143.2 51.7 143.1C51.6 143.2 51.2 143.6 51.4 143.3Z" fill="#322015"/>
</g>
<path d="M49.8 3.40003C47.3 5.70003 44.1999 10 44.3999 17.1C44.3999 17.1 66.5 3.00003 56.8 1.30003C54.3 0.800033 51.7 1.70003 49.8 3.40003Z" fill="#1B1C1E"/>
<path d="M80.5999 51.3001C80.5999 51.3001 78.2999 70.3001 96.7999 75.5001C115.3 80.7001 188.6 72.5001 212.7 71.0001C232.5 69.7001 244.4 80.8001 243.3 100.1C242.8 110 242.9 117.1 243.4 122.1C244.2 131.1 251.3 150.6 254.5 156.5C256.1 159.5 255.5 163.1 253.2 165.5L252.1 166.5C250.4 168.1 247.9 168.4 245.9 167.1C240.8 163.7 230.7 154.9 219.5 133.8C219.3 133.4 219 132.9 218.8 132.4C216.7 128.4 214.8 126.5 214.8 126.5C214.8 126.5 209.1 123.9 195.6 123.7C185.1 123.6 170 124.9 149.1 130.1C117 138.1 84.9999 138.4 78.0999 134.5C78.0999 134.5 73.2999 145.5 73.2999 167.1C73.2999 169 71.7999 170.5 69.8999 170.6L65.0999 170.8C63.5999 170.9 62.1999 170 61.4999 168.7C61.0999 167.9 60.5999 166.8 59.9999 165.5C57.7999 160.6 54.6999 152.4 51.7999 140.4C50.3999 134.5 49.0999 127.7 47.8999 120C47.7999 119.3 47.6999 118.7 47.5999 118C42.9999 83.5001 47.1999 51.8001 47.1999 51.8001C47.1999 51.8001 10.3999 64.1001 1.69994 38.4C0.799936 35.8 2.59994 33.0001 5.29994 32.8001C5.69994 32.8001 6.19994 32.8001 6.69994 32.8001C13.1999 33.0001 31.9999 34.2001 39.1999 20.4001C44.4999 10.4001 53.3999 -1.29995 64.5999 0.20005C65.0999 0.30005 65.4999 0.300055 65.9999 0.400055C66.3999 0.500055 80.2999 18.2001 80.5999 51.3001Z" fill="#D29F7E"/>
<path d="M51.8 139.8C50.5 134.1 49.2 127.5 48.1 120.1C48 119.7 48 119.4 47.9 119" stroke="#1B1C1E" stroke-width="1.2604" stroke-miterlimit="10" stroke-linecap="round" stroke-linejoin="round"/>
<path d="M66.4 0.500047C66.4 0.500047 63.4 0.50005 64.8 7.30005C65.9 13 67.9 19 64.4 34.9C60.4 53 69.6 57.2 79.8 52.7C90.1 48.2 88.3 38.2 86.3 28.5C84.3 18.8 75.6 -0.399953 66.4 0.500047Z" fill="#1B1C1E"/>
<path d="M0.699988 35.6001C0.599988 34.0001 1.89999 32.6001 3.49999 32.5001C5.79999 32.4001 9.39999 32.3001 11.3 32.1001C14.2 31.8001 15.6 36.0001 11.4 40.7001C7.19999 45.4001 2.99999 43.3001 1.29999 38.2001C0.899995 37.2001 0.799988 36.4001 0.699988 35.6001Z" fill="#1B1C1E"/>
<path d="M30.8 54.8001C30.8 54.8001 40.4 54.6001 41.4 41.6001" stroke="#1B1C1E" stroke-width="1.2604" stroke-linecap="round" stroke-linejoin="round"/>
<path d="M39.6 41C39.6 41 41.3 42.3 43.1 41.8" stroke="#1B1C1E" stroke-width="1.2604" stroke-miterlimit="10" stroke-linecap="round" stroke-linejoin="round"/>
<path d="M47.1 28.7C46.9 30.1 45.8 31.2 44.8 31C43.8 30.8 43.3 29.6 43.5 28.1C43.7 26.7 44.7 25.6 45.7 25.8C46.7 26 47.3 27.3 47.1 28.7Z" fill="#1B1C1E"/>
<path d="M83.7 124.4C83.7 124.4 80.5 129.2 78.1 134.7" stroke="#1B1C1E" stroke-width="1.2604" stroke-miterlimit="10" stroke-linecap="round" stroke-linejoin="round"/>
<path d="M214.9 126.6C214.9 126.6 211.3 121.8 208.9 115" stroke="#1B1C1E" stroke-width="1.2604" stroke-miterlimit="10" stroke-linecap="round" stroke-linejoin="round"/>
<path d="M82.6001 63.7001C76.8001 66.6001 71.1 68.3001 66.2 69.3001C57.8 71.0001 51.8 70.6001 51.8 70.6001C52.7 69.5001 53.3 68.0001 53.4 66.3001C53.4 65.4001 53.3 64.6001 53 63.8001C53 63.8001 69.9 62.6001 80.7 57.6001C81.1 59.4001 81.7001 61.5001 82.6001 63.7001Z" fill="#D1493B"/>
<path d="M69.8 170.6C69.8 170.6 69.7 163.6 69.6 161.8" stroke="#1B1C1E" stroke-width="1.2604" stroke-miterlimit="10" stroke-linecap="round" stroke-linejoin="round"/>
<path d="M251.6 167.3C251.6 167.3 248.5 165.4 246.3 163" stroke="#1B1C1E" stroke-width="1.2604" stroke-miterlimit="10" stroke-linecap="round" stroke-linejoin="round"/>
<path d="M254 165.1C254 165.1 251.9 162.8 250.6 160.9" stroke="#1B1C1E" stroke-width="1.2604" stroke-miterlimit="10" stroke-linecap="round" stroke-linejoin="round"/>
<path d="M66 171C65.8 170.3 64.9 167.9 63.6 163.3" stroke="#1B1C1E" stroke-width="1.2604" stroke-miterlimit="10" stroke-linecap="round" stroke-linejoin="round"/>
<path d="M54.1 67.1001C54 71.0001 51.3 74.0001 48.2 73.9001C47.1 73.9001 46.1 73.4001 45.2 72.8001C43.6 71.5001 42.6 69.3001 42.7 66.8001C42.8 62.9001 45.5 59.9001 48.6 60.0001C50.5 60.1001 52.1 61.2001 53.1 63.0001C53.8 64.1001 54.2 65.6001 54.1 67.1001Z" fill="#FFAE1F"/>
<path d="M53.2 62.9C53.9 64.1 54.2 65.5 54.2 67.1C54.1 71 51.4 74 48.3 73.9C47.2 73.9 46.2 73.4 45.3 72.8" stroke="#1B1C1E" stroke-width="1.2604" stroke-miterlimit="10" stroke-linecap="round" stroke-linejoin="round"/>
<mask id="mask3_70_3297" style="mask-type:luminance" maskUnits="userSpaceOnUse" x="46" y="42" width="14" height="18">
<path d="M56 57.5C51 61.8 46.7 58.8 46.7 58.8C47.1 54.4 47.3999 51.9 47.3999 51.9C47.3999 51.9 52.2 50.7 56.7 45.9L59.2 42.5C59.3 42.5 61 53.2 56 57.5Z" fill="white"/>
</mask>
<g mask="url(#mask3_70_3297)">
<g opacity="0.88">
<path d="M52.2999 49.8C52.2999 49.9 52.2999 49.9 52.3999 50C52.3999 50 52.3999 49.9 52.2999 49.8Z" fill="#322015"/>
<path d="M55.3999 47.2L55.2 47C55.2 47.1 55.2999 47.2 55.3999 47.2Z" fill="#322015"/>
<path d="M52.9999 51.2001C52.9999 51.3001 52.9999 51.4001 53.0999 51.5001L52.9999 51.2001Z" fill="#322015"/>
<path d="M48.4999 55L48.5999 55.2C48.5999 55.2 48.5999 55.1 48.4999 55Z" fill="#322015"/>
<path d="M49.0999 51C49.0999 51.1 49.0998 51.1 49.1998 51.2C49.0998 51.1 49.1999 51 49.0999 51Z" fill="#322015"/>
<path d="M56.1999 45.9V45.8C56.0999 45.8 56.0999 45.9 56.1999 45.9Z" fill="#322015"/>
<path d="M50.2 51.2001C50.6 51.8001 50.0999 51.3001 50.3999 51.8001C50.3999 51.6001 50.4 51.5001 50.6 51.8001C50.7 52.1001 50.4 51.8001 50.7 52.3001V52.1001C50.9 52.3001 51 52.7001 51.1 52.7001C50.8 52.0001 51.6 52.8001 51.6 52.6001V52.7001L51.8999 52.9001C51.8999 52.9001 51.9 52.8001 51.8 52.8001C52.1 53.1001 52.2999 53.2001 52.3999 53.1001C52.1999 52.7001 52.7 52.7001 52.6 52.4001C52.6 52.5001 52.5999 52.6001 52.3999 52.5001L52.1 52.1001C52.2 52.0001 52.4 52.5001 52.3 52.2001C51.9 51.6001 52.1 52.3001 52 52.3001C51.9 52.1001 51.8999 52.0001 51.8999 51.9001C51.6999 52.0001 51.4 51.9001 51.7 52.5001C51.6 52.4001 51.3999 52.1001 51.3999 52.1001C51.4999 52.5001 51.1 51.8001 51.2 52.2001C50.9 51.6001 51.2 51.8001 51.1 51.4001C51.5 51.7001 51.4 51.2001 51.5 51.0001C51.8 51.4001 51.9 51.8001 52.1 52.0001C52.4 52.1001 52.1 51.7001 52 51.4001C52.2 51.5001 52.5 52.0001 52.7 51.9001L52.8 52.2001C53.3 52.7001 52.6999 51.9001 52.8999 52.0001C52.7999 51.9001 52.7 51.7001 52.6 51.8001C52.4 51.6001 52.4 51.5001 52.5 51.4001C52.3 51.1001 52.1 50.8001 52.3 50.9001C52.5 51.3001 52.6 51.1001 52.7 51.2001V51.3001C52.7 51.1001 52.8 51.1001 52.8 51.0001L52.8999 51.1001C52.8999 50.9001 52.6 50.5001 52.7 50.5001C52.8 50.7001 53.1 51.2001 53.1 51.0001C53.3 51.2001 53.2 51.4001 53 51.3001C53.2 51.3001 53.4999 51.7001 53.3999 51.8001C53.6999 52.1001 53.4 51.6001 53.6 51.7001C53.5 51.6001 53.3999 51.5001 53.3999 51.4001C53.6999 51.8001 53.5999 51.3001 53.3999 51.0001L53.5 51.3001C53.2 51.0001 53.2 50.7001 53 50.5001C53.5 51.0001 53.1 50.0001 53.5 50.4001L53.2 50.2001C53.5 50.2001 53.2 49.5001 53.2 49.2001C53.3 49.4001 53.8 49.9001 53.5 49.9001C53.8 49.8001 54.0999 50.4001 54.3999 50.6001C54.6999 50.6001 53.9999 50.0001 53.8999 49.8001V50.0001C53.3999 49.3001 54.4 49.8001 54.2 49.2001C54.4 49.3001 54.3 49.3001 54.3 49.4001C54.7 49.6001 54.3 49.3001 54.2 49.1001C54.3 49.1001 54.5999 49.1001 54.8999 49.5001C55.0999 49.5001 54.7 49.3001 54.6 49.1001L54.7 49.2001L54.3999 48.7001C54.5999 48.7001 54.9 48.8001 55.3 49.1001C55.4 48.8001 54.4999 48.3001 54.3999 48.0001C54.6999 48.1001 54.7 48.3001 54.8 48.4001L54.8999 48.2001C55.2999 48.6001 55 48.6001 55.5 49.0001C55.1 48.4001 55.5 48.7001 55.3 48.3001H55.2C54.9 47.9001 55.3 48.0001 55.3 47.8001C55.5 48.0001 55.4 48.1001 55.5 48.3001C55.8 48.3001 55.7999 47.9001 55.3999 47.5001C55.4999 47.5001 55.7999 47.5001 55.8999 47.7001C56.0999 47.5001 55.3 47.1001 55.5 47.0001L55.8999 47.3001C56.5999 47.5001 55.7 46.5001 56.3 46.7001L55.8 46.4001C56 46.5001 56.1999 46.5001 56.3999 46.6001L56.5 46.8001C57 47.0001 56.2 46.5001 56.5 46.5001C56.4 46.4001 56 46.3001 55.8 46.2001C55.8 46.8001 54.8 46.7001 55 47.5001C55.1 47.5001 55.1 47.6001 55.2 47.6001C55.1 47.6001 55.0999 47.7001 54.8999 47.5001C54.8999 47.7001 54.3 47.3001 54.3 47.4001C54.6 47.7001 54 47.5001 54.6 47.9001L54.2 47.7001C54.4 47.9001 54.6 48.1001 54.7 48.2001C54.6 48.2001 54.4 48.1001 54.3 47.9001C53.9 48.0001 53.7 48.4001 53.6 48.8001L53.3999 48.5001C53.1999 48.5001 53.6 49.1001 53.1 48.5001C53.2 48.8001 52.6 48.7001 53.2 49.2001C52.6 48.7001 52.7 49.2001 52.6 49.5001C53.1 50.0001 52.6 49.8001 52.8 50.1001C52.4 49.7001 52.6 49.5001 52.3 49.3001C52.7 50.1001 51.4 49.3001 52.2 50.4001C52.1 50.4001 52.1 50.3001 52.1 50.3001C52.1 50.3001 51.9 50.2001 51.8 50.2001C51.9 50.4001 52.1 50.4001 52.1 50.6001C52 50.6001 51.8 50.3001 51.7 50.2001C51.8 50.5001 51.6 50.8001 52 51.3001C51.9 51.2001 51.6 51.0001 51.6 50.9001C51.7 51.4001 51.3 51.0001 51.3 51.4001C51.4 51.3001 51 50.9001 51.2 51.0001C50.7 50.4001 50.9 51.3001 50.5 51.1001L50.7 51.6001C50.6 51.7001 50.4 51.3001 50.3 51.1001C50 51.0001 49.9999 51.3001 49.8999 51.4001C49.8999 51.4001 49.7999 51.3001 49.8999 51.3001L49.7 51.4001C49.7 51.5001 49.8 51.8001 50 52.1001C50.1 51.3001 50 51.1001 50.2 51.2001Z" fill="#322015"/>
<path d="M53.3999 52C53.2999 51.9 53.2 51.9 53.2 51.9C53.3 51.9 53.2999 52 53.3999 52Z" fill="#322015"/>
<path d="M48.3999 53.4C48.6999 54.1 48.4999 53.2 48.6999 53.4C48.5999 53.5 48.7999 54 48.8999 54.2C48.6999 53.2 49.0999 54.3 49.2999 54C49.3999 54.3 49.2999 54.4 49.4999 54.7C49.4999 54.4 49.6999 54.2 49.4999 53.7C49.6999 53.6 49.9999 53.7 50.0999 53.6C49.9999 53.9 50.2999 54.1 50.3999 54.6C50.2999 53.9 50.2999 53.1 50.0999 52.3C50.3999 52.8 50.4999 52.9 50.6999 53.4C51.1999 53.6 50.4999 52.9 50.7999 52.9H50.5999C50.5999 52.7 50.2999 52.2 50.1999 51.8L49.9999 52C49.7999 51.6 49.9999 51.6 49.9999 51.5C49.7999 51 49.6999 51.3 49.4999 50.9C49.5999 51.2 49.4999 51.2 49.4999 51.3L49.3999 51.1C49.1999 51 49.3999 51.5 49.2999 51.5C49.2999 51.4 49.1999 51.4 49.1999 51.4C49.2999 51.6 49.3999 51.9 49.2999 52C49.3999 52.5 49.2999 52.9 49.7999 53.4H49.3999C49.1999 52.9 48.8999 52 48.9999 51.9L48.8999 51.7C48.6999 51.4 48.7999 52.3 49.0999 52.7C49.5999 54 48.6999 52.9 48.6999 53.6C48.4999 53.2 48.5999 53.1 48.4999 52.8C48.4999 52.7 48.5999 52.7 48.6999 53C48.8999 52.7 48.1999 51.9 48.4999 51.9C48.6999 52 48.5999 52.5 48.7999 52.5L48.4999 51.5C48.3999 51.6 48.3999 51.8 48.2999 52C48.1999 52.5 47.8999 52.6 47.6999 52.6C47.4999 52.6 47.3999 52.5 47.3999 52.5C46.5999 52.9 45.7999 53.2 44.8999 53.4C44.5999 53.6 44.5999 53.5 44.4999 54.6C44.5999 54.8 44.7999 54.7 44.6999 55.1C44.6999 54.7 44.7999 54.5 44.9999 54.5C45.0999 54.9 44.8999 54.7 44.8999 54.8C44.8999 55 44.8999 55.1 44.7999 55.1C44.9999 55.7 45.3999 55.5 45.3999 54.7C45.5999 55.1 45.3999 55.3 45.2999 55.6C45.8999 55.8 46.2999 55.7 46.8999 55.6C46.6999 54.9 46.8999 55.2 46.7999 54.7L46.8999 54.9C46.7999 54.8 46.7999 54.3 46.6999 54.2C47.0999 54.6 46.7999 53.2 46.8999 52.9L46.9999 53.2C47.0999 53.1 47.1999 53.1 47.2999 52.9C47.7999 53.5 47.0999 53.1 47.3999 53.9V53.7C47.4999 54 47.5999 54.6 47.5999 54.9C47.6999 54.3 48.0999 55 48.1999 54.5C48.2999 54.9 48.0999 55.3 48.0999 55.3C48.1999 55.3 48.2999 55 48.3999 55.3L48.2999 54.8C48.4999 54.7 48.3999 55.2 48.5999 55.5C49.0999 55.1 48.1999 53.8 48.3999 53.4Z" fill="#322015"/>
<path d="M52.1999 51.7001C52.0999 51.7001 52.0999 51.7001 52.1999 51.7001C52.0999 51.7001 52.0999 51.8001 52.1999 51.7001Z" fill="#322015"/>
<path d="M52.2999 53.5C52.1999 53.3 52.1999 53.3 52.0999 53C52.0999 53.2 51.9999 53.3 52.2999 53.5Z" fill="#322015"/>
<path d="M59.4999 42.9L59.3999 42.8C59.3999 42.8 59.4999 42.8 59.4999 42.9Z" fill="#322015"/>
<path d="M59.7999 43L60.1999 43.2L59.9999 42.9L59.7999 43C59.6999 42.9 59.5999 42.9 59.4999 42.9L59.7999 43Z" fill="#322015"/>
<path d="M58.7 43.1C58.9 43.1 59.1 43.3 59.3 43.4C59.5 43.3 58.9 43 59.1 43C59.4 43.3 59.4 43 59.7 43.1C59.3 43 59 42.9 58.8 43L59.1 43.1C59 43.3 58.9 43.1 58.7 43.1Z" fill="#322015"/>
<path d="M59.1 44.2001L58.7 43.9001C58.9 44.0001 58.9999 43.8001 59.3999 44.0001C59.3999 43.9001 59.2 43.8001 59.1 43.7001C59.3 43.7001 59.5 43.8001 59.2 43.6001C58.8 43.7001 58.7 43.6001 58.5 43.8001C58.4 43.8001 58.4 43.7001 58.5 43.7001H58.2C58.8 44.0001 58.7 44.2001 59.1 44.2001Z" fill="#322015"/>
<path d="M58.6998 44.3C58.6998 44.2 58.3999 43.9 58.0999 43.8C58.1999 43.9 58.1999 44.1 58.2999 44.2C58.2999 44.2 58.2998 44 58.6998 44.3Z" fill="#322015"/>
<path d="M58.5999 44.5C58.3999 44.4 57.8999 44.3 58.1999 44.6C58.1999 44.4 58.7999 44.7 58.5999 44.5Z" fill="#322015"/>
<path d="M57.7 45.1L58.1 45C58.6 45.2 58.2 45.2 58.4 45.4C58.6 45.3 58.4 45.2 58.2 44.9C58.3 44.9 58 44.6 57.9 44.5C58.2 45 56.9 44.4 57.7 45.1Z" fill="#322015"/>
<path d="M58.4999 44.9L58.2999 44.8L58.3999 45L58.4999 44.9Z" fill="#322015"/>
<path d="M56.8998 45.3C56.1998 45.1 57.0999 45.8 56.7999 45.8L56.6998 45.7V45.9L56.5999 45.8C56.9999 46 56.9999 46.2 57.2999 46.5C57.7999 46.6 56.8998 46.2 57.3998 46.3C57.4998 46.4 57.7998 46.6 57.8998 46.7C57.7998 46.5 57.5998 46.4 57.3998 46.2C57.3998 46.1 57.5998 46.2 57.6998 46.3C57.4998 46.1 56.9998 45.7 57.1998 45.7C57.5998 45.8 57.6999 46.1 57.5999 45.8C56.9999 45.5 57.7998 45.7 57.4998 45.4C57.6998 45.3 58.0999 45.5 58.2999 45.6C57.7999 45.3 57.4998 45 57.3998 44.9L57.6998 45.3L57.0999 45.1C57.0999 45.2 56.9998 45.3 56.8998 45.3Z" fill="#322015"/>
<path d="M58.2999 45.6001V45.7001H58.4999L58.2999 45.6001Z" fill="#322015"/>
<path d="M57.9999 46.9C57.9999 46.9 57.8999 46.8 57.7999 46.8L57.9999 46.9Z" fill="#322015"/>
<path d="M57.5 46.8001L57.2 46.7001L57.3999 46.9001L57.5 46.8001Z" fill="#322015"/>
<path d="M55.2999 49.3C55.4999 49.4 55.1999 49.1 54.9999 48.9C54.7999 48.9 55.1999 49.1 55.2999 49.3Z" fill="#322015"/>
<path d="M54.1999 51.1C54.4999 51.2 54.2999 50.8 54.3999 50.8C54.0999 50.7 54.0999 50.9 54.1999 51.1Z" fill="#322015"/>
<path d="M54.3999 52.8C54.2999 52.7 54.2999 52.6 54.1999 52.6L53.7999 51.9C53.4999 51.9 54.1999 52.6 54.3999 52.8Z" fill="#322015"/>
<path d="M53.6 53.6001V53.3001H53.5C53.4 53.0001 53.3 52.9001 53.2 52.7001C53.2 52.9001 53.2 53.2001 53.6 53.6001Z" fill="#322015"/>
<path d="M53.2 52.5C53.3 52.6 53.3 52.7 53.2 52.5V52.5Z" fill="#322015"/>
<path d="M53.0999 52.6001C53.1999 52.6001 53.1999 52.6001 53.0999 52.6001C53.0999 52.4001 53.0999 52.5001 53.0999 52.6001Z" fill="#322015"/>
<path d="M53.1999 53.4L52.9999 53.6L53.1999 53.7C52.9999 53.3 53.4999 53.8 53.1999 53.4Z" fill="#322015"/>
<path d="M51.6999 53.9L51.3999 53.5C51.1999 53.5 51.4999 54.5 50.9999 53.9C51.1999 54.1 51.0999 54.4 51.3999 54.4C51.2999 54 51.4999 53.9 51.6999 53.9Z" fill="#322015"/>
<path d="M50.6999 53.7C50.6999 53.6 50.5999 53.5 50.4999 53.4C50.3999 53.4 50.4999 53.6 50.5999 53.8C50.3999 53.2 50.8999 54 50.6999 53.7Z" fill="#322015"/>
<path d="M49.9999 54.1C49.9999 54.1 50.0999 54 49.9999 53.9C49.8999 54 50.0999 54.4 50.1999 54.7C50.3999 54.9 50.1999 54.2 49.9999 54.1Z" fill="#322015"/>
<path d="M47.5999 51.5C47.6999 51.9 47.7999 51.8 47.7999 51.6C47.7999 51.7 47.6999 51.6 47.5999 51.5Z" fill="#322015"/>
<path d="M48.7 54.5H48.8L48.7 54V54.5Z" fill="#322015"/>
<path d="M47.8999 55.1001V55.5001L48.0999 55.4001L47.8999 55.1001Z" fill="#322015"/>
<path d="M47.6999 55L47.4999 55.1L47.5999 55.2C47.7999 55.3 47.6999 55.1 47.6999 55Z" fill="#322015"/>
</g>
</g>
<path d="M219.6 133.9C219.4 133.5 219.1 133 218.9 132.5C216.8 128.5 214.9 126.6 214.9 126.6C214.9 126.6 209.2 124 195.7 123.8" stroke="#1B1C1E" stroke-width="1.2604" stroke-miterlimit="10" stroke-linecap="round" stroke-linejoin="round"/>
</svg>
