<svg width="228" height="220" viewBox="0 0 228 220" fill="none" xmlns="http://www.w3.org/2000/svg">
<path d="M22.0001 215.7C22.0001 215.7 13.5001 218.3 36.7001 219.1C59.9001 219.9 182.6 220.3 195.3 219.1C207.9 217.9 232.5 218.6 199.9 215.7C167.3 212.8 133.7 214.5 100.9 212.8C68.1 211 27.0001 212.7 22.0001 215.7Z" fill="#1B1C1E"/>
<path d="M49 135.5C49 135.5 68.8 196.6 70.9 205.3C70.9 205.3 60.8 206.6 60.9 216C60.9 216 74.2 216 75.7 216C77.2 216 80 208.2 80 208.2C80 208.2 78 149.2 80 136.5C82 123.8 49 125.3 49 135.5Z" fill="#637189"/>
<mask id="mask0_70_3020" style="mask-type:luminance" maskUnits="userSpaceOnUse" x="49" y="127" width="32" height="37">
<path d="M80 136.4C79.3 141 79.1 151.8 79.1 163.6C66.2 150 53.4 149.2 53.4 149.2C50.8 141.1 49 135.5 49 135.5C49 125.3 82 123.8 80 136.4Z" fill="white"/>
</mask>
<g mask="url(#mask0_70_3020)">
<g opacity="0.88">
<path d="M58.5999 143.4L58.6998 142.9C58.7998 143.1 58.6999 143.2 58.5999 143.4Z" fill="#080809"/>
<path d="M67.8 148.2C67.9 148.3 67.9 148.5 67.9 148.8L67.8 148.2Z" fill="#080809"/>
<path d="M66.4999 150.1C66.4999 150.2 66.3999 150.3 66.3999 150.3C66.3999 150.2 66.4999 150.2 66.4999 150.1Z" fill="#080809"/>
<path d="M76.3 145.3C76.4 145.3 76.4 145.3 76.4 145.3V145.4C76.4 145.6 76.4 145.4 76.3 145.3Z" fill="#080809"/>
<path d="M76 146L76.1 146.1C76.1 146 76.1 146 76 146Z" fill="#080809"/>
<path d="M75.6999 143.8C75.6999 143.9 75.6999 144.1 75.7999 144.3C75.6999 144.1 75.5999 144.1 75.6999 143.8Z" fill="#080809"/>
<path d="M55.5 142.1C55.4 142 55.4 141.9 55.3 141.8C55.6 141.7 55.6 141.9 55.5 142.1Z" fill="#080809"/>
<path d="M73.4 145.4C73.2 146.9 73.7 145.5 73.6 147C73.5 146.7 73.4 146.4 73.2 147.2C73.3 148 73.6 147.2 73.5 148.4L73.3 147.9C73.1 148.5 73.2 149.5 73.1 149.4C73.1 147.6 72.3 150 72 149.7L72.1 149.9L71.6 150.7V150.8C71.6 150.7 71.6 150.6 71.6 150.5C71.3 151.3 71 151.9 70.7 151.7C70.7 150.7 69.7 151.2 69.7 150.4C69.8 150.7 69.9 150.7 70.1 150.5L70.2 149.3C69.9 149.3 70 150.4 69.8 149.6C70.1 148 70.2 149.7 70.4 149.5C70.4 149.1 70.3 148.8 70.2 148.6C70.6 148.6 71.1 148.1 71.2 149.7C71.4 149.4 71.4 148.7 71.3 148.5C71.5 149.5 71.6 147.6 71.8 148.5C71.9 147 71.3 147.7 71.1 146.8C70.6 147.9 70.2 146.8 69.8 146.5C69.6 147.6 69.8 148.6 69.5 149.2C69 149.9 69.2 148.6 69 147.9C68.6 148.2 68.7 149.7 68.2 149.7L68.4 150.5C67.9 152 68.2 149.8 68 150.1C68.1 149.7 68.2 149.3 68.4 149.4C68.5 148.8 68.4 148.6 68.3 148.5H68.4C68.4 147.7 68.5 146.9 68.2 147.3C68.2 148.2 67.8 147.9 67.7 148.3V148.5C67.5 148.2 67.3 148.2 67.2 148.1V148.3C67.1 147.9 67.3 146.8 67 147C66.9 147.5 67 148.7 66.8 148.5C66.7 149.2 67 149.3 67.3 149.1C67 149.3 66.7 150.4 67 150.5C66.8 151.3 66.8 150.1 66.6 150.4C66.7 150.1 66.7 149.8 66.7 149.6C66.5 150.8 66.1 149.6 66.3 148.8L66.5 149.5C66.7 148.6 66.5 147.9 66.7 147.4C66.3 148.8 66.1 146.5 65.7 147.7L66 147C65.3 147.4 65.2 145.5 64.7 145C64.8 145.5 64.4 147.1 64.9 146.6C64.3 146.8 64.4 148.1 64 148.9C63.4 149.4 64.1 147.4 64.1 146.8L64.3 147.2C64.4 145.3 63.1 147.3 62.8 146C62.6 146.5 62.8 146.3 62.9 146.5C62.4 147.4 62.7 146.2 62.6 145.8C62.3 145.9 61.8 146.2 61.7 147.4C61.3 147.6 61.9 146.7 61.9 146.3L61.8 146.5L61.9 145.1C61.5 145.4 61 145.9 60.6 147C60.1 146.6 61.2 144.3 60.9 143.8C60.5 144.3 60.7 144.7 60.6 145.1L60.3 144.9C60 146.2 60.5 145.7 60.1 147.2C60.2 145.6 59.8 146.6 59.7 145.5L59.8 145.4C59.9 144.3 59.3 144.9 59.1 144.6C59 145.2 59.3 145.4 59.4 145.7C58.9 146.1 58.4 145.4 58.6 144C58.4 144.1 57.8 144.5 57.9 145.2C57.3 145.2 58.3 143.3 57.7 143.5L57.3 144.5C56.2 145.7 56.7 142.9 55.7 143.9L56.2 142.7C55.9 143.2 55.6 143.3 55.3 143.7L55.4 144.2C54.8 145.1 55.5 143.1 55 143.7C55.2 143.3 55.7 142.6 55.9 142.2C56.7 143.4 58.4 142 59 143.6C58.9 143.7 58.8 143.9 58.7 144.1C58.9 143.9 59 144.3 59.2 143.6V143.5C59.4 143.9 60.1 142.5 60.3 142.5C60.1 143.4 61 142.3 60.4 143.7L60.9 142.9C60.8 143.4 60.5 144.1 60.6 144.4C60.8 144.3 61 143.8 61 143.4C61.9 143.1 62.7 143.5 63.4 144.2V143.5C63.7 143.2 63.8 144.9 64 143.1C64.2 143.9 65.1 142.9 64.7 144.7C65.4 143 65.8 144.2 66.2 144.5C65.8 146 66.5 145 66.5 145.8C66.8 144.6 66.3 144.5 66.5 143.7C66.7 145.7 68.2 142.6 67.9 145.8C68 145.7 68 145.6 68 145.4C68.1 145.4 68.3 144.9 68.5 144.8C68.5 145.4 68.2 145.6 68.4 145.8C68.6 145.7 68.7 144.8 68.8 144.5C69.1 145.3 69.6 145.7 69.5 146.9C69.7 146.6 69.9 145.9 69.8 145.6C70.3 146.7 70.4 145.5 70.9 146.2C70.7 146.1 71 144.9 70.6 145.3C71.1 143.6 71.5 145.7 72.1 144.9L72.2 146.1C72.5 146.3 72.6 145.2 72.5 144.8C73.1 144.2 73.3 144.9 73.7 144.9C73.7 144.8 73.7 144.5 73.7 144.6H74.3C74.3 144.9 74.5 145.5 74.4 146.2C73.8 145.4 73.7 145 73.4 145.4Z" fill="#080809"/>
<path d="M67.8999 150.3C67.9999 150 68.0999 149.9 68.0999 149.8C67.9999 150 67.9999 150.2 67.8999 150.3Z" fill="#080809"/>
<path d="M79.2 148.4C79.1 150.2 78.8 148.1 78.6 148.6C78.8 148.9 78.7 149.9 78.7 150.4C78.5 148.1 78.3 150.9 77.8 150.4C77.8 151.1 78 151.3 78 152.1C77.7 151.5 77.2 151.2 77.2 149.9C76.7 149.8 76.3 150.3 76 150C76.4 150.5 76 151.3 76.2 152.4C75.9 150.9 75.1 149.1 74.7 147.3C74.5 148.7 74.4999 148.8 74.3999 150.1C73.6999 151 74.3 148.8 73.7 149.2L74 149C73.8 148.6 73.8999 147.3 73.8999 146.3L74.6 146.5C74.7 145.5 74.2 145.7 74.1 145.4C74 144.2 74.5 144.6 74.5 143.7C74.5 144.5 74.8 144.2 75 144.6L75.1 144.1C75.4 143.6 75.5 144.9 75.8 144.9C75.8 144.8 75.8 144.7 75.8 144.6C75.9 145.2 75.9 145.9 76.1 146.1L76 146C76.2 147.2 76.7 148 76.2 149.3L76.8999 149C76.8999 147.7 76.9 145.6 76.5 145.4V144.8C76.8 144.1 77.3 145.9 77 147C77.1 150.2 78.1 147.2 78.5 148.5C78.6 147.6 78.3 147.3 78.2 146.7C78.1 146.6 77.8999 146.6 77.8999 147.3C77.2999 146.8 78.0999 144.5 77.3999 144.8C76.9999 145.2 77.8 146.2 77.2 146.3L77 143.9C77.3 144 77.6 144.4 77.8 144.7C78.5 145.6 79.1 145.6 79.6 145.5C80 145.4 80.3 145 80.3 145C81.4 145.1 82.4 145.3 83.5 145.4L86.7 145.6C87.4 145.9 87.6 145.8 88.1 148.2C88 148.7 87.5 148.5 87.8 149.3C87.7 148.4 87.4 147.9 87 148C87 148.9 87.4 148.4 87.3 148.6L87.2 148.7C87.3 149.1 87.3 149.4 87.5 149.5C87.2 150.8 86.4 150.6 86 148.9C85.7 149.8 86.3 150.3 86.5 150.9C85.3 151.6 84.5 151.5 83.3 151.7C83.2 150.2 83.2 150.7 83 149.7L82.8999 150.3C82.8999 150 82.8 149 83 148.6C82.3 149.8 82.2 146.5 81.7 145.9V146.7C81.3 146.6 81.1999 146.5 80.8999 146.1C80.2999 147.6 81.4 146.3 81.3 148.3L81 148C81.1 148.8 81.1999 150.1 81.3999 150.7C80.7999 149.4 80.4999 151.2 79.8999 150.2C79.9999 151.1 80.5 151.8 80.7 151.9C80.5 152 80.1 151.3 80 152.2V151.1C79.6 151 79.9999 152.1 79.8999 152.9C78.9999 152.5 79.9 149.1 79.2 148.4Z" fill="#080809"/>
<path d="M70 148.3C70.1 148.2 70.2 148.3 70.3 148.4C70.2 148.4 70.1 148.4 70 148.3Z" fill="#080809"/>
<path d="M71.5 152.2C71.6 151.7 71.5 151.7 71.5 151C71.6 151.4 71.9 151.5 71.5 152.2Z" fill="#080809"/>
<path d="M48.8 142.2C48.6 142 48.8999 141.1 49.3999 140.6L49.4999 141.6C49.3999 141.5 49.2 141.3 48.8 142.2Z" fill="#080809"/>
<path d="M49.1999 142.4C49.5999 142 50.2999 141.1 49.9999 142.1C49.7999 141.8 49.0999 143.2 49.1999 142.4Z" fill="#080809"/>
<path d="M51.6 142.5L50.8 142.8C50.1 144 50.9 143.3 50.7 143.9C50.1 143.9 50.5 143.6 50.5 142.7C50.3 142.7 50.5 142 50.5 141.6C50.6 143 52.2 140.1 51.6 142.5Z" fill="#080809"/>
<path d="M49.8999 143.2L50.0999 142.7V143.2H49.8999Z" fill="#080809"/>
<path d="M53.3999 141.8C54.3999 140.5 53.5999 142.9 54.2999 142.4C54.2999 142.3 54.3999 142.2 54.3999 142L54.5999 142.3L54.7999 142C54.3999 142.9 54.5999 143.4 54.3999 144.1C53.6999 144.9 54.6999 142.9 53.9999 143.8C53.8999 144.2 53.6999 144.9 53.5999 145.2C53.5999 144.7 53.7999 144.1 53.8999 143.6C53.6999 143.4 53.5999 143.9 53.3999 144.3C53.3999 143.7 53.9999 142.4 53.4999 142.6C52.8999 143.3 53.0999 143.9 52.7999 143.4C53.5999 142.1 52.2999 143.4 52.5999 142.5C52.1999 142.6 51.5999 143.4 51.3999 143.9C51.8999 142.8 52.0999 141.8 52.0999 141.4V142.5L52.8999 141.3C52.8999 142 53.0999 142 53.3999 142V141.8Z" fill="#080809"/>
<path d="M53.5999 145.2C53.5999 145.3 53.5999 145.4 53.5999 145.5C53.4999 145.5 53.4999 145.4 53.5999 145.2Z" fill="#080809"/>
<path d="M51.1999 144.1V144.4L50.8999 144.7L51.1999 144.1Z" fill="#080809"/>
<path d="M53.4001 146.2C53.3001 146.2 53.5001 145.8 53.6001 145.8L53.4001 146.4V146.2Z" fill="#080809"/>
<path d="M54.0999 145.5L54.5999 144.9L54.3998 145.5H54.0999Z" fill="#080809"/>
<path d="M61.3 147.2C60.9 147.6 61.1999 146.7 61.3999 146C61.6999 145.9 61.1 146.8 61.3 147.2Z" fill="#080809"/>
<path d="M65.5 149.5C65.1 150.1 65.1 149.1 64.8 149.1C65.1 148.6 65.4 149 65.5 149.5Z" fill="#080809"/>
<path d="M66.9 153C66.9 152.7 66.8 152.5 67 152.4V150.7C67.5 150.2 67 152.3 66.9 153Z" fill="#080809"/>
<path d="M69.1001 153.6L68.8 152.9H69C69 152.2 69 151.9 68.9 151.3C69.2 151.7 69.4001 152.4 69.1001 153.6Z" fill="#080809"/>
<path d="M68.7 151L68.8 151.1C68.7 151.3 68.7 151.5 68.7 151Z" fill="#080809"/>
<path d="M69 151.1C69 151.2 69 151.2 69 151.3C68.9 151.2 68.9 151.1 68.8 151.1C68.9 151 68.9 150.8 69 151.1Z" fill="#080809"/>
<path d="M69.5 152.8L70.1 153.1L69.8 153.4C70 152.4 69.5 154 69.5 152.8Z" fill="#080809"/>
<path d="M73 152.4L73.2 151.4C73.6 151.2 73.9 153.4 74.3 151.8C74.1 152.4 74.5 153 74 153.2C73.9 152.3 73.3 152.1 73 152.4Z" fill="#080809"/>
<path d="M74.5999 151C74.5999 150.7 74.6998 150.5 74.6998 150.2C74.7998 150.1 74.9998 150.6 74.8998 151C74.8998 149.6 74.6999 151.8 74.5999 151Z" fill="#080809"/>
<path d="M76.5 151.2C76.4 151.2 76.2 151.1 76.4 150.8C76.7 150.9 76.6 152 76.7 152.7C76.4 153.3 76.2 151.7 76.5 151.2Z" fill="#080809"/>
<path d="M79.4 143.7C79.3 144.6 79.1 144.5 79 144.1C79.1 144.3 79.3 144.1 79.4 143.7Z" fill="#080809"/>
<path d="M79.2999 151L79.1998 151.2L79.0999 149.9L79.2999 151Z" fill="#080809"/>
</g>
</g>
<path d="M196.6 76C196.6 76 211.4 62.5 215.9 41.3C220.4 20.1 205.1 11.9 192.9 16.4C179.1 21.4 178.5 38.2 176.8 46.5C175.7 51.9 172 48.9 171.6 47.9C170.2 44.2 171.9 0.700009 205.5 6.90001C225.9 10.7 229.8 28.9 227 43.2C224.2 57.5 215.8 72.6 204.5 83.4C196.5 91 196.6 76 196.6 76Z" fill="#637189"/>
<mask id="mask1_70_3020" style="mask-type:luminance" maskUnits="userSpaceOnUse" x="196" y="65" width="23" height="21">
<path d="M218.5 65.4C214.7 72 209.9 78.2 204.5 83.4C196.6 91 196.7 76 196.7 76C196.7 76 199.8 73.2 203.6 68.1C206.4 68.3 211 67.9 218.5 65.4Z" fill="white"/>
</mask>
<g mask="url(#mask1_70_3020)">
<g opacity="0.88">
<path d="M198 76.1C198.1 76.1 198.1 76 198.2 76C198.2 76 198.2 76 198 76.1Z" fill="#080809"/>
<path d="M199.8 74.8999C199.9 74.8999 200 74.8 200.2 74.7L199.8 74.8999Z" fill="#080809"/>
<path d="M200.1 73.5002L200.2 73.4001C200.1 73.4001 200.1 73.5002 200.1 73.5002Z" fill="#080809"/>
<path d="M201.6 80.5C201.6 80.5 201.5 80.5 201.5 80.6C201.5 80.6 201.6 80.6 201.6 80.5Z" fill="#080809"/>
<path d="M202.2 80.5C202.3 80.5 202.3 80.6 202.2 80.5H202.3C202.4 80.5 202.3 80.5 202.2 80.5Z" fill="#080809"/>
<path d="M207.1 80L207.4 79.8C207.3 79.9 207.2 80 207.1 80Z" fill="#080809"/>
<path d="M201.2 80.7001C201.3 80.7001 201.4 80.6001 201.4 80.6001C201.4 80.6001 201.3 80.6001 201.2 80.7001Z" fill="#080809"/>
<path d="M197.9 76.2001L198 76.1001C198 76.2001 198 76.2001 197.9 76.2001Z" fill="#080809"/>
<path d="M201 78.9C201.6 78.2 201.2 79 201.8 78.4C201.6 78.5 201.4 78.5 201.7 78.1C202.1 77.8 201.8 78.3 202.4 77.8L202.1 77.9C202.3 77.5 202.8 77.2 202.7 77.2C201.9 77.8 202.6 76.5 202.4 76.5H202.5L202.6 76L202.5 76.1C202.8 75.7 202.9 75.2 202.6 75.2C202.1 75.6 201.9 74.9 201.5 75.2C201.7 75.2 201.7 75.2 201.7 75.4L201.2 75.9C201.1 75.8 201.6 75.4 201.2 75.6C200.6 76.4 201.4 75.8 201.4 76C201.2 76.1 201 76.2 200.9 76.2C201.1 76.4 201.1 76.9 201.9 76.3C201.8 76.5 201.5 76.8 201.4 76.8C201.9 76.5 201.1 77.3 201.6 77.1C200.9 77.7 201 77.2 200.5 77.4C200.8 76.7 200.1 77 199.8 76.9C200.2 76.4 200.8 76.1 200.9 75.7C201 75.2 200.4 75.8 200.1 75.9C200.1 75.6 200.8 75 200.6 74.8L201 74.6C201.5 73.7 200.6 74.8 200.6 74.5C200.5 74.7 200.3 74.9 200.5 75C200.3 75.3 200.1 75.3 200 75.3C199.6 75.6 199.3 76 199.3 75.7C199.8 75.4 199.4 75.3 199.6 75L199.7 74.9C199.5 74.9 199.4 74.8 199.2 74.8L199.3 74.7C199.1 74.8 198.6 75.3 198.6 75.1C198.8 74.9 199.4 74.4 199.2 74.4C199.5 74.1 199.7 74.2 199.7 74.4C199.7 74.2 200 73.6 200.2 73.7C200.5 73.2 199.9 73.8 200 73.5C199.9 73.6 199.8 73.8 199.7 73.9C200.1 73.3 199.4 73.6 199.1 74L199.5 73.8C199.1 74.3 198.7 74.4 198.6 74.7C199.1 73.9 197.9 74.7 198.3 74L198.1 74.4C198 73.9 197 74.6 196.6 74.5C196.9 74.3 197.5 73.6 197.5 74C197.3 73.6 198 73.1 198.2 72.7C198.2 72.2 197.5 73.4 197.3 73.5H197.6C196.7 74.3 197.1 72.8 196.3 73.2C196.4 72.9 196.5 73.1 196.6 73C196.8 72.4 196.4 73 196.2 73.1C196.1 72.9 196.1 72.6 196.6 72C196.5 71.7 196.4 72.4 196.1 72.5L196.2 72.3L195.6 72.8C195.6 72.5 195.6 72 195.9 71.4C195.4 71.3 194.9 72.7 194.5 72.8C194.6 72.4 194.8 72.3 195 72.1L194.7 72C195.2 71.4 195.2 71.8 195.7 71C195 71.7 195.3 71.1 194.7 71.4V71.5C194.2 72 194.2 71.4 194 71.4C194.3 71.1 194.5 71.2 194.7 71.1C194.7 70.7 194.1 70.7 193.5 71.3C193.5 71.1 193.4 70.7 193.7 70.5C193.4 70.2 193 71.5 192.8 71.1L193.1 70.6C193.2 69.6 192 71 192.1 70.1L191.7 70.8C191.8 70.5 191.7 70.3 191.8 70L192.1 69.9C192.3 69.2 191.6 70.4 191.7 69.9C191.6 70.1 191.5 70.7 191.4 70.9C192.3 70.9 192.5 72.2 193.5 71.9C193.5 71.8 193.5 71.7 193.6 71.6C193.6 71.8 193.8 71.7 193.6 72.1H193.5C193.8 72.1 193.4 73 193.5 73C193.8 72.6 193.7 73.4 194.1 72.6L193.9 73.2C194.1 72.9 194.3 72.6 194.5 72.5C194.6 72.6 194.4 72.9 194.2 73.1C194.5 73.7 195.1 73.9 195.7 74L195.3 74.3C195.3 74.6 196.1 74 195.4 74.8C195.9 74.6 195.8 75.5 196.5 74.6C196 75.6 196.7 75.4 197.1 75.5C197.6 74.7 197.5 75.5 197.9 75.2C197.5 75.8 197.2 75.6 196.9 76C197.9 75.3 197.2 77.3 198.5 75.9C198.5 76 198.4 76 198.4 76.1C198.5 76.2 198.3 76.5 198.3 76.6C198.5 76.4 198.5 76.1 198.7 76.2C198.8 76.3 198.4 76.7 198.3 76.9C198.8 76.7 199.2 76.9 199.8 76.3C199.7 76.5 199.5 76.9 199.3 77C200 76.8 199.5 77.4 200.1 77.4C200 77.3 199.5 78 199.6 77.6C199 78.5 200.2 77.9 200.1 78.5L200.7 78.1C200.9 78.2 200.5 78.6 200.2 78.7C200.2 79.2 200.6 79.1 200.8 79.3C200.8 79.4 200.6 79.5 200.6 79.4L200.9 79.7C201.1 79.6 201.4 79.5 201.7 79.1C201.2 79.2 200.9 79.3 201 78.9Z" fill="#080809"/>
<path d="M200.8 74.2C200.7 74.4 200.7 74.4 200.7 74.5C200.8 74.4 200.8 74.3 200.8 74.2Z" fill="#080809"/>
<path d="M205 80.9002C205.8 80.2002 204.7 80.8002 204.8 80.5002C205 80.5002 205.5 80.1002 205.7 79.9002C204.5 80.6002 205.8 79.5002 205.3 79.4002C205.6 79.1002 205.8 79.2002 206.2 78.9002C205.8 79.0002 205.4 78.8002 204.8 79.3002C204.5 79.0002 204.6 78.7002 204.3 78.6002C204.7 78.6002 204.9 78.1002 205.5 77.8002C204.6 78.2002 203.5 78.5002 202.4 79.0002C203 78.4002 203 78.3002 203.6 77.8002C203.7 77.1002 202.9 78.3002 202.8 77.8002V78.0002C202.5 78.0002 201.9 78.6002 201.5 78.9002L201.9 79.2002C201.5 79.6002 201.3 79.3002 201.2 79.4002C200.6 79.8002 201 79.9002 200.6 80.3002C201 80.0002 201 80.3002 201.2 80.2002L201 80.4002C200.9 80.8002 201.6 80.3002 201.7 80.5002C201.6 80.6002 201.6 80.6002 201.6 80.7002C201.9 80.5002 202.3 80.3002 202.4 80.3002H202.3C203 79.9002 203.6 79.9002 204 79.2002L204.2 79.7002C203.6 80.2002 202.6 81.0002 202.3 80.8002L202 81.0002C201.8 81.5002 202.8 81.0002 203.3 80.4002C204.9 79.3002 203.9 80.9002 204.7 80.6002C204.3 81.0002 204 80.9002 203.7 81.1002C203.6 81.1002 203.5 81.0002 203.9 80.7002C203.4 80.6002 202.7 81.9002 202.5 81.4002C202.5 81.0002 203.3 81.1002 203.2 80.7002L201.9 81.5002C202.1 81.6002 202.4 81.6002 202.6 81.6002C203.3 81.6002 203.6 82.0002 203.7 82.3002C203.8 82.6002 203.8 82.9002 203.8 82.9002C204.8 83.9002 205.8 85.0002 206.7 86.2002C207.1 86.5002 207.1 86.6002 208.5 86.1002C208.7 85.9002 208.5 85.7002 209 85.5002C208.5 85.7002 208.2 85.7002 208.1 85.5002C208.5 85.2002 208.4 85.6002 208.5 85.5002V85.4002C208.7 85.3002 208.9 85.2002 209 85.3002C209.6 84.7002 209.1 84.2002 208.1 84.6002C208.4 84.1002 208.9 84.3002 209.3 84.2002C209.2 83.3002 208.8 82.8002 208.4 82.1002C207.6 82.6002 207.9 82.4002 207.3 82.6002L207.5 82.3002C207.4 82.4002 206.8 82.7002 206.7 83.0002C207 82.2002 205.4 83.3002 204.8 83.3002L205.2 83.0002C205 82.8002 204.9 82.8002 204.6 82.8002C205.1 81.9002 204.9 83.0002 205.8 82.2002H205.6C206 82.0002 206.7 81.5002 207.1 81.5002C206.2 81.6002 207 80.8002 206.2 80.8002C206.7 80.5002 207.3 80.6002 207.4 80.6002C207.3 80.4002 206.9 80.5002 207.2 80.1002L206.6 80.5002C206.4 80.3002 207.1 80.1002 207.4 79.8002C206.9 79.3002 205.6 81.0002 205 80.9002Z" fill="#080809"/>
<path d="M200.8 76C200.8 76.1 200.9 76.1 201 76.1C201 76.1 200.9 76 200.8 76Z" fill="#080809"/>
<path d="M202.6 75.8999C202.7 75.7999 202.7 75.8 202.8 75.7C202.8 75.8 202.7 75.7999 202.6 75.8999Z" fill="#080809"/>
<path d="M203.4 75.3C203.2 75.5 203.1 75.5 202.8 75.7C203 75.7 203.2 75.8 203.4 75.3Z" fill="#080809"/>
<path d="M199.3 73.3001C199.4 72.9001 198.9 73.2001 198.8 73.1001C198.7 73.4001 199 73.4001 199.3 73.3001Z" fill="#080809"/>
<path d="M201.6 72.6001C201.4 72.7001 201.3 72.7001 201.4 72.9001L200.6 73.6001C200.6 74.0001 201.4 72.9001 201.6 72.6001Z" fill="#080809"/>
<path d="M203 73.6001L202.5 73.7001L202.6 73.8001C202.3 74.1001 202.1 74.2001 201.8 74.4001C202.1 74.3001 202.5 74.1001 203 73.6001Z" fill="#080809"/>
<path d="M201.5 74.3H201.6C201.7 74.2 201.8 74.1 201.5 74.3Z" fill="#080809"/>
<path d="M201.7 74.4C201.7 74.4 201.8 74.4 201.8 74.3C201.7 74.4 201.7 74.4 201.7 74.4C201.6 74.4 201.5 74.5 201.7 74.4Z" fill="#080809"/>
<path d="M202.8 74.1L203.2 74.3V74C202.7 74.5 203.3 73.6 202.8 74.1Z" fill="#080809"/>
<path d="M204.1 76.1001L203.7 76.6001C203.8 76.9001 205 76.2001 204.4 77.0001C204.6 76.6001 205.1 76.7001 205 76.3001C204.5 76.6001 204.1 76.3001 204.1 76.1001Z" fill="#080809"/>
<path d="M204.2 77.5C204 77.6 204 77.6999 203.9 77.8999C203.9 77.9999 204.2 77.8999 204.3 77.6999C203.7 78.0999 204.6 77.2 204.2 77.5Z" fill="#080809"/>
<path d="M205.1 78.4C205 78.3 204.9 78.3 204.9 78.5C205.1 78.7 205.6 78.1 206 78C206.1 77.5 205.2 78 205.1 78.4Z" fill="#080809"/>
<path d="M202.8 82.7C203.2 82.3 203 82.3 202.9 82.3C203 82.4 202.9 82.6 202.8 82.7Z" fill="#080809"/>
<path d="M206.3 80V79.8L205.6 80.3L206.3 80Z" fill="#080809"/>
<path d="M207.5 80.8L208 80.7L207.8 80.5L207.5 80.8Z" fill="#080809"/>
<path d="M207.6 81.2L207.8 81.4L207.9 81.2C207.9 80.9 207.6 81.2 207.6 81.2Z" fill="#080809"/>
<path d="M208.1 81.7001C208 81.7001 208.1 81.6001 208.2 81.6001H207.8L208.1 81.7001Z" fill="#080809"/>
</g>
</g>
<path d="M135.8 147.8C135.8 147.8 141.2 164.6 156.9 178.5L147.1 204.5C147.1 204.5 130.7 204 131.2 215.9H149.2C149.2 215.9 156.3 209.1 156.9 208.2C157.5 207.2 173.4 174.4 173.4 174.4L161.8 137.4C161.8 137.5 133.3 141.8 135.8 147.8Z" fill="#637189"/>
<path d="M136.2 210.8C136.2 210.8 134.5 212.7 135.7 215.9" stroke="#1B1C1E" stroke-miterlimit="10"/>
<path d="M67.9 210.5C67.9 210.5 66 212.8 66.9 215.9" stroke="#1B1C1E" stroke-miterlimit="10"/>
<path d="M8.09997 31.8C8.09997 31.8 -5.10003 1.79998 2.99997 0.799983C9.59997 -1.74046e-05 28.2 21.5 28.2 21.5C28.2 21.5 10.4 33.1 8.09997 31.8Z" fill="#637189"/>
<path d="M44.5 22.3C44.5 22.3 52.6 12 63.1 5.50001C73.6 -0.999993 72.4 6.30001 70.2 14.6C67.6 24 61.7 34.4 61.7 34.4C61.7 34.4 46.5 26 44.5 21.5" fill="#637189"/>
<path d="M13.8999 64.5999C11.7999 99.2999 21.5999 135.1 50.2999 142C78.9999 148.9 137.1 147.8 137.1 147.8C146.2 166 160.8 174.6 160.8 174.6L150.4 205.4C137.1 206.4 138.7 216 138.7 216H158C158 216 210.2 132.3 210.8 104.7C211.4 77.0999 195.4 64.4999 149.4 61.8999C103.4 59.2999 63.2999 66.0999 63.2999 66.0999L59.6999 60.1999C59.6999 60.1999 67.0999 51.1999 66.6999 42.4999C66.4999 38.8999 65.2999 35.1999 62.9999 31.8999C61.1999 29.2999 58.6999 26.9999 55.4999 25.0999C52.9999 23.6999 50.1999 22.5999 46.8999 21.8999C40.2999 20.4999 33.5999 20.1999 27.5999 20.7999C26.1999 20.8999 24.8999 21.0999 23.5999 21.3999C21.7999 21.6999 20.0999 22.0999 18.5999 22.5999C16.4999 23.2999 14.4999 24.0999 12.7999 25.0999C3.99989 30.1999 -0.400109 41.1999 2.79989 50.4999C6.09989 59.8999 13.8999 64.5999 13.8999 64.5999Z" fill="#637189"/>
<path d="M137.1 147.8C146.2 166 160.8 174.6 160.8 174.6L150.4 205.4" stroke="#1B1C1E" stroke-miterlimit="10"/>
<path d="M27.5 20.7999C26.1 20.8999 24.8 21.0999 23.5 21.3999C21.7 21.6999 20 22.0999 18.5 22.5999" stroke="#1B1C1E" stroke-miterlimit="10"/>
<path d="M13.8999 64.6L15.6999 65.8" stroke="#1B1C1E" stroke-miterlimit="10"/>
<path d="M34.8999 62.6999C34.8999 62.6999 36.3999 63.7999 38.9999 63.6999C41.5999 63.5999 42.4999 62.3 42.4999 62.3C42.4999 62.3 40.9999 59.1 38.5999 58.8C36.1999 58.4 34.8999 62.6999 34.8999 62.6999Z" fill="#B8BDC4"/>
<path d="M28.1 47.5C30.2 47 31.4 44.8 30.7 42.8C30 40.7 28.6 38.3 25.8 37.3C23 36.4 20.4 36.8 18.6 37.4C16.8 38 15.7 39.9 16.2 41.8C16.7 43.6 18 45.7 20.8 47C23.3 48.1 26 47.9 28.1 47.5Z" fill="#B4D3CD"/>
<path d="M47.8 46.4C45.3 46.2 43.8 43.5 44.8 41.3C45.8 39.1 47.7 36.7 50.8 36C53.1 35.5 54.9 35.6 56.2 36C58.4 36.6 59.5 39.2 58.4 41.2C57.6 42.7 56.2 44.4 54 45.4C51.8 46.4 49.6 46.6 47.8 46.4Z" fill="#B4D3CD"/>
<path d="M137.1 147.8C137.1 147.8 135 144 134.4 141.7" stroke="#1B1C1E" stroke-miterlimit="10"/>
<path d="M144 215.9C144 215.9 143.8 213 145.7 211" stroke="#1B1C1E" stroke-miterlimit="10"/>
<path d="M152.6 210.8C152.6 210.8 150.5 212.5 150.7 215.9" stroke="#1B1C1E" stroke-miterlimit="10"/>
<path d="M24.8 45.9C25.6836 45.9 26.3999 44.333 26.3999 42.4C26.3999 40.467 25.6836 38.9 24.8 38.9C23.9163 38.9 23.2 40.467 23.2 42.4C23.2 44.333 23.9163 45.9 24.8 45.9Z" fill="#1B1C1E"/>
<path d="M50.4999 44.7999C51.3836 44.7999 52.0999 43.2329 52.0999 41.2999C52.0999 39.3669 51.3836 37.7999 50.4999 37.7999C49.6163 37.7999 48.8999 39.3669 48.8999 41.2999C48.8999 43.2329 49.6163 44.7999 50.4999 44.7999Z" fill="#1B1C1E"/>
<path d="M38.7 57.2V59.2C38.7 59.2 38.5 60.2 36 62.5C34.4 64.1 29.4 65.8 27.4 62.2C25.4 58.6 29.6 53.5 35.1 53.5C40.6 53.5 38.7 57.2 38.7 57.2Z" fill="#B8BDC4"/>
<path d="M38.7001 59.2C38.7001 59.2 40.4001 61.3 41.6001 62.1C42.5001 62.7 45.1001 64.9 47.4001 63.8C49.8001 62.8 50.5001 59.3 49.4001 57C48.3001 54.7 45.0001 53 42.0001 53.5C39.0001 53.9 38.4001 55.5 38.7001 59.2Z" fill="#B8BDC4"/>
<path d="M38.6999 57.1999C38.6999 57.1999 34.4999 55.1999 34.0999 53.1999C33.6999 51.1999 37.6999 50.5999 40.2999 51.0999C43.5999 51.5999 44.1999 54.0999 38.6999 57.1999Z" fill="#1B1C1E"/>
<path d="M62.7 131.9C62.7 131.9 64.2999 137.2 66.3999 144.7C70.0999 157.8 75.4 177.4 76.5 185.9C78.3 199.2 77.8999 205.4 77.8999 205.4C77.8999 205.4 64.2 204.8 64.7 215.9C64.7 215.9 83.7 215.9 84.8 215.9C85.9 215.9 90.3999 203 90.3999 203C90.3999 203 94.6 167.1 96.8 147.1C97.6 140.2 98.1 135.3 98.1 134.2" fill="#637189"/>
<path d="M66.3999 144.7C70.0999 157.8 75.3999 177.4 76.4999 185.9C78.2999 199.2 77.8999 205.4 77.8999 205.4C77.8999 205.4 64.1999 204.8 64.6999 215.9" stroke="#1B1C1E" stroke-miterlimit="10"/>
<path d="M68.4 215.2C68.4 215.2 68.2 212.2 70.7 210.5" stroke="#1B1C1E" stroke-miterlimit="10"/>
<path d="M75.9 212C75.9 212 74.8 212.6 74.9 215.9" stroke="#1B1C1E" stroke-miterlimit="10"/>
<path d="M62.7 131.9C62.7 131.9 64.2999 137.2 66.3999 144.7" stroke="#1B1C1E" stroke-miterlimit="10"/>
<path d="M96.7 147.2C97.5 140.3 98 135.4 98 134.3" stroke="#1B1C1E" stroke-miterlimit="10"/>
<mask id="mask2_70_3020" style="mask-type:luminance" maskUnits="userSpaceOnUse" x="52" y="60" width="12" height="8">
<path d="M63.3999 66L52.8999 67.9C54.0999 65.9 59.7999 60.1 59.7999 60.1L63.3999 66Z" fill="white"/>
</mask>
<g mask="url(#mask2_70_3020)">
<g opacity="0.88">
<path d="M57.7 62.8999C57.8 62.8999 57.8999 62.9999 57.8999 62.9999C57.8999 63.0999 57.8 62.9999 57.7 62.8999Z" fill="#080809"/>
<path d="M52.9998 67.2L52.7998 67C52.9998 67 52.9998 67.1 52.9998 67.2Z" fill="#080809"/>
<path d="M59.5 64.1C59.6 64.1 59.7 64.2 59.9 64.3L59.5 64.1Z" fill="#080809"/>
<path d="M59.8999 65.3999L59.9999 65.4999C59.8999 65.4999 59.8999 65.4999 59.8999 65.3999Z" fill="#080809"/>
<path d="M57.5999 62.7999L57.6998 62.8999C57.5998 62.8999 57.5999 62.8999 57.5999 62.7999Z" fill="#080809"/>
<path d="M59.7999 63.7C59.6999 63.7 59.6999 63.8 59.7999 63.7V63.7Z" fill="#080809"/>
<path d="M60.4998 60C61.0998 60.7 60.6999 59.9 61.2999 60.5C61.0999 60.5 60.8998 60.4 61.1998 60.8C61.5998 61.1 61.2998 60.6 61.8998 61.1L61.5999 61C61.7999 61.3 62.3998 61.6 62.1998 61.7C61.2998 61.1 62.0998 62.4 61.8998 62.4H61.9998L62.1998 62.9L62.0999 62.8C62.3999 63.2 62.4999 63.6 62.2999 63.7C61.7999 63.3 61.5998 64.1 61.1998 63.8C61.3998 63.8 61.3998 63.8 61.3998 63.6L60.8998 63.1C60.7998 63.3 61.3998 63.6 60.8998 63.4C60.1998 62.7 61.0999 63.2 61.0999 63C60.8999 62.9 60.6999 62.8 60.5999 62.8C60.7999 62.6 60.6999 62.1 61.5999 62.7C61.4999 62.5 61.1999 62.2 61.0999 62.2C61.6999 62.4 60.7999 61.7 61.2999 61.9C60.5999 61.3 60.6998 61.9 60.1998 61.6C60.4998 62.3 59.7998 62.1 59.4998 62.2C59.9998 62.7 60.4998 62.9 60.6998 63.3C60.7998 63.8 60.1998 63.3 59.8998 63.1C59.8998 63.4 60.6998 63.9 60.3998 64.2L60.7999 64.4C61.2999 65.2 60.3998 64.3 60.3998 64.5C60.2998 64.3 60.0998 64.1 60.1998 64C59.9998 63.7 59.7998 63.7 59.6998 63.7C59.2998 63.4 58.9998 63.1 58.9998 63.4C59.4998 63.7 59.1999 63.8 59.2999 64L59.3998 64.1C59.1998 64.1 59.0998 64.2 58.9998 64.2L59.0999 64.3C58.8999 64.2 58.3999 63.7 58.2999 63.9C58.4999 64.1 59.1998 64.5 58.8998 64.6C59.1998 64.9 59.3998 64.8 59.3998 64.6C59.3998 64.8 59.7998 65.4 59.9998 65.3C60.2998 65.7 59.6999 65.3 59.7999 65.5C59.6999 65.4 59.5998 65.3 59.4998 65.1C59.9998 65.6 59.1998 65.4 58.8998 65L59.2999 65.2C58.8999 64.8 58.4999 64.6 58.2999 64.3C58.7999 65 57.5998 64.3 57.9998 65L57.7999 64.6C57.6999 65.1 56.6999 64.5 56.2999 64.6C56.5999 64.7 57.1998 65.5 57.1998 65.1C56.9998 65.5 57.6998 65.9 57.8998 66.4C57.8998 66.9 57.1998 65.8 56.8998 65.6H57.1998C56.2998 64.9 56.6998 66.3 55.9998 66C56.1998 66.3 56.1999 66.1 56.2999 66.1C56.4999 66.7 56.0998 66.1 55.8998 66C55.7998 66.2 55.7999 66.6 56.2999 67.1C56.1999 67.4 56.0999 66.7 55.7999 66.6L55.8998 66.8L55.1998 66.3C55.1998 66.6 55.1999 67.1 55.5999 67.7C55.1999 67.8 54.4999 66.5 54.0999 66.4C54.1999 66.8 54.3999 66.8 54.5999 67.1L54.2999 67.2C54.7999 67.8 54.7999 67.4 55.2999 68.1C54.5999 67.5 54.8999 68.1 54.2999 67.7V67.6C53.7999 67.1 53.7999 67.7 53.5999 67.7C53.8999 68 54.0999 67.9 54.2999 67.9C54.2999 68.3 53.6999 68.3 53.0999 67.7C53.0999 67.9 52.9998 68.3 53.3998 68.5C53.0998 68.9 52.5998 67.6 52.3998 68L52.7999 68.5C52.8999 69.5 51.6999 68.2 51.7999 69.1L51.3998 68.4C51.4998 68.7 51.3999 68.9 51.5999 69.2L51.8998 69.3C52.0998 69.9 51.3998 68.9 51.4998 69.4C51.3998 69.2 51.2999 68.7 51.0999 68.4C51.9999 68.4 52.0998 67.1 53.1998 67.3C53.1998 67.4 53.2998 67.5 53.3998 67.6C53.3998 67.4 53.5998 67.5 53.3998 67.1H53.2999C53.5999 67.1 53.1999 66.2 53.2999 66.2C53.6999 66.6 53.4998 65.8 53.9998 66.6L53.7999 66.1C53.9999 66.4 54.2998 66.7 54.3998 66.8C54.4998 66.7 54.2998 66.4 53.9998 66.2C54.2998 65.6 54.7998 65.3 55.3998 65.2L54.9998 65C54.9998 64.8 55.7999 65.3 55.0999 64.5C55.5999 64.7 55.4998 63.8 56.1998 64.7C55.6998 63.7 56.3999 63.9 56.7999 63.8C57.3999 64.6 57.1999 63.8 57.5999 64.1C57.1999 63.5 56.8998 63.7 56.4998 63.3C57.4998 63.9 56.6999 62 58.0999 63.3C58.0999 63.2 57.9998 63.2 57.9998 63.1C58.0998 63 57.8998 62.7 57.8998 62.6C58.1998 62.8 58.0998 63 58.3998 63C58.4998 62.9 57.9998 62.5 57.8998 62.3C58.3998 62.4 58.7998 62.3 59.3998 62.8C59.2998 62.6 59.0998 62.2 58.8998 62.2C59.5998 62.3 59.0998 61.8 59.6998 61.8C59.5998 61.9 59.0999 61.3 59.0999 61.7C58.4999 60.8 59.6998 61.4 59.4998 60.7L60.0999 61.1C60.2999 61 59.8999 60.6 59.5999 60.5C59.4999 60 59.9998 60.1 60.1998 59.9C60.0998 59.8 59.9998 59.7 59.9998 59.8L60.1998 59.5C60.3998 59.6 60.6998 59.7 60.9998 60C60.6998 59.7 60.3998 59.6 60.4998 60Z" fill="#080809"/>
<path d="M60.4999 64.8C60.3999 64.6 60.3999 64.6 60.3999 64.5C60.4999 64.6 60.4999 64.7 60.4999 64.8Z" fill="#080809"/>
<path d="M64.3999 57.8999C65.1999 58.5999 64.1 57.9999 64.2 58.2999C64.4 58.2999 64.9 58.6999 65.1 58.8999C63.9 58.1999 65.2 59.2999 64.7 59.3999C65 59.6999 65.2 59.5999 65.6 59.8999C65.2 59.8999 64.8 59.9999 64.2 59.5999C64 59.8999 64 60.2999 63.8 60.2999C64.2 60.2999 64.4 60.7999 65.1 60.9999C64.2 60.5999 63 60.3999 62 59.9999C62.6 60.5999 62.7 60.6999 63.3 61.0999C63.4 61.7999 62.6 60.6999 62.5 61.1999V60.9999C62.2 60.9999 61.6 60.4999 61.1 60.0999L61.5 59.7999C61.1 59.3999 60.9 59.6999 60.8 59.6999C60.2 59.2999 60.6 59.1999 60.2 58.8999C60.6 59.1999 60.6 58.8999 60.8 58.9999L60.6 58.7999C60.5 58.3999 61.2 58.8999 61.3 58.6999C61.2 58.5999 61.2 58.5999 61.2 58.5999C61.5 58.7999 61.9 58.9999 62 58.9999H61.8999C62.5999 59.3999 63.2 59.2999 63.6 59.9999L63.7 59.4999C63 58.9999 62 58.2999 61.8 58.4999L61.5 58.2999C61.3 57.8999 62.3 58.2999 62.8 58.7999C64.5 59.8999 63.3 58.2999 64.2 58.4999C63.8 58.1999 63.5 58.1999 63.2 57.9999C63.1 57.9999 62.9999 58.0999 63.3999 58.3999C62.8999 58.5999 62.1 57.2999 62 57.7999C62.1 58.1999 62.9 58.0999 62.7 58.3999L61.3999 57.6999C61.5999 57.5999 61.9 57.5999 62.1 57.4999C62.8 57.3999 63.1 57.0999 63.2 56.7999C63.3 56.4999 63.2 56.1999 63.2 56.1999C64.2 55.0999 65.0999 53.9999 65.8999 52.7999C66.2999 52.4999 66.3 52.2999 67.7 52.7999C67.9 52.9999 67.7 53.1999 68.2 53.3999C67.7 53.1999 67.3 53.1999 67.3 53.4999C67.8 53.7999 67.6 53.3999 67.7 53.4999V53.5999C68 53.6999 68.1 53.6999 68.2 53.6999C68.8 54.2999 68.3999 54.7999 67.3999 54.3999C67.7999 54.8999 68.2 54.6999 68.6 54.7999C68.5 55.6999 68.2 56.1999 67.8 56.9999C67 56.4999 67.3 56.7999 66.7 56.4999L67 56.6999C66.9 56.5999 66.3 56.2999 66.2 56.0999C66.5 56.8999 64.8 55.8999 64.3 55.8999L64.7 56.1999C64.5 56.3999 64.4 56.3999 64.1 56.4999C64.6 57.3999 64.4 56.2999 65.3 57.0999H65.1C65.5 57.2999 66.2 57.6999 66.6 57.7999C65.7 57.6999 66.5 58.4999 65.7 58.4999C66.2 58.7999 66.7999 58.6999 66.8999 58.5999C66.8999 58.7999 66.4 58.7999 66.8 59.0999L66.2 58.6999C66 58.8999 66.7 58.9999 67 59.3999C66.4 59.3999 64.9999 57.6999 64.3999 57.8999Z" fill="#080809"/>
<path d="M60.5 62.8999C60.5 62.7999 60.6 62.7999 60.7 62.7999C60.6 62.8999 60.6 62.8999 60.5 62.8999Z" fill="#080809"/>
<path d="M63.1 63.5C62.9 63.3 62.8 63.3 62.5 63.1C62.7 63.2 62.9 63 63.1 63.5Z" fill="#080809"/>
<path d="M56.1 67.2C56.1 67.5 55.8 67.1 55.5 66.7C55.7 66.5 55.9 67.1 56.1 67.2Z" fill="#080809"/>
<path d="M59.0999 65.6999C59.1999 66.0999 58.6999 65.7999 58.5999 65.8999C58.4999 65.5999 58.7999 65.5999 59.0999 65.6999Z" fill="#080809"/>
<path d="M61.3999 66.3C61.1999 66.2 61.1 66.2 61.2 66L60.3999 65.4C60.2999 65 61.0999 66 61.3999 66.3Z" fill="#080809"/>
<path d="M62.7 65.3L62.2 65.2L62.3 65.1C62 64.9 61.8 64.7 61.5 64.6C61.8 64.6 62.2 64.7 62.7 65.3Z" fill="#080809"/>
<path d="M61.2 64.6H61.3C61.4 64.6 61.5 64.8 61.2 64.6Z" fill="#080809"/>
<path d="M61.4 64.5C61.3 64.4 61.3 64.5 61.4 64.5V64.5Z" fill="#080809"/>
<path d="M62.5 64.8L62.9 64.6V64.9C62.5 64.4 63 65.2 62.5 64.8Z" fill="#080809"/>
<path d="M63.6998 62.7L63.2998 62.2C63.3998 61.9 64.5998 62.5 63.9998 61.7C64.1998 62 64.6998 61.9999 64.5998 62.3999C64.0998 62.1999 63.7998 62.4 63.6998 62.7Z" fill="#080809"/>
<path d="M63.8 61.3C63.6 61.2 63.6 61.0999 63.5 60.8999C63.5 60.7999 63.8 60.9 64 61.1C63.2 60.7 64.2 61.6 63.8 61.3Z" fill="#080809"/>
</g>
</g>
<mask id="mask3_70_3020" style="mask-type:luminance" maskUnits="userSpaceOnUse" x="96" y="135" width="24" height="13">
<path d="M119.5 147.8C112.9 147.7 105 147.6 96.7 147.2C97.3 141.4 97.8 136.9 98 135C101.9 137.7 112.1 144.4 119.5 147.8Z" fill="white"/>
</mask>
<g mask="url(#mask3_70_3020)">
<g opacity="0.88">
<path d="M99.5 142.4C99.6 142.4 99.7 142.5 99.9 142.5L99.5 142.4Z" fill="#080809"/>
<path d="M100.6 141.5C100.7 141.5 100.7 141.5 100.7 141.4C100.7 141.5 100.6 141.5 100.6 141.5Z" fill="#080809"/>
<path d="M98.2 146.4C99.1 146.1 98.3001 146.6 99.1001 146.4C98.9001 146.3 98.7 146.3 99.2 146.1C99.7 146.1 99.2 146.4 100 146.2L99.7 146.1C100 145.9 100.7 145.9 100.6 145.8C99.6001 145.9 100.9 145.2 100.7 145.1H100.8L101.2 144.7C101.2 144.7 101.2 144.7 101.3 144.7C101.2 144.7 101.2 144.7 101.1 144.7C101.6 144.5 101.9 144.2 101.7 144C101.1 144 101.4 143.4 100.9 143.4C101.1 143.5 101.1 143.5 101 143.7L100.3 143.8C100.3 143.6 100.9 143.6 100.5 143.5C99.6 143.7 100.6 143.8 100.5 143.9C100.3 143.9 100.1 143.9 100 143.8C100 144.1 99.8 144.4 100.7 144.4C100.5 144.5 100.1 144.6 100 144.5C100.6 144.6 99.5 144.8 100 144.8C99.1 144.9 99.5 144.5 98.9 144.4C99.5 144 98.8001 143.8 98.6001 143.5C99.2001 143.3 99.8 143.4 100.2 143.2C100.6 142.8 99.8 143 99.4 142.9C99.6 142.7 100.5 142.7 100.4 142.3L100.9 142.4C101.8 142 100.5 142.3 100.7 142.1C100.5 142.2 100.2 142.2 100.3 142.4C100 142.5 99.8 142.4 99.8 142.3C99.3 142.3 98.9001 142.4 99.1001 142.2C99.7001 142.2 99.5 142 99.7 141.9H99.8C99.6 141.8 99.6 141.6 99.5 141.5H99.6001C99.4001 141.4 98.7 141.5 98.8 141.3C99.1 141.3 99.8 141.3 99.7 141.2C100.1 141.1 100.2 141.3 100.1 141.5C100.2 141.3 100.9 141.1 100.9 141.3C101.4 141.1 100.6 141.2 100.9 141C100.7 141.1 100.6 141.1 100.4 141.1C101.1 141 100.4 140.7 99.9 140.8L100.3 140.9C99.7 141 99.3 140.9 99 141C99.9 140.7 98.5 140.6 99.2 140.3L98.8 140.5C99 140 97.9001 139.9 97.6001 139.5C97.9001 139.6 98.9001 139.4 98.6001 139.7C98.7001 139.3 99.5 139.4 100 139.2C100.3 138.8 99.1 139.2 98.8 139.2L99 139.4C97.8 139.3 99.1 138.6 98.3 138.3C98.6 138.2 98.5001 138.4 98.6001 138.4C99.1001 138.1 98.4 138.2 98.2 138.2C98.3 138 98.5 137.7 99.2 137.7C99.3 137.5 98.8 137.8 98.5 137.7L98.7 137.6L97.9 137.5C98.1 137.3 98.4001 137 99.1001 136.8C98.9001 136.4 97.5 136.9 97.2 136.7C97.5 136.5 97.7 136.6 98 136.6L97.9 136.3C98.7 136.3 98.3 136.6 99.3 136.4C98.3 136.3 99 136.1 98.3 135.9H98.2C97.6 135.9 97.9 135.5 97.8 135.3C98.2 135.3 98.3 135.5 98.4 135.6C98.7 135.3 98.3 134.9 97.4 134.8C97.5 134.7 97.8 134.4 98.2 134.5C98.3 134.1 97 134.5 97.2 134.1L97.8 134C98.6 133.5 96.9001 133.4 97.6001 132.9L96.8 133C97.1 132.9 97.2 132.7 97.5 132.6L97.8 132.7C98.4 132.4 97.2001 132.6 97.6001 132.3C97.4001 132.3 96.9001 132.6 96.6001 132.6C97.2001 133.3 96.2001 134.3 97.1001 135C97.2001 135 97.3 134.9 97.4 134.9C97.2 135 97.5001 135.1 97.1001 135.2H97C97.2 135.4 96.3 135.7 96.3 135.8C96.8 135.8 96.2 136.3 97 136L96.5 136.2C96.8 136.2 97.3 136.1 97.4 136.2C97.4 136.4 97 136.4 96.8 136.3C96.6 136.9 96.8001 137.5 97.1001 138.1L96.7 138C96.5 138.2 97.5 138.4 96.4 138.4C96.9 138.6 96.2 139.2 97.3 139C96.3 139.4 97 139.8 97.2 140.1C98.1 139.9 97.5 140.4 98 140.4C97.3 140.6 97.2 140.2 96.7 140.3C97.9 140.5 96.1 141.6 98 141.3C97.9 141.4 97.9 141.4 97.8 141.4C97.8 141.5 97.5 141.6 97.5 141.7C97.8 141.7 97.9001 141.5 98.1001 141.6C98.1001 141.8 97.5 141.8 97.3 141.9C97.8 142.1 98 142.5 98.8 142.4C98.6 142.5 98.2001 142.7 98.1001 142.6C98.8001 142.9 98.1 143 98.5 143.4C98.4 143.3 97.7 143.5 98 143.2C97 143.6 98.3 143.8 97.9 144.3H98.6001C98.8001 144.5 98.1 144.6 97.9 144.5C97.6 145 98.0001 145.1 98.1001 145.3C98.0001 145.3 97.9 145.4 97.9 145.3L98 145.7C98.2 145.7 98.5 145.8 99 145.6C98.2 146.7 98 146.6 98.2 146.4Z" fill="#080809"/>
<path d="M100.7 142.4C100.5 142.5 100.5 142.5 100.4 142.6C100.6 142.5 100.7 142.5 100.7 142.4Z" fill="#080809"/>
<path d="M100.7 150C101.7 149.7 100.5 149.8 100.7 149.6C100.9 149.7 101.5 149.5 101.8 149.4C100.4 149.5 102 149.1 101.6 148.8C102 148.7 102.1 148.8 102.6 148.7C102.2 148.6 102 148.3 101.2 148.5C101.1 148.2 101.3 147.8 101.1 147.7C101.5 147.9 101.8 147.6 102.5 147.6C101.6 147.6 100.4 147.2 99.3 147.1C100.1 146.9 100.2 146.8 100.9 146.7C101.3 146.2 100.1 146.8 100.3 146.3L100.2 146.5C99.9 146.4 99.2 146.5 98.6 146.6L98.8 147C98.2 147.1 98.3 146.8 98.1 146.8C97.4 146.8 97.7 147.2 97.2 147.2C97.7 147.2 97.6 147.4 97.8 147.5L97.5 147.6C97.2 147.9 98 147.8 98.1 148C98 148 97.9999 148.1 97.8999 148.1C98.1999 148.1 98.7 148.1 98.8 148.2L98.7 148.1C99.4 148.1 100 148.4 100.7 147.9L100.6 148.4C99.8 148.5 98.6 148.7 98.5 148.5H98.2C97.8 148.8 98.9 148.9 99.6 148.6C101.5 148.3 99.9 149.3 100.7 149.5C100.2 149.7 100 149.5 99.6 149.5C99.5 149.4 99.4999 149.3 99.8999 149.2C99.4999 148.8 98.2999 149.7 98.3999 149.1C98.5999 148.8 99.3 149.2 99.3 148.8L97.8 148.9C97.9 149.1 98.1999 149.3 98.3999 149.4C99.5999 150.2 99 151.1 99 151.1C99.6 152.6 100.1 154 100.8 155.4C101.1 155.8 101.1 156 102.6 155.7C102.8 155.5 102.6 155.3 103.1 155.2C102.6 155.3 102.2 155.2 102.2 155C102.7 154.8 102.5 155.1 102.6 155V154.9C102.9 154.8 103 154.8 103.1 154.9C103.8 154.4 103.4 154 102.4 154.1C102.8 153.7 103.2 154 103.6 154C103.7 153.1 103.5 152.6 103.3 151.9C102.4 152.1 102.7 152 102.1 152.1L102.4 151.9C102.2 152 101.6 152 101.5 152.3C102.1 151.7 100.2 152.1 99.7 151.9L100.2 151.8C100 151.6 100 151.5 99.7 151.3C100.5 150.7 99.9 151.6 101 151.2L100.8 151.1C101.3 151 102 150.9 102.4 150.9C101.6 150.7 102.5 150.3 101.9 150C102.4 149.9 102.9 150.2 103 150.3C103 150.1 102.6 150 103 149.9L102.3 150C102.2 149.8 102.9 149.9 103.3 149.7C103.1 149.4 101.3 150.4 100.7 150Z" fill="#080809"/>
<path d="M99.7 143.8C99.7 143.9 99.7 143.9 99.8 144C99.7 144 99.7 143.9 99.7 143.8Z" fill="#080809"/>
<path d="M101.2 144.8C101.3 144.8 101.4 144.8 101.4 144.8C101.3 144.7 101.3 144.7 101.2 144.8Z" fill="#080809"/>
<path d="M102.1 144.7C101.8 144.8 101.8 144.7 101.4 144.8C101.6 144.8 101.7 145 102.1 144.7Z" fill="#080809"/>
<path d="M98.9001 138C99.2001 137.8 98.6001 137.9 98.2001 138C98.1001 138.2 98.7001 137.8 98.9001 138Z" fill="#080809"/>
<path d="M100.2 140.8C100.5 140.6 100 140.5 99.9001 140.3C99.7001 140.6 99.9001 140.8 100.2 140.8Z" fill="#080809"/>
<path d="M102.3 141.7C102.1 141.7 102 141.7 102 141.8H101C100.7 142.1 101.9 141.8 102.3 141.7Z" fill="#080809"/>
<path d="M102.8 143.1L102.4 143V143.1C102 143.1 101.8 143.1 101.5 143.1C101.6 143.2 102.1 143.3 102.8 143.1Z" fill="#080809"/>
<path d="M101.2 142.9C101.2 143 101.2 143 101.2 142.9C101.4 143 101.5 142.9 101.2 142.9Z" fill="#080809"/>
<path d="M101.3 143.1H101.4C101.3 143.1 101.3 143 101.3 143.1C101.2 143 101.1 143.1 101.3 143.1Z" fill="#080809"/>
<path d="M102.3 143.4L102.5 143.8L102.7 143.6C102.1 143.7 103 143.3 102.3 143.4Z" fill="#080809"/>
<path d="M102.3 145.6L101.7 145.8C101.6 146.1 103 146.1 102.1 146.5C102.4 146.3 102.8 146.5 102.9 146.2C102.3 146.2 102.2 145.8 102.3 145.6Z" fill="#080809"/>
<path d="M101.6 146.8C101.4 146.8 101.3 146.9 101.2 147C101.2 147.1 101.4 147.1 101.7 147C100.9 147.1 102.1 146.7 101.6 146.8Z" fill="#080809"/>
<path d="M102 147.9C102 147.8 101.9 147.7 101.8 147.9C101.9 148.1 102.5 147.9 103 147.9C103.2 147.6 102.2 147.7 102 147.9Z" fill="#080809"/>
</g>
</g>
<path d="M62.9999 31.9C62.1999 30.8 61.2999 29.7 60.1999 28.7C58.7999 27.4 57.2999 26.2 55.3999 25.1" stroke="#1B1C1E" stroke-miterlimit="10"/>
<path d="M150.5 205.4C137.2 206.4 138.8 216 138.8 216" stroke="#1B1C1E" stroke-miterlimit="10"/>
</svg>
