<svg width="204" height="170" viewBox="0 0 204 170" fill="none" xmlns="http://www.w3.org/2000/svg">
<path d="M75.5001 166.2C75.5001 166.2 69.9001 168.3 85.1001 168.9C100.3 169.5 180.5 169.8 188.7 168.9C196.9 168 206.1 166.9 190.6 165.7C178.8 164.8 161.6 164.9 149.6 164.6C128.1 164.1 82.0001 164.3 75.5001 166.2Z" fill="#1B1C1E"/>
<path d="M46.6001 101.6C46.6001 101.6 8.70007 113.9 1.00007 121.6C-5.39993 127.9 32.3001 121.6 32.3001 121.6C32.3001 121.6 22.0001 124.5 25.5001 125.5C30.8001 127 44.3001 123.7 50.2001 120.2C57.8001 115.7 46.6001 101.6 46.6001 101.6Z" fill="#89745E"/>
<mask id="mask0_70_2878" style="mask-type:luminance" maskUnits="userSpaceOnUse" x="0" y="101" width="53" height="25">
<path d="M46.6001 101.6C46.6001 101.6 8.70007 113.9 1.00007 121.6C-5.39993 127.9 32.3001 121.6 32.3001 121.6C32.3001 121.6 22.0001 124.5 25.5001 125.5C30.8001 127 44.3001 123.7 50.2001 120.2C57.8001 115.7 46.6001 101.6 46.6001 101.6Z" fill="white"/>
</mask>
<g mask="url(#mask0_70_2878)">
<g opacity="0.78">
<path d="M48.6001 114.6C48.5001 114.6 48.4 114.6 48.3 114.5C48.3 114.6 48.4001 114.6 48.6001 114.6Z" fill="#060606"/>
<path d="M48.8999 121.2H49.2999C49.0999 121.1 48.9999 121.2 48.8999 121.2Z" fill="#060606"/>
<path d="M46.2 114.2C46.1 114.1 46 114.1 45.8 114L46.2 114.2Z" fill="#060606"/>
<path d="M44.7 115C44.6 115 44.6 115 44.5 115.1C44.6 115 44.7 115 44.7 115Z" fill="#060606"/>
<path d="M48.9 108.3V108.2H48.8C48.7 108.2 48.8 108.3 48.9 108.3Z" fill="#060606"/>
<path d="M49.9001 108.9C49.8001 108.9 49.7001 108.8 49.6001 108.8C49.7001 108.8 49.7001 108.9 49.9001 108.9Z" fill="#060606"/>
<path d="M48.8001 114.6C48.7001 114.6 48.7001 114.6 48.6001 114.6C48.7001 114.6 48.8001 114.7 48.8001 114.6Z" fill="#060606"/>
<path d="M49.6001 123.6C49.7001 123.6 49.7001 123.7 49.8001 123.7C49.8001 123.6 49.7001 123.6 49.6001 123.6Z" fill="#060606"/>
<path d="M48.6001 110.4C47.5001 110.5 48.6001 110.2 47.5001 110.2C47.7001 110.3 47.9001 110.4 47.3001 110.5C46.7001 110.4 47.4001 110.2 46.5001 110.2L46.8001 110.4C46.3001 110.5 45.6001 110.4 45.7001 110.5C46.9001 110.7 45.2001 111.1 45.4001 111.2L45.3001 111.1L44.7001 111.4C44.7001 111.4 44.7001 111.4 44.6001 111.4C44.7001 111.4 44.7001 111.4 44.8001 111.4C44.2001 111.5 43.8001 111.7 43.9001 112C44.6001 112.1 44.2001 112.7 44.8001 112.8C44.6001 112.7 44.6001 112.6 44.8001 112.5H45.6001C45.6001 112.7 44.8001 112.5 45.3001 112.7C46.4001 112.6 45.3001 112.4 45.4001 112.2C45.7001 112.2 45.9001 112.3 46.0001 112.4C46.0001 112.1 46.4001 111.8 45.3001 111.6C45.5001 111.5 46.0001 111.5 46.1001 111.6C45.4001 111.4 46.8001 111.4 46.1001 111.3C47.2001 111.3 46.7001 111.7 47.3001 111.9C46.5001 112.2 47.3001 112.5 47.5001 112.8C46.7001 112.8 46.0001 112.7 45.6001 112.8C45.1001 113.1 46.0001 113.1 46.5001 113.2C46.2001 113.4 45.2001 113.3 45.2001 113.6L44.7001 113.4C43.6001 113.7 45.2001 113.6 44.9001 113.7C45.2001 113.6 45.5001 113.6 45.4001 113.4C45.8001 113.4 46.0001 113.5 46.0001 113.5C46.5001 113.5 47.1001 113.5 46.9001 113.8C46.2001 113.7 46.4001 114 46.1001 114.1H46.0001C46.2001 114.2 46.1001 114.4 46.3001 114.5H46.1001C46.4001 114.6 47.2001 114.6 47.0001 114.8C46.7001 114.8 45.8001 114.7 45.9001 114.9C45.4001 114.9 45.3001 114.7 45.5001 114.5C45.3001 114.7 44.5001 114.8 44.5001 114.6C43.9001 114.7 44.8001 114.8 44.5001 114.9C44.7001 114.9 44.9001 114.9 45.1001 114.9C44.3001 115 45.1001 115.3 45.7001 115.3L45.2001 115.1C45.9001 115 46.3001 115.3 46.7001 115.1C45.6001 115.3 47.3001 115.6 46.4001 115.8L46.9001 115.7C46.6001 116.2 47.9001 116.4 48.2001 116.8C47.8001 116.7 46.7001 116.8 47.1001 116.5C46.9001 116.9 46.0001 116.8 45.4001 116.9C45.0001 117.3 46.5001 116.9 46.9001 117L46.7001 116.8C48.1001 116.9 46.5001 117.7 47.4001 118C47.1001 118.1 47.2001 117.9 47.0001 117.9C46.3001 118.2 47.2001 118.1 47.5001 118.1C47.4001 118.3 47.2001 118.6 46.3001 118.6C46.1001 118.9 46.8001 118.5 47.1001 118.6L46.9001 118.7L47.9001 118.8C47.7001 119 47.2001 119.3 46.4001 119.6C46.6001 120 48.3001 119.4 48.7001 119.7C48.3001 120 48.0001 119.8 47.7001 119.8L47.8001 120.1C46.8001 120.2 47.3001 119.9 46.2001 120.1C47.4001 120.1 46.6001 120.4 47.4001 120.6H47.5001C48.3001 120.6 47.8001 121 48.0001 121.2C47.5001 121.2 47.4001 121 47.2001 120.9C46.9001 121.2 47.3001 121.7 48.3001 121.6C48.2001 121.8 47.8001 122.1 47.4001 122C47.3001 122.5 48.8001 121.9 48.6001 122.3L47.9001 122.5C47.0001 123.2 49.0001 123 48.2001 123.7L49.1001 123.5C48.7001 123.7 48.6001 123.9 48.3001 124L47.9001 123.9C47.2001 124.3 48.7001 123.9 48.2001 124.2C48.5001 124.1 49.0001 123.8 49.3001 123.7C48.6001 123 49.7001 121.9 48.6001 121.4C48.5001 121.5 48.4001 121.5 48.2001 121.5C48.4001 121.4 48.1001 121.2 48.6001 121.2H48.7001C48.5001 121 49.5001 120.6 49.5001 120.5C48.9001 120.5 49.7001 120 48.6001 120.3L49.2001 120C48.8001 120 48.3001 120.1 48.1001 120.1C48.2001 119.9 48.6001 119.9 48.9001 119.9C49.2001 119.3 49.0001 118.6 48.6001 118.1L49.1001 118.2C49.3001 118 48.1001 117.8 49.4001 117.8C48.9001 117.6 49.6001 117 48.3001 117.2C49.6001 116.9 48.8001 116.5 48.6001 116.1C47.5001 116.3 48.3001 115.8 47.7001 115.8C48.6001 115.7 48.6001 116 49.2001 116C47.8001 115.7 50.1001 114.8 47.8001 114.8C47.9001 114.7 48.0001 114.7 48.1001 114.7C48.1001 114.6 48.5001 114.5 48.6001 114.4C48.2001 114.4 48.0001 114.6 47.9001 114.4C48.0001 114.2 48.6001 114.3 48.9001 114.2C48.4001 114 48.1001 113.5 47.2001 113.5C47.4001 113.4 48.0001 113.3 48.1001 113.4C47.4001 113 48.2001 113 47.7001 112.5C47.7001 112.7 48.7001 112.5 48.3001 112.8C49.6001 112.6 48.0001 112.1 48.7001 111.7L47.9001 111.6C47.8001 111.4 48.5001 111.4 48.8001 111.5C49.3001 111.1 48.8001 110.9 48.8001 110.7C48.9001 110.7 49.1001 110.7 49.0001 110.7V110.3C48.8001 110.3 48.4001 110.1 47.9001 110.1C48.7001 110.1 49.0001 110.2 48.6001 110.4Z" fill="#060606"/>
<path d="M44.7 114C44.9 113.9 45 113.9 45 113.9C44.9 113.9 44.8 113.9 44.7 114Z" fill="#060606"/>
<path d="M46.9 106C45.6 106 47.1 106.3 46.7 106.4C46.5 106.2 45.8 106.2 45.4 106.2C47 106.5 45.1 106.5 45.4 106.9C44.9 106.9 44.8 106.7 44.2 106.6C44.6 106.9 44.8 107.2 45.7 107.3C45.7 107.7 45.4 107.9 45.5 108.2C45.2 107.9 44.6 108.1 43.8 107.9C44.8 108.2 46.1 108.9 47.3 109.3C46.3 109.3 46.2 109.3 45.3 109.3C44.6 109.8 46.2 109.4 45.9 109.9L46.1001 109.7C46.4001 109.9 47.3 109.9 48 110L47.9 109.5C48.6 109.5 48.5 109.8 48.7 109.9C49.5 110.1 49.3 109.6 49.9 109.7C49.4 109.6 49.5 109.4 49.3 109.3H49.7C50.1 109.1 49.2 108.9 49.2 108.7C49.3 108.7 49.4 108.7 49.4 108.7C49 108.6 48.5 108.5 48.4 108.4V108.5C47.5 108.3 47 107.8 46 108.1L46.3 107.6C47.3 107.7 48.7 107.9 48.8 108.2H49.2C49.7 108 48.5 107.6 47.7 107.7C45.4 107.4 47.7 106.9 46.7 106.5C47.3 106.5 47.6 106.7 48 106.9C48.1 107 48.1001 107.1 47.6001 107.1C47.9001 107.6 49.6 107.1 49.3 107.6C49 107.8 48.3 107.2 48.2 107.6L49.9 108C49.9 107.8 49.6 107.5 49.4 107.3C48.3 106.2 49.4 105.5 49.4 105.5L49.3 103.2L49.4 100.9C49.2 100.4 49.3 100.2 47.7 99.7C47.3 99.7 47.4 100.1 46.9 99.8999C47.5 100.1 47.8 100.3 47.7 100.6C47.1 100.5 47.4 100.3 47.3 100.4H47.2C46.9 100.3 46.7 100.2 46.7 100.2C45.7 100.3 45.8 100.9 47 101.3C46.3 101.4 46.1001 101 45.6001 100.8C45.0001 101.6 45 102.2 44.8 103.1C45.9 103.2 45.5 103.3 46.2 103.5H45.8C46 103.5 46.7 103.7 47 103.6C46.1 104 48.4 104.3 48.9 104.7L48.3 104.6C48.4 104.9 48.4 105 48.7 105.2C47.6 105.5 48.6 104.8 47.2 104.8L47.4 104.9C46.9 104.8 45.9 104.6 45.5 104.4C46.4 104.9 45.1 105 45.7 105.5C45.1 105.4 44.6001 104.9 44.6001 104.8C44.5001 105 45 105.3 44.4 105.2L45.2 105.3C45.3 105.6 44.5 105.2 43.9 105.2C43.9 105.8 46.5 105.4 46.9 106Z" fill="#060606"/>
<path d="M46.3 112.6C46.4 112.5 46.3 112.5 46.2 112.4C46.2 112.5 46.2 112.6 46.3 112.6Z" fill="#060606"/>
<path d="M43.6001 111.2C44.0001 111.2 44.0001 111.2 44.4001 111.3C44.2001 111.3 44.2001 111 43.6001 111.2Z" fill="#060606"/>
<path d="M49.6 125.1C50.6 124.5 48.8 124.8 49.2 124.4C49.3 124.4 49.4 124.4 49.5 124.4L49.3 124.2L49.5 124.1C48.8 124.3 48.5 124.1 48 124.2C47.4 124.6 48.9 124.1 48.2 124.5C47.9 124.5 47.4 124.6 47.2 124.6C47.6 124.7 47.9999 124.6 48.3999 124.5C48.4999 124.6 48.0999 124.7 47.8999 124.8C48.2999 124.9 49.3 124.6 49.2 124.9C48.7 125.2 48.3 125.1 48.6 125.3C49.6 124.8 48.5 125.6 49.2 125.5C49.1 125.8 48.5 126.1 48.1 126.2C48.9 125.9 49.6999 125.9 49.8999 126H49L49.8999 125.6C49.3999 125.5 49.4 125.3 49.6 125.1Z" fill="#060606"/>
<path d="M46.3999 124.7C46.3999 124.8 46.7 124.7 46.7 124.6H46.2L46.3999 124.7Z" fill="#060606"/>
<path d="M47 124.3L47.5 124H47V124.3Z" fill="#060606"/>
<path d="M46.4001 119C46.1001 119.2 46.8001 119.1 47.2001 119C47.4001 118.7 46.7001 119.1 46.4001 119Z" fill="#060606"/>
<path d="M45.1 115.8C44.7 116 45.4 116.1 45.4 116.3C45.7 116.1 45.5 115.9 45.1 115.8Z" fill="#060606"/>
<path d="M42.7 114.5C42.9 114.5 43 114.6 43.1 114.5L44.3 114.6C44.8 114.3 43.2 114.5 42.7 114.5Z" fill="#060606"/>
<path d="M42.5 112.8L43 113.1V113C43.5 113 43.7 113.1 44.1 113.2C43.8 112.9 43.3 112.8 42.5 112.8Z" fill="#060606"/>
<path d="M44.3 113.4C44.3 113.3 44.3 113.3 44.3 113.4C43.9 113.3 44.1 113.3 44.3 113.4Z" fill="#060606"/>
<path d="M44.2001 113.2C44.1001 113.2 44.1001 113.2 44.1001 113.2C44.2001 113.2 44.2001 113.3 44.3001 113.3C44.4001 113.2 44.4001 113.2 44.2001 113.2Z" fill="#060606"/>
<path d="M43.0001 112.6L42.8001 112.1L42.6001 112.3C43.4001 112.4 42.2001 112.6 43.0001 112.6Z" fill="#060606"/>
<path d="M43.7 110.2H44.3999C44.5999 109.9 43 109.5 44.2 109.4C43.7 109.5 43.4 109.1 43.2 109.5C43.8 109.5 43.8 110 43.7 110.2Z" fill="#060606"/>
<path d="M44.7 109.1C44.9 109.2 45.1 109.1 45.3 109.1C45.4 109 45.1 108.9 44.8 108.9C45.7 109 44.1 109 44.7 109.1Z" fill="#060606"/>
<path d="M44.7001 107.8C44.7001 107.9 44.8001 108 45.0001 107.9C45.0001 107.6 44.1001 107.7 43.6001 107.5C43.2001 107.7 44.3001 107.9 44.7001 107.8Z" fill="#060606"/>
<path d="M50.1999 106.2C49.5999 106.2 49.5999 106.4 49.8999 106.4C49.7999 106.3 49.9999 106.2 50.1999 106.2Z" fill="#060606"/>
<path d="M44.9999 105.7L44.8999 105.8L45.7999 106L44.9999 105.7Z" fill="#060606"/>
<path d="M44.7001 104.2L44.1001 103.9V104.2H44.7001Z" fill="#060606"/>
<path d="M44.7999 103.9V103.6L44.4999 103.7C44.3999 103.8 44.7999 103.8 44.7999 103.9Z" fill="#060606"/>
<path d="M44.8001 103.2C44.9001 103.2 44.8001 103.2 44.6001 103.3L45.0001 103.6L44.8001 103.2Z" fill="#060606"/>
</g>
</g>
<path d="M114.9 151.5L123 165.7C123.7 166.9 124.9 167.6 126.3 167.6H140.1C142.8 167.6 141.3 164.6 137.6 164.4C133.9 164.2 126.1 163.5 126.1 163.5L120.3 151.4C120.3 151.5 114.2 149 114.9 151.5Z" fill="#4D483E"/>
<path d="M154.2 167.6C154.2 167.6 157.1 164.7 143.4 165.2L154.2 167.6Z" fill="#4D483E"/>
<path d="M192.1 42.8C192.1 42.8 198.5 20.9 186.2 9.69995C173.9 -1.50005 139.3 -8.30004 100.9 20.9C62.5001 50.1 52.3001 80 46.5001 101.7C40.7001 123.4 76.7001 154 112.3 155.2C147.9 156.4 181.3 146.4 197.7 110.6C211.8 80.4 192.1 42.8 192.1 42.8Z" fill="#FFF0DD"/>
<path d="M197.9 110.6C196.6 113.4 195.2 116 193.7 118.5C194.6 116.6 190.4 104.5 190.4 104.5C190.4 104.5 180.3 127.8 161.8 120C143.3 112.2 140.6 80.4 138.2 64C135.7 47.7 119.4 46 119.4 46C121.8 42.7 146.2 38.8 147.4 27.6C148.6 16.4 152 9.69995 164.2 9.69995C170.2 9.69995 178.6 12.3 181.8 13.1C189.4 14.9 189.4 13.2 189.4 13C197.5 24.7 192.3 42.7 192.3 42.7C192.3 42.7 211.8 80.4 197.9 110.6Z" fill="#FF8A00"/>
<path d="M181.7 13.0999C178.6 12.3999 170.2 9.69994 164.1 9.69994C151.9 9.69994 148.6 16.2999 147.3 27.5999C146 38.8999 121.8 42.6999 119.3 45.9999C119.3 45.9999 135.6 47.5999 138.1 63.9999C138.1 64.2999 138.2 64.4999 138.2 64.7999C126.5 79.7999 110.7 85.0999 84.8 92.7999C60.5 99.9999 47.5 107.8 46.1 108.8C45.8 106.4 46 104 46.6 101.7C52.3 79.9999 62.5 50.0999 101 20.8999C139.4 -8.30006 174 -1.40006 186.3 9.69994C187.5 10.6999 188.4 11.8999 189.3 13.0999C189.3 13.1999 189.3 14.8999 181.7 13.0999Z" fill="#89745E"/>
<path d="M202.8 33.7999C202.8 33.7999 193.7 36.8999 190.1 37.8999C186.5 38.8999 177 33.7999 177 33.7999C177 33.7999 196.4 32.6999 202.8 33.7999Z" fill="#50483F"/>
<path d="M161.8 29.5C165.666 29.5 168.8 26.366 168.8 22.5C168.8 18.634 165.666 15.5 161.8 15.5C157.934 15.5 154.8 18.634 154.8 22.5C154.8 26.366 157.934 29.5 161.8 29.5Z" fill="#131313"/>
<path d="M159.8 21.4C160.573 21.4 161.2 20.7732 161.2 20C161.2 19.2268 160.573 18.6 159.8 18.6C159.027 18.6 158.4 19.2268 158.4 20C158.4 20.7732 159.027 21.4 159.8 21.4Z" fill="#E8DBCD"/>
<mask id="mask1_70_2878" style="mask-type:luminance" maskUnits="userSpaceOnUse" x="177" y="33" width="26" height="6">
<path d="M202.8 33.7999C202.8 33.7999 193.7 36.8999 190.1 37.8999C186.5 38.8999 177 33.7999 177 33.7999C177 33.7999 196.4 32.6999 202.8 33.7999Z" fill="white"/>
</mask>
<g mask="url(#mask1_70_2878)">
<g opacity="0.78">
<path d="M188.7 33.7998V33.6998C188.6 33.6998 188.6 33.6998 188.7 33.7998Z" fill="#060606"/>
<path d="M181 33.7999C180.9 33.8999 181 33.8999 181 33.7999V33.7999Z" fill="#060606"/>
<path d="M190.1 33.5999H190.2C190.1 33.4999 190.1 33.4999 190.1 33.5999Z" fill="#060606"/>
<path d="M182.2 33.8999C182.2 34.1999 182.1 33.8999 182.1 34.1999C182.2 34.0999 182.2 34.0999 182.3 34.1999C182.2 34.3999 182.1 34.1999 182.1 34.3999L182.2 34.2999C182.3 34.3999 182.2 34.5999 182.2 34.5999C182.3 34.2999 182.5 34.6999 182.6 34.6999L182.8 34.8999C182.8 34.8999 182.8 34.8999 182.8 34.7999C182.9 34.9999 183 35.0999 183.1 34.9999C183.1 34.7999 183.5 34.8999 183.6 34.7999C183.5 34.7999 183.5 34.8999 183.4 34.7999V34.5999C183.5 34.5999 183.4 34.7999 183.5 34.6999C183.5 34.3999 183.3 34.6999 183.2 34.6999C183.2 34.5999 183.3 34.5999 183.3 34.4999C183.1 34.4999 183 34.3999 182.8 34.6999C182.7 34.5999 182.8 34.4999 182.8 34.4999C182.7 34.6999 182.7 34.2999 182.6 34.4999C182.6 34.1999 182.9 34.2999 183 34.1999C183.2 34.3999 183.4 34.1999 183.5 34.1999C183.5 34.3999 183.4 34.5999 183.5 34.6999C183.7 34.7999 183.7 34.5999 183.8 34.4999C183.9 34.5999 183.8 34.8999 184 34.8999L183.9 34.9999C184 35.2999 184 34.8999 184.1 34.8999C184.1 34.7999 184.1 34.6999 184 34.7999C184 34.6999 184.1 34.5999 184.1 34.5999C184.1 34.3999 184.1 34.2999 184.3 34.3999C184.2 34.5999 184.4 34.4999 184.4 34.5999C184.5 34.4999 184.6 34.5999 184.6 34.4999C184.7 34.3999 184.7 34.1999 184.8 34.1999C184.8 34.2999 184.7 34.4999 184.8 34.4999C184.8 34.5999 184.7 34.6999 184.6 34.5999C184.7 34.5999 184.8 34.8999 184.6 34.8999C184.6 35.0999 184.7 34.7999 184.8 34.8999C184.8 34.7999 184.8 34.7999 184.8 34.6999C184.8 34.8999 185 34.6999 185 34.4999L184.9 34.5999C184.9 34.3999 185 34.2999 185 34.1999C185.1 34.4999 185.3 33.9999 185.4 34.2999L185.3 34.1999C185.6 34.2999 185.7 33.8999 186 33.7999C185.9 33.8999 185.9 34.1999 185.8 34.0999C186 34.0999 185.9 34.3999 186 34.5999C186.2 34.6999 186.1 34.2999 186.1 34.1999L186 34.2999C186.1 33.8999 186.5 34.3999 186.7 34.0999C186.7 34.1999 186.7 34.1999 186.6 34.1999C186.7 34.3999 186.7 34.1999 186.8 34.0999C186.9 34.0999 187.1 34.1999 187 34.3999C187.1 34.3999 187 34.2999 187 34.1999V34.2999L187.1 33.9999C187.2 34.0999 187.4 34.1999 187.4 34.3999C187.7 34.2999 187.4 33.8999 187.6 33.7999C187.7 33.8999 187.6 33.9999 187.6 34.0999H187.8C187.8 34.3999 187.6 34.1999 187.6 34.5999C187.7 34.2999 187.8 34.4999 188 34.2999C188.1 34.0999 188.3 34.1999 188.4 34.1999C188.4 34.2999 188.2 34.3999 188.2 34.3999C188.3 34.4999 188.6 34.3999 188.7 34.0999C188.8 34.0999 188.9 34.1999 188.8 34.3999C189.1 34.3999 188.9 33.9999 189.1 34.0999V34.2999C189.4 34.5999 189.5 33.9999 189.8 34.1999V33.8999C189.9 33.9999 190 33.9999 190 34.0999V33.9999C190.1 34.1999 190.1 33.7999 190.2 33.8999C190.2 33.7999 190.1 33.6999 190.1 33.5999C189.6 33.7999 189.1 33.4999 188.7 33.7999V33.8999C188.6 33.7999 188.5 33.8999 188.6 33.7999C188.5 33.8999 188.3 33.5999 188.3 33.5999C188.3 33.7999 188 33.5999 188.1 33.7999L188 33.5999C188 33.6999 188 33.8999 188 33.8999C187.9 33.8999 187.9 33.7999 188 33.6999C187.7 33.5999 187.3 33.6999 186.9 33.7999L187 33.6999C186.9 33.5999 186.7 33.9999 186.8 33.5999C186.6 33.7999 186.3 33.4999 186.4 33.8999C186.3 33.5999 186 33.7999 185.8 33.7999C185.9 34.0999 185.6 33.8999 185.6 33.9999C185.6 33.7999 185.8 33.6999 185.8 33.5999C185.6 33.9999 185.1 33.3999 185.1 33.9999C185.1 33.9999 185.1 33.9999 185.1 33.8999C185.1 33.8999 185 33.7999 184.9 33.7999C184.9 33.8999 185 33.9999 184.9 33.9999C184.8 33.9999 184.9 33.7999 184.8 33.6999C184.6 33.7999 184.4 33.8999 184.4 34.1999C184.3 34.0999 184.3 33.9999 184.3 33.8999C184 34.0999 184 33.8999 183.8 33.9999C183.9 33.9999 183.8 33.6999 184 33.7999C183.9 33.4999 183.6 33.8999 183.4 33.6999L183.3 33.8999C183.2 33.8999 183.2 33.6999 183.2 33.5999C183 33.4999 182.9 33.5999 182.7 33.5999V33.4999H182.5C182.5 33.5999 182.4 33.6999 182.4 33.7999C182.1 33.8999 182.1 33.7999 182.2 33.8999Z" fill="#060606"/>
<path d="M179.7 34.3999C179.7 34.6999 179.8 34.2999 180 34.3999C179.9 34.4999 179.9 34.6999 179.9 34.7999C180 34.3999 180.1 34.8999 180.3 34.7999C180.3 34.8999 180.2 34.9999 180.2 35.0999C180.3 34.9999 180.5 34.8999 180.6 34.6999C180.8 34.6999 181 34.7999 181.1 34.6999C180.9 34.7999 181.1 34.8999 181 35.1999C181.2 34.8999 181.5 34.5999 181.7 34.1999C181.7 34.4999 181.7 34.4999 181.7 34.6999C182 34.8999 181.8 34.3999 182 34.4999H181.9C182 34.3999 182 34.1999 182.1 33.9999H181.8C181.8 33.7999 182 33.7999 182 33.7999C182.1 33.5999 181.8 33.5999 181.9 33.4999C181.9 33.5999 181.7 33.5999 181.7 33.6999V33.5999C181.6 33.4999 181.5 33.7999 181.4 33.6999C181.4 33.6999 181.4 33.6999 181.4 33.5999C181.4 33.6999 181.3 33.8999 181.2 33.8999H181.3C181.2 34.0999 180.9 34.2999 181.1 34.5999L180.8 34.4999C180.8 34.1999 180.9 33.7999 181.1 33.7999V33.6999C181 33.5999 180.7 33.8999 180.8 34.0999C180.7 34.6999 180.3 34.0999 180.1 34.3999C180.1 34.1999 180.2 34.1999 180.3 33.9999C180.4 33.9999 180.4 33.9999 180.4 34.0999C180.7 33.9999 180.3 33.5999 180.7 33.5999C180.9 33.6999 180.5 33.8999 180.7 33.8999L180.9 33.3999C180.8 33.3999 180.6 33.4999 180.5 33.5999C179.9 33.8999 179.4 33.5999 179.4 33.5999C178.5 33.6999 177.6 33.6999 176.6 33.6999C176.3 33.7999 176.2 33.6999 176.1 34.1999C176.2 34.2999 176.3 34.2999 176.3 34.3999C176.3 34.1999 176.5 34.0999 176.6 34.1999C176.6 34.3999 176.5 34.2999 176.5 34.2999C176.5 34.3999 176.5 34.3999 176.4 34.3999C176.6 34.6999 176.9 34.5999 177 34.2999C177.1 34.4999 176.9 34.5999 176.8 34.6999C177.3 34.7999 177.6 34.7999 178.1 34.8999C178.1 34.5999 178.2 34.6999 178.2 34.4999V34.5999C178.2 34.4999 178.3 34.2999 178.2 34.2999C178.5 34.4999 178.5 33.8999 178.7 33.7999V33.9999C178.9 33.9999 178.9 33.9999 179 33.8999C179.3 34.1999 178.8 33.8999 178.8 34.2999L178.9 34.1999C178.9 34.2999 178.8 34.5999 178.7 34.6999C178.9 34.3999 179.1 34.7999 179.3 34.5999C179.3 34.7999 179 34.8999 179 34.8999C179.1 34.8999 179.3 34.7999 179.3 34.9999V34.7999C179.5 34.7999 179.3 34.9999 179.3 35.0999C179.7 35.1999 179.4 34.5999 179.7 34.3999Z" fill="#060606"/>
<path d="M182.7 35.1999C182.7 35.0999 182.7 35.0999 182.8 34.9999C182.7 35.0999 182.6 35.0999 182.7 35.1999Z" fill="#060606"/>
<path d="M194.9 33.8998C194.9 33.7998 195 33.6998 195 33.6998L194.9 33.8998Z" fill="#060606"/>
<path d="M194.6 33.7998L194.4 33.6998V33.9998C194.5 33.9998 194.4 33.7998 194.6 33.7998Z" fill="#060606"/>
<path d="M194.2 33.6998C194.1 33.6998 194.2 33.5998 194.2 33.6998V33.6998Z" fill="#060606"/>
<path d="M194.2 33.7998V33.9998L194.4 33.7998H194.2C194.2 33.6998 194.2 33.6998 194.2 33.6998V33.7998Z" fill="#060606"/>
<path d="M193.6 33.4999C193.7 33.5999 193.6 33.6999 193.6 33.7999C193.8 33.8999 193.7 33.4999 193.8 33.5999C193.6 33.7999 193.9 33.6999 194 33.7999C193.9 33.5999 193.8 33.4999 193.7 33.4999V33.5999C193.6 33.6999 193.7 33.5999 193.6 33.4999Z" fill="#060606"/>
<path d="M192.9 33.9998L193 33.7999C193 33.8999 193.2 33.8999 193.2 34.0999C193.3 34.0999 193.3 33.9998 193.3 33.8998C193.4 33.9998 193.4 34.0998 193.5 33.8998C193.2 33.7998 193.3 33.6998 193 33.6998C193 33.6998 193 33.6998 193.1 33.6998L192.9 33.5999C192.9 33.7999 192.7 33.7998 192.9 33.9998Z" fill="#060606"/>
<path d="M192.7 33.8999C192.8 33.8999 192.9 33.6999 192.8 33.4999L192.6 33.6999C192.6 33.6999 192.7 33.6999 192.7 33.8999Z" fill="#060606"/>
<path d="M192.5 33.8999C192.4 33.7999 192.3 33.5999 192.3 33.7999C192.4 33.6999 192.4 33.9999 192.5 33.8999Z" fill="#060606"/>
<path d="M191.6 33.7999L191.9 33.8999C192 34.1999 191.8 33.9999 191.7 34.0999C191.9 34.0999 191.8 33.9999 192 33.8999C192.1 33.8999 192.1 33.7999 192.2 33.6999C191.8 33.8999 191.7 33.2999 191.6 33.7999Z" fill="#060606"/>
<path d="M192.1 33.9999V33.8999L192 33.9999H192.1Z" fill="#060606"/>
<path d="M191 33.5999C190.8 33.2999 190.7 33.7999 190.6 33.6999C190.6 33.6999 190.6 33.6999 190.6 33.5999H190.5V33.4999C190.5 33.6999 190.4 33.7999 190.4 33.8999C190.6 34.0999 190.4 33.6999 190.6 33.8999C190.6 33.9999 190.6 34.0999 190.6 34.1999C190.7 34.0999 190.7 33.9999 190.7 33.8999C190.8 33.8999 190.8 33.9999 190.8 33.9999C190.9 33.8999 190.9 33.5999 191 33.5999C191.1 33.7999 191 33.8999 191.1 33.7999C191 33.4999 191.3 33.7999 191.3 33.5999C191.4 33.5999 191.5 33.7999 191.5 33.8999C191.5 33.6999 191.6 33.4999 191.6 33.3999L191.4 33.5999L191.3 33.2999C191.2 33.6999 191.1 33.5999 191 33.5999Z" fill="#060606"/>
<path d="M191.5 34.0999L191.4 34.1998L191.5 34.2999V34.0999Z" fill="#060606"/>
<path d="M190.2 34.2998L190.1 34.1998L190 34.2998H190.2Z" fill="#060606"/>
<path d="M187.2 34.3998C187.3 34.4998 187.3 34.2998 187.3 34.1998C187.1 34.1998 187.3 34.3998 187.2 34.3998Z" fill="#060606"/>
<path d="M185.3 34.7999C185.4 34.8999 185.5 34.6999 185.6 34.6999C185.5 34.5999 185.4 34.6999 185.3 34.7999Z" fill="#060606"/>
<path d="M184.5 35.4999C184.5 35.3999 184.6 35.3999 184.5 35.3999L184.6 35.0999C184.5 34.8999 184.5 35.2999 184.5 35.4999Z" fill="#060606"/>
<path d="M183.6 35.5998L183.7 35.4998H183.6C183.6 35.3998 183.7 35.2998 183.7 35.1998C183.7 35.1998 183.6 35.2998 183.6 35.5998Z" fill="#060606"/>
<path d="M183.8 35.0999C183.8 34.9999 183.9 34.9999 183.8 35.0999V35.0999Z" fill="#060606"/>
<path d="M183.5 35.3999H183.2L183.3 35.4999C183.4 35.2999 183.5 35.5999 183.5 35.3999Z" fill="#060606"/>
<path d="M182.1 35.2999V35.0999C181.9 35.0999 181.7 35.4998 181.6 35.1998C181.7 35.2998 181.5 35.3998 181.7 35.4998C181.8 35.1998 182 35.1999 182.1 35.2999Z" fill="#060606"/>
<path d="M181.5 34.9999C181.5 34.8999 181.5 34.8999 181.5 34.7999C181.4 34.7999 181.4 34.8999 181.4 34.9999C181.5 34.6999 181.5 35.0999 181.5 34.9999Z" fill="#060606"/>
<path d="M180.8 34.9999C180.7 34.8999 180.7 35.1999 180.7 35.2999C180.8 35.3999 180.9 35.0999 180.8 34.9999Z" fill="#060606"/>
<path d="M179.7 33.4999C179.7 33.6999 179.8 33.5999 179.9 33.5999C179.8 33.5999 179.7 33.5999 179.7 33.4999Z" fill="#060606"/>
<path d="M179.6 34.8998L179.7 34.9998V34.6998L179.6 34.8998Z" fill="#060606"/>
<path d="M178.8 35.0999L178.7 35.2999L178.8 35.1998V35.0999Z" fill="#060606"/>
</g>
</g>
<path d="M191.6 26.3999C191.6 26.3999 177.4 33.2999 177 33.7999C176.6 34.1999 201.7 33.4999 202.8 33.7999C204 33.9999 204 32.0999 191.6 26.3999Z" fill="#4D483E"/>
<path d="M119.4 46C119.4 46 84.9001 50 63.0001 73.5C41.1001 97 72.0001 82.2 72.0001 82.2C72.0001 82.2 55.0001 90.9 55.2001 98.3C55.4001 105.2 69.6001 97.9 69.6001 97.9" stroke="#1B1C1E" stroke-miterlimit="10"/>
<path d="M91.6 41.7C91.6 41.7 63.6 57.5 77.3 61.7" stroke="#1B1C1E" stroke-miterlimit="10"/>
<path d="M32.3 121.6L40.1001 119.8" stroke="#1B1C1E" stroke-miterlimit="10"/>
<path d="M110.8 151.5L118.9 165.7C119.6 166.9 120.8 167.6 122.2 167.6H149.4C152.1 167.6 150.6 164.6 146.9 164.4C143.2 164.2 122 163.5 122 163.5L116.2 151.4C116.2 151.5 112.6 149.2 110.8 151.5Z" fill="#4D483E"/>
<path d="M148.1 167.6C148.1 167.6 151.3 164.3 131.1 164.9" stroke="#1B1C1E" stroke-miterlimit="10"/>
</svg>
