<svg width="82" height="82" viewBox="0 0 82 82" fill="none" xmlns="http://www.w3.org/2000/svg">
<rect width="82" height="82" rx="41" fill="#FF7E56"/>
<rect width="82" height="82" rx="41" fill="#FF7E56"/>
<g filter="url(#filter0_d_114_7130)">
<path d="M20.6279 63.5748C20.6279 63.5748 18.6694 64.1534 24.0108 64.3315C29.3521 64.5095 57.5278 64.5986 60.4211 64.3315C63.3143 64.0644 68.9673 64.2202 61.4671 63.5748C53.9669 62.9294 46.2665 63.3077 38.7218 62.9294C31.1994 62.551 21.7629 62.9071 20.6279 63.5748Z" fill="#1B1C1E"/>
<path d="M51.9416 60.2809C51.9416 60.2809 53.7221 62.7958 57.8617 62.2839C62.3351 61.7275 65.6512 56.4307 64.6719 51.0671C63.6927 45.7034 58.062 44.3013 54.8794 46.1708C51.6968 48.0403 51.5188 51.0671 52.5871 53.4707C52.5648 53.4484 51.5856 59.3684 51.9416 60.2809Z" fill="#FBAF5E"/>
<path d="M52.5649 53.4484C52.5649 53.4484 53.878 55.7852 56.8825 55.2734C59.8648 54.7615 59.5755 51.0448 58.1066 50.4216" stroke="#1B1C1E" stroke-width="1.2604" stroke-miterlimit="10" stroke-linecap="round" stroke-linejoin="round"/>
<mask id="mask0_114_7130" style="mask-type:luminance" maskUnits="userSpaceOnUse" x="51" y="45" width="14" height="18">
<path d="M51.9416 60.2809C51.9416 60.2809 53.7221 62.7958 57.8617 62.2839C62.3351 61.7275 65.6512 56.4307 64.6719 51.0671C63.6927 45.7034 58.062 44.3013 54.8794 46.1708C51.6968 48.0403 51.5188 51.0671 52.5871 53.4707C52.5648 53.4484 51.5856 59.3684 51.9416 60.2809Z" fill="white"/>
</mask>
<g mask="url(#mask0_114_7130)">
<path d="M52.4536 60.3699C52.4759 60.3476 52.4759 60.3031 52.4981 60.2809C52.5204 60.3031 52.5204 60.3254 52.4536 60.3699Z" fill="#322015"/>
<path d="M54.8796 62.2394L54.8574 62.3507C54.8351 62.2839 54.8351 62.2616 54.8796 62.2394Z" fill="#322015"/>
<path d="M52.9653 59.769C52.9653 59.7245 52.9876 59.7023 53.0544 59.6355L52.9653 59.769Z" fill="#322015"/>
<path d="M53.4775 59.7467C53.4998 59.7467 53.522 59.7245 53.522 59.7245C53.4998 59.7467 53.4998 59.7467 53.4775 59.7467Z" fill="#322015"/>
<path d="M52.4314 60.3921C52.4537 60.3699 52.4537 60.3699 52.4759 60.3699C52.4537 60.3921 52.4314 60.3921 52.4314 60.3921Z" fill="#322015"/>
<path d="M51.6524 58.5226C51.9862 58.4781 51.6524 58.4114 51.9417 58.3446C51.875 58.4114 51.8527 58.4781 52.0085 58.4559C52.1643 58.3669 51.964 58.3446 52.2311 58.2778L52.142 58.3891C52.2756 58.4114 52.4759 58.2778 52.4759 58.3446C52.1198 58.5004 52.6762 58.5226 52.6317 58.5894L52.6539 58.5449C52.7207 58.5672 52.7874 58.5894 52.8542 58.5894H52.8765C52.8542 58.5894 52.832 58.6117 52.8097 58.6117C53.01 58.5894 53.1435 58.6339 53.1435 58.7229C52.9432 58.8342 53.1658 58.99 53.01 59.1013C53.0545 59.0568 53.0323 59.0123 52.9655 58.99L52.7207 59.079C52.7652 59.1458 52.9432 58.99 52.832 59.1236C52.4981 59.2348 52.7874 59.0123 52.7207 58.9678C52.6539 59.0123 52.6094 59.079 52.5871 59.1236C52.5204 59.0123 52.3868 58.9455 52.6762 58.7452C52.5871 58.7452 52.4536 58.7897 52.4314 58.8342C52.5871 58.6784 52.2311 58.8342 52.3646 58.7007C52.0753 58.812 52.2533 58.9232 52.1198 59.0568C52.3868 59.079 52.2311 59.3016 52.2311 59.4574C52.4536 59.3684 52.6094 59.2126 52.7429 59.1903C52.9432 59.2348 52.6762 59.3461 52.5871 59.4796C52.6984 59.5241 52.9432 59.3239 53.0323 59.4351L53.1435 59.3016C53.4774 59.2126 53.0545 59.4129 53.1435 59.4351C53.0545 59.4574 52.9877 59.5019 52.9655 59.4351C52.8542 59.4796 52.832 59.5464 52.832 59.5909H52.8097C52.6762 59.7022 52.5204 59.7912 52.6317 59.8357C52.7874 59.7022 52.7874 59.8357 52.8987 59.7912L52.921 59.7467C52.8987 59.8357 52.9655 59.8802 52.9432 59.9248L52.9877 59.9025C52.9432 59.9915 52.7429 60.1251 52.832 60.1696C52.921 60.1028 53.099 59.9025 53.099 59.9915C53.2103 59.9025 53.1881 59.8135 53.099 59.7912C53.1881 59.8135 53.4106 59.7245 53.3883 59.6354C53.5664 59.5464 53.3661 59.7467 53.4551 59.7245C53.4106 59.7467 53.3438 59.7912 53.2993 59.8135C53.5219 59.6799 53.4106 59.9248 53.2548 60.036L53.3216 59.8802C53.1435 59.9915 53.099 60.1473 52.9877 60.1918C53.2771 60.036 52.9878 60.4811 53.2326 60.3476L53.0768 60.4144C53.2771 60.4811 53.0768 60.8595 53.1435 61.0598C53.1658 60.9485 53.4329 60.7037 53.2548 60.7037C53.4106 60.7927 53.5441 60.5034 53.7222 60.4366C53.9002 60.4366 53.5219 60.7037 53.4774 60.815L53.4551 60.7037C53.3438 60.8817 53.4329 60.9263 53.5219 60.9708C53.6109 61.0153 53.7222 61.0375 53.7222 61.1933C53.8112 61.1266 53.7444 61.1266 53.7444 61.0821C53.9447 60.9708 53.7667 61.1711 53.7667 61.2601C53.8557 61.2823 53.9893 61.2823 54.1228 61.0375C54.2341 61.0375 54.0115 61.1488 54.0115 61.2601L54.056 61.2156C54.0115 61.3046 53.9893 61.4159 53.967 61.5049C54.0783 61.4827 54.2563 61.4381 54.4121 61.2378C54.5234 61.3714 54.145 61.772 54.2118 61.9278C54.3453 61.861 54.3008 61.7497 54.3453 61.6607L54.4344 61.7497C54.5456 61.4827 54.3899 61.5494 54.5679 61.2824C54.4789 61.6162 54.6347 61.4381 54.6347 61.683L54.6569 61.7497C54.5902 61.9723 54.7905 61.9055 54.8572 61.9945C54.9017 61.861 54.8127 61.8165 54.7905 61.7275C54.924 61.683 55.0575 61.861 55.013 62.1726C55.0798 62.1503 55.2356 62.0836 55.2133 61.95C55.3914 61.9723 55.1243 62.3729 55.3023 62.3506L55.3914 62.1281C55.6584 61.8833 55.6139 62.5287 55.8587 62.3061L55.792 62.5732C55.8587 62.4619 55.9478 62.4397 55.9923 62.3506L55.9478 62.2393C56.0813 62.039 55.97 62.4842 56.0813 62.3506C56.059 62.4397 55.9255 62.5954 55.9032 62.6845C55.7475 62.5509 55.5694 62.5509 55.3691 62.5287C55.2801 62.5064 55.1911 62.5064 55.102 62.4619C55.013 62.4174 54.9463 62.3506 54.9017 62.2393C54.924 62.2171 54.9685 62.1948 54.9685 62.1281C54.9017 62.1726 54.8795 62.0836 54.8127 62.2171V62.2393C54.746 62.1503 54.5234 62.3951 54.4566 62.3729C54.5234 62.1948 54.2341 62.3284 54.4344 62.0836L54.2786 62.2171C54.3231 62.1058 54.4121 61.9723 54.4121 61.9055C54.3453 61.8833 54.2786 61.9945 54.2786 62.1058C54.1228 62.1058 53.9893 62.0168 53.878 61.9278C53.7667 61.8387 53.6554 61.7275 53.5887 61.5939L53.5441 61.7497C53.4329 61.772 53.5441 61.3936 53.3216 61.7275C53.3216 61.5272 52.9655 61.5272 53.2548 61.2601C53.0768 61.3714 52.9877 61.3269 52.9432 61.2601C52.8987 61.1711 52.8765 61.0375 52.832 60.9485C53.1213 60.7482 52.8097 60.7705 52.921 60.6369C52.6984 60.7705 52.7874 60.9263 52.6539 61.0375C52.7429 60.8372 52.6094 60.7705 52.5204 60.6815C52.4091 60.6147 52.3423 60.5034 52.6094 60.3031C52.5649 60.3031 52.5426 60.3031 52.5426 60.3254C52.5204 60.3031 52.3868 60.3031 52.3423 60.3031C52.4314 60.2141 52.5204 60.2586 52.5204 60.1696C52.4536 60.1251 52.3201 60.2586 52.2311 60.2586C52.2978 60.0583 52.2756 59.8357 52.4981 59.7022C52.4091 59.7022 52.2533 59.7245 52.2311 59.7912C52.3423 59.5242 52.1198 59.6132 52.1643 59.3684C52.1865 59.4351 51.8972 59.5019 52.053 59.5687C51.8527 59.6132 51.8305 59.5242 51.8527 59.4129C51.8527 59.3016 51.875 59.1903 51.7637 59.1458L51.9862 59.0123C51.9862 58.901 51.7637 58.9678 51.6969 59.0568C51.4966 58.9232 51.6302 58.7897 51.5856 58.6562C51.5634 58.6562 51.5189 58.6784 51.5189 58.7007C51.4966 58.6339 51.4744 58.5672 51.4744 58.5004C51.5411 58.4559 51.6302 58.3669 51.7859 58.3446C51.6079 58.3891 51.5411 58.4559 51.6524 58.5226Z" fill="#322015"/>
<path d="M53.277 59.4575C53.2103 59.4798 53.188 59.4798 53.1658 59.4798C53.2103 59.4575 53.2548 59.4575 53.277 59.4575Z" fill="#322015"/>
<path d="M51.9864 56.5864C52.3648 56.6087 51.9197 56.6977 52.0309 56.7645C52.0754 56.6977 52.298 56.6977 52.4093 56.6977C51.9197 56.809 52.4983 56.809 52.4093 56.9648C52.5651 56.9648 52.5873 56.8758 52.7654 56.8535C52.6541 56.9425 52.5873 57.0761 52.3203 57.1206C52.3203 57.2764 52.4315 57.3654 52.4093 57.4544C52.4983 57.3431 52.6763 57.4099 52.8989 57.2986C52.5873 57.4322 52.2535 57.7215 51.8974 57.9663C52.1867 57.944 52.2312 57.944 52.4983 57.855C52.7209 57.9886 52.2312 57.9663 52.3648 58.1221L52.298 58.0553C52.2312 58.1443 51.9419 58.2111 51.7639 58.2779V58.0553C51.5636 58.0998 51.6303 58.2334 51.5858 58.2779C51.3633 58.3892 51.3855 58.1889 51.2075 58.2556C51.3633 58.1889 51.2965 58.0998 51.341 58.0331H51.2297C51.0962 57.944 51.3633 57.8328 51.341 57.7437C51.3187 57.7437 51.2742 57.7437 51.2742 57.7437C51.3855 57.6992 51.5413 57.6325 51.5858 57.5657V57.6102C51.8306 57.4989 51.9864 57.2986 52.2757 57.3877L52.1645 57.1874C51.8751 57.2319 51.4523 57.3209 51.43 57.4544L51.3187 57.4767C51.1407 57.3877 51.519 57.1651 51.7639 57.2096C52.4538 57.0538 51.7639 56.8758 52.0532 56.6977C51.8529 56.6977 51.7861 56.7868 51.6526 56.8313C51.6303 56.8758 51.6303 56.9203 51.7861 56.9203C51.6971 57.1428 51.1852 56.9203 51.2742 57.1428C51.3855 57.2541 51.5636 56.9648 51.6081 57.1428C51.43 57.1874 51.2742 57.2541 51.0962 57.3209C51.0962 57.2096 51.1852 57.0983 51.2297 57.0093C51.3855 56.7422 51.4078 56.5642 51.3633 56.4084C51.341 56.2749 51.252 56.1858 51.252 56.1858C51.3188 55.4737 51.43 54.7837 51.5858 54.1383C51.6971 53.938 51.6748 53.849 52.209 53.8713C52.298 53.938 52.2312 54.0493 52.4315 54.027C52.2312 54.027 52.12 54.0716 52.12 54.1828C52.298 54.2273 52.2312 54.0938 52.2757 54.1383V54.1606C52.3648 54.1606 52.4315 54.1606 52.4538 54.1161C52.7209 54.2719 52.6318 54.4944 52.2535 54.5167C52.4315 54.628 52.5651 54.4944 52.7209 54.4722C52.8321 54.8283 52.7654 55.0508 52.7654 55.3846C52.4315 55.3624 52.5428 55.4069 52.3203 55.4292L52.4315 55.4737C52.3648 55.4514 52.1422 55.4959 52.0754 55.4069C52.3203 55.6295 51.6081 55.6072 51.4745 55.763H51.6526C51.6081 55.8743 51.6081 55.9188 51.519 56.0078C51.8306 56.2081 51.5858 55.852 52.0087 55.9188L51.9419 55.9633C52.0977 55.941 52.4093 55.9188 52.5206 55.852C52.2312 56.0078 52.6318 56.0968 52.4093 56.2749C52.6096 56.2526 52.7431 56.0968 52.7654 56.0523C52.7876 56.1191 52.6541 56.2304 52.8321 56.2304L52.5873 56.2526C52.5651 56.3639 52.8099 56.2304 52.9657 56.2749C52.8766 56.5865 52.1422 56.3639 51.9864 56.5864Z" fill="#322015"/>
<path d="M52.6316 59.2349C52.6094 59.2126 52.6094 59.1904 52.6094 59.1459C52.6316 59.1681 52.6316 59.1904 52.6316 59.2349Z" fill="#322015"/>
<path d="M52.8989 58.5896C52.9212 58.5673 52.9657 58.5673 52.9879 58.545C52.9657 58.5673 52.9212 58.5896 52.8989 58.5896Z" fill="#322015"/>
<path d="M53.2103 58.4559C53.0991 58.4782 53.0991 58.5004 52.9878 58.5672C53.0323 58.5004 53.01 58.4336 53.2103 58.4559Z" fill="#322015"/>
<path d="M59.2862 61.8165C59.3085 61.8833 59.3752 61.9501 59.353 62.0168L59.2417 61.9278L59.2862 61.8165Z" fill="#322015"/>
<path d="M59.1082 62.0837L59.0192 62.1727L58.9524 61.8389C59.0414 61.8611 58.9969 62.0837 59.1082 62.0837Z" fill="#322015"/>
<path d="M58.8188 62.2839L58.8411 62.373C58.8188 62.3284 58.8188 62.3062 58.8188 62.2839Z" fill="#322015"/>
<path d="M58.8187 62.1281L58.7742 61.8833L58.9077 62.0613L58.8632 62.1059C58.8632 62.1949 58.8409 62.2171 58.8187 62.2616L58.7742 62.0836C58.7964 62.1281 58.8187 62.1726 58.8187 62.1281Z" fill="#322015"/>
<path d="M58.7075 62.1282C58.7075 62.1059 58.7075 62.0837 58.7075 62.0614C58.7298 62.0837 58.7298 62.1059 58.7075 62.1282Z" fill="#322015"/>
<path d="M58.4627 62.551C58.4849 62.462 58.4404 62.3285 58.4404 62.2395C58.5517 62.1504 58.5294 62.5065 58.6185 62.3952C58.4849 62.1949 58.663 62.2617 58.7075 62.1282C58.6852 62.3507 58.6185 62.5065 58.5295 62.5733V62.4175C58.4627 62.3952 58.4849 62.5065 58.4627 62.551Z" fill="#322015"/>
<path d="M57.9508 62.1727L58.0175 62.3952C58.0398 62.284 58.1733 62.284 58.1733 62.0614C58.2178 62.1059 58.2178 62.1949 58.2401 62.2617C58.2846 62.1504 58.3069 62.0614 58.3514 62.2172C58.1511 62.373 58.2178 62.4175 58.0398 62.4843C58.0398 62.5288 58.0621 62.5288 58.0843 62.5288L57.973 62.6401C57.973 62.373 57.8395 62.3285 57.9508 62.1727Z" fill="#322015"/>
<path d="M57.7951 62.3284C57.8841 62.3506 57.9064 62.5732 57.8619 62.7067L57.6838 62.5064C57.7283 62.5064 57.7951 62.5509 57.7951 62.3284Z" fill="#322015"/>
<path d="M57.6614 62.3061C57.6169 62.4174 57.5279 62.6622 57.5056 62.4397C57.5946 62.4842 57.5724 62.1503 57.6614 62.3061Z" fill="#322015"/>
<path d="M57.0161 62.4397L57.2164 62.3284C57.2832 62.0391 57.1496 62.2172 57.1274 62.0836C57.2832 62.0391 57.2164 62.1281 57.3054 62.3284C57.3499 62.3062 57.3945 62.4842 57.439 62.5732C57.2164 62.3062 57.1051 62.9961 57.0161 62.4397Z" fill="#322015"/>
<path d="M57.3944 62.1949V62.3285L57.3276 62.2172L57.3944 62.1949Z" fill="#322015"/>
<path d="M56.5486 62.6845C56.3706 62.9961 56.3928 62.4397 56.2371 62.5732C56.2371 62.5955 56.2371 62.6177 56.2371 62.6623L56.148 62.5955L56.1258 62.6623C56.1925 62.462 56.1035 62.3507 56.1035 62.1949C56.2593 62.0168 56.0813 62.462 56.2371 62.2617C56.2371 62.1726 56.2593 62.0168 56.2593 61.9501C56.2816 62.0614 56.2593 62.1949 56.2593 62.3062C56.3261 62.3507 56.3261 62.2171 56.3483 62.1504C56.3928 62.2839 56.3261 62.5732 56.4374 62.5287C56.5486 62.3729 56.4596 62.2394 56.5709 62.3507C56.4374 62.6623 56.7044 62.3284 56.7044 62.551C56.8157 62.5065 56.9047 62.3062 56.9047 62.1949C56.8602 62.4397 56.9047 62.6845 56.9492 62.7513L56.838 62.5065L56.7267 62.7958C56.6599 62.64 56.5931 62.64 56.5041 62.6623L56.5486 62.6845Z" fill="#322015"/>
<path d="M56.2593 61.9278C56.2593 61.9056 56.2593 61.8833 56.2371 61.8611C56.2593 61.8611 56.2593 61.8833 56.2593 61.9278Z" fill="#322015"/>
<path d="M56.9715 62.0836L56.9492 62.0168L56.9937 61.9501L56.9715 62.0836Z" fill="#322015"/>
<path d="M56.2593 61.7053C56.2816 61.7053 56.2593 61.7943 56.2371 61.7943V61.6608L56.2593 61.7053Z" fill="#322015"/>
<path d="M56.1259 61.8611L56.0146 62.0169L56.0369 61.8611H56.1259Z" fill="#322015"/>
<path d="M54.2341 61.1267C54.3454 61.0821 54.2119 61.2379 54.1451 61.3715C54.0338 61.3269 54.2564 61.2157 54.2341 61.1267Z" fill="#322015"/>
<path d="M53.5666 60.0583C53.7224 60.0361 53.5888 60.2141 53.6333 60.2586C53.4998 60.2586 53.4998 60.1473 53.5666 60.0583Z" fill="#322015"/>
<path d="M53.9003 59.2794C53.8558 59.3239 53.8335 59.3684 53.789 59.3462L53.4997 59.591C53.3439 59.5465 53.7445 59.3462 53.9003 59.2794Z" fill="#322015"/>
<path d="M53.7224 58.7898L53.6334 58.9233L53.6111 58.8788C53.4776 58.9456 53.4331 58.9901 53.3218 59.0791C53.3663 58.9901 53.4776 58.8788 53.7224 58.7898Z" fill="#322015"/>
<path d="M53.2771 59.1904C53.2771 59.1682 53.2771 59.1681 53.2771 59.1459C53.3439 59.1459 53.3884 59.1236 53.2771 59.1904Z" fill="#322015"/>
<path d="M53.2772 59.1237C53.2994 59.1237 53.2995 59.1014 53.3217 59.1014C53.3217 59.1237 53.2994 59.1459 53.2994 59.1682C53.2549 59.1682 53.2327 59.1682 53.2772 59.1237Z" fill="#322015"/>
<path d="M53.522 58.812C53.522 58.7675 53.4998 58.723 53.4998 58.6562L53.5888 58.6785C53.3885 58.7675 53.7446 58.7008 53.522 58.812Z" fill="#322015"/>
<path d="M53.0991 58.0999L52.8766 58.1221C52.8098 58.0331 53.2549 57.8105 52.8988 57.8105C53.0324 57.8328 53.1214 57.677 53.2104 57.7883C53.0324 57.8996 53.0324 58.0331 53.0991 58.0999Z" fill="#322015"/>
<path d="M52.6984 57.7882C52.6316 57.8105 52.5871 57.7882 52.5203 57.7882C52.498 57.7437 52.5871 57.6992 52.6761 57.6992C52.409 57.7882 52.8764 57.7215 52.6984 57.7882Z" fill="#322015"/>
<path d="M52.654 57.2987C52.654 57.3209 52.6317 57.3654 52.5649 57.3432C52.5649 57.2541 52.8098 57.2541 52.9655 57.1874C53.1213 57.2319 52.7875 57.3432 52.654 57.2987Z" fill="#322015"/>
<path d="M52.5649 56.5419L52.6094 56.5641L52.3201 56.5864L52.5649 56.5419Z" fill="#322015"/>
<path d="M52.7207 55.9632L52.8988 55.8965L52.8765 56.0078L52.7207 55.9632Z" fill="#322015"/>
<path d="M52.6763 55.8521L52.6985 55.7631L52.7653 55.8076C52.8321 55.8521 52.6763 55.8298 52.6763 55.8521Z" fill="#322015"/>
<path d="M52.7431 55.5627C52.7208 55.5627 52.7653 55.585 52.7876 55.585L52.6541 55.674L52.7431 55.5627Z" fill="#322015"/>
<path d="M51.7416 53.8491C51.5413 53.8491 51.6749 53.76 51.6526 53.7378C51.6971 53.7378 51.9197 53.8268 51.7416 53.8491Z" fill="#322015"/>
</g>
<path d="M25.2349 50.8445L24.5005 61.4382C24.5005 61.4382 26.8373 60.5925 27.7721 59.9693C28.7068 59.3462 29.6193 52.024 29.6193 52.024C29.6193 52.024 24.9679 51.0448 25.2349 50.8445Z" fill="#FFF0DD"/>
<mask id="mask1_114_7130" style="mask-type:luminance" maskUnits="userSpaceOnUse" x="24" y="50" width="6" height="12">
<path d="M25.2349 50.8445L24.5005 61.4382C24.5005 61.4382 26.8373 60.5925 27.7721 59.9693C28.7068 59.3462 29.6193 52.024 29.6193 52.024C29.6193 52.024 24.9679 51.0448 25.2349 50.8445Z" fill="white"/>
</mask>
<g mask="url(#mask1_114_7130)">
<g opacity="0.58">
<path d="M26.5481 53.0033C26.5481 53.0256 26.5259 53.0256 26.5259 53.0478C26.5259 53.0478 26.5259 53.0478 26.5481 53.0033Z" fill="#322015"/>
<path d="M25.7024 52.1799L25.7469 52.1354C25.7469 52.1576 25.7246 52.1799 25.7024 52.1799Z" fill="#322015"/>
<path d="M26.3033 53.3817C26.3033 53.404 26.281 53.4262 26.2588 53.4485L26.3033 53.3817Z" fill="#322015"/>
<path d="M26.0362 53.4707L26.0139 53.493C26.0139 53.4707 26.0362 53.4707 26.0362 53.4707Z" fill="#322015"/>
<path d="M27.3047 53.8046C27.3269 53.8268 27.3047 53.8268 27.3047 53.8046Z" fill="#322015"/>
<path d="M27.2379 54.7393L27.1934 54.7838C27.2156 54.7615 27.2379 54.7615 27.2379 54.7393Z" fill="#322015"/>
<path d="M27.4383 53.582C27.4383 53.6043 27.416 53.6043 27.416 53.6265C27.416 53.6043 27.416 53.6043 27.4383 53.582Z" fill="#322015"/>
<path d="M25.4575 51.8238C25.4575 51.8016 25.4575 51.8016 25.4575 51.7793C25.4798 51.7793 25.4798 51.8016 25.4575 51.8238Z" fill="#322015"/>
<path d="M27.1045 53.5374C26.971 53.671 27.1267 53.5819 26.9932 53.6932C27.0155 53.6487 27.0155 53.6042 26.9487 53.671C26.8819 53.76 26.9932 53.6932 26.8819 53.8267L26.9042 53.76C26.8374 53.8045 26.7707 53.9158 26.7707 53.8935C26.9042 53.7155 26.6371 53.8935 26.6371 53.849V53.8713L26.5258 53.9158L26.5481 53.8935C26.4591 53.9603 26.3701 53.9825 26.3701 53.938C26.4368 53.849 26.3033 53.8045 26.3701 53.7377C26.3701 53.7822 26.3701 53.7822 26.4146 53.7822L26.5258 53.671C26.5036 53.6487 26.4146 53.76 26.4591 53.671C26.6149 53.5374 26.5036 53.7155 26.5258 53.7155C26.5481 53.671 26.5704 53.6487 26.5704 53.6042C26.6149 53.6487 26.7039 53.6264 26.5704 53.8045C26.6149 53.7822 26.6594 53.7155 26.6816 53.6932C26.6371 53.8045 26.7929 53.6264 26.7261 53.7377C26.8597 53.6042 26.7484 53.6042 26.7929 53.5152C26.6594 53.5819 26.7039 53.4484 26.6816 53.3816C26.5704 53.4707 26.5258 53.5819 26.4591 53.6264C26.3478 53.6487 26.4813 53.5374 26.5036 53.4484C26.4368 53.4484 26.3255 53.6042 26.281 53.5597L26.2365 53.6487C26.0585 53.76 26.2588 53.5819 26.2143 53.5819C26.2588 53.5597 26.3033 53.5152 26.3033 53.5374C26.3478 53.4929 26.3701 53.4484 26.3701 53.4484C26.4368 53.3816 26.5036 53.2926 26.4368 53.3149C26.3701 53.4039 26.3478 53.3594 26.3033 53.3816V53.4039C26.3033 53.3594 26.281 53.3371 26.281 53.3149L26.2588 53.3371C26.281 53.2926 26.3701 53.1813 26.3255 53.1813C26.281 53.2258 26.192 53.3594 26.192 53.3149C26.1252 53.3816 26.1475 53.4039 26.192 53.4039C26.1475 53.4039 26.0362 53.4929 26.0585 53.5152C25.9694 53.5819 26.0585 53.4484 26.014 53.4707C26.0362 53.4484 26.0585 53.4261 26.0807 53.4039C25.9695 53.4929 26.014 53.3594 26.103 53.2926L26.0585 53.3816C26.1475 53.2926 26.1698 53.2258 26.2365 53.1813C26.0807 53.2926 26.2365 53.0478 26.103 53.1368L26.192 53.0923C26.103 53.0701 26.2143 52.892 26.2143 52.803C26.192 52.8698 26.0362 53.0033 26.1252 52.981C26.0585 52.9588 25.9472 53.0923 25.8582 53.1368C25.7691 53.1368 25.9917 52.981 26.014 52.9365V52.981C26.1698 52.7807 25.8804 52.892 25.9472 52.7362C25.9027 52.7807 25.9249 52.7807 25.9249 52.803C25.8137 52.8475 25.9249 52.7585 25.9472 52.714C25.9027 52.6917 25.8359 52.6917 25.7469 52.803C25.7024 52.803 25.8137 52.7585 25.8359 52.6917L25.8137 52.714L25.9249 52.5804C25.8582 52.5804 25.7691 52.6027 25.6579 52.6694C25.6356 52.5804 25.9027 52.4246 25.9027 52.3579C25.8137 52.3801 25.8137 52.4246 25.7691 52.4691L25.7469 52.4246C25.6356 52.5359 25.7246 52.5137 25.5688 52.6472C25.7024 52.4914 25.5688 52.5582 25.6356 52.4469H25.6579C25.7469 52.3356 25.6356 52.3579 25.6356 52.3134C25.5688 52.3801 25.5911 52.4024 25.5911 52.4469C25.5243 52.4469 25.5021 52.3356 25.6356 52.2021C25.5911 52.2021 25.5243 52.2021 25.4798 52.2688C25.4131 52.2243 25.6579 52.0908 25.5688 52.0685L25.4576 52.1576C25.2573 52.2021 25.5021 51.935 25.324 51.9795L25.4576 51.8905C25.3908 51.9128 25.3463 51.9128 25.3018 51.935L25.2795 52.0018C25.146 52.0463 25.3685 51.8905 25.2573 51.9128C25.3018 51.8905 25.4131 51.846 25.4576 51.8237C25.4576 52.0018 25.7469 51.9795 25.7024 52.2021C25.6801 52.2021 25.6579 52.2243 25.6356 52.2466C25.6801 52.2466 25.6579 52.2911 25.7246 52.2243V52.2021C25.7246 52.2466 25.9027 52.1576 25.9027 52.1798C25.8359 52.2688 25.9917 52.2243 25.8359 52.3134L25.9472 52.2688C25.9027 52.3134 25.8137 52.3801 25.8137 52.4024C25.8359 52.4246 25.9027 52.3579 25.9249 52.3134C26.0362 52.3579 26.103 52.4469 26.1252 52.5804L26.1698 52.5137C26.2143 52.5137 26.103 52.6917 26.2588 52.5137C26.2143 52.6027 26.3923 52.5804 26.2143 52.7362C26.4146 52.6249 26.3701 52.7585 26.3923 52.8475C26.2365 52.9588 26.3923 52.9365 26.3255 53.0033C26.4368 52.9143 26.4146 52.8475 26.4813 52.7807C26.3478 53.0033 26.7484 52.803 26.4591 53.0923C26.4813 53.0923 26.4813 53.0701 26.5036 53.0701C26.5036 53.0701 26.5704 53.0478 26.5926 53.0478C26.5481 53.0923 26.5036 53.0923 26.5036 53.1368C26.5258 53.1368 26.5926 53.0701 26.6371 53.0255C26.6149 53.1146 26.6371 53.2036 26.5258 53.3149C26.5704 53.2926 26.6371 53.2481 26.6594 53.2036C26.6149 53.3371 26.7261 53.2481 26.7261 53.3594C26.7039 53.3371 26.8374 53.2258 26.7707 53.2481C26.9487 53.1146 26.8374 53.3594 26.9487 53.3371L26.8597 53.4484C26.8597 53.4929 26.971 53.4039 26.9932 53.3371C27.1045 53.3149 27.06 53.4039 27.1045 53.4484C27.1267 53.4484 27.1267 53.4261 27.1267 53.4261L27.1713 53.4707C27.149 53.4929 27.1267 53.5819 27.06 53.6264C27.149 53.5819 27.1713 53.5374 27.1045 53.5374Z" fill="#322015"/>
<path d="M26.1697 53.5819C26.1919 53.5597 26.2142 53.5597 26.2364 53.5597C26.1919 53.5819 26.1697 53.5819 26.1697 53.5819Z" fill="#322015"/>
<path d="M27.4382 54.2941C27.2824 54.4499 27.4159 54.2273 27.3714 54.2719C27.3714 54.3164 27.2824 54.4054 27.2379 54.4499C27.3937 54.2051 27.1711 54.4722 27.1489 54.3609C27.0821 54.4277 27.1044 54.4722 27.0376 54.5389C27.0599 54.4499 27.0376 54.3831 27.1266 54.2719C27.0821 54.2273 27.0153 54.2274 26.9931 54.1828C26.9931 54.2719 26.9041 54.3164 26.8373 54.4277C26.9263 54.2496 26.9931 54.0271 27.0821 53.8045C26.9486 53.9158 26.9486 53.938 26.8373 54.0493C26.7038 54.0716 26.9263 53.9158 26.8373 53.8935H26.8818C26.8818 53.8267 27.0154 53.7155 27.0821 53.6264L27.1266 53.7155C27.2157 53.6264 27.1489 53.6042 27.1711 53.5597C27.2602 53.4484 27.2824 53.5152 27.3492 53.4261C27.2824 53.4929 27.3269 53.5152 27.3269 53.5597L27.3714 53.5152C27.4382 53.4929 27.3492 53.6264 27.3714 53.6487C27.3937 53.6264 27.3937 53.6264 27.3937 53.6264C27.3492 53.6932 27.3047 53.76 27.3047 53.8045V53.7822C27.2157 53.9158 27.2157 54.0493 27.0599 54.1383L27.1711 54.1606C27.2824 54.027 27.4382 53.8267 27.416 53.7822L27.4605 53.7155C27.5495 53.671 27.4605 53.8935 27.3492 53.9825C27.1044 54.3164 27.4382 54.0938 27.3937 54.2496C27.4605 54.1606 27.4605 54.1161 27.505 54.0493C27.505 54.027 27.4827 54.0271 27.4382 54.0938C27.416 53.9825 27.683 53.849 27.594 53.8045C27.5272 53.8267 27.5272 53.9825 27.4605 53.938L27.6385 53.671C27.6608 53.6932 27.6608 53.76 27.6608 53.8267C27.6608 54.0938 27.8833 54.0493 27.8833 54.0493C27.9723 54.1383 28.0836 54.2274 28.1726 54.3386C28.2617 54.4277 28.3729 54.5167 28.462 54.5834C28.5065 54.6502 28.5287 54.6502 28.4397 54.9395C28.3952 54.984 28.3507 54.9395 28.3284 55.0286C28.3729 54.9173 28.3729 54.8505 28.3284 54.8505C28.2617 54.9395 28.3507 54.9173 28.3062 54.9395H28.2839C28.2617 54.984 28.2394 55.0286 28.2617 55.0286C28.1281 55.1398 28.0614 55.0731 28.1281 54.8728C28.0391 54.9395 28.0614 55.0286 28.0391 55.1176C27.8611 55.0953 27.772 55.0286 27.6385 54.9395C27.7498 54.7837 27.7053 54.8283 27.7498 54.717L27.7053 54.7615C27.7275 54.7392 27.7943 54.6057 27.8388 54.6057C27.683 54.6725 27.9056 54.3386 27.9278 54.2274L27.8611 54.3164C27.8388 54.2719 27.8166 54.2719 27.8166 54.2051C27.6385 54.3164 27.8611 54.2719 27.683 54.4499V54.4054C27.6385 54.4944 27.5495 54.628 27.5272 54.6947C27.5717 54.5167 27.3937 54.6725 27.416 54.5167C27.3492 54.6057 27.3492 54.717 27.3714 54.7392C27.3492 54.7392 27.3492 54.628 27.2824 54.717L27.3714 54.6057C27.3492 54.5612 27.3047 54.717 27.2156 54.7615C27.1044 54.6947 27.4605 54.4277 27.4382 54.2941Z" fill="#322015"/>
<path d="M26.5259 53.5597C26.5481 53.5597 26.5481 53.5819 26.5481 53.5819C26.5259 53.5819 26.5259 53.5819 26.5259 53.5597Z" fill="#322015"/>
<path d="M26.5035 53.9158C26.4812 53.938 26.4812 53.938 26.4812 53.9603C26.4812 53.938 26.4812 53.9158 26.5035 53.9158Z" fill="#322015"/>
<path d="M26.3701 54.0716C26.4146 54.0271 26.4146 54.0271 26.4591 53.9603C26.4369 54.0048 26.4814 54.0271 26.3701 54.0716Z" fill="#322015"/>
<path d="M24.6787 51.067C24.6342 51.0893 24.5674 51.1338 24.5229 51.1561C24.4561 51.1338 24.6342 51.0448 24.5674 51.0448C24.5006 51.1561 24.4784 51.067 24.4116 51.067C24.5452 51.0225 24.6342 51.0003 24.6787 51.0225L24.6119 51.067C24.5897 51.0893 24.6342 51.067 24.6787 51.067Z" fill="#322015"/>
<path d="M24.5895 51.3787L24.6786 51.2897C24.6118 51.3119 24.5895 51.2674 24.4783 51.3342C24.4783 51.3119 24.545 51.2674 24.5673 51.2452C24.5005 51.2674 24.456 51.2674 24.5228 51.2229C24.6341 51.2674 24.6563 51.2229 24.7231 51.2674C24.7453 51.2452 24.7453 51.2452 24.7231 51.2452H24.8121C24.6786 51.3119 24.7008 51.3564 24.5895 51.3787Z" fill="#322015"/>
<path d="M24.7231 51.3786C24.7009 51.3341 24.8121 51.2674 24.8789 51.2451L24.8344 51.3564C24.8344 51.3341 24.8121 51.3119 24.7231 51.3786Z" fill="#322015"/>
<path d="M24.7453 51.4232C24.812 51.401 24.9456 51.3564 24.8566 51.4455C24.8343 51.401 24.6785 51.5122 24.7453 51.4232Z" fill="#322015"/>
<path d="M24.9902 51.6012L24.8789 51.5789C24.7231 51.6457 24.8566 51.6457 24.7899 51.6902C24.7231 51.6457 24.7899 51.6457 24.8566 51.5344C24.8344 51.5344 24.9011 51.4454 24.9234 51.4009C24.8566 51.6012 25.2127 51.3786 24.9902 51.6012Z" fill="#322015"/>
<path d="M24.7676 51.5567L24.8121 51.5344L24.7898 51.5789L24.7676 51.5567Z" fill="#322015"/>
<path d="M25.2349 51.6457C25.4352 51.579 25.1904 51.7793 25.2794 51.7793C25.2794 51.7793 25.3017 51.757 25.3239 51.7348V51.7793L25.3685 51.757C25.2572 51.8238 25.2572 51.8906 25.1904 51.9573C25.0569 52.0018 25.3017 51.846 25.1682 51.8906C25.1236 51.9351 25.0569 51.9796 25.0346 52.0241C25.0791 51.9573 25.1236 51.9128 25.1682 51.8683C25.1682 51.846 25.1014 51.8906 25.0791 51.9128C25.1236 51.846 25.2572 51.757 25.2127 51.7348C25.1014 51.757 25.0791 51.846 25.1014 51.7793C25.2794 51.6903 25.0346 51.757 25.1459 51.668C25.1014 51.6457 24.9901 51.6903 24.9233 51.7348C25.0569 51.6457 25.1459 51.5567 25.1682 51.5122L25.1014 51.6457L25.2572 51.579C25.1682 51.6235 25.2127 51.6457 25.2349 51.6457Z" fill="#322015"/>
<path d="M25.0347 52.024L25.0125 52.0463C25.0125 52.0463 25.0347 52.0463 25.0347 52.024Z" fill="#322015"/>
<path d="M24.8566 51.757L24.8343 51.7792L24.7898 51.8015L24.8566 51.757Z" fill="#322015"/>
<path d="M24.9678 52.1353L25.0123 52.0908L24.9456 52.1576L24.9678 52.1353Z" fill="#322015"/>
<path d="M25.0791 52.0908L25.1681 52.0463L25.1014 52.113L25.0791 52.0908Z" fill="#322015"/>
<path d="M25.7246 52.7807C25.6578 52.803 25.7468 52.7139 25.8136 52.6694C25.8581 52.6917 25.7246 52.7362 25.7246 52.7807Z" fill="#322015"/>
<path d="M25.9917 53.3149C25.9027 53.3371 25.9695 53.2481 25.9472 53.2259C26.014 53.2036 26.014 53.2704 25.9917 53.3149Z" fill="#322015"/>
<path d="M25.8582 53.7822C25.8804 53.76 25.8804 53.7377 25.9027 53.7377L26.0362 53.5597C26.1252 53.5597 25.9249 53.7155 25.8582 53.7822Z" fill="#322015"/>
<path d="M26.0361 54.0271L26.0584 53.9381L26.0806 53.9604C26.1252 53.8936 26.1474 53.8491 26.1919 53.8046C26.1919 53.8268 26.1474 53.9158 26.0361 54.0271Z" fill="#322015"/>
<path d="M26.192 53.7155C26.192 53.7377 26.192 53.7377 26.192 53.7155C26.1697 53.76 26.1474 53.7822 26.192 53.7155Z" fill="#322015"/>
<path d="M26.2142 53.7601C26.1919 53.7823 26.1919 53.7601 26.2142 53.7601C26.1919 53.7601 26.1919 53.7601 26.2142 53.7601C26.2365 53.7156 26.2142 53.7378 26.2142 53.7601Z" fill="#322015"/>
<path d="M26.1253 53.9825L26.1698 54.0493H26.1253C26.2143 53.9603 26.0363 54.0716 26.1253 53.9825Z" fill="#322015"/>
<path d="M26.5259 54.2051L26.6149 54.1161C26.6817 54.1383 26.5259 54.3832 26.6817 54.2496C26.6149 54.2941 26.6149 54.3832 26.5481 54.3609C26.6149 54.2496 26.5704 54.2051 26.5259 54.2051Z" fill="#322015"/>
<path d="M26.7928 54.1829C26.815 54.1383 26.8373 54.1383 26.8595 54.1161C26.8818 54.1161 26.8595 54.1829 26.815 54.2051C26.9263 54.0716 26.726 54.2719 26.7928 54.1829Z" fill="#322015"/>
<path d="M26.9488 54.3609C26.9488 54.3387 26.9266 54.3164 26.9711 54.3164C26.9933 54.3609 26.9043 54.4499 26.8598 54.539C26.7708 54.5612 26.882 54.3832 26.9488 54.3609Z" fill="#322015"/>
<path d="M27.8166 53.8712C27.7498 53.9602 27.7275 53.9157 27.7498 53.8935C27.7498 53.8935 27.7943 53.8935 27.8166 53.8712Z" fill="#322015"/>
<path d="M27.2378 54.5612L27.2156 54.5835L27.3269 54.45L27.2378 54.5612Z" fill="#322015"/>
<path d="M27.3937 54.806L27.3714 54.9173L27.3269 54.8728L27.3937 54.806Z" fill="#322015"/>
<path d="M27.4606 54.8282L27.4829 54.8728L27.4384 54.895C27.4161 54.895 27.4606 54.8282 27.4606 54.8282Z" fill="#322015"/>
<path d="M27.5496 54.9174C27.5496 54.8951 27.5273 54.9174 27.5273 54.9396V54.8506L27.5496 54.9174Z" fill="#322015"/>
<path d="M28.5064 54.6947C28.5509 54.5834 28.5509 54.6724 28.5732 54.6502C28.5509 54.6947 28.4619 54.8059 28.5064 54.6947Z" fill="#322015"/>
</g>
</g>
<path d="M22.809 22.1124C22.809 22.1124 18.7585 21.3112 18.1353 21.1777C17.5122 21.0442 16.5329 22.0234 16.9558 24.6051C17.3786 27.1867 18.7362 28.6779 20.4722 29.5681C22.2081 30.4583 22.3862 30.5251 22.4752 30.7031C22.5865 30.8812 23.1874 33.4183 23.1428 33.6409C23.0983 33.8634 20.1161 39.138 22.3862 46.5714C24.6562 54.0049 33.7811 59.0569 36.1624 59.9916C36.1624 59.9916 33.7811 60.37 33.8256 63.6638C33.8256 63.6638 51.007 63.6638 51.6746 63.6638C52.3423 63.6638 53.4328 59.0569 52.4759 53.0033C51.5189 46.9498 46.6449 43.1218 43.9074 40.4066C41.17 37.6692 39.2115 34.3753 38.1432 31.2818C37.0527 28.1882 36.8078 27.0087 36.563 26.2965C36.563 26.2965 36.296 23.1362 36.2514 21.556C36.2069 19.9759 36.0511 17.9061 34.8716 17.5945C33.692 17.283 32.5125 18.4625 31.1326 20.1762C31.1326 20.1317 24.6562 18.4403 22.809 22.1124Z" fill="#FFF0DD"/>
<mask id="mask2_114_7130" style="mask-type:luminance" maskUnits="userSpaceOnUse" x="32" y="53" width="5" height="7">
<path d="M36.3851 59.9248C36.2516 59.9693 36.1848 59.9693 36.1848 59.9693C35.4726 59.68 34.1373 59.0346 32.5571 58.0331C33.1135 56.6087 33.6922 55.1176 34.2041 53.849C34.7382 54.1828 35.2501 54.4944 35.7397 54.7615C35.0275 57.9218 36.3851 59.9248 36.3851 59.9248Z" fill="white"/>
</mask>
<g mask="url(#mask2_114_7130)">
<g opacity="0.58">
<path d="M32.98 56.4529C33.0022 56.4529 33.0245 56.4307 33.0245 56.4307C33.0245 56.4529 33.0022 56.4529 32.98 56.4529Z" fill="#322015"/>
<path d="M32.6683 58.634H32.6238C32.646 58.6117 32.6683 58.6117 32.6683 58.634Z" fill="#322015"/>
<path d="M33.4028 56.3416C33.4251 56.3194 33.4473 56.3194 33.4919 56.2971L33.4028 56.3416Z" fill="#322015"/>
<path d="M33.5808 56.6088C33.5808 56.6088 33.6031 56.6088 33.6031 56.631C33.6031 56.6088 33.6031 56.6088 33.5808 56.6088Z" fill="#322015"/>
<path d="M33.4695 54.3609C33.4695 54.3387 33.4695 54.3387 33.4695 54.3164H33.4917C33.514 54.3387 33.4917 54.3609 33.4695 54.3609Z" fill="#322015"/>
<path d="M33.5364 54.4499L33.5586 54.4276C33.5364 54.4276 33.5364 54.4499 33.5364 54.4499Z" fill="#322015"/>
<path d="M33.2471 54.4945C33.2693 54.4945 33.2916 54.4945 33.3138 54.4945C33.2916 54.4945 33.2916 54.5168 33.2471 54.4945Z" fill="#322015"/>
<path d="M32.5794 59.4352C32.5794 59.4574 32.5571 59.4797 32.5571 59.5019C32.5348 59.4574 32.5348 59.4352 32.5794 59.4352Z" fill="#322015"/>
<path d="M33.3138 55.0509C33.4696 55.1176 33.3361 54.9841 33.4919 55.0286C33.4474 55.0509 33.4029 55.0731 33.4919 55.1176C33.6032 55.1176 33.5141 55.0286 33.6477 55.0509L33.5809 55.0954C33.6477 55.1621 33.759 55.1399 33.7367 55.1621C33.5364 55.1621 33.759 55.3624 33.7144 55.407L33.7367 55.3847L33.8035 55.496C33.7812 55.496 33.7812 55.496 33.759 55.496C33.848 55.5627 33.8925 55.6295 33.848 55.6963C33.7367 55.6963 33.759 55.8966 33.6477 55.9188C33.6922 55.8966 33.6922 55.8743 33.6699 55.8298L33.5364 55.8076C33.5141 55.8743 33.6477 55.8521 33.5587 55.8966C33.3806 55.8298 33.5809 55.8076 33.5809 55.763C33.5364 55.763 33.4919 55.7853 33.4696 55.8076C33.4919 55.7185 33.4474 55.6073 33.6477 55.585C33.6254 55.5405 33.5364 55.5405 33.5141 55.5627C33.6254 55.5182 33.4251 55.496 33.5364 55.4515C33.3584 55.4292 33.4029 55.5627 33.3138 55.6073C33.4251 55.7185 33.2693 55.8076 33.2248 55.8966C33.3361 55.9411 33.4696 55.8966 33.5364 55.9411C33.6032 56.0524 33.4474 56.0301 33.3584 56.0524C33.3806 56.1414 33.5587 56.1191 33.5364 56.2082L33.6254 56.1636C33.7812 56.2749 33.5364 56.2082 33.5587 56.2527C33.5141 56.2304 33.4696 56.2082 33.4919 56.1636C33.4251 56.1414 33.4029 56.1859 33.3806 56.1859V56.1636C33.2916 56.1636 33.2026 56.1414 33.2248 56.2304C33.3361 56.2082 33.2916 56.2972 33.3361 56.3417L33.3584 56.3194C33.3138 56.3639 33.3138 56.4085 33.2916 56.453H33.3138C33.2693 56.4752 33.1358 56.4752 33.158 56.5197C33.2026 56.5197 33.3584 56.4975 33.3361 56.542C33.4251 56.542 33.4474 56.4975 33.4251 56.4307C33.4474 56.4975 33.5587 56.542 33.5809 56.4752C33.6699 56.5197 33.5141 56.5197 33.5587 56.5643C33.5364 56.542 33.4919 56.5643 33.4696 56.542C33.6032 56.5643 33.4474 56.6755 33.3584 56.6533L33.4474 56.6088C33.3361 56.5865 33.2471 56.6533 33.2026 56.6088C33.3584 56.6755 33.0913 56.7645 33.2248 56.8313L33.1358 56.7868C33.1581 56.9426 32.9355 57.0094 32.8687 57.1429C32.9355 57.0984 33.1135 57.1429 33.069 57.0539C33.069 57.1874 33.2471 57.1206 33.3361 57.1874C33.3806 57.2987 33.1581 57.2097 33.0913 57.2319L33.1358 57.1652C32.9132 57.2097 33.1358 57.4322 32.98 57.5435C33.0245 57.5658 33.0245 57.5212 33.0468 57.499C33.1358 57.588 33.0023 57.5658 32.9578 57.588C32.9578 57.6548 33.0023 57.7438 33.1358 57.7215C33.1581 57.7883 33.0468 57.6993 33.0023 57.7215L33.0245 57.7438L32.8687 57.7883C32.891 57.8551 32.9578 57.9441 33.0913 57.9886C33.0468 58.1221 32.7797 57.9886 32.7129 58.0776C32.7797 58.1444 32.8242 58.0776 32.8687 58.0776L32.8465 58.1667C33.0023 58.1667 32.9355 58.0776 33.1135 58.0999C32.9132 58.1444 33.0468 58.1889 32.9132 58.2779H32.891C32.7574 58.3002 32.8242 58.4337 32.802 58.4782C32.8687 58.456 32.891 58.3892 32.9355 58.367C32.98 58.4337 32.891 58.6118 32.7352 58.6563C32.7574 58.7008 32.802 58.7898 32.8687 58.7453C32.8687 58.8788 32.6462 58.7676 32.6684 58.9011H32.7797C32.9355 59.0569 32.6017 59.1459 32.7352 59.2794H32.5794C32.6462 59.324 32.6684 59.3685 32.7129 59.3907L32.7797 59.324C32.891 59.3907 32.6462 59.3685 32.7352 59.4575C32.6907 59.4575 32.6017 59.3907 32.5571 59.3907C32.6684 59.1237 32.4904 58.8343 32.6684 58.5895C32.6907 58.6118 32.7129 58.6118 32.7352 58.6118C32.7129 58.5673 32.7574 58.5228 32.6684 58.5228H32.6462C32.6907 58.456 32.5126 58.367 32.5349 58.3225C32.6462 58.3002 32.5126 58.1667 32.6907 58.2334L32.6017 58.1667C32.6684 58.1667 32.7574 58.1889 32.7797 58.1667C32.7797 58.1221 32.7129 58.0999 32.6684 58.1444C32.6239 57.9441 32.6907 57.7215 32.7797 57.5435L32.6907 57.588C32.6684 57.5435 32.8687 57.4545 32.6462 57.4545C32.7352 57.3877 32.6462 57.1874 32.8465 57.2319C32.6462 57.1206 32.802 56.9871 32.8687 56.8758C33.0468 56.9426 32.9355 56.7868 33.0245 56.7646C32.891 56.72 32.8687 56.8313 32.7575 56.8313C33.0023 56.7423 32.6907 56.4307 33.0468 56.453C33.0468 56.4307 33.0245 56.4307 33.0023 56.4307C33.0023 56.4085 32.9577 56.3639 32.9355 56.3194C33.0023 56.3194 33.0245 56.3862 33.0468 56.3194C33.0468 56.2749 32.9355 56.2749 32.891 56.2527C33.0023 56.1859 33.069 56.0524 33.2026 56.0524C33.1803 56.0079 33.0913 55.9633 33.069 55.9856C33.2248 55.8743 33.0913 55.8298 33.1803 55.7185C33.1581 55.763 33.0245 55.6963 33.069 55.7853C32.891 55.674 33.1581 55.5627 33.0913 55.4292L33.2248 55.407C33.2693 55.3402 33.1358 55.2957 33.0913 55.3402C33.0468 55.2067 33.1358 55.1621 33.158 55.0731C33.1358 55.0731 33.1135 55.0509 33.1135 55.0731L33.1358 54.9396C33.1803 54.9396 33.2471 54.8951 33.3361 54.9396C33.3361 54.9618 33.2693 54.9618 33.3138 55.0509Z" fill="#322015"/>
<path d="M33.6475 56.2972C33.6253 56.2749 33.603 56.2527 33.603 56.2527C33.6253 56.2749 33.6253 56.2972 33.6475 56.2972Z" fill="#322015"/>
<path d="M34.0037 53.8045C34.1817 53.8935 33.9369 53.8712 33.9814 53.938C34.0259 53.8935 34.1372 53.938 34.1817 53.9603C33.9147 53.938 34.204 54.0493 34.115 54.1606C34.204 54.1828 34.2262 54.1383 34.3153 54.1606C34.2262 54.2051 34.1595 54.2941 34.0259 54.2718C33.9814 54.3831 34.0037 54.4721 33.9592 54.5389C34.0482 54.4721 34.0927 54.5612 34.2485 54.5389C34.0704 54.5834 33.8034 54.6947 33.5808 54.7615C33.7366 54.8282 33.7366 54.8282 33.8924 54.8505C33.9592 55.0285 33.7366 54.8505 33.7366 55.0063V54.9395C33.6698 54.984 33.5363 54.9618 33.425 54.9395L33.4918 54.7837C33.3805 54.7615 33.3805 54.8505 33.336 54.8727C33.2025 54.895 33.2692 54.7615 33.158 54.7615C33.247 54.7615 33.247 54.6947 33.2915 54.6724L33.247 54.6502C33.2025 54.5612 33.3583 54.5612 33.3805 54.4944C33.3583 54.4944 33.3583 54.4721 33.336 54.4721C33.4028 54.4721 33.4918 54.4721 33.5141 54.4276L33.4918 54.4499C33.6476 54.4276 33.7589 54.3164 33.8924 54.4499V54.2718C33.7366 54.2496 33.5141 54.2051 33.4695 54.2941H33.4028C33.336 54.2051 33.5808 54.1383 33.6921 54.2273C34.0704 54.2718 33.7811 53.9825 33.9592 53.9158C33.8701 53.8712 33.8034 53.938 33.7366 53.938C33.7144 53.9603 33.7144 54.0048 33.7811 54.027C33.6698 54.1606 33.4918 53.8935 33.4695 54.0715C33.4918 54.1606 33.6476 54.027 33.6253 54.1383H33.336C33.3583 54.0715 33.425 54.0048 33.4918 53.9603C33.7811 53.6709 33.7144 53.3816 33.7144 53.3816C33.9147 52.892 34.1372 52.4024 34.3598 51.935C34.471 51.8015 34.471 51.7347 34.7604 51.8015C34.8049 51.846 34.7381 51.935 34.8271 51.935C34.7159 51.9127 34.6491 51.935 34.6268 52.024C34.7159 52.0685 34.6936 51.9795 34.7159 52.0018V52.024C34.7604 52.0463 34.8049 52.0463 34.8271 52.024C34.9384 52.1798 34.8271 52.3133 34.6268 52.3133C34.6936 52.4246 34.7826 52.3133 34.8716 52.3133C34.8494 52.5804 34.7604 52.7585 34.6713 53.0033C34.4933 52.9365 34.5601 52.981 34.4265 52.981L34.471 53.0255C34.4488 53.0033 34.3153 53.0033 34.293 52.9365C34.3598 53.1368 34.0037 53.0255 33.8924 53.1145L33.9814 53.1368C33.9369 53.2258 33.9147 53.2481 33.8479 53.2926C33.9592 53.4929 33.9147 53.1813 34.115 53.2926L34.0704 53.3148C34.1595 53.3148 34.3153 53.3371 34.382 53.3371C34.204 53.4261 34.382 53.5374 34.2262 53.6487C34.3375 53.6709 34.4488 53.5597 34.471 53.5374C34.471 53.5819 34.3598 53.6487 34.4488 53.6932L34.3153 53.6709C34.2707 53.76 34.4265 53.6932 34.4933 53.76C34.4488 53.938 34.1372 53.6487 34.0037 53.8045Z" fill="#322015"/>
<path d="M33.4917 55.852C33.4917 55.8298 33.4917 55.8075 33.514 55.7853C33.514 55.8075 33.514 55.8298 33.4917 55.852Z" fill="#322015"/>
<path d="M34.0036 55.5183C33.9591 55.496 33.9369 55.5183 33.8701 55.5183C33.9146 55.496 33.9369 55.4292 34.0036 55.5183Z" fill="#322015"/>
<path d="M32.6015 59.9249C32.4235 59.8358 32.7128 59.7691 32.6461 59.68C32.6238 59.68 32.6238 59.68 32.6015 59.7023L32.6238 59.6355H32.5793C32.6906 59.6578 32.7351 59.5688 32.8241 59.5465C32.9354 59.6355 32.6906 59.5688 32.8018 59.6578C32.8464 59.6355 32.9354 59.6355 32.9799 59.6355C32.9131 59.68 32.8464 59.68 32.7796 59.7023C32.7573 59.7468 32.8241 59.7468 32.8686 59.7468C32.8018 59.7913 32.6461 59.7913 32.6683 59.8803C32.7573 59.9471 32.8241 59.8581 32.7796 59.9471C32.6015 59.8803 32.8018 60.0361 32.6906 60.0806C32.7128 60.1474 32.8241 60.2142 32.8909 60.1919C32.7573 60.1919 32.6238 60.2364 32.6015 60.3032L32.7128 60.1919L32.557 60.1474C32.6461 60.0361 32.6238 59.9916 32.6015 59.9249Z" fill="#322015"/>
<path d="M32.98 59.6132L33.0022 59.5909C33.0022 59.5909 33.0022 59.5909 32.98 59.6132Z" fill="#322015"/>
<path d="M33.0911 59.5464C33.0911 59.5687 33.0466 59.5687 33.0466 59.5464L33.1134 59.5242L33.0911 59.5464Z" fill="#322015"/>
<path d="M33.0021 59.4797L32.9131 59.413H32.9799L33.0021 59.4797Z" fill="#322015"/>
<path d="M33.1357 57.8327C33.1802 57.8995 33.069 57.8773 33.0022 57.855C33.0022 57.766 33.0912 57.8773 33.1357 57.8327Z" fill="#322015"/>
<path d="M33.4919 56.8313C33.5587 56.8981 33.4251 56.9426 33.4251 56.9871C33.3806 56.9426 33.4251 56.8758 33.4919 56.8313Z" fill="#322015"/>
<path d="M33.937 56.4974C33.8924 56.4974 33.8702 56.5197 33.8702 56.4752H33.6699C33.6254 56.3862 33.8479 56.4752 33.937 56.4974Z" fill="#322015"/>
<path d="M34.0928 56.0301L34.0037 56.0969V56.0524C33.9147 56.0524 33.8925 56.0524 33.8257 56.0746C33.8702 56.0079 33.9592 55.9856 34.0928 56.0301Z" fill="#322015"/>
<path d="M33.759 56.1191C33.759 56.1191 33.759 56.0968 33.7813 56.0968C33.8035 56.1191 33.8258 56.1191 33.759 56.1191Z" fill="#322015"/>
<path d="M33.7812 56.0746H33.8035C33.7812 56.0968 33.7812 56.0968 33.759 56.1191C33.759 56.0746 33.7367 56.0746 33.7812 56.0746Z" fill="#322015"/>
<path d="M34.0037 55.941L34.0482 55.8075L34.0704 55.8743C33.9592 55.852 34.1372 55.941 34.0037 55.941Z" fill="#322015"/>
<path d="M34.0927 55.2066L33.9814 55.1621C33.9814 55.0731 34.2485 55.0286 34.0927 54.9396C34.1595 55.0063 34.2485 54.9173 34.2485 55.0063C34.1372 55.0286 34.0927 55.1399 34.0927 55.2066Z" fill="#322015"/>
<path d="M34.026 54.8506C33.9815 54.8506 33.9815 54.8283 33.937 54.806C33.937 54.7615 34.0038 54.7615 34.026 54.7838C33.8702 54.7615 34.1151 54.8506 34.026 54.8506Z" fill="#322015"/>
<path d="M34.1373 54.4499C34.1373 54.4721 34.115 54.4944 34.0928 54.4499C34.115 54.3831 34.2486 54.4276 34.3376 54.4276C34.3821 54.5166 34.1818 54.5166 34.1373 54.4499Z" fill="#322015"/>
<path d="M34.3152 53.849V53.8713L34.1594 53.849H34.3152Z" fill="#322015"/>
</g>
</g>
<path d="M51.6746 63.6415C51.0069 63.6415 33.8255 63.6415 33.8255 63.6415C33.8033 60.3699 36.1846 59.9693 36.1846 59.9693C36.1846 59.9693 36.2514 59.9471 36.3849 59.9248C36.3849 59.9248 35.0273 57.9218 35.7172 54.7838C33.4694 53.4929 30.8655 51.8015 28.2838 48.107C25.1458 43.6336 26.6147 36.1335 26.993 33.4851C27.3714 30.8366 27.5717 28.1659 27.2823 27.6541C26.993 27.1422 25.7244 27.476 22.8312 26.3187C20.5166 25.4062 19.4483 23.8706 19.1145 23.2697C19.159 23.2474 19.2035 23.2252 19.2258 23.2029C19.8044 22.8468 20.027 22.2014 20.0938 21.8008C20.116 21.734 20.0938 21.645 20.0715 21.5783C21.3623 21.8453 22.8089 22.1124 22.8089 22.1124C24.6562 18.4402 31.1103 20.1316 31.1103 20.1316C32.4902 18.418 33.6475 17.2384 34.8493 17.55C36.0511 17.8616 36.2069 19.9313 36.2291 21.5115C36.2736 23.0916 36.5407 26.252 36.5407 26.252C36.7855 26.9641 37.0303 28.1437 38.1209 31.2372C39.2114 34.3308 41.1699 37.6469 43.8851 40.3621C46.6003 43.0995 51.4965 46.9052 52.4535 52.9588C53.455 59.0346 52.3645 63.6415 51.6746 63.6415Z" fill="#FBAF5E"/>
<path d="M36.1848 59.9915C36.1848 59.9915 37.5647 59.5686 39.1003 59.7689" stroke="#1B1C1E" stroke-width="1.2604" stroke-miterlimit="10" stroke-linecap="round" stroke-linejoin="round"/>
<path d="M36.385 59.9248C36.385 59.9248 34.8494 57.677 35.8732 54.2051C36.7411 51.2228 39.9905 50.2881 41.3481 50.4438" stroke="#1B1C1E" stroke-width="1.2604" stroke-miterlimit="10" stroke-linecap="round" stroke-linejoin="round"/>
<path d="M34.8717 63.6415C34.8717 63.6415 34.7605 62.2394 35.5839 61.4382" stroke="#1B1C1E" stroke-width="1.2604" stroke-miterlimit="10" stroke-linecap="round" stroke-linejoin="round"/>
<path d="M27.9279 47.5507C27.9279 47.5507 26.2364 58.7898 25.8136 59.9916C25.8136 59.9916 22.8313 59.9916 22.8313 63.6638C22.8313 63.6638 29.9086 63.6638 30.1979 63.6638C30.4205 63.6638 32.6906 57.7215 34.204 53.8713C34.8494 52.2021 35.3835 50.9335 35.517 50.711L27.9279 47.5507Z" fill="#FBAF5E"/>
<path d="M24.5004 63.6415C24.5004 63.6415 24.3891 62.2394 25.2126 61.4382" stroke="#1B1C1E" stroke-width="1.2604" stroke-miterlimit="10" stroke-linecap="round" stroke-linejoin="round"/>
<path d="M26.281 63.6415C26.281 63.6415 26.3478 62.3952 26.9709 61.8833" stroke="#1B1C1E" stroke-width="1.2604" stroke-miterlimit="10" stroke-linecap="round" stroke-linejoin="round"/>
<path d="M36.6521 63.6415C36.6521 63.6415 36.7189 62.3952 37.342 61.8833" stroke="#1B1C1E" stroke-width="1.2604" stroke-miterlimit="10" stroke-linecap="round" stroke-linejoin="round"/>
<path d="M19.8268 21.3335C20.0271 21.378 20.1384 21.5783 20.0939 21.7786C20.0048 22.1792 19.7823 22.8246 19.2259 23.1807C18.3579 23.7371 17.1561 23.4478 16.8668 22.8246C16.5775 22.1792 17.3342 20.9329 17.9573 20.9551C18.4024 20.9774 19.3149 21.1999 19.8268 21.3335Z" fill="#1B1C1E" stroke="#1B1C1E" stroke-width="1.818" stroke-miterlimit="10" stroke-linecap="round" stroke-linejoin="round"/>
<path d="M25.2199 23.8273C25.3567 23.3935 25.2111 22.961 24.8946 22.8611C24.5781 22.7613 24.2106 23.0319 24.0737 23.4656C23.9369 23.8994 24.0825 24.3319 24.399 24.4318C24.7155 24.5316 25.083 24.261 25.2199 23.8273Z" fill="#1B1C1E"/>
<path d="M27.327 21.1331C26.9932 21.0218 26.192 20.8438 25.9026 21.1331C25.5465 21.4669 25.9917 22.0011 26.9264 22.2459C28.0169 22.513 28.6401 21.5782 27.327 21.1331Z" fill="white"/>
<path d="M33.0467 22.2014C32.7351 22.0233 32.3123 21.823 32.0229 21.3112C31.7336 20.7993 32.0229 20.2651 32.6016 19.6865C33.1802 19.1301 34.1372 18.4402 34.6491 18.952C35.1387 19.4417 34.8271 22.0233 34.4043 22.4017C34.1372 22.6687 33.336 22.3572 33.0467 22.2014Z" fill="#CC813E"/>
<path d="M17.8459 27.1866C17.8459 27.1866 18.4469 27.9879 19.6709 28.0991C20.7392 28.1882 21.2288 27.7208 21.2288 27.7208" stroke="#1B1C1E" stroke-width="1.2604" stroke-miterlimit="10" stroke-linecap="round" stroke-linejoin="round"/>
<path d="M34.2039 53.849C34.8493 52.1799 35.3834 50.9113 35.5169 50.6887" stroke="#1B1C1E" stroke-width="1.2604" stroke-miterlimit="10" stroke-linecap="round" stroke-linejoin="round"/>
<mask id="mask3_114_7130" style="mask-type:luminance" maskUnits="userSpaceOnUse" x="22" y="30" width="5" height="4">
<path d="M23.1429 33.485C23.0762 32.8619 22.5643 30.8589 22.4753 30.7031C22.453 30.6586 22.4307 30.6363 22.3862 30.5918C22.3862 30.5918 24.0999 31.571 25.9694 31.3262C27.0822 31.1927 25.2127 32.6393 23.1429 33.485Z" fill="white"/>
</mask>
<g mask="url(#mask3_114_7130)">
<g opacity="0.58">
<path d="M24.0108 31.0369C24.0108 31.0146 23.9885 30.9923 23.9885 30.9701L24.0108 31.0369Z" fill="#322015"/>
<path d="M22.8759 31.2817C22.8759 31.304 22.8536 31.2817 22.8759 31.2817Z" fill="#322015"/>
<path d="M22.9426 31.482C22.9426 31.4598 22.9426 31.4598 22.9426 31.4375C22.9426 31.4375 22.9649 31.4375 22.9426 31.482Z" fill="#322015"/>
<path d="M25.7913 31.4153C25.8135 31.4153 25.8135 31.4153 25.8358 31.4375C25.7913 31.4598 25.7913 31.4375 25.7913 31.4153Z" fill="#322015"/>
<path d="M23.2765 31.3486C23.321 31.1928 23.232 31.3263 23.2542 31.1705C23.2765 31.215 23.2765 31.2373 23.2987 31.1483C23.2987 31.0593 23.2542 31.1483 23.2765 31.0147L23.2987 31.0815C23.3433 31.0147 23.321 30.9035 23.3433 30.9257C23.3433 31.126 23.4545 30.859 23.4768 30.9035V30.8812L23.5436 30.7922C23.5436 30.7922 23.5436 30.8144 23.5436 30.8367C23.5881 30.7477 23.6326 30.6809 23.6548 30.7032C23.6548 30.8144 23.7661 30.7477 23.7884 30.859C23.7661 30.8367 23.7661 30.8144 23.7439 30.859L23.7216 30.9925C23.7661 30.9925 23.7439 30.8812 23.7661 30.948C23.7439 31.126 23.7216 30.948 23.6771 30.948C23.6771 30.9925 23.6993 31.037 23.6993 31.037C23.6548 31.037 23.5881 31.0815 23.5658 30.9035C23.5436 30.948 23.5436 31.0147 23.5436 31.037C23.5213 30.9257 23.499 31.126 23.4768 31.037C23.4545 31.1928 23.5436 31.126 23.5658 31.2373C23.6326 31.1038 23.6771 31.2373 23.7439 31.2818C23.7661 31.1705 23.7439 31.0593 23.7661 30.9925C23.8329 30.9257 23.8106 31.0593 23.8329 31.1483C23.8774 31.1038 23.8551 30.948 23.9219 30.948L23.8996 30.859C23.9664 30.6809 23.9219 30.9257 23.9442 30.9035C23.9219 30.948 23.9219 30.9925 23.8996 30.9925C23.8774 31.0593 23.8996 31.0815 23.9219 31.1038C23.9219 31.1928 23.9219 31.2818 23.9664 31.2373C23.9442 31.126 24.0109 31.1705 24.0109 31.126V31.1038C24.0332 31.1483 24.0554 31.126 24.0777 31.1483V31.126C24.0999 31.1705 24.0777 31.3041 24.1222 31.2818C24.1222 31.2373 24.0999 31.0815 24.1445 31.1038C24.1445 31.037 24.1222 31.0147 24.0777 31.037C24.1222 31.0147 24.1445 30.8812 24.0999 30.8812C24.1222 30.7922 24.1222 30.9257 24.1445 30.8812C24.1445 30.9035 24.1445 30.948 24.1445 30.9702C24.1667 30.8367 24.2112 30.9702 24.2112 31.0593L24.189 30.9925C24.1667 31.1038 24.2112 31.1705 24.189 31.2373C24.2335 31.0815 24.278 31.3263 24.3225 31.1928L24.3002 31.2818C24.3893 31.2373 24.4338 31.4376 24.5005 31.4821C24.4783 31.4376 24.5005 31.2373 24.4338 31.3041C24.5005 31.2818 24.4783 31.126 24.5005 31.037C24.5673 30.9702 24.5228 31.215 24.5228 31.2596L24.4783 31.215C24.5228 31.4376 24.6341 31.1705 24.7008 31.3263C24.7008 31.2818 24.6786 31.3041 24.6786 31.2818C24.7231 31.1705 24.7008 31.3041 24.7231 31.3486C24.7676 31.3263 24.8121 31.2818 24.7899 31.1483C24.8344 31.126 24.7899 31.2373 24.7899 31.2818V31.2596L24.8344 31.4153C24.8789 31.3708 24.9234 31.3041 24.9457 31.1705C25.0347 31.1928 24.9679 31.4821 25.0124 31.5266C25.0569 31.4599 25.0124 31.4153 25.0124 31.3708L25.0569 31.3931C25.0347 31.2373 24.9902 31.3263 25.0124 31.1483C25.0569 31.3263 25.0792 31.1928 25.1237 31.3263V31.3486C25.146 31.4599 25.2127 31.3931 25.235 31.4153C25.2127 31.3486 25.1905 31.3263 25.1682 31.3041C25.2127 31.2596 25.3018 31.3041 25.324 31.4599C25.3463 31.4376 25.3908 31.3708 25.3685 31.3041C25.4575 31.2818 25.3908 31.5266 25.4575 31.4821V31.3708C25.5243 31.1928 25.6133 31.5266 25.6801 31.3708V31.5044C25.7024 31.4376 25.7246 31.4153 25.7246 31.3486L25.6801 31.3041C25.7024 31.1928 25.7246 31.4153 25.7469 31.3263C25.7469 31.3708 25.7246 31.4599 25.7246 31.5044C25.5688 31.4376 25.413 31.6156 25.2572 31.4821C25.2572 31.4599 25.2795 31.4376 25.2572 31.4153C25.235 31.4599 25.2127 31.4153 25.2127 31.4821C25.1682 31.4599 25.1237 31.6157 25.1014 31.6157C25.0792 31.5266 25.0124 31.6602 25.0347 31.4821L25.0124 31.5934C25.0124 31.5266 25.0124 31.4599 24.9902 31.4153C24.9679 31.4376 24.9679 31.5044 24.9679 31.5266C24.8566 31.5934 24.7231 31.5711 24.6341 31.5044L24.6563 31.5934C24.6341 31.6379 24.5673 31.4376 24.5896 31.6602C24.5451 31.5711 24.4338 31.7047 24.456 31.5044C24.4115 31.7047 24.3225 31.5934 24.2557 31.5489C24.278 31.3708 24.189 31.5044 24.189 31.4153C24.1667 31.5489 24.2335 31.5711 24.2335 31.6602C24.189 31.4376 24.0109 31.7937 24.0109 31.4376C24.0109 31.4599 23.9887 31.4599 24.0109 31.4821C23.9887 31.4821 23.9664 31.5489 23.9442 31.5489C23.9442 31.4821 23.9664 31.4599 23.9442 31.4376C23.9219 31.4376 23.9219 31.5489 23.8996 31.5934C23.8551 31.5044 23.7661 31.4599 23.7884 31.3263C23.7661 31.3708 23.7439 31.4376 23.7439 31.4599C23.6771 31.3486 23.6548 31.4599 23.5881 31.3931C23.6103 31.3931 23.5881 31.5489 23.6326 31.4821C23.5658 31.6824 23.499 31.4376 23.4323 31.5266V31.3931C23.3878 31.3708 23.3655 31.4821 23.3878 31.5266C23.2987 31.5934 23.2765 31.5044 23.232 31.5044C23.232 31.5266 23.232 31.5489 23.232 31.5489H23.1429C23.1429 31.5266 23.1207 31.4376 23.1429 31.3708C23.232 31.3263 23.232 31.3708 23.2765 31.3486Z" fill="#322015"/>
<path d="M23.9886 30.8143C23.9663 30.8366 23.9663 30.8588 23.9663 30.8588C23.9663 30.8366 23.9886 30.8143 23.9886 30.8143Z" fill="#322015"/>
<path d="M22.5642 30.8812C22.631 30.7031 22.6088 30.9257 22.6533 30.8812C22.631 30.8366 22.6755 30.7254 22.6755 30.6809C22.6533 30.9257 22.7423 30.6363 22.7868 30.7031C22.8091 30.6141 22.7868 30.5918 22.7868 30.5028C22.8091 30.5696 22.8536 30.6141 22.8313 30.7699C22.8981 30.7921 22.9426 30.7476 22.9871 30.7699C22.9426 30.7031 23.0094 30.6363 23.0094 30.5028C23.0316 30.6809 23.0984 30.8812 23.1206 31.1037C23.1652 30.9479 23.1652 30.9479 23.1874 30.7921C23.2764 30.7031 23.1874 30.9479 23.2764 30.9034L23.2319 30.9257C23.2542 30.9702 23.2319 31.126 23.2319 31.215L23.1429 31.1705C23.1206 31.2818 23.1874 31.2595 23.1874 31.304C23.1874 31.4375 23.1206 31.393 23.1206 31.4821C23.1206 31.393 23.0761 31.4153 23.0539 31.3708L23.0316 31.4153C22.9871 31.4598 22.9871 31.3263 22.9426 31.304C22.9426 31.3263 22.9426 31.3263 22.9426 31.3485C22.9426 31.2818 22.9426 31.1927 22.9203 31.1705H22.9426C22.9426 31.0369 22.8758 30.9257 22.9649 30.7921L22.8758 30.8144C22.8536 30.9702 22.8313 31.1927 22.8758 31.215V31.2818C22.8091 31.3485 22.7868 31.1482 22.8313 31.0369C22.8758 30.6809 22.6978 30.9924 22.6533 30.8366C22.631 30.9257 22.6533 30.9702 22.6533 31.0369C22.6755 31.0592 22.6755 31.0592 22.6978 30.9702C22.7645 31.0369 22.6088 31.2595 22.72 31.2595C22.7868 31.215 22.6978 31.1037 22.7645 31.1037V31.3708C22.72 31.3485 22.6978 31.304 22.6533 31.2595C22.4975 31.0369 22.3194 31.1482 22.3194 31.1482C22.1859 31.1037 22.0301 31.0369 21.8966 30.9702C21.763 30.9034 21.6073 30.8366 21.4737 30.7476C21.407 30.6809 21.3624 30.6586 21.4515 30.4138C21.496 30.3693 21.5405 30.4138 21.5627 30.3248C21.5182 30.4138 21.5405 30.4806 21.585 30.5028C21.6295 30.4138 21.5627 30.436 21.585 30.436C21.6073 30.3915 21.6073 30.347 21.6073 30.347C21.7185 30.2357 21.7853 30.3025 21.7408 30.4806C21.8298 30.4138 21.763 30.3248 21.7853 30.258C21.9411 30.2357 22.0301 30.2803 22.1636 30.3248C22.1191 30.4806 22.1414 30.436 22.1191 30.5473L22.1414 30.4806C22.1191 30.5028 22.1191 30.6363 22.0746 30.6586C22.2082 30.5473 22.0969 30.9034 22.1414 30.9924L22.1636 30.9034C22.2082 30.9257 22.2304 30.9479 22.2527 30.9924C22.3862 30.8589 22.1859 30.9479 22.2749 30.7476L22.2972 30.7921C22.2972 30.7031 22.3417 30.5696 22.3194 30.5028C22.3417 30.6586 22.4307 30.4806 22.4752 30.6141C22.4975 30.5251 22.4307 30.4138 22.4307 30.4138C22.453 30.4138 22.4975 30.5028 22.5197 30.4138L22.4975 30.5251C22.542 30.5473 22.5197 30.4138 22.5642 30.347C22.6755 30.436 22.4752 30.7921 22.5642 30.8812Z" fill="#322015"/>
<path d="M23.7437 31.0369C23.7215 31.0369 23.7215 31.0369 23.6992 31.0146C23.7215 31.0146 23.7215 31.0146 23.7437 31.0369Z" fill="#322015"/>
<path d="M23.5435 30.5918C23.5212 30.6363 23.5435 30.6586 23.5435 30.7253C23.5435 30.6808 23.499 30.6808 23.5435 30.5918Z" fill="#322015"/>
<path d="M26.2141 31.1704L26.2809 31.0814C26.2809 30.9256 26.2364 31.0369 26.2141 30.9701C26.2809 30.9256 26.2586 30.9924 26.3031 31.0814C26.3254 31.0814 26.3476 31.1481 26.3699 31.1927C26.3031 31.0814 26.3254 31.4375 26.2141 31.1704Z" fill="#322015"/>
<path d="M26.0585 31.3485C26.014 31.5265 25.9695 31.2595 25.925 31.3262C25.925 31.3262 25.925 31.3485 25.9472 31.3707L25.9027 31.3485V31.393C25.9027 31.2817 25.8582 31.2372 25.8359 31.1704C25.8804 31.0592 25.8582 31.304 25.9027 31.1704C25.9027 31.1259 25.8804 31.0369 25.8804 31.0146C25.9027 31.0592 25.925 31.1259 25.925 31.1927C25.9472 31.215 25.9472 31.1482 25.9472 31.1037C25.9917 31.1704 25.9917 31.3262 26.0362 31.2817C26.0585 31.1927 26.014 31.1259 26.0585 31.1704C26.0362 31.3485 26.103 31.1482 26.1475 31.2372C26.192 31.1927 26.2143 31.1037 26.192 31.0369C26.192 31.1704 26.2365 31.2817 26.2811 31.3262L26.2143 31.215L26.192 31.3707C26.103 31.304 26.0808 31.3262 26.0585 31.3485Z" fill="#322015"/>
<path d="M25.8357 31.0146C25.8357 31.0146 25.8357 30.9924 25.8135 30.9924C25.8357 30.9701 25.8357 30.9924 25.8357 31.0146Z" fill="#322015"/>
<path d="M26.1697 30.9924L26.1475 30.9702L26.1697 30.9257V30.9924Z" fill="#322015"/>
<path d="M25.8135 30.9034C25.8135 30.9034 25.8357 30.948 25.8135 30.948V30.9034Z" fill="#322015"/>
<path d="M25.7691 30.9924L25.7469 31.0815L25.7246 31.0147L25.7691 30.9924Z" fill="#322015"/>
<path d="M24.8567 31.0592C24.8789 31.0147 24.8789 31.1037 24.8789 31.1927C24.8344 31.215 24.8789 31.1037 24.8567 31.0592Z" fill="#322015"/>
<path d="M24.3003 30.8812C24.3448 30.8144 24.3671 30.9257 24.3893 30.9257C24.3448 30.9702 24.3225 30.948 24.3003 30.8812Z" fill="#322015"/>
<path d="M24.1 30.5028C24.1 30.5473 24.1222 30.5473 24.1 30.5696V30.7699C24.0332 30.8144 24.0777 30.5918 24.1 30.5028Z" fill="#322015"/>
<path d="M23.8327 30.436L23.855 30.5028H23.8327C23.8327 30.5696 23.8327 30.6141 23.855 30.6808C23.8327 30.6586 23.8104 30.5696 23.8327 30.436Z" fill="#322015"/>
<path d="M23.8552 30.7253C23.8552 30.7031 23.8552 30.7031 23.8552 30.7253C23.8775 30.7253 23.8552 30.7031 23.8552 30.7253C23.8775 30.7476 23.8552 30.7476 23.8552 30.7253Z" fill="#322015"/>
<path d="M23.3877 30.5695L23.3655 30.6808C23.321 30.7031 23.2987 30.436 23.2319 30.614C23.2764 30.5473 23.2097 30.4805 23.2764 30.4583C23.2764 30.5695 23.3432 30.5918 23.3877 30.5695Z" fill="#322015"/>
<path d="M23.1652 30.7031C23.1652 30.7476 23.1429 30.7476 23.1429 30.7921C23.1207 30.7921 23.1207 30.7476 23.1429 30.7031C23.1207 30.8366 23.1652 30.6141 23.1652 30.7031Z" fill="#322015"/>
<path d="M22.9426 30.6363C22.9649 30.6363 22.9649 30.6586 22.9426 30.6808C22.8981 30.6586 22.9426 30.5473 22.9426 30.4583C23.0094 30.4137 22.9871 30.5918 22.9426 30.6363Z" fill="#322015"/>
<path d="M22.4084 31.3707C22.4307 31.2817 22.4752 31.3039 22.4752 31.3262C22.4752 31.3262 22.4307 31.3484 22.4084 31.3707Z" fill="#322015"/>
<path d="M22.6086 30.5918L22.6309 30.5696L22.6086 30.7254V30.5918Z" fill="#322015"/>
</g>
</g>
</g>
<defs>
<filter id="filter0_d_114_7130" x="15.8943" y="17.5" width="51.3022" height="49" filterUnits="userSpaceOnUse" color-interpolation-filters="sRGB">
<feFlood flood-opacity="0" result="BackgroundImageFix"/>
<feColorMatrix in="SourceAlpha" type="matrix" values="0 0 0 0 0 0 0 0 0 0 0 0 0 0 0 0 0 0 127 0" result="hardAlpha"/>
<feOffset dx="2" dy="2"/>
<feComposite in2="hardAlpha" operator="out"/>
<feColorMatrix type="matrix" values="0 0 0 0 0 0 0 0 0 0 0 0 0 0 0 0 0 0 0.16 0"/>
<feBlend mode="normal" in2="BackgroundImageFix" result="effect1_dropShadow_114_7130"/>
<feBlend mode="normal" in="SourceGraphic" in2="effect1_dropShadow_114_7130" result="shape"/>
</filter>
</defs>
</svg>
