<svg width="32" height="32" viewBox="0 0 32 32" fill="none" xmlns="http://www.w3.org/2000/svg">
<path d="M20.6629 29.841C20.8694 29.947 21.1095 29.9665 21.3304 29.8955C21.4398 29.8603 21.5412 29.8039 21.6288 29.7295C21.7164 29.6551 21.7885 29.5642 21.8409 29.462C21.8934 29.3598 21.9252 29.2482 21.9346 29.1337C21.9439 29.0191 21.9306 28.9039 21.8954 28.7945C21.8602 28.6851 21.8038 28.5837 21.7295 28.4961C21.6551 28.4085 21.5642 28.3365 21.4619 28.284L20.6629 29.841ZM21.4619 28.284C18.7539 26.894 17.6509 25.051 17.1849 23.015C16.6949 20.872 16.9059 18.575 16.9059 16.125H15.1559C15.1559 18.35 14.9299 21.006 15.4789 23.405C16.0519 25.911 17.4649 28.2 20.6629 29.841L21.4619 28.284Z" fill="#008463"/>
<path d="M16.0249 9.237C15.9299 6.756 15.5119 4.17 13.8909 2.812C11.6379 0.926 8.2189 2.953 8.7029 5.734C5.5629 5.406 3.4459 9.644 6.6089 11.641C8.1129 12.589 9.6529 12.887 11.4589 12.968C9.6319 13.07 8.0779 13.392 6.5589 14.35C3.3969 16.346 5.5129 20.584 8.6539 20.256C8.1689 23.037 11.4969 24.949 13.8409 23.178C15.2879 22.084 15.8109 20.199 15.9789 18.213C16.1669 20.199 16.7119 22.084 18.1589 23.178C20.5029 24.949 23.8299 23.038 23.3459 20.256C26.4859 20.584 28.6029 16.346 25.4399 14.35C23.9339 13.4 22.3659 13.075 20.5349 12.97C22.3649 12.893 23.9199 12.6 25.4399 11.64C28.6029 9.645 26.4869 5.406 23.3459 5.734C23.8299 2.954 20.4109 0.926 18.1589 2.812C16.5379 4.17 16.1189 6.756 16.0249 9.237Z" fill="#00D26A"/>
</svg>
