<svg width="32" height="32" viewBox="0 0 32 32" fill="none" xmlns="http://www.w3.org/2000/svg">
<path d="M16.682 31.2775C6.13586 31.2775 3.31811 20.2839 4.5918 13.0808C4.64724 12.7673 5.05818 12.677 5.23724 12.9402C5.79174 13.7552 6.28518 14.9324 7.10274 14.8302C8.33155 14.6766 9.18286 3.83362 16.4657 0.782685C16.6968 0.685873 16.9386 0.86956 16.9132 1.11881C16.5531 4.65212 18.6746 9.71056 22.433 9.71056C24.5875 9.71056 26.0616 7.99106 26.7982 6.26419C27.022 5.73962 27.7884 5.80575 27.9167 6.36144C29.2312 12.0541 32.7449 31.2775 16.682 31.2775Z" fill="#FF8F1F"/>
<path d="M12.9847 20.6767C13.2327 20.4683 13.6092 20.6113 13.6655 20.9303C13.7972 21.6767 14.2305 22.9596 15.6516 22.9596C17.3611 22.9596 18.5212 18.2556 18.8255 16.8721C18.8755 16.6445 19.0974 16.4899 19.3257 16.5364C23.5979 17.405 25.6751 31.2775 16.2818 31.2775C9.44354 31.2775 10.9927 22.3501 12.9847 20.6767ZM24.6585 5.65337C24.809 4.47574 22.6593 7.69668 22.6593 7.69668C22.6593 7.69668 24.2982 8.47081 24.6585 5.65337ZM2.99761 23.216C3.04292 22.7147 2.39798 21.3724 2.28379 21.9039C2.01048 23.1754 2.95229 23.7174 2.99761 23.216Z" fill="#FFB636"/>
<path d="M20.1985 21.7873C20.0383 21.1191 19.4638 22.671 19.536 23.3031C19.6082 23.9352 20.5817 23.3858 20.1985 21.7873Z" fill="#FFD469"/>
</svg>
