<svg width="29" height="46" viewBox="0 0 29 46" fill="none" xmlns="http://www.w3.org/2000/svg">
<g filter="url(#filter0_i_67_18)">
<path d="M14.6146 0.929116C18.8467 0.929116 22.2446 2.08888 24.8082 4.4084C27.4126 6.68722 28.7148 9.84096 28.7148 13.8696C28.7148 17.8575 27.433 20.9095 24.8693 23.0256C22.3056 25.101 18.9077 26.1386 14.6756 26.1386L14.4314 30.8387H6.92352L6.61832 20.4619H9.36512C12.9054 20.4619 15.6319 19.9939 17.5445 19.058C19.4571 18.1221 20.4134 16.4129 20.4134 13.9306C20.4134 12.1401 19.8843 10.7159 18.8263 9.65784C17.809 8.59981 16.4051 8.0708 14.6146 8.0708C12.7427 8.0708 11.2777 8.57946 10.2197 9.5968C9.20235 10.6141 8.69368 12.0181 8.69368 13.8086H0.6364C0.595707 11.3263 1.12472 9.10848 2.22344 7.1552C3.32216 5.20192 4.92955 3.67592 7.0456 2.5772C9.20235 1.47848 11.7253 0.929116 14.6146 0.929116ZM10.647 45.4273C9.10061 45.4273 7.81877 44.9593 6.80144 44.0234C5.8248 43.0467 5.33648 41.8463 5.33648 40.422C5.33648 38.9977 5.8248 37.8176 6.80144 36.8817C7.81877 35.905 9.10061 35.4167 10.647 35.4167C12.1526 35.4167 13.3938 35.905 14.3704 36.8817C15.347 37.8176 15.8354 38.9977 15.8354 40.422C15.8354 41.8463 15.347 43.0467 14.3704 44.0234C13.3938 44.9593 12.1526 45.4273 10.647 45.4273Z" fill="#5D5D5E"/>
</g>
<defs>
<filter id="filter0_i_67_18" x="0.575317" y="0.929108" width="28.1395" height="44.4982" filterUnits="userSpaceOnUse" color-interpolation-filters="sRGB">
<feFlood flood-opacity="0" result="BackgroundImageFix"/>
<feBlend mode="normal" in="SourceGraphic" in2="BackgroundImageFix" result="shape"/>
<feColorMatrix in="SourceAlpha" type="matrix" values="0 0 0 0 0 0 0 0 0 0 0 0 0 0 0 0 0 0 127 0" result="hardAlpha"/>
<feOffset/>
<feGaussianBlur stdDeviation="2"/>
<feComposite in2="hardAlpha" operator="arithmetic" k2="-1" k3="1"/>
<feColorMatrix type="matrix" values="0 0 0 0 0 0 0 0 0 0 0 0 0 0 0 0 0 0 0.1 0"/>
<feBlend mode="normal" in2="shape" result="effect1_innerShadow_67_18"/>
</filter>
</defs>
</svg>
