<svg width="32" height="32" viewBox="0 0 32 32" fill="none" xmlns="http://www.w3.org/2000/svg">
<path d="M16 31C24.2843 31 31 24.2843 31 16C31 7.71573 24.2843 1 16 1C7.71573 1 1 7.71573 1 16C1 24.2843 7.71573 31 16 31Z" fill="#FFDD67"/>
<path d="M10.25 14.8C11.6307 14.8 12.75 13.6807 12.75 12.3C12.75 10.9193 11.6307 9.8 10.25 9.8C8.86929 9.8 7.75 10.9193 7.75 12.3C7.75 13.6807 8.86929 14.8 10.25 14.8Z" fill="#664E27"/>
<path d="M21.75 14.8C23.1307 14.8 24.25 13.6807 24.25 12.3C24.25 10.9193 23.1307 9.8 21.75 9.8C20.3693 9.8 19.25 10.9193 19.25 12.3C19.25 13.6807 20.3693 14.8 21.75 14.8Z" fill="#664E27"/>
<path d="M24.05 18.5C21.9 21.55 19.3 22.3 16 22.3C12.7 22.3 10.1 21.55 7.95001 18.5C7.65001 18.1 6.85001 18.35 7.05001 18.95C8.20001 22.95 12.05 25.3 16.05 25.3C20.05 25.3 23.9 22.95 25.05 18.95C25.15 18.35 24.35 18.1 24.05 18.5Z" fill="#664E27"/>
</svg>
