<svg width="120" height="120" viewBox="0 0 120 120" fill="none" xmlns="http://www.w3.org/2000/svg">
<path d="M42 85L60 67L78 85L85 78L67 60L85 42L78 35L60 53L42 35L35 42L53 60L35 78L42 85ZM60 110C53.0833 110 46.5833 108.687 40.5 106.06C34.4167 103.433 29.125 99.8717 24.625 95.375C20.125 90.8783 16.5633 85.5867 13.94 79.5C11.3167 73.4133 10.0033 66.9133 10 60C9.99667 53.0867 11.31 46.5867 13.94 40.5C16.57 34.4133 20.1317 29.1217 24.625 24.625C29.1183 20.1283 34.41 16.5667 40.5 13.94C46.59 11.3133 53.09 10 60 10C66.91 10 73.41 11.3133 79.5 13.94C85.59 16.5667 90.8817 20.1283 95.375 24.625C99.8683 29.1217 103.432 34.4133 106.065 40.5C108.698 46.5867 110.01 53.0867 110 60C109.99 66.9133 108.677 73.4133 106.06 79.5C103.443 85.5867 99.8817 90.8783 95.375 95.375C90.8683 99.8717 85.5767 103.435 79.5 106.065C73.4233 108.695 66.9233 110.007 60 110ZM60 100C71.1667 100 80.625 96.125 88.375 88.375C96.125 80.625 100 71.1667 100 60C100 48.8333 96.125 39.375 88.375 31.625C80.625 23.875 71.1667 20 60 20C48.8333 20 39.375 23.875 31.625 31.625C23.875 39.375 20 48.8333 20 60C20 71.1667 23.875 80.625 31.625 88.375C39.375 96.125 48.8333 100 60 100Z" fill="#FF7E56"/>
<g clip-path="url(#clip0_69_88)">
<mask id="mask0_69_88" style="mask-type:luminance" maskUnits="userSpaceOnUse" x="60" y="5" width="64" height="115">
<rect x="60" y="5" width="64" height="115" fill="white"/>
</mask>
<g mask="url(#mask0_69_88)">
<path d="M42 85L60 67L78 85L85 78L67 60L85 42L78 35L60 53L42 35L35 42L53 60L35 78L42 85ZM60 110C53.0833 110 46.5833 108.687 40.5 106.06C34.4167 103.433 29.125 99.8717 24.625 95.375C20.125 90.8783 16.5633 85.5867 13.94 79.5C11.3167 73.4133 10.0033 66.9133 10 60C9.99667 53.0867 11.31 46.5867 13.94 40.5C16.57 34.4133 20.1317 29.1217 24.625 24.625C29.1183 20.1283 34.41 16.5667 40.5 13.94C46.59 11.3133 53.09 10 60 10C66.91 10 73.41 11.3133 79.5 13.94C85.59 16.5667 90.8817 20.1283 95.375 24.625C99.8683 29.1217 103.432 34.4133 106.065 40.5C108.698 46.5867 110.01 53.0867 110 60C109.99 66.9133 108.677 73.4133 106.06 79.5C103.443 85.5867 99.8817 90.8783 95.375 95.375C90.8683 99.8717 85.5767 103.435 79.5 106.065C73.4233 108.695 66.9233 110.007 60 110ZM60 100C71.1667 100 80.625 96.125 88.375 88.375C96.125 80.625 100 71.1667 100 60C100 48.8333 96.125 39.375 88.375 31.625C80.625 23.875 71.1667 20 60 20C48.8333 20 39.375 23.875 31.625 31.625C23.875 39.375 20 48.8333 20 60C20 71.1667 23.875 80.625 31.625 88.375C39.375 96.125 48.8333 100 60 100Z" fill="#C35F40"/>
</g>
</g>
<defs>
<clipPath id="clip0_69_88">
<rect width="120" height="120" fill="white"/>
</clipPath>
</defs>
</svg>
