<svg width="57" height="46" viewBox="0 0 57 46" fill="none" xmlns="http://www.w3.org/2000/svg">
<g filter="url(#filter0_i_103_986)">
<path d="M0.19744 9.376V1.50184H14.9081V46H6.11832V9.376H0.19744ZM23.3502 23.171C23.3502 16.1311 24.6117 10.6171 27.1347 6.6292C29.6984 2.64125 33.9305 0.647277 39.831 0.647277C45.7315 0.647277 49.9433 2.64125 52.4663 6.6292C55.03 10.6171 56.3118 16.1311 56.3118 23.171C56.3118 30.2517 55.03 35.8063 52.4663 39.835C49.9433 43.8636 45.7315 45.8779 39.831 45.8779C33.9305 45.8779 29.6984 43.8636 27.1347 39.835C24.6117 35.8063 23.3502 30.2517 23.3502 23.171ZM47.8883 23.171C47.8883 20.1597 47.6848 17.6367 47.2779 15.6021C46.9116 13.5267 46.1385 11.8379 44.9584 10.5358C43.8189 9.23357 42.1098 8.58248 39.831 8.58248C37.5522 8.58248 35.8227 9.23357 34.6426 10.5358C33.5032 11.8379 32.73 13.5267 32.3231 15.6021C31.9568 17.6367 31.7737 20.1597 31.7737 23.171C31.7737 26.2637 31.9568 28.8681 32.3231 30.9842C32.6893 33.0595 33.4625 34.7483 34.6426 36.0505C35.8227 37.312 37.5522 37.9427 39.831 37.9427C42.1098 37.9427 43.8393 37.312 45.0194 36.0505C46.1995 34.7483 46.9727 33.0595 47.3389 30.9842C47.7052 28.8681 47.8883 26.2637 47.8883 23.171Z" fill="#030100" fill-opacity="0.24"/>
</g>
<defs>
<filter id="filter0_i_103_986" x="0.197388" y="0.647217" width="56.1144" height="45.3528" filterUnits="userSpaceOnUse" color-interpolation-filters="sRGB">
<feFlood flood-opacity="0" result="BackgroundImageFix"/>
<feBlend mode="normal" in="SourceGraphic" in2="BackgroundImageFix" result="shape"/>
<feColorMatrix in="SourceAlpha" type="matrix" values="0 0 0 0 0 0 0 0 0 0 0 0 0 0 0 0 0 0 127 0" result="hardAlpha"/>
<feOffset/>
<feGaussianBlur stdDeviation="2"/>
<feComposite in2="hardAlpha" operator="arithmetic" k2="-1" k3="1"/>
<feColorMatrix type="matrix" values="0 0 0 0 0 0 0 0 0 0 0 0 0 0 0 0 0 0 0.1 0"/>
<feBlend mode="normal" in2="shape" result="effect1_innerShadow_103_986"/>
</filter>
</defs>
</svg>
