<svg width="54" height="46" viewBox="0 0 54 46" fill="none" xmlns="http://www.w3.org/2000/svg">
<g filter="url(#filter0_i_103_990)">
<path d="M0.19744 9.376V1.50184H14.9081V46H6.11832V9.376H0.19744ZM26.036 36.3557C29.9425 33.1002 33.0556 30.3941 35.3751 28.2374C37.6946 26.0399 39.6275 23.7611 41.1739 21.4009C42.7202 19.0407 43.4934 16.7211 43.4934 14.4423C43.4934 12.367 43.0051 10.7392 42.0284 9.55912C41.0518 8.37901 39.5461 7.78896 37.5115 7.78896C35.4768 7.78896 33.9101 8.48074 32.8114 9.86432C31.7127 11.2072 31.143 13.0587 31.1023 15.419H22.8008C22.9636 10.5358 24.4082 6.83266 27.1347 4.30968C29.9018 1.78669 33.4015 0.525195 37.6336 0.525195C42.2726 0.525195 45.8333 1.76634 48.3156 4.24864C50.7979 6.69024 52.039 9.92536 52.039 13.954C52.039 17.1281 51.1844 20.1597 49.4753 23.049C47.7662 25.9382 45.8129 28.4612 43.6155 30.6179C41.418 32.734 38.5492 35.2977 35.0088 38.309H53.0156V45.3896H22.8619V39.0414L26.036 36.3557Z" fill="#030100" fill-opacity="0.24"/>
</g>
<defs>
<filter id="filter0_i_103_990" x="0.197388" y="0.525146" width="52.8182" height="45.4749" filterUnits="userSpaceOnUse" color-interpolation-filters="sRGB">
<feFlood flood-opacity="0" result="BackgroundImageFix"/>
<feBlend mode="normal" in="SourceGraphic" in2="BackgroundImageFix" result="shape"/>
<feColorMatrix in="SourceAlpha" type="matrix" values="0 0 0 0 0 0 0 0 0 0 0 0 0 0 0 0 0 0 127 0" result="hardAlpha"/>
<feOffset/>
<feGaussianBlur stdDeviation="2"/>
<feComposite in2="hardAlpha" operator="arithmetic" k2="-1" k3="1"/>
<feColorMatrix type="matrix" values="0 0 0 0 0 0 0 0 0 0 0 0 0 0 0 0 0 0 0.1 0"/>
<feBlend mode="normal" in2="shape" result="effect1_innerShadow_103_990"/>
</filter>
</defs>
</svg>
