<svg width="54" height="47" viewBox="0 0 54 47" fill="none" xmlns="http://www.w3.org/2000/svg">
<g filter="url(#filter0_i_103_992)">
<path d="M0.19744 9.376V1.50184H14.9081V46H6.11832V9.376H0.19744ZM23.4723 13.2215C23.6757 9.15219 25.1 6.0188 27.7451 3.82136C30.4308 1.58322 33.9508 0.464156 38.305 0.464156C41.2756 0.464156 43.8189 0.99317 45.935 2.0512C48.0511 3.06853 49.6381 4.47245 50.6961 6.26296C51.7948 8.01277 52.3442 10.0067 52.3442 12.2449C52.3442 14.8086 51.6728 16.9857 50.3299 18.7762C49.0277 20.526 47.461 21.7061 45.6298 22.3165V22.5606C47.99 23.2931 49.8212 24.5953 51.1234 26.4672C52.4663 28.3391 53.1377 30.74 53.1377 33.6699C53.1377 36.1115 52.568 38.2886 51.4286 40.2012C50.3299 42.1138 48.6818 43.6194 46.4844 44.7182C44.3276 45.7762 41.7232 46.3052 38.6712 46.3052C34.0729 46.3052 30.3291 45.1454 27.4399 42.8259C24.5507 40.5064 23.0247 37.0882 22.8619 32.5712H31.1633C31.2447 34.5652 31.9161 36.1726 33.1776 37.3934C34.4798 38.5735 36.25 39.1635 38.4881 39.1635C40.5635 39.1635 42.1505 38.5938 43.2492 37.4544C44.3887 36.2743 44.9584 34.7686 44.9584 32.9374C44.9584 30.4958 44.1852 28.746 42.6388 27.688C41.0925 26.63 38.6916 26.101 35.4361 26.101H33.666V19.0814H35.4361C41.2146 19.0814 44.1038 17.1484 44.1038 13.2826C44.1038 11.5327 43.5748 10.1695 42.5168 9.19288C41.4994 8.21624 40.0141 7.72792 38.0608 7.72792C36.1483 7.72792 34.6629 8.25693 33.6049 9.31496C32.5876 10.3323 31.9975 11.6345 31.8348 13.2215H23.4723Z" fill="#030100" fill-opacity="0.24"/>
</g>
<defs>
<filter id="filter0_i_103_992" x="0.197388" y="0.464111" width="52.9403" height="45.8411" filterUnits="userSpaceOnUse" color-interpolation-filters="sRGB">
<feFlood flood-opacity="0" result="BackgroundImageFix"/>
<feBlend mode="normal" in="SourceGraphic" in2="BackgroundImageFix" result="shape"/>
<feColorMatrix in="SourceAlpha" type="matrix" values="0 0 0 0 0 0 0 0 0 0 0 0 0 0 0 0 0 0 127 0" result="hardAlpha"/>
<feOffset/>
<feGaussianBlur stdDeviation="2"/>
<feComposite in2="hardAlpha" operator="arithmetic" k2="-1" k3="1"/>
<feColorMatrix type="matrix" values="0 0 0 0 0 0 0 0 0 0 0 0 0 0 0 0 0 0 0.1 0"/>
<feBlend mode="normal" in2="shape" result="effect1_innerShadow_103_992"/>
</filter>
</defs>
</svg>
