<svg width="56" height="47" viewBox="0 0 56 47" fill="none" xmlns="http://www.w3.org/2000/svg">
<g filter="url(#filter0_i_103_998)">
<path d="M0.19744 9.376V1.50184H14.9081V46H6.11832V9.376H0.19744ZM46.4233 12.6111C46.0164 10.902 45.3043 9.62016 44.2869 8.7656C43.3103 7.91104 41.886 7.48376 40.0141 7.48376C37.2063 7.48376 35.1309 8.62317 33.788 10.902C32.4859 13.1401 31.8144 16.8025 31.7737 21.8892C32.7504 20.2615 34.1746 19 36.0465 18.1047C37.9184 17.1688 39.9531 16.7008 42.1505 16.7008C44.7956 16.7008 47.1355 17.2705 49.1701 18.4099C51.2048 19.5493 52.7918 21.2178 53.9312 23.4152C55.0707 25.5719 55.6404 28.1763 55.6404 31.2283C55.6404 34.1175 55.0503 36.7016 53.8702 38.9804C52.7308 41.2185 51.042 42.9683 48.8039 44.2298C46.5657 45.4913 43.9003 46.1221 40.8076 46.1221C36.5755 46.1221 33.2387 45.1861 30.7971 43.3142C28.3962 41.4423 26.7074 38.838 25.7308 35.5011C24.7948 32.1236 24.3268 27.9729 24.3268 23.049C24.3268 15.6021 25.6087 9.9864 28.1724 6.20192C30.736 2.37674 34.785 0.464156 40.3193 0.464156C44.5921 0.464156 47.9086 1.62392 50.2688 3.94344C52.6291 6.26296 53.9923 9.15218 54.3585 12.6111H46.4233ZM40.1972 23.7204C38.0405 23.7204 36.2296 24.3511 34.7647 25.6126C33.2997 26.8741 32.5672 28.7053 32.5672 31.1062C32.5672 33.5071 33.2387 35.3994 34.5816 36.783C35.9651 38.1665 37.8981 38.8583 40.3804 38.8583C42.5778 38.8583 44.3073 38.1869 45.5688 36.844C46.8709 35.5011 47.522 33.6903 47.522 31.4114C47.522 29.0512 46.8913 27.1793 45.6298 25.7958C44.409 24.4122 42.5981 23.7204 40.1972 23.7204Z" fill="#030100" fill-opacity="0.24"/>
</g>
<defs>
<filter id="filter0_i_103_998" x="0.197388" y="0.464111" width="55.443" height="45.658" filterUnits="userSpaceOnUse" color-interpolation-filters="sRGB">
<feFlood flood-opacity="0" result="BackgroundImageFix"/>
<feBlend mode="normal" in="SourceGraphic" in2="BackgroundImageFix" result="shape"/>
<feColorMatrix in="SourceAlpha" type="matrix" values="0 0 0 0 0 0 0 0 0 0 0 0 0 0 0 0 0 0 127 0" result="hardAlpha"/>
<feOffset/>
<feGaussianBlur stdDeviation="2"/>
<feComposite in2="hardAlpha" operator="arithmetic" k2="-1" k3="1"/>
<feColorMatrix type="matrix" values="0 0 0 0 0 0 0 0 0 0 0 0 0 0 0 0 0 0 0.1 0"/>
<feBlend mode="normal" in2="shape" result="effect1_innerShadow_103_998"/>
</filter>
</defs>
</svg>
