<svg width="56" height="47" viewBox="0 0 56 47" fill="none" xmlns="http://www.w3.org/2000/svg">
<g filter="url(#filter0_i_103_1002)">
<path d="M0.19744 9.376V1.50184H14.9081V46H6.11832V9.376H0.19744ZM30.7971 22.4386C26.7277 20.3225 24.6931 17.0467 24.6931 12.6111C24.6931 10.4137 25.2424 8.4197 26.3412 6.6292C27.4806 4.798 29.1693 3.35338 31.4075 2.29536C33.6863 1.19664 36.4535 0.647277 39.7089 0.647277C42.9644 0.647277 45.7112 1.19664 47.9493 2.29536C50.2281 3.35338 51.9169 4.798 53.0156 6.6292C54.1551 8.4197 54.7248 10.4137 54.7248 12.6111C54.7248 14.8493 54.1754 16.8229 53.0767 18.532C51.978 20.2004 50.513 21.5026 48.6818 22.4386C50.9199 23.4152 52.6697 24.8395 53.9312 26.7114C55.1927 28.5833 55.8235 30.801 55.8235 33.3647C55.8235 36.1319 55.1113 38.5531 53.6871 40.6285C52.3035 42.6631 50.3909 44.2298 47.9493 45.3286C45.5077 46.4273 42.7609 46.9766 39.7089 46.9766C36.6569 46.9766 33.9101 46.4273 31.4685 45.3286C29.0676 44.2298 27.155 42.6631 25.7308 40.6285C24.3472 38.5531 23.6554 36.1319 23.6554 33.3647C23.6554 30.801 24.2861 28.5833 25.5476 26.7114C26.8091 24.7988 28.5589 23.3745 30.7971 22.4386ZM46.4233 13.8319C46.4233 11.8379 45.8129 10.2916 44.5921 9.19288C43.412 8.09416 41.7843 7.5448 39.7089 7.5448C37.6743 7.5448 36.0465 8.09416 34.8257 9.19288C33.6456 10.2916 33.0556 11.8583 33.0556 13.893C33.0556 15.7242 33.666 17.1891 34.8868 18.2878C36.1483 19.3866 37.7556 19.9359 39.7089 19.9359C41.6622 19.9359 43.2696 19.3866 44.5311 18.2878C45.7926 17.1484 46.4233 15.6631 46.4233 13.8319ZM39.7089 26.162C37.3894 26.162 35.4972 26.7521 34.0322 27.9322C32.6079 29.1123 31.8958 30.801 31.8958 32.9985C31.8958 35.0331 32.5876 36.7016 33.9712 38.0038C35.3954 39.2653 37.308 39.896 39.7089 39.896C42.1098 39.896 44.0021 39.2449 45.3856 37.9427C46.7692 36.6405 47.461 34.9925 47.461 32.9985C47.461 30.8417 46.7489 29.1733 45.3246 27.9932C43.9003 26.7724 42.0284 26.162 39.7089 26.162Z" fill="#030100" fill-opacity="0.24"/>
</g>
<defs>
<filter id="filter0_i_103_1002" x="0.197388" y="0.647339" width="55.6261" height="46.3293" filterUnits="userSpaceOnUse" color-interpolation-filters="sRGB">
<feFlood flood-opacity="0" result="BackgroundImageFix"/>
<feBlend mode="normal" in="SourceGraphic" in2="BackgroundImageFix" result="shape"/>
<feColorMatrix in="SourceAlpha" type="matrix" values="0 0 0 0 0 0 0 0 0 0 0 0 0 0 0 0 0 0 127 0" result="hardAlpha"/>
<feOffset/>
<feGaussianBlur stdDeviation="2"/>
<feComposite in2="hardAlpha" operator="arithmetic" k2="-1" k3="1"/>
<feColorMatrix type="matrix" values="0 0 0 0 0 0 0 0 0 0 0 0 0 0 0 0 0 0 0.1 0"/>
<feBlend mode="normal" in2="shape" result="effect1_innerShadow_103_1002"/>
</filter>
</defs>
</svg>
