<svg width="55" height="47" viewBox="0 0 55 47" fill="none" xmlns="http://www.w3.org/2000/svg">
<g filter="url(#filter0_i_103_1004)">
<path d="M0.19744 9.376V1.50184H14.9081V46H6.11832V9.376H0.19744ZM33.2387 33.4868C33.5642 35.2773 34.2967 36.6609 35.4361 37.6375C36.6162 38.5735 38.1829 39.0414 40.1362 39.0414C42.6592 39.0414 44.4904 38.0038 45.6298 35.9284C46.7692 33.8123 47.3389 30.272 47.3389 25.3074C46.403 26.6096 45.0804 27.627 43.3713 28.3594C41.7029 29.0919 39.892 29.4582 37.9388 29.4582C35.3344 29.4582 32.9742 28.9291 30.8581 27.8711C28.7828 26.7724 27.1347 25.165 25.9139 23.049C24.6931 20.8922 24.0827 18.2878 24.0827 15.2358C24.0827 10.7189 25.4256 7.13787 28.1113 4.4928C30.7971 1.80704 34.4595 0.464156 39.0985 0.464156C44.877 0.464156 48.9463 2.3157 51.3065 6.0188C53.7074 9.72189 54.9079 15.2969 54.9079 22.7438C54.9079 28.0339 54.4399 32.3677 53.504 35.7453C52.6087 39.1228 51.042 41.6865 48.8039 43.4363C46.6064 45.1861 43.5951 46.061 39.77 46.061C36.7587 46.061 34.195 45.4913 32.0789 44.3519C29.9629 43.1718 28.3351 41.6458 27.1957 39.7739C26.097 37.8613 25.4663 35.7656 25.3035 33.4868H33.2387ZM39.7089 22.4996C41.825 22.4996 43.4934 21.8485 44.7142 20.5463C45.935 19.2441 46.5454 17.4943 46.5454 15.2969C46.5454 12.896 45.8943 11.0444 44.5921 9.74224C43.3306 8.39936 41.6012 7.72792 39.4037 7.72792C37.2063 7.72792 35.4565 8.4197 34.1543 9.80328C32.8928 11.1462 32.262 12.9367 32.262 15.1748C32.262 17.3315 32.8724 19.1017 34.0932 20.4853C35.3547 21.8282 37.2266 22.4996 39.7089 22.4996Z" fill="#030100" fill-opacity="0.24"/>
</g>
<defs>
<filter id="filter0_i_103_1004" x="0.197449" y="0.464111" width="54.7104" height="45.5969" filterUnits="userSpaceOnUse" color-interpolation-filters="sRGB">
<feFlood flood-opacity="0" result="BackgroundImageFix"/>
<feBlend mode="normal" in="SourceGraphic" in2="BackgroundImageFix" result="shape"/>
<feColorMatrix in="SourceAlpha" type="matrix" values="0 0 0 0 0 0 0 0 0 0 0 0 0 0 0 0 0 0 127 0" result="hardAlpha"/>
<feOffset/>
<feGaussianBlur stdDeviation="2"/>
<feComposite in2="hardAlpha" operator="arithmetic" k2="-1" k3="1"/>
<feColorMatrix type="matrix" values="0 0 0 0 0 0 0 0 0 0 0 0 0 0 0 0 0 0 0.1 0"/>
<feBlend mode="normal" in2="shape" result="effect1_innerShadow_103_1004"/>
</filter>
</defs>
</svg>
