<svg width="70" height="46" viewBox="0 0 70 46" fill="none" xmlns="http://www.w3.org/2000/svg">
<g filter="url(#filter0_i_103_1006)">
<path d="M3.92088 36.3557C7.82744 33.1002 10.9405 30.3941 13.26 28.2374C15.5795 26.0399 17.5125 23.7611 19.0588 21.4009C20.6051 19.0407 21.3783 16.7211 21.3783 14.4423C21.3783 12.367 20.89 10.7392 19.9134 9.55912C18.9367 8.37901 17.4311 7.78896 15.3964 7.78896C13.3617 7.78896 11.795 8.48074 10.6963 9.86432C9.5976 11.2072 9.02789 13.0587 8.9872 15.419H0.68576C0.848533 10.5358 2.29315 6.83266 5.0196 4.30968C7.78675 1.78669 11.2864 0.525195 15.5185 0.525195C20.1575 0.525195 23.7182 1.76634 26.2005 4.24864C28.6828 6.69024 29.9239 9.92536 29.9239 13.954C29.9239 17.1281 29.0694 20.1597 27.3602 23.049C25.6511 25.9382 23.6978 28.4612 21.5004 30.6179C19.303 32.734 16.4341 35.2977 12.8938 38.309H30.9006V45.3896H0.7468V39.0414L3.92088 36.3557ZM36.2854 23.171C36.2854 16.1311 37.5469 10.6171 40.0699 6.6292C42.6336 2.64125 46.8657 0.647277 52.7662 0.647277C58.6668 0.647277 62.8785 2.64125 65.4015 6.6292C67.9652 10.6171 69.247 16.1311 69.247 23.171C69.247 30.2517 67.9652 35.8063 65.4015 39.835C62.8785 43.8636 58.6668 45.8779 52.7662 45.8779C46.8657 45.8779 42.6336 43.8636 40.0699 39.835C37.5469 35.8063 36.2854 30.2517 36.2854 23.171ZM60.8235 23.171C60.8235 20.1597 60.62 17.6367 60.2131 15.6021C59.8469 13.5267 59.0737 11.8379 57.8936 10.5358C56.7542 9.23357 55.0451 8.58248 52.7662 8.58248C50.4874 8.58248 48.7579 9.23357 47.5778 10.5358C46.4384 11.8379 45.6652 13.5267 45.2583 15.6021C44.8921 17.6367 44.709 20.1597 44.709 23.171C44.709 26.2637 44.8921 28.8681 45.2583 30.9842C45.6246 33.0595 46.3977 34.7483 47.5778 36.0505C48.7579 37.312 50.4874 37.9427 52.7662 37.9427C55.0451 37.9427 56.7745 37.312 57.9546 36.0505C59.1347 34.7483 59.9079 33.0595 60.2742 30.9842C60.6404 28.8681 60.8235 26.2637 60.8235 23.171Z" fill="#030100" fill-opacity="0.24"/>
</g>
<defs>
<filter id="filter0_i_103_1006" x="0.68573" y="0.525146" width="68.5613" height="45.3528" filterUnits="userSpaceOnUse" color-interpolation-filters="sRGB">
<feFlood flood-opacity="0" result="BackgroundImageFix"/>
<feBlend mode="normal" in="SourceGraphic" in2="BackgroundImageFix" result="shape"/>
<feColorMatrix in="SourceAlpha" type="matrix" values="0 0 0 0 0 0 0 0 0 0 0 0 0 0 0 0 0 0 127 0" result="hardAlpha"/>
<feOffset/>
<feGaussianBlur stdDeviation="2"/>
<feComposite in2="hardAlpha" operator="arithmetic" k2="-1" k3="1"/>
<feColorMatrix type="matrix" values="0 0 0 0 0 0 0 0 0 0 0 0 0 0 0 0 0 0 0.1 0"/>
<feBlend mode="normal" in2="shape" result="effect1_innerShadow_103_1006"/>
</filter>
</defs>
</svg>
