<svg width="67" height="47" viewBox="0 0 67 47" fill="none" xmlns="http://www.w3.org/2000/svg">
<g filter="url(#filter0_i_103_1012)">
<path d="M3.92088 36.3557C7.82744 33.1002 10.9405 30.3941 13.26 28.2374C15.5795 26.0399 17.5125 23.7611 19.0588 21.4009C20.6051 19.0407 21.3783 16.7211 21.3783 14.4423C21.3783 12.367 20.89 10.7392 19.9134 9.55912C18.9367 8.37901 17.4311 7.78896 15.3964 7.78896C13.3617 7.78896 11.795 8.48074 10.6963 9.86432C9.5976 11.2072 9.02789 13.0587 8.9872 15.419H0.68576C0.848533 10.5358 2.29315 6.83266 5.0196 4.30968C7.78675 1.78669 11.2864 0.525195 15.5185 0.525195C20.1575 0.525195 23.7182 1.76634 26.2005 4.24864C28.6828 6.69024 29.9239 9.92536 29.9239 13.954C29.9239 17.1281 29.0694 20.1597 27.3602 23.049C25.6511 25.9382 23.6978 28.4612 21.5004 30.6179C19.303 32.734 16.4341 35.2977 12.8938 38.309H30.9006V45.3896H0.7468V39.0414L3.92088 36.3557ZM36.4075 13.2215C36.611 9.15219 38.0352 6.0188 40.6803 3.82136C43.3661 1.58322 46.886 0.464156 51.2402 0.464156C54.2108 0.464156 56.7542 0.99317 58.8702 2.0512C60.9863 3.06853 62.5733 4.47245 63.6314 6.26296C64.7301 8.01277 65.2794 10.0067 65.2794 12.2449C65.2794 14.8086 64.608 16.9857 63.2651 18.7762C61.9629 20.526 60.3962 21.7061 58.565 22.3165V22.5606C60.9252 23.2931 62.7564 24.5953 64.0586 26.4672C65.4015 28.3391 66.073 30.74 66.073 33.6699C66.073 36.1115 65.5032 38.2886 64.3638 40.2012C63.2651 42.1138 61.617 43.6194 59.4196 44.7182C57.2628 45.7762 54.6585 46.3052 51.6065 46.3052C47.0081 46.3052 43.2643 45.1454 40.3751 42.8259C37.4859 40.5064 35.9599 37.0882 35.7971 32.5712H44.0986C44.1799 34.5652 44.8514 36.1726 46.1129 37.3934C47.4151 38.5735 49.1852 39.1635 51.4234 39.1635C53.4987 39.1635 55.0858 38.5938 56.1845 37.4544C57.3239 36.2743 57.8936 34.7686 57.8936 32.9374C57.8936 30.4958 57.1204 28.746 55.5741 27.688C54.0277 26.63 51.6268 26.101 48.3714 26.101H46.6012V19.0814H48.3714C54.1498 19.0814 57.039 17.1484 57.039 13.2826C57.039 11.5327 56.51 10.1695 55.452 9.19288C54.4347 8.21624 52.9494 7.72792 50.9961 7.72792C49.0835 7.72792 47.5982 8.25693 46.5402 9.31496C45.5228 10.3323 44.9328 11.6345 44.77 13.2215H36.4075Z" fill="#030100" fill-opacity="0.24"/>
</g>
<defs>
<filter id="filter0_i_103_1012" x="0.68573" y="0.464111" width="65.3872" height="45.8411" filterUnits="userSpaceOnUse" color-interpolation-filters="sRGB">
<feFlood flood-opacity="0" result="BackgroundImageFix"/>
<feBlend mode="normal" in="SourceGraphic" in2="BackgroundImageFix" result="shape"/>
<feColorMatrix in="SourceAlpha" type="matrix" values="0 0 0 0 0 0 0 0 0 0 0 0 0 0 0 0 0 0 127 0" result="hardAlpha"/>
<feOffset/>
<feGaussianBlur stdDeviation="2"/>
<feComposite in2="hardAlpha" operator="arithmetic" k2="-1" k3="1"/>
<feColorMatrix type="matrix" values="0 0 0 0 0 0 0 0 0 0 0 0 0 0 0 0 0 0 0.1 0"/>
<feBlend mode="normal" in2="shape" result="effect1_innerShadow_103_1012"/>
</filter>
</defs>
</svg>
