<svg width="32" height="47" viewBox="0 0 32 47" fill="none" xmlns="http://www.w3.org/2000/svg">
<g filter="url(#filter0_i_103_973)">
<path d="M1.3572 13.2215C1.56067 9.15219 2.98493 6.0188 5.63 3.82136C8.31576 1.58322 11.8357 0.464156 16.1899 0.464156C19.1605 0.464156 21.7039 0.99317 23.8199 2.0512C25.936 3.06853 27.523 4.47245 28.581 6.26296C29.6798 8.01277 30.2291 10.0067 30.2291 12.2449C30.2291 14.8086 29.5577 16.9857 28.2148 18.7762C26.9126 20.526 25.3459 21.7061 23.5147 22.3165V22.5606C25.8749 23.2931 27.7061 24.5953 29.0083 26.4672C30.3512 28.3391 31.0226 30.74 31.0226 33.6699C31.0226 36.1115 30.4529 38.2886 29.3135 40.2012C28.2148 42.1138 26.5667 43.6194 24.3693 44.7182C22.2125 45.7762 19.6082 46.3052 16.5562 46.3052C11.9578 46.3052 8.21403 45.1454 5.3248 42.8259C2.43557 40.5064 0.909574 37.0882 0.7468 32.5712H9.04824C9.12963 34.5652 9.80107 36.1726 11.0626 37.3934C12.3647 38.5735 14.1349 39.1635 16.373 39.1635C18.4484 39.1635 20.0354 38.5938 21.1342 37.4544C22.2736 36.2743 22.8433 34.7686 22.8433 32.9374C22.8433 30.4958 22.0701 28.746 20.5238 27.688C18.9774 26.63 16.5765 26.101 13.321 26.101H11.5509V19.0814H13.321C19.0995 19.0814 21.9887 17.1484 21.9887 13.2826C21.9887 11.5327 21.4597 10.1695 20.4017 9.19288C19.3843 8.21624 17.899 7.72792 15.9458 7.72792C14.0332 7.72792 12.5479 8.25693 11.4898 9.31496C10.4725 10.3323 9.88245 11.6345 9.71968 13.2215H1.3572Z" fill="#030100" fill-opacity="0.24"/>
</g>
<defs>
<filter id="filter0_i_103_973" x="0.746826" y="0.464111" width="30.2759" height="45.8411" filterUnits="userSpaceOnUse" color-interpolation-filters="sRGB">
<feFlood flood-opacity="0" result="BackgroundImageFix"/>
<feBlend mode="normal" in="SourceGraphic" in2="BackgroundImageFix" result="shape"/>
<feColorMatrix in="SourceAlpha" type="matrix" values="0 0 0 0 0 0 0 0 0 0 0 0 0 0 0 0 0 0 127 0" result="hardAlpha"/>
<feOffset/>
<feGaussianBlur stdDeviation="2"/>
<feComposite in2="hardAlpha" operator="arithmetic" k2="-1" k3="1"/>
<feColorMatrix type="matrix" values="0 0 0 0 0 0 0 0 0 0 0 0 0 0 0 0 0 0 0.1 0"/>
<feBlend mode="normal" in2="shape" result="effect1_innerShadow_103_973"/>
</filter>
</defs>
</svg>
