<svg width="32" height="47" viewBox="0 0 32 47" fill="none" xmlns="http://www.w3.org/2000/svg">
<g filter="url(#filter0_i_103_978)">
<path d="M22.3082 12.6111C21.9013 10.902 21.1892 9.62016 20.1718 8.7656C19.1952 7.91104 17.7709 7.48376 15.899 7.48376C13.0912 7.48376 11.0158 8.62317 9.67296 10.902C8.37077 13.1401 7.69933 16.8025 7.65864 21.8892C8.63528 20.2615 10.0595 19 11.9314 18.1047C13.8033 17.1688 15.838 16.7008 18.0354 16.7008C20.6805 16.7008 23.0204 17.2705 25.055 18.4099C27.0897 19.5493 28.6767 21.2178 29.8162 23.4152C30.9556 25.5719 31.5253 28.1763 31.5253 31.2283C31.5253 34.1175 30.9352 36.7016 29.7551 38.9804C28.6157 41.2185 26.9269 42.9683 24.6888 44.2298C22.4507 45.4913 19.7853 46.1221 16.6926 46.1221C12.4605 46.1221 9.1236 45.1861 6.682 43.3142C4.28109 41.4423 2.59232 38.838 1.61568 35.5011C0.679734 32.1236 0.21176 27.9729 0.21176 23.049C0.21176 15.6021 1.4936 9.9864 4.05728 6.20192C6.62096 2.37674 10.6699 0.464156 16.2042 0.464156C20.477 0.464156 23.7935 1.62392 26.1538 3.94344C28.514 6.26296 29.8772 9.15218 30.2434 12.6111H22.3082ZM16.0822 23.7204C13.9254 23.7204 12.1146 24.3511 10.6496 25.6126C9.18464 26.8741 8.45216 28.7053 8.45216 31.1062C8.45216 33.5071 9.1236 35.3994 10.4665 36.783C11.8501 38.1665 13.783 38.8583 16.2653 38.8583C18.4627 38.8583 20.1922 38.1869 21.4537 36.844C22.7559 35.5011 23.407 33.6903 23.407 31.4114C23.407 29.0512 22.7762 27.1793 21.5147 25.7958C20.2939 24.4122 18.4831 23.7204 16.0822 23.7204Z" fill="#030100" fill-opacity="0.24"/>
</g>
<defs>
<filter id="filter0_i_103_978" x="0.21167" y="0.464111" width="31.3137" height="45.658" filterUnits="userSpaceOnUse" color-interpolation-filters="sRGB">
<feFlood flood-opacity="0" result="BackgroundImageFix"/>
<feBlend mode="normal" in="SourceGraphic" in2="BackgroundImageFix" result="shape"/>
<feColorMatrix in="SourceAlpha" type="matrix" values="0 0 0 0 0 0 0 0 0 0 0 0 0 0 0 0 0 0 127 0" result="hardAlpha"/>
<feOffset/>
<feGaussianBlur stdDeviation="2"/>
<feComposite in2="hardAlpha" operator="arithmetic" k2="-1" k3="1"/>
<feColorMatrix type="matrix" values="0 0 0 0 0 0 0 0 0 0 0 0 0 0 0 0 0 0 0.1 0"/>
<feBlend mode="normal" in2="shape" result="effect1_innerShadow_103_978"/>
</filter>
</defs>
</svg>
