<svg width="33" height="47" viewBox="0 0 33 47" fill="none" xmlns="http://www.w3.org/2000/svg">
<g filter="url(#filter0_i_103_982)">
<path d="M7.682 22.4386C3.61267 20.3225 1.578 17.0467 1.578 12.6111C1.578 10.4137 2.12736 8.4197 3.22608 6.6292C4.36549 4.798 6.05427 3.35338 8.2924 2.29536C10.5712 1.19664 13.3384 0.647277 16.5938 0.647277C19.8493 0.647277 22.5961 1.19664 24.8342 2.29536C27.1131 3.35338 28.8018 4.798 29.9006 6.6292C31.04 8.4197 31.6097 10.4137 31.6097 12.6111C31.6097 14.8493 31.0603 16.8229 29.9616 18.532C28.8629 20.2004 27.3979 21.5026 25.5667 22.4386C27.8049 23.4152 29.5547 24.8395 30.8162 26.7114C32.0777 28.5833 32.7084 30.801 32.7084 33.3647C32.7084 36.1319 31.9963 38.5531 30.572 40.6285C29.1884 42.6631 27.2758 44.2298 24.8342 45.3286C22.3926 46.4273 19.6458 46.9766 16.5938 46.9766C13.5418 46.9766 10.795 46.4273 8.35344 45.3286C5.95253 44.2298 4.03995 42.6631 2.61568 40.6285C1.23211 38.5531 0.54032 36.1319 0.54032 33.3647C0.54032 30.801 1.17107 28.5833 2.43256 26.7114C3.69405 24.7988 5.44387 23.3745 7.682 22.4386ZM23.3082 13.8319C23.3082 11.8379 22.6978 10.2916 21.477 9.19288C20.2969 8.09416 18.6692 7.5448 16.5938 7.5448C14.5592 7.5448 12.9314 8.09416 11.7106 9.19288C10.5305 10.2916 9.94048 11.8583 9.94048 13.893C9.94048 15.7242 10.5509 17.1891 11.7717 18.2878C13.0332 19.3866 14.6406 19.9359 16.5938 19.9359C18.5471 19.9359 20.1545 19.3866 21.416 18.2878C22.6775 17.1484 23.3082 15.6631 23.3082 13.8319ZM16.5938 26.162C14.2743 26.162 12.3821 26.7521 10.9171 27.9322C9.49285 29.1123 8.78072 30.801 8.78072 32.9985C8.78072 35.0331 9.47251 36.7016 10.8561 38.0038C12.2803 39.2653 14.1929 39.896 16.5938 39.896C18.9947 39.896 20.887 39.2449 22.2706 37.9427C23.6541 36.6405 24.3459 34.9925 24.3459 32.9985C24.3459 30.8417 23.6338 29.1733 22.2095 27.9932C20.7853 26.7724 18.9134 26.162 16.5938 26.162Z" fill="#030100" fill-opacity="0.24"/>
</g>
<defs>
<filter id="filter0_i_103_982" x="0.540283" y="0.647339" width="32.1682" height="46.3293" filterUnits="userSpaceOnUse" color-interpolation-filters="sRGB">
<feFlood flood-opacity="0" result="BackgroundImageFix"/>
<feBlend mode="normal" in="SourceGraphic" in2="BackgroundImageFix" result="shape"/>
<feColorMatrix in="SourceAlpha" type="matrix" values="0 0 0 0 0 0 0 0 0 0 0 0 0 0 0 0 0 0 127 0" result="hardAlpha"/>
<feOffset/>
<feGaussianBlur stdDeviation="2"/>
<feComposite in2="hardAlpha" operator="arithmetic" k2="-1" k3="1"/>
<feColorMatrix type="matrix" values="0 0 0 0 0 0 0 0 0 0 0 0 0 0 0 0 0 0 0.1 0"/>
<feBlend mode="normal" in2="shape" result="effect1_innerShadow_103_982"/>
</filter>
</defs>
</svg>
