<svg width="32" height="47" viewBox="0 0 32 47" fill="none" xmlns="http://www.w3.org/2000/svg">
<g filter="url(#filter0_i_103_984)">
<path d="M10.1236 33.4868C10.4491 35.2773 11.1816 36.6609 12.321 37.6375C13.5011 38.5735 15.0678 39.0414 17.0211 39.0414C19.5441 39.0414 21.3753 38.0038 22.5147 35.9284C23.6541 33.8123 24.2238 30.272 24.2238 25.3074C23.2879 26.6096 21.9654 27.627 20.2562 28.3594C18.5878 29.0919 16.777 29.4582 14.8237 29.4582C12.2193 29.4582 9.85909 28.9291 7.74304 27.8711C5.66768 26.7724 4.0196 25.165 2.7988 23.049C1.578 20.8922 0.9676 18.2878 0.9676 15.2358C0.9676 10.7189 2.31048 7.13787 4.99624 4.4928C7.682 1.80704 11.3444 0.464156 15.9834 0.464156C21.7619 0.464156 25.8312 2.3157 28.1914 6.0188C30.5924 9.72189 31.7928 15.2969 31.7928 22.7438C31.7928 28.0339 31.3248 32.3677 30.3889 35.7453C29.4936 39.1228 27.9269 41.6865 25.6888 43.4363C23.4914 45.1861 20.4801 46.061 16.6549 46.061C13.6436 46.061 11.0799 45.4913 8.96384 44.3519C6.84779 43.1718 5.22005 41.6458 4.08064 39.7739C2.98192 37.8613 2.35117 35.7656 2.1884 33.4868H10.1236ZM16.5938 22.4996C18.7099 22.4996 20.3783 21.8485 21.5991 20.5463C22.8199 19.2441 23.4303 17.4943 23.4303 15.2969C23.4303 12.896 22.7792 11.0444 21.477 9.74224C20.2155 8.39936 18.4861 7.72792 16.2886 7.72792C14.0912 7.72792 12.3414 8.4197 11.0392 9.80328C9.77771 11.1462 9.14696 12.9367 9.14696 15.1748C9.14696 17.3315 9.75736 19.1017 10.9782 20.4853C12.2397 21.8282 14.1115 22.4996 16.5938 22.4996Z" fill="#030100" fill-opacity="0.24"/>
</g>
<defs>
<filter id="filter0_i_103_984" x="0.967529" y="0.464111" width="30.8253" height="45.5969" filterUnits="userSpaceOnUse" color-interpolation-filters="sRGB">
<feFlood flood-opacity="0" result="BackgroundImageFix"/>
<feBlend mode="normal" in="SourceGraphic" in2="BackgroundImageFix" result="shape"/>
<feColorMatrix in="SourceAlpha" type="matrix" values="0 0 0 0 0 0 0 0 0 0 0 0 0 0 0 0 0 0 127 0" result="hardAlpha"/>
<feOffset/>
<feGaussianBlur stdDeviation="2"/>
<feComposite in2="hardAlpha" operator="arithmetic" k2="-1" k3="1"/>
<feColorMatrix type="matrix" values="0 0 0 0 0 0 0 0 0 0 0 0 0 0 0 0 0 0 0.1 0"/>
<feBlend mode="normal" in2="shape" result="effect1_innerShadow_103_984"/>
</filter>
</defs>
</svg>
