<svg width="1300" height="1300" viewBox="0 0 1300 1300" fill="none" xmlns="http://www.w3.org/2000/svg">
<mask id="mask0_113_6775" style="mask-type:alpha" maskUnits="userSpaceOnUse" x="-1" y="0" width="1301" height="1300">
<path d="M649.999 1300C290.709 1300 -0.000488281 1008.86 -0.000488281 650C-0.000488281 290.71 291.141 0 649.999 0C1009.29 0 1300 291.141 1300 650C1300.43 1009.29 1009.29 1300 649.999 1300Z" fill="#F7C0B5"/>
</mask>
<g mask="url(#mask0_113_6775)">
<path d="M1015.73 1197.33C1012.7 1199.5 1009.23 1201.67 1006.2 1203.83C1002.73 1206 999.697 1208.17 996.231 1209.9C993.197 1211.63 990.597 1213.37 987.564 1215.1C987.131 1215.53 986.697 1215.53 986.264 1215.97C976.297 1222.03 965.897 1227.67 955.497 1232.87C952.464 1234.6 948.997 1236.33 945.964 1237.63C945.964 1237.63 945.531 1238.07 945.097 1238.07C941.631 1239.8 938.164 1241.53 934.697 1243.27C927.764 1246.73 920.397 1249.77 913.464 1252.8C909.997 1254.53 906.097 1255.83 902.631 1257.13C899.164 1258.43 895.264 1260.17 891.797 1261.47C888.331 1262.77 884.431 1264.5 880.964 1265.8C880.964 1265.8 880.964 1265.8 880.531 1265.8C877.064 1267.1 873.164 1268.4 869.697 1269.7C861.897 1272.3 853.664 1274.9 845.864 1277.5C843.264 1278.37 840.231 1279.23 837.631 1280.1C829.397 1282.7 821.164 1284.87 812.931 1286.6C809.897 1287.47 806.864 1287.9 803.397 1288.77C795.597 1290.5 787.364 1292.23 779.564 1293.97C777.831 1294.4 776.531 1294.4 774.797 1294.83C772.197 1295.27 769.164 1295.7 766.564 1296.13C762.664 1296.57 759.197 1297.43 755.297 1297.87C753.564 1298.3 751.831 1298.3 750.097 1298.73C747.931 1299.17 745.331 1299.6 742.731 1299.6C735.797 1300.47 728.431 1301.33 721.497 1302.2C719.331 1302.63 716.731 1302.63 714.564 1303.07H714.131C711.097 1303.5 708.064 1303.5 705.031 1303.93C701.997 1304.37 698.964 1304.37 695.931 1304.37C694.197 1304.37 692.031 1304.8 690.297 1304.8C686.831 1304.8 683.797 1305.23 680.764 1305.23C676.431 1305.23 672.531 1305.67 668.197 1305.67C663.864 1305.67 659.964 1305.67 655.631 1305.67C652.597 1305.67 649.564 1305.67 646.531 1305.67C464.097 1303.07 299.431 1225.5 182.431 1102.43C182.431 1102.43 182.431 1102 181.997 1102C195.431 1075.57 245.264 1027.9 297.264 988.465C363.131 938.632 456.297 907.865 456.297 907.865C456.297 907.865 517.397 897.898 744.031 945.132C916.931 981.532 990.597 1129.3 1015.73 1197.33Z" fill="#FEE4BF"/>
<path d="M792.131 1065.16C783.031 1109.8 724.097 1136.23 624.864 1096.36C503.098 1046.96 456.298 907.865 456.298 907.865C449.798 808.198 434.631 722.831 434.631 722.831C575.464 710.698 741.864 875.365 741.864 875.365L760.931 956.831C762.664 963.765 766.131 969.831 771.331 974.165C780.431 989.765 798.197 1036.56 792.131 1065.16Z" fill="#FEE4BF"/>
<path d="M771.33 974.599C688.564 970.266 627.464 958.133 562.03 840.699C617.497 889.666 682.93 908.299 751.83 916.966L760.93 956.832C762.664 964.199 766.13 970.266 771.33 974.599Z" fill="#EFBDA5"/>
<path d="M942.497 452.431C950.297 488.831 954.197 518.298 932.964 615.365C911.731 712.431 952.464 809.498 850.197 898.331C781.297 958.131 660.831 969.398 564.631 903.965C532.131 881.865 502.231 851.098 477.964 810.798C458.897 779.165 436.797 749.265 412.097 721.965C377.864 684.698 336.697 609.731 357.064 477.131C389.997 261.332 603.631 236.632 729.731 260.465C855.831 284.298 921.264 356.231 942.497 452.431Z" fill="#FEE4BF"/>
<path d="M527.797 621.865C527.797 621.865 514.364 556.865 451.097 564.665C396.497 571.599 377.43 702.465 501.364 738.865" fill="#FEE4BF"/>
<path d="M497.464 679.499C497.464 679.499 481.864 669.532 483.598 652.199C486.198 631.832 483.598 619.265 474.064 615.365C450.231 605.399 445.464 633.132 446.331 636.599" stroke="#423232" stroke-width="13" stroke-miterlimit="10" stroke-linecap="round" stroke-linejoin="round"/>
<path d="M828.097 721.531C828.097 721.531 844.563 722.398 860.163 703.765C868.83 693.365 876.197 680.365 871.43 676.465C866.663 672.131 788.23 684.265 783.03 694.665C777.83 705.065 808.163 721.531 828.097 721.531Z" fill="#EFBDA5"/>
<path d="M841.097 575.932C841.097 575.932 841.964 617.098 868.397 663.032C880.097 683.398 862.331 716.765 823.764 722.398" stroke="#423232" stroke-width="13" stroke-miterlimit="10" stroke-linecap="round" stroke-linejoin="round"/>
<path opacity="0.42" d="M606.231 743.631C630.881 743.631 650.864 727.14 650.864 706.797C650.864 686.455 630.881 669.964 606.231 669.964C581.581 669.964 561.598 686.455 561.598 706.797C561.598 727.14 581.581 743.631 606.231 743.631Z" fill="#F2A5B2"/>
<path opacity="0.42" d="M926.03 670.831C924.73 695.098 925.164 718.931 923.43 742.764C904.364 738.431 890.497 724.131 890.497 707.231C890.497 689.031 905.664 674.298 926.03 670.831Z" fill="#F2A5B2"/>
<path d="M377.807 901.34C377.807 901.34 441.073 876.207 452.773 875.34L453.64 885.307C453.64 885.307 403.373 906.973 400.34 910.44C397.74 913.473 377.807 901.34 377.807 901.34Z" fill="#7E5D6D"/>
<path d="M1158.24 1472.04H62.7715C62.7715 1472.04 69.2715 1270.97 135.138 1127.54C184.971 1019.21 304.571 947.708 391.671 916.508C416.371 907.841 435.438 898.308 453.205 893.541C453.205 895.708 454.505 911.741 454.505 913.474C454.505 913.474 522.971 980.641 677.238 988.874C748.738 992.774 755.671 948.141 755.671 948.141C763.905 946.408 771.705 944.241 779.505 941.641C782.105 940.774 800.305 933.408 802.471 932.541C858.371 947.274 926.838 988.874 1026.07 1072.07C1138.3 1166.97 1158.24 1472.04 1158.24 1472.04Z" fill="#69D69D"/>
<path d="M947.206 1022.68C975.207 1022.68 997.906 999.977 997.906 971.976C997.906 943.976 975.207 921.276 947.206 921.276C919.205 921.276 896.506 943.976 896.506 971.976C896.506 999.977 919.205 1022.68 947.206 1022.68Z" fill="#FFFF8D"/>
<path d="M277.273 1463.37L257.773 1303.04" stroke="#544D4D" stroke-width="13" stroke-miterlimit="10" stroke-linecap="round" stroke-linejoin="round"/>
<path d="M1033.87 1248.01C1033.87 1248.01 1020.87 1279.64 1024.77 1311.27C1028.67 1342.91 1039.94 1389.27 1023.91 1463.37" stroke="#544D4D" stroke-width="13" stroke-miterlimit="10" stroke-linecap="round" stroke-linejoin="round"/>
<path d="M377.806 901.34C386.04 898.74 400.34 901.34 404.673 908.707C421.573 936.44 654.273 978.04 671.173 1138.81C684.606 1264.47 659.473 1530.11 659.473 1530.11L51.5063 1510.17C51.5063 1510.17 64.073 1296.54 100.906 1153.11C136.873 1014.01 231.34 951.607 377.806 901.34Z" fill="#5889BA"/>
<path d="M769.973 1138.38C769.973 1138.38 796.84 1277.48 792.073 1515.38H1197.24C1197.24 1515.38 1195.94 1248.44 1130.94 1103.28C1065.94 958.542 838.44 916.075 838.44 916.075C838.44 916.075 780.806 1134.48 769.973 1138.38Z" fill="#5889BA"/>
<path d="M813.308 940.774L802.908 937.741C802.908 937.741 818.075 930.374 824.575 926.041L828.475 923.874C828.475 923.874 849.275 933.407 856.642 936.874C864.008 940.341 831.075 956.374 831.075 956.374C831.075 956.374 814.608 940.774 813.308 940.774Z" fill="#7E5D6D"/>
<path d="M671.173 1138.37C671.173 1138.37 601.406 1080.74 444.973 1049.54C308.473 1022.24 167.206 1035.24 179.34 998.841C217.473 884.875 446.706 817.708 446.706 818.575C446.706 819.008 446.706 819.008 446.706 819.441C452.773 872.741 493.506 910.441 544.206 928.208C581.473 941.208 630.44 946.841 648.206 949.008C665.106 950.741 670.74 1076.84 671.173 1138.37Z" fill="white"/>
<path d="M671.173 1138.37C662.073 1132.31 652.54 1127.11 643.007 1121.91C638.24 1119.31 633.473 1117.14 628.273 1114.54C623.507 1112.37 618.307 1109.77 613.54 1107.61C593.607 1098.94 573.24 1091.14 552.873 1084.21C547.673 1082.47 542.473 1080.74 537.273 1079.44L521.673 1074.67L506.073 1070.34C500.873 1069.04 495.673 1067.31 490.473 1066.44L474.873 1062.54C469.673 1061.24 464.473 1060.37 458.84 1059.07C448.44 1056.91 437.607 1054.74 426.773 1053.01C405.54 1049.11 383.873 1046.07 362.207 1043.47C340.54 1040.87 318.873 1038.71 297.207 1036.11C275.54 1033.94 253.873 1031.77 231.773 1028.31C220.94 1026.57 210.107 1024.41 199.273 1020.94C194.073 1019.21 188.873 1017.04 184.107 1013.57C182.807 1012.71 181.94 1011.41 181.073 1010.54C180.207 1009.24 179.34 1008.37 178.907 1006.64C177.607 1004.04 178.473 1001.01 179.34 998.408C178.907 1001.01 178.473 1004.04 179.773 1006.21C180.207 1007.51 181.507 1008.37 181.94 1009.24C182.807 1010.11 184.107 1010.97 184.973 1011.41C189.307 1014.01 194.507 1015.74 200.14 1016.61C210.54 1018.77 221.373 1020.07 232.207 1020.94C253.873 1022.67 275.54 1023.54 297.64 1025.27C319.307 1026.57 341.407 1028.31 363.073 1030.47C384.74 1032.64 406.84 1035.67 428.507 1039.14C471.84 1047.37 514.74 1057.77 555.907 1073.81C566.307 1077.71 576.273 1082.04 586.24 1086.37L600.973 1093.31C605.74 1095.91 610.94 1098.51 615.707 1100.67C620.473 1103.27 625.24 1105.87 630.007 1108.91C634.773 1111.94 639.54 1114.54 643.873 1117.57C654.273 1124.94 662.94 1131.44 671.173 1138.37Z" fill="#446F93"/>
<path d="M1096.27 1031.77C1089.34 991.475 903.007 856.708 882.207 860.175C873.107 872.308 862.273 884.008 848.84 895.275C835.407 906.975 819.807 916.942 803.34 924.742C779.073 933.408 762.607 940.342 735.307 943.808C730.973 944.242 728.373 948.575 729.673 952.475C750.04 1007.51 759.14 1082.48 769.973 1138.81C821.54 1088.11 879.607 1065.58 932.473 1055.18C1024.77 1036.54 1100.61 1056.47 1096.27 1031.77Z" fill="white"/>
<path d="M769.973 1138.37C789.473 1115.84 812.873 1096.34 839.307 1081.61C852.307 1074.24 866.173 1067.74 880.473 1062.54C894.773 1057.34 909.507 1053.01 924.24 1049.97C938.973 1046.94 954.14 1044.77 968.873 1043.04C984.04 1041.74 998.773 1040.87 1013.94 1041.31C1029.11 1041.31 1043.84 1042.17 1058.57 1042.61C1065.94 1043.04 1073.31 1043.04 1080.67 1042.61C1084.14 1042.17 1088.04 1041.74 1091.07 1040.44C1092.81 1040.01 1094.11 1038.71 1094.97 1037.41C1095.84 1036.11 1096.27 1033.94 1096.27 1032.21C1096.71 1033.94 1097.14 1036.11 1095.84 1037.84C1094.97 1039.57 1093.67 1041.31 1091.94 1042.17C1088.47 1044.34 1084.57 1045.21 1081.11 1046.07C1073.74 1047.81 1065.94 1048.24 1058.57 1049.11C1043.84 1049.97 1028.67 1050.84 1013.94 1051.71C999.207 1052.57 984.473 1053.87 969.74 1055.61C955.007 1057.34 940.707 1059.51 926.407 1062.97C897.807 1069.04 870.073 1078.14 843.64 1091.14C817.64 1103.27 792.94 1119.74 769.973 1138.37Z" fill="#446F93"/>
<path d="M623.073 1217.67C641.98 1217.67 657.306 1202.35 657.306 1183.44C657.306 1164.53 641.98 1149.21 623.073 1149.21C604.167 1149.21 588.84 1164.53 588.84 1183.44C588.84 1202.35 604.167 1217.67 623.073 1217.67Z" fill="white"/>
<path d="M405.54 1323.84C450.054 1323.84 486.14 1287.76 486.14 1243.24C486.14 1198.73 450.054 1162.64 405.54 1162.64C361.026 1162.64 324.94 1198.73 324.94 1243.24C324.94 1287.76 361.026 1323.84 405.54 1323.84Z" fill="#446F93"/>
<path d="M990.973 1323.84C1035.49 1323.84 1071.57 1287.76 1071.57 1243.24C1071.57 1198.73 1035.49 1162.64 990.973 1162.64C946.459 1162.64 910.373 1198.73 910.373 1243.24C910.373 1287.76 946.459 1323.84 990.973 1323.84Z" fill="#446F93"/>
<path d="M828.906 1212.91C846.855 1212.91 861.406 1198.36 861.406 1180.41C861.406 1162.46 846.855 1147.91 828.906 1147.91C810.957 1147.91 796.406 1162.46 796.406 1180.41C796.406 1198.36 810.957 1212.91 828.906 1212.91Z" fill="white"/>
<path d="M670.307 1090.71C668.573 1089.41 666.84 1088.11 665.107 1086.81" stroke="#C3CAD1" stroke-width="13" stroke-linecap="round" stroke-linejoin="round"/>
<path d="M630.007 1063.41C595.34 1044.34 556.774 1032.21 511.274 1019.64C406.407 990.174 334.907 999.707 244.34 972.407C239.574 971.107 233.94 969.374 228.74 967.207" stroke="#C3CAD1" stroke-width="13" stroke-linecap="round" stroke-linejoin="round" stroke-dasharray="12.57 12.57"/>
<path d="M212.273 954.641C211.406 952.908 210.973 950.741 210.973 948.574" stroke="#C3CAD1" stroke-width="13" stroke-linecap="round" stroke-linejoin="round"/>
<path d="M645.607 948.141C663.373 949.441 703.24 950.741 743.54 947.275C747.873 946.841 751.773 949.875 752.207 954.208L755.673 976.741C756.54 981.075 753.507 985.408 748.74 985.841C730.54 988.441 685.473 993.641 646.473 986.708C643.007 986.275 640.407 983.241 639.973 979.775L636.94 957.241C636.507 952.475 640.407 948.141 645.607 948.141Z" fill="white"/>
<path d="M652.107 1008.38C669.873 1009.68 709.74 1010.98 750.04 1007.51C754.373 1007.08 758.273 1010.11 758.707 1014.44L762.173 1036.98C763.04 1041.31 760.007 1045.64 755.24 1046.08C737.04 1048.68 691.973 1053.88 652.973 1046.94C649.507 1046.51 646.907 1043.48 646.473 1040.01L643.44 1017.48C642.573 1012.28 646.907 1007.94 652.107 1008.38Z" fill="white"/>
<path d="M762.607 1096.77C762.607 1096.77 764.34 1095.04 767.373 1092.44" stroke="#C3CAD1" stroke-width="13" stroke-linecap="round" stroke-linejoin="round"/>
<path d="M802.907 1067.74C825.007 1054.74 856.207 1039.14 897.374 1026.14C962.374 1005.77 1018.71 1007.07 1051.64 1007.07" stroke="#C3CAD1" stroke-width="13" stroke-linecap="round" stroke-linejoin="round" stroke-dasharray="12.99 12.99"/>
<path d="M1073.74 1006.64C1076.34 1006.21 1078.51 1005.77 1080.24 1005.34" stroke="#C3CAD1" stroke-width="13" stroke-linecap="round" stroke-linejoin="round"/>
<path d="M641.706 1163.94C673.339 1169.57 734.006 1176.07 810.706 1162.64C822.839 1160.47 834.106 1169.14 834.973 1181.27V1183.44C835.839 1193.84 828.906 1203.37 818.939 1205.54C788.173 1212.91 719.273 1223.31 633.039 1204.67C623.506 1202.51 616.573 1193.84 616.573 1184.31C617.006 1171.31 629.139 1161.34 641.706 1163.94Z" fill="#C3CAD1"/>
<path d="M754.374 978.476C760.596 978.476 765.64 973.431 765.64 967.209C765.64 960.987 760.596 955.942 754.374 955.942C748.151 955.942 743.107 960.987 743.107 967.209C743.107 973.431 748.151 978.476 754.374 978.476Z" fill="#C3CAD1"/>
<path d="M769.973 1034.81C776.195 1034.81 781.239 1029.76 781.239 1023.54C781.239 1017.32 776.195 1012.28 769.973 1012.28C763.75 1012.28 758.706 1017.32 758.706 1023.54C758.706 1029.76 763.75 1034.81 769.973 1034.81Z" fill="#C3CAD1"/>
<path d="M743.042 526.549C752.575 527.849 759.942 517.882 756.475 508.349C754.742 503.149 751.708 498.382 746.942 495.349C732.208 486.249 677.175 485.382 648.142 506.182C622.575 525.249 699.708 520.482 743.042 526.549Z" fill="#423232"/>
<path d="M863.074 531.315C855.274 531.315 850.507 521.348 854.407 513.115C856.574 508.782 859.607 504.882 863.941 502.715C877.374 496.215 913.341 500.115 929.374 522.215C943.674 541.715 899.041 530.882 863.074 531.315Z" fill="#423232"/>
<path d="M727.875 581.148C694.075 595.448 656.375 577.682 656.375 577.682" stroke="#423232" stroke-width="13" stroke-miterlimit="10" stroke-linecap="round" stroke-linejoin="round"/>
<path d="M899.042 589.816C899.042 589.816 875.641 604.116 846.175 587.216" stroke="#423232" stroke-width="13" stroke-miterlimit="10" stroke-linecap="round" stroke-linejoin="round"/>
<path d="M793.697 770.764C768.997 785.497 725.23 769.464 704.864 744.764" stroke="#423232" stroke-width="13" stroke-miterlimit="10" stroke-linecap="round" stroke-linejoin="round"/>
<path d="M653.718 247.36C398.052 236.526 322.652 457.526 344.318 584.06C365.552 706.26 443.118 762.593 443.118 762.593L495.552 744.393C495.552 744.393 475.185 737.459 455.685 723.159C388.518 672.026 409.318 579.293 455.252 573.226C501.185 567.593 520.685 600.526 528.052 618.726C552.318 538.56 518.085 518.626 552.318 461.86C659.352 346.16 735.618 419.393 786.318 439.326C832.685 457.526 862.585 434.993 888.152 411.16C903.318 396.86 924.985 400.76 924.985 400.76C924.985 400.76 895.518 257.76 653.718 247.36Z" fill="#99807F"/>
</g>
</svg>
