<svg width="1300" height="1300" viewBox="0 0 1300 1300" fill="none" xmlns="http://www.w3.org/2000/svg">
<mask id="mask0_113_6552" style="mask-type:alpha" maskUnits="userSpaceOnUse" x="-1" y="0" width="1301" height="1300">
<path d="M649.999 1300C290.709 1300 -0.000488281 1008.86 -0.000488281 650C-0.000488281 290.71 291.141 0 649.999 0C1009.29 0 1300 291.141 1300 650C1300.43 1009.29 1009.29 1300 649.999 1300Z" fill="#F7C0B5"/>
</mask>
<g mask="url(#mask0_113_6552)">
<path d="M1015.73 1197.33C1012.7 1199.5 1009.23 1201.67 1006.2 1203.83C1002.73 1206 999.697 1208.17 996.231 1209.9C993.197 1211.63 990.597 1213.37 987.564 1215.1C987.131 1215.53 986.697 1215.53 986.264 1215.97C976.297 1222.03 965.897 1227.67 955.497 1232.87C952.464 1234.6 948.997 1236.33 945.964 1237.63C945.964 1237.63 945.531 1238.07 945.097 1238.07C941.631 1239.8 938.164 1241.53 934.697 1243.27C927.764 1246.73 920.397 1249.77 913.464 1252.8C909.997 1254.53 906.097 1255.83 902.631 1257.13C899.164 1258.43 895.264 1260.17 891.797 1261.47C888.331 1262.77 884.431 1264.5 880.964 1265.8C880.964 1265.8 880.964 1265.8 880.531 1265.8C877.064 1267.1 873.164 1268.4 869.697 1269.7C861.897 1272.3 853.664 1274.9 845.864 1277.5C843.264 1278.37 840.231 1279.23 837.631 1280.1C829.397 1282.7 821.164 1284.87 812.931 1286.6C809.897 1287.47 806.864 1287.9 803.397 1288.77C795.597 1290.5 787.364 1292.23 779.564 1293.97C777.831 1294.4 776.531 1294.4 774.797 1294.83C772.197 1295.27 769.164 1295.7 766.564 1296.13C762.664 1296.57 759.197 1297.43 755.297 1297.87C753.564 1298.3 751.831 1298.3 750.097 1298.73C747.931 1299.17 745.331 1299.6 742.731 1299.6C735.797 1300.47 728.431 1301.33 721.497 1302.2C719.331 1302.63 716.731 1302.63 714.564 1303.07H714.131C711.097 1303.5 708.064 1303.5 705.031 1303.93C701.997 1304.37 698.964 1304.37 695.931 1304.37C694.197 1304.37 692.031 1304.8 690.297 1304.8C686.831 1304.8 683.797 1305.23 680.764 1305.23C676.431 1305.23 672.531 1305.67 668.197 1305.67C663.864 1305.67 659.964 1305.67 655.631 1305.67C652.597 1305.67 649.564 1305.67 646.531 1305.67C464.097 1303.07 299.431 1225.5 182.431 1102.43C182.431 1102.43 182.431 1102 181.997 1102C195.431 1075.57 245.264 1027.9 297.264 988.466C363.131 938.632 456.297 907.866 456.297 907.866C456.297 907.866 517.397 897.899 744.031 945.132C916.931 981.532 990.597 1129.3 1015.73 1197.33Z" fill="#FEE4BF"/>
<path d="M792.131 1065.16C783.031 1109.8 724.097 1136.23 624.864 1096.36C503.098 1046.96 456.298 907.865 456.298 907.865C449.798 808.198 434.631 722.831 434.631 722.831C575.464 710.698 741.864 875.365 741.864 875.365L760.931 956.831C762.664 963.765 766.131 969.831 771.331 974.165C780.431 989.765 798.197 1036.56 792.131 1065.16Z" fill="#FEE4BF"/>
<path d="M771.33 974.599C688.564 970.266 627.464 958.133 562.03 840.699C617.497 889.666 682.93 908.299 751.83 916.966L760.93 956.832C762.664 964.199 766.13 970.266 771.33 974.599Z" fill="#EFBDA5"/>
<path d="M942.497 452.431C950.297 488.831 954.197 518.298 932.964 615.365C911.731 712.431 952.464 809.498 850.197 898.331C781.297 958.131 660.831 969.398 564.631 903.965C532.131 881.865 502.231 851.098 477.964 810.798C458.897 779.165 436.797 749.265 412.097 721.965C377.864 684.698 336.697 609.731 357.064 477.131C389.997 261.332 603.631 236.632 729.731 260.465C855.831 284.298 921.264 356.231 942.497 452.431Z" fill="#FEE4BF"/>
<path d="M527.797 621.865C527.797 621.865 514.364 556.865 451.097 564.665C396.497 571.598 377.43 702.465 501.364 738.865" fill="#FEE4BF"/>
<path d="M497.464 679.499C497.464 679.499 481.864 669.532 483.598 652.199C486.198 631.832 483.598 619.265 474.064 615.365C450.231 605.399 445.464 633.132 446.331 636.599" stroke="#423232" stroke-width="13" stroke-miterlimit="10" stroke-linecap="round" stroke-linejoin="round"/>
<path d="M828.097 721.531C828.097 721.531 844.563 722.398 860.163 703.765C868.83 693.365 876.197 680.365 871.43 676.465C866.663 672.131 788.23 684.265 783.03 694.665C777.83 705.065 808.163 721.531 828.097 721.531Z" fill="#EFBDA5"/>
<path d="M841.097 575.932C841.097 575.932 841.964 617.099 868.397 663.032C880.097 683.399 862.331 716.765 823.764 722.399" stroke="#423232" stroke-width="13" stroke-miterlimit="10" stroke-linecap="round" stroke-linejoin="round"/>
<path opacity="0.42" d="M606.231 743.631C630.881 743.631 650.864 727.14 650.864 706.797C650.864 686.455 630.881 669.964 606.231 669.964C581.581 669.964 561.598 686.455 561.598 706.797C561.598 727.14 581.581 743.631 606.231 743.631Z" fill="#F2A5B2"/>
<path opacity="0.42" d="M926.03 670.832C924.73 695.098 925.164 718.932 923.43 742.765C904.364 738.432 890.497 724.132 890.497 707.232C890.497 689.032 905.664 674.298 926.03 670.832Z" fill="#F2A5B2"/>
<path d="M1158.82 1466.34H63.3555C63.3555 1466.34 68.1221 1264.41 135.722 1121.84C185.555 1016.11 313.822 955.874 403.089 925.107C423.022 918.174 441.222 912.974 455.955 909.074C460.722 922.074 508.822 1049.47 624.089 1096.27C723.322 1136.57 782.255 1109.71 791.355 1065.07C796.989 1036.47 779.222 989.674 770.122 974.507C764.922 970.174 761.455 963.674 759.722 957.174L756.255 942.874C764.055 941.14 771.422 938.974 779.222 936.807C783.122 937.674 787.022 938.54 790.922 939.407C846.822 952.84 929.589 985.34 1026.66 1067.24C1138.89 1160.84 1158.82 1466.34 1158.82 1466.34Z" fill="#FFDE55"/>
<path d="M806.955 1182.94C791.789 1187.27 738.922 1132.24 728.089 1122.71C718.122 1133.97 647.922 1213.27 613.255 1208.07C575.122 1202.44 477.622 1137.01 428.222 1034.31C400.922 977.974 400.055 943.74 403.089 925.107C404.389 916.44 406.989 910.807 408.289 907.774C412.622 897.807 443.822 859.24 451.622 859.674V860.107C455.522 901.707 468.955 942.007 491.489 977.107C519.222 1020.01 562.989 1071.57 624.089 1096.27C723.322 1136.57 774.889 1096.71 783.555 1052.07C789.189 1023.47 779.222 989.674 770.122 974.507C764.922 970.174 761.455 963.674 759.722 957.174L756.255 942.874C764.055 941.14 771.422 938.974 779.222 936.807C781.389 935.94 783.989 935.507 786.155 934.64C787.455 936.374 789.189 938.107 790.489 939.84C808.689 960.64 827.755 989.24 838.155 1037.77C855.922 1115.34 823.855 1177.74 806.955 1182.94Z" fill="#423232"/>
<path d="M726.789 1120.11C726.789 1120.11 758.422 1138.31 757.556 1153.47C756.689 1168.64 765.789 1216.74 765.789 1216.74" stroke="#423232" stroke-width="13" stroke-miterlimit="10" stroke-linecap="round" stroke-linejoin="round"/>
<path d="M726.356 1177.74C732.1 1177.74 736.756 1173.08 736.756 1167.34C736.756 1161.6 732.1 1156.94 726.356 1156.94C720.612 1156.94 715.956 1161.6 715.956 1167.34C715.956 1173.08 720.612 1177.74 726.356 1177.74Z" fill="#423232"/>
<path d="M730.255 1218.47C735.999 1218.47 740.655 1213.82 740.655 1208.07C740.655 1202.33 735.999 1197.67 730.255 1197.67C724.512 1197.67 719.855 1202.33 719.855 1208.07C719.855 1213.82 724.512 1218.47 730.255 1218.47Z" fill="#423232"/>
<path d="M277.855 1466.34L258.355 1305.57" stroke="#544D4D" stroke-width="13" stroke-miterlimit="10" stroke-linecap="round" stroke-linejoin="round"/>
<path d="M1034.46 1250.97C1034.46 1250.97 1021.46 1282.61 1025.36 1314.24C1029.26 1345.87 1040.52 1392.24 1024.49 1466.34" stroke="#544D4D" stroke-width="13" stroke-miterlimit="10" stroke-linecap="round" stroke-linejoin="round"/>
<path d="M699.71 590.249C699.71 590.683 699.71 591.116 699.71 591.116L699.276 603.249C698.843 613.649 690.176 621.449 679.776 621.016C669.376 620.583 661.576 611.483 662.443 601.516L662.876 589.383C662.876 587.216 663.743 584.616 664.61 582.883L699.276 584.616C699.276 586.349 699.71 588.083 699.71 590.249Z" fill="#423232"/>
<path d="M880.841 599.783L880.408 611.05C879.974 620.583 871.741 627.95 862.208 627.517C852.674 627.083 845.308 618.85 845.741 609.317L846.174 598.05C846.174 595.883 846.608 593.717 847.474 591.983L879.974 593.283C880.841 595.45 880.841 597.617 880.841 599.783Z" fill="#423232"/>
<path d="M743.042 530.882C752.575 532.182 759.942 522.216 756.475 512.682C754.742 507.482 751.708 502.716 746.942 499.682C732.208 490.582 677.175 489.716 648.142 510.516C622.575 529.582 699.708 524.816 743.042 530.882Z" fill="#423232"/>
<path d="M863.074 535.648C855.274 535.648 850.507 525.682 854.407 517.448C856.574 513.115 859.607 509.215 863.941 507.049C877.374 500.549 913.341 504.449 929.374 526.549C943.674 546.049 899.041 535.215 863.074 535.648Z" fill="#423232"/>
<path d="M727.875 585.483L698.841 584.183L664.175 582.883L656.375 582.449" stroke="#423232" stroke-width="13" stroke-miterlimit="10" stroke-linecap="round" stroke-linejoin="round"/>
<path d="M899.042 594.15L879.975 593.283L847.475 591.983H846.175" stroke="#423232" stroke-width="13" stroke-miterlimit="10" stroke-linecap="round" stroke-linejoin="round"/>
<path d="M812.33 773.797C801.497 778.564 796.297 769.031 779.397 777.264C767.264 782.897 760.764 784.631 746.03 775.964C736.497 769.897 724.797 778.564 713.53 762.097" stroke="#423232" stroke-width="13" stroke-miterlimit="10" stroke-linecap="round" stroke-linejoin="round"/>
<path d="M550.416 522.264C550.416 522.264 381.849 533.964 328.116 520.097C328.116 520.097 336.783 327.697 398.749 248.397C460.716 169.097 744.983 168.664 840.749 204.197C927.416 236.697 938.683 427.364 938.683 427.364L550.416 522.264Z" fill="#3F3C3C"/>
<path d="M938.683 427.363L566.883 518.363C564.716 468.53 559.516 315.13 585.083 257.063C615.85 187.297 794.816 187.73 869.783 223.263C929.583 281.763 938.683 427.363 938.683 427.363Z" fill="white"/>
<path d="M1022.32 507.53C1022.32 559.963 937.383 536.563 937.383 536.563C941.283 499.73 937.816 479.363 932.616 456.397C930.883 449.463 929.15 442.53 927.416 435.597C955.15 432.563 975.95 440.363 990.683 451.63C1012.78 468.963 1022.32 494.963 1022.32 507.53Z" fill="#BAAEA6"/>
<path d="M756.683 341.565C785.162 341.565 808.249 318.478 808.249 289.998C808.249 261.519 785.162 238.432 756.683 238.432C728.203 238.432 705.116 261.519 705.116 289.998C705.116 318.478 728.203 341.565 756.683 341.565Z" fill="white"/>
<path d="M808.249 289.998C808.249 313.831 792.216 333.331 770.549 339.831C748.882 333.765 732.849 313.831 732.849 289.998C732.849 266.165 748.882 246.231 770.549 240.165C792.216 246.665 808.249 266.598 808.249 289.998Z" fill="#6BD5E1"/>
<path d="M835.983 289.998C835.983 318.598 813.016 341.565 784.416 341.565C783.116 341.565 781.816 341.565 780.516 341.565C779.65 341.565 778.35 341.565 777.483 341.132C776.616 341.132 775.316 340.698 774.016 340.698C772.716 340.265 771.85 340.265 770.55 339.832C792.216 333.765 808.25 313.832 808.25 289.998C808.25 266.165 792.216 246.665 770.55 240.165C771.416 239.732 772.716 239.732 774.016 239.298C774.883 239.298 775.75 238.865 776.616 238.865C777.05 238.865 777.483 238.865 778.35 238.865C779.216 238.865 779.65 238.865 780.516 238.865C781.816 238.865 783.116 238.865 784.85 238.865C813.016 238.432 835.983 261.398 835.983 289.998Z" fill="#FFD98E"/>
<path d="M756.683 242.765C782.683 242.765 803.916 263.998 803.916 289.998C803.916 315.998 782.683 337.232 756.683 337.232C730.683 337.232 709.449 315.998 709.449 289.998C709.449 263.998 730.683 242.765 756.683 242.765ZM756.683 238.432C728.083 238.432 705.116 261.398 705.116 289.998C705.116 318.598 728.083 341.565 756.683 341.565C785.283 341.565 808.249 318.598 808.249 289.998C808.249 261.398 784.849 238.432 756.683 238.432Z" fill="#4C4C4C"/>
<path d="M567.75 479.365C567.75 479.365 412.616 488.031 336.35 483.698C332.016 483.265 332.016 479.798 332.016 475.465L332.45 467.665C332.45 467.665 324.216 469.831 320.75 481.098C319.016 487.165 317.716 501.898 318.15 510.998C318.583 516.631 322.483 521.398 328.116 522.265C353.25 526.598 437.75 536.998 550.416 522.698C550.416 522.265 565.15 497.565 567.75 479.365Z" fill="#332E2E"/>
<path d="M990.25 451.631C972.05 437.765 944.75 429.531 907.483 439.065C886.25 444.698 861.116 455.965 832.516 475.031C692.55 569.931 550.416 522.265 550.416 522.265C550.416 522.265 554.75 501.031 570.35 475.031C593.316 436.898 640.983 388.365 736.75 382.298C820.816 377.098 882.783 393.131 924.816 411.331C966.416 429.531 988.083 449.465 990.25 451.631Z" fill="white"/>
<path d="M570.35 475.031C593.317 436.898 640.983 388.365 736.75 382.298C820.817 377.098 882.783 393.131 924.817 411.331" stroke="#E8E7E6" stroke-width="13" stroke-miterlimit="10" stroke-linecap="round" stroke-linejoin="round"/>
</g>
</svg>
