<svg width="1300" height="1300" viewBox="0 0 1300 1300" fill="none" xmlns="http://www.w3.org/2000/svg">
<mask id="mask0_113_6498" style="mask-type:alpha" maskUnits="userSpaceOnUse" x="-1" y="0" width="1301" height="1300">
<path d="M649.999 1300C290.709 1300 -0.000488281 1008.86 -0.000488281 650C-0.000488281 290.71 291.141 0 649.999 0C1009.29 0 1300 291.141 1300 650C1300.43 1009.29 1009.29 1300 649.999 1300Z" fill="#F7C0B5"/>
</mask>
<g mask="url(#mask0_113_6498)">
<path d="M1012.26 1197.33C1009.23 1199.5 1005.76 1201.67 1002.73 1203.83C999.265 1206 996.231 1208.17 992.765 1209.9C989.731 1211.63 987.131 1213.37 984.098 1215.1C983.665 1215.53 983.231 1215.53 982.798 1215.97C972.831 1222.03 962.431 1227.67 952.031 1232.87C948.998 1234.6 945.531 1236.33 942.498 1237.63C942.498 1237.63 942.065 1238.07 941.631 1238.07C938.165 1239.8 934.698 1241.53 931.231 1243.27C924.298 1246.73 916.931 1249.77 909.998 1252.8C906.531 1254.53 902.631 1255.83 899.165 1257.13C895.698 1258.43 891.798 1260.17 888.331 1261.47C884.865 1262.77 880.965 1264.5 877.498 1265.8C877.498 1265.8 877.498 1265.8 877.065 1265.8C873.598 1267.1 869.698 1268.4 866.231 1269.7C858.431 1272.3 850.198 1274.9 842.398 1277.5C839.798 1278.37 836.765 1279.23 834.165 1280.1C825.931 1282.7 817.698 1284.87 809.465 1286.6C806.431 1287.47 803.398 1287.9 799.931 1288.77C792.131 1290.5 783.898 1292.23 776.098 1293.97C774.365 1294.4 773.065 1294.4 771.331 1294.83C768.731 1295.27 765.698 1295.7 763.098 1296.13C759.198 1296.57 755.731 1297.43 751.831 1297.87C750.098 1298.3 748.365 1298.3 746.631 1298.73C744.465 1299.17 741.865 1299.6 739.265 1299.6C732.331 1300.47 724.965 1301.33 718.031 1302.2C715.865 1302.63 713.265 1302.63 711.098 1303.07H710.665C707.631 1303.5 704.598 1303.5 701.565 1303.93C698.531 1304.37 695.498 1304.37 692.465 1304.37C690.731 1304.37 688.565 1304.8 686.831 1304.8C683.365 1304.8 680.331 1305.23 677.298 1305.23C672.965 1305.23 669.065 1305.67 664.731 1305.67C660.398 1305.67 656.498 1305.67 652.165 1305.67C649.131 1305.67 646.098 1305.67 643.065 1305.67C460.631 1303.07 295.965 1225.5 178.965 1102.43C178.965 1102.43 178.965 1102 178.531 1102C191.965 1075.57 241.798 1027.9 293.798 988.466C359.665 938.632 452.831 907.866 452.831 907.866C452.831 907.866 513.931 897.899 740.565 945.132C913.465 981.532 987.131 1129.3 1012.26 1197.33Z" fill="#C99589"/>
<path d="M788.665 1065.16C779.565 1109.8 720.632 1136.23 621.398 1096.36C499.632 1046.96 452.832 907.865 452.832 907.865C446.332 808.198 431.165 722.831 431.165 722.831C571.998 710.698 738.398 875.365 738.398 875.365L757.465 956.831C759.198 963.765 762.665 969.831 767.865 974.165C776.965 989.765 794.732 1036.56 788.665 1065.16Z" fill="#C99589"/>
<path d="M767.864 974.599C685.098 970.266 623.998 958.133 558.564 840.699C614.031 889.666 679.464 908.299 748.364 916.966L757.464 956.832C759.198 964.199 762.664 970.266 767.864 974.599Z" fill="#A56663"/>
<path d="M939.031 452.431C946.831 488.831 950.731 518.298 929.498 615.365C908.265 712.431 948.998 809.498 846.731 898.331C777.831 958.131 657.365 969.398 561.165 903.965C528.665 881.865 498.765 851.098 474.498 810.798C455.431 779.165 433.331 749.265 408.631 721.965C374.398 684.698 333.231 609.731 353.598 477.131C386.531 261.332 600.165 236.632 726.265 260.465C852.365 284.298 917.798 356.231 939.031 452.431Z" fill="#C99589"/>
<path d="M524.331 621.865C524.331 621.865 510.898 556.865 447.631 564.665C393.031 571.598 373.964 702.465 497.898 738.865" fill="#C99589"/>
<path d="M493.998 679.499C493.998 679.499 478.398 669.532 480.131 652.199C482.731 631.832 480.131 619.265 470.598 615.365C446.765 605.399 441.998 633.132 442.865 636.599" stroke="#423232" stroke-width="13" stroke-miterlimit="10" stroke-linecap="round" stroke-linejoin="round"/>
<path d="M824.631 721.531C824.631 721.531 841.098 722.398 856.698 703.765C865.365 693.365 872.731 680.365 867.965 676.465C863.198 672.131 784.765 684.265 779.565 694.665C774.365 705.065 804.698 721.531 824.631 721.531Z" fill="#A56663"/>
<path d="M837.631 575.932C837.631 575.932 838.498 617.099 864.931 663.032C876.631 683.399 858.865 716.765 820.298 722.399" stroke="#423232" stroke-width="13" stroke-miterlimit="10" stroke-linecap="round" stroke-linejoin="round"/>
<path d="M389.881 829.4C389.881 829.4 430.181 819.867 447.081 818.567L452.281 865.8C452.714 865.367 390.314 841.534 389.881 829.4Z" fill="#544646"/>
<path d="M1158.61 1465.1H63.1482C63.1482 1465.1 69.6482 1264.03 135.515 1120.6C199.648 981.934 374.281 921.7 454.881 900.9C454.881 903.067 455.315 904.8 455.315 906.967C455.315 906.967 502.115 1046.07 623.881 1095.47C723.115 1135.77 782.048 1108.9 791.148 1064.27C796.781 1035.67 779.015 988.867 769.915 973.7C764.715 969.367 761.248 962.867 759.515 956.367L756.048 942.067C766.881 939.9 777.282 936.867 787.248 932.967C843.148 947.7 927.215 982.8 1026.45 1066C1138.68 1159.6 1158.61 1465.1 1158.61 1465.1Z" fill="#544646"/>
<path d="M277.648 1465.1L258.148 1304.33" stroke="white" stroke-width="13" stroke-miterlimit="10" stroke-linecap="round" stroke-linejoin="round"/>
<path d="M1034.25 1249.73C1034.25 1249.73 1021.25 1281.37 1025.15 1313C1029.05 1344.63 1040.32 1391 1024.28 1465.1" stroke="white" stroke-width="13" stroke-miterlimit="10" stroke-linecap="round" stroke-linejoin="round"/>
<path d="M590.515 1176.07C350.882 1106.73 290.648 965.901 290.648 965.901C290.648 965.901 328.348 942.501 346.115 918.234C356.948 903.501 454.448 886.601 454.448 886.601C456.182 905.234 454.448 886.601 455.748 906.968C455.748 906.968 502.548 1046.07 624.315 1095.47C723.548 1135.77 782.482 1108.9 791.582 1064.27C797.215 1035.67 779.448 988.868 770.348 973.701C765.148 969.368 761.682 962.868 759.948 956.368L756.481 942.068C781.181 936.868 804.581 927.334 824.948 914.768C825.815 916.068 826.248 917.368 826.682 918.668C835.782 940.768 863.515 960.701 863.515 960.701C921.582 1097.63 834.481 1246.7 590.515 1176.07Z" fill="#544646"/>
<path d="M932.415 997.966C932.415 997.966 952.348 988.433 972.282 990.6C992.215 992.766 1087.12 1069.47 1096.22 1085.5C1105.75 1101.53 1105.32 1152.67 1094.05 1159.17C1083.22 1165.23 1076.28 1151.37 1076.28 1151.37C1076.28 1151.37 1084.52 1104.57 1075.42 1095.9C1066.32 1087.23 978.348 1013.57 975.315 1013.13C972.282 1012.7 955.815 1026.57 955.815 1026.57L932.415 997.966Z" fill="#544646"/>
<path d="M277.648 987.133C277.648 987.133 238.648 970.667 221.748 973.267C204.848 975.867 117.315 1051.27 109.082 1084.63C100.848 1118 128.582 1178.23 128.582 1178.23L148.082 1147.47C148.082 1147.47 134.215 1101.53 138.548 1083.33C142.882 1065.13 212.215 1002.73 219.148 1002.73C226.082 1002.73 267.682 1021.37 267.682 1021.37L277.648 987.133Z" fill="#544646"/>
<path d="M457.915 1011.83C499.515 1091.57 582.715 1197.73 721.815 1247.57C847.049 1292.63 839.249 1141.4 821.049 1050.83C696.249 1078.13 571.015 1080.3 457.915 1011.83Z" fill="#443F3F"/>
<path d="M821.048 1051.27C816.281 1027.43 810.648 1007.93 806.748 997.101C798.081 973.701 785.081 952.901 773.381 937.301C767.748 939.034 762.115 940.334 756.481 941.634L759.948 955.934C761.681 962.867 765.148 968.934 770.348 973.267C771.215 975.001 772.515 977.167 773.815 979.767C675.448 1017.9 559.315 967.634 559.315 967.634C524.215 965.901 526.815 1000.57 543.281 1041.73C480.881 982.367 455.748 906.967 455.748 906.967C454.881 893.967 454.015 881.401 452.715 868.834C452.715 868.834 420.648 886.601 426.281 926.467C428.881 943.367 438.848 975.001 458.348 1011.83C571.015 1080.3 696.248 1078.13 821.048 1051.27Z" fill="#E26076"/>
<path d="M389.881 829.4C389.881 829.4 490.848 876.2 572.314 897.867C580.114 900.034 586.181 906.967 587.048 915.2C590.081 944.667 598.314 1013.57 605.248 1040C614.348 1074.23 790.714 1248.43 792.448 1270.53C794.181 1292.63 614.348 1287.43 507.314 1159.17C399.848 1030.9 408.081 1007.5 408.081 1007.5C408.081 1007.5 389.881 884.434 389.881 829.4Z" fill="#544646"/>
<path d="M870.448 875.768L898.182 887.468C906.848 890.934 911.181 900.901 908.148 910.001C895.581 948.134 864.381 1043.03 863.081 1075.97C861.348 1117.57 775.548 1384.93 775.548 1384.93C775.548 1384.93 723.115 1316.03 761.681 1248C792.015 1194.27 793.748 1079.43 790.715 1064.27C786.815 1044.33 770.348 997.534 761.248 968.068C756.481 952.034 755.615 942.068 755.615 942.068C755.615 942.068 815.415 932.101 870.448 875.768Z" fill="#544646"/>
<path d="M548.048 946.833C554.988 946.833 560.615 940.431 560.615 932.533C560.615 924.636 554.988 918.233 548.048 918.233C541.108 918.233 535.481 924.636 535.481 932.533C535.481 940.431 541.108 946.833 548.048 946.833Z" fill="white"/>
<path d="M748.248 1211.17C716.615 1177.37 628.215 1097.2 601.348 1079.43C585.748 1069.03 568.848 1061.23 551.082 1055.6C438.415 1019.2 401.582 959.833 401.582 959.833L396.815 918.233" stroke="#443F3F" stroke-width="13" stroke-miterlimit="10" stroke-linecap="round" stroke-linejoin="round"/>
<path d="M768.615 1235C768.615 1235 758.215 1286.57 762.548 1311.7C766.881 1336.83 770.348 1411.8 770.348 1411.8" stroke="#443F3F" stroke-width="13" stroke-miterlimit="10" stroke-linecap="round" stroke-linejoin="round"/>
<path d="M888.214 973.702C888.214 973.702 866.981 1048.23 857.014 1077.7C846.614 1107.17 799.381 1166.1 786.381 1194.27" stroke="#443F3F" stroke-width="13" stroke-miterlimit="10" stroke-linecap="round" stroke-linejoin="round"/>
<path d="M831.448 1228.93C839.346 1228.93 845.748 1222.53 845.748 1214.63C845.748 1206.74 839.346 1200.33 831.448 1200.33C823.55 1200.33 817.148 1206.74 817.148 1214.63C817.148 1222.53 823.55 1228.93 831.448 1228.93Z" fill="white"/>
<path d="M699.71 590.249C699.71 590.683 699.71 591.116 699.71 591.116L699.276 603.249C698.843 613.649 690.176 621.449 679.776 621.016C669.376 620.583 661.576 611.483 662.443 601.516L662.876 589.383C662.876 587.216 663.743 584.616 664.61 582.883L699.276 584.616C699.276 586.349 699.71 588.083 699.71 590.249Z" fill="#423232"/>
<path d="M880.841 599.783L880.408 611.05C879.974 620.583 871.741 627.95 862.208 627.517C852.674 627.083 845.308 618.85 845.741 609.317L846.174 598.05C846.174 595.883 846.608 593.717 847.474 591.983L879.974 593.283C880.841 595.45 880.841 597.617 880.841 599.783Z" fill="#423232"/>
<path d="M743.042 530.882C752.575 532.182 759.942 522.216 756.475 512.682C754.742 507.482 751.708 502.716 746.942 499.682C732.208 490.582 677.175 489.716 648.142 510.516C622.575 529.582 699.708 524.816 743.042 530.882Z" fill="#423232"/>
<path d="M863.074 535.648C855.274 535.648 850.507 525.682 854.407 517.448C856.574 513.115 859.607 509.215 863.941 507.049C877.374 500.549 913.341 504.449 929.374 526.549C943.674 546.049 899.041 535.215 863.074 535.648Z" fill="#423232"/>
<path d="M727.875 585.483L698.841 584.183L664.175 582.883L656.375 582.449" stroke="#423232" stroke-width="13" stroke-miterlimit="10" stroke-linecap="round" stroke-linejoin="round"/>
<path d="M899.041 594.15L879.975 593.283L847.475 591.983H846.175" stroke="#423232" stroke-width="13" stroke-miterlimit="10" stroke-linecap="round" stroke-linejoin="round"/>
<path d="M820.997 777.919C820.997 777.919 765.964 752.352 739.53 766.219" stroke="#423232" stroke-width="13" stroke-miterlimit="10" stroke-linecap="round" stroke-linejoin="round"/>
<path d="M997.527 480.254C985.394 517.954 958.96 553.054 940.327 573.854C952.027 507.987 948.56 481.987 941.627 451.221C939.46 441.687 936.86 432.587 933.827 423.487C865.794 489.787 749.227 424.354 749.227 424.354C749.227 424.354 724.527 444.721 681.194 439.954C634.827 435.187 622.26 406.587 622.26 406.587C609.694 494.121 526.927 460.754 542.094 547.854C546.427 571.687 546.427 594.654 526.06 618.487C522.594 606.354 505.694 556.954 450.227 563.887C397.794 570.387 377.86 691.721 486.194 733.321C484.894 773.621 420.76 874.587 422.927 761.921C423.36 738.954 357.494 740.687 321.527 664.854C305.927 631.921 310.26 601.154 317.194 579.054C324.127 557.821 323.694 534.854 316.76 513.621C308.96 488.921 302.894 451.654 317.194 406.587C341.46 329.454 393.46 311.687 406.894 302.587C420.327 293.487 415.994 226.754 529.96 189.487C603.627 165.221 682.494 207.254 698.96 204.221C715.427 201.187 830.694 125.354 919.527 196.854C1005.33 266.187 973.26 348.087 973.26 348.087C973.26 348.087 1026.99 389.254 997.527 480.254Z" fill="#423232"/>
<path opacity="0.6" d="M747.932 670.912C747.932 670.912 707.199 696.478 661.265 696.045C615.332 695.612 609.699 659.645 609.265 640.145C609.265 640.145 615.332 668.312 643.065 678.712C670.365 689.112 747.932 670.912 747.932 670.912Z" fill="#B7AEA9"/>
<path opacity="0.6" d="M878.798 666.145C878.798 666.145 888.765 678.278 902.198 686.945C911.298 693.012 923.432 686.512 923.432 675.678C923.865 675.678 898.298 676.978 878.798 666.145Z" fill="#B7AEA9"/>
<path opacity="0.43" d="M763.966 548.28L636.566 675.68C646.532 681.746 658.666 684.78 670.799 683.046L731.466 675.246C749.666 672.646 766.566 663.546 779.566 648.38C784.766 642.746 787.799 634.946 788.232 626.713L790.399 583.813C791.266 565.18 779.566 549.58 763.966 548.28Z" fill="#FE9DAB"/>
<path opacity="0.3" d="M763.966 548.279L642.199 537.012C621.833 535.279 604.499 553.912 604.499 577.312V614.146C604.499 641.012 617.499 663.979 636.566 675.679L763.966 548.279Z" fill="#FE9DAB"/>
<path opacity="0.3" d="M941.632 543.945L865.365 553.912C855.398 555.212 848.032 569.512 848.898 585.978L850.198 624.545C850.632 631.912 852.365 638.845 855.398 644.045C860.598 652.712 867.098 659.212 874.032 663.545L964.598 572.978C962.865 555.645 952.898 542.645 941.632 543.945Z" fill="#FE9DAB"/>
<path opacity="0.43" d="M874.465 663.979C878.365 666.146 881.832 667.879 886.165 668.746L923.865 676.112C945.965 680.446 965.465 651.412 965.465 613.712V580.779C965.465 578.179 965.465 576.012 965.032 573.846L874.465 663.979Z" fill="#FE9DAB"/>
<path d="M763.966 548.279L642.199 537.012C621.833 535.279 604.499 553.912 604.499 577.312V614.146C604.499 655.746 635.699 687.812 670.799 683.046L731.466 675.246C749.666 672.646 766.566 663.546 779.566 648.379C784.766 642.746 787.799 634.946 788.233 626.712L790.399 583.812C791.266 565.179 779.566 549.579 763.966 548.279Z" stroke="white" stroke-width="14.0292" stroke-miterlimit="10" stroke-linecap="round" stroke-linejoin="round"/>
<path d="M865.798 554.344L942.065 544.378C954.632 542.644 965.465 559.544 965.465 580.778V613.711C965.465 650.978 945.965 680.011 923.865 676.111L886.165 668.744C874.898 666.578 864.065 657.911 856.265 644.478C853.232 639.278 851.065 632.344 851.065 624.978L849.765 586.411C848.465 569.944 855.832 555.644 865.798 554.344Z" stroke="white" stroke-width="14.0292" stroke-miterlimit="10" stroke-linecap="round" stroke-linejoin="round"/>
<path d="M604.499 581.645L504.399 579.479" stroke="white" stroke-width="13" stroke-miterlimit="10" stroke-linecap="round" stroke-linejoin="round"/>
<path d="M790.399 584.678C790.399 584.678 842.832 574.278 849.332 584.678" stroke="white" stroke-width="14.0292" stroke-miterlimit="10" stroke-linecap="round" stroke-linejoin="round"/>
</g>
</svg>
