<svg width="1300" height="1300" viewBox="0 0 1300 1300" fill="none" xmlns="http://www.w3.org/2000/svg">
<mask id="mask0_113_6390" style="mask-type:alpha" maskUnits="userSpaceOnUse" x="-1" y="0" width="1302" height="1300">
<path d="M650 1300C290.71 1300 -0.000244141 1008.86 -0.000244141 650C-0.000244141 290.71 291.141 0 650 0C1009.29 0 1300 291.141 1300 650C1300.43 1009.29 1009.29 1300 650 1300Z" fill="#F7C0B5"/>
</mask>
<g mask="url(#mask0_113_6390)">
<path d="M1012.26 1197.33C1009.23 1199.5 1005.76 1201.67 1002.73 1203.83C999.265 1206 996.232 1208.17 992.765 1209.9C989.732 1211.63 987.132 1213.37 984.098 1215.1C983.665 1215.53 983.232 1215.53 982.798 1215.97C972.832 1222.03 962.432 1227.67 952.032 1232.87C948.998 1234.6 945.532 1236.33 942.498 1237.63C942.498 1237.63 942.065 1238.07 941.632 1238.07C938.165 1239.8 934.698 1241.53 931.232 1243.27C924.298 1246.73 916.932 1249.77 909.998 1252.8C906.532 1254.53 902.632 1255.83 899.165 1257.13C895.698 1258.43 891.798 1260.17 888.332 1261.47C884.865 1262.77 880.965 1264.5 877.498 1265.8C877.498 1265.8 877.498 1265.8 877.065 1265.8C873.598 1267.1 869.698 1268.4 866.232 1269.7C858.432 1272.3 850.198 1274.9 842.398 1277.5C839.798 1278.37 836.765 1279.23 834.165 1280.1C825.932 1282.7 817.698 1284.87 809.465 1286.6C806.432 1287.47 803.398 1287.9 799.932 1288.77C792.132 1290.5 783.898 1292.23 776.098 1293.97C774.365 1294.4 773.065 1294.4 771.332 1294.83C768.732 1295.27 765.698 1295.7 763.098 1296.13C759.198 1296.57 755.732 1297.43 751.832 1297.87C750.098 1298.3 748.365 1298.3 746.632 1298.73C744.465 1299.17 741.865 1299.6 739.265 1299.6C732.332 1300.47 724.965 1301.33 718.032 1302.2C715.865 1302.63 713.265 1302.63 711.098 1303.07H710.665C707.632 1303.5 704.598 1303.5 701.565 1303.93C698.532 1304.37 695.498 1304.37 692.465 1304.37C690.732 1304.37 688.565 1304.8 686.832 1304.8C683.365 1304.8 680.332 1305.23 677.298 1305.23C672.965 1305.23 669.065 1305.67 664.732 1305.67C660.398 1305.67 656.498 1305.67 652.165 1305.67C649.132 1305.67 646.098 1305.67 643.065 1305.67C460.632 1303.07 295.965 1225.5 178.965 1102.43C178.965 1102.43 178.965 1102 178.532 1102C191.965 1075.57 241.798 1027.9 293.798 988.466C359.665 938.632 452.832 907.866 452.832 907.866C452.832 907.866 513.932 897.899 740.565 945.132C913.465 981.532 987.132 1129.3 1012.26 1197.33Z" fill="#C99589"/>
<path d="M788.665 1065.16C779.565 1109.8 720.632 1136.23 621.398 1096.36C499.632 1046.96 452.832 907.865 452.832 907.865C446.332 808.198 431.165 722.831 431.165 722.831C571.998 710.698 738.398 875.365 738.398 875.365L757.465 956.831C759.198 963.765 762.665 969.831 767.865 974.165C776.965 989.765 794.732 1036.56 788.665 1065.16Z" fill="#C99589"/>
<path d="M767.865 974.599C685.098 970.266 623.998 958.133 558.565 840.699C614.031 889.666 679.465 908.299 748.365 916.966L757.465 956.832C759.198 964.199 762.665 970.266 767.865 974.599Z" fill="#A56663"/>
<path d="M939.031 452.431C946.831 488.831 950.732 518.298 929.498 615.365C908.265 712.431 948.998 809.498 846.731 898.331C777.831 958.131 657.365 969.398 561.165 903.965C528.665 881.865 498.765 851.098 474.498 810.798C455.432 779.165 433.331 749.265 408.631 721.965C374.398 684.698 333.232 609.731 353.598 477.131C386.532 261.332 600.165 236.632 726.265 260.465C852.365 284.298 917.798 356.231 939.031 452.431Z" fill="#C99589"/>
<path d="M524.331 621.865C524.331 621.865 510.898 556.865 447.631 564.665C393.031 571.598 373.965 702.465 497.898 738.865" fill="#C99589"/>
<path d="M493.999 679.499C493.999 679.499 478.399 669.532 480.132 652.199C482.732 631.832 480.132 619.265 470.599 615.365C446.765 605.399 441.999 633.132 442.865 636.599" stroke="#423232" stroke-width="13" stroke-miterlimit="10" stroke-linecap="round" stroke-linejoin="round"/>
<path d="M824.631 721.531C824.631 721.531 841.098 722.398 856.698 703.765C865.365 693.365 872.731 680.365 867.965 676.465C863.198 672.131 784.765 684.265 779.565 694.665C774.365 705.065 804.698 721.531 824.631 721.531Z" fill="#A56663"/>
<path d="M837.632 575.932C837.632 575.932 838.499 617.099 864.932 663.032C876.632 683.399 858.865 716.765 820.299 722.399" stroke="#423232" stroke-width="13" stroke-miterlimit="10" stroke-linecap="round" stroke-linejoin="round"/>
<path d="M496.384 947.753C496.384 947.753 487.718 894.019 472.984 897.052C404.518 912.652 204.751 970.719 134.984 1121.52C69.1176 1264.95 63.051 1466.02 63.051 1466.02H1158.95C1158.95 1466.02 1139.02 1160.52 1027.22 1066.92C960.918 1011.02 901.118 976.786 852.151 955.986C787.151 928.252 721.718 986.319 703.084 985.019C669.718 983.286 496.384 947.753 496.384 947.753Z" fill="#544D4D"/>
<path d="M277.551 1466.02L258.051 1305.25" stroke="white" stroke-width="13" stroke-miterlimit="10" stroke-linecap="round" stroke-linejoin="round"/>
<path d="M1034.15 1250.65C1034.15 1250.65 1021.15 1282.29 1025.05 1313.92C1028.95 1345.55 1040.22 1391.92 1024.18 1466.02" stroke="white" stroke-width="13" stroke-miterlimit="10" stroke-linecap="round" stroke-linejoin="round"/>
<path d="M446.551 853.287C446.551 853.287 415.351 864.553 409.717 870.62C404.084 876.687 401.484 880.587 401.484 880.587C401.484 880.587 385.884 897.92 377.217 939.953C373.317 957.72 382.417 986.753 375.484 1009.72C355.551 1073.42 450.017 1171.35 606.017 1228.99C724.317 1272.75 854.751 1232.89 872.951 1150.55C890.284 1071.25 879.884 1035.29 871.651 1009.72C855.184 960.32 849.984 946.453 827.884 927.387C814.017 915.253 804.484 940.387 752.484 954.687C736.451 959.02 716.951 962.487 691.817 963.353C542.317 968.987 479.051 884.053 456.517 859.787C450.884 855.02 448.284 852.42 446.551 853.287Z" fill="white"/>
<path d="M751.184 954.253C735.151 958.586 715.651 962.053 690.518 962.919C541.018 968.553 477.751 883.619 455.218 859.353" stroke="#CCCCCC" stroke-width="13" stroke-miterlimit="10" stroke-linecap="round" stroke-linejoin="round"/>
<path d="M830.484 911.787C869.918 944.72 938.384 1030.95 921.918 1223.79C913.684 1319.12 960.051 1358.55 949.651 1373.72C947.918 1376.32 945.751 1377.62 944.018 1378.05C936.651 1379.79 929.718 1383.25 926.251 1390.19C924.951 1393.22 922.784 1395.39 919.751 1397.12C917.151 1398.85 914.118 1398.85 911.518 1398.42C902.418 1396.25 892.451 1401.45 886.818 1409.25C884.651 1412.29 882.051 1414.45 878.151 1415.32C875.551 1416.19 872.951 1415.75 871.218 1415.32C863.851 1413.15 855.618 1415.32 849.118 1420.52C847.384 1421.82 845.651 1422.69 843.484 1422.69C839.584 1422.69 836.551 1420.95 833.951 1418.35C827.884 1412.72 819.218 1410.55 810.551 1413.59C809.684 1414.02 809.251 1414.02 808.384 1414.02C802.318 1414.89 797.551 1410.12 794.084 1401.89C790.618 1394.09 782.384 1390.62 773.718 1391.49C771.984 1391.49 770.251 1391.49 768.084 1391.05C751.184 1387.15 729.518 1363.75 729.084 1335.15C728.651 1306.99 735.151 1258.02 745.984 1235.05C779.351 1164.42 791.484 1113.72 793.218 1075.59C796.684 1005.82 752.484 943.42 756.818 942.12C801.018 933.02 830.484 911.787 830.484 911.787Z" fill="white"/>
<path d="M745.551 1235.05C778.918 1164.42 791.051 1113.72 792.784 1075.59C795.384 1021.85 769.384 972.02 759.851 951.654" stroke="#CCCCCC" stroke-width="13" stroke-miterlimit="10" stroke-linecap="round" stroke-linejoin="round"/>
<path d="M728.651 1335.15C728.217 1306.99 734.717 1258.02 745.551 1235.05C778.917 1164.42 791.051 1113.72 792.784 1075.59" stroke="#CCCCCC" stroke-width="13" stroke-miterlimit="10" stroke-linecap="round" stroke-linejoin="round"/>
<path d="M767.218 1183.92C767.218 1183.92 635.485 1196.92 548.818 1131.49" stroke="#CCCCCC" stroke-width="13" stroke-miterlimit="10" stroke-linecap="round" stroke-linejoin="round"/>
<path d="M802.752 955.554C814.885 973.32 828.752 999.32 832.218 1031.39" stroke="#CCCCCC" stroke-width="13" stroke-miterlimit="10" stroke-linecap="round" stroke-linejoin="round"/>
<path d="M857.785 1415.32C857.785 1415.32 835.685 1368.52 857.785 1266.69C881.185 1158.35 870.352 1105.05 870.352 1105.05" stroke="#CCCCCC" stroke-width="13" stroke-miterlimit="10" stroke-linecap="round" stroke-linejoin="round"/>
<path d="M376.351 961.622C376.351 961.622 405.385 1021.42 440.485 1049.16" stroke="#CCCCCC" stroke-width="13" stroke-miterlimit="10" stroke-linecap="round" stroke-linejoin="round"/>
<path d="M789.319 1105.05C789.319 1105.05 706.985 1110.69 648.919 1088.15" stroke="#CCCCCC" stroke-width="13" stroke-miterlimit="10" stroke-linecap="round" stroke-linejoin="round"/>
<path d="M683.943 619.44C673.543 619.007 665.743 610.34 666.61 599.94L667.043 587.807C667.476 577.407 676.143 569.607 686.543 570.473C696.943 570.907 704.743 579.573 703.876 589.973L703.443 602.107C703.01 612.074 694.343 619.874 683.943 619.44Z" fill="#423232"/>
<path d="M866.375 625.94C856.842 625.506 849.475 617.273 849.909 607.74L850.342 596.473C850.775 586.94 859.009 579.573 868.542 580.006C878.075 580.44 885.442 588.673 885.009 598.206L884.575 609.473C884.142 619.006 875.909 626.373 866.375 625.94Z" fill="#423232"/>
<path d="M725.977 594.306C725.977 594.306 714.71 578.273 695.21 575.239C679.177 572.639 661.41 580.439 658.81 589.539" stroke="#423232" stroke-width="13" stroke-miterlimit="10" stroke-linecap="round" stroke-linejoin="round"/>
<path d="M853.809 598.207C853.809 598.207 853.809 584.341 873.743 584.341C890.209 584.341 897.142 599.507 897.142 599.507" stroke="#423232" stroke-width="13" stroke-miterlimit="10" stroke-linecap="round" stroke-linejoin="round"/>
<path d="M743.742 524.539C752.842 527.572 761.942 519.339 760.209 509.372C759.342 504.172 757.176 498.972 752.842 495.072C739.842 483.372 686.109 472.973 653.609 488.139C625.009 502.006 702.142 510.672 743.742 524.539Z" fill="#423232"/>
<path d="M873.307 531.474C865.941 534.074 858.141 526.274 859.441 517.174C859.874 512.407 861.607 507.641 865.074 504.174C875.474 493.774 911.007 485.541 933.541 501.574C953.041 515.007 907.107 518.907 873.307 531.474Z" fill="#423232"/>
<path d="M820.997 777.919C820.997 777.919 765.964 752.352 739.53 766.219" stroke="#423232" stroke-width="13" stroke-miterlimit="10" stroke-linecap="round" stroke-linejoin="round"/>
<path d="M829.007 730.178C829.007 730.178 812.974 695.945 753.607 717.178C715.474 731.045 678.207 752.712 657.407 730.178C657.407 730.178 668.241 786.512 735.841 798.645C819.041 812.945 836.807 755.745 829.007 730.178Z" fill="#423232"/>
<path d="M825.54 724.978C825.54 724.978 850.24 701.578 874.074 723.678C895.74 743.612 906.14 746.645 913.94 734.512C913.94 734.512 915.674 782.178 877.974 788.245C836.807 795.178 821.64 762.245 821.64 762.245" fill="#423232"/>
</g>
</svg>
