<svg width="1300" height="1300" viewBox="0 0 1300 1300" fill="none" xmlns="http://www.w3.org/2000/svg">
<mask id="mask0_113_6331" style="mask-type:alpha" maskUnits="userSpaceOnUse" x="-1" y="0" width="1302" height="1300">
<path d="M650 1300C290.71 1300 -0.00012207 1008.86 -0.00012207 650C-0.00012207 290.71 291.141 0 650 0C1009.29 0 1300 291.141 1300 650C1300.43 1009.29 1009.29 1300 650 1300Z" fill="#F7C0B5"/>
</mask>
<g mask="url(#mask0_113_6331)">
<path d="M1014 1197.33C1010.97 1199.5 1007.5 1201.67 1004.47 1203.83C1001 1206 997.967 1208.17 994.5 1209.9C991.467 1211.63 988.867 1213.37 985.834 1215.1C985.4 1215.53 984.967 1215.53 984.534 1215.97C974.567 1222.03 964.167 1227.67 953.767 1232.87C950.734 1234.6 947.267 1236.33 944.234 1237.63C944.234 1237.63 943.8 1238.07 943.367 1238.07C939.9 1239.8 936.434 1241.53 932.967 1243.27C926.034 1246.73 918.667 1249.77 911.734 1252.8C908.267 1254.53 904.367 1255.83 900.9 1257.13C897.434 1258.43 893.534 1260.17 890.067 1261.47C886.6 1262.77 882.7 1264.5 879.234 1265.8C879.234 1265.8 879.234 1265.8 878.8 1265.8C875.334 1267.1 871.434 1268.4 867.967 1269.7C860.167 1272.3 851.934 1274.9 844.134 1277.5C841.534 1278.37 838.5 1279.23 835.9 1280.1C827.667 1282.7 819.434 1284.87 811.2 1286.6C808.167 1287.47 805.134 1287.9 801.667 1288.77C793.867 1290.5 785.634 1292.23 777.834 1293.97C776.1 1294.4 774.8 1294.4 773.067 1294.83C770.467 1295.27 767.434 1295.7 764.834 1296.13C760.934 1296.57 757.467 1297.43 753.567 1297.87C751.834 1298.3 750.1 1298.3 748.367 1298.73C746.2 1299.17 743.6 1299.6 741 1299.6C734.067 1300.47 726.7 1301.33 719.767 1302.2C717.6 1302.63 715 1302.63 712.834 1303.07H712.4C709.367 1303.5 706.334 1303.5 703.3 1303.93C700.267 1304.37 697.234 1304.37 694.2 1304.37C692.467 1304.37 690.3 1304.8 688.567 1304.8C685.1 1304.8 682.067 1305.23 679.034 1305.23C674.7 1305.23 670.8 1305.67 666.467 1305.67C662.134 1305.67 658.234 1305.67 653.9 1305.67C650.867 1305.67 647.834 1305.67 644.8 1305.67C462.367 1303.07 297.7 1225.5 180.7 1102.43C180.7 1102.43 180.7 1102 180.267 1102C193.7 1075.57 243.534 1027.9 295.534 988.466C361.4 938.632 454.567 907.866 454.567 907.866C454.567 907.866 515.667 897.899 742.3 945.132C915.2 981.532 988.867 1129.3 1014 1197.33Z" fill="#F7D3B5"/>
<path d="M790.4 1065.16C781.3 1109.8 722.367 1136.23 623.134 1096.36C501.367 1046.96 454.567 907.865 454.567 907.865C448.067 808.198 432.9 722.831 432.9 722.831C573.734 710.698 740.134 875.365 740.134 875.365L759.2 956.831C760.934 963.765 764.4 969.831 769.6 974.165C778.7 989.765 796.467 1036.56 790.4 1065.16Z" fill="#F7D3B5"/>
<path d="M769.6 974.599C686.833 970.266 625.733 958.133 560.3 840.699C615.767 889.666 681.2 908.299 750.1 916.966L759.2 956.832C760.933 964.199 764.4 970.266 769.6 974.599Z" fill="#EFBDA5"/>
<path d="M940.767 452.431C948.567 488.831 952.467 518.298 931.234 615.365C910 712.431 950.733 809.498 848.467 898.331C779.567 958.131 659.1 969.398 562.9 903.965C530.4 881.865 500.5 851.098 476.234 810.798C457.167 779.165 435.067 749.265 410.367 721.965C376.134 684.698 334.967 609.731 355.334 477.131C388.267 261.332 601.9 236.632 728 260.465C854.1 284.298 919.534 356.231 940.767 452.431Z" fill="#F7D3B5"/>
<path d="M526.067 621.865C526.067 621.865 512.633 556.865 449.367 564.665C394.767 571.598 375.7 702.465 499.633 738.865" fill="#F7D3B5"/>
<path d="M495.734 679.499C495.734 679.499 480.134 669.532 481.867 652.199C484.467 631.832 481.867 619.265 472.334 615.365C448.501 605.399 443.734 633.132 444.601 636.599" stroke="#423232" stroke-width="13" stroke-miterlimit="10" stroke-linecap="round" stroke-linejoin="round"/>
<path d="M826.367 721.531C826.367 721.531 842.833 722.398 858.433 703.765C867.1 693.365 874.467 680.365 869.7 676.465C864.933 672.131 786.5 684.265 781.3 694.665C776.1 705.065 806.433 721.531 826.367 721.531Z" fill="#EFBDA5"/>
<path d="M839.367 575.932C839.367 575.932 840.234 617.099 866.667 663.032C878.367 683.399 860.601 716.765 822.034 722.399" stroke="#423232" stroke-width="13" stroke-miterlimit="10" stroke-linecap="round" stroke-linejoin="round"/>
<path opacity="0.42" d="M604.501 743.631C629.151 743.631 649.134 727.14 649.134 706.797C649.134 686.455 629.151 669.964 604.501 669.964C579.85 669.964 559.867 686.455 559.867 706.797C559.867 727.14 579.85 743.631 604.501 743.631Z" fill="#ED938A"/>
<path opacity="0.42" d="M924.3 670.832C923 695.098 923.434 718.932 921.7 742.765C902.634 738.432 888.767 724.132 888.767 707.232C888.767 689.032 903.934 674.298 924.3 670.832Z" fill="#ED938A"/>
<path d="M1058.14 1116.23C996.609 1036.93 901.276 1004 848.843 984.5C844.509 962.834 780.376 936.834 756.543 942.034L760.009 956.334C761.743 963.267 770.409 995.334 756.976 1036.5C745.709 1071.17 700.209 1086.77 623.076 1051.67C472.709 983.634 455.376 906.934 455.376 906.934C453.209 871.834 327.976 955.034 279.009 999.234C254.743 1020.9 244.343 1030 219.209 1049.5C164.176 1091.53 98.7426 1152.2 74.0426 1235.83C32.4426 1377.97 39.376 1465.07 39.376 1465.07H1158.24C1158.24 1465.5 1141.78 1224.13 1058.14 1116.23Z" fill="#A862F9"/>
<path d="M1017.41 1249.7C1017.41 1249.7 1041.68 1385.77 1032.14 1465.5" stroke="#544D4D" stroke-width="13" stroke-miterlimit="10" stroke-linecap="round" stroke-linejoin="round"/>
<path d="M266.876 1025.67C266.876 1025.67 239.576 1096.3 277.276 1124.47C314.976 1152.2 389.943 1138.33 389.943 1138.33C389.943 1138.33 395.143 1227.6 467.076 1234.53C539.01 1241.47 580.61 1187.3 580.61 1187.3C580.61 1187.3 639.543 1267.03 724.043 1261.4C808.543 1255.33 804.643 1156.97 804.643 1156.97C804.643 1156.97 838.01 1179.07 878.31 1163.9C927.276 1145.7 910.376 1065.1 878.31 1042.57C878.31 1042.57 943.31 1051.23 923.376 1015.27C903.01 979.3 811.576 937.267 755.676 942.467C755.676 942.467 764.343 1009.63 698.476 1023.07C618.31 1039.1 527.743 1004.87 480.943 937.7C451.043 894.8 454.51 893.067 428.943 899.133C403.376 905.2 256.043 984.933 266.876 1025.67Z" fill="white"/>
<path d="M370.876 927.3C377.376 944.2 368.276 944.2 379.976 963.267C385.61 972.367 399.476 977.567 408.143 988.4C415.076 997.067 416.81 1012.23 425.91 1021.33C434.143 1029.57 448.876 1031.3 458.843 1039.53C467.943 1046.9 472.71 1061.2 483.543 1067.7C493.51 1073.77 508.243 1072.47 519.51 1077.67C529.91 1082.87 538.143 1095.43 549.843 1099.33C561.11 1103.23 574.976 1098.47 587.543 1101.07C602.71 1104.53 615.71 1115.8 629.576 1117.53C645.61 1119.7 660.776 1111.9 674.21 1111.9C690.243 1111.9 705.843 1118.83 718.843 1116.23C734.876 1113.2 745.71 1100.2 757.843 1093.7C772.143 1086.33 788.61 1084.17 798.143 1073.77C808.543 1062.5 808.543 1045.17 813.743 1031.73C819.376 1017.43 830.643 1004.87 831.51 990.567C832.376 974.967 822.41 960.667 818.943 947.667" stroke="#E2E2E2" stroke-width="13" stroke-miterlimit="10" stroke-linecap="round" stroke-linejoin="round"/>
<path d="M377.376 1027.4C377.376 1027.4 283.776 1030 314.543 1072.9C345.309 1115.37 377.376 1027.4 377.376 1027.4Z" fill="#A862F9"/>
<path d="M499.142 1116.67C499.142 1116.67 421.576 1166.07 468.809 1186.43C516.042 1206.8 499.142 1116.67 499.142 1116.67Z" fill="#A862F9"/>
<path d="M715.809 1145.7C715.809 1145.7 683.743 1228.47 732.276 1217.2C780.809 1206.37 715.809 1145.7 715.809 1145.7Z" fill="#A862F9"/>
<path d="M834.543 1079.4C834.543 1079.4 847.11 1152.2 877.01 1123.6C906.476 1094.57 834.543 1079.4 834.543 1079.4Z" fill="#A862F9"/>
<path d="M857.509 984.067C857.509 984.067 890.009 1035.2 903.876 1013.53C917.742 991.434 857.509 984.067 857.509 984.067Z" fill="#A862F9"/>
<path d="M477.909 932.501C477.909 932.501 448.009 948.101 439.776 962.401" stroke="#E2E2E2" stroke-width="13" stroke-miterlimit="10" stroke-linecap="round" stroke-linejoin="round"/>
<path d="M521.242 974.967C521.242 974.967 496.542 1004.43 493.509 1014.83" stroke="#E2E2E2" stroke-width="13" stroke-miterlimit="10" stroke-linecap="round" stroke-linejoin="round"/>
<path d="M577.143 1010.93C577.143 1010.93 564.143 1036.5 560.243 1050.37" stroke="#E2E2E2" stroke-width="13" stroke-miterlimit="10" stroke-linecap="round" stroke-linejoin="round"/>
<path d="M641.276 1027.4C641.276 1027.4 639.543 1051.23 641.276 1069" stroke="#E2E2E2" stroke-width="13" stroke-miterlimit="10" stroke-linecap="round" stroke-linejoin="round"/>
<path d="M705.409 1022.63C705.409 1022.63 714.076 1048.63 717.543 1065.1" stroke="#E2E2E2" stroke-width="13" stroke-miterlimit="10" stroke-linecap="round" stroke-linejoin="round"/>
<path d="M747.009 989.266C747.009 989.266 770.842 1006.6 774.742 1018.73" stroke="#E2E2E2" stroke-width="13" stroke-miterlimit="10" stroke-linecap="round" stroke-linejoin="round"/>
<path d="M756.543 952.001C756.543 952.001 778.643 952.868 787.743 966.734" stroke="#E2E2E2" stroke-width="13" stroke-miterlimit="10" stroke-linecap="round" stroke-linejoin="round"/>
<path d="M683.943 619.44C673.543 619.007 665.743 610.34 666.61 599.94L667.043 587.807C667.476 577.407 676.143 569.607 686.543 570.473C696.943 570.907 704.743 579.573 703.876 589.973L703.443 602.107C703.01 612.074 694.343 619.874 683.943 619.44Z" fill="#423232"/>
<path d="M866.375 625.94C856.842 625.506 849.476 617.273 849.909 607.74L850.342 596.473C850.776 586.94 859.009 579.573 868.542 580.006C878.075 580.44 885.442 588.673 885.009 598.206L884.576 609.473C884.142 619.006 875.909 626.373 866.375 625.94Z" fill="#423232"/>
<path d="M725.977 594.306C725.977 594.306 714.71 578.273 695.21 575.239C679.177 572.639 661.41 580.439 658.81 589.539" stroke="#423232" stroke-width="13" stroke-miterlimit="10" stroke-linecap="round" stroke-linejoin="round"/>
<path d="M853.809 598.207C853.809 598.207 853.809 584.341 873.743 584.341C890.209 584.341 897.143 599.507 897.143 599.507" stroke="#423232" stroke-width="13" stroke-miterlimit="10" stroke-linecap="round" stroke-linejoin="round"/>
<path d="M743.743 524.539C752.843 527.572 761.943 519.339 760.209 509.372C759.343 504.172 757.176 498.972 752.843 495.072C739.843 483.372 686.109 472.973 653.609 488.139C625.009 502.006 702.143 510.672 743.743 524.539Z" fill="#423232"/>
<path d="M873.308 531.474C865.941 534.074 858.141 526.274 859.441 517.174C859.874 512.407 861.608 507.641 865.074 504.174C875.474 493.774 911.008 485.541 933.541 501.574C953.041 515.007 907.108 518.907 873.308 531.474Z" fill="#423232"/>
<path d="M809.297 750.856C809.297 750.856 820.564 744.789 826.63 755.189C832.697 765.589 817.964 777.289 817.964 777.289C817.964 777.289 834.43 789.423 823.164 804.589C814.064 816.723 800.197 815.856 800.197 815.856" stroke="#423232" stroke-width="13" stroke-miterlimit="10" stroke-linecap="round" stroke-linejoin="round"/>
<path d="M908.422 390.617C920.122 324.75 949.155 481.616 942.655 450.85C940.489 441.316 937.889 432.217 934.855 423.117C911.889 404.917 887.622 393.216 850.789 388.016C751.555 374.583 673.122 383.683 589.489 401.883C537.055 413.15 547.889 594.283 527.522 618.117C524.055 605.983 507.155 556.583 451.689 563.516C399.255 570.016 379.322 691.35 487.655 732.95C486.789 756.783 464.689 800.983 446.922 810.95C446.922 810.95 443.889 779.317 409.222 737.717C374.555 696.117 305.222 588.216 352.022 430.483C398.822 272.75 610.722 190.417 807.889 270.583C841.689 284.45 869.422 303.95 891.522 324.317C943.522 371.983 929.655 303.95 921.422 374.15C918.388 396.683 921.422 373.717 908.422 390.617Z" fill="#423232"/>
<path d="M864.656 372.851C864.656 372.851 745.056 571.751 507.156 511.084C507.156 511.084 460.789 394.517 561.756 349.884C663.156 305.684 840.389 333.851 864.656 372.851Z" fill="#423232"/>
<path d="M823.056 384.55C823.056 384.55 870.722 393.65 904.089 429.183C935.289 462.117 941.789 318.683 948.722 350.317C948.722 350.317 966.489 393.65 889.356 347.717C812.222 301.35 823.056 384.55 823.056 384.55Z" fill="#423232"/>
<path d="M351.589 625.051C351.589 625.051 298.722 591.251 221.589 625.051C151.822 655.818 188.222 743.784 232.855 737.284C232.855 737.284 148.789 769.784 179.989 839.117C205.122 895.017 281.389 862.517 281.389 862.517C281.389 862.517 245.422 920.151 298.289 946.151C352.022 972.584 379.322 898.051 379.322 898.051C379.322 898.051 391.889 959.151 446.922 949.617C514.955 937.917 480.289 856.884 480.289 856.884C480.289 856.884 517.122 881.151 533.589 839.117C552.655 791.017 468.589 752.884 468.589 752.884C468.589 752.884 380.189 651.484 376.289 611.617C371.955 571.317 351.589 625.051 351.589 625.051Z" fill="#423232"/>
<path d="M995.955 822.216C995.955 822.216 1057.06 863.816 1021.09 915.816C978.188 978.216 906.255 910.183 906.255 910.183C919.255 952.216 872.455 1021.55 808.755 966.949C796.622 956.549 787.089 945.716 779.722 935.316C806.155 926.649 830.422 913.649 850.355 896.316C907.555 846.916 920.122 794.483 923.589 741.183C925.322 717.349 924.889 693.516 926.189 669.249C927.055 652.783 928.355 636.749 931.389 620.283C954.789 603.383 998.989 602.516 1010.69 628.083C1038.42 689.183 986.855 714.316 983.822 715.616C987.289 714.749 1068.76 697.849 1069.19 764.149C1070.06 833.916 995.955 822.216 995.955 822.216Z" fill="#423232"/>
<path d="M943.088 424.85C943.088 424.85 1037.55 491.15 1017.19 361.15C1001.59 261.916 926.622 203.85 808.322 238.95C808.322 238.95 606.822 164.416 446.922 256.716C311.722 334.716 303.922 531.016 352.022 625.05C352.022 625.05 358.088 436.55 490.688 391.916C622.855 347.283 703.455 312.616 822.622 352.916C941.788 393.216 943.088 424.85 943.088 424.85Z" fill="#423232"/>
<path d="M843.855 258.018C843.855 258.018 830.855 177.851 761.522 167.451C691.756 157.051 722.522 239.384 722.522 239.384C722.522 239.384 820.022 276.651 843.855 258.018Z" fill="#423232"/>
<path d="M745.488 225.951C745.488 225.951 709.088 175.685 639.755 185.218C570.422 194.751 614.188 251.518 614.188 251.518C614.188 251.518 760.655 290.951 745.488 225.951Z" fill="#423232"/>
<path d="M843.855 390.616C843.855 390.616 893.689 412.716 924.455 457.35C955.222 501.983 1010.69 491.583 1018.49 408.816C1026.72 326.483 865.955 303.083 843.855 390.616Z" fill="#423232"/>
<path d="M475.238 697.089L482.604 711.822C483.904 714.422 486.504 716.156 489.104 716.589L505.571 719.189C512.938 720.056 515.538 729.156 510.338 734.356L498.638 746.056C496.471 748.223 495.604 750.823 496.038 753.856L498.638 770.322C499.938 777.689 492.138 782.889 485.638 779.856L470.905 772.056C468.305 770.756 465.271 770.756 462.671 772.056L447.938 779.856C441.438 783.323 433.638 777.689 434.938 770.322L437.538 753.856C437.971 750.823 437.104 748.223 434.938 746.056L423.238 734.356C418.038 729.156 421.071 720.489 428.004 719.189L444.471 716.589C447.504 716.156 449.671 714.422 450.971 711.822L458.338 697.089C462.671 690.156 472.205 690.156 475.238 697.089Z" fill="#FFDE55"/>
<path d="M941.071 745.621C938.905 747.788 938.038 750.821 938.471 753.421L941.071 769.888C942.371 777.255 934.571 782.888 928.071 779.421L919.405 774.655C922.438 753.421 923.305 731.755 923.738 710.088L924.605 711.821C925.905 714.421 928.505 716.155 931.105 716.588L947.571 718.755C954.938 719.621 957.971 728.721 952.338 733.921L941.071 745.621Z" fill="#FFDE55"/>
</g>
</svg>
