<svg width="1300" height="1300" viewBox="0 0 1300 1300" fill="none" xmlns="http://www.w3.org/2000/svg">
<mask id="mask0_113_6283" style="mask-type:alpha" maskUnits="userSpaceOnUse" x="0" y="0" width="1301" height="1300">
<path d="M650 1300C290.71 1300 0 1008.86 0 650C0 290.71 291.141 0 650 0C1009.29 0 1300 291.141 1300 650C1300.43 1009.29 1009.29 1300 650 1300Z" fill="#F7C0B5"/>
</mask>
<g mask="url(#mask0_113_6283)">
<path d="M1014 1197.33C1010.97 1199.5 1007.5 1201.67 1004.47 1203.83C1001 1206 997.967 1208.17 994.5 1209.9C991.467 1211.63 988.867 1213.37 985.833 1215.1C985.4 1215.53 984.967 1215.53 984.533 1215.97C974.567 1222.03 964.167 1227.67 953.767 1232.87C950.733 1234.6 947.267 1236.33 944.233 1237.63C944.233 1237.63 943.8 1238.07 943.367 1238.07C939.9 1239.8 936.433 1241.53 932.967 1243.27C926.033 1246.73 918.667 1249.77 911.733 1252.8C908.267 1254.53 904.367 1255.83 900.9 1257.13C897.433 1258.43 893.533 1260.17 890.067 1261.47C886.6 1262.77 882.7 1264.5 879.233 1265.8C879.233 1265.8 879.233 1265.8 878.8 1265.8C875.333 1267.1 871.433 1268.4 867.967 1269.7C860.167 1272.3 851.933 1274.9 844.133 1277.5C841.533 1278.37 838.5 1279.23 835.9 1280.1C827.667 1282.7 819.433 1284.87 811.2 1286.6C808.167 1287.47 805.133 1287.9 801.667 1288.77C793.867 1290.5 785.633 1292.23 777.833 1293.97C776.1 1294.4 774.8 1294.4 773.067 1294.83C770.467 1295.27 767.433 1295.7 764.833 1296.13C760.933 1296.57 757.467 1297.43 753.567 1297.87C751.833 1298.3 750.1 1298.3 748.367 1298.73C746.2 1299.17 743.6 1299.6 741 1299.6C734.067 1300.47 726.7 1301.33 719.767 1302.2C717.6 1302.63 715 1302.63 712.833 1303.07H712.4C709.367 1303.5 706.333 1303.5 703.3 1303.93C700.267 1304.37 697.233 1304.37 694.2 1304.37C692.467 1304.37 690.3 1304.8 688.567 1304.8C685.1 1304.8 682.067 1305.23 679.033 1305.23C674.7 1305.23 670.8 1305.67 666.467 1305.67C662.133 1305.67 658.233 1305.67 653.9 1305.67C650.867 1305.67 647.833 1305.67 644.8 1305.67C462.367 1303.07 297.7 1225.5 180.7 1102.43C180.7 1102.43 180.7 1102 180.267 1102C193.7 1075.57 243.534 1027.9 295.534 988.466C361.4 938.632 454.567 907.866 454.567 907.866C454.567 907.866 515.667 897.899 742.3 945.132C915.2 981.532 988.867 1129.3 1014 1197.33Z" fill="#F7D3B5"/>
<path d="M790.4 1065.16C781.3 1109.8 722.367 1136.23 623.134 1096.36C501.367 1046.96 454.567 907.865 454.567 907.865C448.067 808.198 432.9 722.831 432.9 722.831C573.734 710.698 740.134 875.365 740.134 875.365L759.2 956.831C760.934 963.765 764.4 969.831 769.6 974.165C778.7 989.765 796.467 1036.56 790.4 1065.16Z" fill="#F7D3B5"/>
<path d="M769.6 974.599C686.833 970.266 625.733 958.133 560.3 840.699C615.767 889.666 681.2 908.299 750.1 916.966L759.2 956.832C760.933 964.199 764.4 970.266 769.6 974.599Z" fill="#EFBDA5"/>
<path d="M940.767 452.431C948.567 488.831 952.467 518.298 931.233 615.365C910 712.431 950.733 809.498 848.467 898.331C779.567 958.131 659.1 969.398 562.9 903.965C530.4 881.865 500.5 851.098 476.233 810.798C457.167 779.165 435.067 749.265 410.367 721.965C376.133 684.698 334.967 609.731 355.333 477.131C388.267 261.332 601.9 236.632 728 260.465C854.1 284.298 919.533 356.231 940.767 452.431Z" fill="#F7D3B5"/>
<path d="M526.067 621.865C526.067 621.865 512.633 556.865 449.367 564.665C394.767 571.598 375.7 702.465 499.633 738.865" fill="#F7D3B5"/>
<path d="M495.734 679.499C495.734 679.499 480.134 669.532 481.867 652.199C484.467 631.832 481.867 619.265 472.334 615.365C448.501 605.399 443.734 633.132 444.601 636.599" stroke="#423232" stroke-width="13" stroke-miterlimit="10" stroke-linecap="round" stroke-linejoin="round"/>
<path d="M826.367 721.531C826.367 721.531 842.833 722.398 858.433 703.765C867.1 693.365 874.467 680.365 869.7 676.465C864.933 672.131 786.5 684.265 781.3 694.665C776.1 705.065 806.433 721.531 826.367 721.531Z" fill="#EFBDA5"/>
<path d="M839.367 575.932C839.367 575.932 840.234 617.099 866.667 663.032C878.367 683.399 860.601 716.765 822.034 722.399" stroke="#423232" stroke-width="13" stroke-miterlimit="10" stroke-linecap="round" stroke-linejoin="round"/>
<path opacity="0.42" d="M604.501 743.631C629.151 743.631 649.134 727.14 649.134 706.797C649.134 686.455 629.151 669.964 604.501 669.964C579.85 669.964 559.867 686.455 559.867 706.797C559.867 727.14 579.85 743.631 604.501 743.631Z" fill="#ED938A"/>
<path opacity="0.42" d="M924.3 670.832C923 695.098 923.434 718.932 921.7 742.765C902.634 738.432 888.767 724.132 888.767 707.232C888.767 689.032 903.933 674.298 924.3 670.832Z" fill="#ED938A"/>
<path d="M907.837 1029.6C907.837 1029.6 840.67 966.766 774.37 951.599C774.37 951.599 782.17 1063.4 703.303 1055.17C575.903 1041.73 455.87 906.533 455.87 906.533C455.87 906.533 372.237 929.933 304.637 981.499C304.637 981.499 313.737 1114.53 465.837 1180.4C617.937 1246.27 829.837 1213.77 880.103 1171.3C930.37 1128.83 920.403 1043.47 907.837 1029.6Z" fill="white"/>
<path d="M267.37 1010.1C267.37 1010.1 183.303 1056.47 137.37 1188.63C91.4366 1320.8 92.7366 1517.53 92.7366 1517.53H1081.6C1081.6 1517.53 1053.87 1192.97 955.937 1084.63C955.937 1084.63 962.437 1181.7 770.47 1191.67C578.503 1201.63 347.537 1140.53 341.903 1105C336.703 1068.6 267.37 1010.1 267.37 1010.1Z" fill="white"/>
<path d="M996.236 1525.33C724.103 1651 276.036 1537.47 276.036 1537.47C276.036 1537.47 266.936 1426.97 299.87 1228.07C301.17 1218.97 302.47 1209.87 303.336 1201.63C312.87 1111.5 290.77 1049.53 267.37 1010.53C267.37 1000.57 277.77 993.634 289.47 983.667C294.236 979.767 379.603 926.901 383.07 929.501C389.136 938.167 394.77 946.834 399.536 955.934C448.07 1045.63 464.97 1141.83 565.936 1155.7C665.603 1169.57 761.803 1167.4 830.703 1152.23C897.003 1137.5 852.803 1027.43 823.336 973.267C822.036 971.1 822.036 970.234 820.736 969.367C830.703 962.867 946.403 1051.7 955.503 1084.63C974.57 1132.3 979.77 1167.83 985.403 1214.2C1004.04 1366.3 996.236 1525.33 996.236 1525.33Z" fill="#77A0E0"/>
<path d="M401.269 1152.67C416.586 1152.67 429.003 1140.25 429.003 1124.93C429.003 1109.62 416.586 1097.2 401.269 1097.2C385.953 1097.2 373.536 1109.62 373.536 1124.93C373.536 1140.25 385.953 1152.67 401.269 1152.67Z" fill="#647184"/>
<path d="M918.237 1164.37C932.118 1164.37 943.37 1153.12 943.37 1139.23C943.37 1125.35 932.118 1114.1 918.237 1114.1C904.356 1114.1 893.104 1125.35 893.104 1139.23C893.104 1153.12 904.356 1164.37 918.237 1164.37Z" fill="#647184"/>
<path d="M594.97 1203.8C660.836 1207.7 743.17 1209 812.07 1199.03C858.436 1192.53 900.47 1226.77 903.936 1273.13C906.97 1319.07 908.27 1374.97 900.903 1423.93C885.736 1529.67 507.436 1524.47 501.37 1431.3C497.903 1383.2 494.87 1344.2 491.403 1312.13C484.903 1251.9 534.303 1200.33 594.97 1203.8Z" stroke="#647184" stroke-width="13" stroke-miterlimit="10"/>
<path d="M721.07 1054.73C721.07 1054.73 641.77 1150.93 617.504 1143.57C593.237 1136.2 442.437 1056.03 418.604 919.1C418.604 919.1 437.237 888.767 453.704 879.233C453.704 879.233 499.204 959.4 581.537 1007.5C659.97 1053 721.07 1054.73 721.07 1054.73Z" fill="white"/>
<path d="M721.07 1054.73C721.07 1054.73 641.77 1150.93 617.504 1143.57C593.237 1136.2 442.437 1056.03 418.604 919.101" stroke="#D0D6DD" stroke-width="13" stroke-miterlimit="10" stroke-linecap="round" stroke-linejoin="round"/>
<path d="M721.069 1054.73C721.069 1054.73 782.603 1126.67 802.969 1127.53C823.336 1128.4 832.003 1001.87 770.903 937.733C770.903 937.733 761.369 940.333 757.469 941.2C757.036 940.767 787.803 1033.07 721.069 1054.73Z" fill="white"/>
<path d="M721.069 1054.73C721.069 1054.73 782.603 1126.67 802.969 1127.53C823.336 1128.4 832.003 1001.87 770.903 937.733" stroke="#D0D6DD" stroke-width="13" stroke-miterlimit="10" stroke-linecap="round" stroke-linejoin="round"/>
<path d="M715.003 1061.67C715.003 1061.67 702.869 1075.1 707.203 1104.57C711.536 1133.6 710.669 1162.63 710.669 1162.63" stroke="#D0D6DD" stroke-width="13" stroke-miterlimit="10" stroke-linecap="round" stroke-linejoin="round"/>
<path d="M737.103 1126.67C742.608 1126.67 747.07 1122.2 747.07 1116.7C747.07 1111.2 742.608 1106.73 737.103 1106.73C731.599 1106.73 727.137 1111.2 727.137 1116.7C727.137 1122.2 731.599 1126.67 737.103 1126.67Z" fill="#D0D6DD"/>
<path d="M683.943 619.44C673.543 619.007 665.743 610.34 666.61 599.94L667.043 587.807C667.476 577.407 676.143 569.607 686.543 570.473C696.943 570.907 704.743 579.573 703.876 589.973L703.443 602.107C703.01 612.074 694.343 619.874 683.943 619.44Z" fill="#423232"/>
<path d="M866.375 625.94C856.842 625.506 849.475 617.273 849.909 607.74L850.342 596.473C850.775 586.94 859.009 579.573 868.542 580.006C878.075 580.44 885.442 588.673 885.009 598.206L884.575 609.473C884.142 619.006 875.909 626.373 866.375 625.94Z" fill="#423232"/>
<path d="M725.976 594.306C725.976 594.306 714.71 578.273 695.21 575.239C679.176 572.639 661.41 580.439 658.81 589.539" stroke="#423232" stroke-width="13" stroke-miterlimit="10" stroke-linecap="round" stroke-linejoin="round"/>
<path d="M853.81 598.207C853.81 598.207 853.81 584.341 873.743 584.341C890.21 584.341 897.143 599.507 897.143 599.507" stroke="#423232" stroke-width="13" stroke-miterlimit="10" stroke-linecap="round" stroke-linejoin="round"/>
<path d="M743.743 524.539C752.843 527.572 761.943 519.339 760.209 509.372C759.343 504.172 757.176 498.972 752.843 495.072C739.843 483.372 686.109 472.973 653.609 488.139C625.009 502.006 702.143 510.672 743.743 524.539Z" fill="#423232"/>
<path d="M873.308 531.474C865.941 534.074 858.141 526.274 859.441 517.174C859.875 512.407 861.608 507.641 865.075 504.174C875.475 493.774 911.008 485.541 933.541 501.574C953.041 515.007 907.108 518.907 873.308 531.474Z" fill="#423232"/>
<path d="M809.297 750.856C809.297 750.856 820.564 744.789 826.631 755.189C832.697 765.589 817.964 777.289 817.964 777.289C817.964 777.289 834.431 789.423 823.164 804.589C814.064 816.723 800.198 815.856 800.198 815.856" stroke="#423232" stroke-width="13" stroke-miterlimit="10" stroke-linecap="round" stroke-linejoin="round"/>
<path d="M766.187 939.664C797.82 931.431 825.987 917.131 848.954 897.197C951.22 808.797 910.487 711.297 931.72 614.231C938.654 583.031 942.554 558.764 945.154 539.264C941.687 538.831 937.787 538.397 933.887 537.531C918.287 535.364 907.887 521.064 909.62 505.464C910.487 498.964 910.92 492.464 911.354 485.531C909.62 485.097 910.054 485.097 908.32 485.097C905.72 493.331 902.687 501.997 900.52 510.231C896.62 523.231 884.054 531.464 871.054 530.597H870.62C855.454 529.297 844.187 516.731 844.187 501.564C844.62 490.731 844.62 479.897 845.054 469.064C843.32 468.631 844.187 469.064 842.454 468.631C840.287 479.897 838.12 491.164 835.954 502.864C833.354 517.164 820.787 527.131 806.487 526.264C769.22 524.531 732.387 524.097 699.02 524.097C684.287 524.097 672.154 513.264 670.854 498.531C668.687 479.464 665.654 460.397 660.454 440.897C654.82 458.231 654.82 476.431 655.687 495.064C656.554 511.097 643.987 524.531 627.954 524.964C589.387 525.831 563.387 527.131 559.054 527.564C560.354 586.931 546.92 652.797 523.087 608.164C521.354 605.131 520.054 602.097 518.32 598.197C508.354 580.431 488.42 559.197 450.72 563.964C397.854 570.897 378.354 693.531 489.287 734.264C489.72 743.364 491.887 752.464 495.787 761.997C512.687 803.164 520.054 837.397 520.054 865.564C520.054 1028.93 252.687 960.897 177.287 812.697C148.254 755.064 147.82 685.731 202.854 612.931C337.62 447.831 297.32 510.664 327.22 412.731C376.187 252.397 487.987 201.264 636.187 202.564C636.187 202.564 882.754 202.564 948.187 262.364C1013.62 322.164 991.087 508.931 985.454 525.831C983.72 531.031 979.387 534.064 974.62 536.231C972.02 621.597 980.687 651.497 1011.02 720.397C1077.32 872.064 952.087 1016.36 766.187 939.664Z" fill="#423232"/>
<path d="M523.087 608.596C521.354 605.563 520.054 602.529 518.32 598.629C520.054 602.096 521.787 605.563 523.087 608.596Z" fill="#FEE4BF"/>
<path opacity="0.6" d="M582.174 675.398C582.174 675.398 588.241 688.398 606.441 690.131C624.641 691.865 845.641 641.598 853.441 642.898C861.241 644.198 874.241 648.965 874.241 648.965L925.374 681.465L926.241 658.931C926.241 658.931 897.641 623.398 827.874 626.865C758.107 630.331 582.174 675.398 582.174 675.398Z" fill="#B7AEA9"/>
<path d="M592.574 469.998C575.674 469.565 561.374 482.998 561.374 499.898V539.331C561.374 559.265 545.341 575.731 524.974 575.731H510.674L524.974 601.298C544.907 601.298 561.374 617.331 561.374 637.698V651.565C561.374 670.198 577.841 684.065 596.041 681.465L837.841 643.765C843.041 642.898 847.807 642.898 853.007 643.331L854.307 478.231L592.574 469.998Z" fill="#5E4949"/>
<path d="M944.441 480.397L854.741 477.797L853.441 642.897C860.808 643.764 867.741 645.497 874.241 648.964L922.774 673.231C935.341 679.297 950.075 671.064 951.375 657.197L964.808 502.931C965.674 491.231 956.574 480.831 944.441 480.397Z" fill="#423232"/>
<path d="M657.14 538.898L908.04 544.531C921.907 544.965 932.74 557.098 931.007 570.965C929.707 583.098 919.74 592.198 907.607 592.198H656.707C643.274 592.198 632.44 580.931 632.874 567.498L633.307 561.865C633.74 548.431 644.574 538.898 657.14 538.898Z" fill="#E26076" stroke="#423232" stroke-width="13" stroke-miterlimit="10" stroke-linecap="round" stroke-linejoin="round"/>
<path d="M688.341 573.996H664.507C659.741 573.996 655.841 570.096 655.841 565.329C655.841 560.563 659.741 556.663 664.507 556.663H688.341C693.107 556.663 697.007 560.563 697.007 565.329C696.574 570.096 693.107 573.996 688.341 573.996Z" fill="white"/>
</g>
</svg>
