<svg width="1300" height="1300" viewBox="0 0 1300 1300" fill="none" xmlns="http://www.w3.org/2000/svg">
<mask id="mask0_113_5867" style="mask-type:alpha" maskUnits="userSpaceOnUse" x="-1" y="0" width="1301" height="1300">
<path d="M649.999 1300C290.709 1300 -0.000488281 1008.86 -0.000488281 650C-0.000488281 290.71 291.141 0 649.999 0C1009.29 0 1300 291.141 1300 650C1300.43 1009.29 1009.29 1300 649.999 1300Z" fill="#F7C0B5"/>
</mask>
<g mask="url(#mask0_113_5867)">
<path d="M1015.73 1197.33C1012.7 1199.5 1009.23 1201.66 1006.2 1203.83C1002.73 1206 999.697 1208.17 996.231 1209.9C993.197 1211.63 990.597 1213.37 987.564 1215.1C987.131 1215.53 986.698 1215.53 986.264 1215.97C976.298 1222.03 965.898 1227.67 955.498 1232.87C952.464 1234.6 948.998 1236.33 945.964 1237.63C945.964 1237.63 945.531 1238.07 945.098 1238.07C941.631 1239.8 938.164 1241.53 934.697 1243.27C927.764 1246.73 920.398 1249.76 913.464 1252.8C909.998 1254.53 906.098 1255.83 902.631 1257.13C899.164 1258.43 895.264 1260.16 891.798 1261.46C888.331 1262.76 884.431 1264.5 880.964 1265.8C880.964 1265.8 880.964 1265.8 880.531 1265.8C877.064 1267.1 873.164 1268.4 869.697 1269.7C861.897 1272.3 853.664 1274.9 845.864 1277.5C843.264 1278.36 840.231 1279.23 837.631 1280.1C829.398 1282.7 821.164 1284.86 812.931 1286.6C809.898 1287.46 806.864 1287.9 803.397 1288.76C795.597 1290.5 787.364 1292.23 779.564 1293.96C777.831 1294.4 776.531 1294.4 774.798 1294.83C772.198 1295.26 769.164 1295.7 766.564 1296.13C762.664 1296.56 759.198 1297.43 755.298 1297.87C753.564 1298.3 751.831 1298.3 750.098 1298.73C747.931 1299.17 745.331 1299.6 742.731 1299.6C735.797 1300.46 728.431 1301.33 721.498 1302.2C719.331 1302.63 716.731 1302.63 714.564 1303.07H714.131C711.098 1303.5 708.064 1303.5 705.031 1303.93C701.998 1304.36 698.964 1304.37 695.931 1304.37C694.198 1304.37 692.031 1304.8 690.298 1304.8C686.831 1304.8 683.798 1305.23 680.764 1305.23C676.431 1305.23 672.531 1305.66 668.198 1305.66C663.864 1305.66 659.964 1305.66 655.631 1305.66C652.598 1305.66 649.564 1305.66 646.531 1305.66C464.098 1303.06 299.431 1225.5 182.431 1102.43C182.431 1102.43 182.431 1102 181.998 1102C195.431 1075.57 245.264 1027.9 297.264 988.465C363.131 938.632 456.298 907.865 456.298 907.865C456.298 907.865 517.398 897.898 744.031 945.132C916.931 981.532 990.597 1129.3 1015.73 1197.33Z" fill="#FEE4BF"/>
<path d="M792.131 1065.16C783.031 1109.8 724.098 1136.23 624.865 1096.36C503.098 1046.96 456.298 907.865 456.298 907.865C449.798 808.198 434.631 722.831 434.631 722.831C575.465 710.698 741.865 875.365 741.865 875.365L760.931 956.831C762.665 963.765 766.131 969.831 771.331 974.165C780.431 989.765 798.198 1036.56 792.131 1065.16Z" fill="#FEE4BF"/>
<path d="M771.331 974.598C688.564 970.264 627.464 958.131 562.031 840.698C617.497 889.664 682.931 908.298 751.831 916.964L760.931 956.831C762.664 964.198 766.131 970.264 771.331 974.598Z" fill="#EFBDA5"/>
<path d="M942.497 452.431C950.297 488.831 954.197 518.298 932.964 615.365C911.73 712.431 952.464 809.498 850.197 898.331C781.297 958.131 660.831 969.398 564.631 903.965C532.131 881.865 502.231 851.098 477.964 810.798C458.897 779.165 436.797 749.265 412.097 721.965C377.864 684.698 336.697 609.731 357.064 477.131C389.997 261.332 603.631 236.632 729.73 260.465C855.83 284.298 921.264 356.231 942.497 452.431Z" fill="#FEE4BF"/>
<path d="M527.797 621.866C527.797 621.866 514.364 556.866 451.097 564.666C396.497 571.599 377.431 702.466 501.364 738.866" fill="#FEE4BF"/>
<path d="M497.464 679.499C497.464 679.499 481.864 669.532 483.598 652.199C486.198 631.832 483.598 619.266 474.064 615.366C450.231 605.399 445.464 633.132 446.331 636.599" stroke="#423232" stroke-width="13.4786" stroke-miterlimit="10" stroke-linecap="round" stroke-linejoin="round"/>
<path d="M828.097 721.532C828.097 721.532 844.563 722.399 860.163 703.766C868.83 693.366 876.197 680.366 871.43 676.466C866.663 672.132 788.23 684.266 783.03 694.666C777.83 705.066 808.163 721.532 828.097 721.532Z" fill="#EFBDA5"/>
<path d="M841.098 575.931C841.098 575.931 841.964 617.097 868.397 663.031C880.097 683.397 862.331 716.764 823.764 722.397" stroke="#423232" stroke-width="13.4786" stroke-miterlimit="10" stroke-linecap="round" stroke-linejoin="round"/>
<path opacity="0.42" d="M606.232 743.631C630.882 743.631 650.865 727.141 650.865 706.798C650.865 686.456 630.882 669.965 606.232 669.965C581.582 669.965 561.599 686.456 561.599 706.798C561.599 727.141 581.582 743.631 606.232 743.631Z" fill="#F2A5B2"/>
<path opacity="0.42" d="M926.03 670.832C924.73 695.098 925.164 718.932 923.43 742.765C904.364 738.432 890.497 724.132 890.497 707.232C890.497 689.032 905.663 674.298 926.03 670.832Z" fill="#F2A5B2"/>
<path d="M1159.61 1463.8H32.0805C32.0805 1463.8 28.6138 1190.8 125.247 1063.84C195.88 970.671 324.58 945.971 403.447 923.005C423.814 917.371 441.58 910.871 456.314 906.971C461.08 919.971 509.18 1047.37 624.447 1094.17C723.68 1134.47 782.614 1107.6 791.714 1062.97C797.347 1034.37 779.58 987.571 770.48 972.405C765.28 968.071 761.814 961.571 760.081 955.071L756.614 940.771C764.414 939.038 771.781 936.871 779.581 934.704C783.481 935.571 787.38 936.438 791.28 937.305C847.18 950.738 963.314 953.338 1060.38 1035.24C1173.48 1128.84 1159.61 1463.8 1159.61 1463.8Z" fill="#444444"/>
<path d="M741.015 1169.57C713.281 1174.77 526.081 1161.77 429.015 1032.21C389.148 978.906 396.515 929.506 409.081 905.672C419.915 884.872 444.615 857.139 452.415 857.572V858.006C593.248 968.072 773.081 936.872 780.448 934.706C782.615 933.839 785.215 933.406 787.381 932.539C812.081 946.406 841.981 979.772 839.815 1035.67C836.781 1114.54 760.948 1163.51 741.015 1169.57Z" fill="white"/>
<path d="M409.081 916.94C409.081 916.94 363.147 913.473 341.914 945.973C320.681 978.473 368.781 989.74 391.314 981.073C391.314 981.073 354.914 1000.57 367.914 1031.34C380.914 1062.11 422.514 1044.34 422.514 1044.34C422.514 1044.34 386.114 1084.21 416.881 1114.11C447.647 1144.01 483.614 1114.11 483.614 1114.11C483.614 1114.11 464.114 1159.61 496.614 1176.51C529.114 1193.41 554.247 1148.77 554.247 1148.77C554.247 1148.77 543.847 1195.14 575.481 1212.04C607.114 1228.94 629.214 1189.51 633.981 1174.77C633.981 1174.77 633.981 1224.17 678.614 1225.91C723.247 1227.64 718.481 1143.14 718.481 1143.14L409.081 916.94Z" fill="white"/>
<path d="M751.415 1159.61C751.415 1159.61 765.281 1192.54 793.448 1190.81C821.615 1189.51 828.548 1157.87 815.981 1131.01C815.981 1131.01 839.815 1147.04 864.515 1131.01C889.648 1114.97 867.115 1076.41 853.248 1071.21C853.248 1071.21 893.548 1073.37 891.381 1042.61C889.215 1011.84 854.548 1007.94 854.548 1007.94C854.548 1007.94 884.448 1005.77 885.748 981.506C887.048 957.239 847.181 934.706 791.281 937.306C791.281 937.306 810.348 1006.21 791.715 1063.41C773.948 1119.74 751.415 1159.61 751.415 1159.61Z" fill="white"/>
<path d="M437.248 871.006C437.248 871.006 406.481 871.006 380.481 887.473C347.548 907.84 370.948 948.573 418.181 934.273C465.415 919.973 437.248 871.006 437.248 871.006Z" fill="white"/>
<path d="M834.614 951.173C834.614 951.173 866.681 945.973 859.747 932.54C852.814 919.973 826.814 912.606 821.614 915.64C812.081 921.273 799.947 927.773 787.381 931.673C754.014 942.506 825.514 957.673 834.614 951.173Z" fill="white"/>
<path d="M723.681 1153.97C723.681 1153.97 686.415 1254.07 714.148 1271.84C741.881 1289.61 740.148 1176.94 740.148 1176.94C740.148 1176.94 762.248 1268.81 797.781 1258.84C832.881 1248.44 747.515 1149.21 741.015 1147.47" stroke="white" stroke-width="13.4786" stroke-miterlimit="10" stroke-linecap="round"/>
<path d="M272.147 962.873C272.147 962.873 300.747 1225.47 53.7473 1245.41C53.7473 1245.41 13.8806 1113.67 89.2806 1014.01C159.047 921.273 272.147 962.873 272.147 962.873Z" fill="#D8D8D8"/>
<path d="M247.881 956.806C210.614 949.873 139.114 947.706 88.8472 1014.01C61.9806 1049.97 49.4139 1089.84 45.0806 1126.67C77.5806 1125.37 110.081 1119.74 141.281 1107.61C204.981 1083.34 239.214 1023.11 247.881 956.806Z" fill="#D8D8D8"/>
<path d="M167.281 1029.17C194.148 1011.41 216.681 985.407 228.381 953.774C188.948 950.74 131.314 957.674 88.8478 1013.57C82.7811 1021.81 77.5811 1030.04 72.8145 1038.27C101.848 1059.94 137.814 1047.81 167.281 1029.17Z" fill="#F7F7F7"/>
<path d="M272.147 962.872C272.147 962.872 263.047 959.405 247.88 956.805C239.214 1023.54 204.98 1083.77 141.28 1107.61C110.08 1119.74 78.0136 1125.81 45.0802 1126.67C36.8469 1191.67 53.3136 1245.41 53.3136 1245.41C300.747 1225.47 272.147 962.872 272.147 962.872Z" fill="#A8A8A8"/>
<path d="M948.146 971.54C948.146 971.54 973.713 1063.84 1027.01 1132.31C1061.25 1176.07 1097.65 1210.31 1149.21 1235.44C1149.21 1235.44 1174.78 1113.67 1124.51 1040.44C1054.75 938.173 948.146 971.54 948.146 971.54Z" fill="#D8D8D8"/>
<path d="M968.08 967.638C955.513 969.372 948.146 971.538 948.146 971.538C948.146 971.538 973.713 1063.84 1027.01 1132.3C1061.25 1176.07 1097.65 1210.3 1149.21 1235.44C1149.21 1235.44 1160.48 1181.7 1153.11 1124.07C1119.75 1114.1 1088.11 1099.8 1059.95 1081.17C1018.35 1054.74 980.213 1014.87 968.08 967.638Z" fill="#A8A8A8"/>
<path d="M968.082 967.64C979.782 1014.87 1018.35 1054.74 1059.95 1081.17C1088.11 1099.37 1119.75 1114.11 1153.11 1124.07C1149.65 1095.04 1140.98 1065.14 1124.51 1040.44C1073.38 965.473 1002.31 963.307 968.082 967.64Z" fill="#D8D8D8"/>
<path d="M1118.01 1031.77C1081.18 983.238 1035.68 969.371 1001.01 966.771C1022.25 1012.7 1069.48 1033.07 1118.01 1031.77Z" fill="#F7F7F7"/>
<path d="M433.78 871.006C433.78 871.006 416.88 898.74 415.58 925.606C414.28 952.04 464.98 1043.47 561.613 1093.31C666.48 1147.47 738.413 1137.94 738.413 1137.94C738.413 1137.94 807.313 1104.14 827.68 1044.34C845.88 990.173 824.647 942.506 815.547 926.04" stroke="#D8D8D8" stroke-width="13.4786" stroke-miterlimit="10" stroke-linecap="round"/>
<path d="M738.848 1137.94C738.848 1137.94 743.614 1016.6 730.181 945.538" stroke="#D8D8D8" stroke-width="13.4786" stroke-miterlimit="10" stroke-linecap="round"/>
<path d="M736.681 1022.24C748.408 1022.24 757.914 1012.73 757.914 1001.01C757.914 989.278 748.408 979.772 736.681 979.772C724.954 979.772 715.448 989.278 715.448 1001.01C715.448 1012.73 724.954 1022.24 736.681 1022.24Z" fill="#F4D16C"/>
<path d="M739.281 1087.24C751.008 1087.24 760.514 1077.73 760.514 1066C760.514 1054.28 751.008 1044.77 739.281 1044.77C727.554 1044.77 718.047 1054.28 718.047 1066C718.047 1077.73 727.554 1087.24 739.281 1087.24Z" fill="#F4D16C"/>
<path d="M715.184 586.763C715.184 586.763 684.851 587.196 654.084 564.229" stroke="#423232" stroke-width="13.4786" stroke-miterlimit="10" stroke-linecap="round" stroke-linejoin="round"/>
<path d="M843.884 593.696C843.884 593.696 875.084 588.063 884.184 575.929" stroke="#423232" stroke-width="13.4786" stroke-miterlimit="10" stroke-linecap="round" stroke-linejoin="round"/>
<path d="M735.985 553.397C744.219 558.164 754.619 551.664 755.052 541.697C755.052 536.497 754.185 530.864 750.719 526.097C740.319 512.231 689.619 490.997 654.519 500.097C624.185 507.897 698.285 531.731 735.985 553.397Z" fill="#423232"/>
<path d="M869.02 558.596C862.953 563.362 852.987 557.729 851.687 548.629C850.82 543.862 851.253 538.662 853.42 534.329C860.353 521.329 892.42 503.562 918.42 512.229C940.953 520.462 898.053 537.362 869.02 558.596Z" fill="#423232"/>
<path d="M666.218 572.031C662.751 575.064 660.584 579.831 660.151 584.597L659.718 596.731C659.284 607.131 667.084 615.797 677.051 616.231C687.451 616.664 696.118 608.864 696.551 598.897L696.984 586.764C696.984 586.331 696.984 585.897 696.984 585.464C685.718 584.597 675.751 579.831 666.218 572.031Z" fill="#423232"/>
<path d="M843.885 592.831C843.885 593.265 843.885 593.265 843.885 593.698L843.452 604.964C843.019 614.498 850.386 622.731 859.919 623.165C869.452 623.598 877.686 616.231 878.119 606.698L878.552 595.431C878.986 591.098 877.252 587.198 875.086 584.165C865.552 589.798 855.152 591.098 843.885 592.831Z" fill="#423232"/>
<path d="M816.925 774.866C805.693 779.808 800.301 769.924 782.779 778.46C770.199 784.301 763.46 786.098 748.184 777.113C738.3 770.823 726.169 779.808 714.488 762.735" stroke="#423232" stroke-width="13.4786" stroke-miterlimit="10" stroke-linecap="round" stroke-linejoin="round"/>
<path d="M891.777 209.483C891.777 209.483 870.111 138.85 780.844 132.783C682.044 126.283 648.244 185.65 648.244 185.65C648.244 185.65 573.277 122.817 466.677 171.783C331.044 234.183 361.377 364.617 361.377 364.617C361.377 364.617 215.344 566.117 265.611 820.917C265.611 820.917 427.677 891.55 486.611 873.35L473.177 728.617C379.144 682.684 399.511 571.317 449.777 564.817C488.344 560.05 508.711 582.583 518.244 600.783C519.544 602.517 543.377 595.583 546.844 537.517C552.911 445.65 575.877 349.883 769.577 411.417C788.644 417.483 807.277 429.183 825.911 427.017C857.111 423.983 928.177 382.383 943.777 469.917C944.211 471.65 944.211 473.383 944.644 475.55V475.983C944.644 476.85 945.077 477.717 945.077 478.583C945.077 479.017 945.077 479.883 945.51 480.75C945.51 481.617 945.944 482.917 945.944 483.783C945.944 484.65 945.944 485.517 946.377 486.383C946.377 487.25 946.377 487.683 946.377 488.55C946.377 489.85 946.377 491.15 946.811 492.45C946.811 492.883 946.811 493.317 946.811 494.183C946.811 495.483 946.811 496.783 946.811 497.65C946.811 498.083 946.811 498.517 946.811 498.95C946.811 500.683 946.811 501.983 946.811 503.717C946.811 504.15 946.811 504.583 946.811 505.45C946.811 507.183 946.811 508.917 946.811 510.65V511.083C946.811 512.817 946.811 514.55 946.377 516.717C946.377 517.15 946.377 517.583 946.377 518.017C946.377 520.183 945.944 521.917 945.944 524.083C945.944 524.517 945.944 524.95 945.944 525.383C945.944 527.55 945.51 529.717 945.51 531.883C945.51 532.317 945.51 532.317 945.51 532.75C945.077 534.917 945.077 537.517 944.644 540.117C944.644 540.55 944.644 540.983 944.644 541.417C944.211 544.017 944.211 546.617 943.777 549.217C941.177 567.417 937.277 589.083 931.644 615.95C927.744 634.583 926.011 652.783 924.711 671.417C923.411 695.683 923.844 719.517 922.111 743.35C919.511 782.35 912.144 820.917 885.711 858.183C924.277 872.917 987.544 877.25 987.544 877.25C1055.14 762.417 1006.61 530.15 988.411 456.05C991.011 453.883 1063.38 214.25 891.777 209.483Z" fill="#423232"/>
</g>
</svg>
