<svg width="1300" height="1300" viewBox="0 0 1300 1300" fill="none" xmlns="http://www.w3.org/2000/svg">
<mask id="mask0_113_5858" style="mask-type:alpha" maskUnits="userSpaceOnUse" x="-1" y="0" width="1301" height="1300">
<path d="M649.999 1300C290.709 1300 -0.000488281 1008.86 -0.000488281 650C-0.000488281 290.71 291.141 0 649.999 0C1009.29 0 1300 291.141 1300 650C1300.43 1009.29 1009.29 1300 649.999 1300Z" fill="#F7C0B5"/>
</mask>
<g mask="url(#mask0_113_5858)">
<path d="M1014 1197.33C1010.97 1199.5 1007.5 1201.66 1004.47 1203.83C1001 1206 997.966 1208.17 994.5 1209.9C991.466 1211.63 988.866 1213.37 985.833 1215.1C985.4 1215.53 984.966 1215.53 984.533 1215.97C974.566 1222.03 964.166 1227.67 953.766 1232.87C950.733 1234.6 947.266 1236.33 944.233 1237.63C944.233 1237.63 943.8 1238.07 943.366 1238.07C939.9 1239.8 936.433 1241.53 932.966 1243.27C926.033 1246.73 918.666 1249.76 911.733 1252.8C908.266 1254.53 904.366 1255.83 900.9 1257.13C897.433 1258.43 893.533 1260.16 890.066 1261.46C886.6 1262.76 882.7 1264.5 879.233 1265.8C879.233 1265.8 879.233 1265.8 878.8 1265.8C875.333 1267.1 871.433 1268.4 867.966 1269.7C860.166 1272.3 851.933 1274.9 844.133 1277.5C841.533 1278.36 838.5 1279.23 835.9 1280.1C827.666 1282.7 819.433 1284.86 811.2 1286.6C808.166 1287.46 805.133 1287.9 801.666 1288.76C793.866 1290.5 785.633 1292.23 777.833 1293.96C776.1 1294.4 774.8 1294.4 773.066 1294.83C770.466 1295.26 767.433 1295.7 764.833 1296.13C760.933 1296.56 757.466 1297.43 753.566 1297.87C751.833 1298.3 750.1 1298.3 748.366 1298.73C746.2 1299.17 743.6 1299.6 741 1299.6C734.066 1300.46 726.7 1301.33 719.766 1302.2C717.6 1302.63 715 1302.63 712.833 1303.07H712.4C709.366 1303.5 706.333 1303.5 703.3 1303.93C700.266 1304.36 697.233 1304.37 694.2 1304.37C692.466 1304.37 690.3 1304.8 688.566 1304.8C685.1 1304.8 682.066 1305.23 679.033 1305.23C674.7 1305.23 670.8 1305.66 666.466 1305.66C662.133 1305.66 658.233 1305.66 653.9 1305.66C650.866 1305.66 647.833 1305.66 644.8 1305.66C462.367 1303.06 297.7 1225.5 180.7 1102.43C180.7 1102.43 180.7 1102 180.267 1102C193.7 1075.57 243.533 1027.9 295.533 988.465C361.4 938.632 454.567 907.865 454.567 907.865C454.567 907.865 515.666 897.898 742.3 945.132C915.2 981.532 988.866 1129.3 1014 1197.33Z" fill="#F7D3B5"/>
<path d="M790.4 1065.16C781.3 1109.8 722.367 1136.23 623.134 1096.36C501.367 1046.96 454.567 907.865 454.567 907.865C448.067 808.198 432.9 722.831 432.9 722.831C573.734 710.698 740.134 875.365 740.134 875.365L759.2 956.831C760.934 963.765 764.4 969.831 769.6 974.165C778.7 989.765 796.467 1036.56 790.4 1065.16Z" fill="#F7D3B5"/>
<path d="M769.6 974.598C686.833 970.264 625.733 958.131 560.3 840.698C615.766 889.664 681.2 908.298 750.1 916.964L759.2 956.831C760.933 964.198 764.4 970.264 769.6 974.598Z" fill="#EFBDA5"/>
<path d="M940.766 452.431C948.566 488.831 952.466 518.298 931.233 615.365C910 712.431 950.733 809.498 848.466 898.331C779.566 958.131 659.1 969.398 562.9 903.965C530.4 881.865 500.5 851.098 476.233 810.798C457.166 779.165 435.066 749.265 410.366 721.965C376.133 684.698 334.966 609.731 355.333 477.131C388.266 261.332 601.9 236.632 728 260.465C854.1 284.298 919.533 356.231 940.766 452.431Z" fill="#F7D3B5"/>
<path d="M526.066 621.866C526.066 621.866 512.633 556.866 449.366 564.666C394.766 571.599 375.7 702.466 499.633 738.866" fill="#F7D3B5"/>
<path d="M495.733 679.499C495.733 679.499 480.133 669.532 481.867 652.199C484.467 631.832 481.867 619.266 472.333 615.366C448.5 605.399 443.733 633.132 444.6 636.599" stroke="#423232" stroke-width="13.4786" stroke-miterlimit="10" stroke-linecap="round" stroke-linejoin="round"/>
<path d="M826.367 721.532C826.367 721.532 842.834 722.399 858.434 703.766C867.1 693.366 874.467 680.366 869.7 676.466C864.934 672.132 786.5 684.266 781.3 694.666C776.1 705.066 806.434 721.532 826.367 721.532Z" fill="#EFBDA5"/>
<path d="M839.367 575.931C839.367 575.931 840.233 617.097 866.667 663.031C878.367 683.397 860.6 716.764 822.033 722.397" stroke="#423232" stroke-width="13.4786" stroke-miterlimit="10" stroke-linecap="round" stroke-linejoin="round"/>
<path opacity="0.42" d="M604.5 743.631C629.15 743.631 649.133 727.141 649.133 706.798C649.133 686.456 629.15 669.965 604.5 669.965C579.85 669.965 559.867 686.456 559.867 706.798C559.867 727.141 579.85 743.631 604.5 743.631Z" fill="#ED938A"/>
<path opacity="0.42" d="M924.299 670.832C922.999 695.098 923.433 718.932 921.699 742.765C902.633 738.432 888.766 724.132 888.766 707.232C888.766 689.032 903.933 674.298 924.299 670.832Z" fill="#ED938A"/>
<path d="M1158.24 1465.29H62.7761C62.7761 1465.29 69.2761 1264.23 135.143 1120.79C184.976 1012.46 302.409 952.228 389.943 921.028C414.643 912.361 437.176 905.861 454.509 901.094C454.509 903.261 454.943 904.994 454.943 907.161C454.943 907.161 501.743 1046.26 623.51 1095.66C722.743 1135.96 781.676 1109.09 790.776 1064.46C796.409 1035.86 778.643 989.061 769.543 973.894C764.343 969.561 760.876 963.061 759.143 956.561L755.676 942.261C763.91 940.528 771.71 938.361 779.51 935.761C782.11 934.894 784.276 934.028 786.876 933.161C842.776 947.894 926.843 982.994 1026.08 1066.19C1138.31 1160.23 1158.24 1465.29 1158.24 1465.29Z" fill="#CE3E3E"/>
<mask id="mask1_113_5858" style="mask-type:alpha" maskUnits="userSpaceOnUse" x="62" y="901" width="1097" height="565">
<path d="M1158.24 1465.29H62.7761C62.7761 1465.29 69.2761 1264.23 135.143 1120.79C184.976 1012.46 302.409 952.226 389.943 921.026C414.643 912.359 437.176 905.859 454.509 901.092C454.509 903.259 454.943 904.992 454.943 907.159C454.943 907.159 501.743 1046.26 623.51 1095.66C722.743 1135.96 781.676 1109.09 790.776 1064.46C796.409 1035.86 778.643 989.059 769.543 973.892C764.343 969.559 760.876 963.059 759.143 956.559L755.676 942.259C763.91 940.526 771.71 938.359 779.51 935.759C782.11 934.892 784.276 934.026 786.876 933.159C842.776 947.892 926.843 982.992 1026.08 1066.19C1138.31 1160.23 1158.24 1465.29 1158.24 1465.29Z" fill="#CE3E3E"/>
</mask>
<g mask="url(#mask1_113_5858)">
<path d="M512.421 978.397L454.203 1036.62L512.421 1094.83L570.638 1036.62L512.421 978.397Z" fill="white"/>
<path d="M740.422 978.569L682.205 1036.79L740.422 1095L798.64 1036.79L740.422 978.569Z" fill="white"/>
<path d="M284.111 978.532L225.894 1036.75L284.111 1094.97L342.329 1036.75L284.111 978.532Z" fill="white"/>
<path d="M965.682 978.395L907.464 1036.61L965.682 1094.83L1023.9 1036.61L965.682 978.395Z" fill="white"/>
<path d="M406.968 1203.91L348.75 1262.13L406.968 1320.35L465.186 1262.13L406.968 1203.91Z" fill="white"/>
<path d="M635.278 1203.78L577.06 1262L635.278 1320.22L693.496 1262L635.278 1203.78Z" fill="white"/>
<path d="M860.23 1203.91L802.012 1262.13L860.23 1320.35L918.448 1262.13L860.23 1203.91Z" fill="white"/>
</g>
<path d="M719.71 1077.89C719.71 1077.89 689.81 1100.43 696.31 1121.66C702.376 1142.89 760.443 1139.43 771.71 1121.66C782.543 1103.89 734.01 1073.99 719.71 1077.89Z" fill="#CE3E3E"/>
<path d="M719.276 1077.46C719.71 1077.89 719.71 1077.89 720.143 1078.33C720.143 1077.89 720.143 1077.46 720.143 1077.46C719.71 1077.03 719.276 1077.03 719.276 1077.46Z" fill="white"/>
<path d="M604.443 1060.13C482.676 1010.73 454.943 907.16 454.943 907.16C454.943 904.993 454.51 903.26 454.51 901.093C454.076 894.593 452.776 875.96 451.91 869.46C444.11 872.06 434.576 877.26 425.91 882.027C410.31 891.127 397.743 904.127 389.943 920.16C389.943 920.593 389.51 920.593 389.51 921.027C388.643 1034.99 500.01 1122.09 587.11 1153.29C639.976 1172.36 699.343 1145.06 716.243 1091.76C717.543 1086.99 718.843 1082.66 719.71 1077.89C719.276 1077.46 719.276 1077.46 718.843 1077.03C690.676 1083.09 652.11 1079.19 604.443 1060.13Z" fill="white"/>
<path d="M825.876 1041.93C818.509 981.693 799.009 958.293 779.943 935.326C772.143 937.926 759.143 940.959 750.909 942.693C750.909 942.693 779.076 979.093 771.709 1028.49C768.243 1051.89 750.476 1069.66 720.143 1076.59C720.143 1077.03 720.143 1077.03 719.709 1077.46C730.976 1090.46 743.543 1101.73 757.409 1110.83C779.943 1125.99 811.143 1116.03 820.243 1090.46C825.876 1075.73 828.043 1058.83 825.876 1041.93Z" fill="white"/>
<path d="M277.276 1465.29L257.776 1304.96" stroke="#544D4D" stroke-width="13.4786" stroke-miterlimit="10" stroke-linecap="round" stroke-linejoin="round"/>
<path d="M1033.88 1249.93C1033.88 1249.93 1020.88 1281.56 1024.78 1313.19C1028.68 1344.83 1039.94 1391.19 1023.91 1465.29" stroke="#544D4D" stroke-width="13.4786" stroke-miterlimit="10" stroke-linecap="round" stroke-linejoin="round"/>
<path d="M715.184 586.763C715.184 586.763 684.851 587.196 654.084 564.229" stroke="#423232" stroke-width="13.4786" stroke-miterlimit="10" stroke-linecap="round" stroke-linejoin="round"/>
<path d="M843.884 593.696C843.884 593.696 875.084 588.063 884.184 575.929" stroke="#423232" stroke-width="13.4786" stroke-miterlimit="10" stroke-linecap="round" stroke-linejoin="round"/>
<path d="M735.984 553.397C744.218 558.164 754.618 551.664 755.051 541.697C755.051 536.497 754.184 530.864 750.718 526.097C740.318 512.231 689.618 490.997 654.518 500.097C624.184 507.897 698.284 531.731 735.984 553.397Z" fill="#423232"/>
<path d="M869.019 558.596C862.952 563.362 852.985 557.729 851.685 548.629C850.819 543.862 851.252 538.662 853.419 534.329C860.352 521.329 892.419 503.562 918.419 512.229C940.952 520.462 898.052 537.362 869.019 558.596Z" fill="#423232"/>
<path d="M666.218 572.031C662.751 575.064 660.584 579.831 660.151 584.597L659.718 596.731C659.284 607.131 667.084 615.797 677.051 616.231C687.451 616.664 696.118 608.864 696.551 598.897L696.984 586.764C696.984 586.331 696.984 585.897 696.984 585.464C685.718 584.597 675.751 579.831 666.218 572.031Z" fill="#423232"/>
<path d="M843.885 592.831C843.885 593.265 843.885 593.265 843.885 593.698L843.452 604.964C843.019 614.498 850.386 622.731 859.919 623.165C869.452 623.598 877.686 616.231 878.119 606.698L878.552 595.431C878.986 591.098 877.252 587.198 875.086 584.165C865.552 589.798 855.152 591.098 843.885 592.831Z" fill="#423232"/>
<path d="M825.911 779.14C825.911 779.14 768.851 752.632 741.445 767.009" stroke="#423232" stroke-width="13.4786" stroke-miterlimit="10" stroke-linecap="round" stroke-linejoin="round"/>
<path d="M997.526 480.254C985.393 517.954 958.96 553.054 940.326 573.854C952.026 507.988 948.56 481.988 941.626 451.221C939.46 441.688 936.86 432.588 933.826 423.488C865.793 489.788 749.226 424.354 749.226 424.354C749.226 424.354 724.526 444.721 681.193 439.954C634.826 435.188 622.26 406.588 622.26 406.588C609.693 494.121 526.926 460.754 542.093 547.854C546.426 571.688 546.426 594.654 526.06 618.488C522.593 606.354 505.693 556.954 450.226 563.888C397.793 570.388 377.86 691.721 486.193 733.321C484.893 773.621 420.76 874.588 422.926 761.921C423.36 738.954 357.493 740.688 321.526 664.854C305.926 631.921 310.26 601.154 317.193 579.054C324.126 557.821 323.693 534.854 316.76 513.621C308.96 488.921 302.893 451.654 317.193 406.588C341.46 329.454 393.46 311.688 406.893 302.588C420.326 293.488 415.993 226.754 529.96 189.488C603.626 165.221 682.493 207.254 698.96 204.221C715.426 201.188 830.693 125.354 919.526 196.854C1005.33 266.188 973.26 348.088 973.26 348.088C973.26 348.088 1026.99 389.254 997.526 480.254Z" fill="#423232"/>
<path d="M749.232 669.067H648.265C621.832 669.067 600.599 647.834 600.599 621.401V580.234C600.599 553.801 621.832 532.567 648.265 532.567H749.232C775.665 532.567 796.898 553.801 796.898 580.234V621.401C796.898 647.834 775.232 669.067 749.232 669.067Z" stroke="#423232" stroke-width="13.4786" stroke-miterlimit="10" stroke-linecap="round" stroke-linejoin="round"/>
<path d="M923.432 532.567H873.598C856.265 532.567 841.965 546.867 841.965 564.201V601.901C848.032 623.567 856.698 644.367 869.698 663.001C870.998 663.001 872.298 663.434 873.598 663.434H923.432C940.765 663.434 955.065 649.134 955.065 631.801V564.201C955.498 546.434 941.198 532.567 923.432 532.567Z" stroke="#423232" stroke-width="13.4786" stroke-miterlimit="10" stroke-linecap="round" stroke-linejoin="round"/>
<path d="M796.899 572C811.633 570.267 830.266 568.967 845.866 570.7" stroke="#423232" stroke-width="13.4786" stroke-miterlimit="10" stroke-linecap="round" stroke-linejoin="round"/>
<path d="M600.6 575.035L500.066 578.501" stroke="#423232" stroke-width="13.4786" stroke-miterlimit="10" stroke-linecap="round" stroke-linejoin="round"/>
</g>
</svg>
