<svg width="1300" height="1300" viewBox="0 0 1300 1300" fill="none" xmlns="http://www.w3.org/2000/svg">
<mask id="mask0_113_5849" style="mask-type:alpha" maskUnits="userSpaceOnUse" x="-1" y="0" width="1302" height="1300">
<path d="M650 1300C290.71 1300 -0.000244141 1008.86 -0.000244141 650C-0.000244141 290.71 291.141 0 650 0C1009.29 0 1300 291.141 1300 650C1300.43 1009.29 1009.29 1300 650 1300Z" fill="#F7C0B5"/>
</mask>
<g mask="url(#mask0_113_5849)">
<path d="M1013.13 1197.32C1010.1 1199.48 1006.63 1201.65 1003.6 1203.82C1000.13 1205.98 997.099 1208.15 993.633 1209.88C990.599 1211.62 987.999 1213.35 984.966 1215.08C984.533 1215.52 984.099 1215.52 983.666 1215.95C973.699 1222.02 963.299 1227.65 952.899 1232.85C949.866 1234.58 946.399 1236.32 943.366 1237.62C943.366 1237.62 942.933 1238.05 942.499 1238.05C939.033 1239.78 935.566 1241.52 932.099 1243.25C925.166 1246.72 917.799 1249.75 910.866 1252.78C907.399 1254.52 903.499 1255.82 900.033 1257.12C896.566 1258.42 892.666 1260.15 889.199 1261.45C885.733 1262.75 881.833 1264.48 878.366 1265.78C878.366 1265.78 878.366 1265.78 877.933 1265.78C874.466 1267.08 870.566 1268.38 867.099 1269.68C859.299 1272.28 851.066 1274.88 843.266 1277.48C840.666 1278.35 837.633 1279.22 835.033 1280.08C826.799 1282.68 818.566 1284.85 810.333 1286.58C807.299 1287.45 804.266 1287.88 800.799 1288.75C792.999 1290.48 784.766 1292.22 776.966 1293.95C775.233 1294.38 773.933 1294.38 772.199 1294.82C769.599 1295.25 766.566 1295.68 763.966 1296.12C760.066 1296.55 756.599 1297.42 752.699 1297.85C750.966 1298.28 749.233 1298.28 747.499 1298.72C745.333 1299.15 742.733 1299.58 740.133 1299.58C733.199 1300.45 725.833 1301.32 718.899 1302.18C716.733 1302.62 714.133 1302.62 711.966 1303.05H711.533C708.499 1303.48 705.466 1303.48 702.433 1303.92C699.399 1304.35 696.366 1304.35 693.333 1304.35C691.599 1304.35 689.433 1304.78 687.699 1304.78C684.233 1304.78 681.199 1305.22 678.166 1305.22C673.833 1305.22 669.933 1305.65 665.599 1305.65C661.266 1305.65 657.366 1305.65 653.033 1305.65C649.999 1305.65 646.966 1305.65 643.933 1305.65C461.499 1303.05 296.833 1225.48 179.833 1102.42C179.833 1102.42 179.833 1101.98 179.399 1101.98C192.833 1075.55 242.666 1027.88 294.666 988.45C360.533 938.617 453.699 907.85 453.699 907.85C453.699 907.85 514.799 897.883 741.433 945.117C914.333 981.517 987.999 1129.28 1013.13 1197.32Z" fill="#FEE4BF"/>
<path d="M789.532 1065.15C780.432 1109.78 721.499 1136.22 622.266 1096.35C500.499 1046.95 453.699 907.849 453.699 907.849C447.199 808.182 432.033 722.816 432.033 722.816C572.866 710.682 739.266 875.349 739.266 875.349L758.333 956.816C760.066 963.749 763.532 969.816 768.732 974.149C777.832 989.749 795.599 1036.55 789.532 1065.15Z" fill="#FEE4BF"/>
<path d="M768.733 974.583C685.966 970.249 624.866 958.116 559.433 840.683C614.899 889.649 680.333 908.283 749.233 916.949L758.333 956.816C760.066 964.183 763.533 970.249 768.733 974.583Z" fill="#EFBD9C"/>
<path d="M939.899 452.416C947.699 488.816 951.599 518.283 930.366 615.35C909.133 712.416 949.866 809.483 847.599 898.316C778.699 958.116 658.233 969.383 562.033 903.95C529.533 881.85 499.633 851.083 475.366 810.783C456.299 779.15 434.199 749.25 409.499 721.95C375.266 684.683 334.099 609.716 354.466 477.116C387.399 261.316 601.033 236.616 727.133 260.45C853.233 284.283 918.666 356.216 939.899 452.416Z" fill="#FEE4BF"/>
<path d="M525.199 621.851C525.199 621.851 511.766 556.851 448.499 564.651C393.899 571.584 374.833 702.451 498.766 738.851" fill="#FEE4BF"/>
<path d="M494.866 679.483C494.866 679.483 479.266 669.517 480.999 652.183C483.599 631.817 480.999 619.25 471.466 615.35C447.633 605.383 442.866 633.117 443.733 636.583" stroke="#423232" stroke-width="13.4786" stroke-miterlimit="10" stroke-linecap="round" stroke-linejoin="round"/>
<path d="M825.499 721.517C825.499 721.517 841.966 722.384 857.566 703.75C866.233 693.35 873.599 680.35 868.833 676.45C864.066 672.117 785.633 684.25 780.433 694.65C775.233 705.05 805.566 721.517 825.499 721.517Z" fill="#EFBD9C"/>
<path d="M838.499 575.916C838.499 575.916 839.366 617.082 865.799 663.015C877.499 683.382 859.733 716.749 821.166 722.382" stroke="#423232" stroke-width="13.4786" stroke-miterlimit="10" stroke-linecap="round" stroke-linejoin="round"/>
<path d="M906.533 816.417C906.533 816.85 906.533 816.85 906.533 816.417C906.099 816.85 906.099 816.85 906.533 816.417C895.699 844.584 877.933 871.45 847.599 897.884C778.699 957.684 658.233 968.95 562.033 903.517C551.199 896.15 540.799 887.917 530.833 878.817C523.899 870.15 517.833 861.05 512.633 851.517C481.433 793.017 494.866 738.417 494.866 738.417C494.866 738.417 512.633 738.85 533.866 780.45C551.633 815.117 620.099 813.817 648.266 748.817C679.466 676.45 757.466 708.084 775.233 715.017C792.999 721.95 820.733 721.95 820.733 721.95C890.933 721.084 869.699 768.317 877.066 794.317C887.899 829.85 906.533 816.417 906.533 816.417Z" fill="#423232"/>
<path d="M1158.82 1466.34H63.3556C63.3556 1466.34 68.1222 1264.41 135.722 1121.84C185.556 1016.11 313.822 955.873 403.089 925.106C423.022 918.173 441.222 912.973 455.956 909.073C460.722 922.073 508.822 1049.47 624.089 1096.27C723.322 1136.57 782.256 1109.71 791.356 1065.07C796.989 1036.47 779.222 989.673 770.122 974.506C764.922 970.173 761.455 963.673 759.722 957.173L756.255 942.873C764.055 941.14 771.422 938.973 779.222 936.807C783.122 937.673 787.022 938.54 790.922 939.407C846.822 952.84 929.589 985.34 1026.66 1067.24C1138.89 1160.84 1158.82 1466.34 1158.82 1466.34Z" fill="#FFDE55"/>
<path d="M806.955 1182.94C791.789 1187.27 738.922 1132.24 728.089 1122.71C718.122 1133.97 647.922 1213.27 613.255 1208.07C575.122 1202.44 477.622 1137.01 428.222 1034.31C400.922 977.973 400.055 943.739 403.089 925.106C404.389 916.439 406.989 910.806 408.289 907.773C412.622 897.806 443.822 859.239 451.622 859.673V860.106C455.522 901.706 468.955 942.006 491.489 977.106C519.222 1020.01 562.989 1071.57 624.089 1096.27C723.322 1136.57 774.889 1096.71 783.555 1052.07C789.189 1023.47 779.222 989.673 770.122 974.506C764.922 970.173 761.455 963.673 759.722 957.173L756.255 942.873C764.055 941.139 771.422 938.973 779.222 936.806C781.389 935.939 783.989 935.506 786.155 934.639C787.455 936.373 789.189 938.106 790.489 939.839C808.689 960.639 827.755 989.239 838.155 1037.77C855.922 1115.34 823.855 1177.74 806.955 1182.94Z" fill="#423232"/>
<path d="M726.789 1120.11C726.789 1120.11 758.423 1138.31 757.556 1153.47C756.689 1168.64 765.789 1216.74 765.789 1216.74" stroke="#423232" stroke-width="13.4786" stroke-miterlimit="10" stroke-linecap="round" stroke-linejoin="round"/>
<path d="M726.356 1177.74C732.1 1177.74 736.756 1173.08 736.756 1167.34C736.756 1161.6 732.1 1156.94 726.356 1156.94C720.612 1156.94 715.956 1161.6 715.956 1167.34C715.956 1173.08 720.612 1177.74 726.356 1177.74Z" fill="#423232"/>
<path d="M730.256 1218.47C735.999 1218.47 740.656 1213.82 740.656 1208.07C740.656 1202.33 735.999 1197.67 730.256 1197.67C724.512 1197.67 719.856 1202.33 719.856 1208.07C719.856 1213.82 724.512 1218.47 730.256 1218.47Z" fill="#423232"/>
<path d="M277.855 1466.34L258.355 1305.57" stroke="#544D4D" stroke-width="13.4786" stroke-miterlimit="10" stroke-linecap="round" stroke-linejoin="round"/>
<path d="M1034.46 1250.97C1034.46 1250.97 1021.46 1282.61 1025.36 1314.24C1029.26 1345.87 1040.52 1392.24 1024.49 1466.34" stroke="#544D4D" stroke-width="13.4786" stroke-miterlimit="10" stroke-linecap="round" stroke-linejoin="round"/>
<path d="M699.711 590.25C699.711 590.683 699.711 591.117 699.711 591.117L699.277 603.25C698.844 613.65 690.177 621.45 679.777 621.017C669.377 620.583 661.577 611.483 662.444 601.517L662.877 589.383C662.877 587.217 663.744 584.617 664.611 582.883L699.277 584.617C699.277 586.35 699.711 588.083 699.711 590.25Z" fill="#423232"/>
<path d="M880.841 599.783L880.408 611.05C879.974 620.583 871.741 627.95 862.208 627.516C852.674 627.083 845.308 618.85 845.741 609.316L846.174 598.05C846.174 595.883 846.608 593.716 847.474 591.983L879.974 593.283C880.841 595.45 880.841 597.616 880.841 599.783Z" fill="#423232"/>
<path d="M743.042 530.881C752.575 532.181 759.942 522.215 756.475 512.681C754.742 507.481 751.709 502.715 746.942 499.681C732.209 490.581 677.175 489.715 648.142 510.515C622.575 529.581 699.709 524.815 743.042 530.881Z" fill="#423232"/>
<path d="M863.074 535.648C855.274 535.648 850.508 525.682 854.408 517.448C856.574 513.115 859.607 509.215 863.941 507.049C877.374 500.549 913.341 504.449 929.374 526.549C943.674 546.049 899.041 535.215 863.074 535.648Z" fill="#423232"/>
<path d="M727.875 585.482L698.842 584.182L664.175 582.882L656.375 582.449" stroke="#423232" stroke-width="13.4786" stroke-miterlimit="10" stroke-linecap="round" stroke-linejoin="round"/>
<path d="M899.043 594.15L879.976 593.283L847.476 591.983H846.176" stroke="#423232" stroke-width="13.4786" stroke-miterlimit="10" stroke-linecap="round" stroke-linejoin="round"/>
<path d="M804.157 772.845C804.606 780.034 799.215 792.614 789.331 801.599C738.561 770.599 715.648 786.773 715.648 786.773C697.676 759.367 701.72 722.076 745.301 750.381C775.852 769.7 794.273 772.845 804.157 772.845Z" fill="#423232"/>
<path d="M789.331 801.6C778.548 811.035 762.374 816.876 740.359 807.89C730.025 803.847 721.938 795.759 715.648 786.774C715.648 786.774 738.562 770.599 789.331 801.6Z" fill="#FE9DAB"/>
<path d="M812.694 771.048C812.694 771.048 793.824 781.382 745.301 750.381C687.343 713.09 699.025 791.266 739.91 807.889C782.592 825.412 804.607 787.222 804.158 772.845" stroke="#423232" stroke-width="13.4786" stroke-miterlimit="10" stroke-linecap="round" stroke-linejoin="round"/>
<path d="M715.648 786.774C715.648 786.774 738.562 770.599 789.331 801.6" stroke="#423232" stroke-width="13.4786" stroke-miterlimit="10" stroke-linecap="round" stroke-linejoin="round"/>
<path d="M1025.83 400.553C1025.83 345.953 989 300.453 939.167 286.153C941.767 275.32 942.2 264.053 939.6 252.353C930.934 214.653 897.134 188.22 858.567 190.82C843.4 191.686 829.1 197.32 817.4 205.986C799.2 163.953 757.167 134.486 708.634 134.486C657.067 134.486 613.3 167.42 596.834 213.353C578.634 191.686 551.334 177.82 521 177.82C468.134 177.82 424.8 219.42 422.2 271.853C413.967 269.253 404.867 267.953 395.767 268.386C360.667 270.553 332.067 299.153 329.467 334.253C328.6 345.953 330.767 357.22 335.1 367.62C285.7 372.82 247.134 414.853 247.134 465.553C247.134 503.686 268.8 537.053 300.867 553.52C287.867 566.52 279.634 584.286 279.634 603.786C279.634 640.186 307.367 670.52 342.9 674.42C340.734 681.353 339.867 689.586 342.467 697.82C346.367 712.12 358.067 723.386 372.367 726.42C381.034 728.153 389.267 727.286 396.634 724.253C400.534 729.886 404.434 734.653 407.9 738.986C412.234 744.186 415.7 748.953 419.167 753.72C439.1 782.32 484.6 769.753 486.334 735.086C486.334 734.653 486.334 734.653 486.334 734.22C378 692.62 397.5 571.72 450.367 564.786C505.834 557.853 523.167 607.253 526.2 619.386C585.567 581.253 501.067 443.886 588.167 403.153C665.734 367.186 747.2 421.786 846.867 435.22C883.7 440.42 918.367 404.02 933.967 424.386C937 433.486 939.6 442.586 941.767 452.12C948.7 482.886 952.167 508.886 940.467 574.753C969.067 559.153 982.934 535.753 985.534 512.786C986.4 504.986 986.4 496.753 985.967 488.953C1010.23 467.72 1025.83 436.086 1025.83 400.553Z" fill="#423232"/>
</g>
</svg>
