<svg width="1300" height="1300" viewBox="0 0 1300 1300" fill="none" xmlns="http://www.w3.org/2000/svg">
<mask id="mask0_113_5840" style="mask-type:alpha" maskUnits="userSpaceOnUse" x="-1" y="0" width="1302" height="1300">
<path d="M650 1300C290.71 1300 -0.00012207 1008.86 -0.00012207 650C-0.00012207 290.71 291.141 0 650 0C1009.29 0 1300 291.141 1300 650C1300.43 1009.29 1009.29 1300 650 1300Z" fill="#F7C0B5"/>
</mask>
<g mask="url(#mask0_113_5840)">
<path d="M1014.87 1197.33C1011.83 1199.5 1008.37 1201.66 1005.33 1203.83C1001.87 1206 998.832 1208.17 995.366 1209.9C992.332 1211.63 989.732 1213.37 986.699 1215.1C986.266 1215.53 985.833 1215.53 985.399 1215.97C975.433 1222.03 965.033 1227.67 954.633 1232.87C951.599 1234.6 948.133 1236.33 945.099 1237.63C945.099 1237.63 944.666 1238.07 944.233 1238.07C940.766 1239.8 937.299 1241.53 933.832 1243.27C926.899 1246.73 919.533 1249.76 912.599 1252.8C909.133 1254.53 905.233 1255.83 901.766 1257.13C898.299 1258.43 894.399 1260.16 890.933 1261.46C887.466 1262.76 883.566 1264.5 880.099 1265.8C880.099 1265.8 880.099 1265.8 879.666 1265.8C876.199 1267.1 872.299 1268.4 868.833 1269.7C861.033 1272.3 852.799 1274.9 844.999 1277.5C842.399 1278.36 839.366 1279.23 836.766 1280.1C828.533 1282.7 820.299 1284.86 812.066 1286.6C809.033 1287.46 805.999 1287.9 802.532 1288.76C794.732 1290.5 786.499 1292.23 778.699 1293.96C776.966 1294.4 775.666 1294.4 773.933 1294.83C771.333 1295.26 768.299 1295.7 765.699 1296.13C761.799 1296.56 758.333 1297.43 754.433 1297.87C752.699 1298.3 750.966 1298.3 749.233 1298.73C747.066 1299.17 744.466 1299.6 741.866 1299.6C734.933 1300.46 727.566 1301.33 720.633 1302.2C718.466 1302.63 715.866 1302.63 713.699 1303.07H713.266C710.233 1303.5 707.199 1303.5 704.166 1303.93C701.133 1304.36 698.099 1304.37 695.066 1304.37C693.333 1304.37 691.166 1304.8 689.433 1304.8C685.966 1304.8 682.933 1305.23 679.899 1305.23C675.566 1305.23 671.666 1305.66 667.333 1305.66C662.999 1305.66 659.099 1305.66 654.766 1305.66C651.733 1305.66 648.699 1305.66 645.666 1305.66C463.233 1303.06 298.566 1225.5 181.566 1102.43C181.566 1102.43 181.566 1102 181.133 1102C194.566 1075.57 244.399 1027.9 296.399 988.465C362.266 938.632 455.433 907.865 455.433 907.865C455.433 907.865 516.533 897.898 743.166 945.132C916.066 981.532 989.732 1129.3 1014.87 1197.33Z" fill="#AD827B"/>
<path d="M791.266 1065.16C782.166 1109.8 723.232 1136.23 623.999 1096.36C502.232 1046.96 455.432 907.865 455.432 907.865C448.932 808.198 433.766 722.831 433.766 722.831C574.599 710.698 740.999 875.365 740.999 875.365L760.066 956.831C761.799 963.765 765.266 969.831 770.466 974.165C779.566 989.765 797.332 1036.56 791.266 1065.16Z" fill="#AD827B"/>
<path d="M770.466 974.598C687.699 970.264 626.599 958.131 561.166 840.698C616.632 889.664 682.066 908.298 750.966 916.964L760.066 956.831C761.799 964.198 765.266 970.264 770.466 974.598Z" fill="#8E5650"/>
<path d="M941.632 452.431C949.432 488.831 953.332 518.298 932.099 615.365C910.866 712.431 951.599 809.498 849.332 898.331C780.432 958.131 659.966 969.398 563.766 903.965C531.266 881.865 501.366 851.098 477.099 810.798C458.032 779.165 435.932 749.265 411.232 721.965C376.999 684.698 335.832 609.731 356.199 477.131C389.132 261.332 602.766 236.632 728.866 260.465C854.966 284.298 920.399 356.231 941.632 452.431Z" fill="#AD827B"/>
<path d="M526.933 621.866C526.933 621.866 513.499 556.866 450.233 564.666C395.633 571.599 376.566 702.466 500.499 738.866" fill="#AD827B"/>
<path d="M496.599 679.499C496.599 679.499 480.999 669.532 482.733 652.199C485.333 631.832 482.733 619.266 473.199 615.366C449.366 605.399 444.599 633.132 445.466 636.599" stroke="#423232" stroke-width="13.4786" stroke-miterlimit="10" stroke-linecap="round" stroke-linejoin="round"/>
<path d="M827.232 721.532C827.232 721.532 843.699 722.399 859.299 703.766C867.966 693.366 875.332 680.366 870.566 676.466C865.799 672.132 787.366 684.266 782.166 694.666C776.966 705.066 807.299 721.532 827.232 721.532Z" fill="#8E605C"/>
<path d="M840.233 575.931C840.233 575.931 841.099 617.097 867.533 663.031C879.233 683.397 861.466 716.764 822.899 722.397" stroke="#423232" stroke-width="13.4786" stroke-miterlimit="10" stroke-linecap="round" stroke-linejoin="round"/>
<path d="M496.385 947.754C496.385 947.754 487.718 894.021 472.985 897.054C404.518 912.654 204.752 970.721 134.985 1121.52C69.1182 1264.95 63.0515 1466.02 63.0515 1466.02H1158.95C1158.95 1466.02 1139.02 1160.52 1027.22 1066.92C960.918 1011.02 901.118 976.788 852.152 955.988C787.152 928.254 721.718 986.321 703.085 985.021C669.718 983.288 496.385 947.754 496.385 947.754Z" fill="#544D4D"/>
<path d="M277.551 1466.02L258.051 1305.25" stroke="white" stroke-width="13.4786" stroke-miterlimit="10" stroke-linecap="round" stroke-linejoin="round"/>
<path d="M1034.15 1250.65C1034.15 1250.65 1021.15 1282.29 1025.05 1313.92C1028.95 1345.55 1040.22 1391.92 1024.18 1466.02" stroke="white" stroke-width="13.4786" stroke-miterlimit="10" stroke-linecap="round" stroke-linejoin="round"/>
<path d="M446.551 853.288C446.551 853.288 415.351 864.555 409.718 870.622C404.085 876.688 401.485 880.588 401.485 880.588C401.485 880.588 385.885 897.922 377.218 939.955C373.318 957.722 382.418 986.755 375.485 1009.72C355.551 1073.42 450.018 1171.35 606.018 1228.99C724.318 1272.75 854.751 1232.89 872.951 1150.55C890.285 1071.25 879.885 1035.29 871.651 1009.72C855.185 960.322 849.985 946.455 827.885 927.388C814.018 915.255 804.485 940.388 752.485 954.688C736.451 959.021 716.951 962.488 691.818 963.355C542.318 968.988 479.051 884.055 456.518 859.788C450.885 855.022 448.285 852.422 446.551 853.288Z" fill="white"/>
<path d="M751.185 954.256C735.151 958.589 715.651 962.056 690.518 962.922C541.018 968.556 477.751 883.622 455.218 859.355" stroke="#CCCCCC" stroke-width="13.4786" stroke-miterlimit="10" stroke-linecap="round" stroke-linejoin="round"/>
<path d="M830.485 911.789C869.918 944.722 938.385 1030.96 921.918 1223.79C913.685 1319.12 960.052 1358.56 949.652 1373.72C947.918 1376.32 945.751 1377.62 944.018 1378.06C936.651 1379.79 929.718 1383.26 926.252 1390.19C924.952 1393.22 922.785 1395.39 919.752 1397.12C917.152 1398.86 914.118 1398.86 911.518 1398.42C902.418 1396.26 892.452 1401.46 886.818 1409.26C884.652 1412.29 882.052 1414.46 878.152 1415.32C875.552 1416.19 872.952 1415.76 871.218 1415.32C863.852 1413.16 855.618 1415.32 849.118 1420.52C847.385 1421.82 845.652 1422.69 843.485 1422.69C839.585 1422.69 836.551 1420.96 833.951 1418.36C827.885 1412.72 819.218 1410.56 810.552 1413.59C809.685 1414.02 809.252 1414.02 808.385 1414.02C802.318 1414.89 797.552 1410.12 794.085 1401.89C790.618 1394.09 782.385 1390.62 773.718 1391.49C771.985 1391.49 770.252 1391.49 768.085 1391.06C751.185 1387.16 729.518 1363.76 729.085 1335.16C728.652 1306.99 735.152 1258.02 745.985 1235.06C779.352 1164.42 791.485 1113.72 793.218 1075.59C796.685 1005.82 752.485 943.422 756.818 942.122C801.018 933.022 830.485 911.789 830.485 911.789Z" fill="white"/>
<path d="M745.551 1235.05C778.918 1164.42 791.051 1113.72 792.785 1075.59C795.385 1021.85 769.385 972.021 759.851 951.654" stroke="#CCCCCC" stroke-width="13.4786" stroke-miterlimit="10" stroke-linecap="round" stroke-linejoin="round"/>
<path d="M728.652 1335.15C728.218 1306.99 734.718 1258.02 745.552 1235.05C778.918 1164.42 791.052 1113.72 792.785 1075.59" stroke="#CCCCCC" stroke-width="13.4786" stroke-miterlimit="10" stroke-linecap="round" stroke-linejoin="round"/>
<path d="M767.218 1183.92C767.218 1183.92 635.485 1196.92 548.818 1131.49" stroke="#CCCCCC" stroke-width="13.4786" stroke-miterlimit="10" stroke-linecap="round" stroke-linejoin="round"/>
<path d="M802.752 955.555C814.886 973.321 828.752 999.321 832.219 1031.39" stroke="#CCCCCC" stroke-width="13.4786" stroke-miterlimit="10" stroke-linecap="round" stroke-linejoin="round"/>
<path d="M857.786 1415.32C857.786 1415.32 835.686 1368.52 857.786 1266.69C881.186 1158.35 870.352 1105.05 870.352 1105.05" stroke="#CCCCCC" stroke-width="13.4786" stroke-miterlimit="10" stroke-linecap="round" stroke-linejoin="round"/>
<path d="M376.352 961.621C376.352 961.621 405.385 1021.42 440.485 1049.15" stroke="#CCCCCC" stroke-width="13.4786" stroke-miterlimit="10" stroke-linecap="round" stroke-linejoin="round"/>
<path d="M789.319 1105.05C789.319 1105.05 706.986 1110.69 648.919 1088.15" stroke="#CCCCCC" stroke-width="13.4786" stroke-miterlimit="10" stroke-linecap="round" stroke-linejoin="round"/>
<path d="M743.042 526.548C752.575 527.848 759.942 517.882 756.475 508.348C754.742 503.148 751.709 498.382 746.942 495.348C732.209 486.248 677.175 485.382 648.142 506.182C622.575 525.248 699.709 520.482 743.042 526.548Z" fill="#423232"/>
<path d="M863.074 531.316C855.274 531.316 850.508 521.349 854.408 513.116C856.574 508.783 859.608 504.883 863.941 502.716C877.374 496.216 913.341 500.116 929.374 522.216C943.674 541.716 899.041 530.883 863.074 531.316Z" fill="#423232"/>
<path d="M727.876 581.148C694.076 595.448 656.375 577.682 656.375 577.682" stroke="#423232" stroke-width="13.4786" stroke-miterlimit="10" stroke-linecap="round" stroke-linejoin="round"/>
<path d="M899.042 589.816C899.042 589.816 875.642 604.116 846.176 587.216" stroke="#423232" stroke-width="13.4786" stroke-miterlimit="10" stroke-linecap="round" stroke-linejoin="round"/>
<path d="M804.157 772.845C804.607 780.034 799.215 792.614 789.331 801.599C738.561 770.599 715.648 786.773 715.648 786.773C697.676 759.367 701.72 722.076 745.301 750.381C775.852 769.7 794.273 772.845 804.157 772.845Z" fill="#423232"/>
<path d="M789.331 801.6C778.548 811.035 762.374 816.876 740.359 807.89C730.025 803.847 721.938 795.759 715.648 786.774C715.648 786.774 738.562 770.599 789.331 801.6Z" fill="#FE9DAB"/>
<path d="M812.694 771.048C812.694 771.048 793.824 781.382 745.301 750.381C687.343 713.09 699.025 791.266 739.91 807.889C782.592 825.412 804.607 787.222 804.158 772.845" stroke="#423232" stroke-width="13.4786" stroke-miterlimit="10" stroke-linecap="round" stroke-linejoin="round"/>
<path d="M715.648 786.774C715.648 786.774 738.562 770.599 789.331 801.6" stroke="#423232" stroke-width="13.4786" stroke-miterlimit="10" stroke-linecap="round" stroke-linejoin="round"/>
<path d="M1007.78 624.095C987.418 605.461 981.784 578.162 980.051 559.962C993.051 568.628 1009.95 542.195 1009.08 510.995C1007.78 464.628 995.651 430.395 981.351 406.561C991.318 393.995 998.684 379.262 1002.58 362.795C1020.35 290.862 961.851 235.828 876.484 215.028C824.051 202.028 727.851 208.528 614.751 206.795C595.251 206.362 574.884 207.228 554.951 209.395C530.684 211.995 506.851 217.195 484.751 226.295C448.784 239.728 415.851 260.962 390.718 291.728C346.518 346.328 333.951 408.728 331.785 457.261C329.618 514.895 315.751 571.662 288.451 622.795C258.985 677.828 240.785 736.328 269.818 786.595C270.685 787.895 271.551 789.195 272.418 790.928C258.551 859.395 335.685 853.328 350.851 783.995C347.818 796.995 345.651 808.261 344.351 816.061C333.951 884.095 383.351 892.761 408.051 845.528C410.651 840.761 417.151 821.261 424.084 796.561C424.084 800.895 424.518 805.228 424.951 809.128C425.818 904.028 493.418 912.262 489.518 848.128C487.785 819.528 492.551 779.661 499.918 736.328C376.851 699.495 395.918 569.495 450.951 562.561C514.218 554.328 527.651 619.761 527.651 619.761C532.418 640.128 539.351 664.395 549.751 676.095C568.384 696.461 600.451 682.161 579.651 618.028C575.318 604.595 571.418 589.428 568.818 573.395C585.285 577.728 599.585 568.628 592.651 550.428C586.151 533.961 582.685 518.795 581.818 504.495C580.518 482.395 586.151 462.462 595.685 445.995C605.651 485.428 647.251 473.295 649.851 444.695C650.718 435.162 653.751 423.895 658.084 411.328C668.484 424.762 682.784 437.328 700.551 446.428C733.484 462.895 756.884 455.095 762.084 438.195C783.318 445.562 802.384 451.195 817.118 454.662C861.318 465.495 905.084 459.862 939.318 441.662C941.051 445.562 941.918 449.028 942.351 450.328C942.784 452.495 943.218 454.662 943.651 456.828C947.551 475.462 949.718 493.662 947.984 520.962C947.984 522.262 947.984 523.128 947.551 524.428C947.551 525.295 947.551 526.162 947.118 527.028C947.118 529.195 946.684 530.928 946.684 533.095C946.684 534.395 946.251 535.261 946.251 536.561C946.251 538.295 945.818 540.462 945.384 542.628C944.951 544.362 944.951 546.095 944.518 547.828C944.518 549.128 944.084 550.862 944.084 552.162C943.651 554.762 943.218 557.361 942.784 560.395C942.784 560.828 942.784 561.695 942.351 562.128C941.918 565.595 941.051 569.062 940.618 572.962C938.451 585.095 935.851 598.095 932.818 613.261C914.618 697.328 942.784 782.262 883.418 861.128C880.818 884.528 901.184 913.995 926.318 883.228C945.818 859.395 936.718 779.662 935.418 763.628C937.151 780.528 964.018 834.262 989.151 826.462C1003.02 822.128 1009.08 814.761 1006.92 789.195C1004.32 753.228 976.151 717.695 972.251 665.261C998.251 687.361 1035.08 648.795 1007.78 624.095Z" fill="#423232"/>
<path d="M477.159 636.126C477.159 636.126 442.492 630.926 445.092 679.46C446.392 704.16 446.392 717.593 445.959 724.526C445.525 729.293 448.559 733.626 452.892 735.36C458.092 737.526 463.726 735.36 466.326 730.16C470.226 723.226 474.559 713.693 474.559 705.893C474.559 692.893 488.425 681.193 488.425 681.193C488.425 681.193 475.859 670.36 477.159 636.126Z" fill="white"/>
<path d="M582.025 1471.59C578.559 1467.69 442.492 1234.99 462.859 1147.46C476.725 1087.23 458.525 1017.89 442.492 956.792C435.992 931.659 429.925 908.259 426.459 887.459C420.392 851.492 424.725 817.259 439.459 785.625C455.492 750.092 452.892 719.325 452.892 718.892L461.559 718.025C461.559 719.325 464.159 751.825 447.259 789.092C433.392 818.992 429.492 851.925 435.125 886.159C438.592 906.525 444.659 929.925 451.159 955.059C467.625 1017.03 485.825 1087.66 471.525 1150.06C452.459 1233.26 588.092 1465.96 588.959 1466.83L582.025 1471.59Z" fill="white"/>
<path d="M446.393 704.592C446.826 714.125 446.393 720.625 446.393 724.525C445.959 729.292 448.993 733.625 453.326 735.358C458.526 737.525 464.159 735.358 466.759 730.158C470.659 723.225 474.993 713.692 474.993 705.892C474.993 705.458 474.993 704.592 474.993 704.158C465.893 707.625 455.493 710.225 446.393 704.592Z" fill="#E5E5E5"/>
<path d="M854.159 992.759C851.125 1012.69 850.692 1044.33 849.825 1081.16C848.525 1152.23 806.492 1429.13 786.125 1472.89L778.325 1469.43C797.825 1426.96 839.859 1151.36 841.159 1081.16C842.025 1044.33 842.459 1012.26 845.492 991.459C851.992 947.692 847.225 914.759 844.625 900.892C845.925 899.592 847.225 898.725 848.525 897.425C849.825 896.559 850.692 895.259 851.992 894.392C854.592 905.659 861.959 941.625 854.159 992.759Z" fill="white"/>
</g>
</svg>
