<svg width="1300" height="1300" viewBox="0 0 1300 1300" fill="none" xmlns="http://www.w3.org/2000/svg">
<mask id="mask0_113_5831" style="mask-type:alpha" maskUnits="userSpaceOnUse" x="0" y="0" width="1301" height="1300">
<path d="M650 1300C290.71 1300 0 1008.86 0 650C0 290.71 291.141 0 650 0C1009.29 0 1300 291.141 1300 650C1300.43 1009.29 1009.29 1300 650 1300Z" fill="#F7C0B5"/>
</mask>
<g mask="url(#mask0_113_5831)">
<path d="M1015.73 1197.33C1012.7 1199.5 1009.23 1201.66 1006.2 1203.83C1002.73 1206 999.698 1208.17 996.232 1209.9C993.198 1211.63 990.598 1213.37 987.565 1215.1C987.132 1215.53 986.698 1215.53 986.265 1215.97C976.298 1222.03 965.898 1227.67 955.498 1232.87C952.465 1234.6 948.998 1236.33 945.965 1237.63C945.965 1237.63 945.532 1238.07 945.098 1238.07C941.632 1239.8 938.165 1241.53 934.698 1243.27C927.765 1246.73 920.398 1249.76 913.465 1252.8C909.998 1254.53 906.098 1255.83 902.632 1257.13C899.165 1258.43 895.265 1260.16 891.798 1261.46C888.332 1262.76 884.432 1264.5 880.965 1265.8C880.965 1265.8 880.965 1265.8 880.532 1265.8C877.065 1267.1 873.165 1268.4 869.698 1269.7C861.898 1272.3 853.665 1274.9 845.865 1277.5C843.265 1278.36 840.232 1279.23 837.632 1280.1C829.398 1282.7 821.165 1284.86 812.932 1286.6C809.898 1287.46 806.865 1287.9 803.398 1288.76C795.598 1290.5 787.365 1292.23 779.565 1293.96C777.832 1294.4 776.532 1294.4 774.798 1294.83C772.198 1295.26 769.165 1295.7 766.565 1296.13C762.665 1296.56 759.198 1297.43 755.298 1297.87C753.565 1298.3 751.832 1298.3 750.098 1298.73C747.932 1299.17 745.332 1299.6 742.732 1299.6C735.798 1300.46 728.432 1301.33 721.498 1302.2C719.332 1302.63 716.732 1302.63 714.565 1303.07H714.132C711.098 1303.5 708.065 1303.5 705.032 1303.93C701.998 1304.36 698.965 1304.37 695.932 1304.37C694.198 1304.37 692.032 1304.8 690.298 1304.8C686.832 1304.8 683.798 1305.23 680.765 1305.23C676.432 1305.23 672.532 1305.66 668.198 1305.66C663.865 1305.66 659.965 1305.66 655.632 1305.66C652.598 1305.66 649.565 1305.66 646.532 1305.66C464.098 1303.06 299.432 1225.5 182.432 1102.43C182.432 1102.43 182.432 1102 181.998 1102C195.432 1075.57 245.265 1027.9 297.265 988.465C363.132 938.632 456.298 907.865 456.298 907.865C456.298 907.865 517.398 897.898 744.032 945.132C916.932 981.532 990.598 1129.3 1015.73 1197.33Z" fill="#FEE4BF"/>
<path d="M792.132 1065.16C783.032 1109.8 724.098 1136.23 624.865 1096.36C503.098 1046.96 456.298 907.865 456.298 907.865C449.798 808.198 434.632 722.831 434.632 722.831C575.465 710.698 741.865 875.365 741.865 875.365L760.932 956.831C762.665 963.765 766.132 969.831 771.332 974.165C780.432 989.765 798.198 1036.56 792.132 1065.16Z" fill="#FEE4BF"/>
<path d="M771.331 974.598C688.565 970.264 627.465 958.131 562.031 840.698C617.498 889.664 682.931 908.298 751.831 916.964L760.931 956.831C762.665 964.198 766.131 970.264 771.331 974.598Z" fill="#EFBDA5"/>
<path d="M942.498 452.431C950.298 488.831 954.198 518.298 932.965 615.365C911.731 712.431 952.464 809.498 850.198 898.331C781.298 958.131 660.831 969.398 564.631 903.965C532.131 881.865 502.231 851.098 477.965 810.798C458.898 779.165 436.798 749.265 412.098 721.965C377.865 684.698 336.698 609.731 357.065 477.131C389.998 261.332 603.631 236.632 729.731 260.465C855.831 284.298 921.265 356.231 942.498 452.431Z" fill="#FEE4BF"/>
<path d="M527.798 621.866C527.798 621.866 514.365 556.866 451.098 564.666C396.498 571.599 377.431 702.466 501.365 738.866" fill="#FEE4BF"/>
<path d="M497.465 679.499C497.465 679.499 481.865 669.532 483.598 652.199C486.198 631.832 483.598 619.266 474.065 615.366C450.232 605.399 445.465 633.132 446.332 636.599" stroke="#423232" stroke-width="13.4786" stroke-miterlimit="10" stroke-linecap="round" stroke-linejoin="round"/>
<path d="M828.099 721.532C828.099 721.532 844.565 722.399 860.165 703.766C868.832 693.366 876.199 680.366 871.432 676.466C866.665 672.132 788.232 684.266 783.032 694.666C777.832 705.066 808.165 721.532 828.099 721.532Z" fill="#EFBDA5"/>
<path d="M841.098 575.931C841.098 575.931 841.965 617.097 868.398 663.031C880.098 683.397 862.332 716.764 823.765 722.397" stroke="#423232" stroke-width="13.4786" stroke-miterlimit="10" stroke-linecap="round" stroke-linejoin="round"/>
<path opacity="0.42" d="M606.231 743.631C630.882 743.631 650.865 727.141 650.865 706.798C650.865 686.456 630.882 669.965 606.231 669.965C581.581 669.965 561.598 686.456 561.598 706.798C561.598 727.141 581.581 743.631 606.231 743.631Z" fill="#F2A5B2"/>
<path opacity="0.42" d="M926.032 670.832C924.732 695.098 925.165 718.932 923.432 742.765C904.365 738.432 890.499 724.132 890.499 707.232C890.499 689.032 905.665 674.298 926.032 670.832Z" fill="#F2A5B2"/>
<path d="M1158.93 1465.49H63.4619C63.4619 1465.49 69.9619 1264.42 135.829 1120.99C185.662 1012.65 303.095 952.42 390.629 921.22C415.329 912.554 437.862 906.054 455.195 901.287C455.195 903.454 455.629 905.187 455.629 907.354C455.629 907.354 502.429 1046.45 624.195 1095.85C723.429 1136.15 782.362 1109.29 791.462 1064.65C797.095 1036.05 779.329 989.254 770.229 974.087C765.029 969.754 761.562 963.254 759.829 956.754L756.362 942.454C764.595 940.72 772.395 938.554 780.195 935.954C782.795 935.087 784.962 934.22 787.562 933.354C843.462 948.087 927.528 983.187 1026.76 1066.39C1139 1159.99 1158.93 1465.49 1158.93 1465.49Z" fill="#BEE3EB"/>
<path d="M586.495 1140.92C436.995 1073.75 378.929 953.72 390.195 921.22C390.195 921.22 390.196 920.786 390.629 920.353C398.429 904.32 410.996 891.32 426.596 882.22C435.262 877.02 444.796 872.253 452.596 869.653C453.029 875.719 454.762 894.786 455.195 901.286C455.195 903.453 455.629 905.186 455.629 907.353C455.629 907.353 483.362 1010.92 605.129 1060.32C704.362 1100.62 765.896 1074.19 772.396 1029.12C779.762 979.286 751.596 943.319 751.596 943.319C759.829 941.586 772.829 938.553 780.629 935.953C799.695 958.92 819.196 981.886 826.562 1042.55C836.962 1129.65 741.195 1210.69 586.495 1140.92Z" fill="white"/>
<path d="M277.962 1465.49L258.462 1304.72" stroke="#544D4D" stroke-width="13.4786" stroke-miterlimit="10" stroke-linecap="round" stroke-linejoin="round"/>
<path d="M1034.56 1250.12C1034.56 1250.12 1021.56 1281.75 1025.46 1313.39C1029.36 1345.02 1040.63 1391.39 1024.6 1465.49" stroke="#544D4D" stroke-width="13.4786" stroke-miterlimit="10" stroke-linecap="round" stroke-linejoin="round"/>
<path d="M683.944 619.44C673.544 619.006 665.744 610.34 666.61 599.94L667.044 587.806C667.477 577.406 676.144 569.606 686.544 570.473C696.944 570.906 704.744 579.573 703.877 589.973L703.444 602.106C703.01 612.073 694.344 619.873 683.944 619.44Z" fill="#423232"/>
<path d="M866.377 625.939C856.843 625.506 849.477 617.272 849.91 607.739L850.343 596.472C850.777 586.939 859.01 579.572 868.543 580.005C878.077 580.439 885.443 588.672 885.01 598.205L884.577 609.472C884.143 619.005 875.91 626.372 866.377 625.939Z" fill="#423232"/>
<path d="M725.977 594.305C725.977 594.305 714.71 578.272 695.21 575.238C679.177 572.638 661.41 580.438 658.81 589.538" stroke="#423232" stroke-width="13.4786" stroke-miterlimit="10" stroke-linecap="round" stroke-linejoin="round"/>
<path d="M853.81 598.207C853.81 598.207 853.81 584.34 873.743 584.34C890.21 584.34 897.143 599.507 897.143 599.507" stroke="#423232" stroke-width="13.4786" stroke-miterlimit="10" stroke-linecap="round" stroke-linejoin="round"/>
<path d="M743.742 524.54C752.842 527.573 761.942 519.34 760.209 509.373C759.342 504.173 757.176 498.973 752.842 495.073C739.842 483.373 686.109 472.973 653.609 488.14C625.009 502.006 702.142 510.673 743.742 524.54Z" fill="#423232"/>
<path d="M873.309 531.473C865.942 534.073 858.142 526.273 859.442 517.173C859.875 512.406 861.609 507.64 865.075 504.173C875.475 493.773 911.009 485.54 933.542 501.573C953.042 515.006 907.109 518.906 873.309 531.473Z" fill="#423232"/>
<path d="M816.925 774.866C805.693 779.808 800.302 769.924 782.78 778.46C770.2 784.301 763.46 786.098 748.185 777.113C738.3 770.823 726.169 779.808 714.488 762.735" stroke="#423232" stroke-width="13.4786" stroke-miterlimit="10" stroke-linecap="round" stroke-linejoin="round"/>
<path d="M766.187 939.664C797.82 931.431 825.986 917.131 848.953 897.197C951.22 808.797 910.487 711.297 931.72 614.231C938.653 583.031 942.553 558.764 945.153 539.264C941.687 538.831 937.787 538.397 933.887 537.531C918.287 535.364 907.886 521.064 909.62 505.464C910.486 498.964 910.92 492.464 911.353 485.531C909.62 485.097 910.053 485.097 908.32 485.097C905.72 493.331 902.687 501.997 900.52 510.231C896.62 523.231 884.053 531.464 871.053 530.597H870.62C855.453 529.297 844.187 516.731 844.187 501.564C844.62 490.731 844.62 479.897 845.053 469.064C843.32 468.631 844.186 469.064 842.453 468.631C840.286 479.897 838.12 491.164 835.953 502.864C833.353 517.164 820.787 527.131 806.487 526.264C769.22 524.531 732.387 524.097 699.02 524.097C684.287 524.097 672.153 513.264 670.853 498.531C668.687 479.464 665.653 460.397 660.453 440.897C654.82 458.231 654.82 476.431 655.687 495.064C656.553 511.097 643.987 524.531 627.953 524.964C589.387 525.831 563.387 527.131 559.053 527.564C560.353 586.931 546.92 652.797 523.087 608.164C521.353 605.131 520.053 602.097 518.32 598.197C508.353 580.431 488.42 559.197 450.72 563.964C397.853 570.897 378.353 693.531 489.287 734.264C489.72 743.364 491.887 752.464 495.787 761.997C512.687 803.164 520.053 837.397 520.053 865.564C520.053 1028.93 252.687 960.897 177.287 812.697C148.253 755.064 147.82 685.731 202.853 612.931C337.62 447.831 297.32 510.664 327.22 412.731C376.187 252.397 487.987 201.264 636.187 202.564C636.187 202.564 882.753 202.564 948.187 262.364C1013.62 322.164 991.086 508.931 985.453 525.831C983.72 531.031 979.386 534.064 974.62 536.231C972.02 621.597 980.687 651.497 1011.02 720.397C1077.32 872.064 952.087 1016.36 766.187 939.664Z" fill="#423232"/>
<path d="M523.087 608.596C521.353 605.563 520.053 602.529 518.32 598.629C520.053 602.096 521.787 605.563 523.087 608.596Z" fill="#FEE4BF"/>
<path opacity="0.6" d="M865.083 677.254C865.083 677.254 870.283 706.721 904.516 721.454C913.183 724.921 922.283 719.287 922.283 709.754C921.849 709.754 867.249 680.721 865.083 677.254Z" fill="#B7AEA9"/>
<path opacity="0.6" d="M782.75 606.187C782.75 606.187 810.483 578.454 824.35 575.42L787.516 584.087L782.75 606.187Z" fill="#B7AEA9"/>
<path opacity="0.6" d="M597.716 677.254C597.716 677.254 613.75 713.654 661.85 722.32C709.95 731.42 753.716 696.754 774.083 638.687C774.083 638.687 757.616 692.42 691.75 702.387C626.316 713.22 597.716 677.254 597.716 677.254Z" fill="#B7AEA9"/>
<path opacity="0.29" d="M675.283 482.688C614.183 482.688 564.35 533.821 563.917 596.221C563.917 625.688 574.75 652.554 592.517 672.054L749.817 513.021C730.317 493.954 704.317 482.688 675.283 482.688Z" fill="#DBC3ED"/>
<path opacity="0.23" d="M749.817 513.021L592.517 672.054C612.45 694.154 640.617 707.587 671.817 707.587C732.05 707.587 781.45 657.754 783.184 595.787C784.05 563.287 771.05 533.821 749.817 513.021Z" fill="#C4ADD8"/>
<path opacity="0.29" d="M928.783 482.688C882.417 482.688 843.417 533.821 841.683 596.221C840.817 621.354 846.45 644.321 855.983 662.954L993.35 526.887C979.05 500.021 955.65 482.688 928.783 482.688Z" fill="#DBC3ED"/>
<path opacity="0.23" d="M993.349 526.453L855.983 662.52C870.283 689.82 893.683 707.586 920.983 707.586C966.483 707.586 1005.48 657.753 1008.08 595.786C1008.95 570.22 1003.32 545.953 993.349 526.453Z" fill="#C4ADD8"/>
<path d="M783.182 596.221C781.882 658.188 732.049 708.021 671.816 708.021C611.582 708.021 563.482 658.188 563.482 596.221C563.916 533.821 613.749 482.688 674.849 482.688C735.949 482.688 784.916 533.821 783.182 596.221Z" stroke="#4EC2DD" stroke-width="13.4786" stroke-miterlimit="10" stroke-linecap="round" stroke-linejoin="round"/>
<path d="M1008.08 596.221C1005.48 658.188 966.483 708.021 920.983 708.021C875.483 708.021 839.95 658.188 841.683 596.221C843.416 533.821 882.416 482.688 928.783 482.688C975.15 482.688 1010.68 533.821 1008.08 596.221Z" stroke="#4EC2DD" stroke-width="13.4786" stroke-miterlimit="10" stroke-linecap="round" stroke-linejoin="round"/>
<path d="M564.783 584.086H503.25" stroke="#4EC2DD" stroke-width="13.4786" stroke-miterlimit="10" stroke-linecap="round" stroke-linejoin="round"/>
<path d="M783.616 584.087C783.616 584.087 835.183 564.153 841.683 584.087" stroke="#4EC2DD" stroke-width="13.4786" stroke-miterlimit="10" stroke-linecap="round" stroke-linejoin="round"/>
</g>
</svg>
