<svg width="1300" height="1300" viewBox="0 0 1300 1300" fill="none" xmlns="http://www.w3.org/2000/svg">
<mask id="mask0_113_6717" style="mask-type:alpha" maskUnits="userSpaceOnUse" x="0" y="0" width="1301" height="1300">
<path d="M650 1300C290.71 1300 0 1008.86 0 650C0 290.71 291.141 0 650 0C1009.29 0 1300 291.141 1300 650C1300.43 1009.29 1009.29 1300 650 1300Z" fill="#F7C0B5"/>
</mask>
<g mask="url(#mask0_113_6717)">
<path d="M1014 1197.33C1010.97 1199.5 1007.5 1201.67 1004.47 1203.83C1001 1206 997.967 1208.17 994.5 1209.9C991.467 1211.63 988.867 1213.37 985.834 1215.1C985.4 1215.53 984.967 1215.53 984.534 1215.97C974.567 1222.03 964.167 1227.67 953.767 1232.87C950.734 1234.6 947.267 1236.33 944.234 1237.63C944.234 1237.63 943.8 1238.07 943.367 1238.07C939.9 1239.8 936.434 1241.53 932.967 1243.27C926.034 1246.73 918.667 1249.77 911.734 1252.8C908.267 1254.53 904.367 1255.83 900.9 1257.13C897.434 1258.43 893.534 1260.17 890.067 1261.47C886.6 1262.77 882.7 1264.5 879.234 1265.8C879.234 1265.8 879.234 1265.8 878.8 1265.8C875.334 1267.1 871.434 1268.4 867.967 1269.7C860.167 1272.3 851.934 1274.9 844.134 1277.5C841.534 1278.37 838.5 1279.23 835.9 1280.1C827.667 1282.7 819.434 1284.87 811.2 1286.6C808.167 1287.47 805.134 1287.9 801.667 1288.77C793.867 1290.5 785.634 1292.23 777.834 1293.97C776.1 1294.4 774.8 1294.4 773.067 1294.83C770.467 1295.27 767.434 1295.7 764.834 1296.13C760.934 1296.57 757.467 1297.43 753.567 1297.87C751.834 1298.3 750.1 1298.3 748.367 1298.73C746.2 1299.17 743.6 1299.6 741 1299.6C734.067 1300.47 726.7 1301.33 719.767 1302.2C717.6 1302.63 715 1302.63 712.834 1303.07H712.4C709.367 1303.5 706.334 1303.5 703.3 1303.93C700.267 1304.37 697.234 1304.37 694.2 1304.37C692.467 1304.37 690.3 1304.8 688.567 1304.8C685.1 1304.8 682.067 1305.23 679.034 1305.23C674.7 1305.23 670.8 1305.67 666.467 1305.67C662.134 1305.67 658.234 1305.67 653.9 1305.67C650.867 1305.67 647.834 1305.67 644.8 1305.67C462.367 1303.07 297.7 1225.5 180.7 1102.43C180.7 1102.43 180.7 1102 180.267 1102C193.7 1075.57 243.534 1027.9 295.534 988.465C361.4 938.632 454.567 907.865 454.567 907.865C454.567 907.865 515.667 897.898 742.3 945.132C915.2 981.532 988.867 1129.3 1014 1197.33Z" fill="#F7D3B5"/>
<path d="M790.4 1065.16C781.3 1109.8 722.367 1136.23 623.134 1096.36C501.367 1046.96 454.567 907.865 454.567 907.865C448.067 808.198 432.901 722.831 432.901 722.831C573.734 710.698 740.134 875.365 740.134 875.365L759.201 956.831C760.934 963.765 764.4 969.831 769.6 974.165C778.7 989.765 796.467 1036.56 790.4 1065.16Z" fill="#F7D3B5"/>
<path d="M769.6 974.599C686.833 970.266 625.733 958.133 560.3 840.699C615.767 889.666 681.2 908.299 750.1 916.966L759.2 956.832C760.933 964.199 764.4 970.266 769.6 974.599Z" fill="#EFBDA5"/>
<path d="M940.767 452.431C948.567 488.831 952.467 518.298 931.234 615.365C910 712.431 950.733 809.498 848.467 898.331C779.567 958.131 659.1 969.398 562.9 903.965C530.4 881.865 500.5 851.098 476.234 810.798C457.167 779.165 435.067 749.265 410.367 721.965C376.134 684.698 334.967 609.731 355.334 477.131C388.267 261.332 601.9 236.632 728 260.465C854.1 284.298 919.534 356.231 940.767 452.431Z" fill="#F7D3B5"/>
<path d="M526.067 621.865C526.067 621.865 512.633 556.865 449.367 564.665C394.767 571.599 375.7 702.465 499.633 738.865" fill="#F7D3B5"/>
<path d="M495.734 679.499C495.734 679.499 480.134 669.532 481.867 652.199C484.467 631.832 481.867 619.265 472.334 615.365C448.501 605.399 443.734 633.132 444.601 636.599" stroke="#423232" stroke-width="13" stroke-miterlimit="10" stroke-linecap="round" stroke-linejoin="round"/>
<path d="M826.367 721.531C826.367 721.531 842.833 722.398 858.433 703.765C867.1 693.365 874.467 680.365 869.7 676.465C864.933 672.131 786.5 684.265 781.3 694.665C776.1 705.065 806.433 721.531 826.367 721.531Z" fill="#EFBDA5"/>
<path d="M839.367 575.932C839.367 575.932 840.234 617.098 866.667 663.032C878.367 683.398 860.601 716.765 822.034 722.398" stroke="#423232" stroke-width="13" stroke-miterlimit="10" stroke-linecap="round" stroke-linejoin="round"/>
<path opacity="0.42" d="M604.501 743.631C629.151 743.631 649.134 727.14 649.134 706.797C649.134 686.455 629.151 669.964 604.501 669.964C579.85 669.964 559.867 686.455 559.867 706.797C559.867 727.14 579.85 743.631 604.501 743.631Z" fill="#ED938A"/>
<path opacity="0.42" d="M924.3 670.831C923 695.098 923.434 718.931 921.7 742.764C902.634 738.431 888.767 724.131 888.767 707.231C888.767 689.031 903.934 674.298 924.3 670.831Z" fill="#ED938A"/>
<path d="M261.733 1017.23C261.733 1017.23 277.766 1005.09 307.666 1023.29C363.566 1057.53 434.633 1240.39 282.099 1368.23C282.099 1368.23 254.799 1527.69 282.099 1558.03C282.099 1558.03 781.299 1583.16 996.666 1558.03C996.666 1558.03 1000.13 1460.09 986.266 1359.99C968.933 1233.03 946.833 1107.79 864.933 992.526C853.233 976.06 831.566 968.693 818.133 964.793L759.199 947.893C759.199 947.893 811.199 1098.26 666.899 1063.59C578.499 1042.36 505.266 958.293 444.599 919.726C430.299 910.626 410.799 913.66 398.233 918.86C369.633 930.993 263.899 994.26 261.733 1017.23Z" fill="#444444"/>
<mask id="mask1_113_6717" style="mask-type:alpha" maskUnits="userSpaceOnUse" x="261" y="913" width="737" height="657">
<path d="M261.733 1017.23C261.733 1017.23 277.766 1005.09 307.666 1023.29C363.566 1057.53 434.633 1240.39 282.099 1368.23C282.099 1368.23 254.799 1527.69 282.099 1558.03C282.099 1558.03 781.299 1583.16 996.666 1558.03C996.666 1558.03 1000.13 1460.09 986.266 1359.99C968.933 1233.03 946.833 1107.79 864.933 992.526C853.233 976.06 831.566 968.693 818.133 964.793L759.199 947.893C759.199 947.893 811.199 1098.26 666.899 1063.59C578.499 1042.36 505.266 958.293 444.599 919.726C430.299 910.626 410.799 913.66 398.233 918.86C369.633 930.993 263.899 994.26 261.733 1017.23Z" fill="#444444"/>
</mask>
<g mask="url(#mask1_113_6717)">
<path d="M270.4 1020.26C319.8 977.36 321.1 1008.56 399.1 983.86C433.766 973.026 471.9 939.226 522.6 935.326C561.6 932.293 604.499 957.86 652.599 963.06C692.466 967.393 739.699 950.493 785.633 962.193C824.633 972.16 858.433 1009.43 902.633 1026.33" stroke="#6D5F5E" stroke-width="17.3333" stroke-miterlimit="10" stroke-linecap="round" stroke-linejoin="round"/>
<path d="M271.7 1069.66C327.6 1033.26 324.566 1065.32 405.166 1044.09C441.133 1034.56 481 1001.19 532.133 997.724C572 994.691 616.2 1020.69 664.733 1024.59C705.466 1028.06 753.133 1008.56 799.933 1018.96C840.666 1027.62 876.2 1064.46 921.266 1079.62" stroke="#6D5F5E" stroke-width="17.3333" stroke-miterlimit="10" stroke-linecap="round" stroke-linejoin="round"/>
<path d="M272.566 1119.06C333.666 1089.59 327.166 1121.66 410.366 1104.33C447.633 1096.53 489.233 1063.16 540.799 1059.69C581.966 1057.09 627.033 1083.09 676.433 1086.13C718.466 1088.73 766.566 1067.49 814.233 1075.73C856.266 1083.09 894.399 1119.06 940.333 1132.06" stroke="#6D5F5E" stroke-width="17.3333" stroke-miterlimit="10" stroke-linecap="round" stroke-linejoin="round"/>
<path d="M273.866 1168.89C338.866 1145.93 329.766 1177.99 415.133 1164.13C453.7 1157.63 497.033 1125.13 549.466 1121.66C591.933 1119.06 638.3 1145.93 688.133 1147.66C731.466 1149.39 780 1125.99 828.1 1132.49C871.866 1138.56 912.166 1173.66 958.966 1184.49" stroke="#6D5F5E" stroke-width="17.3333" stroke-miterlimit="10" stroke-linecap="round" stroke-linejoin="round"/>
<path d="M275.167 1218.73C343.633 1202.26 332.367 1233.89 419.467 1223.06C459.333 1218.29 504.833 1185.79 557.7 1183.19C601.033 1181.03 649.133 1208.33 699.4 1209.63C744.467 1210.49 793 1185.36 841.967 1190.13C887.467 1194.46 930.367 1228.69 978.033 1237.36" stroke="#6D5F5E" stroke-width="17.3333" stroke-miterlimit="10" stroke-linecap="round" stroke-linejoin="round"/>
<path d="M276.466 1268.56C347.966 1257.72 334.532 1288.92 423.366 1281.99C464.532 1278.52 511.766 1246.89 565.932 1244.72C610.566 1242.99 659.532 1271.16 710.666 1271.59C757.032 1272.02 806.432 1244.72 856.266 1247.76C903.499 1250.79 948.999 1283.72 997.532 1289.36" stroke="#6D5F5E" stroke-width="17.3333" stroke-miterlimit="10" stroke-linecap="round" stroke-linejoin="round"/>
<path d="M277.333 1318.83C351 1313.63 335.833 1343.96 426.833 1340.49C469.3 1338.76 518.7 1307.56 573.733 1306.26C620.1 1305.39 669.933 1334.43 721.933 1334.43C769.6 1334.43 819.866 1305.39 870.133 1306.69C919.1 1307.99 967.2 1339.63 1016.6 1342.66" stroke="#6D5F5E" stroke-width="17.3333" stroke-miterlimit="10" stroke-linecap="round" stroke-linejoin="round"/>
</g>
<path d="M683.943 619.44C673.543 619.006 665.743 610.34 666.61 599.94L667.043 587.806C667.476 577.406 676.143 569.606 686.543 570.473C696.943 570.906 704.743 579.573 703.876 589.973L703.443 602.106C703.01 612.073 694.343 619.873 683.943 619.44Z" fill="#423232"/>
<path d="M866.375 625.94C856.842 625.506 849.475 617.273 849.909 607.74L850.342 596.473C850.775 586.94 859.009 579.573 868.542 580.006C878.075 580.44 885.442 588.673 885.009 598.206L884.575 609.473C884.142 619.006 875.909 626.373 866.375 625.94Z" fill="#423232"/>
<path d="M725.977 594.306C725.977 594.306 714.71 578.273 695.21 575.239C679.177 572.639 661.41 580.439 658.81 589.539" stroke="#423232" stroke-width="13" stroke-miterlimit="10" stroke-linecap="round" stroke-linejoin="round"/>
<path d="M853.809 598.207C853.809 598.207 853.809 584.341 873.743 584.341C890.209 584.341 897.143 599.507 897.143 599.507" stroke="#423232" stroke-width="13" stroke-miterlimit="10" stroke-linecap="round" stroke-linejoin="round"/>
<path d="M743.743 524.54C752.843 527.573 761.943 519.34 760.209 509.373C759.343 504.173 757.176 498.973 752.843 495.073C739.843 483.373 686.109 472.973 653.609 488.14C625.009 502.006 702.143 510.673 743.743 524.54Z" fill="#423232"/>
<path d="M873.308 531.474C865.941 534.074 858.141 526.274 859.441 517.174C859.874 512.407 861.608 507.641 865.074 504.174C875.474 493.774 911.008 485.541 933.541 501.574C953.041 515.007 907.108 518.907 873.308 531.474Z" fill="#423232"/>
<path d="M820.997 777.918C820.997 777.918 765.964 752.352 739.531 766.218" stroke="#423232" stroke-width="13" stroke-miterlimit="10" stroke-linecap="round" stroke-linejoin="round"/>
<path d="M653.719 247.36C398.052 236.526 322.652 457.526 344.319 584.06C365.552 706.26 443.119 762.593 443.119 762.593L495.552 744.393C495.552 744.393 475.185 737.459 455.685 723.159C388.519 672.026 409.319 579.293 455.252 573.226C501.185 567.593 520.685 600.526 528.052 618.726C552.319 538.56 518.085 518.626 552.319 461.86C659.352 346.16 735.619 419.393 786.319 439.326C832.685 457.526 862.585 434.993 888.152 411.16C903.319 396.86 924.985 400.76 924.985 400.76C924.985 400.76 895.519 257.76 653.719 247.36Z" fill="#99807F"/>
</g>
</svg>
