<svg width="1300" height="1300" viewBox="0 0 1300 1300" fill="none" xmlns="http://www.w3.org/2000/svg">
<mask id="mask0_113_5813" style="mask-type:alpha" maskUnits="userSpaceOnUse" x="0" y="0" width="1300" height="1300">
<path d="M650 1300C290.71 1300 0 1008.86 0 650C0 290.71 291.141 0 650 0C1009.29 0 1300 291.141 1300 650C1300.43 1009.29 1009.29 1300 650 1300Z" fill="#F7C0B5"/>
</mask>
<g mask="url(#mask0_113_5813)">
<path d="M1014 1197.33C1010.97 1199.5 1007.5 1201.66 1004.47 1203.83C1001 1206 997.966 1208.16 994.5 1209.9C991.466 1211.63 988.866 1213.36 985.833 1215.1C985.4 1215.53 984.966 1215.53 984.533 1215.96C974.566 1222.03 964.166 1227.66 953.766 1232.86C950.733 1234.6 947.266 1236.33 944.233 1237.63C944.233 1237.63 943.8 1238.06 943.366 1238.06C939.9 1239.8 936.433 1241.53 932.966 1243.26C926.033 1246.73 918.666 1249.76 911.733 1252.8C908.266 1254.53 904.366 1255.83 900.9 1257.13C897.433 1258.43 893.533 1260.16 890.067 1261.46C886.6 1262.76 882.7 1264.5 879.233 1265.8C879.233 1265.8 879.233 1265.8 878.8 1265.8C875.333 1267.1 871.433 1268.4 867.966 1269.7C860.167 1272.3 851.933 1274.9 844.133 1277.5C841.533 1278.36 838.5 1279.23 835.9 1280.1C827.667 1282.7 819.433 1284.86 811.2 1286.6C808.167 1287.46 805.133 1287.9 801.667 1288.76C793.867 1290.5 785.633 1292.23 777.833 1293.96C776.1 1294.4 774.8 1294.4 773.067 1294.83C770.467 1295.26 767.433 1295.7 764.833 1296.13C760.933 1296.56 757.467 1297.43 753.567 1297.86C751.833 1298.3 750.1 1298.3 748.367 1298.73C746.2 1299.16 743.6 1299.6 741 1299.6C734.067 1300.46 726.7 1301.33 719.767 1302.2C717.6 1302.63 715 1302.63 712.833 1303.06H712.4C709.367 1303.5 706.333 1303.5 703.3 1303.93C700.267 1304.36 697.233 1304.36 694.2 1304.36C692.467 1304.36 690.3 1304.8 688.567 1304.8C685.1 1304.8 682.067 1305.23 679.033 1305.23C674.7 1305.23 670.8 1305.66 666.467 1305.66C662.133 1305.66 658.233 1305.66 653.9 1305.66C650.867 1305.66 647.833 1305.66 644.8 1305.66C462.367 1303.06 297.7 1225.5 180.7 1102.43C180.7 1102.43 180.7 1102 180.267 1102C193.7 1075.56 243.534 1027.9 295.534 988.465C361.4 938.632 454.567 907.865 454.567 907.865C454.567 907.865 515.667 897.898 742.3 945.132C915.2 981.532 988.866 1129.3 1014 1197.33Z" fill="#F7D3B5"/>
<path d="M790.4 1065.16C781.3 1109.8 722.367 1136.23 623.134 1096.36C501.367 1046.96 454.567 907.865 454.567 907.865C448.067 808.198 432.901 722.831 432.901 722.831C573.734 710.698 740.134 875.365 740.134 875.365L759.2 956.831C760.934 963.765 764.4 969.831 769.6 974.165C778.7 989.765 796.467 1036.56 790.4 1065.16Z" fill="#F7D3B5"/>
<path d="M769.6 974.598C686.834 970.265 625.734 958.132 560.3 840.698C615.767 889.665 681.2 908.298 750.1 916.965L759.2 956.831C760.934 964.198 764.4 970.265 769.6 974.598Z" fill="#EFBDA5"/>
<path d="M940.766 452.432C948.566 488.832 952.466 518.298 931.233 615.365C910 712.432 950.733 809.498 848.466 898.331C779.566 958.131 659.1 969.398 562.9 903.965C530.4 881.865 500.5 851.098 476.233 810.798C457.167 779.165 435.067 749.265 410.367 721.965C376.133 684.698 334.967 609.732 355.333 477.132C388.267 261.332 601.9 236.632 728 260.465C854.1 284.298 919.533 356.232 940.766 452.432Z" fill="#F7D3B5"/>
<path d="M526.067 621.865C526.067 621.865 512.633 556.865 449.367 564.665C394.767 571.598 375.7 702.465 499.633 738.865" fill="#F7D3B5"/>
<path d="M495.734 679.498C495.734 679.498 480.134 669.531 481.867 652.198C484.467 631.831 481.867 619.264 472.334 615.364C448.5 605.398 443.734 633.131 444.6 636.598" stroke="#423232" stroke-width="13.4786" stroke-miterlimit="10" stroke-linecap="round" stroke-linejoin="round"/>
<path d="M826.366 721.532C826.366 721.532 842.833 722.399 858.433 703.766C867.1 693.366 874.466 680.366 869.7 676.466C864.933 672.132 786.5 684.266 781.3 694.666C776.1 705.066 806.433 721.532 826.366 721.532Z" fill="#EFBDA5"/>
<path d="M839.367 575.932C839.367 575.932 840.234 617.098 866.667 663.032C878.367 683.398 860.6 716.765 822.034 722.398" stroke="#423232" stroke-width="13.4786" stroke-miterlimit="10" stroke-linecap="round" stroke-linejoin="round"/>
<path opacity="0.42" d="M604.499 743.631C629.149 743.631 649.132 727.141 649.132 706.798C649.132 686.456 629.149 669.965 604.499 669.965C579.849 669.965 559.866 686.456 559.866 706.798C559.866 727.141 579.849 743.631 604.499 743.631Z" fill="#ED938A"/>
<path opacity="0.42" d="M924.299 670.832C922.999 695.098 923.433 718.932 921.699 742.765C902.633 738.432 888.766 724.132 888.766 707.232C888.766 689.032 903.933 674.298 924.299 670.832Z" fill="#ED938A"/>
<path d="M1166.53 1467.78L68.8996 1443.51C57.6329 1167.05 171.166 1021.01 215.8 992.413C299.433 938.247 408.2 922.213 459.333 917.447C472.333 949.513 521.733 1054.81 624.433 1096.41C723.666 1136.71 782.599 1109.85 791.699 1065.21C797.333 1036.61 779.566 989.813 770.466 974.647C765.266 970.313 761.799 963.813 760.066 957.313L756.599 943.013C763.966 941.28 771.333 939.547 778.699 936.947C960.266 957.313 1033.93 1006.71 1077.27 1091.21C1121.9 1178.31 1166.53 1467.78 1166.53 1467.78Z" fill="#474E51"/>
<path d="M261.299 1466.05C261.299 1466.05 255.666 1325.65 250.033 1299.65" stroke="#544D4D" stroke-width="13.4786" stroke-miterlimit="10" stroke-linecap="round" stroke-linejoin="round"/>
<path d="M1029.16 1466.05C1029.16 1466.05 1016.16 1378.95 1016.16 1363.78C1016.16 1349.05 1027.43 1300.51 1029.16 1258.05" stroke="#544D4D" stroke-width="13.4786" stroke-miterlimit="10" stroke-linecap="round" stroke-linejoin="round"/>
<path d="M685.531 1189.15L669.931 1512.41C669.931 1512.41 807.298 1606.01 807.298 1603.41C807.298 1600.81 872.298 1487.28 872.298 1487.28L770.898 1176.15C770.898 1176.15 757.898 1189.58 685.531 1189.15Z" fill="#D85656"/>
<path d="M716.731 1085.15C716.731 1085.15 657.365 1141.05 649.565 1155.78C641.765 1170.51 682.931 1193.91 682.931 1193.91C682.931 1193.91 749.231 1207.78 779.131 1180.91C779.131 1180.91 796.031 1162.28 792.565 1144.51C789.531 1127.18 716.731 1085.15 716.731 1085.15Z" fill="#EA6363"/>
<path d="M446.766 866.313L452.399 865.013C468.433 916.58 570.266 1038.35 716.733 1085.15L625.733 1199.98C619.666 1207.78 608.833 1209.08 601.033 1203.45C563.766 1175.71 464.099 1094.25 423.366 990.246C414.699 968.58 412.966 944.746 417.3 922.213L422.933 891.447C425.099 878.88 434.633 868.913 446.766 866.313Z" fill="white"/>
<path d="M838.065 1160.55C835.465 1174.85 818.565 1180.48 807.732 1170.51L716.299 1085.15C716.299 1085.15 769.599 1034.45 756.599 942.58C774.365 938.68 791.265 933.047 806.865 925.68C807.299 926.547 813.365 938.247 820.299 957.747C835.032 998.047 853.665 1072.15 838.065 1160.55Z" fill="white"/>
<path d="M685.655 622.173C675.255 621.74 667.455 613.073 668.322 602.673L668.755 590.54C669.188 580.14 677.855 572.34 688.255 573.206C698.655 573.64 706.455 582.306 705.588 592.706L705.155 604.84C704.722 614.806 696.055 622.606 685.655 622.173Z" fill="#423232"/>
<path d="M868.088 628.672C858.555 628.239 851.188 620.006 851.621 610.472L852.055 599.206C852.488 589.672 860.721 582.306 870.255 582.739C879.788 583.172 887.155 591.406 886.721 600.939L886.288 612.206C885.855 621.739 877.621 629.106 868.088 628.672Z" fill="#423232"/>
<path d="M727.687 597.04C727.687 597.04 716.42 581.007 696.92 577.974C680.887 575.374 663.121 583.174 660.521 592.274" stroke="#423232" stroke-width="13.4786" stroke-miterlimit="10" stroke-linecap="round" stroke-linejoin="round"/>
<path d="M855.521 600.94C855.521 600.94 855.522 587.073 875.455 587.073C891.921 587.073 898.855 602.24 898.855 602.24" stroke="#423232" stroke-width="13.4786" stroke-miterlimit="10" stroke-linecap="round" stroke-linejoin="round"/>
<path d="M752.388 521.639C761.921 520.773 766.688 509.506 761.488 500.839C758.455 496.506 754.555 492.606 748.921 490.439C732.455 485.239 678.721 496.939 655.321 523.806C634.521 548.506 709.055 525.539 752.388 521.639Z" fill="#423232"/>
<path d="M866.788 528.572C859.422 526.406 857.255 515.572 863.322 508.639C866.355 505.172 870.688 502.139 875.455 501.272C890.188 498.672 923.988 512.106 933.522 537.672C942.188 559.772 901.888 537.239 866.788 528.572Z" fill="#423232"/>
<path d="M811.084 785.598C811.084 785.598 793.113 764.482 718.981 785.598" stroke="#423232" stroke-width="13.4786" stroke-miterlimit="10" stroke-linecap="round" stroke-linejoin="round"/>
<path d="M940.302 574.422C952.002 508.555 948.535 482.555 941.602 451.789C939.435 442.255 936.835 433.155 933.802 424.055C910.835 405.855 886.569 394.155 849.735 388.955C750.502 375.522 672.069 384.622 588.435 402.822C536.002 414.089 546.835 595.222 526.469 619.055C523.002 606.922 506.102 557.522 450.635 564.455C398.202 570.955 378.269 692.289 486.602 733.889C485.735 757.722 463.635 801.922 445.869 811.889C445.869 811.889 442.835 780.255 408.169 738.655C373.502 697.055 304.169 589.155 350.969 431.422C397.769 273.689 609.669 191.356 806.835 271.522C840.635 285.389 868.369 304.889 890.469 325.256C942.469 372.922 970.202 442.255 961.969 512.022C959.802 535.422 953.302 557.955 940.302 574.422Z" fill="#423232"/>
<path d="M872.702 377.255C872.702 377.255 744.869 573.122 506.535 512.455C506.535 512.455 460.169 395.888 561.135 351.255C662.535 307.055 848.435 338.255 872.702 377.255Z" fill="#423232"/>
<path d="M859.27 379.855C859.27 379.855 875.736 425.355 908.236 462.188C929.469 486.022 957.203 505.955 991.87 506.822C991.87 506.822 1002.7 388.955 925.569 343.022C848.436 296.655 859.27 379.855 859.27 379.855Z" fill="#423232"/>
<path d="M542.503 304.889C542.503 304.889 402.97 87.7888 280.336 245.089C157.703 402.389 291.603 813.189 217.07 936.689C217.07 936.689 302.436 874.722 324.97 753.389C324.97 753.389 327.57 803.655 312.403 873.855C312.403 873.855 402.97 769.422 402.97 644.189C402.97 518.955 493.536 336.955 542.503 304.889Z" fill="#423232"/>
<path d="M948.1 549.289C963.7 615.589 948.1 730.422 948.1 730.422C948.1 730.422 1138.77 427.522 984.5 312.689C854.5 215.622 574.134 314.422 574.134 314.422C574.134 314.422 837.167 251.155 888.3 372.055C935.1 481.255 940.3 443.555 955.034 508.555C957.2 515.055 945.934 540.189 948.1 549.289Z" fill="#423232"/>
<path d="M475.237 697.089L482.604 711.822C483.904 714.422 486.504 716.155 489.104 716.589L505.571 719.189C512.937 720.055 515.537 729.155 510.337 734.355L498.637 746.055C496.471 748.222 495.604 750.822 496.037 753.855L498.637 770.322C499.937 777.689 492.137 782.889 485.637 779.855L470.904 772.055C468.304 770.755 465.271 770.755 462.671 772.055L447.937 779.855C441.437 783.322 433.637 777.689 434.937 770.322L437.537 753.855C437.971 750.822 437.104 748.222 434.937 746.055L423.237 734.355C418.037 729.155 421.071 720.489 428.004 719.189L444.471 716.589C447.504 716.155 449.671 714.422 450.971 711.822L458.337 697.089C462.671 690.155 472.204 690.155 475.237 697.089Z" fill="#FFDE55"/>
<path d="M941.071 745.621C938.904 747.788 938.037 750.821 938.471 753.421L941.071 769.888C942.371 777.255 934.571 782.888 928.071 779.421L919.404 774.655C922.437 753.421 923.304 731.755 923.737 710.088L924.604 711.821C925.904 714.421 928.504 716.155 931.104 716.588L947.571 718.755C954.937 719.621 957.971 728.721 952.337 733.921L941.071 745.621Z" fill="#FFDE55"/>
</g>
</svg>
