<svg width="1300" height="1300" viewBox="0 0 1300 1300" fill="none" xmlns="http://www.w3.org/2000/svg">
<mask id="mask0_113_5804" style="mask-type:alpha" maskUnits="userSpaceOnUse" x="0" y="0" width="1300" height="1300">
<path d="M650 1300C290.71 1300 0 1008.86 0 650C0 290.71 291.141 0 650 0C1009.29 0 1300 291.141 1300 650C1300.43 1009.29 1009.29 1300 650 1300Z" fill="#F7C0B5"/>
</mask>
<g mask="url(#mask0_113_5804)">
<path d="M1014 1197.33C1010.97 1199.5 1007.5 1201.67 1004.47 1203.83C1001 1206 997.966 1208.17 994.499 1209.9C991.466 1211.63 988.866 1213.37 985.833 1215.1C985.399 1215.53 984.966 1215.53 984.533 1215.97C974.566 1222.03 964.166 1227.67 953.766 1232.87C950.733 1234.6 947.266 1236.33 944.233 1237.63C944.233 1237.63 943.799 1238.07 943.366 1238.07C939.899 1239.8 936.433 1241.53 932.966 1243.27C926.033 1246.73 918.666 1249.77 911.733 1252.8C908.266 1254.53 904.366 1255.83 900.899 1257.13C897.433 1258.43 893.533 1260.17 890.066 1261.47C886.599 1262.77 882.699 1264.5 879.233 1265.8C879.233 1265.8 879.233 1265.8 878.799 1265.8C875.333 1267.1 871.433 1268.4 867.966 1269.7C860.166 1272.3 851.933 1274.9 844.133 1277.5C841.533 1278.37 838.5 1279.23 835.9 1280.1C827.666 1282.7 819.433 1284.87 811.2 1286.6C808.166 1287.47 805.133 1287.9 801.666 1288.77C793.866 1290.5 785.633 1292.23 777.833 1293.97C776.1 1294.4 774.8 1294.4 773.066 1294.83C770.466 1295.27 767.433 1295.7 764.833 1296.13C760.933 1296.57 757.466 1297.43 753.566 1297.87C751.833 1298.3 750.1 1298.3 748.366 1298.73C746.2 1299.17 743.6 1299.6 741 1299.6C734.066 1300.47 726.7 1301.33 719.766 1302.2C717.6 1302.63 715 1302.63 712.833 1303.07H712.4C709.366 1303.5 706.333 1303.5 703.3 1303.93C700.266 1304.37 697.233 1304.37 694.2 1304.37C692.466 1304.37 690.3 1304.8 688.566 1304.8C685.1 1304.8 682.066 1305.23 679.033 1305.23C674.7 1305.23 670.8 1305.67 666.466 1305.67C662.133 1305.67 658.233 1305.67 653.9 1305.67C650.866 1305.67 647.833 1305.67 644.8 1305.67C462.366 1303.07 297.7 1225.5 180.7 1102.43C180.7 1102.43 180.7 1102 180.267 1102C193.7 1075.57 243.533 1027.9 295.533 988.466C361.4 938.632 454.566 907.866 454.566 907.866C454.566 907.866 515.666 897.899 742.3 945.132C915.199 981.532 988.866 1129.3 1014 1197.33Z" fill="#F7D3B5"/>
<path d="M790.4 1065.17C781.3 1109.8 722.366 1136.23 623.133 1096.37C501.366 1046.97 454.566 907.865 454.566 907.865C448.066 808.199 432.9 722.832 432.9 722.832C573.733 710.699 740.133 875.365 740.133 875.365L759.2 956.832C760.933 963.765 764.4 969.832 769.6 974.165C778.7 989.765 796.466 1036.57 790.4 1065.17Z" fill="#F7D3B5"/>
<path d="M769.6 974.598C686.833 970.265 625.733 958.132 560.3 840.698C615.766 889.665 681.2 908.298 750.1 916.965L759.2 956.831C760.933 964.198 764.4 970.265 769.6 974.598Z" fill="#EFBDA5"/>
<path d="M940.766 452.432C948.566 488.832 952.466 518.299 931.233 615.365C909.999 712.432 950.733 809.499 848.466 898.332C779.566 958.132 659.1 969.399 562.9 903.965C530.4 881.865 500.5 851.099 476.233 810.799C457.166 779.165 435.066 749.265 410.366 721.965C376.133 684.699 334.967 609.732 355.333 477.132C388.266 261.332 601.9 236.632 728 260.466C854.099 284.299 919.533 356.232 940.766 452.432Z" fill="#F7D3B5"/>
<path d="M526.066 621.865C526.066 621.865 512.633 556.865 449.366 564.665C394.766 571.599 375.7 702.465 499.633 738.865" fill="#F7D3B5"/>
<path d="M495.733 679.498C495.733 679.498 480.133 669.531 481.866 652.198C484.466 631.831 481.866 619.265 472.333 615.365C448.5 605.398 443.733 633.131 444.6 636.598" stroke="#423232" stroke-width="13.4786" stroke-miterlimit="10" stroke-linecap="round" stroke-linejoin="round"/>
<path d="M826.366 721.533C826.366 721.533 842.833 722.399 858.433 703.766C867.099 693.366 874.466 680.366 869.699 676.466C864.933 672.133 786.499 684.266 781.299 694.666C776.099 705.066 806.433 721.533 826.366 721.533Z" fill="#EFBDA5"/>
<path d="M839.366 575.932C839.366 575.932 840.233 617.099 866.666 663.032C878.366 683.399 860.6 716.765 822.033 722.399" stroke="#423232" stroke-width="13.4786" stroke-miterlimit="10" stroke-linecap="round" stroke-linejoin="round"/>
<path opacity="0.42" d="M604.5 743.632C629.15 743.632 649.133 727.141 649.133 706.799C649.133 686.456 629.15 669.965 604.5 669.965C579.849 669.965 559.866 686.456 559.866 706.799C559.866 727.141 579.849 743.632 604.5 743.632Z" fill="#ED938A"/>
<path opacity="0.42" d="M924.299 670.832C922.999 695.099 923.433 718.932 921.699 742.765C902.633 738.432 888.766 724.132 888.766 707.232C888.766 689.032 903.933 674.299 924.299 670.832Z" fill="#ED938A"/>
<path d="M905.623 1028.73C905.623 1028.73 838.456 965.901 772.156 950.734C772.156 950.734 828.056 1041.73 663.823 1024.83C536.423 1011.83 453.656 905.234 453.656 905.234C453.656 905.234 370.023 928.634 302.423 980.201C302.423 980.201 311.523 1113.23 463.623 1179.1C615.723 1244.97 827.623 1212.47 877.89 1170C928.156 1127.53 918.19 1042.6 905.623 1028.73Z" fill="#444444"/>
<path d="M265.156 1009.23C265.156 1009.23 137.757 1055.6 91.8232 1187.77C45.8899 1319.93 90.5232 1516.67 90.5232 1516.67H1104.52C1104.52 1516.67 1112.76 1288.3 1042.56 1161.33C1026.09 1131.87 980.59 1084.2 948.09 1069.03C948.09 1069.03 960.223 1180.83 768.256 1190.8C576.29 1200.77 345.323 1139.67 339.69 1104.13C334.49 1067.73 265.156 1009.23 265.156 1009.23Z" fill="white"/>
<path d="M994.023 1524.47C721.89 1650.13 273.823 1536.6 273.823 1536.6C273.823 1536.6 264.723 1426.1 297.656 1227.2C298.956 1218.1 300.256 1209 301.123 1200.77C310.656 1110.63 288.556 1048.67 265.156 1009.67C265.156 999.7 275.557 992.767 287.256 982.8C292.023 978.9 298.523 978.467 301.99 981.067C308.056 989.733 313.69 998.4 318.456 1007.5C366.99 1097.2 462.323 1144.87 563.723 1154.83C701.956 1168.7 759.59 1166.53 828.49 1151.37C894.79 1136.63 924.69 1097.63 906.056 1032.63C905.623 1031.77 905.623 1030.47 905.19 1029.17C916.89 1028.3 944.19 1050.83 953.29 1084.2C962.823 1125.37 970.19 1171.73 975.823 1218.1C994.456 1369.33 994.023 1524.47 994.023 1524.47Z" fill="#444444"/>
<path d="M366.123 940.334C366.123 940.334 450.19 1109.77 595.79 1202.5C609.223 1211.17 626.99 1207.7 636.523 1195.13L716.256 1091.13L810.723 1175.63C821.556 1185.6 839.323 1179.97 842.79 1165.67C851.023 1129.27 857.523 1061.67 826.756 971.534" stroke="white" stroke-width="13.4786" stroke-miterlimit="10" stroke-linecap="round" stroke-linejoin="round"/>
<path d="M737.056 1464.67C748.323 1335.1 716.256 1091.57 716.256 1091.57" stroke="white" stroke-width="13.4786" stroke-miterlimit="10" stroke-linecap="round" stroke-linejoin="round"/>
<path d="M783.856 1234.13C792.472 1234.13 799.456 1227.15 799.456 1218.53C799.456 1209.92 792.472 1202.93 783.856 1202.93C775.241 1202.93 768.256 1209.92 768.256 1218.53C768.256 1227.15 775.241 1234.13 783.856 1234.13Z" fill="white"/>
<path d="M790.79 1312.13C799.405 1312.13 806.39 1305.15 806.39 1296.53C806.39 1287.92 799.405 1280.93 790.79 1280.93C782.174 1280.93 775.19 1287.92 775.19 1296.53C775.19 1305.15 782.174 1312.13 790.79 1312.13Z" fill="white"/>
<path d="M698.923 1017.03C698.923 1017.03 632.623 976.734 605.323 983.667C577.59 990.601 587.123 1090.27 604.89 1106.3C622.656 1122.33 698.49 1071.2 703.256 1066.87C708.023 1062.53 705.856 1023.97 698.923 1017.03Z" fill="white"/>
<path d="M724.056 1017.47C724.056 1017.47 750.056 976.733 776.49 971.533C802.49 966.333 814.623 1076.4 802.923 1086.8C791.223 1096.77 736.623 1075.1 730.556 1068.17C724.056 1061.67 720.59 1030.9 724.056 1017.47Z" fill="white"/>
<path d="M751.79 1052.13C753.09 1028.3 736.19 1007.93 713.657 1005.77C691.123 1003.6 671.623 1020.93 669.457 1044.77C667.723 1069.03 684.623 1090.27 707.59 1092.43C730.99 1094.17 750.49 1076.4 751.79 1052.13Z" fill="#444444"/>
<path d="M669.456 1044.77C669.89 1061.67 678.99 1076.83 692.856 1084.2C706.29 1091.57 723.623 1089.4 734.89 1079C746.157 1069.03 750.49 1052.13 746.59 1037.4C742.69 1022.67 730.556 1009.23 713.656 1005.77C717.99 1005.77 721.89 1006.63 726.223 1007.93C730.123 1009.23 734.023 1011.4 737.49 1014C744.423 1019.2 750.056 1027 752.657 1035.23C755.69 1043.9 756.123 1053 753.957 1062.1C752.657 1066.43 750.923 1070.77 748.757 1074.67C746.59 1078.57 743.557 1082.03 740.09 1085.5C733.157 1091.57 724.49 1095.9 715.39 1096.33C706.29 1097.2 696.757 1095.03 689.39 1089.83C681.59 1085.07 675.956 1077.7 672.49 1069.9C669.023 1062.1 668.156 1053 669.456 1044.77Z" fill="white"/>
<path d="M699.71 590.25C699.71 590.683 699.71 591.117 699.71 591.117L699.277 603.25C698.843 613.65 690.177 621.45 679.777 621.017C669.377 620.583 661.577 611.483 662.443 601.517L662.877 589.383C662.877 587.217 663.743 584.617 664.61 582.883L699.277 584.617C699.277 586.35 699.71 588.083 699.71 590.25Z" fill="#423232"/>
<path d="M880.84 599.783L880.407 611.05C879.974 620.583 871.741 627.95 862.207 627.516C852.674 627.083 845.307 618.85 845.741 609.316L846.174 598.05C846.174 595.883 846.607 593.716 847.474 591.983L879.974 593.283C880.841 595.45 880.84 597.616 880.84 599.783Z" fill="#423232"/>
<path d="M743.041 530.881C752.575 532.181 759.941 522.215 756.475 512.681C754.741 507.481 751.708 502.715 746.941 499.681C732.208 490.581 677.175 489.715 648.141 510.515C622.575 529.581 699.708 524.815 743.041 530.881Z" fill="#423232"/>
<path d="M863.074 535.648C855.274 535.648 850.507 525.682 854.407 517.448C856.574 513.115 859.607 509.215 863.94 507.049C877.374 500.549 913.34 504.449 929.374 526.549C943.674 546.049 899.04 535.215 863.074 535.648Z" fill="#423232"/>
<path d="M727.875 585.482L698.842 584.182L664.175 582.882L656.375 582.449" stroke="#423232" stroke-width="13.4786" stroke-miterlimit="10" stroke-linecap="round" stroke-linejoin="round"/>
<path d="M899.042 594.15L879.975 593.283L847.475 591.983H846.175" stroke="#423232" stroke-width="13.4786" stroke-miterlimit="10" stroke-linecap="round" stroke-linejoin="round"/>
<path d="M816.925 774.866C805.693 779.808 800.302 769.924 782.779 778.46C770.199 784.301 763.46 786.098 748.184 777.113C738.3 770.823 726.169 779.808 714.488 762.735" stroke="#423232" stroke-width="13.4786" stroke-miterlimit="10" stroke-linecap="round" stroke-linejoin="round"/>
<path d="M947.249 445.323C945.949 438.823 944.216 431.89 942.049 425.39C939.882 418.89 934.683 413.257 927.749 411.957C905.216 408.057 883.549 369.057 852.349 364.723C753.116 351.29 686.816 359.523 593.649 395.923C497.449 433.19 600.583 567.957 531.683 612.157C528.216 600.023 511.316 550.623 455.849 557.557C403.416 564.057 383.483 685.39 491.816 726.99C444.583 804.123 448.049 773.357 413.383 731.757C378.716 690.157 309.383 582.257 356.183 424.523C402.983 266.79 614.883 184.457 812.049 264.623C845.849 278.49 866.216 312.723 895.682 318.357C1169.98 370.79 953.749 476.523 947.249 445.323Z" fill="#423232"/>
<path d="M680.749 363.424C680.749 363.424 643.916 352.59 621.816 410.224C599.716 467.857 522.583 547.157 458.449 454.857C394.316 362.99 490.516 289.324 590.616 319.224C690.716 349.124 679.449 326.59 680.749 363.424Z" fill="#423232"/>
<path d="M744.449 321.39C744.449 321.39 841.949 383.356 906.083 359.09C946.383 343.923 991.883 288.023 960.249 246.423C922.549 196.59 805.983 234.29 740.983 213.49C643.483 182.29 492.249 161.49 421.183 278.49C403.416 307.956 387.383 337.856 362.249 361.256C336.249 385.523 310.249 424.956 308.083 486.49C304.183 609.123 400.383 715.723 400.383 715.723C400.383 715.723 343.183 505.99 451.083 474.79C558.983 443.59 588.883 335.69 660.383 335.69C731.883 335.69 698.516 255.09 744.449 321.39Z" fill="#423232"/>
<path d="M839.35 376.423C839.35 376.423 917.783 474.356 976.716 468.723C1035.65 463.09 1101.95 336.556 939.883 293.223C777.816 249.89 839.35 376.423 839.35 376.423Z" fill="#423232"/>
<path d="M680.749 363.423C680.749 363.423 732.316 490.823 869.249 505.99C1006.62 521.59 1062.08 270.257 852.349 246.423C642.616 222.59 680.749 363.423 680.749 363.423Z" fill="#423232"/>
<path d="M571.116 303.623C571.116 303.623 603.183 449.223 670.783 455.723C738.383 462.223 720.183 274.157 631.783 261.157C543.383 248.157 571.116 303.623 571.116 303.623Z" fill="#423232"/>
<path d="M877.817 658.313C866.118 644.013 850.951 634.046 832.751 633.613C813.684 633.179 783.784 637.513 753.884 661.346C714.884 692.546 636.884 687.779 606.118 684.746C597.451 683.879 589.218 688.213 585.318 696.013C576.651 713.346 564.951 749.313 570.584 807.379C577.951 886.679 642.518 958.613 733.518 952.546C853.117 945.179 922.884 848.979 927.217 720.279C926.351 684.746 905.117 692.113 877.817 658.313Z" fill="white"/>
<path d="M717.918 684.748C717.918 684.748 900.352 767.081 915.952 707.281" stroke="#EDF3F4" stroke-width="13.4786" stroke-miterlimit="10" stroke-linecap="round" stroke-linejoin="round"/>
<path d="M644.252 743.682C644.252 743.682 828.418 848.982 911.185 791.782" stroke="#EDF3F4" stroke-width="13.4786" stroke-miterlimit="10" stroke-linecap="round" stroke-linejoin="round"/>
<path d="M637.752 818.215C637.752 818.215 732.652 903.582 869.152 872.815" stroke="#EDF3F4" stroke-width="13.4786" stroke-miterlimit="10" stroke-linecap="round" stroke-linejoin="round"/>
<path d="M662.885 692.114C662.885 692.114 644.685 717.248 637.318 783.548C628.652 863.281 666.352 929.581 666.352 929.581" stroke="#EDF3F4" stroke-width="13.4786" stroke-miterlimit="10" stroke-linecap="round" stroke-linejoin="round"/>
<path d="M602.651 695.581C602.651 695.581 552.818 660.914 517.718 601.114" stroke="white" stroke-width="13.4786" stroke-miterlimit="10" stroke-linecap="round" stroke-linejoin="round"/>
<path d="M492.151 735.88C502.118 768.38 526.818 821.247 589.218 868.914" stroke="white" stroke-width="13.4786" stroke-miterlimit="10" stroke-linecap="round" stroke-linejoin="round"/>
</g>
</svg>
