<svg width="1300" height="1300" viewBox="0 0 1300 1300" fill="none" xmlns="http://www.w3.org/2000/svg">
<mask id="mask0_113_5795" style="mask-type:alpha" maskUnits="userSpaceOnUse" x="0" y="0" width="1301" height="1300">
<path d="M650 1300C290.71 1300 0.000244141 1008.86 0.000244141 650C0.000244141 290.71 291.141 0 650 0C1009.29 0 1300 291.141 1300 650C1300.43 1009.29 1009.29 1300 650 1300Z" fill="#F7C0B5"/>
</mask>
<g mask="url(#mask0_113_5795)">
<path d="M1014.87 1197.33C1011.83 1199.5 1008.37 1201.66 1005.33 1203.83C1001.87 1206 998.832 1208.16 995.366 1209.9C992.332 1211.63 989.732 1213.36 986.699 1215.1C986.266 1215.53 985.832 1215.53 985.399 1215.96C975.432 1222.03 965.032 1227.66 954.632 1232.86C951.599 1234.6 948.132 1236.33 945.099 1237.63C945.099 1237.63 944.666 1238.06 944.232 1238.06C940.766 1239.8 937.299 1241.53 933.832 1243.26C926.899 1246.73 919.532 1249.76 912.599 1252.8C909.132 1254.53 905.232 1255.83 901.766 1257.13C898.299 1258.43 894.399 1260.16 890.932 1261.46C887.466 1262.76 883.566 1264.5 880.099 1265.8C880.099 1265.8 880.099 1265.8 879.666 1265.8C876.199 1267.1 872.299 1268.4 868.832 1269.7C861.032 1272.3 852.799 1274.9 844.999 1277.5C842.399 1278.36 839.366 1279.23 836.766 1280.1C828.532 1282.7 820.299 1284.86 812.066 1286.6C809.032 1287.46 805.999 1287.9 802.532 1288.76C794.732 1290.5 786.499 1292.23 778.699 1293.96C776.966 1294.4 775.666 1294.4 773.932 1294.83C771.332 1295.26 768.299 1295.7 765.699 1296.13C761.799 1296.56 758.332 1297.43 754.432 1297.86C752.699 1298.3 750.966 1298.3 749.232 1298.73C747.066 1299.16 744.466 1299.6 741.866 1299.6C734.932 1300.46 727.566 1301.33 720.632 1302.2C718.466 1302.63 715.866 1302.63 713.699 1303.06H713.266C710.232 1303.5 707.199 1303.5 704.166 1303.93C701.132 1304.36 698.099 1304.36 695.066 1304.36C693.332 1304.36 691.166 1304.8 689.433 1304.8C685.966 1304.8 682.932 1305.23 679.899 1305.23C675.566 1305.23 671.666 1305.66 667.332 1305.66C662.999 1305.66 659.099 1305.66 654.766 1305.66C651.733 1305.66 648.699 1305.66 645.666 1305.66C463.233 1303.06 298.566 1225.5 181.566 1102.43C181.566 1102.43 181.566 1102 181.133 1102C194.566 1075.56 244.399 1027.9 296.399 988.465C362.266 938.631 455.433 907.865 455.433 907.865C455.433 907.865 516.533 897.898 743.166 945.131C916.066 981.531 989.732 1129.3 1014.87 1197.33Z" fill="#AD827B"/>
<path d="M791.266 1065.16C782.166 1109.8 723.233 1136.23 624 1096.36C502.233 1046.96 455.433 907.865 455.433 907.865C448.933 808.198 433.766 722.831 433.766 722.831C574.6 710.698 741 875.365 741 875.365L760.066 956.831C761.8 963.765 765.266 969.831 770.466 974.165C779.566 989.765 797.333 1036.56 791.266 1065.16Z" fill="#AD827B"/>
<path d="M770.466 974.598C687.699 970.265 626.599 958.132 561.166 840.698C616.632 889.665 682.066 908.298 750.966 916.965L760.066 956.831C761.799 964.198 765.266 970.265 770.466 974.598Z" fill="#8E5650"/>
<path d="M941.632 452.432C949.432 488.832 953.332 518.299 932.099 615.365C910.866 712.432 951.599 809.498 849.332 898.332C780.432 958.132 659.966 969.398 563.766 903.965C531.266 881.865 501.366 851.098 477.099 810.798C458.032 779.165 435.932 749.265 411.232 721.965C376.999 684.698 335.833 609.732 356.199 477.132C389.132 261.332 602.766 236.632 728.866 260.465C854.966 284.299 920.399 356.232 941.632 452.432Z" fill="#AD827B"/>
<path d="M526.932 621.865C526.932 621.865 513.499 556.865 450.232 564.665C395.632 571.598 376.566 702.465 500.499 738.865" fill="#AD827B"/>
<path d="M496.599 679.498C496.599 679.498 480.999 669.531 482.733 652.198C485.333 631.831 482.733 619.265 473.199 615.365C449.366 605.398 444.599 633.131 445.466 636.598" stroke="#423232" stroke-width="13.4786" stroke-miterlimit="10" stroke-linecap="round" stroke-linejoin="round"/>
<path d="M827.233 721.531C827.233 721.531 843.7 722.398 859.3 703.765C867.966 693.365 875.333 680.365 870.566 676.465C865.8 672.131 787.366 684.265 782.166 694.665C776.966 705.065 807.3 721.531 827.233 721.531Z" fill="#8E605C"/>
<path d="M840.233 575.932C840.233 575.932 841.099 617.099 867.533 663.032C879.233 683.399 861.466 716.765 822.899 722.399" stroke="#423232" stroke-width="13.4786" stroke-miterlimit="10" stroke-linecap="round" stroke-linejoin="round"/>
<path d="M377.176 903.566C377.176 903.566 440.443 878.433 452.143 877.566L453.009 887.533C453.009 887.533 402.743 909.199 399.709 912.666C396.676 916.133 377.176 903.566 377.176 903.566Z" fill="#7E5D6D"/>
<path d="M1158.04 1466.03H62.5768C62.5768 1466.03 69.0768 1264.97 134.943 1121.53C184.777 1013.2 304.377 941.699 391.477 910.499C416.177 901.832 435.243 892.299 453.01 887.532C453.01 889.699 454.31 905.732 454.31 907.466C454.31 907.466 526.243 1006.7 686.577 1005.4C782.777 1004.97 755.91 942.566 755.91 942.566C764.143 940.832 771.943 938.666 779.743 936.066C782.343 935.199 800.543 927.832 802.71 926.966C858.61 941.699 927.077 983.299 1026.31 1066.5C1138.11 1160.53 1158.04 1466.03 1158.04 1466.03Z" fill="#E89D6B"/>
<mask id="mask1_113_5795" style="mask-type:alpha" maskUnits="userSpaceOnUse" x="62" y="887" width="1097" height="580">
<path d="M1158.04 1466.03H62.5768C62.5768 1466.03 69.0768 1264.97 134.943 1121.53C184.777 1013.2 304.377 941.699 391.477 910.499C416.177 901.832 435.243 892.299 453.01 887.532C453.01 889.699 454.31 905.732 454.31 907.466C454.31 907.466 526.243 1006.7 686.577 1005.4C782.777 1004.97 755.91 942.566 755.91 942.566C764.143 940.832 771.943 938.666 779.743 936.066C782.343 935.199 800.543 927.832 802.71 926.966C858.61 941.699 927.077 983.299 1026.31 1066.5C1138.11 1160.53 1158.04 1466.03 1158.04 1466.03Z" fill="#E89D6B"/>
</mask>
<g mask="url(#mask1_113_5795)">
<path d="M287.477 877.999C311.31 878.866 323.443 879.299 347.277 878.866C368.51 891.432 378.91 897.499 400.577 909.199C422.677 907.899 433.943 907.033 456.043 904.433C478.143 914.833 488.977 920.033 511.077 929.999C533.61 926.533 544.877 924.366 566.977 920.032C589.51 928.699 601.21 932.599 623.743 939.966C646.277 934.332 657.543 930.866 680.077 924.366C703.477 930.432 715.177 933.466 738.577 938.666C761.11 930.433 772.377 926.533 794.91 917.433C818.743 921.333 830.876 923.066 854.71 926.099C876.81 915.699 888.077 910.499 910.177 899.232C934.443 900.532 946.577 900.966 970.843 901.399C992.51 888.399 1003.34 881.899 1025.01 868.466C1052.31 866.299 1065.74 864.999 1093.04 861.966C1090.88 872.366 1090.01 877.566 1088.28 887.966C1065.74 890.566 1054.04 891.866 1031.51 893.599C1009.41 907.466 998.576 914.399 976.043 927.399C951.343 927.399 939.21 926.966 914.51 925.666C891.977 936.933 880.71 942.566 858.177 952.966C833.91 949.932 821.777 948.199 797.51 944.732C774.977 953.832 763.277 958.166 740.743 965.966C716.91 960.766 705.21 957.733 681.81 951.666C659.277 958.166 647.577 961.633 625.043 967.266C602.077 959.466 590.377 955.566 567.41 946.899C544.877 951.232 533.61 953.399 510.643 956.866C488.11 946.899 477.277 942.132 454.743 931.299C432.21 933.466 420.943 934.332 398.843 935.632C377.177 923.932 366.343 917.866 345.11 904.866C325.177 904.866 315.21 904.866 295.277 903.999C292.243 894.033 290.943 888.833 287.477 877.999Z" fill="#FFFF8D"/>
<path d="M281.41 988.066C305.243 988.5 316.943 988.5 341.21 987.633C362.876 999.766 373.71 1005.4 395.376 1016.67C417.476 1014.93 428.31 1013.63 450.41 1010.6C472.51 1020.57 483.776 1025.33 506.31 1034.43C528.41 1030.53 539.243 1027.93 561.776 1023.17C584.743 1030.97 596.443 1034.87 619.41 1041.8C641.51 1035.3 652.776 1032.27 674.876 1024.9C698.276 1030.53 710.41 1033.13 733.81 1037.9C755.91 1029.23 766.743 1024.9 788.843 1015.37C813.11 1018.83 824.81 1020.13 849.076 1022.3C870.743 1011.47 881.576 1005.83 903.243 994.133C927.51 995 940.076 995 964.343 994.566C985.576 981.566 995.976 974.633 1017.21 960.766C1044.51 958.166 1058.38 956.866 1085.68 952.966C1083.94 963.366 1083.51 968.566 1081.78 978.533C1058.81 981.566 1047.54 982.866 1025.01 985.033C1003.34 999.333 992.943 1006.27 971.276 1019.7C946.576 1020.13 934.01 1020.13 909.31 1019.27C887.21 1030.97 876.376 1036.6 854.276 1047.87C830.01 1045.7 817.443 1044.4 793.176 1040.93C771.076 1050.47 759.81 1054.8 737.276 1063.47C713.443 1058.7 701.31 1056.1 677.476 1050.47C654.943 1057.83 644.11 1060.87 621.576 1067.37C598.176 1060.43 586.476 1056.53 563.51 1048.73C540.976 1053.5 530.143 1056.1 507.61 1060C485.076 1050.9 473.376 1046.13 450.843 1035.73C428.743 1038.33 417.476 1039.63 395.376 1041.8C373.276 1030.53 362.443 1024.47 340.776 1012.33C320.843 1012.77 310.876 1013.2 291.376 1012.77C287.043 1003.23 285.31 998.033 281.41 988.066Z" fill="#FFFF8D"/>
<path d="M275.343 1096.4C298.743 1095.97 310.876 1095.53 334.71 1094.67C356.376 1106.37 367.643 1112 389.743 1122.4C411.409 1119.8 422.243 1118.5 443.909 1115.03C466.443 1124.56 477.71 1128.9 500.676 1137.57C522.343 1132.8 533.176 1130.63 555.276 1125C578.676 1132.37 590.376 1135.83 613.776 1142.33C635.443 1135.4 646.276 1131.93 667.943 1124.57C691.776 1129.77 703.909 1131.93 727.743 1136.27C749.409 1127.17 760.243 1122.83 781.476 1112.87C805.743 1115.47 817.876 1116.77 842.143 1118.5C863.376 1107.23 874.209 1101.6 895.009 1089.47C919.709 1089.47 931.843 1089.47 956.543 1088.6C977.343 1075.17 987.743 1068.23 1008.11 1054.37C1035.41 1051.33 1049.28 1049.6 1076.58 1045.27C1075.28 1055.23 1074.84 1060.43 1073.98 1070.83C1051.01 1074.3 1039.74 1076.03 1016.78 1078.63C995.976 1092.93 985.143 1100.3 964.343 1113.73C939.209 1114.6 926.643 1115.03 901.943 1114.6C880.276 1126.73 869.876 1132.37 848.209 1144.07C823.509 1142.33 811.376 1141.47 786.676 1138.43C765.009 1148.4 754.176 1153.17 732.076 1162.27C707.809 1158.37 695.676 1155.77 671.843 1150.57C649.743 1158.37 638.909 1161.83 616.809 1168.77C592.976 1162.27 581.276 1158.8 557.876 1151.43C535.776 1157.07 524.943 1159.67 502.843 1164C479.876 1155.33 468.176 1150.56 445.643 1141.03C423.543 1144.5 412.709 1145.8 390.609 1148.4C368.076 1137.57 357.243 1131.93 335.143 1120.23C315.643 1121.1 305.676 1121.53 286.176 1121.97C281.843 1112 279.676 1106.8 275.343 1096.4Z" fill="#FFFF8D"/>
<path d="M268.843 1204.3C292.243 1203.43 303.943 1202.57 327.343 1200.83C349.443 1212.1 360.709 1217.3 383.243 1227.27C404.476 1224.23 415.309 1222.5 436.976 1218.6C459.943 1227.7 471.643 1232.03 494.609 1239.83C515.843 1234.63 526.676 1232.03 548.343 1225.97C571.743 1232.9 583.876 1235.93 607.276 1241.57C628.509 1234.2 639.343 1230.3 660.576 1222.5C684.843 1226.83 696.543 1229 720.809 1232.47C742.043 1222.93 752.443 1218.17 773.676 1208.2C798.376 1210.37 810.509 1211.23 835.209 1212.53C856.009 1201.27 866.409 1195.2 887.209 1183.07C911.909 1182.63 924.476 1182.2 949.176 1180.9C969.543 1167.47 979.509 1160.53 999.443 1146.23C1027.18 1142.77 1041.04 1140.6 1068.34 1135.83C1067.48 1145.8 1067.48 1151 1066.61 1160.97C1043.64 1164.87 1032.38 1166.6 1009.41 1169.63C989.043 1184.37 978.643 1191.3 958.276 1205.17C933.143 1206.47 920.576 1206.9 895.443 1207.33C874.643 1219.9 863.809 1225.97 843.009 1237.23C818.309 1235.93 805.743 1235.5 781.043 1233.33C759.809 1243.73 748.976 1248.5 727.743 1258.03C703.043 1254.57 690.909 1252.4 666.643 1248.07C644.976 1256.3 634.143 1260.2 612.476 1267.57C588.643 1261.93 576.509 1258.47 552.676 1251.97C531.009 1258.03 520.176 1260.63 498.509 1265.83C475.109 1257.6 463.409 1253.7 440.009 1244.6C418.343 1248.5 407.509 1250.23 385.843 1253.27C362.876 1242.87 351.609 1237.67 329.509 1226.4C310.009 1228.13 300.476 1228.57 280.976 1229.43C276.209 1219.47 273.609 1214.27 268.843 1204.3Z" fill="#FFFF8D"/>
<path d="M262.777 1310.9C285.744 1309.17 297.444 1308.3 320.844 1305.7C343.377 1316.1 354.644 1321.3 377.61 1330.83C398.844 1327.37 409.244 1325.2 430.477 1320.87C453.877 1329.1 465.577 1333.43 488.977 1340.8C510.21 1335.17 520.61 1332.13 541.41 1325.63C565.244 1331.7 577.377 1334.73 601.21 1339.93C622.01 1332.13 632.41 1328.23 653.643 1319.57C677.91 1323.47 690.044 1325.2 714.744 1328.23C735.544 1318.27 745.51 1313.5 766.31 1303.1C791.01 1304.83 803.577 1305.27 828.277 1306.13C848.644 1294.43 858.61 1288.37 878.977 1275.8C904.11 1274.93 916.243 1274.5 941.377 1272.77C960.877 1258.9 970.843 1251.97 990.343 1237.67C1018.08 1233.77 1031.94 1231.6 1059.68 1226.4C1059.24 1236.37 1059.24 1241.13 1058.81 1251.1C1035.84 1255.43 1024.58 1257.17 1001.61 1260.63C981.677 1275.37 971.71 1282.73 951.777 1296.6C926.644 1298.77 913.644 1299.2 888.51 1300.07C868.144 1312.63 857.743 1319.13 837.377 1330.83C812.243 1330.4 799.677 1329.97 774.544 1328.23C753.744 1339.07 743.344 1343.83 722.544 1353.8C697.844 1350.77 685.277 1349.03 660.577 1345.13C639.344 1353.8 628.944 1357.7 607.71 1365.5C583.444 1360.3 571.31 1357.27 547.044 1351.2C525.81 1357.7 514.977 1360.73 493.744 1366.37C469.91 1359 458.21 1355.1 434.377 1346.43C413.144 1350.77 402.31 1352.93 381.077 1356.4C358.11 1346.87 346.41 1341.67 323.444 1331.27C304.377 1333.43 294.844 1334.3 275.777 1335.6C270.577 1326.07 267.977 1320.87 262.777 1310.9Z" fill="#FFFF8D"/>
<path d="M436.543 947.765C436.543 947.765 459.943 1034 640.643 1055.66C821.776 1076.9 823.51 962.932 783.643 898.798C743.776 834.665 468.61 850.265 439.143 881.032C409.676 911.798 436.543 947.765 436.543 947.765Z" fill="white"/>
</g>
<path d="M277.077 1466.03L257.577 1305.27" stroke="#544D4D" stroke-width="13.4786" stroke-miterlimit="10" stroke-linecap="round" stroke-linejoin="round"/>
<path d="M1033.68 1250.67C1033.68 1250.67 1020.68 1282.3 1024.58 1313.93C1028.48 1345.57 1039.74 1391.93 1023.71 1466.03" stroke="#544D4D" stroke-width="13.4786" stroke-miterlimit="10" stroke-linecap="round" stroke-linejoin="round"/>
<path d="M377.176 903.566C385.409 900.966 399.709 903.566 404.043 910.933C420.943 938.666 461.676 1019.7 478.576 1180.47C492.009 1306.13 471.643 1532.33 471.643 1532.33L51.3096 1512.4C51.3096 1512.4 63.8762 1298.77 100.71 1155.33C136.676 1016.23 231.143 953.833 377.176 903.566Z" fill="#755B7A"/>
<path d="M813.109 930C813.109 930 947.009 1181.77 908.009 1518.03H1197.48C1197.48 1518.03 1195.74 1289.67 1130.74 1144.93C1065.74 1000.2 838.242 919.167 838.242 919.167C838.242 919.167 823.942 926.1 813.109 930Z" fill="#755B7A"/>
<path d="M813.108 930.001L802.708 926.967C802.708 926.967 817.875 919.601 824.375 915.267L828.275 913.101C828.275 913.101 849.075 922.634 856.442 926.101C863.808 929.567 830.875 945.601 830.875 945.601C830.875 945.601 814.408 930.434 813.108 930.001Z" fill="#7E5D6D"/>
<path d="M473.809 1140.17C473.809 1140.17 459.076 1098.13 425.709 1060.87C394.943 1026.2 338.609 972.467 334.709 960.333C327.343 935.633 373.276 842.467 445.209 809.967C445.209 810.4 445.209 810.833 445.209 811.267C445.209 811.7 445.209 812.134 445.209 813C445.209 813.867 445.209 814.733 445.643 815.6C445.643 816.9 446.076 818.2 446.076 819.5C446.076 820.367 446.076 820.8 446.509 821.667C449.543 847.667 452.143 876.7 454.309 907.467V907.9C454.309 907.9 434.376 914.4 448.676 1013.63C452.576 1037.47 467.309 1079.93 473.809 1140.17Z" fill="#4B3C4F"/>
<path d="M888.943 1153.6C888.943 1153.6 859.909 1040.93 845.609 1004.97C831.309 969.434 804.442 929.134 803.142 926.967C820.042 919.167 835.209 909.2 848.642 897.5C862.076 885.8 872.909 874.1 882.009 862.4C892.842 874.534 957.409 947.334 964.342 987.2C972.142 1031.4 915.809 1050.47 888.943 1153.6Z" fill="#4B3C4F"/>
<path d="M745.802 526.548C755.216 527.848 762.491 517.882 759.068 508.348C757.356 503.148 754.36 498.382 749.653 495.348C735.104 486.248 680.759 485.382 652.088 506.182C626.841 525.248 703.01 520.482 745.802 526.548Z" fill="#423232"/>
<path d="M864.333 531.316C856.63 531.316 851.923 521.349 855.775 513.116C857.914 508.783 860.91 504.883 865.189 502.716C878.454 496.216 913.971 500.116 929.804 522.216C943.925 541.716 899.85 530.883 864.333 531.316Z" fill="#423232"/>
<path d="M730.824 581.148C703.437 567.281 660.218 577.681 660.218 577.681" stroke="#423232" stroke-width="13.4786" stroke-miterlimit="10" stroke-linecap="round" stroke-linejoin="round"/>
<path d="M899.853 589.815C899.853 589.815 888.728 577.682 847.648 587.215" stroke="#423232" stroke-width="13.4786" stroke-miterlimit="10" stroke-linecap="round" stroke-linejoin="round"/>
<path d="M804.332 777.193C804.781 792.019 782.766 829.759 740.084 812.237C699.199 795.613 687.068 717.438 745.475 754.728C776.027 774.048 794.447 777.193 804.332 777.193Z" fill="white"/>
<path d="M812.868 775.396C812.868 775.396 793.998 785.729 745.475 754.728C687.517 717.438 699.198 795.613 740.083 812.237C782.765 829.759 804.781 791.57 804.331 777.193" stroke="#423232" stroke-width="13.4786" stroke-miterlimit="10" stroke-linecap="round" stroke-linejoin="round"/>
<path d="M705.938 765.962C705.938 765.962 736.489 786.18 745.475 784.383C754.91 783.035 753.562 796.064 796.244 797.412" stroke="#423232" stroke-width="13.4786" stroke-miterlimit="10" stroke-linecap="round" stroke-linejoin="round"/>
<path opacity="0.6" d="M747.932 670.913C747.932 670.913 707.199 696.479 661.265 696.046C615.332 695.613 609.699 659.646 609.265 640.146C609.265 640.146 615.332 668.313 643.065 678.713C670.365 689.113 747.932 670.913 747.932 670.913Z" fill="#B7AEA9"/>
<path opacity="0.6" d="M878.799 666.145C878.799 666.145 888.765 678.278 902.199 686.945C911.299 693.011 923.432 686.511 923.432 675.678C923.866 675.678 898.299 676.978 878.799 666.145Z" fill="#B7AEA9"/>
<path opacity="0.43" d="M763.966 548.279L636.566 675.679C646.533 681.746 658.666 684.779 670.799 683.046L731.466 675.246C749.666 672.646 766.566 663.546 779.566 648.379C784.766 642.746 787.799 634.946 788.232 626.713L790.399 583.813C791.266 565.179 779.566 549.579 763.966 548.279Z" fill="#FE9DAB"/>
<path opacity="0.3" d="M763.966 548.278L642.199 537.012C621.833 535.278 604.499 553.912 604.499 577.312V614.145C604.499 641.012 617.499 663.978 636.566 675.678L763.966 548.278Z" fill="#FE9DAB"/>
<path opacity="0.3" d="M941.632 543.944L865.365 553.911C855.399 555.211 848.032 569.511 848.899 585.977L850.199 624.544C850.632 631.911 852.365 638.844 855.399 644.044C860.599 652.711 867.099 659.211 874.032 663.544L964.599 572.977C962.866 555.644 952.899 542.644 941.632 543.944Z" fill="#FE9DAB"/>
<path opacity="0.43" d="M874.466 663.979C878.366 666.146 881.833 667.879 886.166 668.746L923.866 676.112C945.966 680.446 965.466 651.412 965.466 613.712V580.779C965.466 578.179 965.466 576.012 965.033 573.846L874.466 663.979Z" fill="#FE9DAB"/>
<path d="M763.966 548.278L642.199 537.012C621.833 535.278 604.499 553.912 604.499 577.312V614.145C604.499 655.745 635.699 687.812 670.799 683.045L731.466 675.245C749.666 672.645 766.566 663.545 779.566 648.378C784.766 642.745 787.799 634.945 788.233 626.712L790.399 583.812C791.266 565.178 779.566 549.578 763.966 548.278Z" stroke="white" stroke-width="14.5456" stroke-miterlimit="10" stroke-linecap="round" stroke-linejoin="round"/>
<path d="M865.799 554.345L942.066 544.378C954.633 542.645 965.466 559.545 965.466 580.778V613.712C965.466 650.978 945.966 680.012 923.866 676.112L886.166 668.745C874.899 666.578 864.066 657.912 856.266 644.478C853.233 639.278 851.066 632.345 851.066 624.978L849.766 586.412C848.466 569.945 855.833 555.645 865.799 554.345Z" stroke="white" stroke-width="14.5456" stroke-miterlimit="10" stroke-linecap="round" stroke-linejoin="round"/>
<path d="M604.499 581.646L504.399 579.479" stroke="white" stroke-width="13.4786" stroke-miterlimit="10" stroke-linecap="round" stroke-linejoin="round"/>
<path d="M790.399 584.678C790.399 584.678 842.833 574.278 849.333 584.678" stroke="white" stroke-width="14.5456" stroke-miterlimit="10" stroke-linecap="round" stroke-linejoin="round"/>
</g>
</svg>
