<svg width="1300" height="1300" viewBox="0 0 1300 1300" fill="none" xmlns="http://www.w3.org/2000/svg">
<mask id="mask0_113_5822" style="mask-type:alpha" maskUnits="userSpaceOnUse" x="0" y="0" width="1301" height="1300">
<path d="M650 1300C290.71 1300 0 1008.86 0 650C0 290.71 291.141 0 650 0C1009.29 0 1300 291.141 1300 650C1300.43 1009.29 1009.29 1300 650 1300Z" fill="#F7C0B5"/>
</mask>
<g mask="url(#mask0_113_5822)">
<path d="M1014 1197.33C1010.97 1199.5 1007.5 1201.66 1004.47 1203.83C1001 1206 997.967 1208.16 994.5 1209.9C991.467 1211.63 988.867 1213.36 985.833 1215.1C985.4 1215.53 984.967 1215.53 984.533 1215.96C974.567 1222.03 964.167 1227.66 953.767 1232.86C950.733 1234.6 947.267 1236.33 944.233 1237.63C944.233 1237.63 943.8 1238.06 943.367 1238.06C939.9 1239.8 936.433 1241.53 932.967 1243.26C926.033 1246.73 918.667 1249.76 911.733 1252.8C908.267 1254.53 904.367 1255.83 900.9 1257.13C897.433 1258.43 893.533 1260.16 890.067 1261.46C886.6 1262.76 882.7 1264.5 879.233 1265.8C879.233 1265.8 879.233 1265.8 878.8 1265.8C875.333 1267.1 871.433 1268.4 867.967 1269.7C860.167 1272.3 851.933 1274.9 844.133 1277.5C841.533 1278.36 838.5 1279.23 835.9 1280.1C827.667 1282.7 819.433 1284.86 811.2 1286.6C808.167 1287.46 805.133 1287.9 801.667 1288.76C793.867 1290.5 785.633 1292.23 777.833 1293.96C776.1 1294.4 774.8 1294.4 773.067 1294.83C770.467 1295.26 767.433 1295.7 764.833 1296.13C760.933 1296.56 757.467 1297.43 753.567 1297.86C751.833 1298.3 750.1 1298.3 748.367 1298.73C746.2 1299.16 743.6 1299.6 741 1299.6C734.067 1300.46 726.7 1301.33 719.767 1302.2C717.6 1302.63 715 1302.63 712.833 1303.06H712.4C709.367 1303.5 706.333 1303.5 703.3 1303.93C700.267 1304.36 697.233 1304.36 694.2 1304.36C692.467 1304.36 690.3 1304.8 688.567 1304.8C685.1 1304.8 682.067 1305.23 679.033 1305.23C674.7 1305.23 670.8 1305.66 666.467 1305.66C662.133 1305.66 658.234 1305.66 653.9 1305.66C650.867 1305.66 647.834 1305.66 644.8 1305.66C462.367 1303.06 297.7 1225.5 180.7 1102.43C180.7 1102.43 180.7 1102 180.267 1102C193.7 1075.56 243.534 1027.9 295.534 988.465C361.4 938.631 454.567 907.865 454.567 907.865C454.567 907.865 515.667 897.898 742.3 945.131C915.2 981.531 988.867 1129.3 1014 1197.33Z" fill="#F7D3B5"/>
<path d="M790.401 1065.16C781.301 1109.8 722.367 1136.23 623.134 1096.37C501.367 1046.97 454.567 907.865 454.567 907.865C448.067 808.199 432.901 722.832 432.901 722.832C573.734 710.699 740.134 875.365 740.134 875.365L759.201 956.832C760.934 963.765 764.401 969.832 769.601 974.165C778.701 989.765 796.467 1036.57 790.401 1065.16Z" fill="#F7D3B5"/>
<path d="M769.6 974.598C686.834 970.265 625.734 958.132 560.3 840.698C615.767 889.665 681.2 908.298 750.1 916.965L759.2 956.831C760.934 964.198 764.4 970.265 769.6 974.598Z" fill="#EFBDA5"/>
<path d="M940.767 452.432C948.567 488.832 952.467 518.299 931.233 615.365C910 712.432 950.733 809.499 848.467 898.332C779.567 958.132 659.1 969.398 562.9 903.965C530.4 881.865 500.5 851.099 476.233 810.799C457.167 779.165 435.067 749.265 410.367 721.965C376.133 684.699 334.967 609.732 355.333 477.132C388.267 261.332 601.9 236.632 728 260.466C854.1 284.299 919.533 356.232 940.767 452.432Z" fill="#F7D3B5"/>
<path d="M526.067 621.865C526.067 621.865 512.633 556.865 449.367 564.665C394.767 571.599 375.7 702.465 499.633 738.865" fill="#F7D3B5"/>
<path d="M495.734 679.498C495.734 679.498 480.134 669.531 481.867 652.198C484.467 631.831 481.867 619.265 472.334 615.365C448.5 605.398 443.734 633.131 444.6 636.598" stroke="#423232" stroke-width="13.4786" stroke-miterlimit="10" stroke-linecap="round" stroke-linejoin="round"/>
<path d="M826.367 721.531C826.367 721.531 842.834 722.398 858.434 703.765C867.101 693.365 874.467 680.365 869.701 676.465C864.934 672.131 786.501 684.265 781.301 694.665C776.101 705.065 806.434 721.531 826.367 721.531Z" fill="#EFBDA5"/>
<path d="M839.367 575.932C839.367 575.932 840.234 617.099 866.667 663.032C878.367 683.399 860.6 716.765 822.034 722.399" stroke="#423232" stroke-width="13.4786" stroke-miterlimit="10" stroke-linecap="round" stroke-linejoin="round"/>
<path opacity="0.42" d="M604.5 743.632C629.151 743.632 649.134 727.141 649.134 706.799C649.134 686.456 629.151 669.965 604.5 669.965C579.85 669.965 559.867 686.456 559.867 706.799C559.867 727.141 579.85 743.632 604.5 743.632Z" fill="#ED938A"/>
<path opacity="0.42" d="M924.299 670.832C922.999 695.099 923.433 718.932 921.699 742.765C902.633 738.432 888.766 724.132 888.766 707.232C888.766 689.032 903.933 674.299 924.299 670.832Z" fill="#ED938A"/>
<path d="M1057.78 1116.61C996.25 1037.31 900.916 1004.37 848.483 984.873C844.15 963.206 835.916 939.373 822.916 916.407C802.983 928.54 780.016 937.64 756.183 942.407L759.65 956.706C761.383 963.64 770.05 995.706 756.616 1036.87C745.35 1071.54 699.85 1087.14 622.716 1052.04C472.35 984.006 455.017 907.307 455.017 907.307C452.417 865.707 448.083 826.707 444.183 795.073C397.383 805.473 343.217 826.707 313.75 871.34C277.35 925.94 263.917 981.407 267.383 1025.61C204.117 1065.91 106.183 1127.01 74.1166 1236.21C32.5166 1378.34 39.4499 1465.44 39.4499 1465.44H1159.18C1157.88 1465.87 1141.42 1224.51 1057.78 1116.61Z" fill="#6060D8"/>
<path d="M388.283 974.472C388.283 974.472 414.717 1077.17 530.417 1148.24" stroke="#423232" stroke-width="13.4786" stroke-miterlimit="10" stroke-linecap="round" stroke-linejoin="round"/>
<path d="M848.051 984.873C848.051 984.873 878.818 1117.91 811.651 1179.01" stroke="#423232" stroke-width="13.4786" stroke-miterlimit="10" stroke-linecap="round" stroke-linejoin="round"/>
<path d="M639.184 1158.64C639.184 1158.64 616.651 1224.51 622.718 1270.01" stroke="#423232" stroke-width="13.4786" stroke-miterlimit="10" stroke-linecap="round" stroke-linejoin="round"/>
<path d="M777.418 1154.74C777.418 1154.74 794.318 1191.57 806.452 1250.07" stroke="#423232" stroke-width="13.4786" stroke-miterlimit="10" stroke-linecap="round" stroke-linejoin="round"/>
<path d="M266.517 1026.04C266.517 1026.04 302.051 1170.77 513.517 1213.24" stroke="#423232" stroke-width="13.4786" stroke-miterlimit="10" stroke-linecap="round" stroke-linejoin="round"/>
<path d="M626.617 1279.97L607.55 1278.24C600.617 1277.37 595.417 1270.87 596.717 1263.94L603.217 1231.44C604.95 1222.34 613.617 1215.84 622.717 1217.14C631.817 1218.01 639.184 1225.81 639.184 1235.34L639.617 1268.71C639.617 1275.21 633.55 1280.84 626.617 1279.97Z" fill="white"/>
<path d="M825.518 1260.04L807.318 1266.54C800.384 1269.14 793.018 1264.81 791.718 1257.87L783.918 1225.81C781.751 1216.71 786.518 1207.61 795.618 1204.14C804.284 1201.11 814.251 1205.01 818.151 1213.24L832.451 1243.14C835.484 1249.64 832.451 1257.44 825.518 1260.04Z" fill="white"/>
<path d="M1016.62 1250.07C1016.62 1250.07 1040.88 1386.14 1031.35 1465.87" stroke="#544D4D" stroke-width="13.4786" stroke-miterlimit="10" stroke-linecap="round" stroke-linejoin="round"/>
<path d="M683.943 619.44C673.543 619.006 665.743 610.34 666.61 599.94L667.043 587.806C667.477 577.406 676.143 569.606 686.543 570.473C696.943 570.906 704.743 579.573 703.877 589.973L703.443 602.106C703.01 612.073 694.343 619.873 683.943 619.44Z" fill="#423232"/>
<path d="M866.376 625.939C856.843 625.505 849.476 617.272 849.91 607.739L850.343 596.472C850.776 586.939 859.01 579.572 868.543 580.005C878.076 580.439 885.443 588.672 885.01 598.205L884.576 609.472C884.143 619.005 875.91 626.372 866.376 625.939Z" fill="#423232"/>
<path d="M725.977 594.305C725.977 594.305 714.71 578.271 695.21 575.238C679.177 572.638 661.41 580.438 658.81 589.538" stroke="#423232" stroke-width="13.4786" stroke-miterlimit="10" stroke-linecap="round" stroke-linejoin="round"/>
<path d="M853.81 598.207C853.81 598.207 853.81 584.34 873.743 584.34C890.21 584.34 897.143 599.507 897.143 599.507" stroke="#423232" stroke-width="13.4786" stroke-miterlimit="10" stroke-linecap="round" stroke-linejoin="round"/>
<path d="M743.742 524.54C752.842 527.573 761.942 519.34 760.209 509.373C759.342 504.173 757.175 498.973 752.842 495.073C739.842 483.373 686.109 472.973 653.609 488.14C625.009 502.006 702.142 510.673 743.742 524.54Z" fill="#423232"/>
<path d="M873.308 531.473C865.942 534.073 858.142 526.273 859.442 517.173C859.875 512.406 861.608 507.64 865.075 504.173C875.475 493.773 911.008 485.54 933.542 501.573C953.042 515.006 907.108 518.906 873.308 531.473Z" fill="#423232"/>
<path d="M804.157 772.845C804.606 780.033 799.215 792.613 789.33 801.599C738.561 770.598 715.648 786.772 715.648 786.772C697.676 759.366 701.72 722.075 745.3 750.38C775.852 769.7 794.273 772.845 804.157 772.845Z" fill="#423232"/>
<path d="M789.331 801.6C778.548 811.035 762.374 816.875 740.359 807.89C730.025 803.846 721.938 795.759 715.648 786.773C715.648 786.773 738.562 770.599 789.331 801.6Z" fill="#FE9DAB"/>
<path d="M812.694 771.047C812.694 771.047 793.824 781.381 745.301 750.38C687.343 713.089 699.024 791.265 739.909 807.889C782.592 825.411 804.607 787.222 804.157 772.845" stroke="#423232" stroke-width="13.4786" stroke-miterlimit="10" stroke-linecap="round" stroke-linejoin="round"/>
<path d="M715.648 786.773C715.648 786.773 738.562 770.599 789.331 801.6" stroke="#423232" stroke-width="13.4786" stroke-miterlimit="10" stroke-linecap="round" stroke-linejoin="round"/>
<path d="M974.206 347.827C943.439 459.193 854.172 440.56 770.539 410.227C659.173 369.493 561.239 402.427 560.806 502.96C559.939 650.293 523.106 605.66 519.206 600.026C509.673 581.826 489.306 559.293 450.739 564.06C400.039 570.56 380.106 682.36 474.573 728.293C491.039 811.926 445.973 804.126 445.973 804.126C430.806 742.593 303.406 611.726 302.973 525.493C302.973 409.36 361.473 376.427 361.473 376.427C363.206 295.393 447.706 206.127 589.839 209.16C731.973 211.76 819.072 207.86 846.806 174.493C874.539 140.26 1004.97 236.46 974.206 347.827Z" fill="#423232"/>
<path d="M977.673 481.726C973.339 509.893 961.206 531.56 944.306 547.593C950.806 500.36 947.339 477.826 941.706 451.393C929.573 397.226 903.573 350.426 860.239 315.76C881.906 314.026 904.006 318.793 923.939 331.36C923.939 330.926 995.439 359.96 977.673 481.726Z" fill="#423232"/>
<path d="M477.158 636.126C477.158 636.126 442.491 630.926 445.091 679.46C446.391 704.16 446.391 717.593 445.958 724.526C445.525 729.293 448.558 733.626 452.891 735.36C458.091 737.526 463.725 735.36 466.325 730.16C470.225 723.226 474.558 713.693 474.558 705.893C474.558 692.893 488.425 681.193 488.425 681.193C488.425 681.193 475.858 670.36 477.158 636.126Z" fill="white"/>
<path d="M582.025 1471.59C578.558 1467.69 442.492 1234.99 462.858 1147.46C476.725 1087.23 458.525 1017.89 442.492 956.792C435.992 931.659 429.925 908.259 426.458 887.459C420.392 851.492 424.725 817.259 439.458 785.625C455.492 750.092 452.892 719.325 452.892 718.892L461.558 718.025C461.558 719.325 464.158 751.825 447.258 789.092C433.392 818.992 429.492 851.925 435.125 886.159C438.592 906.525 444.658 929.925 451.158 955.059C467.625 1017.03 485.825 1087.66 471.525 1150.06C452.458 1233.26 588.092 1465.96 588.958 1466.83L582.025 1471.59Z" fill="white"/>
<path d="M446.392 704.592C446.825 714.125 446.392 720.625 446.392 724.525C445.958 729.292 448.992 733.625 453.325 735.358C458.525 737.525 464.158 735.358 466.758 730.158C470.658 723.225 474.992 713.692 474.992 705.892C474.992 705.458 474.992 704.592 474.992 704.158C465.892 707.625 455.492 710.225 446.392 704.592Z" fill="#E5E5E5"/>
<path d="M854.158 992.759C851.125 1012.69 850.691 1044.33 849.825 1081.16C848.525 1152.23 806.491 1429.13 786.125 1472.89L778.325 1469.43C797.825 1426.96 839.858 1151.36 841.158 1081.16C842.025 1044.33 842.458 1012.26 845.491 991.459C851.991 947.692 847.225 914.759 844.625 900.892C845.925 899.592 847.225 898.725 848.525 897.425C849.825 896.559 850.691 895.259 851.991 894.392C854.591 905.659 861.958 941.625 854.158 992.759Z" fill="white"/>
</g>
</svg>
