<svg width="1300" height="1300" viewBox="0 0 1300 1300" fill="none" xmlns="http://www.w3.org/2000/svg">
<mask id="mask0_113_6646" style="mask-type:alpha" maskUnits="userSpaceOnUse" x="0" y="0" width="1301" height="1300">
<path d="M650 1300C290.71 1300 0 1008.86 0 650C0 290.71 291.141 0 650 0C1009.29 0 1300 291.141 1300 650C1300.43 1009.29 1009.29 1300 650 1300Z" fill="#F7C0B5"/>
</mask>
<g mask="url(#mask0_113_6646)">
<path d="M1014.87 1197.33C1011.83 1199.5 1008.37 1201.67 1005.33 1203.83C1001.87 1206 998.832 1208.17 995.366 1209.9C992.332 1211.63 989.732 1213.37 986.699 1215.1C986.266 1215.53 985.832 1215.53 985.399 1215.97C975.432 1222.03 965.032 1227.67 954.632 1232.87C951.599 1234.6 948.132 1236.33 945.099 1237.63C945.099 1237.63 944.666 1238.07 944.232 1238.07C940.766 1239.8 937.299 1241.53 933.832 1243.27C926.899 1246.73 919.532 1249.77 912.599 1252.8C909.132 1254.53 905.232 1255.83 901.766 1257.13C898.299 1258.43 894.399 1260.17 890.932 1261.47C887.466 1262.77 883.566 1264.5 880.099 1265.8C880.099 1265.8 880.099 1265.8 879.666 1265.8C876.199 1267.1 872.299 1268.4 868.832 1269.7C861.032 1272.3 852.799 1274.9 844.999 1277.5C842.399 1278.37 839.366 1279.23 836.766 1280.1C828.532 1282.7 820.299 1284.87 812.066 1286.6C809.032 1287.47 805.999 1287.9 802.532 1288.77C794.732 1290.5 786.499 1292.23 778.699 1293.97C776.966 1294.4 775.666 1294.4 773.932 1294.83C771.332 1295.27 768.299 1295.7 765.699 1296.13C761.799 1296.57 758.332 1297.43 754.432 1297.87C752.699 1298.3 750.966 1298.3 749.232 1298.73C747.066 1299.17 744.466 1299.6 741.866 1299.6C734.932 1300.47 727.566 1301.33 720.632 1302.2C718.466 1302.63 715.866 1302.63 713.699 1303.07H713.266C710.232 1303.5 707.199 1303.5 704.166 1303.93C701.132 1304.37 698.099 1304.37 695.066 1304.37C693.332 1304.37 691.166 1304.8 689.432 1304.8C685.966 1304.8 682.932 1305.23 679.899 1305.23C675.566 1305.23 671.666 1305.67 667.332 1305.67C662.999 1305.67 659.099 1305.67 654.766 1305.67C651.732 1305.67 648.699 1305.67 645.666 1305.67C463.232 1303.07 298.566 1225.5 181.566 1102.43C181.566 1102.43 181.566 1102 181.132 1102C194.566 1075.57 244.399 1027.9 296.399 988.465C362.266 938.632 455.432 907.865 455.432 907.865C455.432 907.865 516.532 897.898 743.166 945.132C916.066 981.532 989.732 1129.3 1014.87 1197.33Z" fill="#AD827B"/>
<path d="M791.266 1065.16C782.166 1109.8 723.233 1136.23 623.999 1096.36C502.233 1046.96 455.433 907.865 455.433 907.865C448.933 808.198 433.766 722.831 433.766 722.831C574.599 710.698 740.999 875.365 740.999 875.365L760.066 956.831C761.799 963.765 765.266 969.831 770.466 974.165C779.566 989.765 797.333 1036.56 791.266 1065.16Z" fill="#AD827B"/>
<path d="M770.465 974.599C687.699 970.266 626.599 958.133 561.165 840.699C616.632 889.666 682.065 908.299 750.965 916.966L760.065 956.832C761.799 964.199 765.265 970.266 770.465 974.599Z" fill="#8E5650"/>
<path d="M941.632 452.431C949.432 488.831 953.332 518.298 932.099 615.365C910.866 712.431 951.599 809.498 849.332 898.331C780.432 958.131 659.966 969.398 563.766 903.965C531.266 881.865 501.366 851.098 477.099 810.798C458.032 779.165 435.932 749.265 411.232 721.965C376.999 684.698 335.832 609.731 356.199 477.131C389.132 261.332 602.766 236.632 728.866 260.465C854.966 284.298 920.399 356.231 941.632 452.431Z" fill="#AD827B"/>
<path d="M526.932 621.865C526.932 621.865 513.499 556.865 450.232 564.665C395.632 571.599 376.565 702.465 500.499 738.865" fill="#AD827B"/>
<path d="M496.599 679.499C496.599 679.499 480.999 669.532 482.733 652.199C485.333 631.832 482.733 619.265 473.199 615.365C449.366 605.399 444.599 633.132 445.466 636.599" stroke="#423232" stroke-width="13" stroke-miterlimit="10" stroke-linecap="round" stroke-linejoin="round"/>
<path d="M827.232 721.531C827.232 721.531 843.699 722.398 859.299 703.765C867.965 693.365 875.332 680.365 870.565 676.465C865.799 672.131 787.365 684.265 782.165 694.665C776.965 705.065 807.299 721.531 827.232 721.531Z" fill="#8E605C"/>
<path d="M840.233 575.932C840.233 575.932 841.099 617.098 867.533 663.032C879.233 683.398 861.466 716.765 822.899 722.398" stroke="#423232" stroke-width="13" stroke-miterlimit="10" stroke-linecap="round" stroke-linejoin="round"/>
<path d="M1156.83 1465.97H61.3586C61.3586 1465.97 67.8586 1264.9 133.725 1121.47C183.559 1013.13 300.992 952.901 388.525 921.701C413.225 913.034 435.759 906.534 453.092 901.768C453.092 903.934 453.525 905.668 453.525 907.834C453.525 907.834 500.325 1046.93 622.092 1096.33C721.325 1136.63 780.259 1109.77 789.359 1065.13C794.992 1036.53 777.225 989.734 768.125 974.568C762.925 970.234 759.459 963.734 757.725 957.234L754.259 942.934C762.492 941.201 770.292 939.034 778.092 936.434C780.692 935.568 782.859 934.701 785.459 933.834C841.359 948.568 925.425 983.668 1024.66 1066.87C1136.89 1160.9 1156.83 1465.97 1156.83 1465.97Z" fill="#444444"/>
<path d="M584.391 1141.83C434.891 1074.67 376.825 954.633 388.091 922.133C388.091 922.133 388.091 921.7 388.525 921.266C396.325 905.233 408.891 892.233 424.491 883.133C433.158 877.933 442.691 873.166 450.491 870.566C450.925 876.633 452.658 895.7 453.091 902.2C453.091 904.366 481.258 1011.4 603.025 1060.8C702.258 1101.1 762.058 1075.53 768.558 1030.47C775.925 980.633 749.491 943.8 749.491 943.8C757.725 942.066 770.725 939.033 778.525 936.433C797.591 959.4 817.091 982.366 824.458 1043.03C834.858 1130.13 739.091 1211.17 584.391 1141.83Z" fill="#444444"/>
<path d="M275.859 1465.97L256.359 1305.63" stroke="#544D4D" stroke-width="13" stroke-miterlimit="10" stroke-linecap="round" stroke-linejoin="round"/>
<path d="M1032.46 1250.6C1032.46 1250.6 1019.46 1282.23 1023.36 1313.87C1027.26 1345.5 1038.53 1391.87 1022.49 1465.97" stroke="#544D4D" stroke-width="13" stroke-miterlimit="10" stroke-linecap="round" stroke-linejoin="round"/>
<path d="M276.726 1718.6C276.726 1718.6 280.626 1503.23 276.726 1278.33C272.826 1053.43 431.859 1003.6 431.859 1003.6C431.859 1003.6 445.726 955.501 468.692 940.768" stroke="white" stroke-width="13" stroke-miterlimit="10" stroke-linecap="round" stroke-linejoin="round"/>
<path d="M469.559 1718.6C444.425 1095.03 525.459 1088.97 525.459 1088.97C525.459 1088.97 526.325 1059.5 547.992 1030.47" stroke="white" stroke-width="13" stroke-miterlimit="10" stroke-linecap="round" stroke-linejoin="round"/>
<path d="M647.225 1718.6C663.258 1569.97 647.225 1140.97 647.225 1140.97C647.225 1140.97 655.458 1103.7 650.692 1075.97" stroke="white" stroke-width="13" stroke-miterlimit="10" stroke-linecap="round" stroke-linejoin="round"/>
<path d="M850.459 1718.6C869.092 1261.87 781.559 1115.84 781.559 1115.84C781.559 1115.84 775.925 1076.84 752.525 1060.8" stroke="white" stroke-width="13" stroke-miterlimit="10" stroke-linecap="round" stroke-linejoin="round"/>
<path d="M1013.39 1718.6C1013.39 1718.6 1047.62 1532.7 1004.72 1305.63C961.825 1078.56 817.958 1020.5 817.958 1020.5C817.958 1020.5 794.558 981.064 766.392 982.798" stroke="white" stroke-width="13" stroke-miterlimit="10" stroke-linecap="round" stroke-linejoin="round"/>
<path d="M211.725 1020.5C211.725 1020.5 215.192 1105.86 315.725 1106.3C315.725 1106.3 362.958 1228.93 480.825 1206.83C480.825 1206.83 551.458 1319.5 650.258 1244.53C650.258 1244.53 761.192 1310.83 817.092 1220.7C817.092 1220.7 930.192 1250.6 941.458 1138.36C941.458 1138.36 1004.29 1124.93 993.025 1041.3" stroke="white" stroke-width="13" stroke-miterlimit="10" stroke-linecap="round" stroke-linejoin="round"/>
<path d="M313.125 953.768C313.125 953.768 285.392 1008.37 360.792 1049.1C360.792 1049.1 371.625 1131.43 492.958 1149.63C492.958 1149.63 554.925 1226.33 649.391 1198.6C649.391 1198.6 768.991 1246.7 803.225 1168.27C803.225 1168.27 899.858 1167.83 884.258 1066.87C884.258 1066.87 916.758 1030.9 888.158 973.701" stroke="white" stroke-width="13" stroke-miterlimit="10" stroke-linecap="round" stroke-linejoin="round"/>
<path d="M388.525 921.699C388.525 921.699 379.425 970.233 432.292 1003.6C432.292 1003.6 435.325 1062.97 525.459 1088.97C525.459 1088.97 566.625 1148.77 647.659 1140.97C647.659 1140.97 746.892 1177.8 781.992 1115.83C781.992 1115.83 839.625 1082.9 817.525 1020.07C817.525 1020.07 826.625 973.699 790.659 937.733" stroke="white" stroke-width="13" stroke-miterlimit="10" stroke-linecap="round" stroke-linejoin="round"/>
<path d="M760.036 1194.89C760.181 1182.45 750.405 1172.25 738.201 1172.11C725.996 1171.96 715.985 1181.94 715.841 1194.38C715.696 1206.82 725.472 1217.03 737.677 1217.17C749.881 1217.31 759.892 1207.34 760.036 1194.89Z" fill="white"/>
<path d="M785.458 1253.63C788.491 1276.6 773.325 1297.83 751.658 1300.43C729.991 1303.47 710.058 1287 707.025 1263.6C703.991 1240.63 717.858 1209 739.525 1205.97C761.191 1202.93 782.425 1230.67 785.458 1253.63Z" fill="white"/>
<path d="M729.125 1226.34C728.259 1227.2 727.825 1227.64 727.392 1228.07C726.959 1228.5 726.092 1228.5 725.659 1228.94C724.359 1229.37 723.492 1229.8 722.192 1230.24C720.025 1231.1 717.859 1231.54 715.259 1231.97C710.925 1232.84 706.159 1233.27 701.825 1233.7C697.492 1233.7 692.725 1233.7 687.959 1232.84C685.359 1232.4 683.192 1231.97 680.159 1230.67C678.859 1230.24 677.125 1229.37 674.959 1227.64C674.092 1227.2 673.659 1226.34 672.792 1225.9C671.925 1225.04 671.059 1223.3 670.192 1222.44C669.759 1220.7 668.892 1219.4 668.892 1217.67C668.459 1214.2 668.892 1211.6 668.892 1209C669.325 1206.4 669.325 1204.24 669.759 1202.07C670.625 1197.74 671.925 1193.4 673.225 1189.5C676.259 1181.27 680.159 1173.04 686.225 1165.67V1165.24C686.225 1164.8 686.659 1164.8 687.092 1165.24L687.525 1165.67L683.625 1190.8C682.759 1199.04 681.025 1207.7 681.892 1215.5C681.892 1215.94 681.892 1216.37 682.325 1216.8C682.325 1216.8 682.759 1217.24 682.759 1217.67C683.625 1218.1 684.492 1218.54 685.359 1218.97C687.092 1219.84 689.259 1220.27 690.992 1221.14C694.892 1222.44 699.225 1222.87 703.125 1223.74C707.459 1224.6 711.359 1225.04 715.692 1225.47C717.859 1225.9 720.025 1225.9 721.759 1225.9C722.625 1225.9 723.925 1225.9 724.792 1225.9C725.659 1225.9 726.959 1225.9 727.392 1225.47H727.825C728.259 1225.47 728.692 1225.47 728.692 1225.9C729.125 1225.9 729.125 1225.9 729.125 1226.34Z" fill="white"/>
<path d="M725.659 1251.47C717.859 1257.53 708.759 1261.43 699.659 1264.03C690.559 1266.63 681.025 1267.93 670.625 1266.63H669.759L668.459 1266.2L665.859 1265.33C664.125 1264.9 662.392 1264.03 660.659 1263.17L658.492 1261.87L656.759 1260.13C655.459 1259.27 654.159 1257.97 653.292 1257.1C648.959 1252.77 646.359 1247.57 644.625 1242.8C641.159 1233.27 640.292 1223.3 642.459 1213.33V1212.9C642.459 1212.47 642.892 1212.47 643.325 1212.47C643.759 1212.47 643.759 1212.9 643.759 1212.9C645.059 1217.23 646.359 1221.57 648.092 1225.47C649.825 1229.8 651.559 1233.7 653.725 1237.6C658.059 1244.97 664.125 1252.33 672.792 1253.63C681.459 1254.93 690.559 1254.5 699.225 1253.63C707.892 1252.77 716.992 1251.9 725.659 1250.17C726.092 1250.17 726.525 1250.17 726.525 1250.6C726.525 1251.03 726.092 1251.03 725.659 1251.47Z" fill="white"/>
<path d="M720.026 1273.13C710.492 1277.47 701.825 1280.93 694.892 1285.27C691.425 1287.43 688.826 1289.6 687.092 1291.77C686.659 1292.2 686.226 1293.07 685.792 1293.5C685.359 1293.93 685.359 1294.8 684.926 1295.23C684.492 1295.67 684.492 1296.53 684.059 1296.97L683.626 1297.83C683.626 1298.27 683.626 1298.7 683.192 1299.13C681.459 1305.2 681.459 1313 681.892 1321.67C682.759 1330.33 684.059 1339.43 684.492 1349.83V1350.27C684.492 1350.7 684.059 1350.7 684.059 1351.13C683.625 1351.13 683.626 1351.13 683.626 1350.7C678.426 1342.47 674.526 1333.8 671.926 1324.27C669.326 1315.17 668.026 1305.2 670.626 1295.23C671.926 1290.47 674.526 1285.7 678.426 1282.67C682.326 1279.2 686.659 1277.03 690.992 1275.3C700.092 1272.27 710.059 1271.4 719.592 1271.83C720.026 1271.83 720.026 1272.27 720.026 1272.27C720.459 1272.7 720.459 1272.7 720.026 1273.13Z" fill="white"/>
<path d="M730.858 1286.57C729.558 1294.37 727.825 1300.44 727.392 1305.64C726.958 1308.24 727.392 1310.4 727.825 1311.7C727.825 1312.14 727.825 1312.57 728.258 1312.57C728.258 1313 728.258 1313 728.692 1313.44C728.692 1313.87 728.692 1313.87 729.125 1314.3L729.992 1316.04C732.592 1321.24 734.758 1327.3 736.925 1333.37C738.658 1339.87 740.392 1346.37 740.825 1354.6V1355.04C740.825 1355.47 740.392 1355.47 740.392 1355.47C740.392 1355.47 739.958 1355.47 739.958 1355.04C736.058 1349.84 732.158 1344.2 728.258 1338.57C724.792 1332.94 721.325 1327.3 718.292 1321.24C716.992 1318.2 715.692 1314.74 716.125 1311.27C716.125 1307.8 716.992 1304.34 718.725 1301.3C721.758 1295.24 726.092 1289.6 730.858 1285.27C731.292 1285.27 731.292 1285.27 731.725 1285.27V1285.7L730.858 1286.57Z" fill="white"/>
<path d="M755.558 1222C755.992 1221.57 756.858 1220.7 757.725 1219.83L760.325 1217.67L765.092 1213.33C768.559 1210.73 771.592 1208.13 775.058 1205.53L784.592 1198.6C785.892 1197.73 787.625 1196.43 788.492 1195.57C788.925 1195.13 789.359 1194.7 788.925 1195.57C788.925 1195.57 788.492 1196 788.492 1196.43C788.492 1196.43 788.058 1196.87 788.058 1197.3C788.058 1197.73 787.625 1198.17 787.625 1198.6C787.192 1199.47 787.192 1199.9 787.625 1200.77C787.625 1200.33 787.192 1198.6 786.759 1196.87L785.459 1191.23C784.592 1187.33 783.292 1183.43 782.425 1179.1C780.692 1170.87 779.392 1162.2 779.825 1152.67V1152.23C779.825 1151.8 780.259 1151.8 780.259 1151.8C780.692 1151.8 780.692 1151.8 780.692 1152.23C784.592 1159.6 788.058 1167.4 791.525 1175.2C793.258 1179.1 794.992 1183 796.292 1186.9C797.592 1190.8 799.325 1194.7 800.192 1199.47C800.192 1200.33 800.192 1200.77 800.192 1201.63C799.758 1202.5 799.758 1202.93 799.325 1203.37C798.458 1204.23 797.592 1205.1 796.725 1205.53C794.992 1206.83 793.259 1208.13 791.092 1209C787.192 1211.17 783.725 1212.9 779.825 1214.63C775.925 1216.37 772.025 1218.1 768.125 1219.4C765.959 1220.27 764.225 1220.7 762.058 1221.13C761.192 1221.57 759.892 1221.57 759.025 1222C758.592 1222 758.159 1222 757.292 1222.43C756.859 1222.43 756.425 1222.87 755.125 1222C754.692 1221.57 754.692 1221.57 755.125 1221.13C754.692 1221.57 755.125 1221.57 755.558 1222Z" fill="white"/>
<path d="M764.225 1244.97C772.892 1239.77 781.125 1236.3 789.358 1233.27C797.592 1230.23 805.825 1227.63 812.325 1225.03L812.759 1224.6H813.192C813.192 1224.6 813.625 1224.6 813.625 1224.17C814.058 1224.17 814.492 1223.73 814.492 1223.3L814.925 1222.87L815.358 1222C815.792 1221.57 816.225 1221.13 816.658 1220.7C818.392 1218.53 820.558 1215.5 822.292 1211.6C825.758 1204.67 829.225 1196 833.558 1187.33V1186.9C833.558 1186.47 833.992 1186.47 834.425 1186.47L834.858 1186.9C835.292 1196 834.858 1205.1 832.258 1213.77C830.958 1218.1 829.658 1222.43 827.058 1226.33C824.892 1230.23 820.992 1233.7 816.658 1235.87C807.992 1239.33 799.325 1241.07 790.225 1242.8C781.125 1244.1 772.458 1245.4 763.358 1245.83C762.925 1245.83 762.925 1245.4 762.925 1245.4C763.792 1245.4 763.792 1245.4 764.225 1244.97Z" fill="white"/>
<path d="M775.059 1264.47C782.859 1257.1 792.826 1253.2 804.092 1252.33C809.726 1251.9 815.792 1252.77 822.292 1255.37C824.026 1256.23 825.326 1257.1 826.626 1257.97C827.926 1258.83 829.226 1260.13 830.959 1261.43C832.259 1262.73 833.559 1264.03 834.426 1265.33L836.159 1267.5C836.592 1268.37 837.026 1268.8 837.459 1269.67C840.926 1275.3 842.226 1280.93 843.092 1286.57C843.959 1292.2 843.526 1297.83 842.659 1303.03C840.926 1313.43 837.026 1323.4 830.092 1331.2C829.659 1331.63 829.659 1331.63 829.225 1331.2C829.225 1331.2 828.792 1330.77 829.225 1330.77C830.525 1326 831.392 1321.67 831.826 1316.9C832.259 1312.13 832.692 1307.37 832.692 1302.6C832.692 1293.07 831.392 1283.53 826.626 1275.73C824.459 1271.83 821.426 1268.37 817.092 1266.2C813.192 1264.03 808.426 1263.17 803.659 1262.73C798.892 1262.3 794.126 1262.73 789.792 1263.17C785.026 1263.6 780.259 1264.47 775.926 1265.77C775.492 1265.77 775.059 1265.77 775.059 1265.33C774.625 1264.9 774.625 1264.47 775.059 1264.47Z" fill="white"/>
<path d="M768.992 1280.5C777.225 1279.63 784.592 1282.23 791.525 1287.43C794.992 1290.03 798.025 1293.93 799.758 1299.13C800.192 1300.43 800.625 1301.73 800.625 1303.03C801.058 1304.33 801.058 1305.63 801.058 1306.93C801.058 1308.23 801.058 1309.97 801.058 1310.83L800.625 1313.87C799.325 1321.23 796.725 1327.73 793.258 1333.8C789.358 1339.87 785.025 1345.5 778.525 1350.27H778.092C777.658 1350.27 777.658 1350.27 777.225 1350.27V1349.83C779.392 1343.77 781.558 1337.27 783.292 1330.77C785.025 1324.27 786.758 1318.2 788.058 1311.7C788.925 1308.23 788.925 1305.63 788.058 1302.6C787.192 1299.57 785.892 1296.53 783.725 1294.37C779.825 1289.6 774.625 1285.27 768.992 1281.8C768.558 1281.8 768.558 1281.37 768.992 1280.93C768.558 1280.5 768.558 1280.5 768.992 1280.5Z" fill="white"/>
<path d="M683.943 619.44C673.543 619.006 665.743 610.34 666.61 599.94L667.043 587.806C667.476 577.406 676.143 569.606 686.543 570.473C696.943 570.906 704.743 579.573 703.876 589.973L703.443 602.106C703.01 612.073 694.343 619.873 683.943 619.44Z" fill="#423232"/>
<path d="M866.376 625.94C856.842 625.506 849.476 617.273 849.909 607.74L850.342 596.473C850.776 586.94 859.009 579.573 868.542 580.006C878.076 580.44 885.442 588.673 885.009 598.206L884.576 609.473C884.142 619.006 875.909 626.373 866.376 625.94Z" fill="#423232"/>
<path d="M725.977 594.306C725.977 594.306 714.71 578.273 695.21 575.239C679.177 572.639 661.41 580.439 658.81 589.539" stroke="#423232" stroke-width="13" stroke-miterlimit="10" stroke-linecap="round" stroke-linejoin="round"/>
<path d="M853.809 598.207C853.809 598.207 853.809 584.341 873.743 584.341C890.209 584.341 897.143 599.507 897.143 599.507" stroke="#423232" stroke-width="13" stroke-miterlimit="10" stroke-linecap="round" stroke-linejoin="round"/>
<path d="M743.743 524.54C752.843 527.573 761.943 519.34 760.209 509.373C759.343 504.173 757.176 498.973 752.843 495.073C739.843 483.373 686.109 472.973 653.609 488.14C625.009 502.006 702.143 510.673 743.743 524.54Z" fill="#423232"/>
<path d="M873.308 531.474C865.941 534.074 858.141 526.274 859.441 517.174C859.874 512.407 861.608 507.641 865.074 504.174C875.474 493.774 911.008 485.541 933.541 501.574C953.041 515.007 907.108 518.907 873.308 531.474Z" fill="#423232"/>
<path d="M793.697 770.764C768.997 785.497 725.231 769.464 704.864 744.764" stroke="#423232" stroke-width="13" stroke-miterlimit="10" stroke-linecap="round" stroke-linejoin="round"/>
<path d="M946.381 478.167C945.514 472.967 944.214 467.767 943.348 462.134C938.581 440.9 931.648 420.967 922.548 402.334L871.414 423.567C856.681 429.634 840.214 431.367 824.181 428.767L621.381 393.667C596.681 389.334 572.848 403.634 564.614 427.034C558.548 443.934 551.181 463.434 543.381 479.9C481.848 489.867 422.048 476.867 365.281 452.6C360.948 450.867 357.048 449.134 352.714 446.967C360.514 407.534 330.614 242.867 367.881 199.967C380.448 185.667 393.014 183.934 405.148 188.267C433.314 198.234 464.948 192.6 485.314 170.934C501.781 154.034 522.581 139.3 548.148 138.867C560.714 138.434 570.681 141.034 578.914 145.8C604.914 160.1 636.548 155.334 659.948 137.567C667.314 132.367 675.114 128.9 683.781 128.9C696.348 128.9 707.614 134.1 716.714 141.034C734.048 154.034 757.014 157.067 778.248 152.734C779.548 152.3 780.848 152.3 782.148 152.3C787.348 152.3 792.981 153.6 797.748 155.767C815.948 163.567 836.314 164.434 854.514 156.634C863.181 153.167 873.581 153.167 883.981 163.134C896.981 175.7 913.881 183.934 932.081 184.367C936.848 184.367 942.914 186.534 950.281 191.3C953.748 193.9 956.781 198.667 958.948 205.167C962.414 215.134 970.648 222.5 981.048 225.534C987.548 227.7 992.314 234.2 993.614 248.934C997.948 295.734 957.214 440.467 946.381 478.167Z" fill="#423232"/>
<path d="M980.181 225.1C961.115 232.034 957.648 228.134 935.981 222.5C914.315 216.867 895.248 241.134 879.648 216C857.115 179.167 815.515 204.3 807.281 197.367C799.048 190.434 773.481 167.467 737.515 191.734C713.681 207.767 683.348 179.167 645.215 179.167C568.948 179.167 555.081 235.067 528.648 209.5C502.215 184.367 474.048 201.267 435.048 208.2C396.048 215.134 376.115 191.734 376.115 191.734C385.648 185.234 395.181 185.234 404.281 188.267C432.448 198.234 464.081 192.6 484.448 170.934C500.915 154.034 521.715 139.3 547.281 138.867C559.848 138.434 569.815 141.034 578.048 145.8C604.048 160.1 635.681 155.334 659.081 137.567C666.448 132.367 674.248 128.9 682.915 128.9C695.481 128.9 706.748 134.1 715.848 141.034C733.181 154.034 756.148 157.067 777.381 152.734C778.681 152.3 779.981 152.3 781.281 152.3C786.481 152.3 792.115 153.6 796.881 155.767C815.081 163.567 835.448 164.434 853.648 156.634C862.315 153.167 872.715 153.167 883.115 163.134C896.115 175.7 913.015 183.934 931.215 184.367C935.981 184.367 942.048 186.534 949.415 191.3C952.881 193.9 955.915 198.667 958.081 205.167C961.548 214.7 970.215 222.067 980.181 225.1Z" fill="#5E4949"/>
<path d="M525.181 620.3C517.815 602.1 498.315 568.734 452.381 574.8C406.448 580.434 385.648 673.6 453.248 724.734C472.748 739.034 493.115 745.967 493.115 745.967L440.681 764.167C440.681 764.167 345.348 710 341.881 586.067C340.148 528.434 346.215 481.634 352.715 447.4C412.948 475.134 477.081 491.167 543.381 480.334C536.014 495.5 527.781 508.067 519.981 514.134C496.148 531.467 528.215 577.834 525.181 620.3Z" fill="#99807F"/>
<path d="M526.048 508.067C523.881 510.234 522.148 512.401 519.981 513.701C514.781 517.601 512.181 523.234 511.314 529.734C484.448 531.034 445.881 519.767 432.448 515.434C429.414 514.567 427.681 511.967 427.681 508.934V506.767C427.681 502.001 432.014 498.967 436.348 499.834C466.248 508.067 523.881 508.067 526.048 508.067Z" fill="#423232"/>
<path d="M516.948 566.134C493.115 564.401 470.148 560.068 459.748 557.901C456.281 557.034 454.115 554.434 454.115 550.968C454.115 546.634 458.015 543.601 462.348 544.034C481.848 547.068 502.648 546.634 512.615 546.201C513.481 552.268 515.215 558.768 516.948 566.134Z" fill="#423232"/>
<path d="M477.159 636.128C477.159 636.128 442.492 630.928 445.092 679.461C446.392 704.161 446.392 717.594 445.958 724.528C445.525 729.294 448.559 733.628 452.892 735.361C458.092 737.528 463.725 735.361 466.325 730.161C470.225 723.228 474.559 713.694 474.559 705.894C474.559 692.894 488.425 681.194 488.425 681.194C488.425 681.194 475.859 670.361 477.159 636.128Z" fill="white"/>
<path d="M582.025 1471.59C578.558 1467.69 442.492 1234.99 462.858 1147.46C476.725 1087.22 458.525 1017.89 442.492 956.791C435.992 931.658 429.925 908.258 426.458 887.458C420.392 851.491 424.725 817.258 439.458 785.624C455.492 750.091 452.892 719.324 452.892 718.891L461.558 718.024C461.558 719.324 464.158 751.824 447.258 789.091C433.392 818.991 429.492 851.924 435.125 886.158C438.592 906.524 444.658 929.924 451.158 955.058C467.625 1017.02 485.825 1087.66 471.525 1150.06C452.458 1233.26 588.092 1465.96 588.958 1466.82L582.025 1471.59Z" fill="white"/>
<path d="M446.392 704.594C446.826 714.128 446.392 720.628 446.392 724.528C445.959 729.294 448.992 733.628 453.326 735.361C458.526 737.528 464.159 735.361 466.759 730.161C470.659 723.228 474.992 713.694 474.992 705.894C474.992 705.461 474.992 704.594 474.992 704.161C465.892 707.628 455.492 710.228 446.392 704.594Z" fill="#E5E5E5"/>
<path d="M854.158 992.758C851.125 1012.69 850.692 1044.32 849.825 1081.16C848.525 1152.22 806.492 1429.12 786.125 1472.89L778.325 1469.42C797.825 1426.96 839.858 1151.36 841.158 1081.16C842.025 1044.32 842.458 1012.26 845.492 991.458C851.992 947.692 847.225 914.758 844.625 900.892C845.925 899.592 847.225 898.725 848.525 897.425C849.825 896.558 850.692 895.258 851.992 894.392C854.592 905.658 861.958 941.625 854.158 992.758Z" fill="white"/>
</g>
</svg>
