<svg width="1300" height="1300" viewBox="0 0 1300 1300" fill="none" xmlns="http://www.w3.org/2000/svg">
<mask id="mask0_114_7066" style="mask-type:alpha" maskUnits="userSpaceOnUse" x="0" y="0" width="1301" height="1300">
<path d="M650 1300C290.71 1300 0 1008.86 0 650C0 290.71 291.141 0 650 0C1009.29 0 1300 291.141 1300 650C1300.43 1009.29 1009.29 1300 650 1300Z" fill="#F7C0B5"/>
</mask>
<g mask="url(#mask0_114_7066)">
<path d="M1012.27 1197.33C1009.23 1199.5 1005.77 1201.67 1002.73 1203.83C999.265 1206 996.232 1208.17 992.765 1209.9C989.732 1211.63 987.132 1213.37 984.099 1215.1C983.665 1215.53 983.232 1215.53 982.799 1215.97C972.832 1222.03 962.432 1227.67 952.032 1232.87C948.999 1234.6 945.532 1236.33 942.499 1237.63C942.499 1237.63 942.065 1238.07 941.632 1238.07C938.165 1239.8 934.699 1241.53 931.232 1243.27C924.299 1246.73 916.932 1249.77 909.999 1252.8C906.532 1254.53 902.632 1255.83 899.165 1257.13C895.699 1258.43 891.799 1260.17 888.332 1261.47C884.865 1262.77 880.965 1264.5 877.499 1265.8C877.499 1265.8 877.499 1265.8 877.065 1265.8C873.599 1267.1 869.699 1268.4 866.232 1269.7C858.432 1272.3 850.199 1274.9 842.399 1277.5C839.799 1278.37 836.765 1279.23 834.165 1280.1C825.932 1282.7 817.699 1284.87 809.465 1286.6C806.432 1287.47 803.399 1287.9 799.932 1288.77C792.132 1290.5 783.899 1292.23 776.099 1293.97C774.365 1294.4 773.065 1294.4 771.332 1294.83C768.732 1295.27 765.699 1295.7 763.099 1296.13C759.199 1296.57 755.732 1297.43 751.832 1297.87C750.099 1298.3 748.365 1298.3 746.632 1298.73C744.465 1299.17 741.865 1299.6 739.265 1299.6C732.332 1300.47 724.965 1301.33 718.032 1302.2C715.865 1302.63 713.265 1302.63 711.099 1303.07H710.665C707.632 1303.5 704.599 1303.5 701.565 1303.93C698.532 1304.37 695.499 1304.37 692.465 1304.37C690.732 1304.37 688.565 1304.8 686.832 1304.8C683.365 1304.8 680.332 1305.23 677.299 1305.23C672.965 1305.23 669.065 1305.67 664.732 1305.67C660.399 1305.67 656.499 1305.67 652.165 1305.67C649.132 1305.67 646.099 1305.67 643.065 1305.67C460.632 1303.07 295.965 1225.5 178.965 1102.43C178.965 1102.43 178.965 1102 178.532 1102C191.965 1075.57 241.799 1027.9 293.799 988.465C359.665 938.632 452.832 907.865 452.832 907.865C452.832 907.865 513.932 897.898 740.565 945.132C913.465 981.532 987.132 1129.3 1012.27 1197.33Z" fill="#C99589"/>
<path d="M788.666 1065.16C779.566 1109.8 720.632 1136.23 621.399 1096.36C499.632 1046.96 452.832 907.865 452.832 907.865C446.332 808.198 431.166 722.831 431.166 722.831C571.999 710.698 738.399 875.365 738.399 875.365L757.466 956.831C759.199 963.765 762.665 969.831 767.865 974.165C776.965 989.765 794.732 1036.56 788.666 1065.16Z" fill="#C99589"/>
<path d="M767.865 974.599C685.098 970.266 623.998 958.133 558.565 840.699C614.032 889.666 679.465 908.299 748.365 916.966L757.465 956.832C759.198 964.199 762.665 970.266 767.865 974.599Z" fill="#A56663"/>
<path d="M939.032 452.431C946.832 488.831 950.732 518.298 929.499 615.365C908.265 712.431 948.998 809.498 846.732 898.331C777.832 958.131 657.365 969.398 561.165 903.965C528.665 881.865 498.765 851.098 474.499 810.798C455.432 779.165 433.332 749.265 408.632 721.965C374.399 684.698 333.232 609.731 353.599 477.131C386.532 261.332 600.165 236.632 726.265 260.465C852.365 284.298 917.799 356.231 939.032 452.431Z" fill="#C99589"/>
<path d="M524.332 621.865C524.332 621.865 510.898 556.865 447.632 564.665C393.032 571.599 373.965 702.465 497.898 738.865" fill="#C99589"/>
<path d="M493.999 679.499C493.999 679.499 478.399 669.532 480.132 652.199C482.732 631.832 480.132 619.265 470.599 615.365C446.766 605.399 441.999 633.132 442.866 636.599" stroke="#423232" stroke-width="13" stroke-miterlimit="10" stroke-linecap="round" stroke-linejoin="round"/>
<path d="M824.631 721.531C824.631 721.531 841.098 722.398 856.698 703.765C865.365 693.365 872.731 680.365 867.965 676.465C863.198 672.131 784.765 684.265 779.565 694.665C774.365 705.065 804.698 721.531 824.631 721.531Z" fill="#A56663"/>
<path d="M837.632 575.932C837.632 575.932 838.499 617.098 864.932 663.032C876.632 683.398 858.865 716.765 820.299 722.398" stroke="#423232" stroke-width="13" stroke-miterlimit="10" stroke-linecap="round" stroke-linejoin="round"/>
<path d="M385.484 935.629C385.484 935.629 456.117 1040.93 466.517 1151L520.25 1169.2C520.25 1169.2 483.85 1006.26 411.05 922.629C411.484 922.629 398.917 920.896 385.484 935.629Z" fill="#423232"/>
<path d="M845.683 1151.86C845.683 1151.86 853.05 1040.06 797.15 961.195C797.15 961.195 800.617 957.728 820.117 967.261C833.983 973.761 874.717 1029.66 878.617 1142.76C879.05 1142.76 850.45 1152.29 845.683 1151.86Z" fill="#423232"/>
<path d="M954.45 1085.56C945.35 1052.63 918.05 1030.1 906.35 1030.53C906.783 1031.4 906.783 1032.7 907.217 1034C925.417 1099.43 895.517 1138.43 829.65 1152.73C760.75 1167.9 703.117 1170.06 564.883 1156.2C463.483 1146.23 368.15 1098.56 319.617 1008.86C314.85 999.763 309.217 990.663 303.15 982.43C299.683 979.83 293.183 980.263 288.417 984.163C276.283 994.13 266.317 1001.5 266.317 1011.03C266.317 1011.03 182.25 1057.4 136.317 1189.56C98.6167 1298.76 92.55 1451.3 91.6833 1501.56H1078.82C1071.45 1434.4 1039.38 1179.16 954.45 1085.56Z" fill="#FFF573"/>
<path d="M203.916 1170.5C230.242 1170.5 251.583 1149.16 251.583 1122.83C251.583 1096.51 230.242 1075.16 203.916 1075.16C177.591 1075.16 156.25 1096.51 156.25 1122.83C156.25 1149.16 177.591 1170.5 203.916 1170.5Z" fill="#423232"/>
<path d="M405.849 1199.97C424.277 1199.97 439.216 1185.03 439.216 1166.6C439.216 1148.17 424.277 1133.23 405.849 1133.23C387.421 1133.23 372.482 1148.17 372.482 1166.6C372.482 1185.03 387.421 1199.97 405.849 1199.97Z" fill="#423232"/>
<path d="M566.183 1336.03C588.44 1336.03 606.483 1317.99 606.483 1295.73C606.483 1273.47 588.44 1255.43 566.183 1255.43C543.926 1255.43 525.883 1273.47 525.883 1295.73C525.883 1317.99 543.926 1336.03 566.183 1336.03Z" fill="#423232"/>
<path d="M766.816 1261.5C783.808 1261.5 797.583 1247.72 797.583 1230.73C797.583 1213.74 783.808 1199.96 766.816 1199.96C749.825 1199.96 736.05 1213.74 736.05 1230.73C736.05 1247.72 749.825 1261.5 766.816 1261.5Z" fill="#423232"/>
<path d="M908.083 1325.2C934.17 1325.2 955.317 1304.05 955.317 1277.97C955.317 1251.88 934.17 1230.73 908.083 1230.73C881.997 1230.73 860.85 1251.88 860.85 1277.97C860.85 1304.05 881.997 1325.2 908.083 1325.2Z" fill="#423232"/>
<path d="M1018.15 1199.97C1036.58 1199.97 1051.52 1185.03 1051.52 1166.6C1051.52 1148.17 1036.58 1133.23 1018.15 1133.23C999.721 1133.23 984.783 1148.17 984.783 1166.6C984.783 1185.03 999.721 1199.97 1018.15 1199.97Z" fill="#423232"/>
<path d="M856.083 1199.96C785.017 1230.3 548.85 1233.33 427.084 1174.4C350.384 1137.13 307.484 1088.6 286.25 1053.06C271.95 1029.23 266.75 1012.33 266.317 1011.03C266.317 1001.5 276.284 994.13 288.417 984.163C293.184 980.263 299.684 979.83 303.15 982.43C309.217 991.096 314.85 999.763 319.617 1008.86C368.15 1098.56 463.484 1146.23 564.884 1156.2C703.117 1170.06 760.75 1167.9 829.65 1152.73C895.95 1138 925.85 1099 907.217 1034C906.783 1033.13 906.784 1031.83 906.35 1030.53C918.05 1029.66 945.35 1052.2 954.45 1085.56C954.45 1085.56 967.45 1152.73 856.083 1199.96Z" fill="white"/>
<path d="M745.802 526.549C755.216 527.849 762.491 517.882 759.068 508.349C757.356 503.149 754.36 498.382 749.653 495.349C735.104 486.249 680.759 485.382 652.088 506.182C626.841 525.249 703.01 520.482 745.802 526.549Z" fill="#423232"/>
<path d="M864.333 531.315C856.631 531.315 851.924 521.348 855.775 513.115C857.915 508.782 860.91 504.882 865.189 502.715C878.455 496.215 913.972 500.115 929.805 522.215C943.926 541.715 899.851 530.882 864.333 531.315Z" fill="#423232"/>
<path d="M730.824 581.147C703.437 567.281 660.218 577.681 660.218 577.681" stroke="#423232" stroke-width="13" stroke-miterlimit="10" stroke-linecap="round" stroke-linejoin="round"/>
<path d="M899.854 589.819C899.854 589.819 888.728 577.685 847.648 587.219" stroke="#423232" stroke-width="13" stroke-miterlimit="10" stroke-linecap="round" stroke-linejoin="round"/>
<path d="M812.331 773.797C801.498 778.563 796.297 769.03 779.397 777.263C767.264 782.897 760.764 784.63 746.031 775.963C736.497 769.897 724.797 778.563 713.531 762.097" stroke="#423232" stroke-width="13" stroke-miterlimit="10" stroke-linecap="round" stroke-linejoin="round"/>
<path d="M942.155 452.633C940.855 446.133 939.121 439.2 936.955 432.7C934.788 426.2 929.588 420.567 922.655 419.267C900.121 415.367 878.455 426.633 847.255 422.3C748.021 408.867 681.721 366.833 588.555 403.233C492.355 440.5 546.955 595.633 526.588 619.467C523.121 607.333 506.221 557.933 450.755 564.867C398.321 571.367 378.388 692.7 486.721 734.3C485.855 758.133 442.955 780.667 408.288 739.067C373.621 697.467 304.288 589.567 351.088 431.833C397.888 274.1 609.788 191.767 806.955 271.933C840.755 285.8 862.421 315.7 890.588 325.667C948.221 346.9 948.655 483.833 942.155 452.633Z" fill="#423232"/>
<path d="M487.154 734.734C487.154 734.734 486.288 770.267 449.888 836.133C449.888 836.133 441.221 799.734 422.154 766.367C403.521 733 366.688 663.234 344.154 593.467C321.621 523.7 363.221 610.367 384.454 639.4C405.254 668 419.121 739.067 487.154 734.734Z" fill="#423232"/>
<path d="M426.054 699.634C426.054 699.634 413.921 780.668 491.488 882.934C569.054 985.201 573.388 1090.07 544.788 1201C544.788 1201 499.721 1167.63 363.221 1069.7C226.721 971.768 193.788 804.501 373.188 646.768C373.621 646.768 424.321 656.301 426.054 699.634Z" fill="#423232"/>
<path d="M736.754 349.935C752.787 359.902 770.121 366.402 788.754 367.702C811.721 369.435 845.954 385.035 896.221 430.535C955.587 484.269 926.121 132.835 556.487 216.035C429.954 244.202 339.821 356.002 324.221 481.235C323.354 489.902 322.487 498.569 322.054 507.235C318.587 622.502 411.754 723.035 411.754 723.035C411.754 723.035 373.621 562.702 460.721 496.402C539.587 436.169 594.621 365.535 663.521 365.535C705.121 365.102 727.221 344.302 736.754 349.935Z" fill="#423232"/>
<path d="M748.887 256.767C748.887 256.767 880.187 506.8 945.187 504.634C1010.19 502.467 1077.79 298.8 939.987 221.667C843.787 167.5 748.887 256.767 748.887 256.767Z" fill="#423232"/>
<path d="M807.387 327.402C807.387 327.402 914.854 442.236 864.154 475.169C835.12 493.802 807.387 437.469 807.387 437.469C807.387 437.469 773.154 493.369 718.554 465.202C663.954 437.469 700.354 357.302 700.354 357.302C700.354 357.302 774.454 282.769 807.387 327.402Z" fill="#423232"/>
<path d="M711.188 366.4C711.188 366.4 691.688 484.7 599.821 502.033C507.954 519.367 497.121 424.9 497.121 424.9C497.121 424.9 633.188 275.4 711.188 366.4Z" fill="#423232"/>
<path d="M940.42 576.568C940.42 576.568 994.587 545.802 991.554 469.102C988.52 392.402 948.22 444.402 948.22 444.402C948.22 444.402 952.554 511.568 940.42 576.568Z" fill="#423232"/>
<path d="M569.399 801.667C569.399 828.534 558.565 855.4 539.499 874.034C520.432 893.1 493.999 903.934 467.132 903.934C440.265 903.934 413.399 893.1 394.765 874.034C375.699 854.967 364.865 828.534 364.865 801.667C364.865 774.8 375.699 747.934 394.765 729.3C413.832 710.234 440.265 699.4 467.132 699.4C493.999 699.4 520.865 710.234 539.499 729.3C558.565 748.367 569.832 774.8 569.399 801.667ZM556.399 801.667C557.699 778.267 549.032 754 532.565 735.8C524.332 726.7 513.932 719.767 502.665 714.567C491.399 709.8 479.265 707.2 466.699 707.2C454.565 707.2 441.999 709.8 430.732 714.567C419.465 719.767 409.065 726.7 400.832 735.8C384.365 754 375.699 777.834 376.999 801.667C377.432 804.7 378.299 807.3 379.165 810.334C380.465 812.934 382.632 815.534 384.799 818.134C386.099 819.434 387.399 820.3 389.132 821.167C390.865 822.034 392.165 822.9 393.899 823.767C395.632 824.634 397.365 825.067 399.532 825.5C401.699 825.934 403.432 826.367 405.599 826.8C407.765 827.234 409.932 827.234 412.532 827.234C414.699 827.234 417.299 827.234 419.899 826.8C422.499 826.367 425.099 825.934 427.699 825.067C430.299 824.2 432.899 823.767 435.065 822.467C437.665 821.6 440.265 820.3 442.865 819C445.465 817.7 448.065 816.4 450.232 814.667C454.999 811.634 459.765 807.734 463.665 803.834C467.999 799.934 471.465 795.6 474.932 790.834C476.665 788.234 477.965 786.067 479.699 783.467C480.999 780.867 482.299 778.267 483.165 776.1C484.032 773.5 484.899 771.334 485.765 768.734C486.199 767.434 486.632 766.134 486.632 764.834L487.499 761.367C487.932 758.767 488.365 756.6 488.365 754.434C488.365 752.267 488.365 750.1 488.365 747.934C488.365 745.767 487.932 743.6 487.499 741.867C487.065 739.7 486.632 738.4 485.765 736.667C484.465 732.767 482.732 730.167 480.565 728C478.399 725.4 476.232 723.667 473.632 722.8C471.032 721.5 468.432 721.067 465.832 721.067C463.232 721.067 460.632 721.5 458.032 722.8C455.432 723.667 453.265 725.4 451.099 728C448.932 730.167 447.199 733.2 445.899 736.667C445.032 738.4 444.599 740.134 444.165 741.867C443.732 743.6 443.299 745.767 443.299 747.934C443.299 750.1 442.865 752.267 443.299 754.434C443.299 756.6 443.732 759.2 444.165 761.367L445.032 764.834C445.465 766.134 445.899 767.434 445.899 768.734C446.765 771.334 447.632 773.5 448.499 776.1C449.365 778.267 450.665 780.867 451.965 783.467C453.265 786.067 454.999 788.234 456.732 790.834C459.765 795.6 463.665 799.934 467.999 803.834C471.899 807.734 476.665 811.2 481.432 814.667C483.599 815.967 486.199 817.7 488.799 819C491.399 820.3 493.999 821.6 496.599 822.467C499.199 823.334 501.365 824.2 503.965 825.067C506.565 825.934 509.165 826.367 511.765 826.8C514.365 827.234 516.532 827.234 519.132 827.234C521.732 827.234 523.899 827.234 526.065 826.8C528.232 826.367 530.399 825.934 532.132 825.5C534.299 825.067 536.032 824.2 537.765 823.767C539.499 822.9 541.232 822.034 542.532 821.167C544.265 820.3 545.565 819 546.865 818.134C549.032 815.967 551.199 813.367 552.499 810.334C555.532 807.734 556.399 804.7 556.399 801.667Z" fill="url(#paint0_linear_114_7066)"/>
<path d="M467.132 712.399C463.666 712.399 460.632 709.366 460.632 705.899V692.032C460.632 688.566 463.666 685.532 467.132 685.532C470.599 685.532 473.632 688.566 473.632 692.032V705.899C473.632 709.366 470.599 712.399 467.132 712.399Z" fill="url(#paint1_linear_114_7066)"/>
<path d="M971.532 801.668C971.532 828.534 960.699 855.401 941.632 874.034C922.566 893.101 896.132 904.368 869.266 903.934C861.032 903.934 852.366 903.068 844.132 900.901C845.432 899.601 847.166 898.301 848.466 897.001C876.199 873.168 893.532 848.468 904.366 823.334C905.232 823.768 906.532 823.768 907.399 824.201C909.999 825.068 912.599 825.501 915.199 825.934C917.799 826.368 919.966 826.368 922.566 826.368C925.166 826.368 927.332 826.368 929.499 825.934C931.666 825.934 933.832 825.068 935.566 824.634C937.732 824.201 939.466 823.768 941.199 822.901C942.932 822.034 944.666 821.168 945.966 820.301C947.699 819.434 948.999 818.134 950.299 817.268C952.466 815.101 954.632 812.501 955.932 809.468C957.232 806.868 958.099 803.834 958.099 800.801C959.399 777.401 950.732 753.134 934.266 734.934C930.799 731.034 926.466 727.568 922.132 724.101C922.132 720.634 922.566 717.168 922.566 713.268C929.066 717.601 935.566 722.368 940.766 728.001C960.699 748.368 971.966 774.801 971.532 801.668Z" fill="url(#paint2_linear_114_7066)"/>
</g>
<defs>
<linearGradient id="paint0_linear_114_7066" x1="467.057" y1="1053.29" x2="467.057" y2="673.537" gradientUnits="userSpaceOnUse">
<stop stop-color="#FF7300"/>
<stop offset="0.1086" stop-color="#FF8D08"/>
<stop offset="0.2899" stop-color="#FFB214"/>
<stop offset="0.4716" stop-color="#FFCF1E"/>
<stop offset="0.6514" stop-color="#FFE325"/>
<stop offset="0.8286" stop-color="#FFF029"/>
<stop offset="1" stop-color="#FFF42A"/>
</linearGradient>
<linearGradient id="paint1_linear_114_7066" x1="467.058" y1="661.543" x2="467.058" y2="704.723" gradientUnits="userSpaceOnUse">
<stop stop-color="#FF7300"/>
<stop offset="0.1086" stop-color="#FF8D08"/>
<stop offset="0.2899" stop-color="#FFB214"/>
<stop offset="0.4716" stop-color="#FFCF1E"/>
<stop offset="0.6514" stop-color="#FFE325"/>
<stop offset="0.8286" stop-color="#FFF029"/>
<stop offset="1" stop-color="#FFF42A"/>
</linearGradient>
<linearGradient id="paint2_linear_114_7066" x1="907.976" y1="1053.29" x2="907.976" y2="673.538" gradientUnits="userSpaceOnUse">
<stop stop-color="#FF7300"/>
<stop offset="0.1086" stop-color="#FF8D08"/>
<stop offset="0.2899" stop-color="#FFB214"/>
<stop offset="0.4716" stop-color="#FFCF1E"/>
<stop offset="0.6514" stop-color="#FFE325"/>
<stop offset="0.8286" stop-color="#FFF029"/>
<stop offset="1" stop-color="#FFF42A"/>
</linearGradient>
</defs>
</svg>
