<svg width="1300" height="1300" viewBox="0 0 1300 1300" fill="none" xmlns="http://www.w3.org/2000/svg">
<mask id="mask0_114_7020" style="mask-type:alpha" maskUnits="userSpaceOnUse" x="-1" y="0" width="1301" height="1300">
<path d="M649.999 1300C290.709 1300 -0.000488281 1008.86 -0.000488281 650C-0.000488281 290.71 291.141 0 649.999 0C1009.29 0 1300 291.141 1300 650C1300.43 1009.29 1009.29 1300 649.999 1300Z" fill="#F7C0B5"/>
</mask>
<g mask="url(#mask0_114_7020)">
<path d="M1014.87 1197.33C1011.83 1199.5 1008.37 1201.67 1005.33 1203.83C1001.87 1206 998.832 1208.17 995.365 1209.9C992.332 1211.63 989.732 1213.37 986.698 1215.1C986.265 1215.53 985.832 1215.53 985.398 1215.97C975.432 1222.03 965.032 1227.67 954.632 1232.87C951.598 1234.6 948.132 1236.33 945.098 1237.63C945.098 1237.63 944.665 1238.07 944.232 1238.07C940.765 1239.8 937.298 1241.53 933.832 1243.27C926.898 1246.73 919.532 1249.77 912.598 1252.8C909.132 1254.53 905.232 1255.83 901.765 1257.13C898.298 1258.43 894.398 1260.17 890.932 1261.47C887.465 1262.77 883.565 1264.5 880.098 1265.8C880.098 1265.8 880.098 1265.8 879.665 1265.8C876.198 1267.1 872.298 1268.4 868.832 1269.7C861.032 1272.3 852.798 1274.9 844.998 1277.5C842.398 1278.37 839.365 1279.23 836.765 1280.1C828.532 1282.7 820.298 1284.87 812.065 1286.6C809.032 1287.47 805.998 1287.9 802.532 1288.77C794.732 1290.5 786.498 1292.23 778.698 1293.97C776.965 1294.4 775.665 1294.4 773.932 1294.83C771.332 1295.27 768.298 1295.7 765.698 1296.13C761.798 1296.57 758.332 1297.43 754.432 1297.87C752.698 1298.3 750.965 1298.3 749.232 1298.73C747.065 1299.17 744.465 1299.6 741.865 1299.6C734.932 1300.47 727.565 1301.33 720.632 1302.2C718.465 1302.63 715.865 1302.63 713.698 1303.07H713.265C710.232 1303.5 707.198 1303.5 704.165 1303.93C701.132 1304.37 698.098 1304.37 695.065 1304.37C693.332 1304.37 691.165 1304.8 689.432 1304.8C685.965 1304.8 682.932 1305.23 679.898 1305.23C675.565 1305.23 671.665 1305.67 667.332 1305.67C662.998 1305.67 659.098 1305.67 654.765 1305.67C651.732 1305.67 648.698 1305.67 645.665 1305.67C463.232 1303.07 298.565 1225.5 181.565 1102.43C181.565 1102.43 181.565 1102 181.132 1102C194.565 1075.57 244.398 1027.9 296.398 988.465C362.265 938.632 455.432 907.865 455.432 907.865C455.432 907.865 516.532 897.898 743.165 945.132C916.065 981.532 989.732 1129.3 1014.87 1197.33Z" fill="#AD827B"/>
<path d="M791.265 1065.16C782.165 1109.8 723.232 1136.23 623.999 1096.36C502.232 1046.96 455.432 907.865 455.432 907.865C448.932 808.198 433.765 722.831 433.765 722.831C574.599 710.698 740.999 875.365 740.999 875.365L760.065 956.831C761.799 963.765 765.265 969.831 770.465 974.165C779.565 989.765 797.332 1036.56 791.265 1065.16Z" fill="#AD827B"/>
<path d="M770.465 974.599C687.698 970.266 626.598 958.133 561.165 840.699C616.632 889.666 682.065 908.299 750.965 916.966L760.065 956.832C761.798 964.199 765.265 970.266 770.465 974.599Z" fill="#8E5650"/>
<path d="M941.632 452.431C949.432 488.831 953.332 518.298 932.098 615.365C910.865 712.431 951.598 809.498 849.332 898.331C780.432 958.131 659.965 969.398 563.765 903.965C531.265 881.865 501.365 851.098 477.098 810.798C458.032 779.165 435.932 749.265 411.232 721.965C376.998 684.698 335.832 609.731 356.198 477.131C389.132 261.332 602.765 236.632 728.865 260.465C854.965 284.298 920.398 356.231 941.632 452.431Z" fill="#AD827B"/>
<path d="M526.932 621.865C526.932 621.865 513.498 556.865 450.232 564.665C395.632 571.598 376.565 702.465 500.498 738.865" fill="#AD827B"/>
<path d="M496.599 679.499C496.599 679.499 480.999 669.532 482.732 652.199C485.332 631.832 482.732 619.265 473.199 615.365C449.366 605.399 444.599 633.132 445.466 636.599" stroke="#423232" stroke-width="13" stroke-miterlimit="10" stroke-linecap="round" stroke-linejoin="round"/>
<path d="M827.232 721.531C827.232 721.531 843.698 722.398 859.298 703.765C867.965 693.365 875.332 680.365 870.565 676.465C865.798 672.131 787.365 684.265 782.165 694.665C776.965 705.065 807.298 721.531 827.232 721.531Z" fill="#8E605C"/>
<path d="M840.232 575.932C840.232 575.932 841.099 617.099 867.532 663.032C879.232 683.399 861.466 716.765 822.899 722.399" stroke="#423232" stroke-width="13" stroke-miterlimit="10" stroke-linecap="round" stroke-linejoin="round"/>
<path d="M415.566 1098.84C415.566 1098.84 596.266 1178.57 756.599 1169.9C812.499 1166.87 865.799 1153.44 908.266 1121.8C908.266 1121.8 917.799 1208.9 792.566 1260.04C667.332 1311.6 453.699 1171.64 415.566 1098.84Z" fill="#FFF573"/>
<path d="M726.699 1170.77C726.699 1170.77 688.132 1289.94 650.865 1294.7C613.599 1299.47 425.965 1141.74 409.932 1094.5C409.932 1094.07 568.099 1165.57 726.699 1170.77Z" fill="white"/>
<path d="M726.699 1170.77C726.699 1170.77 786.499 1262.64 812.933 1267.4C839.366 1272.17 893.099 1187.67 905.233 1123.54C905.666 1123.54 852.799 1169.04 726.699 1170.77Z" fill="white"/>
<path d="M1079.87 1508.34H92.7324C93.5991 1458.07 99.2324 1305.54 137.366 1196.34C153.832 1148.67 176.799 1110.11 199.766 1079.77C202.366 1076.31 205.399 1072.41 207.999 1068.94C246.132 1021.71 282.532 996.572 289.899 990.939C294.666 987.039 301.166 986.605 304.632 989.205C745.332 1470.64 948.566 1171.64 909.132 1040.77C908.699 1039.91 908.699 1038.61 908.266 1037.31C913.899 1036.87 952.032 1068.51 991.032 1141.31C1000.13 1158.21 1009.23 1177.27 1017.9 1198.51C1017.9 1198.94 1018.33 1199.37 1018.33 1199.81C1040 1253.11 1059.5 1320.71 1071.2 1404.77C1074.67 1437.27 1078.13 1471.51 1079.87 1508.34Z" fill="#BF76FF"/>
<path d="M304.199 988.772C744.899 1470.21 948.133 1171.21 908.699 1040.34C908.266 1039.47 908.266 1038.17 907.833 1036.87" stroke="#A164DD" stroke-width="13" stroke-miterlimit="10" stroke-linecap="round" stroke-linejoin="round"/>
<path d="M395.632 1508.34H92.7324C93.5991 1458.07 99.2324 1305.54 137.366 1196.34C153.832 1148.67 176.799 1110.11 199.766 1079.77C202.366 1076.31 351.432 1050.74 389.566 1335.87C399.966 1416.47 396.499 1453.31 395.632 1508.34Z" fill="#A164DD"/>
<path d="M999.265 1508.34C1015.3 1203.27 973.265 1112.27 973.265 1112.27C980.632 1120.51 987.565 1130.04 994.065 1141.31C1003.6 1157.77 1012.7 1177.27 1020.93 1198.51C1020.93 1198.94 1021.37 1199.37 1021.37 1199.81C1044.77 1261.77 1062.1 1338.91 1074.23 1404.77C1078.57 1436.84 1082.03 1471.07 1083.33 1507.91H999.265V1508.34Z" fill="#A164DD"/>
<path d="M275.166 1018.67C273.433 1018.67 271.699 1017.81 270.399 1016.51C268.666 1014.34 267.366 1013.04 267.366 1013.04C265.199 1010.44 265.633 1006.11 268.233 1003.94C270.833 1001.77 275.166 1002.21 277.333 1004.81C277.333 1004.81 278.199 1006.11 279.933 1007.84C282.099 1010.44 282.099 1014.77 279.066 1016.94C278.199 1018.24 276.466 1018.67 275.166 1018.67Z" fill="#A164DD"/>
<path d="M724.533 1300.34C721.499 1300.34 718.466 1300.34 715.433 1299.9C711.966 1299.9 708.933 1296.87 709.366 1292.97C709.366 1289.5 712.399 1286.47 716.299 1286.9C719.333 1286.9 721.933 1286.9 724.966 1287.34C728.433 1287.34 731.466 1290.37 731.466 1293.84C731.033 1297.3 727.999 1300.34 724.533 1300.34ZM776.533 1295.57C773.499 1295.57 770.899 1293.4 770.033 1290.37C769.166 1286.9 771.766 1283.44 775.233 1282.57C777.833 1282.14 780.866 1281.27 783.466 1280.84C786.933 1279.97 790.399 1282.14 791.266 1285.6C792.133 1289.07 789.966 1292.54 786.499 1293.4C783.466 1294.27 780.866 1294.7 777.833 1295.14C776.966 1295.57 776.533 1295.57 776.533 1295.57ZM664.299 1293.4C663.866 1293.4 663.433 1293.4 662.999 1293.4C659.966 1292.97 657.366 1292.1 654.333 1291.24C650.866 1290.37 648.699 1286.9 649.566 1283.44C650.433 1279.97 653.899 1277.8 657.366 1278.67C659.966 1279.54 662.999 1279.97 665.599 1280.4C669.066 1281.27 671.233 1284.74 670.799 1288.2C669.933 1291.24 666.899 1293.4 664.299 1293.4ZM833.733 1276.07C831.566 1276.07 828.966 1274.77 828.099 1272.6C826.366 1269.57 827.666 1265.67 831.133 1263.94C833.733 1262.64 836.333 1261.34 838.499 1260.04C841.533 1258.3 845.433 1259.6 847.166 1262.64C848.899 1265.67 847.599 1269.57 844.566 1271.3C841.966 1272.6 839.366 1274.34 836.766 1275.64C835.899 1276.07 834.599 1276.07 833.733 1276.07ZM605.799 1275.64C604.933 1275.64 604.066 1275.64 603.633 1275.2C601.033 1274.34 597.999 1273.04 595.399 1272.17C591.933 1270.87 590.633 1266.97 591.933 1263.5C593.233 1260.04 597.133 1258.74 600.599 1260.04C603.199 1260.9 605.799 1262.2 608.399 1263.07C611.866 1264.37 613.599 1268.27 612.299 1271.3C610.999 1274.34 608.399 1275.64 605.799 1275.64ZM550.333 1250.5C549.466 1250.5 548.166 1250.07 547.299 1249.64C544.699 1248.34 542.099 1247.04 539.499 1245.3C536.466 1243.57 535.166 1239.67 536.899 1236.64C538.633 1233.6 542.533 1232.3 545.566 1234.04C548.166 1235.34 550.766 1236.64 552.933 1237.94C555.966 1239.67 557.266 1243.57 555.533 1246.6C555.099 1249.2 552.933 1250.5 550.333 1250.5ZM883.133 1240.97C881.399 1240.97 879.666 1240.54 878.366 1239.24C875.766 1236.64 875.766 1232.74 878.366 1230.14C880.533 1227.97 882.266 1226.24 883.999 1224.07C886.599 1221.47 890.499 1221.04 893.099 1223.64C895.699 1226.24 896.133 1230.14 893.533 1232.74C891.366 1234.9 889.633 1237.07 887.466 1239.24C886.166 1240.1 884.433 1240.97 883.133 1240.97ZM498.333 1219.3C497.033 1219.3 495.733 1218.87 494.866 1218C492.266 1216.27 490.099 1214.54 487.499 1213.24C484.466 1211.07 483.599 1207.17 485.766 1204.14C487.933 1201.1 491.833 1200.24 494.866 1202.4C497.033 1204.14 499.633 1205.44 502.233 1207.17C505.266 1209.34 506.133 1213.24 503.966 1216.27C502.666 1218 500.499 1219.3 498.333 1219.3ZM917.799 1191.14C916.933 1191.14 916.066 1191.14 914.766 1190.27C911.733 1188.54 909.999 1184.64 911.733 1181.6C913.033 1179 914.333 1176.4 915.199 1173.8C916.499 1170.34 920.399 1169.04 923.866 1170.34C927.333 1171.64 928.633 1175.54 927.333 1179C926.033 1181.6 924.733 1184.64 923.433 1187.24C922.566 1189.84 920.399 1191.14 917.799 1191.14ZM448.933 1183.34C447.633 1183.34 446.333 1182.9 445.033 1182.04C442.866 1180.3 440.266 1178.57 438.099 1176.84C435.499 1174.67 434.633 1170.34 437.233 1167.74C439.399 1165.14 443.733 1164.27 446.333 1166.87C448.499 1168.6 450.666 1170.34 453.266 1172.07C456.299 1174.24 456.733 1178.57 454.566 1181.17C452.833 1182.47 451.099 1183.34 448.933 1183.34ZM402.133 1144.77C400.399 1144.77 399.099 1144.34 397.799 1143.04C395.633 1141.3 393.466 1139.14 391.299 1137.4C388.699 1135.24 388.266 1130.9 390.866 1128.3C393.033 1125.7 397.366 1125.27 399.966 1127.87C402.133 1129.6 404.299 1131.77 406.466 1133.5C409.066 1135.67 409.499 1140 406.899 1142.6C405.599 1143.9 403.866 1144.77 402.133 1144.77ZM935.999 1133.5C935.566 1133.5 935.133 1133.5 935.133 1133.5C931.666 1133.07 929.066 1129.6 929.933 1126.14C930.366 1123.1 930.799 1120.5 931.233 1117.9C931.666 1114.44 934.699 1111.84 938.599 1112.27C942.066 1112.7 944.666 1115.74 944.233 1119.64C943.799 1122.67 943.366 1125.27 942.933 1128.3C942.066 1130.9 939.033 1133.5 935.999 1133.5ZM357.066 1103.6C355.333 1103.6 353.599 1103.17 352.733 1101.87C350.566 1099.7 348.399 1097.97 346.666 1095.8C344.066 1093.2 344.066 1089.3 346.666 1086.7C349.266 1084.1 353.166 1084.1 355.766 1086.7C357.933 1088.87 360.099 1090.6 361.833 1092.77C364.433 1095.37 364.433 1099.27 361.833 1101.87C360.533 1102.74 358.799 1103.6 357.066 1103.6ZM314.166 1060.27C312.433 1060.27 310.699 1059.4 309.399 1058.1C307.233 1055.94 305.499 1053.77 303.333 1051.6C300.733 1049 301.166 1044.67 303.766 1042.5C306.366 1040.34 310.699 1040.34 312.866 1042.94C314.599 1045.1 316.766 1047.27 318.933 1049.44C321.533 1052.04 321.099 1055.94 318.499 1058.54C317.633 1059.4 315.899 1060.27 314.166 1060.27Z" fill="#A164DD"/>
<path d="M936.866 1077.17C933.833 1077.17 930.8 1075.01 930.366 1071.54C929.933 1068.94 929.933 1067.64 929.933 1067.64C929.066 1064.17 931.666 1060.71 935.133 1059.84C938.6 1058.97 942.066 1061.57 942.933 1065.04C942.933 1065.04 943.366 1066.77 943.8 1069.81C944.233 1073.27 941.633 1076.74 938.166 1077.17C937.3 1077.17 936.866 1077.17 936.866 1077.17Z" fill="#A164DD"/>
<path d="M685.654 622.174C675.254 621.74 667.454 613.074 668.321 602.674L668.754 590.54C669.188 580.14 677.854 572.34 688.254 573.207C698.654 573.64 706.454 582.307 705.588 592.707L705.154 604.84C704.721 614.807 696.054 622.607 685.654 622.174Z" fill="#423232"/>
<path d="M868.087 628.674C858.554 628.24 851.187 620.007 851.62 610.474L852.054 599.207C852.487 589.674 860.72 582.307 870.253 582.74C879.787 583.174 887.154 591.407 886.72 600.94L886.287 612.207C885.854 621.74 877.62 629.107 868.087 628.674Z" fill="#423232"/>
<path d="M727.688 597.04C727.688 597.04 716.422 581.007 696.922 577.973C680.888 575.373 663.122 583.173 660.522 592.273" stroke="#423232" stroke-width="13" stroke-miterlimit="10" stroke-linecap="round" stroke-linejoin="round"/>
<path d="M855.521 600.939C855.521 600.939 855.521 587.072 875.454 587.072C891.921 587.072 898.854 602.239 898.854 602.239" stroke="#423232" stroke-width="13" stroke-miterlimit="10" stroke-linecap="round" stroke-linejoin="round"/>
<path d="M752.388 521.64C761.921 520.774 766.688 509.507 761.488 500.84C758.454 496.507 754.554 492.607 748.921 490.44C732.454 485.24 678.721 496.94 655.321 523.807C634.521 548.507 709.054 525.54 752.388 521.64Z" fill="#423232"/>
<path d="M866.788 528.574C859.421 526.407 857.254 515.574 863.321 508.641C866.354 505.174 870.688 502.141 875.454 501.274C890.188 498.674 923.988 512.107 933.521 537.674C942.188 559.774 901.888 537.241 866.788 528.574Z" fill="#423232"/>
<path d="M806.697 784.149C806.697 784.149 789.364 763.782 717.864 784.149" stroke="#423232" stroke-width="13" stroke-miterlimit="10" stroke-linecap="round" stroke-linejoin="round"/>
<path d="M996.084 315.087C996.084 251.387 944.517 199.821 880.817 199.821C824.051 199.821 776.818 240.987 767.284 294.721C778.984 298.621 790.251 303.821 800.651 311.187C796.751 318.987 808.451 318.987 804.551 326.787C851.351 348.454 884.718 383.554 914.184 425.587C961.418 411.287 996.084 367.087 996.084 315.087Z" fill="#423232"/>
<path d="M940.618 573.354C952.318 507.487 948.852 481.487 941.919 450.72C939.752 441.187 937.152 432.087 934.118 422.987C911.152 404.787 886.885 393.087 850.052 387.887C750.818 374.454 672.385 383.554 588.752 401.754C536.319 413.02 547.152 594.154 526.785 617.987C523.319 605.854 506.419 556.454 450.952 563.387C398.519 569.887 378.585 691.22 486.919 732.82C486.052 756.654 463.952 800.854 446.185 810.82C446.185 810.82 443.152 779.187 408.485 737.587C373.819 695.987 304.485 588.087 351.285 430.354C398.085 272.62 609.985 190.287 807.152 270.454C840.952 284.32 868.685 303.821 890.785 324.187C942.785 371.854 970.518 441.187 962.285 510.954C960.118 534.354 953.618 556.887 940.618 573.354Z" fill="#423232"/>
<path d="M369.051 456.354C439.891 456.354 497.318 398.927 497.318 328.087C497.318 257.248 439.891 199.821 369.051 199.821C298.211 199.821 240.784 257.248 240.784 328.087C240.784 398.927 298.211 456.354 369.051 456.354Z" fill="#423232"/>
<path d="M971.818 583.753C959.685 578.553 941.485 574.22 920.251 571.187C923.285 536.953 915.918 510.953 915.918 510.953C915.051 528.72 910.285 558.187 908.551 569.453C878.218 565.987 843.985 563.82 814.518 562.953C812.785 536.953 807.151 506.62 807.151 506.62C807.151 519.187 804.985 547.353 803.251 562.52C795.885 562.52 788.518 562.087 782.018 562.087C777.685 562.087 773.785 562.087 769.451 562.087C765.551 529.587 756.451 491.02 756.451 491.02C757.318 507.92 754.285 543.887 752.985 562.087C645.518 562.953 549.751 573.787 549.751 573.787L540.218 401.753C581.385 314.653 914.618 275.653 947.551 344.12C1007.35 467.187 971.818 583.753 971.818 583.753Z" fill="#423232"/>
<path d="M971.819 583.754C971.819 583.754 954.052 593.721 937.152 591.554C937.152 591.554 939.752 578.121 940.185 574.654C940.619 574.654 965.319 579.421 971.819 583.754Z" fill="#423232"/>
</g>
</svg>
