<svg width="1300" height="1300" viewBox="0 0 1300 1300" fill="none" xmlns="http://www.w3.org/2000/svg">
<mask id="mask0_114_6964" style="mask-type:alpha" maskUnits="userSpaceOnUse" x="-1" y="0" width="1301" height="1300">
<path d="M649.999 1300C290.709 1300 -0.000488281 1008.86 -0.000488281 650C-0.000488281 290.71 291.141 0 649.999 0C1009.29 0 1300 291.141 1300 650C1300.43 1009.29 1009.29 1300 649.999 1300Z" fill="#F7C0B5"/>
</mask>
<g mask="url(#mask0_114_6964)">
<path d="M1014.87 1197.33C1011.83 1199.5 1008.37 1201.67 1005.33 1203.83C1001.87 1206 998.832 1208.17 995.365 1209.9C992.332 1211.63 989.732 1213.37 986.698 1215.1C986.265 1215.53 985.832 1215.53 985.398 1215.97C975.432 1222.03 965.032 1227.67 954.632 1232.87C951.598 1234.6 948.132 1236.33 945.098 1237.63C945.098 1237.63 944.665 1238.07 944.232 1238.07C940.765 1239.8 937.298 1241.53 933.832 1243.27C926.898 1246.73 919.532 1249.77 912.598 1252.8C909.132 1254.53 905.232 1255.83 901.765 1257.13C898.298 1258.43 894.398 1260.17 890.932 1261.47C887.465 1262.77 883.565 1264.5 880.098 1265.8C880.098 1265.8 880.098 1265.8 879.665 1265.8C876.198 1267.1 872.298 1268.4 868.832 1269.7C861.032 1272.3 852.798 1274.9 844.998 1277.5C842.398 1278.37 839.365 1279.23 836.765 1280.1C828.532 1282.7 820.298 1284.87 812.065 1286.6C809.032 1287.47 805.998 1287.9 802.532 1288.77C794.732 1290.5 786.498 1292.23 778.698 1293.97C776.965 1294.4 775.665 1294.4 773.932 1294.83C771.332 1295.27 768.298 1295.7 765.698 1296.13C761.798 1296.57 758.332 1297.43 754.432 1297.87C752.698 1298.3 750.965 1298.3 749.232 1298.73C747.065 1299.17 744.465 1299.6 741.865 1299.6C734.932 1300.47 727.565 1301.33 720.632 1302.2C718.465 1302.63 715.865 1302.63 713.698 1303.07H713.265C710.232 1303.5 707.198 1303.5 704.165 1303.93C701.132 1304.37 698.098 1304.37 695.065 1304.37C693.332 1304.37 691.165 1304.8 689.432 1304.8C685.965 1304.8 682.932 1305.23 679.898 1305.23C675.565 1305.23 671.665 1305.67 667.332 1305.67C662.998 1305.67 659.098 1305.67 654.765 1305.67C651.732 1305.67 648.698 1305.67 645.665 1305.67C463.232 1303.07 298.565 1225.5 181.565 1102.43C181.565 1102.43 181.565 1102 181.132 1102C194.565 1075.57 244.398 1027.9 296.398 988.465C362.265 938.632 455.432 907.865 455.432 907.865C455.432 907.865 516.532 897.898 743.165 945.132C916.065 981.532 989.732 1129.3 1014.87 1197.33Z" fill="#AD827B"/>
<path d="M791.265 1065.16C782.165 1109.8 723.232 1136.23 623.999 1096.36C502.232 1046.96 455.432 907.865 455.432 907.865C448.932 808.198 433.765 722.831 433.765 722.831C574.599 710.698 740.999 875.365 740.999 875.365L760.065 956.831C761.799 963.765 765.265 969.831 770.465 974.165C779.565 989.765 797.332 1036.56 791.265 1065.16Z" fill="#AD827B"/>
<path d="M770.465 974.599C687.698 970.266 626.598 958.133 561.165 840.699C616.632 889.666 682.065 908.299 750.965 916.966L760.065 956.832C761.798 964.199 765.265 970.266 770.465 974.599Z" fill="#8E5650"/>
<path d="M941.632 452.431C949.432 488.831 953.332 518.298 932.098 615.365C910.865 712.431 951.598 809.498 849.332 898.331C780.432 958.131 659.965 969.398 563.765 903.965C531.265 881.865 501.365 851.098 477.098 810.798C458.032 779.165 435.932 749.265 411.232 721.965C376.998 684.698 335.832 609.731 356.198 477.131C389.132 261.332 602.765 236.632 728.865 260.465C854.965 284.298 920.398 356.231 941.632 452.431Z" fill="#AD827B"/>
<path d="M526.932 621.865C526.932 621.865 513.498 556.865 450.232 564.665C395.632 571.598 376.565 702.465 500.498 738.865" fill="#AD827B"/>
<path d="M496.598 679.499C496.598 679.499 480.998 669.532 482.732 652.199C485.332 631.832 482.732 619.265 473.198 615.365C449.365 605.399 444.598 633.132 445.465 636.599" stroke="#423232" stroke-width="13" stroke-miterlimit="10" stroke-linecap="round" stroke-linejoin="round"/>
<path d="M827.232 721.531C827.232 721.531 843.699 722.398 859.299 703.765C867.965 693.365 875.332 680.365 870.565 676.465C865.799 672.131 787.365 684.265 782.165 694.665C776.965 705.065 807.299 721.531 827.232 721.531Z" fill="#8E605C"/>
<path d="M840.232 575.932C840.232 575.932 841.098 617.099 867.532 663.032C879.232 683.399 861.465 716.765 822.898 722.399" stroke="#423232" stroke-width="13" stroke-miterlimit="10" stroke-linecap="round" stroke-linejoin="round"/>
<path d="M261.732 1017.23C261.732 1017.23 277.766 1005.09 307.666 1023.29C363.566 1057.53 434.632 1240.39 282.099 1368.23C282.099 1368.23 254.799 1527.69 282.099 1558.03C282.099 1558.03 781.299 1583.16 996.666 1558.03C996.666 1558.03 1000.13 1460.09 986.266 1359.99C968.932 1233.03 946.832 1107.79 864.932 992.526C853.232 976.06 831.566 968.693 818.132 964.793L759.199 947.893C759.199 947.893 811.199 1098.26 666.899 1063.59C578.499 1042.36 505.266 958.293 444.599 919.726C430.299 910.626 410.799 913.66 398.232 918.86C369.632 930.993 263.899 994.26 261.732 1017.23Z" fill="#444444"/>
<mask id="mask1_114_6964" style="mask-type:alpha" maskUnits="userSpaceOnUse" x="261" y="913" width="737" height="657">
<path d="M261.732 1017.23C261.732 1017.23 277.766 1005.09 307.666 1023.29C363.566 1057.53 434.632 1240.39 282.099 1368.23C282.099 1368.23 254.799 1527.69 282.099 1558.03C282.099 1558.03 781.299 1583.16 996.666 1558.03C996.666 1558.03 1000.13 1460.09 986.266 1359.99C968.932 1233.03 946.832 1107.79 864.932 992.526C853.232 976.06 831.566 968.693 818.132 964.793L759.199 947.893C759.199 947.893 811.199 1098.26 666.899 1063.59C578.499 1042.36 505.266 958.293 444.599 919.726C430.299 910.626 410.799 913.66 398.232 918.86C369.632 930.993 263.899 994.26 261.732 1017.23Z" fill="#444444"/>
</mask>
<g mask="url(#mask1_114_6964)">
<path d="M270.399 1020.26C319.799 977.36 321.099 1008.56 399.099 983.86C433.765 973.026 471.899 939.226 522.599 935.326C561.599 932.293 604.499 957.86 652.599 963.06C692.465 967.393 739.699 950.493 785.632 962.193C824.632 972.16 858.432 1009.43 902.632 1026.33" stroke="#6D5F5E" stroke-width="17.3333" stroke-miterlimit="10" stroke-linecap="round" stroke-linejoin="round"/>
<path d="M271.699 1069.66C327.599 1033.26 324.566 1065.32 405.166 1044.09C441.132 1034.56 480.999 1001.19 532.132 997.724C571.999 994.691 616.199 1020.69 664.732 1024.59C705.466 1028.06 753.132 1008.56 799.932 1018.96C840.666 1027.62 876.199 1064.46 921.266 1079.62" stroke="#6D5F5E" stroke-width="17.3333" stroke-miterlimit="10" stroke-linecap="round" stroke-linejoin="round"/>
<path d="M272.566 1119.06C333.666 1089.59 327.166 1121.66 410.366 1104.33C447.632 1096.53 489.232 1063.16 540.799 1059.69C581.966 1057.09 627.032 1083.09 676.432 1086.13C718.466 1088.73 766.566 1067.49 814.232 1075.73C856.266 1083.09 894.399 1119.06 940.332 1132.06" stroke="#6D5F5E" stroke-width="17.3333" stroke-miterlimit="10" stroke-linecap="round" stroke-linejoin="round"/>
<path d="M273.866 1168.89C338.866 1145.93 329.766 1177.99 415.132 1164.13C453.699 1157.63 497.032 1125.13 549.466 1121.66C591.932 1119.06 638.299 1145.93 688.132 1147.66C731.466 1149.39 779.999 1125.99 828.099 1132.49C871.866 1138.56 912.166 1173.66 958.966 1184.49" stroke="#6D5F5E" stroke-width="17.3333" stroke-miterlimit="10" stroke-linecap="round" stroke-linejoin="round"/>
<path d="M275.165 1218.73C343.632 1202.26 332.365 1233.89 419.465 1223.06C459.332 1218.29 504.832 1185.79 557.699 1183.19C601.032 1181.03 649.132 1208.33 699.399 1209.63C744.465 1210.49 792.999 1185.36 841.965 1190.13C887.465 1194.46 930.365 1228.69 978.032 1237.36" stroke="#6D5F5E" stroke-width="17.3333" stroke-miterlimit="10" stroke-linecap="round" stroke-linejoin="round"/>
<path d="M276.466 1268.56C347.966 1257.72 334.532 1288.92 423.366 1281.99C464.532 1278.52 511.766 1246.89 565.932 1244.72C610.566 1242.99 659.532 1271.16 710.666 1271.59C757.032 1272.02 806.432 1244.72 856.266 1247.76C903.499 1250.79 948.999 1283.72 997.532 1289.36" stroke="#6D5F5E" stroke-width="17.3333" stroke-miterlimit="10" stroke-linecap="round" stroke-linejoin="round"/>
<path d="M277.332 1318.83C350.999 1313.63 335.832 1343.96 426.832 1340.49C469.299 1338.76 518.699 1307.56 573.732 1306.26C620.099 1305.39 669.932 1334.43 721.932 1334.43C769.599 1334.43 819.865 1305.39 870.132 1306.69C919.099 1307.99 967.199 1339.63 1016.6 1342.66" stroke="#6D5F5E" stroke-width="17.3333" stroke-miterlimit="10" stroke-linecap="round" stroke-linejoin="round"/>
</g>
<path d="M683.943 619.44C673.543 619.007 665.743 610.34 666.609 599.94L667.043 587.807C667.476 577.407 676.143 569.607 686.543 570.473C696.943 570.907 704.743 579.573 703.876 589.973L703.443 602.107C703.009 612.074 694.343 619.874 683.943 619.44Z" fill="#423232"/>
<path d="M866.375 625.94C856.842 625.506 849.475 617.273 849.908 607.74L850.342 596.473C850.775 586.94 859.008 579.573 868.542 580.006C878.075 580.44 885.442 588.673 885.008 598.206L884.575 609.473C884.142 619.006 875.908 626.373 866.375 625.94Z" fill="#423232"/>
<path d="M725.976 594.306C725.976 594.306 714.709 578.273 695.209 575.239C679.176 572.639 661.409 580.439 658.809 589.539" stroke="#423232" stroke-width="13" stroke-miterlimit="10" stroke-linecap="round" stroke-linejoin="round"/>
<path d="M853.809 598.207C853.809 598.207 853.809 584.341 873.743 584.341C890.209 584.341 897.143 599.507 897.143 599.507" stroke="#423232" stroke-width="13" stroke-miterlimit="10" stroke-linecap="round" stroke-linejoin="round"/>
<path d="M743.742 524.539C752.842 527.572 761.942 519.339 760.209 509.372C759.342 504.172 757.175 498.972 752.842 495.072C739.842 483.372 686.109 472.973 653.609 488.139C625.009 502.006 702.142 510.672 743.742 524.539Z" fill="#423232"/>
<path d="M873.308 531.474C865.941 534.074 858.141 526.274 859.441 517.174C859.874 512.407 861.608 507.641 865.074 504.174C875.474 493.774 911.008 485.541 933.541 501.574C953.041 515.007 907.108 518.907 873.308 531.474Z" fill="#423232"/>
<path d="M809.297 750.856C809.297 750.856 820.563 744.789 826.63 755.189C832.697 765.589 817.963 777.289 817.963 777.289C817.963 777.289 834.43 789.422 823.164 804.589C814.064 816.722 800.197 815.856 800.197 815.856" stroke="#423232" stroke-width="13" stroke-miterlimit="10" stroke-linecap="round" stroke-linejoin="round"/>
<path d="M891.776 209.483C891.776 209.483 870.11 138.85 780.843 132.783C682.043 126.283 648.243 185.65 648.243 185.65C648.243 185.65 573.277 122.817 466.677 171.783C331.043 234.183 361.377 364.617 361.377 364.617C361.377 364.617 215.343 566.117 265.61 820.917C265.61 820.917 427.676 891.55 486.61 873.35L473.177 728.617C379.143 682.683 399.51 571.317 449.776 564.817C488.343 560.05 508.71 582.583 518.243 600.783C519.543 602.517 543.377 595.583 546.843 537.517C552.91 445.65 575.876 349.883 769.576 411.417C788.643 417.483 807.277 429.183 825.91 427.017C857.11 423.983 928.176 382.383 943.776 469.917C944.21 471.65 944.21 473.383 944.643 475.55V475.983C944.643 476.85 945.077 477.717 945.077 478.583C945.077 479.017 945.076 479.883 945.51 480.75C945.51 481.617 945.943 482.917 945.943 483.783C945.943 484.65 945.943 485.517 946.376 486.383C946.376 487.25 946.376 487.683 946.376 488.55C946.376 489.85 946.376 491.15 946.81 492.45C946.81 492.883 946.81 493.317 946.81 494.183C946.81 495.483 946.81 496.783 946.81 497.65C946.81 498.083 946.81 498.517 946.81 498.95C946.81 500.683 946.81 501.983 946.81 503.717C946.81 504.15 946.81 504.583 946.81 505.45C946.81 507.183 946.81 508.917 946.81 510.65V511.083C946.81 512.817 946.81 514.55 946.376 516.717C946.376 517.15 946.376 517.583 946.376 518.017C946.376 520.183 945.943 521.917 945.943 524.083C945.943 524.517 945.943 524.95 945.943 525.383C945.943 527.55 945.51 529.717 945.51 531.883C945.51 532.317 945.51 532.317 945.51 532.75C945.076 534.917 945.076 537.517 944.643 540.117C944.643 540.55 944.643 540.983 944.643 541.417C944.21 544.017 944.21 546.617 943.776 549.217C941.176 567.417 937.276 589.083 931.643 615.95C927.743 634.583 926.01 652.783 924.71 671.417C923.41 695.683 923.843 719.517 922.11 743.35C919.51 782.35 912.143 820.917 885.71 858.183C924.276 872.917 987.543 877.25 987.543 877.25C1055.14 762.417 1006.61 530.15 988.41 456.05C991.01 453.883 1063.38 214.25 891.776 209.483Z" fill="#423232"/>
</g>
</svg>
