<svg width="1300" height="1300" viewBox="0 0 1300 1300" fill="none" xmlns="http://www.w3.org/2000/svg">
<mask id="mask0_113_6920" style="mask-type:alpha" maskUnits="userSpaceOnUse" x="-1" y="0" width="1302" height="1300">
<path d="M650 1300C290.71 1300 -0.000244141 1008.86 -0.000244141 650C-0.000244141 290.71 291.141 0 650 0C1009.29 0 1300 291.141 1300 650C1300.43 1009.29 1009.29 1300 650 1300Z" fill="#F7C0B5"/>
</mask>
<g mask="url(#mask0_113_6920)">
<path d="M1012.26 1197.33C1009.23 1199.5 1005.76 1201.67 1002.73 1203.83C999.265 1206 996.232 1208.17 992.765 1209.9C989.732 1211.63 987.132 1213.37 984.098 1215.1C983.665 1215.53 983.232 1215.53 982.798 1215.97C972.832 1222.03 962.432 1227.67 952.032 1232.87C948.998 1234.6 945.532 1236.33 942.498 1237.63C942.498 1237.63 942.065 1238.07 941.632 1238.07C938.165 1239.8 934.698 1241.53 931.232 1243.27C924.298 1246.73 916.932 1249.77 909.998 1252.8C906.532 1254.53 902.632 1255.83 899.165 1257.13C895.698 1258.43 891.798 1260.17 888.332 1261.47C884.865 1262.77 880.965 1264.5 877.498 1265.8C877.498 1265.8 877.498 1265.8 877.065 1265.8C873.598 1267.1 869.698 1268.4 866.232 1269.7C858.432 1272.3 850.198 1274.9 842.398 1277.5C839.798 1278.37 836.765 1279.23 834.165 1280.1C825.932 1282.7 817.698 1284.87 809.465 1286.6C806.432 1287.47 803.398 1287.9 799.932 1288.77C792.132 1290.5 783.898 1292.23 776.098 1293.97C774.365 1294.4 773.065 1294.4 771.332 1294.83C768.732 1295.27 765.698 1295.7 763.098 1296.13C759.198 1296.57 755.732 1297.43 751.832 1297.87C750.098 1298.3 748.365 1298.3 746.632 1298.73C744.465 1299.17 741.865 1299.6 739.265 1299.6C732.332 1300.47 724.965 1301.33 718.032 1302.2C715.865 1302.63 713.265 1302.63 711.098 1303.07H710.665C707.632 1303.5 704.598 1303.5 701.565 1303.93C698.532 1304.37 695.498 1304.37 692.465 1304.37C690.732 1304.37 688.565 1304.8 686.832 1304.8C683.365 1304.8 680.332 1305.23 677.298 1305.23C672.965 1305.23 669.065 1305.67 664.732 1305.67C660.398 1305.67 656.498 1305.67 652.165 1305.67C649.132 1305.67 646.098 1305.67 643.065 1305.67C460.632 1303.07 295.965 1225.5 178.965 1102.43C178.965 1102.43 178.965 1102 178.532 1102C191.965 1075.57 241.798 1027.9 293.798 988.465C359.665 938.632 452.832 907.865 452.832 907.865C452.832 907.865 513.932 897.898 740.565 945.132C913.465 981.532 987.132 1129.3 1012.26 1197.33Z" fill="#C99589"/>
<path d="M788.665 1065.16C779.565 1109.8 720.632 1136.23 621.398 1096.36C499.632 1046.96 452.832 907.865 452.832 907.865C446.332 808.198 431.165 722.831 431.165 722.831C571.998 710.698 738.398 875.365 738.398 875.365L757.465 956.831C759.198 963.765 762.665 969.831 767.865 974.165C776.965 989.765 794.732 1036.56 788.665 1065.16Z" fill="#C99589"/>
<path d="M767.865 974.599C685.098 970.266 623.998 958.133 558.565 840.699C614.032 889.666 679.465 908.299 748.365 916.966L757.465 956.832C759.198 964.199 762.665 970.266 767.865 974.599Z" fill="#A56663"/>
<path d="M939.032 452.431C946.832 488.831 950.732 518.298 929.498 615.365C908.265 712.431 948.998 809.498 846.732 898.331C777.832 958.131 657.365 969.398 561.165 903.965C528.665 881.865 498.765 851.098 474.498 810.798C455.432 779.165 433.332 749.265 408.632 721.965C374.398 684.698 333.232 609.731 353.598 477.131C386.532 261.332 600.165 236.632 726.265 260.465C852.365 284.298 917.798 356.231 939.032 452.431Z" fill="#C99589"/>
<path d="M524.332 621.865C524.332 621.865 510.898 556.865 447.632 564.665C393.032 571.598 373.965 702.465 497.898 738.865" fill="#C99589"/>
<path d="M493.998 679.499C493.998 679.499 478.398 669.532 480.132 652.199C482.732 631.832 480.132 619.265 470.598 615.365C446.765 605.399 441.998 633.132 442.865 636.599" stroke="#423232" stroke-width="13" stroke-miterlimit="10" stroke-linecap="round" stroke-linejoin="round"/>
<path d="M824.632 721.531C824.632 721.531 841.098 722.398 856.698 703.765C865.365 693.365 872.732 680.365 867.965 676.465C863.198 672.131 784.765 684.265 779.565 694.665C774.365 705.065 804.698 721.531 824.632 721.531Z" fill="#A56663"/>
<path d="M837.632 575.932C837.632 575.932 838.498 617.099 864.932 663.032C876.632 683.399 858.865 716.765 820.298 722.399" stroke="#423232" stroke-width="13" stroke-miterlimit="10" stroke-linecap="round" stroke-linejoin="round"/>
<path d="M389.881 829.4C389.881 829.4 430.181 819.866 447.081 818.566L452.281 865.8C452.714 865.366 390.314 841.533 389.881 829.4Z" fill="#544646"/>
<path d="M1158.61 1465.1H63.148C63.148 1465.1 69.648 1264.03 135.515 1120.6C199.648 981.934 374.281 921.7 454.881 900.9C454.881 903.067 455.315 904.8 455.315 906.967C455.315 906.967 502.115 1046.07 623.881 1095.47C723.115 1135.77 782.048 1108.9 791.148 1064.27C796.781 1035.67 779.015 988.867 769.915 973.7C764.715 969.367 761.248 962.867 759.515 956.367L756.048 942.067C766.881 939.9 777.281 936.867 787.248 932.967C843.148 947.7 927.215 982.8 1026.45 1066C1138.68 1159.6 1158.61 1465.1 1158.61 1465.1Z" fill="#544646"/>
<path d="M277.648 1465.1L258.148 1304.33" stroke="white" stroke-width="13" stroke-miterlimit="10" stroke-linecap="round" stroke-linejoin="round"/>
<path d="M1034.25 1249.73C1034.25 1249.73 1021.25 1281.37 1025.15 1313C1029.05 1344.63 1040.31 1391 1024.28 1465.1" stroke="white" stroke-width="13" stroke-miterlimit="10" stroke-linecap="round" stroke-linejoin="round"/>
<path d="M590.515 1176.07C350.881 1106.73 290.648 965.901 290.648 965.901C290.648 965.901 328.348 942.501 346.115 918.234C356.948 903.501 454.448 886.601 454.448 886.601C456.181 905.234 454.448 886.601 455.748 906.967C455.748 906.967 502.548 1046.07 624.315 1095.47C723.548 1135.77 782.481 1108.9 791.581 1064.27C797.215 1035.67 779.448 988.867 770.348 973.701C765.148 969.367 761.681 962.867 759.948 956.367L756.481 942.067C781.181 936.867 804.581 927.334 824.948 914.767C825.815 916.067 826.248 917.367 826.681 918.667C835.781 940.767 863.515 960.701 863.515 960.701C921.581 1097.63 834.481 1246.7 590.515 1176.07Z" fill="#544646"/>
<path d="M932.415 997.966C932.415 997.966 952.348 988.433 972.282 990.6C992.215 992.766 1087.11 1069.47 1096.21 1085.5C1105.75 1101.53 1105.31 1152.67 1094.05 1159.17C1083.21 1165.23 1076.28 1151.37 1076.28 1151.37C1076.28 1151.37 1084.52 1104.57 1075.42 1095.9C1066.32 1087.23 978.348 1013.57 975.315 1013.13C972.282 1012.7 955.815 1026.57 955.815 1026.57L932.415 997.966Z" fill="#544646"/>
<path d="M277.648 987.133C277.648 987.133 238.648 970.667 221.748 973.267C204.848 975.867 117.315 1051.27 109.082 1084.63C100.848 1118 128.582 1178.23 128.582 1178.23L148.082 1147.47C148.082 1147.47 134.215 1101.53 138.548 1083.33C142.882 1065.13 212.215 1002.73 219.148 1002.73C226.082 1002.73 267.682 1021.37 267.682 1021.37L277.648 987.133Z" fill="#544646"/>
<path d="M457.915 1011.83C499.515 1091.56 582.715 1197.73 721.815 1247.56C847.048 1292.63 839.248 1141.4 821.048 1050.83C696.248 1078.13 571.015 1080.3 457.915 1011.83Z" fill="#443F3F"/>
<path d="M821.048 1051.26C816.281 1027.43 810.648 1007.93 806.748 997.098C798.081 973.698 785.081 952.898 773.381 937.298C767.748 939.031 762.114 940.331 756.481 941.631L759.948 955.931C761.681 962.864 765.148 968.931 770.348 973.264C771.214 974.998 772.514 977.164 773.814 979.764C675.448 1017.9 559.314 967.631 559.314 967.631C524.214 965.898 526.814 1000.56 543.281 1041.73C480.881 982.364 455.748 906.964 455.748 906.964C454.881 893.964 454.014 881.398 452.714 868.831C452.714 868.831 420.648 886.598 426.281 926.464C428.881 943.364 438.848 974.998 458.348 1011.83C571.014 1080.3 696.248 1078.13 821.048 1051.26Z" fill="#E26076"/>
<path d="M389.881 829.399C389.881 829.399 490.848 876.199 572.314 897.866C580.114 900.033 586.181 906.966 587.048 915.199C590.081 944.666 598.314 1013.57 605.248 1040C614.348 1074.23 790.714 1248.43 792.448 1270.53C794.181 1292.63 614.348 1287.43 507.314 1159.17C399.848 1030.9 408.081 1007.5 408.081 1007.5C408.081 1007.5 389.881 884.433 389.881 829.399Z" fill="#544646"/>
<path d="M870.448 875.768L898.181 887.468C906.848 890.934 911.181 900.901 908.148 910.001C895.581 948.134 864.381 1043.03 863.081 1075.97C861.348 1117.57 775.548 1384.93 775.548 1384.93C775.548 1384.93 723.115 1316.03 761.681 1248C792.015 1194.27 793.748 1079.43 790.715 1064.27C786.815 1044.33 770.348 997.534 761.248 968.068C756.481 952.034 755.615 942.068 755.615 942.068C755.615 942.068 815.414 932.101 870.448 875.768Z" fill="#544646"/>
<path d="M548.048 946.833C554.988 946.833 560.615 940.431 560.615 932.533C560.615 924.636 554.988 918.233 548.048 918.233C541.108 918.233 535.481 924.636 535.481 932.533C535.481 940.431 541.108 946.833 548.048 946.833Z" fill="white"/>
<path d="M748.248 1211.17C716.615 1177.37 628.215 1097.2 601.348 1079.43C585.748 1069.03 568.848 1061.23 551.081 1055.6C438.415 1019.2 401.581 959.833 401.581 959.833L396.815 918.233" stroke="#443F3F" stroke-width="13" stroke-miterlimit="10" stroke-linecap="round" stroke-linejoin="round"/>
<path d="M768.615 1235C768.615 1235 758.215 1286.56 762.548 1311.7C766.881 1336.83 770.348 1411.8 770.348 1411.8" stroke="#443F3F" stroke-width="13" stroke-miterlimit="10" stroke-linecap="round" stroke-linejoin="round"/>
<path d="M888.214 973.699C888.214 973.699 866.981 1048.23 857.014 1077.7C846.614 1107.17 799.381 1166.1 786.381 1194.27" stroke="#443F3F" stroke-width="13" stroke-miterlimit="10" stroke-linecap="round" stroke-linejoin="round"/>
<path d="M831.448 1228.93C839.346 1228.93 845.748 1222.53 845.748 1214.63C845.748 1206.73 839.346 1200.33 831.448 1200.33C823.55 1200.33 817.148 1206.73 817.148 1214.63C817.148 1222.53 823.55 1228.93 831.448 1228.93Z" fill="white"/>
<path d="M715.184 586.765C715.184 586.765 684.851 587.198 654.084 564.231" stroke="#423232" stroke-width="13" stroke-miterlimit="10" stroke-linecap="round" stroke-linejoin="round"/>
<path d="M843.884 593.697C843.884 593.697 875.084 588.064 884.184 575.93" stroke="#423232" stroke-width="13" stroke-miterlimit="10" stroke-linecap="round" stroke-linejoin="round"/>
<path d="M735.984 553.397C744.218 558.164 754.618 551.664 755.051 541.697C755.051 536.497 754.184 530.864 750.718 526.097C740.318 512.231 689.618 490.997 654.518 500.097C624.184 507.897 698.284 531.731 735.984 553.397Z" fill="#423232"/>
<path d="M869.019 558.598C862.952 563.364 852.986 557.731 851.686 548.631C850.819 543.864 851.252 538.664 853.419 534.331C860.352 521.331 892.419 503.564 918.419 512.231C940.952 520.464 898.052 537.364 869.019 558.598Z" fill="#423232"/>
<path d="M666.218 572.03C662.751 575.064 660.584 579.83 660.151 584.597L659.718 596.73C659.284 607.13 667.084 615.797 677.051 616.23C687.451 616.664 696.118 608.864 696.551 598.897L696.984 586.764C696.984 586.33 696.984 585.897 696.984 585.464C685.718 584.597 675.751 579.83 666.218 572.03Z" fill="#423232"/>
<path d="M843.885 592.832C843.885 593.265 843.885 593.265 843.885 593.698L843.452 604.965C843.019 614.498 850.385 622.732 859.919 623.165C869.452 623.598 877.686 616.232 878.119 606.698L878.552 595.432C878.985 591.098 877.252 587.198 875.085 584.165C865.552 589.798 855.152 591.098 843.885 592.832Z" fill="#423232"/>
<path d="M809.297 750.856C809.297 750.856 820.564 744.789 826.63 755.189C832.697 765.589 817.964 777.289 817.964 777.289C817.964 777.289 834.43 789.422 823.164 804.589C814.064 816.722 800.197 815.856 800.197 815.856" stroke="#423232" stroke-width="13" stroke-miterlimit="10" stroke-linecap="round" stroke-linejoin="round"/>
<path d="M952.022 313.038C941.622 281.405 926.889 254.105 911.722 239.371C880.089 208.171 869.689 250.205 869.689 250.205C869.689 250.205 821.589 160.505 755.289 148.371C708.056 139.705 720.622 194.305 720.622 194.305C720.622 194.305 663.422 133.205 584.122 133.205C521.289 133.205 545.122 187.371 545.122 187.371C545.122 187.371 500.489 123.238 453.256 134.505C406.022 145.771 423.789 238.938 423.789 238.938C386.089 144.471 321.956 236.338 311.122 433.938C304.622 551.371 339.289 627.638 362.689 665.338C383.489 702.605 406.889 728.605 419.889 752.005C438.522 785.371 447.622 821.771 447.622 821.771C484.456 755.905 484.889 720.371 484.889 720.371C376.556 678.771 396.056 557.871 448.922 550.938C504.389 544.005 521.722 593.405 524.756 605.538C544.689 581.705 490.522 427.005 586.722 389.305C679.889 352.905 737.956 406.638 837.622 420.071C868.822 424.405 898.289 401.438 920.822 405.338C927.756 406.638 932.956 411.838 935.122 418.771C936.856 425.271 938.589 431.771 940.322 438.705C946.389 465.138 1059.06 333.838 952.022 313.038Z" fill="#423232"/>
</g>
</svg>
