<svg width="1300" height="1300" viewBox="0 0 1300 1300" fill="none" xmlns="http://www.w3.org/2000/svg">
<mask id="mask0_113_6873" style="mask-type:alpha" maskUnits="userSpaceOnUse" x="-1" y="0" width="1302" height="1300">
<path d="M650 1300C290.71 1300 -0.00012207 1008.86 -0.00012207 650C-0.00012207 290.71 291.141 0 650 0C1009.29 0 1300 291.141 1300 650C1300.43 1009.29 1009.29 1300 650 1300Z" fill="#F7C0B5"/>
</mask>
<g mask="url(#mask0_113_6873)">
<path d="M1012.26 1197.33C1009.23 1199.5 1005.76 1201.67 1002.73 1203.83C999.265 1206 996.232 1208.17 992.765 1209.9C989.732 1211.63 987.132 1213.37 984.098 1215.1C983.665 1215.53 983.232 1215.53 982.798 1215.97C972.832 1222.03 962.432 1227.67 952.032 1232.87C948.998 1234.6 945.532 1236.33 942.498 1237.63C942.498 1237.63 942.065 1238.07 941.632 1238.07C938.165 1239.8 934.698 1241.53 931.232 1243.27C924.298 1246.73 916.932 1249.77 909.998 1252.8C906.532 1254.53 902.632 1255.83 899.165 1257.13C895.698 1258.43 891.798 1260.17 888.332 1261.47C884.865 1262.77 880.965 1264.5 877.498 1265.8C877.498 1265.8 877.498 1265.8 877.065 1265.8C873.598 1267.1 869.698 1268.4 866.232 1269.7C858.432 1272.3 850.198 1274.9 842.398 1277.5C839.798 1278.37 836.765 1279.23 834.165 1280.1C825.932 1282.7 817.698 1284.87 809.465 1286.6C806.432 1287.47 803.398 1287.9 799.932 1288.77C792.132 1290.5 783.898 1292.23 776.098 1293.97C774.365 1294.4 773.065 1294.4 771.332 1294.83C768.732 1295.27 765.698 1295.7 763.098 1296.13C759.198 1296.57 755.732 1297.43 751.832 1297.87C750.098 1298.3 748.365 1298.3 746.632 1298.73C744.465 1299.17 741.865 1299.6 739.265 1299.6C732.332 1300.47 724.965 1301.33 718.032 1302.2C715.865 1302.63 713.265 1302.63 711.098 1303.07H710.665C707.632 1303.5 704.598 1303.5 701.565 1303.93C698.532 1304.37 695.498 1304.37 692.465 1304.37C690.732 1304.37 688.565 1304.8 686.832 1304.8C683.365 1304.8 680.332 1305.23 677.298 1305.23C672.965 1305.23 669.065 1305.67 664.732 1305.67C660.398 1305.67 656.498 1305.67 652.165 1305.67C649.132 1305.67 646.098 1305.67 643.065 1305.67C460.632 1303.07 295.965 1225.5 178.965 1102.43C178.965 1102.43 178.965 1102 178.532 1102C191.965 1075.57 241.798 1027.9 293.798 988.465C359.665 938.632 452.832 907.865 452.832 907.865C452.832 907.865 513.932 897.898 740.565 945.132C913.465 981.532 987.132 1129.3 1012.26 1197.33Z" fill="#C99589"/>
<path d="M788.665 1065.16C779.565 1109.8 720.632 1136.23 621.399 1096.36C499.632 1046.96 452.832 907.865 452.832 907.865C446.332 808.198 431.165 722.831 431.165 722.831C571.999 710.698 738.399 875.365 738.399 875.365L757.465 956.831C759.199 963.765 762.665 969.831 767.865 974.165C776.965 989.765 794.732 1036.56 788.665 1065.16Z" fill="#C99589"/>
<path d="M767.865 974.599C685.098 970.266 623.998 958.133 558.565 840.699C614.032 889.666 679.465 908.299 748.365 916.966L757.465 956.832C759.198 964.199 762.665 970.266 767.865 974.599Z" fill="#A56663"/>
<path d="M939.032 452.431C946.832 488.831 950.732 518.298 929.498 615.365C908.265 712.431 948.998 809.498 846.732 898.331C777.832 958.131 657.365 969.398 561.165 903.965C528.665 881.865 498.765 851.098 474.498 810.798C455.432 779.165 433.332 749.265 408.632 721.965C374.398 684.698 333.232 609.731 353.598 477.131C386.532 261.332 600.165 236.632 726.265 260.465C852.365 284.298 917.798 356.231 939.032 452.431Z" fill="#C99589"/>
<path d="M524.332 621.865C524.332 621.865 510.898 556.865 447.632 564.665C393.032 571.598 373.965 702.465 497.898 738.865" fill="#C99589"/>
<path d="M493.998 679.499C493.998 679.499 478.398 669.532 480.132 652.199C482.732 631.832 480.132 619.265 470.598 615.365C446.765 605.399 441.998 633.132 442.865 636.599" stroke="#423232" stroke-width="13" stroke-miterlimit="10" stroke-linecap="round" stroke-linejoin="round"/>
<path d="M824.632 721.531C824.632 721.531 841.099 722.398 856.699 703.765C865.365 693.365 872.732 680.365 867.965 676.465C863.199 672.131 784.765 684.265 779.565 694.665C774.365 705.065 804.699 721.531 824.632 721.531Z" fill="#A56663"/>
<path d="M837.632 575.932C837.632 575.932 838.498 617.099 864.932 663.032C876.632 683.399 858.865 716.765 820.298 722.399" stroke="#423232" stroke-width="13" stroke-miterlimit="10" stroke-linecap="round" stroke-linejoin="round"/>
<path d="M855.4 992.665C865.367 999.598 870.567 1011.73 867.533 1023.87C860.167 1054.2 824.633 1112.7 762.667 1143.03C660.4 1192.87 1008.37 1165.13 1008.37 1165.13C1008.37 1165.13 988 1114.43 948.133 1068.93C888.766 1001.33 855.4 992.665 855.4 992.665Z" fill="white"/>
<path d="M971.099 1098.83C945.099 1130.47 913.899 1153.87 878.799 1172.07C943.799 1170.33 1007.93 1165.13 1007.93 1165.13C1007.93 1165.13 995.366 1133.93 971.099 1098.83Z" fill="#EFEFEA"/>
<path d="M1085.5 1504.43H92.7328C93.1661 1473.67 95.7661 1405.2 105.733 1331.53C112.233 1284.3 122.199 1235.33 136.933 1192.43C155.999 1137.4 181.999 1097.1 205.833 1068.93C206.266 1068.5 206.266 1068.5 206.266 1068.5C217.966 1054.63 228.799 1043.8 237.899 1035.57C284.699 993.532 318.066 967.532 334.099 956.265C339.733 952.365 348.399 951.065 352.299 956.698C421.199 1052.47 544.266 1101 665.599 1126.57C835.899 1162.53 1002.3 1153 1007.5 1165.13C1033.5 1224.07 1051.7 1297.73 1063.83 1362.73C1076.4 1424.27 1082.9 1478.43 1085.5 1504.43Z" fill="#FFF573"/>
<path d="M352.733 956.697C421.633 1052.46 544.699 1101 666.033 1126.56C836.333 1162.53 1002.73 1153 1007.93 1165.13" stroke="#FFAD76" stroke-width="13" stroke-miterlimit="10" stroke-linecap="round" stroke-linejoin="round"/>
<path d="M1010.53 1274.76C1000.57 1268.26 990.599 1262.2 980.632 1255.7C990.166 1248.76 999.699 1241.83 1009.23 1234.9L1039.13 1253.96L1010.53 1274.76Z" fill="#606060"/>
<path d="M696.799 1253.96C688.132 1245.73 679.899 1237.06 671.666 1228.4C682.499 1223.63 693.332 1219.3 703.732 1214.53C711.965 1222.76 720.199 1231 728.866 1239.23C718.466 1244 707.632 1249.2 696.799 1253.96Z" fill="#606060"/>
<path d="M853.232 1272.6C843.699 1265.23 834.599 1258.3 825.499 1250.5C835.899 1244.86 845.865 1238.36 855.832 1232.3C864.932 1239.66 874.465 1247.03 883.565 1253.96C873.599 1260.9 863.632 1266.53 853.232 1272.6Z" fill="white"/>
<path d="M543.4 1213.66C536.466 1203.7 529.533 1194.16 523.033 1184.63C534.3 1182.03 546 1179 557.266 1175.96C563.766 1185.5 571.133 1194.6 578.066 1204.13C566.366 1207.16 554.666 1210.63 543.4 1213.66Z" fill="white"/>
<path d="M278.199 1036.86C277.332 1024.73 276.899 1012.16 278.199 1000.46C288.599 1005.66 299.432 1009.56 310.266 1012.6C310.266 1023.86 311.132 1035.56 312.866 1047.26C301.599 1044.23 289.899 1041.2 278.199 1036.86Z" fill="white"/>
<path d="M399.533 1144.33C396.933 1139.13 394.766 1133.06 392.599 1127.86C390.433 1122.23 388.266 1117.03 386.099 1111.4C392.166 1111.4 397.799 1111.4 403.866 1111.4C409.499 1111.4 415.566 1111.4 421.199 1110.96C425.533 1121.36 430.299 1132.63 435.499 1143.03C423.366 1143.46 411.666 1143.9 399.533 1144.33Z" fill="#606060"/>
<path d="M1085.5 1504.43H377C230.966 1449.4 128.266 1380.5 105.733 1331.53C101.833 1322.86 100.1 1315.06 101.4 1307.7C122.633 1158.63 198.9 1076.3 205.833 1068.93C206.266 1068.5 206.266 1068.5 206.266 1068.5C206.266 1068.5 372.233 1369.23 1064.27 1362.73C1076.4 1424.26 1082.9 1478.43 1085.5 1504.43Z" fill="#FFAD76"/>
<path d="M345.366 1109.23C362.119 1109.23 375.7 1095.65 375.7 1078.9C375.7 1062.15 362.119 1048.56 345.366 1048.56C328.614 1048.56 315.033 1062.15 315.033 1078.9C315.033 1095.65 328.614 1109.23 345.366 1109.23Z" fill="#FF6B57"/>
<path d="M478.833 1198.07C495.586 1198.07 509.166 1184.48 509.166 1167.73C509.166 1150.98 495.586 1137.4 478.833 1137.4C462.08 1137.4 448.5 1150.98 448.5 1167.73C448.5 1184.48 462.08 1198.07 478.833 1198.07Z" fill="#FF6B57"/>
<path d="M624.432 1249.2C641.185 1249.2 654.766 1235.62 654.766 1218.86C654.766 1202.11 641.185 1188.53 624.432 1188.53C607.68 1188.53 594.099 1202.11 594.099 1218.86C594.099 1235.62 607.68 1249.2 624.432 1249.2Z" fill="#FF6B57"/>
<path d="M778.7 1274.33C795.452 1274.33 809.033 1260.75 809.033 1244C809.033 1227.25 795.452 1213.67 778.7 1213.67C761.947 1213.67 748.366 1227.25 748.366 1244C748.366 1260.75 761.947 1274.33 778.7 1274.33Z" fill="#FF6B57"/>
<path d="M936.432 1283.86C953.185 1283.86 966.766 1270.28 966.766 1253.53C966.766 1236.78 953.185 1223.2 936.432 1223.2C919.68 1223.2 906.099 1236.78 906.099 1253.53C906.099 1270.28 919.68 1283.86 936.432 1283.86Z" fill="#FF6B57"/>
<path d="M745.802 526.549C755.216 527.849 762.491 517.883 759.068 508.349C757.356 503.149 754.36 498.383 749.653 495.349C735.104 486.249 680.759 485.383 652.088 506.183C626.841 525.249 703.01 520.483 745.802 526.549Z" fill="#423232"/>
<path d="M864.333 531.315C856.63 531.315 851.923 521.349 855.775 513.115C857.914 508.782 860.91 504.882 865.189 502.716C878.454 496.216 913.971 500.116 929.804 522.215C943.925 541.715 899.85 530.882 864.333 531.315Z" fill="#423232"/>
<path d="M730.824 581.15C703.437 567.283 660.217 577.683 660.217 577.683" stroke="#423232" stroke-width="13" stroke-miterlimit="10" stroke-linecap="round" stroke-linejoin="round"/>
<path d="M899.853 589.816C899.853 589.816 888.727 577.683 847.647 587.216" stroke="#423232" stroke-width="13" stroke-miterlimit="10" stroke-linecap="round" stroke-linejoin="round"/>
<path d="M800.016 771.848C800.449 778.781 795.249 790.915 785.716 799.581C736.749 769.681 714.649 785.281 714.649 785.281C697.316 758.848 701.216 722.881 743.249 750.181C772.716 768.815 790.483 771.848 800.016 771.848Z" fill="#423232"/>
<path d="M785.716 799.58C775.316 808.68 759.716 814.313 738.483 805.646C728.516 801.746 720.716 793.946 714.65 785.28C714.65 785.28 736.75 769.68 785.716 799.58Z" fill="#FE9DAB"/>
<path d="M808.25 770.115C808.25 770.115 790.05 780.082 743.25 750.182C687.35 714.215 698.617 789.615 738.05 805.648C779.217 822.548 800.45 785.715 800.017 771.848" stroke="#423232" stroke-width="13" stroke-miterlimit="10" stroke-linecap="round" stroke-linejoin="round"/>
<path d="M714.65 785.28C714.65 785.28 736.75 769.68 785.716 799.58" stroke="#423232" stroke-width="13" stroke-miterlimit="10" stroke-linecap="round" stroke-linejoin="round"/>
<path d="M1007.78 624.095C987.418 605.461 981.785 578.162 980.051 559.962C993.051 568.628 1009.95 542.195 1009.08 510.995C1007.78 464.628 995.651 430.395 981.351 406.561C991.318 393.995 998.685 379.262 1002.58 362.795C1020.35 290.862 961.851 235.828 876.485 215.028C824.051 202.028 727.851 208.528 614.751 206.795C595.251 206.362 574.885 207.228 554.951 209.395C530.685 211.995 506.851 217.195 484.751 226.295C448.785 239.728 415.851 260.962 390.718 291.728C346.518 346.328 333.951 408.728 331.785 457.261C329.618 514.895 315.751 571.662 288.451 622.795C258.985 677.828 240.785 736.328 269.818 786.595C270.685 787.895 271.551 789.195 272.418 790.928C258.551 859.395 335.685 853.328 350.851 783.995C347.818 796.995 345.651 808.261 344.351 816.061C333.951 884.095 383.351 892.761 408.051 845.528C410.651 840.761 417.151 821.261 424.085 796.561C424.085 800.895 424.518 805.228 424.951 809.128C425.818 904.028 493.418 912.262 489.518 848.128C487.785 819.528 492.551 779.661 499.918 736.328C376.851 699.495 395.918 569.495 450.951 562.561C514.218 554.328 527.651 619.761 527.651 619.761C532.418 640.128 539.351 664.395 549.751 676.095C568.385 696.461 600.451 682.161 579.651 618.028C575.318 604.595 571.418 589.428 568.818 573.395C585.285 577.728 599.585 568.628 592.651 550.428C586.151 533.961 582.685 518.795 581.818 504.495C580.518 482.395 586.151 462.462 595.685 445.995C605.651 485.428 647.251 473.295 649.851 444.695C650.718 435.162 653.751 423.895 658.085 411.328C668.485 424.762 682.785 437.328 700.551 446.428C733.485 462.895 756.885 455.095 762.085 438.195C783.318 445.562 802.385 451.195 817.118 454.662C861.318 465.495 905.085 459.862 939.318 441.662C941.051 445.562 941.918 449.028 942.351 450.328C942.785 452.495 943.218 454.662 943.651 456.828C947.551 475.462 949.718 493.662 947.985 520.962C947.985 522.262 947.985 523.128 947.551 524.428C947.551 525.295 947.551 526.162 947.118 527.028C947.118 529.195 946.685 530.928 946.685 533.095C946.685 534.395 946.251 535.261 946.251 536.561C946.251 538.295 945.818 540.462 945.385 542.628C944.951 544.362 944.951 546.095 944.518 547.828C944.518 549.128 944.085 550.862 944.085 552.162C943.651 554.762 943.218 557.361 942.785 560.395C942.785 560.828 942.785 561.695 942.351 562.128C941.918 565.595 941.051 569.062 940.618 572.962C938.451 585.095 935.851 598.095 932.818 613.261C914.618 697.328 942.785 782.262 883.418 861.128C880.818 884.528 901.185 913.995 926.318 883.228C945.818 859.395 936.718 779.662 935.418 763.628C937.151 780.528 964.018 834.262 989.151 826.462C1003.02 822.128 1009.08 814.761 1006.92 789.195C1004.32 753.228 976.151 717.695 972.251 665.261C998.251 687.361 1035.08 648.795 1007.78 624.095Z" fill="#423232"/>
</g>
</svg>
