<svg width="1300" height="1300" viewBox="0 0 1300 1300" fill="none" xmlns="http://www.w3.org/2000/svg">
<mask id="mask0_113_6600" style="mask-type:alpha" maskUnits="userSpaceOnUse" x="0" y="0" width="1301" height="1300">
<path d="M650 1300C290.71 1300 0 1008.86 0 650C0 290.71 291.141 0 650 0C1009.29 0 1300 291.141 1300 650C1300.43 1009.29 1009.29 1300 650 1300Z" fill="#F7C0B5"/>
</mask>
<g mask="url(#mask0_113_6600)">
<path d="M1014 1197.33C1010.97 1199.5 1007.5 1201.67 1004.47 1203.83C1001 1206 997.967 1208.17 994.5 1209.9C991.467 1211.63 988.867 1213.37 985.833 1215.1C985.4 1215.53 984.967 1215.53 984.533 1215.97C974.567 1222.03 964.167 1227.67 953.767 1232.87C950.733 1234.6 947.267 1236.33 944.233 1237.63C944.233 1237.63 943.8 1238.07 943.367 1238.07C939.9 1239.8 936.433 1241.53 932.967 1243.27C926.033 1246.73 918.667 1249.77 911.733 1252.8C908.267 1254.53 904.367 1255.83 900.9 1257.13C897.433 1258.43 893.533 1260.17 890.067 1261.47C886.6 1262.77 882.7 1264.5 879.233 1265.8C879.233 1265.8 879.233 1265.8 878.8 1265.8C875.333 1267.1 871.433 1268.4 867.967 1269.7C860.167 1272.3 851.933 1274.9 844.133 1277.5C841.533 1278.37 838.5 1279.23 835.9 1280.1C827.667 1282.7 819.433 1284.87 811.2 1286.6C808.167 1287.47 805.133 1287.9 801.667 1288.77C793.867 1290.5 785.633 1292.23 777.833 1293.97C776.1 1294.4 774.8 1294.4 773.067 1294.83C770.467 1295.27 767.433 1295.7 764.833 1296.13C760.933 1296.57 757.467 1297.43 753.567 1297.87C751.833 1298.3 750.1 1298.3 748.367 1298.73C746.2 1299.17 743.6 1299.6 741 1299.6C734.067 1300.47 726.7 1301.33 719.767 1302.2C717.6 1302.63 715 1302.63 712.833 1303.07H712.4C709.367 1303.5 706.333 1303.5 703.3 1303.93C700.267 1304.37 697.233 1304.37 694.2 1304.37C692.467 1304.37 690.3 1304.8 688.567 1304.8C685.1 1304.8 682.067 1305.23 679.033 1305.23C674.7 1305.23 670.8 1305.67 666.467 1305.67C662.133 1305.67 658.233 1305.67 653.9 1305.67C650.867 1305.67 647.833 1305.67 644.8 1305.67C462.367 1303.07 297.7 1225.5 180.7 1102.43C180.7 1102.43 180.7 1102 180.267 1102C193.7 1075.57 243.534 1027.9 295.534 988.465C361.4 938.632 454.567 907.865 454.567 907.865C454.567 907.865 515.667 897.898 742.3 945.132C915.2 981.532 988.867 1129.3 1014 1197.33Z" fill="#F7D3B5"/>
<path d="M790.4 1065.16C781.3 1109.8 722.367 1136.23 623.134 1096.36C501.367 1046.96 454.567 907.865 454.567 907.865C448.067 808.198 432.9 722.831 432.9 722.831C573.734 710.698 740.134 875.365 740.134 875.365L759.2 956.831C760.934 963.765 764.4 969.831 769.6 974.165C778.7 989.765 796.467 1036.56 790.4 1065.16Z" fill="#F7D3B5"/>
<path d="M769.6 974.599C686.833 970.266 625.733 958.133 560.3 840.699C615.767 889.666 681.2 908.299 750.1 916.966L759.2 956.832C760.933 964.199 764.4 970.266 769.6 974.599Z" fill="#EFBDA5"/>
<path d="M940.767 452.431C948.567 488.831 952.467 518.298 931.233 615.365C910 712.431 950.733 809.498 848.467 898.331C779.567 958.131 659.1 969.398 562.9 903.965C530.4 881.865 500.5 851.098 476.233 810.798C457.167 779.165 435.067 749.265 410.367 721.965C376.133 684.698 334.967 609.731 355.333 477.131C388.267 261.332 601.9 236.632 728 260.465C854.1 284.298 919.533 356.231 940.767 452.431Z" fill="#F7D3B5"/>
<path d="M526.067 621.865C526.067 621.865 512.633 556.865 449.367 564.665C394.767 571.598 375.7 702.465 499.633 738.865" fill="#F7D3B5"/>
<path d="M495.734 679.499C495.734 679.499 480.134 669.532 481.867 652.199C484.467 631.832 481.867 619.265 472.334 615.365C448.501 605.399 443.734 633.132 444.601 636.599" stroke="#423232" stroke-width="13" stroke-miterlimit="10" stroke-linecap="round" stroke-linejoin="round"/>
<path d="M826.367 721.531C826.367 721.531 842.833 722.398 858.433 703.765C867.1 693.365 874.467 680.365 869.7 676.465C864.933 672.131 786.5 684.265 781.3 694.665C776.1 705.065 806.433 721.531 826.367 721.531Z" fill="#EFBDA5"/>
<path d="M839.367 575.932C839.367 575.932 840.234 617.099 866.667 663.032C878.367 683.399 860.601 716.765 822.034 722.399" stroke="#423232" stroke-width="13" stroke-miterlimit="10" stroke-linecap="round" stroke-linejoin="round"/>
<path opacity="0.42" d="M604.501 743.631C629.151 743.631 649.134 727.14 649.134 706.797C649.134 686.455 629.151 669.964 604.501 669.964C579.85 669.964 559.867 686.455 559.867 706.797C559.867 727.14 579.85 743.631 604.501 743.631Z" fill="#ED938A"/>
<path opacity="0.42" d="M924.3 670.831C923 695.098 923.434 718.931 921.7 742.764C902.634 738.431 888.767 724.131 888.767 707.231C888.767 689.031 903.933 674.298 924.3 670.831Z" fill="#ED938A"/>
<path d="M1057.78 1116.6C996.25 1037.3 900.917 1004.37 848.483 984.871C844.15 963.205 835.917 939.371 822.917 916.405C802.983 928.538 780.017 937.638 756.184 942.405L759.65 956.705C761.383 963.638 770.05 995.705 756.617 1036.87C745.35 1071.54 699.85 1087.14 622.717 1052.04C472.35 984.005 455.017 907.305 455.017 907.305C452.417 865.705 448.084 826.705 444.184 795.071C397.384 805.471 343.217 826.705 313.75 871.338C277.35 925.938 263.917 981.405 267.384 1025.6C204.117 1065.9 106.184 1127 74.1168 1236.2C32.5168 1378.34 39.4502 1465.44 39.4502 1465.44H1159.18C1157.88 1465.87 1141.42 1224.5 1057.78 1116.6Z" fill="#6060D8"/>
<path d="M388.283 974.474C388.283 974.474 414.716 1077.17 530.416 1148.24" stroke="#423232" stroke-width="13" stroke-miterlimit="10" stroke-linecap="round" stroke-linejoin="round"/>
<path d="M848.05 984.871C848.05 984.871 878.817 1117.9 811.65 1179" stroke="#423232" stroke-width="13" stroke-miterlimit="10" stroke-linecap="round" stroke-linejoin="round"/>
<path d="M639.183 1158.64C639.183 1158.64 616.65 1224.51 622.717 1270.01" stroke="#423232" stroke-width="13" stroke-miterlimit="10" stroke-linecap="round" stroke-linejoin="round"/>
<path d="M777.417 1154.74C777.417 1154.74 794.318 1191.57 806.451 1250.07" stroke="#423232" stroke-width="13" stroke-miterlimit="10" stroke-linecap="round" stroke-linejoin="round"/>
<path d="M266.517 1026.04C266.517 1026.04 302.05 1170.77 513.517 1213.24" stroke="#423232" stroke-width="13" stroke-miterlimit="10" stroke-linecap="round" stroke-linejoin="round"/>
<path d="M626.617 1279.97L607.55 1278.24C600.617 1277.37 595.417 1270.87 596.717 1263.94L603.217 1231.44C604.95 1222.34 613.617 1215.84 622.717 1217.14C631.817 1218.01 639.183 1225.81 639.183 1235.34L639.617 1268.71C639.617 1275.21 633.55 1280.84 626.617 1279.97Z" fill="white"/>
<path d="M825.517 1260.04L807.317 1266.54C800.384 1269.14 793.017 1264.81 791.717 1257.87L783.917 1225.81C781.75 1216.71 786.517 1207.61 795.617 1204.14C804.284 1201.11 814.25 1205.01 818.15 1213.24L832.45 1243.14C835.484 1249.64 832.45 1257.44 825.517 1260.04Z" fill="white"/>
<path d="M1016.62 1250.07C1016.62 1250.07 1040.88 1386.14 1031.35 1465.87" stroke="#544D4D" stroke-width="13" stroke-miterlimit="10" stroke-linecap="round" stroke-linejoin="round"/>
<path d="M743.042 526.549C752.576 527.849 759.942 517.883 756.476 508.349C754.742 503.149 751.709 498.383 746.942 495.349C732.209 486.249 677.176 485.383 648.142 506.183C622.576 525.249 699.709 520.483 743.042 526.549Z" fill="#423232"/>
<path d="M863.074 531.315C855.274 531.315 850.508 521.349 854.408 513.115C856.574 508.782 859.608 504.882 863.941 502.716C877.374 496.216 913.341 500.116 929.374 522.215C943.674 541.715 899.041 530.882 863.074 531.315Z" fill="#423232"/>
<path d="M727.875 581.149C694.075 595.449 656.375 577.682 656.375 577.682" stroke="#423232" stroke-width="13" stroke-miterlimit="10" stroke-linecap="round" stroke-linejoin="round"/>
<path d="M899.042 589.816C899.042 589.816 875.642 604.116 846.175 587.216" stroke="#423232" stroke-width="13" stroke-miterlimit="10" stroke-linecap="round" stroke-linejoin="round"/>
<path d="M800.184 776.042C800.618 790.342 779.384 826.742 738.218 809.842C698.784 793.808 687.084 718.408 743.418 754.375C772.884 773.008 790.651 776.042 800.184 776.042Z" fill="white"/>
<path d="M808.417 774.308C808.417 774.308 790.217 784.275 743.417 754.375C687.517 718.408 698.784 793.808 738.217 809.842C779.384 826.742 800.617 789.908 800.184 776.042" stroke="#423232" stroke-width="13" stroke-miterlimit="10" stroke-linecap="round" stroke-linejoin="round"/>
<path d="M705.284 765.207C705.284 765.207 734.751 784.707 743.418 782.974C752.518 781.674 751.217 794.24 792.384 795.54" stroke="#423232" stroke-width="13" stroke-miterlimit="10" stroke-linecap="round" stroke-linejoin="round"/>
<path d="M942.818 447.316C941.518 440.816 939.785 433.883 937.618 427.383C935.451 420.883 930.251 415.249 923.318 413.949C900.785 410.049 871.318 433.016 840.118 428.683C740.885 415.249 682.385 361.949 589.218 397.916C493.018 435.183 547.618 590.316 527.251 614.149C523.785 602.016 506.885 552.616 451.418 559.549C398.985 566.049 379.051 687.383 487.385 728.983C486.518 752.816 443.618 775.349 408.951 733.749C374.285 692.149 304.951 584.249 351.751 426.516C398.551 268.783 610.451 186.449 807.618 266.616C841.418 280.483 861.784 314.716 891.251 320.349C1165.12 372.349 976.185 631.483 967.951 701.249C965.785 725.083 949.318 478.516 942.818 447.316Z" fill="#423232"/>
<path d="M487.818 729.417C487.818 729.417 486.951 764.95 450.551 830.817C450.551 830.817 441.885 794.417 422.818 761.05C404.185 727.684 383.385 713.384 360.418 643.617C337.451 573.85 363.885 605.05 384.685 633.65C405.918 662.684 419.785 733.75 487.818 729.417Z" fill="#423232"/>
<path d="M870.885 402.25C870.885 402.25 914.218 317.316 757.351 240.616C600.485 163.916 439.718 217.65 343.085 207.25C343.085 207.25 452.285 280.916 563.651 299.983C675.018 319.05 870.885 402.25 870.885 402.25Z" fill="#423232"/>
<path d="M561.484 250.15C561.484 250.15 350.451 247.983 263.784 474.183C263.784 474.183 349.584 420.45 472.651 409.183C595.718 397.917 615.218 261.417 561.484 250.15Z" fill="#423232"/>
<path d="M893.418 412.216C893.418 412.216 1026.45 365.416 943.685 253.183C847.918 124.05 539.385 174.316 539.385 174.316C539.385 174.316 650.751 203.783 697.118 268.35C743.051 333.35 857.885 439.95 893.418 412.216Z" fill="#423232"/>
<path d="M797.218 420.45C797.218 420.45 709.684 373.65 656.384 419.15C589.651 476.35 606.984 757.15 606.984 757.15C606.984 757.15 528.551 615.45 529.851 482.417C531.151 349.383 592.251 316.017 656.384 321.65C720.518 327.284 788.984 399.65 797.218 420.45Z" fill="#423232"/>
<path d="M847.918 429.549C847.918 429.549 690.618 293.916 682.385 533.549C682.385 533.549 632.552 483.283 672.852 369.316C713.152 255.349 839.252 346.349 847.918 429.549Z" fill="#423232"/>
</g>
</svg>
